/* XPM */
static char * 1_penny_48px_xpm[] = {
"48 48 255 2",
"  	c #261505",
". 	c #2A1803",
"+ 	c #2F1D04",
"@ 	c #362306",
"# 	c #3F2907",
"$ 	c #4C340D",
"% 	c #5B3D12",
"& 	c #66461C",
"* 	c #604823",
"= 	c #684818",
"- 	c #725119",
"; 	c #745222",
"> 	c #715625",
", 	c #78561E",
"' 	c #7E5B23",
") 	c #7F5C1D",
"! 	c #7F5D2C",
"~ 	c #795F3A",
"{ 	c #825F27",
"] 	c #7D602E",
"^ 	c #856532",
"/ 	c #8C6729",
"( 	c #8B672F",
"_ 	c #85693A",
": 	c #856941",
"< 	c #8D6A38",
"[ 	c #876C4B",
"} 	c #8E6C33",
"| 	c #8B6D39",
"1 	c #557E37",
"2 	c #946F37",
"3 	c #91723D",
"4 	c #907344",
"5 	c #90744D",
"6 	c #95763B",
"7 	c #A17437",
"8 	c #638646",
"9 	c #9B7636",
"0 	c #9B763D",
"a 	c #977843",
"b 	c #638955",
"c 	c #5A9141",
"d 	c #608F47",
"e 	c #A77B44",
"f 	c #9E7E43",
"g 	c #AA7C39",
"h 	c #629057",
"i 	c #A97C3F",
"j 	c #9D7F4F",
"k 	c #9F7F4A",
"l 	c #A57E45",
"m 	c #A67F3F",
"n 	c #60953D",
"o 	c #9E8157",
"p 	c #9A825D",
"q 	c #B08036",
"r 	c #A48348",
"s 	c #A4844F",
"t 	c #5F9A49",
"u 	c #5D9C42",
"v 	c #B6833A",
"w 	c #68995D",
"x 	c #B18540",
"y 	c #72975D",
"z 	c #6C9A50",
"A 	c #6E9956",
"B 	c #689B56",
"C 	c #689D44",
"D 	c #B18748",
"E 	c #AA894D",
"F 	c #6B9F3F",
"G 	c #709E46",
"H 	c #62A24E",
"I 	c #69A04D",
"J 	c #AC8B55",
"K 	c #B28A51",
"L 	c #B08A5C",
"M 	c #729F4E",
"N 	c #A98D5E",
"O 	c #759B78",
"P 	c #67A441",
"Q 	c #68A255",
"R 	c #6CA264",
"S 	c #B78D4D",
"T 	c #B08F53",
"U 	c #74A164",
"V 	c #68A74C",
"W 	c #6AA55E",
"X 	c #809F5B",
"Y 	c #67AA37",
"Z 	c #71A45F",
"` 	c #71A64C",
" .	c #78A35F",
"..	c #74A559",
"+.	c #69A954",
"@.	c #6EA75A",
"#.	c #70A754",
"$.	c #BE8F57",
"%.	c #69AC42",
"&.	c #7BA55B",
"*.	c #70AB42",
"=.	c #75A948",
"-.	c #78A755",
";.	c #BC9353",
">.	c #80A468",
",.	c #6FAC49",
"'.	c #69AE4A",
").	c #C3934C",
"!.	c #BD945A",
"~.	c #80A672",
"{.	c #7AA96C",
"].	c #6DAF60",
"^.	c #77AD53",
"/.	c #6FAF5A",
"(.	c #71AF53",
"_.	c #B89861",
":.	c #BA985C",
"<.	c #72AE66",
"[.	c #76AE5A",
"}.	c #70B341",
"|.	c #6FB439",
"1.	c #7BAD61",
"2.	c #7DAD5A",
"3.	c #75AF61",
"4.	c #6FB348",
"5.	c #7AAD67",
"6.	c #B79A6F",
"7.	c #C29958",
"8.	c #7AB239",
"9.	c #7BB04E",
"0.	c #6DB456",
"a.	c #81AD68",
"b.	c #84AD63",
"c.	c #B99C6A",
"d.	c #76B350",
"e.	c #78B349",
"f.	c #7AB342",
"g.	c #70B550",
"h.	c #75B357",
"i.	c #88AC69",
"j.	c #81B057",
"k.	c #86AE5E",
"l.	c #7CB258",
"m.	c #B29E85",
"n.	c #74B55F",
"o.	c #7CB35F",
"p.	c #76B46C",
"q.	c #7CB271",
"r.	c #79B466",
"s.	c #74BA32",
"t.	c #B89F78",
"u.	c #B4A07E",
"v.	c #81B266",
"w.	c #7FB36D",
"x.	c #83B360",
"y.	c #74B955",
"z.	c #81B27B",
"A.	c #76BA4E",
"B.	c #7DB84E",
"C.	c #72BC48",
"D.	c #7AB85C",
"E.	c #7CB855",
"F.	c #91AF74",
"G.	c #89B17B",
"H.	c #86B55C",
"I.	c #74BD41",
"J.	c #79BB48",
"K.	c #86B475",
"L.	c #C6A25F",
"M.	c #83B856",
"N.	c #CBA15F",
"O.	c #7CBC42",
"P.	c #82B85D",
"Q.	c #75BC5E",
"R.	c #8FB181",
"S.	c #87B764",
"T.	c #C7A366",
"U.	c #A3AD7C",
"V.	c #C5A46D",
"W.	c #CEA35B",
"X.	c #86B86B",
"Y.	c #7BBC66",
"Z.	c #82BA65",
"`.	c #7EBC60",
" +	c #81BA6D",
".+	c #78C13C",
"++	c #8FB577",
"@+	c #83BD4C",
"#+	c #88BB53",
"$+	c #7BBD6D",
"%+	c #7BC235",
"&+	c #BEA782",
"*+	c #C4A679",
"=+	c #94B390",
"-+	c #7BC054",
";+	c #86BA73",
">+	c #7AC05B",
",+	c #83BE54",
"'+	c #87BF47",
")+	c #7FC14E",
"!+	c #82BF5B",
"~+	c #85BD68",
"{+	c #79C34E",
"]+	c #89BD5C",
"^+	c #7EC52F",
"/+	c #84C23D",
"(+	c #91BA6F",
"_+	c #93BA69",
":+	c #90BA75",
"<+	c #8DBB7C",
"[+	c #88BF63",
"}+	c #7FC449",
"|+	c #8BBD70",
"1+	c #88BD7C",
"2+	c #8DBD6A",
"3+	c #82C164",
"4+	c #91BA84",
"5+	c #D4A967",
"6+	c #D6AA62",
"7+	c #82C659",
"8+	c #CFAC72",
"9+	c #89C45A",
"0+	c #93C066",
"a+	c #87C561",
"b+	c #84C56E",
"c+	c #8EC361",
"d+	c #D8AC64",
"e+	c #91C545",
"f+	c #8BC46E",
"g+	c #90C274",
"h+	c #8DC468",
"i+	c #92C26E",
"j+	c #8DC37B",
"k+	c #98C16F",
"l+	c #9CBF79",
"m+	c #8AC575",
"n+	c #97C175",
"o+	c #91C55C",
"p+	c #CFAF7E",
"q+	c #88C76A",
"r+	c #C8B18C",
"s+	c #94C284",
"t+	c #96C27D",
"u+	c #8EC484",
"v+	c #8CCA57",
"w+	c #A2C184",
"x+	c #92C86C",
"y+	c #9CC48C",
"z+	c #9BC596",
"A+	c #93CB75",
"B+	c #A0C688",
"C+	c #9BCC77",
"D+	c #99CE83",
"E+	c #DCBA80",
"F+	c #E1C194",
"`.)+c+g+1+f+S.1.2+n+(+++X.i+C+r.D.i+<+]+x+j+z 2.Z Z. +K.R f+{.B+@.[.X.Z s+t+n+l+D.{+7+I.v.1.`.A.",
".+v+3+Z.S.X. .;+o+h+b.k+X.]+2.a.i+D+|+S.~+5...C ;+s+y+x+Z.j+v.u+B g.Y.Z.w.@+K.v.w.%.O.>+Z.G.W y.",
"s.v+)+f.;+y+4+S.c+)+2.F.9.]+1.@.B.b+W n Z.[.-.#.w.3.U W v.[+s+m+3.d.1.3._+*.h.s+|+#.e.v+8. .<+f+",
"9.v+%+^.2+4+~.o.~+i+l+w+=.G v.3.t 1.+.q.d.4.e.u w U @.h./.[+s+5.q.W t+F.=.n d.}.f+j+M M.l.D. .2+",
"A.B..+/.A+y+++;+..-+w+H.H.a.y+q.a.|+p.b -.}.!+n.>.R.2.x.<.a+D.&.v.4+a.R c ,.S.-.'.#.0+(+k...+.A ",
"D.d.I.H D+w.3.(.a.Y.k.i+2+i.;+2+3.X.3.p.d.s.,+B+G.=+B ..;+B.|+3.W  +;++.r.3.[.,+=.'.*.,+l.f+Y...",
")+-+}.i. +[+K.M.<+:+R.t+n.2+S.t+y+Y.h.).;.l J g g K K ;.).a+[.|+`  +I 3.w.3.P.f+B.O.J.B.e.d.Y )+",
"v.-+/.j.U o.|+j+:+Y.D+A+Z.+.d &.!.m ( 4 _ a E K K s k ! < 2 e ;.1.l+;+(.5.@.I.|.x+Z.1.d X /++.B.",
"o.Z.*.@.U Z.3+z.2.-+j+2.~+3+!.9 ^ 3 J E 7.E+E+6+6+6+6+6+N.N.K l 7 $.J.#.o.D.`.Y.w.f+M ~.>.&.-+:+",
"y+l.+.q.h }.;+P.,.}.;+ +'.m ; o 2 m ;.7.7.m D N.d+d+6+T.T.d+d+W.7.l g D.Z A 5. +5.Q.q.i.1.o.@.;+",
"s+[.r.V I.Z.V '.o.(.[.!./ | ( ( 2 m 7.N.N.D :.W.d+d+6+S L.W.6+6+d+W.!.9 S z.1+;+;+`.].w.{.&.|+k.",
"G.v.D.,.C.h.h.D.b+Z.q { 3 { o ( 0 m S ;.;.6 L.6+6+6+7.m T.6+6+6+5+d+W.;.9 ).q.#.<+g+s+;+<+z v...",
"C+w.Q p.E.g+d.A.,+q { 4 ' 0 j ( 2 9 r T 7.L.5+F+E+6+6+6+6+6+6+6+S W.6+6+7.0 v B {.++K.8.++a.{.a.",
"h+K.g+m+h.o.e.S.#+( p ' ' l :.f 6 } 6 f E T :.N.:.5+5+6+6+6+6+S ;.7.;.6+W.T.7 z 5.B j+q. ...b.K.",
"P.n t+ +d.l.P.j.l 5 ! ' ' ' T | { ( } 6 f r r 6 s L.5+5+5+6+6+6+W.S 6+6+6+6+;.i ~.w Z.W U [.++m+",
"j+R >.|+g.l.f+x ! _ ' ' ' ' ' ' ' { ( } f c.N N 6._.E+5+5+5+5+6+6+6+6+d+d+d+5+K x z.v.d r.5.<+u+",
"+.w.G.S.-+^.h+9 < ' 6 s ' ' ! ! ' o ( f *+u.f E T.:.&+:.5+8+5+6+6+6+6+E+N.T.6+7.g z 2.` ..j+v. +",
"#.~+j+[.3+e.!.4 5 ' r T a ' ! ! ! { T.s V.p+c.c.*+T K :.:.:.5+5+6+6+6+D ;.7.d+W.L !.I z 3.[.V ` ",
"c `.f+)+9+(+9 4 { 0 0 ! { { ' ' ! ' | s a J E k J E a c.k :.5+5+6+6+6+6+;.V.D 6+;.x >+Z.i.r.r.B.",
"Y e.h+%+9+~+2 5 ' , _ 4 { { { N N a r V.T.*+r+c.t.r+&+t.J p+8+m.7.6+6+6+;.W.6+6+8+D u++.I ]...8.",
"1.#.v+c+E.S 4 ' ' ' ' ' { { { _.k o _.:.c.r+&+_.c.6.r+u.T.f a T.r 6+6+6+6+6+6+6+W.D D a.I -.V =.",
"a+y.!+!+[.!.! ' ' { ' ' { { { 3 _ ! ^ T ; T a T k | E ( E ( ' ] *+6+6+6+6+6+6+6+W.!.K P c {.1.I ",
"|+D.l.l.C m p ' 6 &+r { ' { s j ! ' | J V._.p+6.N *+N r+j 0 { 2 ] ;.6+6+6+5+d+S 6+!.i x.V U Y.D.",
"o.f+[.v.C m _ ( < ' < ' ' { f s ! ' | J ; E ] r | ^ k ^ l 2 ' 2 T S W.6+W.J K W.6+;.g d.G.q.z.#.",
"q+ +0.@.@.i ( ' J t.| ' ' { 5 N < ' | J 8+c.T.*+_.8+_.T.s 0 ' ( p L.N.6+6+W.S J 6+!.g 1.w.~.<+D+",
"z+z.Z 4+1.m o ' , = ' ' ' { k | ^ ' 3 s ; l ] f < ' r ! 0 3 ' } ] E N.W.6+6+W.W.W.S i e.o.H ` w.",
"y+R.y g+t+K 5 { ' ' ' ' ' ' a s ! ' } _.p+c._._.6.c.c.V.J a ' { r E ;.N.W.W.W.W.W.S K f.4.A d {.",
"X.j+d e.,+D 0 ( ' ' ' ' ' ' a s ^ ' } E ; r | r | , T { 0 6 ' { 3 S S 7.W.W.W.W.7.m e ^+O.c @.y ",
"z+9.e.u ,+A.l 5 ' , , , , ' 3 _ | ' 6 J E+c.p+c.:.V.T p+N 6 ' ( o f m S ;.7.W.W.K g M.%+P f.{.A ",
"h+Z e.D.`.M.i 4 ' , - ; - , ] 6.o ' 3 3 > k ; | ] > 6 > f ( ' N < ( / 9 x S ;.S N g 4.E.[+!+B.j+",
"x+Z.w.h.2+g+K f : _ ; = = ; ; ^ | f ' ; ' > ' ; , ' ; ' > ' 0 > 6 ' { / 9 m x l 7 k {+4.^.B.(.j+",
"[+f+(.d.!+3++.m 4 , ; = = = , ] c.5 ' ' ' ' ' ' ' ' ! ' ' ' 3 2 o a ' ' / / r o q Z.]+D.e.a.3.[.",
"#.C+`.H.,.=.j.g 0 3 - = % = p N 0 a - , ' ' ' ( s ' ' , , - o p ! ! ( ' ) / 0 7 7 |+Z.F (. .~+P.",
"S.~+(.^.J.A.w.A.D 2 < = % * ^ _ m.~ $ % = = ; E l - ; = = % ! j l 0 , ' ' 2 ( i Y.<+Z.h.w.@.|+Y.",
"k.t+D.d.n+/.[.A.e.x < ' % $ * *     . + @ # $ | 3 % $ $ $ # + + # $ - , 2 k q x+!+ +n.r.~+>+C+~+",
"P.` o.v.M.|+Z P D.i x 2 : % @ . .     .   . + ; | # @ @ + + + @ $ = - 4 T ).7 f+9+~+Z.b+ +`.q+E.",
"(.(+++s+Z.(+Z.B.c+[.D x 0 5 % # + . . . .     ! 3 + + + + @ # $ % - j :.).7 E.k+A+h+[+Z.i+,+P.~+",
"%.x.j+ +^.2+n+9+J.!+P.e ).l [ [ $ # @ + + . . { 2 + @ @ # $ % = 4 p :.).a a+3+;+|+C+t+B+|+f+h+D+",
"/. +b+[.^._+X.E.A+|+9.Z.n+x 7.l 5 ; % # # @ + * & # # $ % - | < l 7.g h+J.x+g+j+t+q+m+g+x+A+)+A.",
"#.`.Y.Q M (.o.;+[.f+!+`.o.E.J S 7.6.5 [ : ~ & % & ~ : [ 5 j J ;.K j o.D+E.a+D.1+p.w.A+y.a+7+I.7+",
"f+q.m+p.(.~+A.|+!+h+Z.!+,.y.}+9+l D T.7.6.u.m.u.t.m.6.t.!.T.l c.o.~+v.,+,+[+Y.;+$+p.`.a+J.}+Z.7+",
"~+/.V /.D...e.j+5.,+[.` ]+-+J.v+o+[+o.*+D *+).W.).).*+D K d @.+.t+X. +9+h.|+i+[.<+Z.f+$+P e..+J.",
"/.p.1.P p...e.l.>+v.X.;+[+q+B.%+~+i+E.*.` f.` J.(.I V g.+.r.b B m+`.`.Y Z.P.}+'.d.Z.D.3.#.]+}.}.",
"0.H {+5.r.a.1.Z.f+>.X.9+!+a+3+!+O.B+E.l.(.P )+=.(.V H >.~.h R E. + +g.o.`.X.}+n.b.b.n. +/.C S.C ",
"p.5.h. +5.a.z+b+,+ .Z.]+D.J.9+>+a+@+#+B.l.g.y.r.g.%.Z.q.{.5.+.Y.X.;+/.4.h.3+}.Q.v.,+h+;+q.@.Z 5.",
":+a.h.j+<+a.h+f+P.1.S.,+!+x+!+3+[+E.#+-+!+E.D.4.H /.D.Q U z X.3.3.X.~+P r.z h.D.x+m+o.]+v.{.9.s+",
"7+[+|+t+l+t+Z.D.D.l+c+j+D.d.B.[+h+0+[+.+!+S.A.t Z $++.$+~.O -.K.p.<+-.A.h.w S.e.a+D+r.;+p.5.8.m+",
",+H.o+4+:+S.E.A.f+:+<+++1.P.K.f+Z.]+o.9.h+d.d. +;+a.W R <+z.U  +;+x.z.1+3+P.k.(+A+J.-+P.{.y+d.j+"};
