/* XPM */
static char * 219_xpm[] = {
"32 32 256 2",
"  	c #6E6159",
". 	c #65686B",
"+ 	c #636A73",
"@ 	c #716A63",
"# 	c #77695F",
"$ 	c #6F6B69",
"% 	c #7A6B5B",
"& 	c #6A7078",
"* 	c #6C7073",
"= 	c #7F6F5F",
"- 	c #76716A",
"; 	c #7A7266",
"> 	c #807168",
", 	c #6E757D",
"' 	c #7A7574",
") 	c #7C766F",
"! 	c #727880",
"~ 	c #74787A",
"{ 	c #7C797D",
"] 	c #7F7972",
"^ 	c #87786E",
"/ 	c #7C7B85",
"( 	c #7F7B7A",
"_ 	c #8A796A",
": 	c #837B6F",
"< 	c #777D85",
"[ 	c #797D7F",
"} 	c #877A75",
"| 	c #837D76",
"1 	c #8D7C6D",
"2 	c #81808A",
"3 	c #7B828A",
"4 	c #85807F",
"5 	c #7E8285",
"6 	c #87817A",
"7 	c #848286",
"8 	c #8C8176",
"9 	c #798890",
"0 	c #848683",
"a 	c #888589",
"b 	c #80878F",
"c 	c #8A8584",
"d 	c #8C857E",
"e 	c #838789",
"f 	c #878790",
"g 	c #848B93",
"h 	c #8E8988",
"i 	c #908982",
"j 	c #878B8D",
"k 	c #93897D",
"l 	c #8B8A94",
"m 	c #8A8C89",
"n 	c #8D8B8F",
"o 	c #7F8F95",
"p 	c #888E96",
"q 	c #938C86",
"r 	c #918D8B",
"s 	c #8A8F91",
"t 	c #948F8E",
"u 	c #8B9199",
"v 	c #8D9294",
"w 	c #97908A",
"x 	c #999084",
"y 	c #90928F",
"z 	c #949195",
"A 	c #8D949C",
"B 	c #8F9496",
"C 	c #979291",
"D 	c #87989D",
"E 	c #90969E",
"F 	c #949693",
"G 	c #999593",
"H 	c #989599",
"I 	c #9B958E",
"J 	c #929799",
"K 	c #9B989C",
"L 	c #939AA2",
"M 	c #959A9C",
"N 	c #9D9897",
"O 	c #9F9891",
"P 	c #989A97",
"Q 	c #909C9D",
"R 	c #959CA4",
"S 	c #979C9E",
"T 	c #8E9FA5",
"U 	c #999DA0",
"V 	c #A29C95",
"W 	c #979EA6",
"X 	c #9F9CA1",
"Y 	c #A19C9B",
"Z 	c #9B9E9B",
"` 	c #9D9DA7",
" .	c #95A0A1",
"..	c #9A9FA1",
"+.	c #9CA0A3",
"@.	c #9AA1A9",
"#.	c #A29FA4",
"$.	c #A49F9E",
"%.	c #9EA19D",
"&.	c #A69F98",
"*.	c #9DA2A4",
"=.	c #A2A1AB",
"-.	c #A6A1A0",
";.	c #A1A3A0",
">.	c #99A5A6",
",.	c #A4A2A6",
"'.	c #9DA4AC",
").	c #9FA4A6",
"!.	c #97A6AC",
"~.	c #9FA6AE",
"{.	c #A1A6A8",
"].	c #A9A4A3",
"^.	c #ABA49D",
"/.	c #9CA8A8",
"(.	c #A4A6A3",
"_.	c #A8A5A9",
":.	c #9AA9AF",
"<.	c #A3A7AA",
"[.	c #A1A8B1",
"}.	c #A4A8AB",
"|.	c #A6A8A5",
"1.	c #A5A9AC",
"2.	c #A4AAB3",
"3.	c #A6AAAD",
"4.	c #A8AAA7",
"5.	c #AAAAA1",
"6.	c #AAA9B3",
"7.	c #ACA9AE",
"8.	c #9EADB3",
"9.	c #AEA9A8",
"0.	c #A2ADA8",
"a.	c #A7ABAE",
"b.	c #A8ACAF",
"c.	c #A2AEAE",
"d.	c #A6ADB5",
"e.	c #B2ABA4",
"f.	c #AAADAA",
"g.	c #A9ADB0",
"h.	c #9DB0BB",
"i.	c #A8AFB7",
"j.	c #AAAFB1",
"k.	c #A3B1B7",
"l.	c #A5B1B2",
"m.	c #B1AEB2",
"n.	c #B3AEAC",
"o.	c #ABB0B2",
"p.	c #ADB0AC",
"q.	c #A7B1BE",
"r.	c #AAB1B9",
"s.	c #ACB1B3",
"t.	c #ABB2BB",
"u.	c #ADB2B4",
"v.	c #AAB3C1",
"w.	c #AEB3B5",
"x.	c #B0B3AF",
"y.	c #A9B5B6",
"z.	c #B5B2B6",
"A.	c #ADB4BC",
"B.	c #AFB4B6",
"C.	c #A7B6BC",
"D.	c #B1B5B8",
"E.	c #B3B5B2",
"F.	c #ACB6C4",
"G.	c #B8B4B2",
"H.	c #AFB6BE",
"I.	c #A7B8C4",
"J.	c #BBB4AD",
"K.	c #A4BABF",
"L.	c #A7BAB9",
"M.	c #B6B5C0",
"N.	c #B2B7BA",
"O.	c #AEB8C6",
"P.	c #B1B8C0",
"Q.	c #B4B8BB",
"R.	c #ACBAC1",
"S.	c #AEBABA",
"T.	c #B6B8B5",
"U.	c #B9B7BB",
"V.	c #B2B9C2",
"W.	c #B5B9BC",
"X.	c #B6BABD",
"Y.	c #B4BBC3",
"Z.	c #B7BBBE",
"`.	c #B9BBB8",
" +	c #BCBABE",
".+	c #ACBFBE",
"++	c #B8BCBF",
"@+	c #B5BEB8",
"#+	c #B6BDC5",
"$+	c #AEBFCC",
"%+	c #B0BFC5",
"&+	c #C0BBBA",
"*+	c #C2BBB4",
"=+	c #B9BDC0",
"-+	c #BBBDBA",
";+	c #B3BFC0",
">+	c #BFBCC0",
",+	c #B7BEC6",
"'+	c #ABC2C7",
")+	c #C0BDC2",
"!+	c #BABFC1",
"~+	c #BDBFBC",
"{+	c #AFC3C2",
"]+	c #B9C0C8",
"^+	c #BBC0C2",
"/+	c #BCC1C3",
"(+	c #BDC2C4",
"_+	c #B4C5CB",
":+	c #C4C1C5",
"<+	c #BCC3CB",
"[+	c #BEC3C5",
"}+	c #C0C3BF",
"|+	c #C8C1BA",
"1+	c #B3C7C6",
"2+	c #BFC4C6",
"3+	c #C7C2C1",
"4+	c #BAC6C6",
"5+	c #C7C4C8",
"6+	c #BFC6CE",
"7+	c #C1C6C8",
"8+	c #C3C6C2",
"9+	c #C1C8D1",
"0+	c #C3C8CA",
"a+	c #C6C8C5",
"b+	c #BECACB",
"c+	c #CAC7CC",
"d+	c #CCC7C5",
"e+	c #BCCBD1",
"f+	c #C5C9CC",
"g+	c #C6CACD",
"h+	c #C3CBD3",
"i+	c #C7CCCF",
"j+	c #C1CFCF",
"k+	c #C6CDD5",
"l+	c #CECBD0",
"m+	c #C0CFD5",
"n+	c #CBCDCA",
"o+	c #D1CCCA",
"p+	c #C9CED0",
"q+	c #C8CFD8",
"r+	c #CACFD1",
"s+	c #D2CFD4",
"t+	c #CAD1DA",
"u+	c #CCD1D3",
"v+	c #CED1CD",
"w+	c #CFD4D7",
"x+	c #D3D4D1",
"y+	c #D6D3D7",
"z+	c #CED5DE",
"A+	c #D2D7DA",
"B+	c #D2DAE2",
"C+	c #DBD8DC",
"D+	c #D5DADD",
"E+	c #D9DBD8",
"F+	c #DFDCE1",
"G+	c #D9DEE0",
",.M F S M X.D.u.J ~+T.x.B.s.s E.E.Q.B.w.g.J *.M J <.S 3.<.N.i.+.",
"Y (.*.H H N.7+X.=+Q...a.s.g.o.u.o.p.o.j.w.w.a.S +.{.+.a.i.D.g.S ",
"$.|.,.K H U.0+]+,+X.E D.2+!+=+/+^+++7+/+(+=+Q...g.f.J }.<.(.%.K ",
"p.].(.t z `.7+^+#+Y.L s.^+Z.D.D.N.=+]+6+7+N.D.,.p.U.U.>+5+,.U M ",
"}.1.{.1.*.&+!+W.P.u.J g.++U.Q.B.N./+Z.X.D.g.a.,.3.m. + +)+m.1.}.",
"a.'.[.d.[.G.Z.N.w.Q.=+/+1.f+q+t+t+t+q+0+s.[.8.d.[.7+D+i+p+r+1.B.",
"*.@.1.o.}.E. +E.f.f.4.E.}.6+9+6+9+k+9+W.).:.:.:.<.m.8+^+(+!+w.E.",
"+.H X 3.g.3.S H 2.r.A.r.[.(+[+7+2+6+6+X.U :.:.~.'.a.f.o.s.j.4.(.",
"A.[.g.j.g.a.'.S ).).*.U K W.Q.X.X.^+++<.J >.'.).@.=+7+2+7+#+[+]+",
"A.2.d.3.1.'.~.M B.t.'.N.[+(+D.j.{.Z f.Q.D.f.=+^+,+p.~+!+i.s.Z.u.",
"G X N.o.1.d.i.J o.a.U ~+7+[+N.u.j.o.0+0+0+/+u.7.7.,.|.].(.;.Z N ",
"B.Z.{.).3.i.}.[.k+k+t.7+a+^+D.r.o.g.^+/+(+o.,+u+w+6+6+6+%+r.N.w.",
"i.s.g.{.}.a.'.d.t+q+2.8+[+^+N.B.a.a.W.Z.Z.g./+Y.n+D+7+(+!+r.N.A.",
"Z X b.<.}.b.b.P.k+k+2.o.{.(.S F *.<.K y (.}.[+f+/+w+Q.u.u.~.7.;.",
"w.1.B.N.X.!+w.=+h+h+d.Q.f.{.>.1.H.A.2.+.s.s.p.}+~+f.}.j.(... +X.",
"3.=+++0+2+(+W.A.q+k+'.Q.E.1.*.b.P.N.t...a.1.D.a.%.}.,.}.b.D.N.w.",
"g.Q.!+i+f+0+X.U j.b.<.1.|.;.P j.A.H.H.*.4+y.y.S.*.3.U ^+W.W.Y.=+",
").=+=+!+/+W.u.3.X.0+f+7+<+W.2+M W [.2.L W.j.y.W...<.J Z.++H.H.Y.",
"o.i+0+<+7+X.b.<.=+f+9+=+w.{.p.+.{.*.4.o.f.{.4.4.)...K Q.^+W.H.Z.",
"a.7+6+]+0+w.{.+.=+f+7+X.3.B.W.++(+j./+#+[+j.H.H.i.d.+.Q.=+B.A.A.",
"1.!+X.!+(+g.;.+.B.p.|.f.3.w.u.s.j.u.<+V.<+3.D.A.i.i...D.B.o.d.}.",
"%.-+Z.++^+{.`.`.}+=+<./+7+2+7+6+7+u.[+]+X.'.D.t.i.[.U b.g.3.4.).",
"<.K %.;.;.X ~+~+8+`...[+^+X.`.~+Q.b.2+^+P.[.1.+.|.f.Q.o.*.U Z S ",
"U +.*.+.E U 8+}+~+~+..w.x.u.x.p.(.3.p.p.o.{.7.}.=+6+,+H.j.<.U {.",
"U ).W U M J `.-+~+}+}.^+g.X./+#+D.a.3.3.g.w.t.a.7+#+X.A.i.).J *.",
"L W R E A U _.4.x.x.{.E.{.b.B.g.{.3.{.o.o.B.r.3.X.D.r.d.~.).B +.",
"v z S J B Q.B.N.Z.=+N.o.U a.u.u.3.3.U g.f.{.,.{.o.<.,.).+.M M F ",
"%./.4+1+4+B.X.Z.#+X.Y.r.E 3.b.o.1.}.S g.B.1.D.!+).J +.J *...J U ",
"*.).1+{+1+(.o.p.(.|.4.%.U {.).;.%.(.{.z.Q.o.(+o.*.U +.J <.+...U ",
"+.~..+S..+1.X.W.M s.3.3.s.W.R B.N.N.!+7+g.B.D.).......J <...S ..",
"U g..+1+C.!+#+N.M Z.u.o.w.D.M -+w.Z.Z.^+X.{.+.J J S B B S M B S ",
"K ).l.l.a.=+Z.s.B 7+E.u.u.B.v E.w.T.B.Q.B...M U s S v *...+.+.+."};
