/* XPM */
static char * 231_buzz_xpm[] = {
"32 32 255 2",
"  	c #261E31",
". 	c #371F29",
"+ 	c #2A2C38",
"@ 	c #412737",
"# 	c #44263E",
"$ 	c #363437",
"% 	c #324831",
"& 	c #49424C",
"* 	c #3A4B25",
"= 	c #514541",
"- 	c #3E4B41",
"; 	c #424A46",
"> 	c #464D2E",
", 	c #58475A",
"' 	c #5D4A27",
") 	c #4F4C45",
"! 	c #54515D",
"~ 	c #694A72",
"{ 	c #4A574C",
"] 	c #525833",
"^ 	c #684E5E",
"/ 	c #6F4C6B",
"( 	c #615259",
"_ 	c #714E7D",
": 	c #555B4F",
"< 	c #515D4D",
"[ 	c #555D42",
"} 	c #695575",
"| 	c #496736",
"1 	c #4F644F",
"2 	c #4C693E",
"3 	c #5E606E",
"4 	c #775C55",
"5 	c #66643B",
"6 	c #666160",
"7 	c #566867",
"8 	c #566C4E",
"9 	c #626769",
"0 	c #567039",
"a 	c #576E55",
"b 	c #4C7346",
"c 	c #676A61",
"d 	c #63704E",
"e 	c #6F6D74",
"f 	c #8E684E",
"g 	c #886961",
"h 	c #5E7A3C",
"i 	c #6C7369",
"j 	c #787066",
"k 	c #597C4C",
"l 	c #75716F",
"m 	c #607D45",
"n 	c #68796A",
"o 	c #667E4D",
"p 	c #648350",
"q 	c #967263",
"r 	c #62864C",
"s 	c #5C8A54",
"t 	c #897A6D",
"u 	c #6F8270",
"v 	c #61895A",
"w 	c #788165",
"x 	c #5F8A60",
"y 	c #847E83",
"z 	c #B47362",
"A 	c #7C8379",
"B 	c #9D7C66",
"C 	c #AD7863",
"D 	c #A67D5E",
"E 	c #5C9859",
"F 	c #6B954E",
"G 	c #9C8370",
"H 	c #798F6C",
"I 	c #719453",
"J 	c #978488",
"K 	c #79915F",
"L 	c #868D6B",
"M 	c #679C50",
"N 	c #869079",
"O 	c #8D8D84",
"P 	c #978A85",
"Q 	c #928D74",
"R 	c #679E4C",
"S 	c #6A9D58",
"T 	c #8F8D8E",
"U 	c #829569",
"V 	c #7B9861",
"W 	c #9E8C78",
"X 	c #6F9E60",
"Y 	c #67A43B",
"Z 	c #6CA248",
"` 	c #7B9B6C",
" .	c #69A543",
"..	c #6AA357",
"+.	c #67A74B",
"@.	c #76A15B",
"#.	c #6FA35E",
"$.	c #6DA552",
"%.	c #7C9E77",
"&.	c #A19098",
"*.	c #73A458",
"=.	c #B78D6F",
"-.	c #9C9298",
";.	c #7DA15F",
">.	c #AA9281",
",.	c #A19589",
"'.	c #8D9D78",
").	c #6BAD3B",
"!.	c #72A769",
"~.	c #7CA46D",
"{.	c #70AA5D",
"].	c #7AA76B",
"^.	c #73AB57",
"/.	c #76A964",
"(.	c #85A374",
"_.	c #75AB51",
":.	c #6FAD51",
"<.	c #9E9A86",
"[.	c #6BAF49",
"}.	c #7EA1AF",
"|.	c #78AA5E",
"1.	c #77AC4B",
"2.	c #B1967C",
"3.	c #9E9B93",
"4.	c #72AF4C",
"5.	c #74AF46",
"6.	c #6FAF5A",
"7.	c #80AA63",
"8.	c #8AA672",
"9.	c #AB9A8A",
"0.	c #7EAD5B",
"a.	c #73B155",
"b.	c #8FA95B",
"c.	c #7AB056",
"d.	c #79B05C",
"e.	c #7AAF69",
"f.	c #82AF50",
"g.	c #7DAF63",
"h.	c #77B163",
"i.	c #A2A281",
"j.	c #99A971",
"k.	c #7CB645",
"l.	c #79B653",
"m.	c #73B853",
"n.	c #76B660",
"o.	c #76B93E",
"p.	c #86AF7B",
"q.	c #72B85B",
"r.	c #AEA09B",
"s.	c #75B946",
"t.	c #7DB372",
"u.	c #BF9D85",
"v.	c #96AC6C",
"w.	c #CC9A7B",
"x.	c #8DAF6B",
"y.	c #75B94D",
"z.	c #80B554",
"A.	c #79B75B",
"B.	c #82B279",
"C.	c #7BB667",
"D.	c #85B45A",
"E.	c #7FB65B",
"F.	c #7AB66E",
"G.	c #7EB661",
"H.	c #7DB84F",
"I.	c #A9A49D",
"J.	c #8BB174",
"K.	c #86B374",
"L.	c #84B669",
"M.	c #86B663",
"N.	c #A0AB8A",
"O.	c #8BB56A",
"P.	c #83B770",
"Q.	c #A9A896",
"R.	c #8AB570",
"S.	c #7EBB58",
"T.	c #CE9E8B",
"U.	c #B5A59A",
"V.	c #B1A797",
"W.	c #97B181",
"X.	c #80BA6C",
"Y.	c #94B377",
"Z.	c #7CBC66",
"`.	c #AAA8AF",
" +	c #83BB66",
".+	c #7DC22B",
"++	c #BAA791",
"@+	c #86BD61",
"#+	c #A7B086",
"$+	c #7FC247",
"%+	c #8DBC62",
"&+	c #81C063",
"*+	c #83C05D",
"=+	c #7FC256",
"-+	c #7EC34F",
";+	c #92BB69",
">+	c #8DBB7C",
",+	c #87C14F",
"'+	c #81C16B",
")+	c #94BA7C",
"!+	c #86C257",
"~+	c #84C077",
"{+	c #88C06B",
"]+	c #8CC05E",
"^+	c #94BC85",
"/+	c #8FC06C",
"(+	c #8CC079",
"_+	c #8EC073",
":+	c #88C273",
"<+	c #B8B0A0",
"[+	c #8DC368",
"}+	c #95C17A",
"|+	c #A1BE7C",
"1+	c #94C283",
"2+	c #D3AE8A",
"3+	c #BBB59B",
"4+	c #96C56B",
"5+	c #B8B5AD",
"6+	c #C6B39C",
"7+	c #90C873",
"8+	c #DDAF84",
"9+	c #B6B7B8",
"0+	c #BEB8AA",
"a+	c #95CB6F",
"b+	c #C4B8A5",
"c+	c #ABC2A1",
"d+	c #A2C69B",
"e+	c #9FCA7F",
"f+	c #B3C396",
"g+	c #BDBEB6",
"h+	c #BAC49F",
"i+	c #EBB691",
"j+	c #C6BFB6",
"k+	c #B9C4AB",
"l+	c #CABFAD",
"m+	c #BDC3B2",
"n+	c #B0CA94",
"o+	c #ACCD95",
"p+	c #D6C2AB",
"q+	c #C9C6AD",
"r+	c #DFC1A0",
"s+	c #CFC6BB",
"t+	c #CFCCB6",
"u+	c #CFCFAC",
"v+	c #D4D2C8",
"w+	c #DCD1BE",
"x+	c #F5CDA2",
"y+	c #C9DBA7",
"z+	c #CFDAB7",
"A+	c #E6DCCC",
"B+	c #EBDEC5",
"C+	c #E1E1C9",
"D+	c #EDE9D3",
"E+	c #F5EFDA",
"F+	c #F3F0E2",
"S.,+X.}+0.M.;+)+M.%+L._+R.%+P.$.g.h.P.(+t.t. +P.(+}+O.=+-+d.{.m.",
"$+-+l.K.B.]+*+x.z.M.M.H.{.A.g.Z R.B.h.G.R.~+4.X.%+ +>+g.o.H.J.{+",
"@+.+0.^+B.G.@+|+f.M.*.g.%.} _ A ~.v k z+1+>+*.K.Y G.l.{+O.D.c.7.",
"y.s.6.P.d.|.E.;+g.P._+X.G =.B / n c 6 T H e+>+6./.c.z.:.z.0. +g.",
",+m.L.G.M.>+R.}+G.M.1+}+P >.5+u., ! 3 e 8 }+(+$.g.d.@+y.l.z.H.s.",
"/+Y M h.(+e.&+ +_+%.x 9+C 2+w.i+4 & ! O ` t+}+G./.y.A. +@.V l. +",
"}+^./.a.X._.l.K.`.H : T g u.r+8+g e T ` n+<.z+L.S >+~+n.F.)+M.|.",
">+Z.y.l.l.'+C.m+Q V F ; g =.x+8+y I.H :+}+W q+..P.B.e.{+e.K.*.O.",
"/+e.C.{+y.S.8.<+'.4.#.$ ) f D 4 l ~ p o+C+T.V.^+>+M ..X X.@.].R.",
"c.L. +A.E.z.5.v.R.y.a % +   - 1 s ( 3.0+C+l+V.W.M #.@.X X.K.|.(+",
"h.!. +S.4+A.).l.a.].n 1 b a < E ` c 6 6 ) b+z h+!.~.X ].|.R >+~+",
"h.L.c.l.,+Z.&+m.q./.7 9 { 2 k I j y T j+I.,.q #+B.M }+G.$.*.^._.",
" .&+$+/+ +n.c+k+^+{.i ] 5 0 m L `.g+9+3.3.J >.W.:.$.(+ +{+|.{.5.",
"$.H.!+A.a.[.j+g+y+(+X [ ' 0 h I.9+}.v+b+,.J 2.V d.C.A.c.e.^.|.l.",
"*+E.A._.y.A.-.n+e+C+t+s+m+e.(.j+F+v+D+b+J %.F 0.R ^.0.+._.$./.^.",
"L. +g.a.A.*.V.O.n+l+0+s+A+)+K.5+j+F+U.^ H {.].V p.#.#.^.:.P.t.{.",
":+6.R A.:. .,+x.g.O.i.9.U.N.X j j t = (.C++.'.J.Q.~.F.$.c.d.~.(+",
"d+X P.g.$._.1.4./.R *.e.j.Q o > * | K t+A+N.s+D+f+N M $.0.5.M 7.",
"}+Z 5.=+Y l.:.d.a.$.I d.>+I.C+<+x.b.Q 9.p+l+D+E+#+Q./.@+s.o.Z X ",
"_+S.a.S.[.H._.6.c.n./.#.Q.v+F+h+,+H.v.W 6+<+E+B+#+q+..G.5.l.A.L.",
"{+X.a. +Y a.=+l.o.:.d./.g+F+0+0.z.C.@.W ++b+A+3+8.;.E.,+=+c.l.C.",
" +A. +c.E.^._.$+y.&+y.W.s+E+l+g.P.(+E.` t <.W.P.S.L.A. + + .S a.",
"L.@+z.*+c.y.s.=+!+{+{+3.A+E+z+&+ +!.K.J.N.J.G.{+@+=+*+(+A.C. +X.",
"_.G.d. +..4.$+5.%+]+p.<+E+E+u+m.:.h.L.X./+X. +y.m.q.7+&+G.Z.*+[+",
"c.R.(+L. +!+_.@+|.f.2 /.z+E+u+m.y.:.{.h.a.y./+A.$+l./+7+{+_+S.:+",
" +'+^.@+M.*+&+d # u '.: )+z+q+6.A.+./.e.!.a.(+ +!+:+(+7+_+/+a+*+",
"Z.:+*.G.G.G.[+r # # J w+U {+Y.{.:.[.+.$.6.A.h.{+]+l.F.P.7+=+s.=+",
"G.^.6.d.G.P.*+^.w @ # &.q+Y._.c. .{.+...d.g._+H.G. +X._+ +4.,+s.",
"6.d.6.#.1.&+R.L.{+o . # r.f+1.k.:.+.^.h.X  +A.4.A.=+A.M.n.^.%+).",
"6.G.C.e.>+m.7.@+S.*+I @ # g.m.c.:.:.].X d.'+X.4.G.S.n.M.{+P.g.S ",
"M. +(+)+{+@+L.z.]+S.[+0.0.l.a.4.{.A.*.~.d.e.g.4.{.0.S.[+@+C.g.P.",
"@+4+1+O.A.@+}+1+c.F./+]+@+*+l.G.g.S t.B.7.~+R.e.A.0.%+*+n.X.K.@+"};
