/* XPM */
static char * 32_buzz_down_grass_xpm[] = {
"32 32 255 2",
"  	c #080F11",
". 	c #0C110C",
"+ 	c #24112E",
"@ 	c #171D1F",
"# 	c #1A1E18",
"$ 	c #43253F",
"% 	c #2A2F29",
"& 	c #432083",
"* 	c #273033",
"= 	c #43295E",
"- 	c #373418",
"; 	c #452876",
"> 	c #244515",
", 	c #A4281F",
"' 	c #5F3991",
") 	c #494E45",
"! 	c #4E520D",
"~ 	c #714081",
"{ 	c #2E5F13",
"] 	c #495157",
"^ 	c #69468E",
"/ 	c #834827",
"( 	c #674A83",
"_ 	c #644E67",
": 	c #7C4493",
"< 	c #33652A",
"[ 	c #71504E",
"} 	c #446228",
"| 	c #426236",
"1 	c #397221",
"2 	c #3B7511",
"3 	c #477025",
"4 	c #5E6B28",
"5 	c #1C769E",
"6 	c #7D6246",
"7 	c #6E6C16",
"8 	c #636C47",
"9 	c #7E5E95",
"0 	c #8F589E",
"a 	c #477738",
"b 	c #736479",
"c 	c #41766A",
"d 	c #866086",
"e 	c #696C69",
"f 	c #558020",
"g 	c #4F804C",
"h 	c #488620",
"i 	c #5D7D40",
"j 	c #5B7D4F",
"k 	c #4F842D",
"l 	c #518523",
"m 	c #4C8537",
"n 	c #548337",
"o 	c #5C8137",
"p 	c #747B38",
"q 	c #4B8744",
"r 	c #6E8114",
"s 	c #568545",
"t 	c #508C15",
"u 	c #A36FAA",
"v 	c #2196BA",
"w 	c #5C9042",
"x 	c #629332",
"y 	c #808383",
"z 	c #589731",
"A 	c #60943C",
"B 	c #6B9045",
"C 	c #58973C",
"D 	c #7E8C33",
"E 	c #639251",
"F 	c #5A9551",
"G 	c #579745",
"H 	c #6E8F52",
"I 	c #6B8F5F",
"J 	c #60935D",
"K 	c #9B7BA6",
"L 	c #5D9575",
"M 	c #639849",
"N 	c #5A9E27",
"O 	c #4E97AB",
"P 	c #639C26",
"Q 	c #699A29",
"R 	c #878B7E",
"S 	c #B47F67",
"T 	c #639F1A",
"U 	c #92869C",
"V 	c #839166",
"W 	c #A18B4F",
"X 	c #958A95",
"Y 	c #A28A66",
"Z 	c #6AA051",
"` 	c #6AA440",
" .	c #62A740",
"..	c #6EA349",
"+.	c #65A64A",
"@.	c #70A15F",
"#.	c #75A241",
"$.	c #929295",
"%.	c #7F9F41",
"&.	c #67A45F",
"*.	c #64A653",
"=.	c #6CA26B",
"-.	c #A1981F",
";.	c #7AA053",
">.	c #7A9E6E",
",.	c #7E9F61",
"'.	c #68AD1D",
").	c #68AD29",
"!.	c #71A758",
"~.	c #6AAC37",
"{.	c #64AE36",
"].	c #66B112",
"^.	c #74AB29",
"/.	c #74AA37",
"(.	c #6CB24A",
"_.	c #6EB15D",
":.	c #78AF5F",
"<.	c #79B34F",
"[.	c #6EB658",
"}.	c #6FB46C",
"|.	c #A0A19E",
"1.	c #76B458",
"2.	c #A89EAC",
"3.	c #76B279",
"4.	c #7FB258",
"5.	c #7AB26D",
"6.	c #6FBA42",
"7.	c #86B24F",
"8.	c #87B063",
"9.	c #87AF6F",
"0.	c #84AF7C",
"a.	c #69B1C8",
"b.	c #A3A2AA",
"c.	c #8DAF63",
"d.	c #79B843",
"e.	c #70BE21",
"f.	c #9DAB63",
"g.	c #8FB153",
"h.	c #73BA51",
"i.	c #73BD2F",
"j.	c #75B965",
"k.	c #80BA38",
"l.	c #80B766",
"m.	c #73BF3A",
"n.	c #8BBB47",
"o.	c #B8B028",
"p.	c #77C24A",
"q.	c #82C04B",
"r.	c #6CC564",
"s.	c #83BA9A",
"t.	c #9FB29B",
"u.	c #9FB489",
"v.	c #C3A987",
"w.	c #A1B579",
"x.	c #78C557",
"y.	c #AEAEA3",
"z.	c #7AC92C",
"A.	c #73CA3A",
"B.	c #7BC465",
"C.	c #7DC45F",
"D.	c #7AC46D",
"E.	c #81C458",
"F.	c #7CC37A",
"G.	c #BCAE8A",
"H.	c #C1B710",
"I.	c #82C36F",
"J.	c #85C366",
"K.	c #89C35E",
"L.	c #80CC18",
"M.	c #89C17B",
"N.	c #84C288",
"O.	c #8CC26D",
"P.	c #83C93D",
"Q.	c #8BC274",
"R.	c #8FC267",
"S.	c #95C25C",
"T.	c #87CA31",
"U.	c #96C071",
"V.	c #B9AFBC",
"W.	c #9CC060",
"X.	c #80CA51",
"Y.	c #94BF8B",
"Z.	c #81CB46",
"`.	c #9DBF6F",
" +	c #A6BC72",
".+	c #B2B2BD",
"++	c #B4B2B7",
"@+	c #97C07D",
"#+	c #B3B3B0",
"$+	c #BFB84D",
"%+	c #8ECB49",
"&+	c #8DCB55",
"*+	c #98C855",
"=+	c #8BCE78",
"-+	c #99D122",
";+	c #8ECE70",
">+	c #8ECF66",
",+	c #9CCF3C",
"'+	c #90D33A",
")+	c #97CD7E",
"!+	c #9ACE72",
"~+	c #95CE87",
"{+	c #9ACE79",
"]+	c #96D449",
"^+	c #9ECF6A",
"/+	c #A5CC7D",
"(+	c #BFBECA",
"_+	c #A2CD89",
":+	c #C1BFC1",
"<+	c #9ACF97",
"[+	c #EAB7A5",
"}+	c #AACF76",
"|+	c #9BD75E",
"1+	c #ADD06F",
"2+	c #ACC8D3",
"3+	c #B2CD82",
"4+	c #BACB83",
"5+	c #C2C7B3",
"6+	c #B1D08F",
"7+	c #AED199",
"8+	c #AAD763",
"9+	c #ADD1A0",
"0+	c #B8CF91",
"a+	c #AED1A8",
"b+	c #D6C5A9",
"c+	c #AED586",
"d+	c #C9C7CA",
"e+	c #C2CE93",
"f+	c #C0CF9B",
"g+	c #C9C8D3",
"h+	c #ADD794",
"i+	c #BFD1AA",
"j+	c #ACDD81",
"k+	c #AADD8A",
"l+	c #B5D6BA",
"m+	c #CED2C8",
"n+	c #D1D0DB",
"o+	c #D3D1D4",
"p+	c #B4E47E",
"q+	c #BBE190",
"r+	c #D3D7C3",
"s+	c #B0E79F",
"t+	c #BDE3A1",
"u+	c #BDE4AA",
"v+	c #D6DAD0",
"w+	c #E5D7BD",
"x+	c #DAD8DB",
"y+	c #BFE4B7",
"z+	c #D7E3BF",
"A+	c #E2E0E5",
"B+	c #D3E8CE",
"C+	c #E2E2DF",
"D+	c #E7E7DA",
"E+	c #EAE9EB",
"F+	c #F2F2F1",
"E.K.Q.Q.l.J.O.U.J.O.:.O.9.R.l.:.:.I.5.I.5.l.l.l.Q.U.O.p.E.4.l.E.",
"q.E.1.M.9.K.E.Q.4.l.:.l._.:.0.#+V.t.l.J.Q.:.1.l.K.4.Q.:.<.d.9.O.",
"4.d.4.M.9.l.O.U.4.8.:.@.!.1.u.#+w+5+0.J.Q.5.5.9.!.1.E.O.8.4.:.8.",
"C.p.:.9.:.l.l.R.O.9.O.O.l.8.7+b+w+w+0.E.I.:.I.j.!.:.4.1.4.4.l.!.",
"h.<.4.J.l.l.Q.Q.l.l.U._+U.i+r+b+w+w+|.!.9.9.l.:.:.E.K.h.<.<.<.<.",
"l.#.!.!.I.9.J.J.l.,.i+m+:+A+v+b+b+b+y $.5+v+U.1.:.E.C.J.!.,.;.O.",
"@+:.:.[.l.1.1.l.(.t.9+v+:+d+X y R d _ $.o+r+/+@+!.9.I.:.5.9.:.:.",
"M.j.(.1.1.j.:.5.t.o+u.7+m+i+b.U U U y.r+r+/+f+m+Y.M.5.Q.I.Q.!.,.",
"O.l.l.l.<.E.h.u.|.d+9+~.<.f+m+:+++++/+3+3+`.:+d+++0.!.5.8.8.l.9.",
"4.I.J.4.E.<.4.$.R y.:+..&.` @+y.++t.k./.n.u.++b.#+u.!.@.l.@.l.Q.",
":.9.l.E.R.C.Y.y.R y #+u.w l D 8.0.:.D p g.#+b.|.:+5+>.>.:._.l.M.",
":.M.1.<.C.J.5+b+$.$.y.:+$.j Z <.4.7.;.>.5+:+t.++$.d+@+l.:.!.:.1.",
"..J.p.9.J.0.d+d+#+0.u.b.9 U ++++.+++:+U U #+>.5+(+x+<+O.C.:.:.<.",
"1.E.E.l.1.0.5+#+Y.1.>.X X $.$.$.$.$.|.y.X R !.Y.d+r+Y.!.:.!.4...",
"J.4.E.1.x.8.;.4.Q.4.:.0.9.) @ @ # # * >.Y.Q.4.c._+S.{+..Z M @.:.",
"l.:.:.1.4.9.:+:+t.8.8.:.l.i { > > < i 9.:.:.9.u.7+a+@+!.<.:.:.:.",
"Q.l.@.1.!...t.:+x+Y.:.!.Y.#+u.M M 9.t.#+5.1.8.d+C+m+9.!.1.l.5.Q.",
"Y.@.Q.9.!.<.:.#+o+t.5.5.5+x+++#+++2.d+A+M.;.Q.:+o+t.!.!.1.<.Z :.",
"Q.!.<.4.d.E.4.0.(+x+:+a+:+g+++b.b.++d+x+u.9.5+x+5+8.(.4.h.d.Z @.",
"O.<.<.C.<.4.Z 9.:+o+t.0.d+o+m+Y.Q.#+d+g+Y.a+(+A+5+:.l.C.h.4.:.9.",
"R.l.4.;+h.4.q.4.y.(+a+Q.:+o+d+9.l.#+d+:+Y.t.5+o+a+:.E.<.p.;.1.l.",
"l.l.4.1.4.!.4.d.@+y.#+~+d+x+m+Q.Q.a+g+(+u.5.:+o+_+l.l.l.C.!.@.:.",
"l.l.<.q.j.h.d.h.E.l.l.8.5+g+d+I.l.9+d+:+Y.5.++#+9.C.R.M.l.j.l.l.",
"4.l.:.J.!.1.p.<.c.J.<.8.:+d+d+l.!.a+d+++t.l.Q.K.h.1.O.O.4.B.l.J.",
"4.l.Q.O.J.E.1.4.4.E.4.9.g+o+d+9.(.#+g+d+5+h.l.J.X.4.O.U.O.O.K.O.",
":.J.:.4.l.C.C.l.O.q.q.)+o+o+o+0.[.a+g+x+m+4.9.O.E.O.Q.Q.)+Q.>+l.",
"l.j.!.:.j.l.J.l.l.E.R.9+n+x+o+0.!.5+n+x+x+M.l.O.4.l.I.I.I.E.E.E.",
"l.!.!.:.C.9.C.!.q.<.K.d+o+x+x+<+l.d+g+o+x+a+J.E.4.O.l.I.l.<.h.p.",
"1.:.!.:.1.K.l.9.R.4.E.:+g+o+g+Y.l.:+d+o+x+7+l.[.l.E.1.l.l.!.<.6.",
":.j.l.8.M.C.:.K.C.K.C.6+7+3+5+M.(.9+7+_+7+M.:.[.4.p.:.4.J.5.:.:.",
"O.l.Q.I.O.l.l.l.K.4.J.0.R $.$.8.(.0.R R $.0.l.1.!.:.4.O.l.8.8.Q.",
"K.K.M.Q.4.J.@+9.:.l.O.J.l.J.l.:.5._.5.0.:.j.8.l.l.:.l.R.C.9.O.I."};
