/* XPM */
static char * 32_buzz_right_grass_xpm[] = {
"32 32 255 2",
"  	c #000000",
". 	c #140B1E",
"+ 	c #270F32",
"@ 	c #290E41",
"# 	c #281219",
"$ 	c #2B1027",
"% 	c #331206",
"& 	c #1E1B18",
"* 	c #4A2217",
"= 	c #48205B",
"- 	c #4A224C",
"; 	c #442634",
"> 	c #45253E",
", 	c #322D31",
"' 	c #342E27",
") 	c #2E3040",
"! 	c #37311C",
"~ 	c #223A1A",
"{ 	c #622815",
"] 	c #7B2317",
"^ 	c #4F4018",
"/ 	c #4C423C",
"( 	c #46434C",
"_ 	c #643968",
": 	c #683875",
"< 	c #5F3D5B",
"[ 	c #56452F",
"} 	c #614345",
"| 	c #6A4332",
"1 	c #39542F",
"2 	c #2C5A1A",
"3 	c #484E42",
"4 	c #385066",
"5 	c #3F5424",
"6 	c #4A5030",
"7 	c #5A504A",
"8 	c #53525D",
"9 	c #BF412A",
"0 	c #39721E",
"a 	c #5F616D",
"b 	c #6B6057",
"c 	c #82558A",
"d 	c #3D7233",
"e 	c #437129",
"f 	c #3E7512",
"g 	c #477121",
"h 	c #486F36",
"i 	c #566D37",
"j 	c #7B5E79",
"k 	c #546F4A",
"l 	c #63695C",
"m 	c #646B4A",
"n 	c #88604E",
"o 	c #83625E",
"p 	c #7C683E",
"q 	c #7A6752",
"r 	c #5D6C85",
"s 	c #4C774A",
"t 	c #44821C",
"u 	c #9A6549",
"v 	c #4A822D",
"w 	c #70707A",
"x 	c #4C8138",
"y 	c #7A6F65",
"z 	c #4C8141",
"A 	c #55802F",
"B 	c #567F47",
"C 	c #E5543C",
"D 	c #657F47",
"E 	c #608426",
"F 	c #68803C",
"G 	c #568826",
"H 	c #4D8C18",
"I 	c #5D843D",
"J 	c #5D8544",
"K 	c #508F0F",
"L 	c #508E28",
"M 	c #548D38",
"N 	c #578C42",
"O 	c #568C4C",
"P 	c #5F8B39",
"Q 	c #5F8A51",
"R 	c #618A5E",
"S 	c #878072",
"T 	c #84817C",
"U 	c #68879F",
"V 	c #927E71",
"W 	c #E36856",
"X 	c #B17765",
"Y 	c #927E97",
"Z 	c #5B9B1F",
"` 	c #5D9A29",
" .	c #83868C",
"..	c #7E8B6C",
"+.	c #619936",
"@.	c #589C35",
"#.	c #A97F69",
"$.	c #649844",
"%.	c #6E9544",
"&.	c #6C954C",
"*.	c #5B9B44",
"=.	c #5A9B4E",
"-.	c #64984D",
";.	c #65975B",
">.	c #5D9A56",
",.	c #689753",
"'.	c #73935A",
").	c #5396AF",
"!.	c #968687",
"~.	c #6F9A39",
"{.	c #9F8772",
"].	c #789851",
"^.	c #60A51C",
"/.	c #7B994A",
"(.	c #6E9C6E",
"_.	c #9F8D7F",
":.	c #989081",
"<.	c #66A735",
"[.	c #65A82D",
"}.	c #95918D",
"|.	c #B88A68",
"1.	c #63A841",
"2.	c #6CA642",
"3.	c #63AA50",
"4.	c #6DA84D",
"5.	c #76A552",
"6.	c #6CA854",
"7.	c #6BA85A",
"8.	c #75A55A",
"9.	c #69A863",
"0.	c #74A560",
"a.	c #7CA452",
"b.	c #73A568",
"c.	c #81A267",
"d.	c #D18970",
"e.	c #6BB42C",
"f.	c #6EB439",
"g.	c #6EB441",
"h.	c #6EB449",
"i.	c #6DB450",
"j.	c #79B241",
"k.	c #78B24D",
"l.	c #A6A197",
"m.	c #6ABA5C",
"n.	c #75B56F",
"o.	c #75B75A",
"p.	c #74B761",
"q.	c #73B767",
"r.	c #7BB567",
"s.	c #71BE24",
"t.	c #83B367",
"u.	c #81B371",
"v.	c #80B55F",
"w.	c #72C218",
"x.	c #B5A395",
"y.	c #71C137",
"z.	c #B3A4A4",
"A.	c #A8A7A9",
"B.	c #7ABF39",
"C.	c #70C244",
"D.	c #7FB885",
"E.	c #BDA58E",
"F.	c #78C04C",
"G.	c #7BC045",
"H.	c #79C054",
"I.	c #65BBDF",
"J.	c #79C05B",
"K.	c #A3AF8C",
"L.	c #84BE58",
"M.	c #90B68B",
"N.	c #B1A8BC",
"O.	c #A2ADBE",
"P.	c #D4A37D",
"Q.	c #B5AB95",
"R.	c #97B87C",
"S.	c #75C566",
"T.	c #9CB968",
"U.	c #9BBA71",
"V.	c #7FC373",
"W.	c #7CCB22",
"X.	c #80C46C",
"Y.	c #82C466",
"Z.	c #82C37C",
"`.	c #88C273",
" +	c #80CB34",
".+	c #80CA42",
"++	c #B7B1A6",
"@+	c #8DC36C",
"#+	c #8FC17E",
"$+	c #92C174",
"%+	c #98C16D",
"&+	c #84CA56",
"*+	c #85CB4F",
"=+	c #84CA60",
"-+	c #8DCD2A",
";+	c #8DD112",
">+	c #90CA63",
",+	c #91CD46",
"'+	c #8ACE7C",
")+	c #96CD5C",
"!+	c #8DCE73",
"~+	c #98CE55",
"{+	c #9ED133",
"]+	c #9ACE72",
"^+	c #99CE79",
"/+	c #99CE7F",
"(+	c #A2D04E",
"_+	c #A1CE6B",
":+	c #96CF89",
"<+	c #81CFEC",
"[+	c #A4CD87",
"}+	c #98CF9C",
"|+	c #A2CD90",
"1+	c #9CD36D",
"2+	c #ACCC92",
"3+	c #A9CF7A",
"4+	c #A8CF83",
"5+	c #D8BEA1",
"6+	c #A9CE9F",
"7+	c #ADD16E",
"8+	c #CEC2B4",
"9+	c #EDBC91",
"0+	c #D2C3AB",
"a+	c #ADCCDC",
"b+	c #BACF93",
"c+	c #A3D3CF",
"d+	c #B0D4B2",
"e+	c #BED1A3",
"f+	c #CFC8D0",
"g+	c #B2D892",
"h+	c #B1D89C",
"i+	c #CDCDC2",
"j+	c #ABDD84",
"k+	c #BCD3C0",
"l+	c #BFD4B3",
"m+	c #B7DAAB",
"n+	c #AFE178",
"o+	c #D6D2B9",
"p+	c #E8CFB1",
"q+	c #E0D2B9",
"r+	c #BAE194",
"s+	c #BBE28C",
"t+	c #DFD3C3",
"u+	c #BEE6A7",
"v+	c #FCD3A5",
"w+	c #C3E8BC",
"x+	c #F0E4D2",
"y+	c #FCE3B2",
"z+	c #E7E8DC",
"A+	c #ECE9D3",
"B+	c #EBECCD",
"C+	c #F1E9E8",
"D+	c #E8F4F8",
"E+	c #F8F5DF",
"F+	c #FFFFFF",
"L.Y.`.$+v.@+@+$+t.`.o.$+u.@+r.o.0.`.r.r.u.r.v.0.`.^+@+H.L.o.r.H.",
"*+L.v.#+#+L.J.`.v.t.0.t.[+c.8.8.u.u.(.r.$+r.k.t.t.J.`.v.k.k.t.Y.",
"L.G.v.$+D.Y.@+$+v.$+`.K.l.y y c.w #.|.{.`.n.0.t.6.k.J.@+v.o.v.t.",
"H.G.p.`.r.t.r.@+@+/+u.l w a l a j l.{.y R.r.u.r.0.v.k.i.H.8.t.8.",
"H.h.v.Y.r.t.$+$+u./+K.R T a ( 7 9+5+5+_.++M.r.u.0.J.Y.J.k.k.F.k.",
"t.4.8.6.@+u.Y.@+`.o+8+u...a 8 V P.d.9+u :.}.;.K.u.J.r.X.8.c.8.Y.",
"#+8.0.k.u.k.o.r.R.8+K.$+c.}.T y P.v+P.V b l D :.l.R.u.p.u.t.v.r.",
"$+p.i.o.o.v.o.i.2+_.K./+`...l.T |.9+P.o / '.7.c.8+e+u.`.`.`.8.0.",
"@+t.q.Y.k.H.k.o.b+_.0+A+l+..< l 7 n q / / m 0.t.++:.0.r.r.t.r.t.",
"v.r.Y.o.v.k.k.v.K.++o+++y l l ;.R k 3 1 s / c.t.c.0.7.0.r.0.t.`.",
"r.t.Y.L.@+H.g.t.K.d.l.y T S l '.,.k k k k l u.0.b.b.b.u.p.0.u.Z.",
"8.#+v.k.L.J.o.v.K.l.!.z.8+}.}.V 0.B B h k a '.r.`.t.`.r.8.8.v.8.",
"2.@+H.@+Y.o.6.o.{.x.T }.z.8+i+++:.I i 6 6 b 8./+l+K.[+`.v.r.r.k.",
"o.L.L.p.6.h.7.p...++_.}.8+i+}.8+8+D i i | '.c.e+e+8+2+6.t.8.o.k.",
"@+J.J.5.H.o.v.o.k.8...l.++x+A+z+o+c.u.++t+o+8+o+/+|+++2.4.-.0.8.",
"t.8.p.o.v.2.L.c.0.H.t...b ++x+8+z.u.#+o+t+8+++0+$+R.K.6.k.r.0.v.",
"`.v.8.v.i.4.u.++u.c.R.o+c.7 S y S '.u.z.x.K.R.u.t.u.r.8.k.r.b.`.",
"M.b.t.t.o.v.l.o+t+++++x+++..k i i D ..c.c.8.@+0.v.J.7.5.k.k.,.8.",
"$+7.k.o.j.R.R.x+E+t+8+0+l.S :.c.++o+z.c.5.c.J.4.6.H.i.v.o.G.,.8.",
"$+o.k.L.h.K.K.8+A+A+0+Q._.t.v.o.b+A+o+0+u.r.p.o.8.8.v.p.k.o.J.t.",
"@+X.J.@+h.8...K.o+o+Q.E.{.v.k.o.%+8+t+o+u.p.v.t.Y.v.H.F.H.5.o.u.",
"v.v.v.5.o.5.H.L.u.b+l.S c.r.o.L.`.8+E+t+K.p.p.u.Y.Y.v.t.v.5.0.o.",
"t.v.k.H.v.k.C.H.H.t.K.:.c.k.k.p.r.o+E+x+l.u.o.r.v.Y.>+'+Y.r.r.r.",
"v.r.r.Y.7.o.F.k.t.L.k.r.o.F.H.o.5.e+E+A+8+c.Y.L.H.o.@+@+v.Y.t.Y.",
"0.u.$+@+t.Y.6.o.v.=+H.v.J.k.p.i.h.e+x+A+2+Q v.Y.F.v.$+$+@+@+Y.X.",
"p.X.o.v.t.J.Y.J.@+F.H.L.o.H.8.i.4.e+t+h+'.D '.R D t.`.@+^+@+@+J.",
"p.r.7.6.p.v.Y.Y.v.&+@+Y.X.J.v.6.4.K./+0.l.++w > / b.V.u.@+=+&+=+",
"Y.0.8.r.o.u.L.8.L.F.&+v.r.h.k.i.4.u.u.K.o+T ; ; R @+r.X.Y.o.F.F.",
"7.8.8.0.o.L.t.u.@+L.&+@+o.4.j.g.o.,.R.8+S ; ; D Y.H.i.r.r.8.k.h.",
"p.p.u.u.'+Y.0.L.J.&+J.Y.L.i.o.o.k.o.u.T ; / R i.v.F.o.v.@+r.0.q.",
"@+v.`.`.@+v.t.v.L.L.Y.Y.L.H.k.o.6.v.0.R D b.t.6.o.k.L.@+Y.t.t.`.",
"L.L.#+`.J.Y.$+`.v.t.@+L.v.Y.v.o.r.9.u.u.c.u.t.t.r.v.t.Y.v.u.u.@+"};
