/* XPM */
static char * 32_buzz_up_grass_xpm[] = {
"32 32 255 2",
"  	c #090C0A",
". 	c #111C04",
"+ 	c #2B1B45",
"@ 	c #391C71",
"# 	c #1B3106",
"$ 	c #352E35",
"% 	c #323429",
"& 	c #552762",
"* 	c #4A305B",
"= 	c #284514",
"- 	c #294B05",
"; 	c #474148",
"> 	c #325438",
", 	c #5E4360",
"' 	c #713C7F",
") 	c #713B8B",
"! 	c #4E4E42",
"~ 	c #375C03",
"{ 	c #664473",
"] 	c #565158",
"^ 	c #405E1B",
"/ 	c #485C2E",
"( 	c #2D671B",
"_ 	c #346705",
": 	c #3A632F",
"< 	c #39651E",
"[ 	c #755777",
"} 	c #845094",
"| 	c #645E66",
"1 	c #616154",
"2 	c #3D7614",
"3 	c #49741B",
"4 	c #427626",
"5 	c #427630",
"6 	c #44753D",
"7 	c #4F732E",
"8 	c #805C8E",
"9 	c #4D7252",
"0 	c #666E30",
"a 	c #6E6E62",
"b 	c #458309",
"c 	c #716D70",
"d 	c #736C79",
"e 	c #587A41",
"f 	c #627749",
"g 	c #567B4B",
"h 	c #4A831A",
"i 	c #4B8327",
"j 	c #4F8232",
"k 	c #4D823B",
"l 	c #578127",
"m 	c #5B7F32",
"n 	c #508148",
"o 	c #5A803C",
"p 	c #697C3D",
"q 	c #7D787F",
"r 	c #9570A0",
"s 	c #539112",
"t 	c #5D8866",
"u 	c #7A7F6D",
"v 	c #7D7E75",
"w 	c #599025",
"x 	c #509324",
"y 	c #539230",
"z 	c #5C8F37",
"A 	c #5E8F30",
"B 	c #817E7C",
"C 	c #569047",
"D 	c #53923B",
"E 	c #5C8F3E",
"F 	c #5C8E51",
"G 	c #658D3C",
"H 	c #658C48",
"I 	c #5D8F48",
"J 	c #6D8B3D",
"K 	c #5C8E59",
"L 	c #678B5B",
"M 	c #858087",
"N 	c #6F9056",
"O 	c #7E8D61",
"P 	c #8D8499",
"Q 	c #619D21",
"R 	c #58A11C",
"S 	c #6C9B22",
"T 	c #8D8A90",
"U 	c #669E33",
"V 	c #6B9774",
"W 	c #6A9C3D",
"X 	c #5EA133",
"Y 	c #60A03E",
"Z 	c #699D44",
"` 	c #689D4B",
" .	c #679D51",
"..	c #60A048",
"+.	c #609E60",
"@.	c #5EA053",
"#.	c #699B66",
"$.	c #679D58",
"%.	c #729A55",
"&.	c #749867",
"*.	c #6A9C5E",
"=.	c #739B49",
"-.	c #7B994A",
";.	c #89917C",
">.	c #8E8F86",
",.	c #918E8C",
"'.	c #959197",
").	c #71A82E",
"!.	c #65AE1D",
"~.	c #66AD2D",
"{.	c #77A93F",
"].	c #6DAD3B",
"^.	c #6CAD43",
"/.	c #68AE4A",
"(.	c #65B03F",
"_.	c #70AC4A",
":.	c #6BAD51",
"<.	c #78AA4A",
"[.	c #6BAD58",
"}.	c #7EA942",
"|.	c #6AAD60",
"1.	c #9C9996",
"2.	c #73AA64",
"3.	c #75AB55",
"4.	c #9C999D",
"5.	c #74AB5E",
"6.	c #70AB6D",
"7.	c #7DA774",
"8.	c #81A955",
"9.	c #81A862",
"0.	c #89A757",
"a.	c #A996B4",
"b.	c #AE9797",
"c.	c #7DA885",
"d.	c #96A08F",
"e.	c #A09CA8",
"f.	c #6CB91E",
"g.	c #6FBA2C",
"h.	c #6DBD13",
"i.	c #85AE70",
"j.	c #6FBA3A",
"k.	c #A4A1A6",
"l.	c #A4A29F",
"m.	c #7AB83C",
"n.	c #9BAA7C",
"o.	c #74BB56",
"p.	c #71BD4C",
"q.	c #68BF57",
"r.	c #8BB54E",
"s.	c #7BBB48",
"t.	c #7ABB50",
"u.	c #76BA6C",
"v.	c #78BB5D",
"w.	c #7DBA57",
"x.	c #6EBE60",
"y.	c #77BB64",
"z.	c #86B857",
"A.	c #7DB87A",
"B.	c #81B86D",
"C.	c #93B462",
"D.	c #83B962",
"E.	c #8EB662",
"F.	c #8FB56E",
"G.	c #8CB581",
"H.	c #9DB362",
"I.	c #ACA8B3",
"J.	c #ADA9AE",
"K.	c #ADABA8",
"L.	c #7AC541",
"M.	c #7AC548",
"N.	c #8CB996",
"O.	c #79C82B",
"P.	c #A4B19E",
"Q.	c #B8A8C5",
"R.	c #7CCB16",
"S.	c #C1AAA2",
"T.	c #7DC83A",
"U.	c #77C768",
"V.	c #7CC856",
"W.	c #88C649",
"X.	c #85C65A",
"Y.	c #87C653",
"Z.	c #B3B0B6",
"`.	c #88C561",
" +	c #81C862",
".+	c #85C769",
"++	c #84C76F",
"@+	c #82C777",
"#+	c #8CC478",
"$+	c #89CB33",
"%+	c #90C671",
"&+	c #84CD4D",
"*+	c #8FCB41",
"=+	c #93C76C",
"-+	c #95C765",
";+	c #9CC571",
">+	c #91D01E",
",+	c #9DC57D",
"'+	c #8CC990",
")+	c #99C590",
"!+	c #9CC586",
"~+	c #8FC987",
"{+	c #ACC17E",
"]+	c #8FCE5F",
"^+	c #BDB7CB",
"/+	c #BBB9BF",
"(+	c #91CE6A",
"_+	c #93D053",
":+	c #95CC7F",
"<+	c #9CD03C",
"[+	c #9CCD62",
"}+	c #90D075",
"|+	c #A1D226",
"1+	c #BEBDBA",
"2+	c #A1CF54",
"3+	c #8FD756",
"4+	c #BBC685",
"5+	c #9DD178",
"6+	c #A1D16F",
"7+	c #99D666",
"8+	c #C2C1CB",
"9+	c #A8D07A",
"0+	c #C4C1C6",
"a+	c #B0CE79",
"b+	c #CDC1A9",
"c+	c #B4CC90",
"d+	c #A8D187",
"e+	c #D1C3A3",
"f+	c #A8D0A0",
"g+	c #B2CD9F",
"h+	c #A9D191",
"i+	c #B2CF8A",
"j+	c #A8D198",
"k+	c #B8CE8A",
"l+	c #A1D689",
"m+	c #BECBB7",
"n+	c #A2DC5B",
"o+	c #BDCEA1",
"p+	c #B6D1B3",
"q+	c #AAD5B1",
"r+	c #CCC9CD",
"s+	c #CBC9D3",
"t+	c #9EDE81",
"u+	c #D2CBB9",
"v+	c #B0DE72",
"w+	c #B1DF84",
"x+	c #B8DE95",
"y+	c #B9DCAD",
"z+	c #D3D1D3",
"A+	c #ABE3A1",
"B+	c #B9DF9F",
"C+	c #B9DFA6",
"D+	c #C7E1C2",
"E+	c #C3E9BA",
"F+	c #DFDEDF",
"w.`.%+#+E.B.=+,+F.=+D.%+#+-+B.5.2.B.B.B.B.B.D.9.F.%+F.t.V.v.2.o.",
"Y.X.w.G.i.`.`.E.z.D.5.v.5.n.8 ' u A.5.D.#+u.:.B.z.D.F.9.t.w.i.D.",
"z.T.v.!+G.D.E.,+3.D.5.5.*.P.} ' & 2.y.D.F.B.9.i._.3.v.B.E.w.w.9.",
"w.s.v.#+D.D.D.F.D.F.B.B.2.b+8 u | &.9.D.F.5.B.y.5.w.w.:.w.z.D.5.",
"w.o.9.D.F.#+F.#+D.D.#+:+#+{+W Q 7.l.P.P.P.m 2.3.2.3.D.w.t.t.t.s.",
"B._.5.:.#+i.D.B.D.3.h+h+P.P.w Q %.K.J.J.P.3 H 5.2.w.v..+5.&.w.D.",
"#+5.2.w.D.3.w.B.v.d.n.,+n.1+Z s z l.Z.J.d.3 O D.$.B.#+y.y.i.5.9.",
"F.v.p.w.3.D.v.2.N.Z.r+0+/+0+d.s w l.k.l.;.2 >.7.B.G.i.B.B.B.5.9.",
"%+B.y.D.3.w.t.d.'.>.0+r+0+0+Z.z h 1.4.1.u 7 '.v i.*.5.9.B.9.2.i.",
"3.B.D.w.z.w.t.l.,.v 4./+/+0+/+;.h ,.'.1.L a '.a &.$.*.*.B.*.9.#+",
"u.i.D.w.-+w._.0+0+k.T Z./+/+/+K.j >.4.4.f B B a 7.2.7.i.5.3.A.#+",
"5.B.v.3.Y.D.y.z+r+Z.T J./+/+/+Z.&.;.'.'.f ,.T 1.d.5.%+D.3.5.v.3.",
"_..+M.=+D.3.)+r+0+K.1.'.k.'./+J.l.>.,.'.;.,.T 1.1.2.++D.D.5.y.<.",
"_.X.X.D.3._.P.r+/+G.;., { 4./+J.k.'.,.4.,.>.>.M '.A.w.3.9.3.5._.",
" +w.w.3.w.t.n.P.d.7.2.u d | J.4.'.'.,.'.M c.&.u ;.&.9._.` ` 5.5.",
"B.D.w.3.w.^.i.f / H D.v.L # 1 M T d a ,.;.2.o ^ / L 5.:.3.i.2.5.",
"#+v.5.v.3._.P.'.q 7.5.:.;.| | | ] ] ; 5.D.9.u v u i.2.3.v.D.i.#+",
")+5.#+9.%.3.G.4.q 2.%.5.d.T T '.,.>.c 5.t.9.M d &.w.*.3.8.t. .5.",
"#+3.t.w.^.w.5.4.,.%.%.7.k.J.T '.T q B ;. .G.M u 3._.3.w.s.m.:.%.",
"%+w.3.D._.t.3.1+4.d.5.G.Z.k.,.;.;.q ,.;.i.l.T ;.5.5.v.3.t.w.w.B.",
".+D.D.F._.w.D.K.G.>.v.)+/+4.c.w.i.'.1.c.G.T M ;.%+D.3.t.w.3.3.B.",
".+w.w.w.w.3.5.K.G.i.F.K./+T i.w.G.4.T ;.G.k.4.c.`.D.v.D.D._.5.v.",
"F.D.3.w.D.t.s.P.G.D.)+/+1.c D.v.G.T c &.G.G.G.D.D.w.`.#+D.y.D.F.",
"5.D.D.D.3.t.M.B.#+`.G./+M 1 t.o.7.,.a ;.`.D.B.w.w.v..+`.D.D.D.`.",
"3.F.B.F.D.X.3.w.z.Y.F.r+/+K.G.:.9./+/+J.i.t.B.D.M.w..+%+%+%+D.++",
"v.B.5.D.B.w.D.w.=+t.F.r+0+0+l.|.9.Z.r+Z.c.v.#+=+`.%+#+%+:+%+=+D.",
"y.B.3.3.v.D.`.w.w.w.%+r+r+0+J.7.2.I.r+/+d.w.B.%+X.v.B.B..+w.w.X.",
"B.5.[.v.D.B.D.3.w.t.,+r+r+0+/+d.i.k.r+0+J.G.B.z.D.D.B.B..+t.t.s.",
"3.5.5.5.3.D.D.E.`.X.,+z+r+0+0+J.d.k.0+0+k.d.v.t.D.t.o.D.v.5.w.^.",
"5.y.B.B.#+D.9.D.X.`.)+m+r+/+Z.l.i.k.I./+k.G.y.3.v.w.v.D.D.B.5.5.",
"D.D.#+F..+D.D.D.D.B.r+z+r+/+/+K.,.4.J.0+J.G.D.3.5.9.D..+D.B.D.F.",
"z.=+G.F.w.D.#+#+w.;.d.e.e.a.e.T &.u ;.4.;.7.F.B.v.D.D.`.D.B.B.D."};
