/* XPM */
static char * 32_grass_xpm[] = {
"32 32 255 2",
"  	c #294B23",
". 	c #265B16",
"+ 	c #33581B",
"@ 	c #44551E",
"# 	c #3B6436",
"$ 	c #4B6039",
"% 	c #37701B",
"& 	c #3A6F26",
"* 	c #34730E",
"= 	c #3A6F2F",
"- 	c #406F1E",
"; 	c #486C27",
"> 	c #3F710F",
", 	c #476C30",
"' 	c #496D1F",
") 	c #5D672F",
"! 	c #467644",
"~ 	c #507445",
"{ 	c #4A7C29",
"] 	c #487C33",
"^ 	c #477C3B",
"/ 	c #43811B",
"( 	c #537A3C",
"_ 	c #4E7F1E",
": 	c #587C1F",
"< 	c #46840D",
"[ 	c #448700",
"} 	c #45842D",
"| 	c #547C5B",
"1 	c #617951",
"2 	c #587F2F",
"3 	c #6B783E",
"4 	c #607D30",
"5 	c #597F38",
"6 	c #667C42",
"7 	c #538532",
"8 	c #52834F",
"9 	c #508544",
"0 	c #50863C",
"a 	c #5C8151",
"b 	c #5C8345",
"c 	c #4F8D28",
"d 	c #5A8B29",
"e 	c #549320",
"f 	c #559416",
"g 	c #589247",
"h 	c #5C9239",
"i 	c #55943D",
"j 	c #5B9240",
"k 	c #62903E",
"l 	c #5B914D",
"m 	c #678E46",
"n 	c #5A9155",
"o 	c #6D8D3F",
"p 	c #668E4D",
"q 	c #758B3F",
"r 	c #609147",
"s 	c #638E61",
"t 	c #648F56",
"u 	c #6E8C56",
"v 	c #778A4D",
"w 	c #589631",
"x 	c #559A0E",
"y 	c #629432",
"z 	c #768B56",
"A 	c #778F6B",
"B 	c #5CA03A",
"C 	c #639F3A",
"D 	c #6AA01C",
"E 	c #699F46",
"F 	c #689F4C",
"G 	c #719D4B",
"H 	c #62A247",
"I 	c #68A231",
"J 	c #65A054",
"K 	c #6FA031",
"L 	c #61A24D",
"M 	c #61A52A",
"N 	c #6BA229",
"O 	c #6D9E53",
"P 	c #669F61",
"Q 	c #6DA03E",
"R 	c #6C9E5A",
"S 	c #739C59",
"T 	c #61A533",
"U 	c #61A71D",
"V 	c #769C53",
"W 	c #64A15A",
"X 	c #729C62",
"Y 	c #5AA555",
"Z 	c #6E9D6E",
"` 	c #849863",
" .	c #64A83E",
"..	c #63A945",
"+.	c #6BA742",
"@.	c #66AD53",
"#.	c #6CAC57",
"$.	c #6EAC50",
"%.	c #6EAB5D",
"&.	c #75AA55",
"*.	c #6DB12A",
"=.	c #64B428",
"-.	c #69B337",
";.	c #6CB23F",
">.	c #63B540",
",.	c #6CB247",
"'.	c #75AF4B",
").	c #6BB069",
"!.	c #6CB24E",
"~.	c #76AD66",
"{.	c #7BAC60",
"].	c #74AD6E",
"^.	c #68B262",
"/.	c #83AA61",
"(.	c #82AA67",
"_.	c #83AB58",
":.	c #81AA6F",
"<.	c #88AB4D",
"[.	c #8CAA59",
"}.	c #6DB91F",
"|.	c #99A56F",
"1.	c #6DB55A",
"2.	c #74B35B",
"3.	c #7BB343",
"4.	c #77B53B",
"5.	c #75B364",
"6.	c #7CB25C",
"7.	c #6DBC32",
"8.	c #76BB34",
"9.	c #77B581",
"0.	c #69BE4F",
"a.	c #6BBE48",
"b.	c #85B183",
"c.	c #71BD40",
"d.	c #71BC50",
"e.	c #74BB56",
"f.	c #75BC48",
"g.	c #78BB50",
"h.	c #96AE88",
"i.	c #7FBA55",
"j.	c #71C062",
"k.	c #78BE60",
"l.	c #76C51C",
"m.	c #76BF67",
"n.	c #7DBD67",
"o.	c #7FBD61",
"p.	c #79BE6D",
"q.	c #77BE76",
"r.	c #83BB74",
"s.	c #82BB7C",
"t.	c #85BC67",
"u.	c #87BC61",
"v.	c #85BC6E",
"w.	c #91BA67",
"x.	c #91B975",
"y.	c #93B96E",
"z.	c #8FB97D",
"A.	c #71C657",
"B.	c #79C72F",
"C.	c #70C65E",
"D.	c #9BB866",
"E.	c #7AC549",
"F.	c #77C73D",
"G.	c #A8B37C",
"H.	c #79C557",
"I.	c #7DC45F",
"J.	c #82C451",
"K.	c #81C458",
"L.	c #7BC752",
"M.	c #81C740",
"N.	c #89C359",
"O.	c #88C35F",
"P.	c #84C833",
"Q.	c #8BC843",
"R.	c #81CF21",
"S.	c #8FC936",
"T.	c #81C96D",
"U.	c #8BC94F",
"V.	c #87C871",
"W.	c #89C86A",
"X.	c #8CCD27",
"Y.	c #83CD50",
"Z.	c #85C978",
"`.	c #8EC771",
" +	c #8DC778",
".+	c #91C76B",
"++	c #91C957",
"@+	c #87CC60",
"#+	c #86CC66",
"$+	c #8BCC59",
"%+	c #A0C752",
"&+	c #8BCA80",
"*+	c #89CA88",
"=+	c #99CA52",
"-+	c #9BC866",
";+	c #92CB68",
">+	c #93CC61",
",+	c #A3C766",
"'+	c #9CC96F",
")+	c #99C97B",
"!+	c #9BC975",
"~+	c #96C98A",
"{+	c #99C982",
"]+	c #8BD346",
"^+	c #A6C773",
"/+	c #A2C782",
"(+	c #A0C78B",
"_+	c #A4C77D",
":+	c #A0C799",
"<+	c #93CE78",
"[+	c #95CE71",
"}+	c #A8C68C",
"|+	c #9FD12F",
"1+	c #94CC99",
"2+	c #95CF7F",
"3+	c #98D34B",
"4+	c #9DDA0E",
"5+	c #A5D250",
"6+	c #98D562",
"7+	c #C5C392",
"8+	c #96D56C",
"9+	c #9DD55C",
"0+	c #B5CC7B",
"a+	c #B3CC83",
"b+	c #BEC894",
"c+	c #A2D46F",
"d+	c #B2CD8A",
"e+	c #A6D37C",
"f+	c #A6D565",
"g+	c #A5D385",
"h+	c #A4D38C",
"i+	c #A2D394",
"j+	c #A9CFB2",
"k+	c #B0D27E",
"l+	c #9ED87D",
"m+	c #AFD286",
"n+	c #ABD296",
"o+	c #B0D471",
"p+	c #B4D097",
"q+	c #AED38D",
"r+	c #AED2A0",
"s+	c #BACEA7",
"t+	c #AED2A9",
"u+	c #BFD6BD",
"v+	c #B6E089",
"w+	c #BEDDA2",
"x+	c #B7E194",
"y+	c #B7E19A",
"z+	c #B8DFAF",
"A+	c #C1DEB2",
"B+	c #C7DCB6",
"C+	c #B8E3A5",
"D+	c #B6E780",
"E+	c #BEE1BF",
"F+	c #C2EABA",
"K.u.v.`.6.w.`.)+t.y.6.`.x.W.v.&.2.v.~.v.r.v.o.~.v. +v.e.K.k.n.e.",
"J.N.k. +x.O.i.`.6./.&.o.5.{.2.&.(.r.5.n. +5.2.(.o.6.r.{.g.g.:.t.",
"J.M.o.z.x.o.y.!+&.(.{.&.%.&.,.$.X %.k.o. +~.5.:.&.'.e.v.u.6.6.{.",
"i.f.2. +5.t.u.w.w.v.t.v.5.6.f. +z.X 6.o..+%.v.5.{.6.6.$.g.6.o.&.",
"i.g.{.o.:.v.y. +n.6.x.V.5.W.g.u.v.(.t.k.o.6.t.%.~.e.O.i.g.'.3.g.",
"/.$.%.#.v.v.O.t.o.O 6.t.k.2.e.i.i.i.{.2.u.i.i.2.5.i.k.t.&./.2.W.",
" +2.~.e.t.&.&.n.$.5.5.n.e.2.d.g.3.f.6.I.$.t.t.n.%.r.v.6.~.:.{.{.",
" +k.$.6.6.k.6.#.2.2.!.e.5.t.e.4.'.i.i.f.'.(.&.%.:.z.(.`.n.r.&.{.",
"W.n.n.n.&.i.g.&.6.e.k.6.2.5.e.i.i.K.d.4.i.$.{.5.].%.R (.r.(.{.v.",
"6.v.t.i.6.i.'.3.'.g.i.o.1.o.g.i.g.`.I.f.&.v.u.(.X R R X n.X t.r.",
"5.:.t.6.w.6.4.e.2.%.2.,.'.t.6.,.e.O.t.t.:.6.t.~.Z ~.:.:.%.%.t.V.",
"%. +6.'.N.o.e.d.1.&.$.d.F 2.&.6.e.6.o.t.o.{.R {.r.{.v.o.{.%.2.&.",
"+.O.E.w.t.%.#.e.5.%.O {.%.1.'.!.e.o.o.W.n.&.$.v.2.{.`.W.o.{.5.g.",
"#.i.N.o.2.!.#.6.6.2.%.~.$.$.u.L.,.g.v.W.e.$.&.2.2.6.o.2.{.&.6.'.",
"W.K.i.&.H.g.6.i.d.'.2.%.E.k.g.i.&.K.k.t.~.n.6.F O 5.{.H O F X 2.",
"t.6.2.6.6.,.K.o.f.k.6.%.'.,.E.u.e.i.K.&.%.%.v.O %.X %.O 2.n.~.6.",
"z.5.%.i.'.$.g.t.2.6.2.#.f.E.J.g.f.g.K.!.{.&.n.r.o.(.~.&.6.(.Z  +",
"~+X v./.$.&.'.#.O $.O &.E.f.f.4.f.K.'.;.'.&.v.{.i.i.R &.&.'.O &.",
"x.&.g.i.,.i.2.~.6.F R {.6.&.2.!.J.J.!.E O {.o.E #.g.&.6.g.f.F %.",
"`.i.e.o.'.i.O 2.6.5.n.%.5.o.6.6.g.g.e.O {.n.{.!.$.&.6.6.'.o.i.v.",
"W.t.o.W.,.i.g.'.f.k.o.o.o.2.i.6.K.o.2.%.t.6.6.:.O.6.g.g.i.2.6.v.",
"t.o.6.&.i.&.2.f.f.o.2.o.t.o.6.o.V.s.2.v.v.5.6.:.u.u.o.t.o.$.%.6.",
"u.6.6.i.2.g.c.g.i.o.o.o.o.g.g.k.n.:.:.`.v.o.2.t.k.k.W. +o.(.n.t.",
"6.o.6.t.#.2.E.f.u.u.g.i.i.g.g.g.$.2.n.V.t.(.t.K.i.e.W.w.6.n.t.O.",
"6.v. +y.t.K.6.i.o.N.i.6.i.e.i.e.,.$.%.t.2.g.o.t.E.o.W..+v.x.O.v.",
"5.W.6.u.t.o.o.o..+g.i.K.2.i.&.1.$.#.~.(.~.&.r.`.K.v.r.<+2+`..+o.",
"5.n.O &.6.6.t.o.k.K..+O.n.o.5.#...$.H #.2.6.t.`.o.o.r.v.W.K.J.K.",
"n.2.&.{.o.:.u.2.i.g.J.i.5.!.'.'.,.@.F O %.t.v.K.o.W.n.t.n.e.f.g.",
"&.2.%.2.6.o.v.v.u.K.J.y.g.$.'.,.&...%.~.R v.5.!.t.K.1.t.5.2.'.,.",
"~.k.r.t.Z.n.{.u.K.N.K.O.i.'.2.6.'.&.(.%.%.v.n.!.6.g.2.6.t.5.{.~.",
"w.o.x.x.W.u.u.u.u.K.o.K.N.i.e.$.#.6.~.~.6.5.(.'.5.2.i.`.o.t.(. +",
"u.u.z.y.o.O.x.v.6.n.v.u.6.O.6.2.~.%.r.:.{.n.{.v.o.6.u.O.o.v. +V."};
