/* XPM */
static char * 32_moon_grass_xpm[] = {
"32 32 255 2",
"  	c #000000",
". 	c #0D0B10",
"+ 	c #0C1019",
"@ 	c #0B1122",
"# 	c #141921",
"$ 	c #281611",
"% 	c #1B1B1D",
"& 	c #1E1B18",
"* 	c #131D2D",
"= 	c #191F27",
"- 	c #22252A",
"; 	c #1D2632",
"> 	c #1C272A",
", 	c #162B44",
"' 	c #372518",
") 	c #2E2725",
"! 	c #33271E",
"~ 	c #282A27",
"{ 	c #242C39",
"] 	c #292C31",
"^ 	c #232E30",
"/ 	c #442D17",
"( 	c #303337",
"_ 	c #203753",
": 	c #2C3642",
"< 	c #2C373A",
"[ 	c #3F332A",
"} 	c #443224",
"| 	c #343633",
"1 	c #3B3431",
"2 	c #36393E",
"3 	c #3F4040",
"4 	c #394451",
"5 	c #4B4043",
"6 	c #4D403C",
"7 	c #3D444A",
"8 	c #553F33",
"9 	c #4C4236",
"0 	c #47433D",
"a 	c #374846",
"b 	c #3A483D",
"c 	c #464848",
"d 	c #2F4D6E",
"e 	c #674C29",
"f 	c #365C27",
"g 	c #5A4F51",
"h 	c #475461",
"i 	c #455653",
"j 	c #614F43",
"k 	c #515352",
"l 	c #4C545A",
"m 	c #664F37",
"n 	c #57524B",
"o 	c #595246",
"p 	c #336519",
"q 	c #416E32",
"r 	c #6A5E60",
"s 	c #775D40",
"t 	c #58636D",
"u 	c #745D4F",
"v 	c #5F6261",
"w 	c #745E46",
"x 	c #6B6053",
"y 	c #66615A",
"z 	c #546663",
"A 	c #407223",
"B 	c #70604C",
"C 	c #726631",
"D 	c #496D90",
"E 	c #56752D",
"F 	c #59743D",
"G 	c #50764C",
"H 	c #487E1E",
"I 	c #488116",
"J 	c #47802D",
"K 	c #497E3E",
"L 	c #537C40",
"M 	c #517E31",
"N 	c #866A60",
"O 	c #65727C",
"P 	c #806D59",
"Q 	c #876C4E",
"R 	c #747069",
"S 	c #6F7170",
"T 	c #737163",
"U 	c #7A6F61",
"V 	c #846D54",
"W 	c #528A2E",
"X 	c #56893C",
"Y 	c #837B6D",
"Z 	c #7E7C77",
"` 	c #55911E",
" .	c #569027",
"..	c #618C33",
"+.	c #688941",
"@.	c #638B41",
"#.	c #519140",
"$.	c #5F8C4A",
"%.	c #618B54",
"&.	c #588E53",
"*.	c #55904B",
"=.	c #937C63",
"-.	c #6E876A",
";.	c #8D7D6F",
">.	c #8F7D68",
",.	c #648979",
"'.	c #6E8862",
").	c #798286",
"!.	c #7A837C",
"~.	c #5A9337",
"{.	c #5E9244",
"].	c #758C46",
"^.	c #599A1A",
"/.	c #9C8061",
"(.	c #738E58",
"_.	c #8C8475",
":.	c #87857F",
"<.	c #718A9F",
"[.	c #67926A",
"}.	c #5E9D3E",
"|.	c #659A4C",
"1.	c #6C9D37",
"2.	c #62A130",
"3.	c #6A9D42",
"4.	c #62A138",
"5.	c #739B50",
"6.	c #679E59",
"7.	c #719B58",
"8.	c #61A14F",
"9.	c #669E61",
"0.	c #789A50",
"a.	c #709B63",
"b.	c #A28C72",
"c.	c #9F8D78",
"d.	c #9E8D7F",
"e.	c #65A445",
"f.	c #7F987B",
"g.	c #92918B",
"h.	c #989081",
"i.	c #899397",
"j.	c #64A829",
"k.	c #6CA253",
"l.	c #68B121",
"m.	c #68AE4D",
"n.	c #6FAC4E",
"o.	c #6FAC5A",
"p.	c #69B517",
"q.	c #74AF46",
"r.	c #6AB434",
"s.	c #71B13F",
"t.	c #6DB247",
"u.	c #69B440",
"v.	c #73B235",
"w.	c #7BAE51",
"x.	c #7CAD5F",
"y.	c #6AB35E",
"z.	c #71B06A",
"A.	c #7DAD67",
"B.	c #7CAD71",
"C.	c #84AC60",
"D.	c #AE9E8A",
"E.	c #70B655",
"F.	c #A6A095",
"G.	c #8CA995",
"H.	c #77B556",
"I.	c #77B462",
"J.	c #9DA3A2",
"K.	c #80AE96",
"L.	c #BCA07F",
"M.	c #73BE3E",
"N.	c #95ADBC",
"O.	c #80BE41",
"P.	c #78BF53",
"Q.	c #77BF5C",
"R.	c #98B37C",
"S.	c #81BD5E",
"T.	c #76C528",
"U.	c #85B88C",
"V.	c #7FBD6A",
"W.	c #9DB46B",
"X.	c #78C34E",
"Y.	c #7AC537",
"Z.	c #78C26B",
"`.	c #96B690",
" +	c #83C250",
".+	c #80C077",
"++	c #7EC07F",
"@+	c #7CC746",
"#+	c #89C258",
"$+	c #8EBF6F",
"%+	c #8FBE78",
"&+	c #8EBE82",
"*+	c #91C064",
"=+	c #80CC18",
"-+	c #7FC663",
";+	c #BEAE9A",
">+	c #96BE70",
",+	c #9ABE65",
"'+	c #80C75A",
")+	c #87C931",
"!+	c #ACB3B3",
"~+	c #B6B1A6",
"{+	c #8AC565",
"]+	c #87C571",
"^+	c #8DCA4D",
"/+	c #84CD4C",
"(+	c #8FCB41",
"_+	c #8ACC76",
":+	c #8ECD61",
"<+	c #8CCD6B",
"[+	c #8ECE5A",
"}+	c #8ECC82",
"|+	c #99D122",
"1+	c #9CCF3B",
"2+	c #93CD79",
"3+	c #A0CE53",
"4+	c #9DCC7B",
"5+	c #9BCE6F",
"6+	c #9CCD85",
"7+	c #99D354",
"8+	c #A0D060",
"9+	c #9BCE8C",
"0+	c #9FD066",
"a+	c #99CE94",
"b+	c #A8CF74",
"c+	c #ACCE81",
"d+	c #C4C2B9",
"e+	c #CBC1AE",
"f+	c #B1CE74",
"g+	c #B5C6CB",
"h+	c #A0D0A4",
"i+	c #B4CD82",
"j+	c #ADCDA7",
"k+	c #ADCF91",
"l+	c #AAD09B",
"m+	c #AFD08C",
"n+	c #D7C2AA",
"o+	c #CBC89B",
"p+	c #A8D584",
"q+	c #BACE9D",
"r+	c #B5D09D",
"s+	c #CCCCAE",
"t+	c #B3D3BE",
"u+	c #ABDA92",
"v+	c #B2E081",
"w+	c #BADAB4",
"x+	c #B6E190",
"y+	c #D4D4C8",
"z+	c #C5D7DC",
"A+	c #B3E3A4",
"B+	c #BCE0A9",
"C+	c #C4E7C0",
"D+	c #B3E9EF",
"E+	c #F1ECDD",
"F+	c #FFFFFF",
" +{+]+_+S.$+$+%+V.$+I.2+$+{+A.x.x.V.A.V.V.A.S.I.%+4+$+P. +I.I.Q.",
"@+S.S.%+%+S.S.%+H.x.z.&+R.G.G.J.g+J.G.&+%+I.E.A.S.S.%+x.P.X.$+$+",
"P.Y.S.%+%+S.$+2+x.G.!+J.g.:.R R Z i.g.g.g.g.`.A.n.q.S.$+x.H.I.V.",
"Q.O.o.]+V.V.S.f.).).Z S v g g k y R Z :.Z :.g.R.B.x.S.E.H.H.S.x.",
"P.q.x.V.B.$+!.t v c y y S r R Y U y y y Y :.h.h.g.B.{+Q.n.H.O.w.",
"A.w.7.k.V.'.v l k z g v S Z Y ;.U y c y Y g.F.h.F.F.R.V.o.x.E.{+",
"}+H.I.k.G c k v n 1 3 1 k k R T 3 0 3 k Y F.h.h.Y y _.R.A.A.I.I.",
"]+I.n.$.( c k 1 ~ ] | 2 c z k k ] | 3 ( c Z R h.F.c 3 _.%+]+k.A.",
"<+V.o.| ( g o - - ] ( ( 3 k y k ] ( 3 ( 2 v c r F.h.c Y f.V.A.V.",
"x.$+$.% ] c 2 ] ^ { ( ( k l v y ] ( 3 2 : : ] ] k :.d._.Z f.A.%+",
"I.x.f = ] 2 ( ] ( ( 2 2 3 k R g c k v l { : { ; 2 g y Y Z f.V.]+",
"o.B.| > ] ] ( { < ( 2 2 3 v v 2 < 3 k k ; { ^ 2 2 n 2 2 y Y A.w.",
"k.k.> ^ 2 < ^ < 2 2 2 c i c 2 3 ( 3 S v 4 { ] v Y y 3 ( n Z A.P.",
"x.L + { 4 : ^ ] c l z h l < 3 v v S i.!.t l i v :.Y c < T D.f.n.",
"{+q # = { { ( ( l v Z z 4 ( 3 k t Z g.:.:.J.Z k Z g.Z k y _.f.o.",
"V.q + # > ] 3 2 7 k v c 2 < 3 7 c S :.Z :.J.:.R S y h.:.v S g.I.",
"]+L # + = ^ 4 h 2 i l i 3 2 l t R R :.g.:.J.F.~+v c _.T v :.f.%+",
"&+G + # = > 2 i ( 2 3 7 k c t R R T R Y :.:.g.~+:.y T Y Z g.f.x.",
"]+q = = % > ] ] ] | 2 3 n c 2 y T y T Y g.Y :.h.F.Y Y g.J.F.f.o.",
"$+|.| % # = = - - 2 k ( 3 c c c y Y R Y Y :.Y g.h._._.F.g+J.C.]+",
"{+o.c ) % - - = ~ | 3 ( 3 2 2 ] v U P U _.:.;.g._.c.h.F.!+h.x.V.",
"S.S.F | ) % - - 2 | ] c c 2 ( ] k R h.h.h._.h.h.;.;._.h.h._.a.I.",
"V.S.@.1 6 1 ( 1 n 3 3 c i 7 { ] 3 ).g.F.h.:._.;.h.d.D.d.c.a.I.V.",
"x.V.I.F 0 5 0 6 o ( ] 0 c 3 7 k R J.!+F.h.:.h.h._.D.D.c._.V.-+#+",
"x.B.]+A.b 6 o o o ] - 6 g n Y :.g.~+~+F.h.h.>.=./.c._.>.C.$+#+{+",
"I.{+H.S.6.6 x x B x o o o n r Z g.F.F.F.F.h.;.b.b.c.b.R.2+_+<+'+",
"I.V.o.H.Q.$.1 n B P j 6 x x T Z h.g.D.g.h._.>.b.b.D.R.V.]+'+ +'+",
"V.E.o.x.S.B.$.b 9 o j o x U x y Y h.D.h.;.h.h.d.D.R.V.{+V.E.q.P.",
"o.o.o.x.w.S.V.x.F 3 6 j o 5 x B P ;.d.F.c.h.~+F.$+ +H.V.I.o.w.t.",
"x.I.V.V..+S.x.S.H.3.F m 8 o x u U Y :.F.h.!+`.E.S.P.H.S.{+A.x.A.",
"{+I.]+$+$+S.V.S.S.S.S.w.5.@.F T T -.a.f.B.A.A.H.o.H.S.$+S.C.A.%+",
"#+{+&+$+S.{+%+.+x.V.$+{+I.{+H.o.A.o.B.B.x.A.A.V.S.x.S.{+S.A.]+]+"};
