/* XPM */
static char * 32_moeda_5_escudos_grass_xpm[] = {
"32 32 255 2",
"  	c #000000",
". 	c #1D1A14",
"+ 	c #2B2822",
"@ 	c #38362F",
"# 	c #424039",
"$ 	c #314D2C",
"% 	c #494841",
"& 	c #505049",
"* 	c #544F49",
"= 	c #395D36",
"- 	c #336123",
"; 	c #3F5E26",
"> 	c #575750",
", 	c #5C5650",
"' 	c #5D5E43",
") 	c #396D1B",
"! 	c #605F52",
"~ 	c #5F5F57",
"{ 	c #645E57",
"] 	c #407028",
"^ 	c #486C43",
"/ 	c #407033",
"( 	c #4E6D34",
"_ 	c #66665E",
": 	c #6B655F",
"< 	c #577631",
"[ 	c #547829",
"} 	c #627059",
"| 	c #66732B",
"1 	c #467E2A",
"2 	c #736C66",
"3 	c #6D6E66",
"4 	c #6F6E60",
"5 	c #4E7D2B",
"6 	c #408135",
"7 	c #667352",
"8 	c #4E7D3C",
"9 	c #4E7E35",
"0 	c #4D7E44",
"a 	c #557B50",
"b 	c #5B7B41",
"c 	c #49861F",
"d 	c #5C8023",
"e 	c #528423",
"f 	c #7A736D",
"g 	c #767567",
"h 	c #6F7953",
"i 	c #75756D",
"j 	c #777763",
"k 	c #5A8C35",
"l 	c #508F38",
"m 	c #598C3C",
"n 	c #4C8F49",
"o 	c #648939",
"p 	c #4E8F43",
"q 	c #588C42",
"r 	c #827B74",
"s 	c #7C7D74",
"t 	c #7C7E69",
"u 	c #588C49",
"v 	c #7E7D6F",
"w 	c #618A42",
"x 	c #5A8B50",
"y 	c #608A48",
"z 	c #678848",
"A 	c #78815D",
"B 	c #668851",
"C 	c #55922D",
"D 	c #5E8C5E",
"E 	c #6D8C46",
"F 	c #59981C",
"G 	c #5A9725",
"H 	c #609433",
"I 	c #679232",
"J 	c #85847B",
"K 	c #8A837C",
"L 	c #7F8965",
"M 	c #5C9A35",
"N 	c #709068",
"O 	c #659941",
"P 	c #5D9C44",
"Q 	c #599C55",
"R 	c #5B9C4F",
"S 	c #719646",
"T 	c #649954",
"U 	c #62995C",
"V 	c #659A48",
"W 	c #6C9754",
"X 	c #649A4E",
"Y 	c #6E974E",
"Z 	c #6A975D",
"` 	c #73955B",
" .	c #68A13D",
"..	c #6C9C6D",
"+.	c #62A71F",
"@.	c #938F89",
"#.	c #949082",
"$.	c #8A9571",
"%.	c #6BA433",
"&.	c #64A72C",
"*.	c #99907E",
"=.	c #63A735",
"-.	c #63A73C",
";.	c #62A744",
">.	c #7DA041",
",.	c #6EA844",
"'.	c #72A64D",
").	c #71A653",
"!.	c #69A94D",
"~.	c #68A954",
"{.	c #72A560",
"].	c #74A55A",
"^.	c #6DA668",
"/.	c #67A95B",
"(.	c #6EA75A",
"_.	c #6BA861",
":.	c #7CA452",
"<.	c #7AA369",
"[.	c #7BA461",
"}.	c #7DA45A",
"|.	c #85A353",
"1.	c #919E68",
"2.	c #6AB338",
"3.	c #6DB23F",
"4.	c #6DB247",
"5.	c #6DB24E",
"6.	c #76B04C",
"7.	c #6CB72E",
"8.	c #76B42F",
"9.	c #6CB91E",
"0.	c #78AE7C",
"a.	c #76B53B",
"b.	c #7CB443",
"c.	c #87AC80",
"d.	c #A4A198",
"e.	c #9BA681",
"f.	c #70B75A",
"g.	c #77B559",
"h.	c #71B66E",
"i.	c #6DB867",
"j.	c #6FB860",
"k.	c #76B660",
"l.	c #78B566",
"m.	c #7FB459",
"n.	c #7EB460",
"o.	c #7CB46C",
"p.	c #81B366",
"q.	c #7AB474",
"r.	c #71BC40",
"s.	c #8AB167",
"t.	c #89B16D",
"u.	c #8AB25F",
"v.	c #74BB48",
"w.	c #88B176",
"x.	c #93B05F",
"y.	c #74BB4F",
"z.	c #74BB56",
"A.	c #A0AC74",
"B.	c #7FB954",
"C.	c #75C43A",
"D.	c #76C52D",
"E.	c #78C71E",
"F.	c #77C270",
"G.	c #80C43E",
"H.	c #82C52F",
"I.	c #84C063",
"J.	c #7CC35D",
"K.	c #83C06A",
"L.	c #7AC550",
"M.	c #79C557",
"N.	c #7BC649",
"O.	c #7BC279",
"P.	c #87C15C",
"Q.	c #7CC465",
"R.	c #83C171",
"S.	c #7BC46B",
"T.	c #84C17A",
"U.	c #82C559",
"V.	c #84C653",
"W.	c #88C08D",
"X.	c #82CE0C",
"Y.	c #B5B1A9",
"Z.	c #89C74D",
"`.	c #94C16C",
" +	c #90C17B",
".+	c #97BD91",
"++	c #8FC183",
"@+	c #ACB791",
"#+	c #92C275",
"$+	c #8EC655",
"%+	c #9CBF75",
"&+	c #A2BD82",
"*+	c #98C084",
"=+	c #9BC07B",
"-+	c #8ACD25",
";+	c #97C461",
">+	c #83CA64",
",+	c #8CC76A",
"'+	c #9FC262",
")+	c #85CD40",
"!+	c #8BC771",
"~+	c #8FC95E",
"{+	c #8EC965",
"]+	c #8DCA7A",
"^+	c #91CD49",
"/+	c #94CE3C",
"(+	c #8CCB84",
"_+	c #8DD603",
":+	c #97D02A",
"<+	c #91CF67",
"[+	c #94CE71",
"}+	c #93CE77",
"|+	c #97D057",
"1+	c #97D05E",
"2+	c #A1CF4D",
"3+	c #AEC77E",
"4+	c #A0CD73",
"5+	c #9FCD79",
"6+	c #B1C877",
"7+	c #9BD06A",
"8+	c #9ECD86",
"9+	c #9CCD8F",
"0+	c #9FCE80",
"a+	c #ABCC78",
"b+	c #97D282",
"c+	c #9FCE9D",
"d+	c #A8CD88",
"e+	c #AACD82",
"f+	c #A6CD91",
"g+	c #96D38C",
"h+	c #B1CB88",
"i+	c #A6D16C",
"j+	c #AFCC93",
"k+	c #B3CE6D",
"l+	c #C8C1BB",
"m+	c #C3C5BB",
"n+	c #B1D0A3",
"o+	c #B0D1B0",
"p+	c #AED982",
"q+	c #C4CFAB",
"r+	c #BAD58B",
"s+	c #B0D993",
"t+	c #B0DA8C",
"u+	c #B9D69C",
"v+	c #B1DB9E",
"w+	c #D2D5CA",
"x+	c #B5E1AF",
"y+	c #DAD3CD",
"z+	c #BEDFB1",
"A+	c #C0E0BE",
"B+	c #EAE8E0",
"C+	c #F5F4EE",
"D+	c #FBF7E8",
"E+	c #FDFDF3",
"F+	c #FFFFFF",
"U.I.R.#+n.K.`. +t.`.n.#+w.I.t.}.{.o.o.K.R.o.n.l. +5+p.M.U.g.p.M.",
"b.U.B.#+T.P.P. +m.n.].I.{.n.n.5.o.o.k.l. +l.g.p.u.m.R.n.y.v.t.K.",
"B.C.n. +w.I.`.%+6.p.k.].(.5.4.5.^.{.k.I.R.o.<.t.).'.g.K.n.m.g.p.",
"m.v.k.T.l.o.p.`.I.t.K.K.n.m.N.#+ +[.[.m.R.{.K.l.{.n.B.5.m.m.I.[.",
"M.y.n.I.p.t.t.#+p.s.%+#+n.I.B.I.o.p.p.z.m.n.p.k.{.g.I.B.6.6.b.B.",
"n.6.].5.K.t.I.K.I.(.n.K.n.<.N N t <.<.].n.m.m.g.k.B.n.I.].[.m.K.",
" +].p.6.K.g.z.I.).l.<.$.d.@.K K @.#.@.d.#.[.p.n.{.t.t.n.o.p.k.[.",
" +l.5.g.g.n.n.g.g.$.@.@.r i i i i 3 3 i @.d.$.{.q. +p.#+R.#+(.[.",
",+p.p.K.g.B.6.).#.d.@.J J f r J s i i v : K d.e.o.{.` p.p.p.[.t.",
"m.R.p.g.n.6.6.$.d.J K @.#.s K @.K v f J K r i d.e.{.W {.o.[.p.R.",
"l.t.K.P.I.m.].@.K s K r s r r K r f v r r i i s Y.c.<.<.[.].o.T.",
"(. +m.6.P.p.#.#.r s K K K r J K J J J @.@.K s i J Y.w.p.].].k.].",
"!.,+N.t.I.<.@.K 2 K v v i #.K f s r K g 2 2 K s r d.w.K.Q.n.o.y.",
"g.U.U.I.6.L K @.d.@.K r f J i K r i i s J r K d.@.@.$.:.p.).g.'.",
"I.J.B.6.J.$.J @.d.@.K J i s f i i 3 i : 3 : s @.@.K J '.).X {.].",
"K.n.m.g.m.K K s s r @.@.@.@.K K r K K K #.K i r J K K ).6.p.{.n.",
"T.k.{.n.g.J J i i i K r J K J i : 3 J s r r i i r K K (.g.o.<. +",
"*+[.t.p.g.J r r v 2 J r v r J r K s r r r #.@.s K K J ).m.6.W [.",
"!+).B.B.4.$.r #.Y.d.K @.d.2 s f r s J @.@.J @.Y.@.J N n.B.r.X ].",
"!+g.g.P.6.[.i v @.@.2 f #.@.#.g : J K #.r i J d.K J <.k.B.m.m.K.",
",+I.n.!+4.n.t s i 2 _ _ 3 s J r 3 r J i 3 i v r s v m.y.y.6.m.K.",
"I.J.m.:.g.g.<.3 3 3 _ ~ i 3 ~ 3 r { ~ _ 3 3 i s 3 ` n.p.B.'.{.n.",
"s.I.6.B.n.y.y.$._ 3 _ s _ : 2 ! _ s { 3 3 r i 3 j P.,+T.I.l.n.K.",
"n.p.n.I.(.g.L.n.s _ i 3 3 s { _ ~ 3 3 J 3 s 3 h m.g.,+I.n.l.I.I.",
"g.t.T.`.I.U.g.z.t.$.{ _ _ r r 3 f f s 3 3 _ L p.N.m.`.`.K.#+P.R.",
"k.,+].u.p.J.P.n.`.m.w.t { , ~ & > , ~ ~ } <.R.R.P.R.T.!+]+!+,+P.",
"k.o.].g.g.n.I.I.n.V.{+`.w.c.J J s J L <.l.g.n.R.m.k.R.o.K.P.V.V.",
"K.(.].n.J.o.I.].B.y.V.m.k.5.6.5.5.~.X ~.{.K.K.U.n.,+o.R.K.g.v.L.",
"(.].(.{.g.m.p.s.I.B.Z.`.B.'.6.4.g.!.k.l.U t.n.5.I.L.z.I.l.g.6.4.",
"k.k.o.p. +I.[.I.m.P.J.P.B.6.g.g.6.5.o.{.g.t.l.5.g.y.k.n.,+o.k.k.",
"K.p.T.R.K.I.t.n.P.B.I.I.P.B.6.5.~.k.{.[.l.o.p.g.n.g.B.,+I.p.o. +",
"P.I. +w.J.K. +w.[.K.K.I.m.P.g.n.l.{.o.q.[.o.p.R.n.}.s.{+m.o.w.R."};
