/* XPM */
static char * 32_wall_xpm[] = {
"32 32 255 2",
"  	c #000000",
". 	c #050803",
"+ 	c #090C08",
"@ 	c #101310",
"# 	c #14160D",
"$ 	c #151714",
"% 	c #181A18",
"& 	c #1C1C15",
"* 	c #191E17",
"= 	c #1D1F1C",
"- 	c #1C2014",
"; 	c #212320",
"> 	c #1F251D",
", 	c #232615",
"' 	c #222619",
") 	c #24251E",
"! 	c #242624",
"~ 	c #282A28",
"{ 	c #2B2B24",
"] 	c #292D20",
"^ 	c #282E26",
"/ 	c #2D2F2C",
"( 	c #2F2F28",
"_ 	c #303523",
": 	c #323431",
"< 	c #30362E",
"[ 	c #34352D",
"} 	c #33372A",
"| 	c #373936",
"1 	c #3A3C39",
"2 	c #393F2C",
"3 	c #3B4032",
"4 	c #3A4037",
"5 	c #3F3F38",
"6 	c #3F413E",
"7 	c #3F482D",
"8 	c #434739",
"9 	c #444644",
"0 	c #45483F",
"a 	c #434A36",
"b 	c #4A4F41",
"c 	c #485137",
"d 	c #4C4E4C",
"e 	c #4E513E",
"f 	c #49533E",
"g 	c #4E5148",
"h 	c #4A5736",
"i 	c #515350",
"j 	c #575A52",
"k 	c #565B4C",
"l 	c #585A57",
"m 	c #555D43",
"n 	c #545D48",
"o 	c #535F3E",
"p 	c #5E615E",
"q 	c #606159",
"r 	c #5C6449",
"s 	c #5C644F",
"t 	c #5E6354",
"u 	c #5D6847",
"v 	c #5F665C",
"w 	c #646663",
"x 	c #61694E",
"y 	c #606954",
"z 	c #5F6B43",
"A 	c #656854",
"B 	c #66675F",
"C 	c #656A5B",
"D 	c #656E53",
"E 	c #646E58",
"F 	c #676E64",
"G 	c #657149",
"H 	c #627344",
"I 	c #6B6D6B",
"J 	c #6B6F5A",
"K 	c #65724F",
"L 	c #6D6E66",
"M 	c #6B7061",
"N 	c #62754B",
"O 	c #68725C",
"P 	c #697357",
"Q 	c #717460",
"R 	c #6E756B",
"S 	c #707566",
"T 	c #6B7855",
"U 	c #6D7850",
"V 	c #6E775B",
"W 	c #737572",
"X 	c #6E7861",
"Y 	c #75756D",
"Z 	c #74796A",
"` 	c #6F7C59",
" .	c #6B7E54",
"..	c #727B5F",
"+.	c #6D7E4E",
"@.	c #747B71",
"#.	c #727E55",
"$.	c #787B67",
"%.	c #787A77",
"&.	c #737D66",
"*.	c #7A7A72",
"=.	c #707F62",
"-.	c #787D6D",
";.	c #73805D",
">.	c #777F63",
",.	c #77835B",
"'.	c #748555",
").	c #7D7F7C",
"!.	c #78826C",
"~.	c #7F7F77",
"{.	c #7A8177",
"].	c #7C8171",
"^.	c #74865C",
"/.	c #788662",
"(.	c #7C8569",
"_.	c #788953",
":.	c #79886A",
"<.	c #7C885F",
"[.	c #808576",
"}.	c #828570",
"|.	c #798A59",
"1.	c #7D8770",
"2.	c #7F867C",
"3.	c #838582",
"4.	c #85857C",
"5.	c #7D8A67",
"6.	c #80896C",
"7.	c #868985",
"8.	c #858B7B",
"9.	c #848B81",
"0.	c #828D76",
"a.	c #898A81",
"b.	c #7F8F70",
"c.	c #818F6B",
"d.	c #838F65",
"e.	c #888C77",
"f.	c #7F9160",
"g.	c #81915A",
"h.	c #858E71",
"i.	c #7D935B",
"j.	c #898C89",
"k.	c #7F9267",
"l.	c #87917A",
"m.	c #8E8E86",
"n.	c #899086",
"o.	c #8B9080",
"p.	c #8D8F8C",
"q.	c #879571",
"r.	c #8C9578",
"s.	c #879778",
"t.	c #93938B",
"u.	c #8F9585",
"v.	c #8E958B",
"w.	c #889A68",
"x.	c #919490",
"y.	c #8A9A63",
"z.	c #859C63",
"A.	c #939681",
"B.	c #8E9881",
"C.	c #8E9A70",
"D.	c #899C70",
"E.	c #8B9B7C",
"F.	c #899F60",
"G.	c #8E9C78",
"H.	c #929B7E",
"I.	c #969895",
"J.	c #98988F",
"K.	c #929A8F",
"L.	c #949A8A",
"M.	c #91A270",
"N.	c #969F82",
"O.	c #9A9C99",
"P.	c #989E8E",
"Q.	c #9B9E88",
"R.	c #90A46C",
"S.	c #9C9D94",
"T.	c #96A089",
"U.	c #979F94",
"V.	c #94A27E",
"W.	c #97A379",
"X.	c #92A579",
"Y.	c #9D9F9C",
"Z.	c #92A868",
"`.	c #9BA386",
" +	c #9DA292",
".+	c #A2A29A",
"++	c #9DA49A",
"@+	c #97A977",
"#+	c #A1A3A0",
"$+	c #9DA68F",
"%+	c #9EA88A",
"&+	c #9CAA85",
"*+	c #A2A797",
"=+	c #A5A8A4",
"-+	c #A1AB93",
";+	c #A8A8A0",
">+	c #9BB170",
",+	c #9FAF81",
"'+	c #9CB177",
")+	c #A5ACA2",
"!+	c #A9ABA8",
"~+	c #A4B18C",
"{+	c #A9AE9E",
"]+	c #A6B092",
"^+	c #A7B099",
"/+	c #ABAEAA",
"(+	c #ADAEA5",
"_+	c #B1B3B0",
":+	c #AAB893",
"<+	c #AEB5AA",
"[+	c #ADB799",
"}+	c #A6BC81",
"|+	c #AEB7A0",
"1+	c #AABA8C",
"2+	c #B1B6A6",
"3+	c #A8BD7D",
"4+	c #B5B5AC",
"5+	c #B6B9B5",
"6+	c #ACC388",
"7+	c #B4BFA0",
"8+	c #B1C390",
"9+	c #BABDBA",
"0+	c #B4C29C",
"a+	c #BFBFB6",
"b+	c #B9C1B6",
"c+	c #BBC1B1",
"d+	c #B7C598",
"e+	c #BAC3AB",
"f+	c #B9C5A6",
"g+	c #C0C2BF",
"h+	c #BECCA6",
"i+	c #BCCE9A",
"j+	c #C4C9B9",
"k+	c #C6C8C5",
"l+	c #C2CBB3",
"m+	c #C2CCAD",
"n+	c #C0CEA1",
"o+	c #C3CBC0",
"p+	c #CBCBC2",
"q+	c #CBCDCA",
"r+	c #CDD2C1",
"s+	c #CBD4B9",
"t+	c #D0D3CF",
"u+	c #D5D5CC",
"v+	c #CFD7CC",
"w+	c #D3D9C8",
"x+	c #D5D8D5",
"y+	c #D9DFC7",
"z+	c #DCDEDB",
"A+	c #D8E0D4",
"B+	c #DBE1CF",
"C+	c #E0E0D7",
"D+	c #E0E3DF",
"E+	c #E6E9DF",
"F+	c #E8EAE7",
"f &.9.).3.7.3.).2.j.p.3.3.m.p.~.i *.[.].Z Q &.S X Z [.1.(.o.0.$.",
"t T.#+O./+_+=+=+!+9+4+O.v.O.)+*+l t. +P.8.0.h.l.-.>.N.&+~+[+|+|+",
"k (.8.J..+#+=+_+<+S.v.[.S Z l.N.j u.J.u.9.0.1.&.E V c.H.V.E.`.$+",
"g 0.K.Y. +=+S. + +8.-.].-.&.(.G.g 8.a.4.~.m.4.*.8.0.B.-+$+!.0.`.",
"5 2.O.t.U.S.t.].S S S h.H.q.c.w.a Z R Y Y ).*.4.m.S. +(+^+8.8.$+",
"6 4.J.t.m.o.[.S E E !.r.G././.d.a /.O L v F %.3.3.7.x.!+=+)+<+(+",
"j t.t.2.).L.!.E D V e.h.>.P P q.8 6.h.S v v 2.x.3.3.I.Y.Y.9+t+a+",
"6 v q g g v g 8 f g t t e a 3 E ^ k ..s b b w R R W W I I 7.O.#+",
"8.Z C C n n x s b X &.>.!.R Y R I Z !.2.2.3.j.~.I x.I.x.p.j.p.m.",
"L.-.&.&.5.c.5.r.b 6.G.V.%+1.[.n.2.n.x.K.I.I._+5+W _+5+5+_+5+=+P.",
"[.y E >.l.H.c.C.7 ,.z.M.h.` h.S.x.*.%.{.R %.#+5+w Y.O.Y.O.(+=+8.",
"!.-.V >.b.D.d.D.c w.z.C.;.,.a.S.S.{.B *.%.3.#+5+l 7.%.p.O.O.t.[.",
"t.B.6.^.q.D.d.w.7 |.z.z.|./.-.8.o.*.F 7.Y.p.I._+p p.).I.#+x.).~.",
"l.H.f.,.,.,.|.i.] K M.,+f.6.&.!.e.8.j.*+*+v.*+4+l x.I.#+=+Y.I.).",
"l.k.;.` ..K ;.|.] u <.<. .1.(.0.N.$+L.A.$+u.*+<+i p.Y.#+=+_+!+8.",
"M r f a 8 0 m x ) h r m o y t t X &.S s A y M 4.: p W R W j.p.Y ",
"j {.[.*.Z S &.S X -.[.0.(.o.0.-.j 4.n.j.7.p.j.).3.j.p.3.3.j.x.~.",
"l t. +P.8.0.h.l.-.>.N.&+~+[+|+|+B *+;+=+/+_+=+=+!+9+4+O.p.O.)+*+",
"i u.J.u.9.0.1.&.E V c.H.V.E.`.$+l 0.n.S.#+#+=+_+<+S.t.4.S Z l.N.",
"g 8.a.4.~.m.4.*.8.0.B.-+$+!.0.`.i 8.K..+ +=+S. + +8.-.1.!.&.(.G.",
"8 Z R Y Y ).*.4.m.S. +(+^+8.8. +0 4.O.t.U.S.t.].S S S q.H.s.h.w.",
"a /.O L B F ).7.3.7.x.!+=+)+<+(+9 4.J.t.m.o.[.S E O !.r.G././.d.",
"8 6.h.S C B 7.x.2.3.I.Y.Y.9+t+a+l t.t.2.).L.!.E P ..e.h.>.P P q.",
"~ k ..s b b w I R W W I I 7.O.#+9 v q g g v g 8 f g t t e a 3 J ",
"I Z !.2.2.3.j.~.I x.I.x.p.j.p.m.4.Z Z S X (.!.J b X &.>.!.R Y R ",
"2.n.x.K.I.I._+5+W _+5+5+_+5+=+P.L.-.].1.q.N.N.V.b 6.G.V.%+1.[.n.",
"K.{.%.{.R %.#+5+w Y.O.Y.O.(+=+9.[.y E &.B.N.N.G.7 ,.z.M.h.` h.S.",
"Y.4.B ~.2.3.#+5+l 7.%.p.O.O.t.[.!.-.V >.r.M.M.C.c w.z.C.;.,.a.S.",
"u.].R t.Y.p.I._+p p.3.I.#+x.).~.v.B.6.^.q.D.q.w.7 |.z.z.|./.-.8.",
"e.8.x.*+*+v.*+4+l x.I.#+=+Y.I.).l.H.f.,.,.^.f.f.] K X.,+f.6.&.!.",
"N.$+*+$+$+u.*+<+i p.Y.=+=+_+/+8.h.k.;.` ..P /.f.] x H.H.i.0.(.0.",
"y C M r k g t R ~ i p p w %.%.q j e 2 3 3 3 c o & 7 n o f n b g "};
