/* XPM */
static char * 32_zurg_grass_xpm[] = {
"32 32 1002 2",
"  	c #80C156",
". 	c #89C363",
"+ 	c #8ABF71",
"@ 	c #90C175",
"# 	c #81B164",
"$ 	c #89BA69",
"% 	c #90BE6F",
"& 	c #96BB78",
"* 	c #8BB96A",
"= 	c #8EBE6E",
"- 	c #7DB363",
"; 	c #91C475",
"> 	c #8CB971",
", 	c #8EC369",
"' 	c #83B670",
") 	c #78AB5A",
"! 	c #79AC62",
"~ 	c #84B970",
"{ 	c #7DB369",
"] 	c #82B86D",
"^ 	c #83B475",
"/ 	c #7EAF6B",
"( 	c #7CB662",
"_ 	c #79AC65",
": 	c #8DBD77",
"< 	c #98C178",
"[ 	c #89B56E",
"} 	c #7BBD56",
"| 	c #81C356",
"1 	c #7CB45D",
"2 	c #7FB36B",
"3 	c #79BA57",
"4 	c #82C449",
"5 	c #87C55C",
"6 	c #7FB75D",
"7 	c #90BA7B",
"8 	c #89B377",
"9 	c #8BBE61",
"0 	c #83BC5A",
"a 	c #92B875",
"b 	c #84B559",
"c 	c #82B463",
"d 	c #78AB5C",
"e 	c #82BC65",
"f 	c #75AC61",
"g 	c #7CB260",
"h 	c #78AD5D",
"i 	c #919A7E",
"j 	c #AB8D9A",
"k 	c #A08996",
"l 	c #82A17B",
"m 	c #88B475",
"n 	c #8CBA7B",
"o 	c #79B06A",
"p 	c #74AF54",
"q 	c #83B668",
"r 	c #88B55E",
"s 	c #7EB75D",
"t 	c #89BA74",
"u 	c #7DB463",
"v 	c #7CB94F",
"w 	c #7DB84B",
"x 	c #85B06E",
"y 	c #86BD6C",
"z 	c #80BC56",
"A 	c #7EC041",
"B 	c #7FB25E",
"C 	c #93BB7E",
"D 	c #89B479",
"E 	c #81B764",
"F 	c #90BE6D",
"G 	c #9ABC77",
"H 	c #80B056",
"I 	c #83B167",
"J 	c #76A362",
"K 	c #79A562",
"L 	c #6CA55D",
"M 	c #73AB55",
"N 	c #75B24A",
"O 	c #BBA482",
"P 	c #DEA4A6",
"Q 	c #A76798",
"R 	c #7D9879",
"S 	c #7DA46C",
"T 	c #6F8867",
"U 	c #7DAA6F",
"V 	c #7DAF6C",
"W 	c #89B170",
"X 	c #75A84F",
"Y 	c #74AC4F",
"Z 	c #7DB95A",
"` 	c #85BA6D",
" .	c #83AE5E",
"..	c #80B158",
"+.	c #7CB15B",
"@.	c #84B366",
"#.	c #7EBB5B",
"$.	c #7ABB48",
"%.	c #74B05E",
"&.	c #89BB7A",
"*.	c #7FB167",
"=.	c #83B368",
"-.	c #82B862",
";.	c #8CB966",
">.	c #8CBA6B",
",.	c #89B771",
"'.	c #85B76A",
").	c #70955D",
"!.	c #6C915E",
"~.	c #89A65B",
"{.	c #AEC256",
"].	c #F3D932",
"^.	c #F5D12A",
"/.	c #B79E93",
"(.	c #768379",
"_.	c #656F6E",
":.	c #749A63",
"<.	c #77AD64",
"[.	c #85BA72",
"}.	c #77B066",
"|.	c #75AC5F",
"1.	c #7DB15E",
"2.	c #7FB557",
"3.	c #70AD51",
"4.	c #7EB255",
"5.	c #81B359",
"6.	c #80B763",
"7.	c #79AC60",
"8.	c #7CBE55",
"9.	c #77B44F",
"0.	c #80AE63",
"a.	c #81B967",
"b.	c #87B66B",
"c.	c #8CB873",
"d.	c #8BBA71",
"e.	c #96C57D",
"f.	c #7FB765",
"g.	c #82B162",
"h.	c #92BB78",
"i.	c #8BC074",
"j.	c #628B4E",
"k.	c #A26E59",
"l.	c #D5B088",
"m.	c #EAD2A1",
"n.	c #EED17B",
"o.	c #C9AE6C",
"p.	c #6E727A",
"q.	c #526357",
"r.	c #76A85A",
"s.	c #7CB05F",
"t.	c #7FB569",
"u.	c #76AC61",
"v.	c #74A962",
"w.	c #7DB75A",
"x.	c #88C164",
"y.	c #7FBC57",
"z.	c #7AB451",
"A.	c #7BAF4F",
"B.	c #7BB54C",
"C.	c #7AB74C",
"D.	c #84B866",
"E.	c #73AC4C",
"F.	c #74A75C",
"G.	c #70AB56",
"H.	c #87BD6F",
"I.	c #86B56F",
"J.	c #86BF68",
"K.	c #85B869",
"L.	c #83BC64",
"M.	c #6FA557",
"N.	c #7DB264",
"O.	c #85B76E",
"P.	c #76B35B",
"Q.	c #907663",
"R.	c #DFA59B",
"S.	c #DAACBC",
"T.	c #AB94B1",
"U.	c #6F6A68",
"V.	c #4F5356",
"W.	c #4F654A",
"X.	c #81AA6C",
"Y.	c #7DB263",
"Z.	c #7EB359",
"`.	c #76B05C",
" +	c #76AE5E",
".+	c #7BB95B",
"++	c #7DBA63",
"@+	c #85BD6B",
"#+	c #79A35C",
"$+	c #7D9D62",
"%+	c #7CAF55",
"&+	c #8ABE6D",
"*+	c #94C080",
"=+	c #75AE5C",
"-+	c #79AC66",
";+	c #75B254",
">+	c #82B76B",
",+	c #78B158",
"'+	c #7AB557",
")+	c #80B56A",
"!+	c #72AF53",
"~+	c #79B165",
"{+	c #97B58F",
"]+	c #9EA39A",
"^+	c #938E7C",
"/+	c #EEC27B",
"(+	c #FEDD9B",
"_+	c #E0B8B3",
":+	c #969395",
"<+	c #9A969C",
"[+	c #97949A",
"}+	c #989B9A",
"|+	c #63696A",
"1+	c #5E765B",
"2+	c #80B467",
"3+	c #7CB463",
"4+	c #71A45D",
"5+	c #81B170",
"6+	c #82BA70",
"7+	c #7BB762",
"8+	c #79B06D",
"9+	c #82AE6B",
"0+	c #7DB060",
"a+	c #7EAD64",
"b+	c #90BC7A",
"c+	c #7AB662",
"d+	c #71B151",
"e+	c #78B658",
"f+	c #77B257",
"g+	c #7DBA62",
"h+	c #7BB35C",
"i+	c #70AD59",
"j+	c #74B05C",
"k+	c #7BA66C",
"l+	c #A5A9A0",
"m+	c #BAB3B6",
"n+	c #C1B5B9",
"o+	c #F2BFB7",
"p+	c #E9D1CE",
"q+	c #D2CDD7",
"r+	c #CFC9D5",
"s+	c #CCC7D4",
"t+	c #C1C0C6",
"u+	c #96959D",
"v+	c #6F5C82",
"w+	c #7E6D93",
"x+	c #789974",
"y+	c #70A75F",
"z+	c #80B270",
"A+	c #89B97B",
"B+	c #7FAF68",
"C+	c #8CBF73",
"D+	c #83B771",
"E+	c #89B979",
"F+	c #72A359",
"G+	c #7FAB62",
"H+	c #91C270",
"I+	c #80B46B",
"J+	c #7BB869",
"K+	c #83B967",
"L+	c #7AB553",
"M+	c #7FBB55",
"N+	c #79B34F",
"O+	c #77B053",
"P+	c #7FAD70",
"Q+	c #898790",
"R+	c #8E8392",
"S+	c #A8A1A5",
"T+	c #BAB3B9",
"U+	c #CBAAB6",
"V+	c #CDC6D3",
"W+	c #BDBAC7",
"X+	c #A9A7B8",
"Y+	c #93929F",
"Z+	c #655975",
"`+	c #9D8BB0",
" @	c #998AAE",
".@	c #8C80A2",
"+@	c #839E86",
"@@	c #7CAE6E",
"#@	c #73A35E",
"$@	c #6F9E5B",
"%@	c #80AC6D",
"&@	c #82B66E",
"*@	c #85B36B",
"=@	c #7CA964",
"-@	c #83AF6C",
";@	c #7FB15C",
">@	c #88B76F",
",@	c #83BB68",
"'@	c #7DB659",
")@	c #82B65C",
"!@	c #80B654",
"~@	c #79B44A",
"{@	c #80AA67",
"]@	c #898493",
"^@	c #766681",
"/@	c #675573",
"(@	c #6F5F7A",
"_@	c #877F91",
":@	c #927B99",
"<@	c #9790A4",
"[@	c #887A9C",
"}@	c #8671A1",
"|@	c #806CA3",
"1@	c #524373",
"2@	c #4E3C60",
"3@	c #7D6C8F",
"4@	c #9588A7",
"5@	c #A594BC",
"6@	c #988AB3",
"7@	c #818C8F",
"8@	c #73A064",
"9@	c #6E9C5A",
"0@	c #719E60",
"a@	c #7CB56A",
"b@	c #76A665",
"c@	c #81B267",
"d@	c #88BC74",
"e@	c #77B367",
"f@	c #81AD70",
"g@	c #84BA68",
"h@	c #7FB759",
"i@	c #8CC066",
"j@	c #82B057",
"k@	c #859F4B",
"l@	c #897578",
"m@	c #7C6781",
"n@	c #56495F",
"o@	c #3F2E48",
"p@	c #604771",
"q@	c #6B5180",
"r@	c #715687",
"s@	c #81639A",
"t@	c #82659F",
"u@	c #7E659F",
"v@	c #67568A",
"w@	c #3F2F5E",
"x@	c #2E2046",
"y@	c #443854",
"z@	c #705B7E",
"A@	c #9F7E9F",
"B@	c #AF8AAC",
"C@	c #A57EA7",
"D@	c #838580",
"E@	c #7AA370",
"F@	c #7CA971",
"G@	c #78AA60",
"H@	c #73A75E",
"I@	c #83B170",
"J@	c #87C079",
"K@	c #73AC5D",
"L@	c #8ABE77",
"M@	c #7BB455",
"N@	c #87C05E",
"O@	c #775F36",
"P@	c #B96D65",
"Q@	c #C39089",
"R@	c #8F6A66",
"S@	c #403532",
"T@	c #577F42",
"U@	c #56595E",
"V@	c #41334D",
"W@	c #453F4A",
"X@	c #665079",
"Y@	c #72598B",
"Z@	c #5F4E7B",
"`@	c #41335C",
" #	c #31234A",
".#	c #2E1E41",
"+#	c #678259",
"@#	c #A08278",
"##	c #C97A7C",
"$#	c #D7747A",
"%#	c #EB8B97",
"&#	c #DB888E",
"*#	c #A3A370",
"=#	c #7FB364",
"-#	c #76A958",
";#	c #74A65A",
">#	c #78AE5F",
",#	c #78AE59",
"'#	c #6BA54B",
")#	c #86C167",
"!#	c #81BF4D",
"~#	c #8EBD69",
"{#	c #83BC65",
"]#	c #607440",
"^#	c #B9ADA1",
"/#	c #F2ECDF",
"(#	c #C5BCAD",
"_#	c #757C5E",
":#	c #6D9D58",
"<#	c #648D58",
"[#	c #414540",
"}#	c #5A5B59",
"|#	c #565260",
"1#	c #504364",
"2#	c #37294B",
"3#	c #281A3C",
"4#	c #2F1334",
"5#	c #634749",
"6#	c #C4BEB3",
"7#	c #F8F4EE",
"8#	c #F5F1E8",
"9#	c #E9D0CD",
"0#	c #D8959B",
"a#	c #AD5259",
"b#	c #8B533A",
"c#	c #86BC6A",
"d#	c #80BC64",
"e#	c #7CAC61",
"f#	c #7BB366",
"g#	c #78B551",
"h#	c #76AE5A",
"i#	c #83BC59",
"j#	c #88C25C",
"k#	c #7DB75F",
"l#	c #75B157",
"m#	c #6AA245",
"n#	c #72795C",
"o#	c #CEC9BF",
"p#	c #E9E2D8",
"q#	c #A5A692",
"r#	c #76A267",
"s#	c #72A566",
"t#	c #515E4C",
"u#	c #5B5C60",
"v#	c #5A5E63",
"w#	c #4B4E54",
"x#	c #312F36",
"y#	c #3F2328",
"z#	c #552C2D",
"A#	c #C4BAB0",
"B#	c #F4F1EA",
"C#	c #F0EDE7",
"D#	c #D7D6D0",
"E#	c #BBBEB8",
"F#	c #99948D",
"G#	c #704E32",
"H#	c #78984F",
"I#	c #78AD56",
"J#	c #80B168",
"K#	c #73A75A",
"L#	c #77AB5A",
"M#	c #71AA49",
"N#	c #89C36A",
"O#	c #80BB5C",
"P#	c #7FB75B",
"Q#	c #77AE58",
"R#	c #7BBD5A",
"S#	c #79B850",
"T#	c #74AB55",
"U#	c #738A5A",
"V#	c #ADAE9C",
"W#	c #DCD6CB",
"X#	c #E3DCCE",
"Y#	c #B5ACAC",
"Z#	c #816499",
"`#	c #896AA5",
" $	c #795D93",
".$	c #64507B",
"+$	c #918987",
"@$	c #C0B6AB",
"#$	c #B0A79E",
"$$	c #CFCCC3",
"%$	c #BCBAB3",
"&$	c #979B90",
"*$	c #828C79",
"=$	c #768867",
"-$	c #6E905C",
";$	c #77A85E",
">$	c #7DAB5F",
",$	c #6BA44A",
"'$	c #6EA751",
")$	c #669D4C",
"!$	c #71A05D",
"~$	c #75AC5B",
"{$	c #82BA6A",
"]$	c #7DB360",
"^$	c #79AE5B",
"/$	c #78B15A",
"($	c #7DB65B",
"_$	c #72AE45",
":$	c #85C05B",
"<$	c #7EB35B",
"[$	c #75AB4B",
"}$	c #CDD5BD",
"|$	c #EBE5DD",
"1$	c #927E9C",
"2$	c #9D79BD",
"3$	c #A681C7",
"4$	c #9E79C0",
"5$	c #8E6EAF",
"6$	c #CEC6C8",
"7$	c #EBE6DC",
"8$	c #C6C3BA",
"9$	c #6E6B5E",
"0$	c #6E8F5E",
"a$	c #6F9E5F",
"b$	c #7CAB6A",
"c$	c #699D51",
"d$	c #74A362",
"e$	c #73A561",
"f$	c #74AB63",
"g$	c #6DA452",
"h$	c #73AF56",
"i$	c #7EAF67",
"j$	c #76A968",
"k$	c #79B163",
"l$	c #8CC177",
"m$	c #7BB663",
"n$	c #76AA60",
"o$	c #7EB860",
"p$	c #70AC51",
"q$	c #6EAA4D",
"r$	c #80BD53",
"s$	c #84BA65",
"t$	c #76AC59",
"u$	c #86B765",
"v$	c #9EB18C",
"w$	c #674F7B",
"x$	c #82659E",
"y$	c #8C6FAE",
"z$	c #8C73B4",
"A$	c #7B67A6",
"B$	c #AFAAB6",
"C$	c #C0B9B4",
"D$	c #654D46",
"E$	c #4D532C",
"F$	c #75A35E",
"G$	c #74AC56",
"H$	c #7DB564",
"I$	c #82B470",
"J$	c #81B863",
"K$	c #7FAB6A",
"L$	c #76AE67",
"M$	c #72A857",
"N$	c #7AB05B",
"O$	c #7FB368",
"P$	c #7AA96C",
"Q$	c #8CBE7A",
"R$	c #96C08D",
"S$	c #76A066",
"T$	c #84B56A",
"U$	c #72A959",
"V$	c #77AF55",
"W$	c #75AB4E",
"X$	c #73AF55",
"Y$	c #70A357",
"Z$	c #6FA151",
"`$	c #6C9253",
" %	c #664E7C",
".%	c #795F95",
"+%	c #7F66A2",
"@%	c #846FAE",
"#%	c #7E6BAB",
"$%	c #66538A",
"%%	c #5D3D58",
"&%	c #490906",
"*%	c #56562C",
"=%	c #73A84D",
"-%	c #76AA52",
";%	c #89BE6D",
">%	c #7FB95D",
",%	c #7FB85D",
"'%	c #6DA25A",
")%	c #72A656",
"!%	c #7CAF57",
"~%	c #78B550",
"{%	c #6D9E58",
"]%	c #7AA864",
"^%	c #8DBD76",
"/%	c #72A555",
"(%	c #78B050",
"_%	c #80BB57",
":%	c #70AE43",
"<%	c #80B956",
"[%	c #77AE59",
"}%	c #76B058",
"|%	c #6AA34F",
"1%	c #786F53",
"2%	c #654A77",
"3%	c #775E94",
"4%	c #7E649F",
"5%	c #806AA9",
"6%	c #806BAB",
"7%	c #6B5592",
"8%	c #51345F",
"9%	c #470204",
"0%	c #605036",
"a%	c #709855",
"b%	c #7AAC60",
"c%	c #7DBA5B",
"d%	c #6FAB4C",
"e%	c #72AA56",
"f%	c #79B853",
"g%	c #73AF57",
"h%	c #7FB65D",
"i%	c #7EBC51",
"j%	c #78B943",
"k%	c #6CA34F",
"l%	c #75A05E",
"m%	c #8EBF72",
"n%	c #7BB456",
"o%	c #76B155",
"p%	c #82BC5B",
"q%	c #75B048",
"r%	c #7BB652",
"s%	c #71A451",
"t%	c #75B25B",
"u%	c #80B95C",
"v%	c #78A85E",
"w%	c #7D5951",
"x%	c #644975",
"y%	c #795E93",
"z%	c #8065A0",
"A%	c #8069A7",
"B%	c #836DAC",
"C%	c #725C99",
"D%	c #50386B",
"E%	c #450A19",
"F%	c #674B39",
"G%	c #779F62",
"H%	c #7CB666",
"I%	c #75AC5D",
"J%	c #73B453",
"K%	c #71A858",
"L%	c #7AB65F",
"M%	c #7CB760",
"N%	c #79B54E",
"O%	c #7EB758",
"P%	c #7CB859",
"Q%	c #87B96E",
"R%	c #8CC267",
"S%	c #81B769",
"T%	c #7FB85F",
"U%	c #8BC06E",
"V%	c #73B249",
"W%	c #7BBB53",
"X%	c #79B44E",
"Y%	c #7BB945",
"Z%	c #7E8F58",
"`%	c #7A3E4B",
" &	c #624874",
".&	c #7D6097",
"+&	c #8467A4",
"@&	c #826AAA",
"#&	c #8770B0",
"$&	c #7964A2",
"%&	c #574078",
"&&	c #40122B",
"*&	c #684638",
"=&	c #7EA769",
"-&	c #79B362",
";&	c #79AE5E",
">&	c #7FB26C",
",&	c #88BF67",
"'&	c #82B05F",
")&	c #7AB852",
"!&	c #7BBA50",
"~&	c #7BBE55",
"{&	c #78AF53",
"]&	c #7AB458",
"^&	c #85B76C",
"/&	c #84BA66",
"(&	c #84BD62",
"_&	c #7EB35A",
":&	c #7BB257",
"<&	c #7BB359",
"[&	c #78AE58",
"}&	c #7AB356",
"|&	c #7ABC48",
"1&	c #76AE4C",
"2&	c #8A5B50",
"3&	c #743744",
"4&	c #624774",
"5&	c #7D6098",
"6&	c #8567A5",
"7&	c #836BAB",
"8&	c #8972B2",
"9&	c #7F6AAB",
"0&	c #5F4A84",
"a&	c #3C1D3F",
"b&	c #623330",
"c&	c #80A16D",
"d&	c #78B162",
"e&	c #77B35D",
"f&	c #83B56D",
"g&	c #87BD64",
"h&	c #86B767",
"i&	c #7EB961",
"j&	c #84B969",
"k&	c #81B860",
"l&	c #72AB51",
"m&	c #77A862",
"n&	c #7CB55E",
"o&	c #87B766",
"p&	c #82B961",
"q&	c #7BB154",
"r&	c #7CB856",
"s&	c #7AB35F",
"t&	c #77B851",
"u&	c #75BB43",
"v&	c #7AB850",
"w&	c #918658",
"x&	c #833C43",
"y&	c #6D313D",
"z&	c #614572",
"A&	c #7B5F97",
"B&	c #8368A4",
"C&	c #846CAC",
"D&	c #8973B3",
"E&	c #856FB0",
"F&	c #69548F",
"G&	c #3C2852",
"H&	c #501F24",
"I&	c #788D61",
"J&	c #7AB465",
"K&	c #7AB15A",
"L&	c #86BB67",
"M&	c #7FB961",
"N&	c #7EBE5A",
"O&	c #89C368",
"P&	c #8EBF7A",
"Q&	c #7FB863",
"R&	c #7CB667",
"S&	c #7EB564",
"T&	c #85BB6A",
"U&	c #7FB15E",
"V&	c #7EB563",
"W&	c #80B562",
"X&	c #85BA68",
"Y&	c #70A659",
"Z&	c #76B354",
"`&	c #7CBF4D",
" *	c #82A653",
".*	c #955750",
"+*	c #7C343C",
"@*	c #682C38",
"#*	c #604671",
"$*	c #795E95",
"%*	c #866DAB",
"&*	c #8974B3",
"**	c #705B98",
"=*	c #433162",
"-*	c #3D0B1D",
";*	c #686156",
">*	c #7FB166",
",*	c #83C05C",
"'*	c #7DBD57",
")*	c #7ABA59",
"!*	c #8BC66C",
"~*	c #80B963",
"{*	c #80BC67",
"]*	c #86BF64",
"^*	c #87BF62",
"/*	c #87B570",
"(*	c #8DBE79",
"_*	c #8EBC6E",
":*	c #84C15A",
"<*	c #77B158",
"[*	c #907C5A",
"}*	c #923D46",
"|*	c #783039",
"1*	c #642935",
"2*	c #5F4571",
"3*	c #775D93",
"4*	c #846AA9",
"5*	c #8971B1",
"6*	c #8A74B4",
"7*	c #7762A0",
"8*	c #4C386E",
"9*	c #2E1232",
"0*	c #603D3E",
"a*	c #6B9A58",
"b*	c #83BB67",
"c*	c #85BE63",
"d*	c #7EC34C",
"e*	c #80BC5E",
"f*	c #8EC06E",
"g*	c #92C672",
"h*	c #8DC16D",
"i*	c #8CC072",
"j*	c #89BF62",
"k*	c #89C16E",
"l*	c #78B460",
"m*	c #84BF6C",
"n*	c #77AF5C",
"o*	c #87B860",
"p*	c #87B967",
"q*	c #83BE60",
"r*	c #85A662",
"s*	c #9C4B52",
"t*	c #8A3841",
"u*	c #762F37",
"v*	c #5E4470",
"w*	c #765C92",
"x*	c #8465A2",
"y*	c #8568A8",
"z*	c #876EAE",
"A*	c #7A64A3",
"B*	c #533E76",
"C*	c #2A1940",
"D*	c #490F18",
"E*	c #6A795C",
"F*	c #84B772",
"G*	c #8CC26D",
"H*	c #86C35D",
"I*	c #8BC36F",
"J*	c #8BBE77",
"K*	c #92C876",
"L*	c #94C87E",
"M*	c #91C573",
"N*	c #8FC76B",
"O*	c #83BF5F",
"P*	c #7BB664",
"Q*	c #7EBC69",
"R*	c #6FA559",
"S*	c #77AD59",
"T*	c #7EB561",
"U*	c #7EB465",
"V*	c #978660",
"W*	c #99404A",
"X*	c #883841",
"Y*	c #763038",
"Z*	c #642A36",
"`*	c #5F4473",
" =	c #775B91",
".=	c #8565A2",
"+=	c #896BAC",
"@=	c #8A71B2",
"#=	c #7D66A5",
"$=	c #58437D",
"%=	c #2F204C",
"&=	c #290617",
"*=	c #5F4F46",
"==	c #78A565",
"-=	c #8ABF6F",
";=	c #82BD5B",
">=	c #7EBA61",
",=	c #82BA76",
"'=	c #81B76F",
")=	c #86C46E",
"!=	c #82C35B",
"~=	c #7FC251",
"{=	c #84C45A",
"]=	c #80B969",
"^=	c #72AD5C",
"/=	c #75AF5C",
"(=	c #7AB05F",
"_=	c #87AF6B",
":=	c #9C6858",
"<=	c #943C46",
"[=	c #773139",
"}=	c #672F41",
"|=	c #634878",
"1=	c #775C91",
"2=	c #81639E",
"3=	c #8165A1",
"4=	c #866AA9",
"5=	c #8A71B1",
"6=	c #806AAA",
"7=	c #604A86",
"8=	c #392858",
"9=	c #1F0C26",
"0=	c #49262A",
"a=	c #6E8160",
"b=	c #83BB5C",
"c=	c #82BB63",
"d=	c #88BE6B",
"e=	c #85BC6D",
"f=	c #81BE69",
"g=	c #74B354",
"h=	c #78BA4A",
"i=	c #7CBE51",
"j=	c #70AE5A",
"k=	c #75AF5D",
"l=	c #72AA59",
"m=	c #7AB056",
"n=	c #88A860",
"o=	c #9A4F50",
"p=	c #8F3942",
"q=	c #81343D",
"r=	c #763138",
"s=	c #683349",
"t=	c #5E4371",
"u=	c #6E5286",
"v=	c #7F629D",
"w=	c #8568A7",
"x=	c #8064A2",
"y=	c #765F9A",
"z=	c #6A558D",
"A=	c #544177",
"B=	c #382857",
"C=	c #221233",
"D=	c #35040A",
"E=	c #665051",
"F=	c #679254",
"G=	c #81BA62",
"H=	c #80C155",
"I=	c #75B457",
"J=	c #80B764",
"K=	c #7DB864",
"L=	c #74AD5C",
"M=	c #7BB051",
"N=	c #72B048",
"O=	c #73AF65",
"P=	c #7AB660",
"Q=	c #7FB56E",
"R=	c #81B06C",
"S=	c #8BBE7C",
"T=	c #84A65C",
"U=	c #835945",
"V=	c #785B3E",
"W=	c #6A5939",
"X=	c #635A36",
"Y=	c #5D5B4E",
"Z=	c #645373",
"`=	c #785A90",
" -	c #7F629B",
".-	c #7E639B",
"+-	c #8267A3",
"@-	c #8069A5",
"#-	c #76609D",
"$-	c #5D4881",
"%-	c #443860",
"&-	c #363F44",
"*-	c #404827",
"=-	c #5D3B28",
"--	c #666F5D",
";-	c #77AD5E",
">-	c #79B951",
",-	c #7AB85F",
"'-	c #83B85E",
")-	c #7CB269",
"!-	c #77AA5D",
"~-	c #76AA66",
"{-	c #88BA6D",
"]-	c #7FB563",
"^-	c #8ABD77",
"/-	c #8AB674",
"(-	c #89C06E",
"_-	c #85BB64",
":-	c #83AC62",
"<-	c #80B05E",
"[-	c #83B55C",
"}-	c #80B459",
"|-	c #83B564",
"1-	c #7AA55F",
"2-	c #76946A",
"3-	c #75807D",
"4-	c #757088",
"5-	c #746E8A",
"6-	c #6E6B85",
"7-	c #6A7878",
"8-	c #617E66",
"9-	c #6B8C63",
"0-	c #74A25F",
"a-	c #74A664",
"b-	c #78A15E",
"c-	c #779D60",
"d-	c #93B08A",
"e-	c #86B36F",
"f-	c #82BC5D",
"g-	c #8DC46E",
"h-	c #84BB63",
"i-	c #82B566",
"j-	c #80B069",
"k-	c #88B975",
"l-	c #85BD5C",
"m-	c #8BBD64",
"n-	c #93BD80",
"o-	c #8CB872",
"p-	c #7EBB5C",
"q-	c #87BE66",
"r-	c #93BC79",
"s-	c #8DB876",
"t-	c #7EB25F",
"u-	c #83B76D",
"v-	c #8ABE6B",
"w-	c #89BE64",
"x-	c #7FB55C",
"y-	c #89C063",
"z-	c #7CB759",
"A-	c #79B25E",
"B-	c #7AAF68",
"C-	c #70A762",
"D-	c #7CB072",
"E-	c #83B079",
"F-	c #7CAA65",
"G-	c #7EB76E",
"H-	c #82B166",
"I-	c #83B66F",
"J-	c #7FB963",
"K-	c #80B160",
"L-	c #8ABA68",
"M-	c #8CC465",
"N-	c #81BD61",
"O-	c #81B56C",
"P-	c #8AB976",
"Q-	c #89BC6E",
"  . + @ # $ % & * = - ; > , ' ) ! ~ { ] ^ / ( _ : < [ } | 1 2 3 ",
"4 5 6 7 8 9 0 a b c d e f g h i j k l m n o p q r s t u v w x y ",
"z A B C D E F G H I J K L M N O P Q R S T U V W X Y Z `  ...+.@.",
"#.$.%.&.*.=.-.;.>.,.'.).!.~.{.].^./.(._.:.<.[.}.|.1.2.3.4.5.6.7.",
"8.9.0.a.b.c.d.e.f.g.h.i.j.k.l.m.n.o.p.q.r.s.t.u.v.w.x.y.z.A.B.C.",
"D.E.F.G.H.I.J.K.L.M.N.O.P.Q.R.S.T.U.V.W.X.Y.Z.`. +.+++@+#+$+%+&+",
"*+=+-+;+>+,+'+)+!+~+{+]+^+/+(+_+:+<+[+}+|+1+2+3+4+5+6+7+8+9+0+a+",
"b+c+d+e+f+g+h+i+j+k+l+m+n+o+p+q+r+s+t+u+v+w+x+y+z+A+B+C+D+E+F+G+",
"H+I+J+K+L+M+N+O+P+Q+R+S+T+U+V+s+W+X+Y+Z+`+ @.@+@@@#@$@%@&@*@=@-@",
";@>@,@'@)@!@~@{@]@^@/@(@_@:@<@[@}@|@1@2@3@4@5@6@7@8@9@0@a@b@c@d@",
"e@f@g@h@i@j@k@l@m@n@o@p@q@r@s@t@u@v@w@x@y@z@A@B@C@D@E@F@G@H@I@J@",
"K@L@1 M@N@O@P@Q@R@S@T@U@V@W@X@Y@Z@`@ #.#+#@###$#%#&#*#=#-#;#>#,#",
"'#)#!#~#{#]#^#/#(#_#:#<#[#}#|#1#2#3#4#5#6#7#8#9#0#a#b#c#d#e#f#g#",
"h#i#j#k#l#m#n#o#p#q#r#s#t#u#v#w#x#y#z#A#B#C#D#E#F#G#H#I#J#K#L#M#",
"N#O#P#Q#R#S#T#U#V#W#X#Y#Z#`# $.$+$@$#$$$%$&$*$=$-$;$>$,$'$)$!$~$",
"{$]$^$/$($_$:$<$[$}$|$1$2$3$4$5$6$7$8$9$0$a$b$c$d$e$f$g$h$i$j$k$",
"l$m$n$o$p$q$r$s$t$u$v$w$x$y$z$A$B$C$D$E$F$G$H$I$J$K$L$M$N$O$P$Q$",
"R$S$d.T$U$V$W$X$Y$Z$`$ %.%+%@%#%$%%%&%*%=%-%;%7.>%,%'%)%!%~%{%]%",
"^%/%(%_%:%<%[%k$}%|%1%2%3%4%5%6%7%8%9%0%a%b%c%d%e%f%g%h%i%j%k%l%",
"m%n%o%p%q%r%s%t%u%v%w%x%y%z%A%B%C%D%E%F%G%H%I%J%K%^$L%M%N%O%P%Q%",
"R%S%T%U%V%n%W%X%Y%Z%`% &.&+&@&#&$&%&&&*&=&-&;&>&,&'&)&!&~&{&]&^&",
"/&(&_&:&<&[&}&|&1&2&3&4&5&6&7&8&9&0&a&b&c&d&e&f&g&h&i&j&k&l&m&n&",
"o&p&q&r&s&t&u&v&w&x&y&z&A&B&C&D&E&F&G&H&I&J&K&L&M&N&O&P&Q&R&S&T&",
"U&V&W&X&Y&Z&`& *.*+*@*#*$*B&%*D&&***=*-*;*>*j&,*'*)*!*,&~*{*]*^*",
"+./*(*_*L&:*<*[*}*|*1*2*3*+&4*5*6*7*8*9*0*a*b*c*d*e*f*g*h*i*j*k*",
"l*m*n*o*p*q*r*s*t*u*1*v*w*x*y*z*8&A*B*C*D*E*F*G*H*I*J*K*L*M*N*O*",
"P*Q*R*S*T*U*V*W*X*Y*Z*`* =.=+=@=8&#=$=%=&=*===-=;=>=,='=)=!=~={=",
"]=^=/=(=,%_=:=<=X*[=}=|=1=2=3=4=5=6=7=8=9=0=a=b=c=d=>+e=f=g=h=i=",
"j=k=l=G@m=n=o=p=q=r=s=t=u=v=w=x=y=z=A=B=C=D=E=F=G=H=I=J=K=L=M=N=",
"O=P=Q=R=S=T=U=V=W=X=Y=Z=`= -.-+-@-#-$-%-&-*-=---;->-,-'-,&)-!-~-",
"{-]-^-/-(-_-:-<-[-}-|-1-2-3-4-5-6-7-8-9-0-a-b-c-d-e-f-g-h-i-j-k-",
"l-m-n-o-p-q-r-s-t-u-v-w-x-y-z-A-B-C-D-E-F-G-H-I-J-K-L-M-N-O-P-Q-"};
