/* XPM */
static char * 48_100_escudos_grass_xpm[] = {
"48 48 255 2",
"  	c #000000",
". 	c #362E2D",
"+ 	c #4B2A34",
"@ 	c #442D34",
"# 	c #253855",
"$ 	c #463040",
"% 	c #2E3A34",
"& 	c #303848",
"* 	c #334970",
"= 	c #364A66",
"- 	c #2F5227",
"; 	c #3C4A5B",
"> 	c #63404C",
", 	c #504847",
"' 	c #5D444D",
") 	c #5C4959",
"! 	c #2B6119",
"~ 	c #385D1F",
"{ 	c #485921",
"] 	c #3F577D",
"^ 	c #425775",
"/ 	c #485769",
"( 	c #3E6839",
"_ 	c #3E6E2B",
": 	c #4F6585",
"< 	c #536578",
"[ 	c #5A666C",
"} 	c #5A6862",
"| 	c #805C70",
"1 	c #825C69",
"2 	c #447526",
"3 	c #3E781B",
"4 	c #776171",
"5 	c #537233",
"6 	c #4C761E",
"7 	c #586F46",
"8 	c #7C616A",
"9 	c #696777",
"0 	c #6F6868",
"a 	c #487935",
"b 	c #447E12",
"c 	c #4F7A49",
"d 	c #5C7392",
"e 	c #607385",
"f 	c #67737A",
"g 	c #4E862A",
"h 	c #518535",
"i 	c #50853C",
"j 	c #508544",
"k 	c #5C8345",
"l 	c #638721",
"m 	c #628739",
"n 	c #5E8931",
"o 	c #618740",
"p 	c #518F22",
"q 	c #5B8C23",
"r 	c #529213",
"s 	c #75834B",
"t 	c #6881A3",
"u 	c #5A8C57",
"v 	c #648959",
"w 	c #539607",
"x 	c #6C829B",
"y 	c #589135",
"z 	c #5A903F",
"A 	c #70838E",
"B 	c #7C808A",
"C 	c #5B9046",
"D 	c #5A904E",
"E 	c #857F7A",
"F 	c #658D4E",
"G 	c #9B7B89",
"H 	c #768C60",
"I 	c #96828D",
"J 	c #9C8284",
"K 	c #5E9F23",
"L 	c #5F9E2D",
"M 	c #5F9E39",
"N 	c #699B39",
"O 	c #679C47",
"P 	c #629D51",
"Q 	c #6C9A50",
"R 	c #729948",
"S 	c #5F9F47",
"T 	c #619D59",
"U 	c #6B9A59",
"V 	c #7A9748",
"W 	c #79975B",
"X 	c #829559",
"Y 	c #849184",
"Z 	c #6F9A67",
"` 	c #649E66",
" .	c #7C92AD",
"..	c #62A81E",
"+.	c #80949F",
"@.	c #8D919A",
"#.	c #829594",
"$.	c #96908B",
"%.	c #68AA38",
"&.	c #67AB30",
"*.	c #66AB44",
"=.	c #6DA944",
"-.	c #75A744",
";.	c #69AB52",
">.	c #74A853",
",.	c #6CAA5C",
"'.	c #6CAA64",
").	c #79A75C",
"!.	c #77A765",
"~.	c #90A265",
"{.	c #73AE75",
"].	c #6DB72E",
"^.	c #80AB78",
"/.	c #8BA3C1",
"(.	c #6FB73C",
"_.	c #AF9BA6",
":.	c #70B744",
"<.	c #8EA4B8",
"[.	c #71B74B",
"}.	c #7AB44F",
"|.	c #9FA1A8",
"1.	c #92A5AA",
"2.	c #70B752",
"3.	c #96A698",
"4.	c #A4A294",
"5.	c #A6A28D",
"6.	c #AF9E9C",
"7.	c #A2A29D",
"8.	c #70B85D",
"9.	c #7AB65A",
"0.	c #73B769",
"a.	c #7AB661",
"b.	c #7BB56B",
"c.	c #87B35F",
"d.	c #85B367",
"e.	c #84B370",
"f.	c #BD9DAA",
"g.	c #73C027",
"h.	c #73C21C",
"i.	c #85BB43",
"j.	c #73C339",
"k.	c #75C60F",
"l.	c #9CB284",
"m.	c #7DC23B",
"n.	c #7AC24E",
"o.	c #7AC347",
"p.	c #7BC255",
"q.	c #7BC25C",
"r.	c #A4B475",
"s.	c #88C04F",
"t.	c #86C05B",
"u.	c #7AC367",
"v.	c #7DC374",
"w.	c #82C086",
"x.	c #86C266",
"y.	c #86C26C",
"z.	c #9DB4C9",
"A.	c #87C276",
"B.	c #92BD8A",
"C.	c #A4B4B4",
"D.	c #90BF7C",
"E.	c #C6AC97",
"F.	c #B6B19C",
"G.	c #AFB1B8",
"H.	c #C0ACB6",
"I.	c #94C06B",
"J.	c #92C073",
"K.	c #C4AD9E",
"L.	c #BDAEAC",
"M.	c #A2B5BD",
"N.	c #B3B2A3",
"O.	c #AEB3AD",
"P.	c #A6B6A7",
"Q.	c #B6B1AD",
"R.	c #82CC35",
"S.	c #82CB43",
"T.	c #84CD26",
"U.	c #86CC50",
"V.	c #85CB62",
"W.	c #86CC58",
"X.	c #8DD112",
"Y.	c #88CC7A",
"Z.	c #8BCC71",
"`.	c #92CB65",
" +	c #92CE47",
".+	c #98CE5D",
"++	c #96CC7D",
"@+	c #99CF56",
"#+	c #99CD71",
"$+	c #98CD77",
"%+	c #94CD86",
"&+	c #9ED133",
"*+	c #91CD94",
"=+	c #A0CB88",
"-+	c #C4BCBD",
";+	c #A3D04E",
">+	c #A2CF6C",
",+	c #ADC4DD",
"'+	c #A9CE7A",
")+	c #DABAB3",
"!+	c #B1C5D3",
"~+	c #B8C4C8",
"{+	c #BEC3BF",
"]+	c #A8CF83",
"^+	c #A3CF99",
"/+	c #CFBFB7",
"(+	c #ACC9C7",
"_+	c #C1C4B7",
":+	c #9ED56F",
"<+	c #ADD16E",
"[+	c #CAC2B7",
"}+	c #BDCA8D",
"|+	c #B1CF8F",
"1+	c #CEC4A7",
"2+	c #B7CE8E",
"3+	c #BCCABA",
"4+	c #B3D099",
"5+	c #CDC5C6",
"6+	c #B2D1A3",
"7+	c #ABD592",
"8+	c #D8C3CA",
"9+	c #ACD6B2",
"0+	c #A9DC83",
"a+	c #B8D4B6",
"b+	c #A9DD8D",
"c+	c #B1E27C",
"d+	c #EBCBC5",
"e+	c #C2D6E5",
"f+	c #DDD2B6",
"g+	c #D9D1D1",
"h+	c #E0D0C7",
"i+	c #BAE18B",
"j+	c #DAD2C8",
"k+	c #C9D6DA",
"l+	c #D2D5C8",
"m+	c #DBD3BF",
"n+	c #D0D5D1",
"o+	c #AFE69E",
"p+	c #BBE39D",
"q+	c #C0E1B2",
"r+	c #B9E5AE",
"s+	c #CDE5CA",
"t+	c #F4DCD5",
"u+	c #E4E1D6",
"v+	c #DFE2E0",
"w+	c #ECE1C6",
"x+	c #EBE2CE",
"y+	c #F0E0D7",
"z+	c #EEE0E2",
"A+	c #D8E7F0",
"B+	c #D5E9E6",
"C+	c #ECEAE0",
"D+	c #E8EBE8",
"E+	c #EFF2EF",
"F+	c #F3F2E9",
"x.s.x.D.D.J.d.).y.J.I.D.d.I.J.y.9.J.D.c.`.D.Q a.).d.a.!.Z y.!.=+,.a.d.!.D.++$+D.t.n.t.o.a.b.q.n.",
"m..+x.x.c.d.U e.`.x.d.I.I.t.c.).y.=+J.d.b.e.).S d.B.=+x.a.A.e.D.U [.a.d.b.t.e.d.e.=.s.q.c.D.,.9.",
"j..+p.}.e.=+B.d.t.p.).D.}.t.b.>.[.a.'.z d.9.).).!.,.!.'.a.a.%+y.b.=.a.d.I.=.2.D.J.).[.s.].).D.y.",
"}.W.m.9.d.D.^.a.x.I.J.=+}.-.d.).Q >.;.b.}.=.[.S U ^.,.a.a.x.++b.b.U D.e.-.=.>.[.y.J.).9.}.9.!.y.",
"n.s.m.,.Z.B.D.e.a.p.=+c.x.d.D.e.d.J.b.k >.:.t.a.!.^.d.d.b.x.a.).a.D.e.!.O =.d.).[.>.I.I.c.>.>.U ",
"q.}.o.P D.e.).>.d.a.c.I.I.e.e.y.d.e.).b.9.j.t.=+D.B.F >.e.9.J.a.'.b.D.,.b.a.9.s.=.=.M s.c.x.x.!.",
"s.q.(.d.y.x.e.9.D.J.e.=+a.x.d.D.=+a.9.e.Z.(.J.q.e.^.d.J.9.x.9.J.>.b.>.!.!.!.9.J.s.:.:.t.}.}.=.s.",
"d.t.>.9.!.a.y.D.D.a.=+Z.a.>.Q >.=+J.2.a.t.[.a.p.D.e.a.9.}.}.}.`.!.d.e.>.).,.:.:.#+a.).Q R i.;.}.",
"a.d.=.).U a.x.D.).p.D.).x.t.P ;.x.9.q.y.>.,.9.p.:.}.p.>.x.a.d.a.p.9.[.,.a.9.t.u.!.y.Q ^.!.).p.D.",
"=+9.;.e.U [.A.a.}.:.e.y.[.9.!.a.b.y.:.,.).[.p.}.:.:.p.>.x.q.9.%.x.9.d.a.P Q e.y.b.a.b.!.d.a.Q d.",
"D.).a.>.o.x.;.[.a.9.a.a.S a.e.,.9.9.9.9.x.q.(.(.o.m.:.}.:.[.&.d.D.J.D.U b.w.D.D.e.q.,.e.^.).e.).",
"e.d.a.=.n.9.9.9.x.a.;.,.a.9.O 9.2.9.d.!.x.9.o.(.=.p.t.y.j.:.;.).e.>.U ;.a.=+e.>.J.J.D.e.D.C e.>.",
"5+5+5+5+5+5+-+-+-+-+-+5+-+-+-+{+{+{+{+_+_+_+_+_+_+_+_+_+_+_+_+_+_+_+N.Q._+Q.Q._+_+_+_+_+[+-+[+-+",
"5+5+G.4 7._.7.O.7.Q.I 7.$.I 7.7.B 7.|.7.$.|.C.C.O.O.C.C.P.P.O.O.P.f < f N.O.O.N.O.O.O.O.G.G.5+H.",
"5+-+M.4 E E E I @.B E E B B B @.B E E E E @.1.1.1.1.C.1.1.|.|.O.B  .M.<.C.G.G.C.M.1.@.@.@.@.5+H.",
"5+-+G.Q.Q.O.O.1.|.C.C.C.C.G.{+Q.N.Q.6.-+-+G.G.C.G.O.C.G.C.G.G.G.: <.<.<.C.k+k+!+k+k+~+G.|.C.5+-+",
"5+-+-+j+[+_+n+~+~+!+k+~+n+n+5+$.$.6.j+l+{+{+5+{+{+G.{+G.G.{+{+|.x M.M.x x k+!+!+(+<.!+M.+.|.5+-+",
"[+5+g+5+5+5+{+u+v+D+D+D+D+v+-+6.6.J 5+5+{+5+5+j+l+5+{+{+G.G.{+@.1.M.<.x <.~+C.~+1.~+1.<.1.@.[+-+",
"5+5+l+-+j+5+j+v+D+D+D+E+F+C+-+6.G 6.5+5+5+5+j+j+j+5+5+[+-+O.1.d !+!+<.x <.C.~+~+1.k+1.<.C.|.-+-+",
"5+5+5+n+u+l+u+C+D+D+F+F+F+D+C+L.6.[+j+5+l+j+j+m+j+h+j+[+C.<.<.d M.(+<.x x e ~+~+1.M.<.<.M.B 5+[+",
"5+5+5+g+g+5+v+D+D+F+F+F+F+F+D+v+j+j+G.j+-+-+-+j+h+h+m+|.M. .x x <.<.<.d e : 1.~+~+M.k+!+<.|.[+-+",
"-+5+5+g+j+5+D+D+F+F+D+D+D+F+C+C+j+j+O.l+O.5+G.m+j+m+[+|.1.d x x  .M. .: e x x k+k+!+k+k+k+G.[+-+",
"5+5+l+u+l+v+D+D+F+F+F+E+D+F+D+D+{+{+j+5+[+m+-+j+u+m+Q.C.1.d x x  . .x d e +.e M.G.~+!+!+!+G.[+[+",
"-+5+j+n+g+D+D+D+F+D+D+F+F+F+D+v+G.5+O.-+-+O._+O.Q.[+|. .x d x e x  .: d e d d A C.M.~+!+k+C.5+-+",
"-+5+5+G.5+F+C+v+C+C+v+v+u+u+v+C+5+5+5+_+[+-+{+_+5+[++.+.+.1.1.<.<.M.<.d : : d x d x <.!+k+C.5+-+",
"-+5+[+O.-+C+g+u+u+u+g+u+C+v+n+D+g+l+5+-+~+7.5+j+h+Q.1.<.<.<.+.+.x  .d : : 1.~+<.d x 1.~+~+C.[+-+",
"-+5+5+Q.-+-+D+F+F+D+D+D+F+F+D+D+l+l+j+j+j+j+j+m+j+[+@.A e e : :  .x e : x ~+~+d x d : 5+G.C.5+[+",
"-+5+5+Q.G.5+D+F+F+D+D+F+F+u+C+n+{+[+5+[+L.[+[+[+L.j+@.d d x : d  .d e : M.~+M.+. .+.M.G.~+G.5+-+",
"-+5+8+5+O.g+C+F+D+F+D+C+F+u+u+l+l+l+m+[+[+j+5+/+f+/+A d x +.+.<.1.+.e +.k+~+1.x G.G.C.C.{+G.-+-+",
"-+5+/+j+H.-+5+g+u+C+5+-+l+g+g+l+n+g+j+j+/+/+/+[+/+[+e x +.1.<.M.M.(+!+M.(+M.x d C.C.G.~+Q.-+[+-+",
"-+-+-+-+L.Q.5+6.L.j+l+-+{+l+n+n+v+j+j+m+m+m+/+/+5+[+A x  .<.<.<.<.M.M.M.M.<.: : x @.C.3.Q.-+5+-+",
"-+L.H._.5+L.L.Q.6.6.G.-+5+O.5+n+l+l+l+m+[+[+[+_+m+[+e d d +.1.+. .1.1.+.<.<.: : G.O.|.Y 7.-+[+5+",
"-+L.L.6.g+6._.H.6._.O._.O.Q.Q.O.5+_+_+Q.Q.N.7.4.7.Q.e e e e < < e e +.1.#.e f 9 @.B B @.-+[+5+[+",
"-+H._._.L.6.-+6.6.H.-+_.-+Q.O.O.Q.{+G.{+Q._+_+_+Q.P.< e < < e < < / f #.@.B B B B B B @.-+[+5+[+",
"L.-+-+5+H.5+-+-+-+-+-+-+-+-+{+{+{+{+{+_+Q.Q._+_+_+Q.P.P.O.O.O.O.N.O.O.Q.Q.N.Q.N.N.Q.Q.-+[+[+[+[+",
"Q.5+5+5+5+5+-+-+5+-+-+-+-+-+_+Q._+Q.Q.Q.Q.Q.Q.Q.Q.O.O.Q.O._+_+_+_+Q.Q.Q.Q.L.L._+Q.L.L.L.L.L.L.L.",
"}.e.e.B.y.J.a.p.x.9.a.9.9.S.t.p.}.a.p.9.>.a.a.[.=.*.>.P 9.y.}.[.2.x.e.t.m.[.9.I.J.x.x.a.J.s.t.A.",
"*.x.A.b.}.I.J.V.p.p.9.t.d.W.s.9.s.9.t.}.9.c.).=.p.a.2.).e.d.b.[.=.9.$+c.V.t.x.e.y.++D.7+y.I.x.++",
"a.b.Z.).}.I.d.}.x.a.}.a.J.t.:.t.`.p.9.9.}.>.!.8.}.O ,.,.e.a.e.Q 9.b.=+x.n.`.J.D.D.Z.D.++I.#+p.[.",
").a.y.Q Q >.a.e.a.y.9.a.a.9.s.I.`.x.u.x.p.d.a.P ;.*.;.S ,.a.a.d.;.d.a.D.t.t.a.A.b.b.Z.2.`.t.(.W.",
"y.b.A.b.,.x.}.y.t.y.d.9.[.2.s.t.s.p.x.q.9.9.O !.;.S [.*.S ,.b.O y.d.a.t.t.9.b.A.b.A.a.t.:.o.x.t.",
"d.,.O ;.9.).[.D.e.t.9.>.t.t.[.U.t.t.a.;.%.[.O n.[.P '.Q 2.U ).a.D.y.b.t.a.J.y.a.D.x.y.y.=.:.m.n.",
",.b.!.*.b.).[.9.t.d.y.e.x.x.p.S.J.I.}.=.;.}.>.:.>.>.*.2.;.b.v Q J.9.a.%.a.a.n.;.9.y.9.a.>.t.(.:.",
";.P p.!.e.d.).x.J.!.d.`.t.`.t.t.o.=+}.9.>.M n.-.>.*.S !.^.U !.9.J.a.}.9.a.d.n.a.c.d.a.d.9.O d.O ",
"b.!.9.e.!.e.B.y.p.).y.x.a.n.t.q.t.s.t.s.>.2.2.d.}.%.a.e.^.!.>.x.J.e.;.}.>.x.:.9.b.s.I.A.!.).U e.",
"J.e.9.D.D.e.y.y.x.d.d.9.x.`.t.t.x.9.t.p.t.}.9.[.;.8.x.,.!.).d.a.e.d.x.=.e.Q 9.9.`.x.a.t.a.e.}.D.",
"t.x.J.D.D.A.d.q.9.J.`.D.9.[.}.x.I.x.t.S.t.c.}.S ,.b.;.y.^.^.c.d.0.e.>.[.9.U y.}.t.++b.b.b.!.(.J.",
"t.c.t.B.D.d.}.2.y.D.D.e.).x.D.I.y.x.a.}.I.9.}.A.e.!.U {.D.e.).y.b.d.e.D.x.9.).d.#+s.p.x.e.B.}.D."};
