/* XPM */
static char * 48_buzz_right_grass_xpm[] = {
"48 48 255 2",
"  	c #000000",
". 	c #140B1E",
"+ 	c #270F32",
"@ 	c #290E41",
"# 	c #281219",
"$ 	c #2B1027",
"% 	c #331206",
"& 	c #1E1B18",
"* 	c #4A2217",
"= 	c #48205B",
"- 	c #4A224C",
"; 	c #442634",
"> 	c #45253E",
", 	c #322D31",
"' 	c #342E27",
") 	c #2E3040",
"! 	c #37311C",
"~ 	c #223A1A",
"{ 	c #622815",
"] 	c #7B2317",
"^ 	c #4F4018",
"/ 	c #4C423C",
"( 	c #46434C",
"_ 	c #643968",
": 	c #683875",
"< 	c #5F3D5B",
"[ 	c #56452F",
"} 	c #614345",
"| 	c #6A4332",
"1 	c #39542F",
"2 	c #2C5A1A",
"3 	c #484E42",
"4 	c #385066",
"5 	c #3F5424",
"6 	c #4A5030",
"7 	c #5A504A",
"8 	c #53525D",
"9 	c #BF412A",
"0 	c #39721E",
"a 	c #5F616D",
"b 	c #6B6057",
"c 	c #82558A",
"d 	c #3D7233",
"e 	c #437129",
"f 	c #3E7512",
"g 	c #477121",
"h 	c #486F36",
"i 	c #566D37",
"j 	c #7B5E79",
"k 	c #546F4A",
"l 	c #63695C",
"m 	c #646B4A",
"n 	c #88604E",
"o 	c #83625E",
"p 	c #7C683E",
"q 	c #7A6752",
"r 	c #5D6C85",
"s 	c #4C774A",
"t 	c #44821C",
"u 	c #9A6549",
"v 	c #4A822D",
"w 	c #70707A",
"x 	c #4C8138",
"y 	c #7A6F65",
"z 	c #4C8141",
"A 	c #55802F",
"B 	c #567F47",
"C 	c #E5543C",
"D 	c #657F47",
"E 	c #608426",
"F 	c #68803C",
"G 	c #568826",
"H 	c #4D8C18",
"I 	c #5D843D",
"J 	c #5D8544",
"K 	c #508F0F",
"L 	c #508E28",
"M 	c #548D38",
"N 	c #578C42",
"O 	c #568C4C",
"P 	c #5F8B39",
"Q 	c #5F8A51",
"R 	c #618A5E",
"S 	c #878072",
"T 	c #84817C",
"U 	c #68879F",
"V 	c #927E71",
"W 	c #E36856",
"X 	c #B17765",
"Y 	c #927E97",
"Z 	c #5B9B1F",
"` 	c #5D9A29",
" .	c #83868C",
"..	c #7E8B6C",
"+.	c #619936",
"@.	c #589C35",
"#.	c #A97F69",
"$.	c #649844",
"%.	c #6E9544",
"&.	c #6C954C",
"*.	c #5B9B44",
"=.	c #5A9B4E",
"-.	c #64984D",
";.	c #65975B",
">.	c #5D9A56",
",.	c #689753",
"'.	c #73935A",
").	c #5396AF",
"!.	c #968687",
"~.	c #6F9A39",
"{.	c #9F8772",
"].	c #789851",
"^.	c #60A51C",
"/.	c #7B994A",
"(.	c #6E9C6E",
"_.	c #9F8D7F",
":.	c #989081",
"<.	c #66A735",
"[.	c #65A82D",
"}.	c #95918D",
"|.	c #B88A68",
"1.	c #63A841",
"2.	c #6CA642",
"3.	c #63AA50",
"4.	c #6DA84D",
"5.	c #76A552",
"6.	c #6CA854",
"7.	c #6BA85A",
"8.	c #75A55A",
"9.	c #69A863",
"0.	c #74A560",
"a.	c #7CA452",
"b.	c #73A568",
"c.	c #81A267",
"d.	c #D18970",
"e.	c #6BB42C",
"f.	c #6EB439",
"g.	c #6EB441",
"h.	c #6EB449",
"i.	c #6DB450",
"j.	c #79B241",
"k.	c #78B24D",
"l.	c #A6A197",
"m.	c #6ABA5C",
"n.	c #75B56F",
"o.	c #75B75A",
"p.	c #74B761",
"q.	c #73B767",
"r.	c #7BB567",
"s.	c #71BE24",
"t.	c #83B367",
"u.	c #81B371",
"v.	c #80B55F",
"w.	c #72C218",
"x.	c #B5A395",
"y.	c #71C137",
"z.	c #B3A4A4",
"A.	c #A8A7A9",
"B.	c #7ABF39",
"C.	c #70C244",
"D.	c #7FB885",
"E.	c #BDA58E",
"F.	c #78C04C",
"G.	c #7BC045",
"H.	c #79C054",
"I.	c #65BBDF",
"J.	c #79C05B",
"K.	c #A3AF8C",
"L.	c #84BE58",
"M.	c #90B68B",
"N.	c #B1A8BC",
"O.	c #A2ADBE",
"P.	c #D4A37D",
"Q.	c #B5AB95",
"R.	c #97B87C",
"S.	c #75C566",
"T.	c #9CB968",
"U.	c #9BBA71",
"V.	c #7FC373",
"W.	c #7CCB22",
"X.	c #80C46C",
"Y.	c #82C466",
"Z.	c #82C37C",
"`.	c #88C273",
" +	c #80CB34",
".+	c #80CA42",
"++	c #B7B1A6",
"@+	c #8DC36C",
"#+	c #8FC17E",
"$+	c #92C174",
"%+	c #98C16D",
"&+	c #84CA56",
"*+	c #85CB4F",
"=+	c #84CA60",
"-+	c #8DCD2A",
";+	c #8DD112",
">+	c #90CA63",
",+	c #91CD46",
"'+	c #8ACE7C",
")+	c #96CD5C",
"!+	c #8DCE73",
"~+	c #98CE55",
"{+	c #9ED133",
"]+	c #9ACE72",
"^+	c #99CE79",
"/+	c #99CE7F",
"(+	c #A2D04E",
"_+	c #A1CE6B",
":+	c #96CF89",
"<+	c #81CFEC",
"[+	c #A4CD87",
"}+	c #98CF9C",
"|+	c #A2CD90",
"1+	c #9CD36D",
"2+	c #ACCC92",
"3+	c #A9CF7A",
"4+	c #A8CF83",
"5+	c #D8BEA1",
"6+	c #A9CE9F",
"7+	c #ADD16E",
"8+	c #CEC2B4",
"9+	c #EDBC91",
"0+	c #D2C3AB",
"a+	c #ADCCDC",
"b+	c #BACF93",
"c+	c #A3D3CF",
"d+	c #B0D4B2",
"e+	c #BED1A3",
"f+	c #CFC8D0",
"g+	c #B2D892",
"h+	c #B1D89C",
"i+	c #CDCDC2",
"j+	c #ABDD84",
"k+	c #BCD3C0",
"l+	c #BFD4B3",
"m+	c #B7DAAB",
"n+	c #AFE178",
"o+	c #D6D2B9",
"p+	c #E8CFB1",
"q+	c #E0D2B9",
"r+	c #BAE194",
"s+	c #BBE28C",
"t+	c #DFD3C3",
"u+	c #BEE6A7",
"v+	c #FCD3A5",
"w+	c #C3E8BC",
"x+	c #F0E4D2",
"y+	c #FCE3B2",
"z+	c #E7E8DC",
"A+	c #ECE9D3",
"B+	c #EBECCD",
"C+	c #F1E9E8",
"D+	c #E8F4F8",
"E+	c #F8F5DF",
"F+	c #FFFFFF",
"v.&+@+`.#+$+v.v.@+$+t.R.t.$+`.o.o.$+u.t.@+`.4.v.,.Y.r.r.0.X.r.#+8.v.r.0.`./+/+$+L.F.L.F.0.r.p.F.",
".+*+Y.r.t.t.t.`.>+@+8.$+t.Y.t.t.Y./+#+t.r.r.8.4.t.#+/+Y.r.u.u.#+0.k.p.t.`.L.`.r.t.i.G.L.v.u.r.H.",
"G.)+L.k.$+:+M.t.L.H.8.#+v.L.t.8.h.v.R.R.c.5.8.8.t.r.R.b.r.Y./+t.r.4.v.t.T.4.J.`.#+v.i.L.g.t.u.@+",
"v.*+B.a.@+R.M.p.Y.@+R.^+k.5.t.#+r.R.t+K.B Q c.7.(.j : : a b./+r.n.7.t.t.8.4.4.H.@+$+8.H.o.L.0.@+",
"H.k.j.p.`./+u.`.t.=+#+v.@+t./+[+b.Q.l.T y y ..R.: o P.P.|.{.Y.0.r.u.t.n.,.h.L.v.2.v.@+@+8.8.5.0.",
"J.k.G.3.`.`.b.o.t.r.t.@+@+`./+/+;.l T a a l l a _ _.:.#.V b u.u.b.u.t.p.r.0.v.L.2.i.h.L.8.@+r.8.",
"F.H.h.v.u.@+r.v.t.$+t./+r.`.^+^+Q l y a a 8 7 < _.p+z.x.!._.4+#+t.`.6.r.0.7.Y.@+J.H.k.L.k.F.j.k.",
"Y.L.4.v.0.o.Y./+#+!+/+$+r.t./+o+..R !.w 8 ( , b 9+9+P.9+E.|.++A.(.u.:+6.0.0.B.k.@+o.8.5.5.k.6.H.",
"t.v.2.6.0.4.Y.#+8.J.`.v.@+`.o+o+++b...T 8 8 a #.P.d.|.9+#.n :.N.R ;.l.M.r.4.Y.r.r.`.8.c.c.8.o.$+",
":+v.4.r.,.k.#+J.k.k.t.X.6.[+t+:.++$+(.}. .w a V P.9+5+5+{.o y  .b D ..A.M.-.u.r.0.o.u.t.t.v.5.r.",
"#+p.r.8.G.Y.4.i.0.o.r.7.,.e+++y 2+%+u.(.}.}.T b P.v+v+P.{.o 7 7 l D S :.z.|+#+:+'+r.r.u.u.r.u.8.",
"/+0.J.4.H.6.o.o.Y.J.4.i.r.l+{.{.2+$+@+q...l.l.T #.P.9+P.#.b , 8 c.6.c...8+i+#+6.u.$+`.t.#+&.t.0.",
"]+t.r.n.o.`.k.J.H.H.$.o.$+l+V d.t+o+2+t.k a < y 8 n |.#.p 3 , ( ,.8.p...8+l.c.6.0.u.u.2.`.r.0.t.",
"@+t.`.X.o.v.k.o.L.G.4.h./+0+x.++A+E+A+t+S = ( R 3 ) ; ' ' + 6 , D c.R.R.++..'.,.r.0.`.0.t.r.c.r.",
"v.4.u.@+k.o.v.v.k.k.k.k.R.++++++x+z.7 7 l b R 9.;.l k 3 ) 1 s , 3 v.@+0.c.,.b.7.'.0.r.0.0.v.$+`.",
"X.7.c.`.o.L.@+L.k.f.B.v.2+l.W 8+:./ 7 b l 8 ..'.7.B 7 l B B s 8 l t.t.0.b.0.b.;.u.u.r.-.b.b.#+Z.",
"7.u.#+v.J.o.@+&+J.i.F.o.2+_.X ++7 }.++}.}.a 7 ..,.Q k k 3 3 8 a ..c.R.0.u.b.c.#+#+b.t.2.0.$+#+r.",
"6.t.#+0.L.k.L.&+r.p.i.i.R._.l.}.T ++t+++!.l.}.V c.Q B B s h k a 8 D 5.r.#+t.k.@+`.0.8.&.0.6.5.5.",
"$.v.@+k.=+@+@+o.p.i.6.i.c._.x.T T l.l.z.++f+f+A.:.&.i i i 6 6 7 b &.v.#+d+K.M.$+u.@+L.v.t.r.r.k.",
"<.i.>+G.&+`.r.2.$.'.X.t.c.u ++}.y S :.z+k+O. .i+z.Q I i i 6 6 m '.6./+o+t+N.8+K.L.u.`.0.7.r.4.j.",
"r.4.L.Y.L.7.6.g.k.7.o.6.c.q 0+V x.}.Q.A+8+ .A.i+t+m D i i | | D 8.8.++b+2+8+++K.h.4.t.0.8.v.$.k.",
"]+o.Y.L.o.5.J.F.o.v.o.k.k.v.c.b.j ++Q.t+x+t+z+z+x+!.(.b.c.++i+t+l+l+t+[+4+6+z.6+2.1.5.1.-.0.b.6.",
"@+i.v.o.4.8.L.h.h.L.t.v.F.F.o.p...j V z.x+E+F+z+o+:.`.`.6+A+A+t+i+t+B+2+@+#+}.8+8.4.6.8.6.-.@+L.",
"t.v.8.r.4.v.v.k.2.&+t.c...c.J.v.u.c.7 < l.x+8+l.z.:.n.u.e+t+o+8+++Q.0+Q.t.u.l.u.6.6.k.o.u.0.u.5.",
"Y.@+o.6.6.Y.o.6.2.H.c.++u.R c.8.e+l+u.7 7 _.y S :...0.u.++++x.x.}.R.0.R.c.u.t.r.r.5.k.r.u.b.#+#+",
"}+u.0.u.t.k.4.4.k.b.++2+l+++}.r.o+E+o+'.h ' / 7 7 7 Q '.l._.:.c.c.t.r.u.J.Y.u.0.p.4.k.k.p.6.$.t.",
"M.M.,.t.$+t.o.7.5.l.K.o+E+t+8+}.0+t+o+l...Q i h h m D y :.8.5.5.4.@+v.8.v.L.H.6.7.5.v.j.k.,.'.8.",
"@+#+N k.o.v.j.i.u.K.u.x+A+E+t+++o+0+x._.V }.S :.Q.8+0+l.:.;.5.5.c.Y.g.4.4.H.F.i.r.v.o.B.G.-.,.0.",
"|+v.o.$.k.F.g.k.:.o+t.o+x+E+A+8+8+Q.}.{.u.p.k.8.e+t+E+t+8+:.'.8.r.o.k.4.0.8.v.4.8.H.v.f.4.k.0.8.",
"@+r.k.k.L.Y.k.f.:.++K.++t+A+A+Q.0+E.{.:.t.v.v.J.R.t+A+8+t+z.u.p.r.r.6.o.6.8.8.Y.0.r.h.k.v.Y.J.$+",
"@+t.`.o.@+!+g.k.8.'.y R.0+t+t+Q.++E.{.U.7.k.o.o.L.e+8+t+A+++u.r.o.v.0.u.=+v.8.H.k.F.H.H.5.H.o.#+",
"L.@+o.o.L.v.i.k.v.v.v.v.R.e+8+x.x._.:.t.o.0.j.v.t...8+E+E+8+}.`.o.r.r.t.`.$+@+o.i.J.L.k.5.b.8.8.",
"v.@+v.v.5.5.v.o.5.k.F.G.h.L.K.Q.S y '.J.r.r.j.Y.#+R.t+E+E+o+l.Z.6.o.r.u.L.Y.r.v.`.t.@+2.5.0.p.J.",
"v.@+v.k.k.H.v.k.k.y.h.L.F.L.t.R.l.:.:.L.h.k.G.r.r.R.x+E+E+t+l.M.o.5.Y.r.v.J.Y.>+X.:+Y.o.r.8.u.r.",
"t.@+v.k.t.o.8.i.o.F.k.k.L.Y.Y.Y.t.u.v.F.F.F.i.p.r.R.t+E+E+x+++}.u.o.@+J.r.v.H.!+J.@+v.X.Y.J.$+Y.",
"o.8.r.r.t.X.;.6.o.F.H.k.t.>+L.k.h.o.v.h.H.H.i.H.2.t.o+A+E+A+o+:.c.X.v.*+F.i.o.@+Y.@+v.@+r.t.Y.L.",
"8.u.u./+t.$+t.L.Y.6.o.k.5.*+Y.H.o.v.J.o.k.o.v.i.2.v.o+x+E+B+[+;.B v.X.=+G.F.v.$+@+$+Y.`.@+L.Y.X.",
"h.`.`.`.o.@+$+=+H.o.v.v.t.>+G.k.L.v.J.o.o.r.r.4.i.Y.o+x+B+h+t.i i ;.0.'.a.L.@+t.#+!+$+/+`.@+Y.$+",
"p.X.Y.7.k.v.t.o.Y.X.k.J.%+Y.j.H.&+L.o.o.H.6.0.i.4.t.o+l+2+u.k y R.c.a - > c.`.`.$+@+/+^+@+]+H.J.",
"p.J.r.6.4.6.o.u.v.Y.L.Y.r.v.)+@+>+@+X.Y.J.t.7.6.4.o.++$+@+D z.o+z.a > ; > b.r.Z.r.u.!+Y.=+&+F.>+",
"Y.r.`.r.0.v.o.X.J.@+v.v.k.H.F.L.*+o.Y.J.H.v.$.0.4.i.R.t.t.K.x+8+_ ; ; ; l L.r.u.r.u.Y.=+G.*+L.&+",
"X.7.6.8.o.r.k.`.u.L.o.5.L.H.h.*+=+v.r.4.2.k.1.F.k.7.b.u.K.o+++b ; ; ; m r.@+@+r.u.Y.t.X.4.h.G.k.",
"7.p.8.4.r.8.4.L.L.t.t.u.@+L.L..+@+@+H.4.4.j.k.g.o.8.$.u.8+8+b ; ; ; m 8.Y.v.F.i.k.X.r.o.6.k.k.g.",
"4.6.J.b.u.0.r.Y.Y.c.t.@+Y.>+=+L.=+/+o.o.6.2.F.2.4.4.4.c.++S ; ; > k p.o.v.Y.*+J.v.t.v.`.8.8.v.4.",
"q.r.p.u.t.u.:+X.J.0.t.L.J.L.&+J.=+L.L.L.4.o.H.p.k.4.v.u...- ; 3 '.u.o.h.o.Y.g.o.r.L.>+`.r.0.8.n.",
"`.t.o.X.#+t.@+`.v.t.v.v.L.>+L.L.Y.H.L.L.H.k.o.o.4.o.v.6.R l '.c.u.t.r.4.v.5.k.L.>+@+Y.L.t.u.v.#+",
"L.@+t.$+/+#+r.J.Y.$+@+X.o.o.5.@+@+@+L.F.L.o.H.-.0.r.p.u.u.c.v.u.r.`.t.i.o.,.@+L.=+^+t.r.u.r.k.#+",
"L.v.L.#+/+t.H.o.@+$+#+`.c.v.`.@+t.L.v.k.@+v.k.v.r.b.;.b.`.u.'.#+r.v.c.`.X.v.8.t.@+L.J.t.u.#+h.^+"};
