/* XPM */
static char * 48_buzz_up_grass_xpm[] = {
"48 48 255 2",
"  	c #090C0A",
". 	c #111C04",
"+ 	c #2B1B45",
"@ 	c #391C71",
"# 	c #1B3106",
"$ 	c #352E35",
"% 	c #323429",
"& 	c #552762",
"* 	c #4A305B",
"= 	c #284514",
"- 	c #294B05",
"; 	c #474148",
"> 	c #325438",
", 	c #5E4360",
"' 	c #713C7F",
") 	c #713B8B",
"! 	c #4E4E42",
"~ 	c #375C03",
"{ 	c #664473",
"] 	c #565158",
"^ 	c #405E1B",
"/ 	c #485C2E",
"( 	c #2D671B",
"_ 	c #346705",
": 	c #3A632F",
"< 	c #39651E",
"[ 	c #755777",
"} 	c #845094",
"| 	c #645E66",
"1 	c #616154",
"2 	c #3D7614",
"3 	c #49741B",
"4 	c #427626",
"5 	c #427630",
"6 	c #44753D",
"7 	c #4F732E",
"8 	c #805C8E",
"9 	c #4D7252",
"0 	c #666E30",
"a 	c #6E6E62",
"b 	c #458309",
"c 	c #716D70",
"d 	c #736C79",
"e 	c #587A41",
"f 	c #627749",
"g 	c #567B4B",
"h 	c #4A831A",
"i 	c #4B8327",
"j 	c #4F8232",
"k 	c #4D823B",
"l 	c #578127",
"m 	c #5B7F32",
"n 	c #508148",
"o 	c #5A803C",
"p 	c #697C3D",
"q 	c #7D787F",
"r 	c #9570A0",
"s 	c #539112",
"t 	c #5D8866",
"u 	c #7A7F6D",
"v 	c #7D7E75",
"w 	c #599025",
"x 	c #509324",
"y 	c #539230",
"z 	c #5C8F37",
"A 	c #5E8F30",
"B 	c #817E7C",
"C 	c #569047",
"D 	c #53923B",
"E 	c #5C8F3E",
"F 	c #5C8E51",
"G 	c #658D3C",
"H 	c #658C48",
"I 	c #5D8F48",
"J 	c #6D8B3D",
"K 	c #5C8E59",
"L 	c #678B5B",
"M 	c #858087",
"N 	c #6F9056",
"O 	c #7E8D61",
"P 	c #8D8499",
"Q 	c #619D21",
"R 	c #58A11C",
"S 	c #6C9B22",
"T 	c #8D8A90",
"U 	c #669E33",
"V 	c #6B9774",
"W 	c #6A9C3D",
"X 	c #5EA133",
"Y 	c #60A03E",
"Z 	c #699D44",
"` 	c #689D4B",
" .	c #679D51",
"..	c #60A048",
"+.	c #609E60",
"@.	c #5EA053",
"#.	c #699B66",
"$.	c #679D58",
"%.	c #729A55",
"&.	c #749867",
"*.	c #6A9C5E",
"=.	c #739B49",
"-.	c #7B994A",
";.	c #89917C",
">.	c #8E8F86",
",.	c #918E8C",
"'.	c #959197",
").	c #71A82E",
"!.	c #65AE1D",
"~.	c #66AD2D",
"{.	c #77A93F",
"].	c #6DAD3B",
"^.	c #6CAD43",
"/.	c #68AE4A",
"(.	c #65B03F",
"_.	c #70AC4A",
":.	c #6BAD51",
"<.	c #78AA4A",
"[.	c #6BAD58",
"}.	c #7EA942",
"|.	c #6AAD60",
"1.	c #9C9996",
"2.	c #73AA64",
"3.	c #75AB55",
"4.	c #9C999D",
"5.	c #74AB5E",
"6.	c #70AB6D",
"7.	c #7DA774",
"8.	c #81A955",
"9.	c #81A862",
"0.	c #89A757",
"a.	c #A996B4",
"b.	c #AE9797",
"c.	c #7DA885",
"d.	c #96A08F",
"e.	c #A09CA8",
"f.	c #6CB91E",
"g.	c #6FBA2C",
"h.	c #6DBD13",
"i.	c #85AE70",
"j.	c #6FBA3A",
"k.	c #A4A1A6",
"l.	c #A4A29F",
"m.	c #7AB83C",
"n.	c #9BAA7C",
"o.	c #74BB56",
"p.	c #71BD4C",
"q.	c #68BF57",
"r.	c #8BB54E",
"s.	c #7BBB48",
"t.	c #7ABB50",
"u.	c #76BA6C",
"v.	c #78BB5D",
"w.	c #7DBA57",
"x.	c #6EBE60",
"y.	c #77BB64",
"z.	c #86B857",
"A.	c #7DB87A",
"B.	c #81B86D",
"C.	c #93B462",
"D.	c #83B962",
"E.	c #8EB662",
"F.	c #8FB56E",
"G.	c #8CB581",
"H.	c #9DB362",
"I.	c #ACA8B3",
"J.	c #ADA9AE",
"K.	c #ADABA8",
"L.	c #7AC541",
"M.	c #7AC548",
"N.	c #8CB996",
"O.	c #79C82B",
"P.	c #A4B19E",
"Q.	c #B8A8C5",
"R.	c #7CCB16",
"S.	c #C1AAA2",
"T.	c #7DC83A",
"U.	c #77C768",
"V.	c #7CC856",
"W.	c #88C649",
"X.	c #85C65A",
"Y.	c #87C653",
"Z.	c #B3B0B6",
"`.	c #88C561",
" +	c #81C862",
".+	c #85C769",
"++	c #84C76F",
"@+	c #82C777",
"#+	c #8CC478",
"$+	c #89CB33",
"%+	c #90C671",
"&+	c #84CD4D",
"*+	c #8FCB41",
"=+	c #93C76C",
"-+	c #95C765",
";+	c #9CC571",
">+	c #91D01E",
",+	c #9DC57D",
"'+	c #8CC990",
")+	c #99C590",
"!+	c #9CC586",
"~+	c #8FC987",
"{+	c #ACC17E",
"]+	c #8FCE5F",
"^+	c #BDB7CB",
"/+	c #BBB9BF",
"(+	c #91CE6A",
"_+	c #93D053",
":+	c #95CC7F",
"<+	c #9CD03C",
"[+	c #9CCD62",
"}+	c #90D075",
"|+	c #A1D226",
"1+	c #BEBDBA",
"2+	c #A1CF54",
"3+	c #8FD756",
"4+	c #BBC685",
"5+	c #9DD178",
"6+	c #A1D16F",
"7+	c #99D666",
"8+	c #C2C1CB",
"9+	c #A8D07A",
"0+	c #C4C1C6",
"a+	c #B0CE79",
"b+	c #CDC1A9",
"c+	c #B4CC90",
"d+	c #A8D187",
"e+	c #D1C3A3",
"f+	c #A8D0A0",
"g+	c #B2CD9F",
"h+	c #A9D191",
"i+	c #B2CF8A",
"j+	c #A8D198",
"k+	c #B8CE8A",
"l+	c #A1D689",
"m+	c #BECBB7",
"n+	c #A2DC5B",
"o+	c #BDCEA1",
"p+	c #B6D1B3",
"q+	c #AAD5B1",
"r+	c #CCC9CD",
"s+	c #CBC9D3",
"t+	c #9EDE81",
"u+	c #D2CBB9",
"v+	c #B0DE72",
"w+	c #B1DF84",
"x+	c #B8DE95",
"y+	c #B9DCAD",
"z+	c #D3D1D3",
"A+	c #ABE3A1",
"B+	c #B9DF9F",
"C+	c #B9DFA6",
"D+	c #C7E1C2",
"E+	c #C3E9BA",
"F+	c #DFDEDF",
"D.W.`.#+#+%+D.%.F.%+F.!+B.%+%+B.o.%+G.E.=+#+` 9.5.D.5.2.*..+2.!+$.D.B.2.#+:+;+F.D.V.X.s.D.B.D.t.",
"L.]+.+.+D.B.%.F.`.`.9.;+F.D.9.9.%+d+%+F.P.r 8 [ u !+)+.+D.F.B.#+*._.y.D.B.Y.i.B.B._.W.w.D.G.*.o.",
"g.]+Y.s.B.!+!+D.`.Y.3.G.<.z.9.3._.v.2.i.b.) ' { & u 2.2.9.v.!+++u._.D.D.-+^.o.#+#+5.<.Y.g.9.G.%+",
"3.Y.T.3.E.G.7.D.D.=+F.!+<.=.9.5. .3.:.G.S.} ' ' & d [.v.v.D.!+9.B.$.#+F.<.Z _.s.%+#+8.z.3.w.9.F.",
"t.z.L.5.%+!+G.F.D.t.,+E.E.i.!+B.i.F.u.;.b+} ' q | | 9.E.B.`.F.9.D.G.F.2.I _.E.3._._.=+F.9.3.3.%.",
"v.t.s. .#+B.5.3.i.v.9.E.F.F.B.F.D.B.5.c+b+;.<.Q Z T I %.B.B.Z.w &.B.#+[.y.5.w.z.^./.Y w.z.`.B.5.",
"Y.v.].9.B.`.i.8.G.F.G.!+D.D.D.,+)+D.v.m+<.Q Q Q 0.Z.K.K.K.1+/+=.3 %. .2.5.5.w.%+z.m.^.z.t.t.].Y.",
"D.X.[.3.2.v.F.,+#+D.!+%+D.3.5.P.m+h+9.z+n.w w Q A d.K.K.K.J.Z.=.3 7 G.3.5.$.m.m.=+D.9. .%.L.[.t.",
"D.D.W 5.*.D.D.G.3.w.:+3.D.`.F.8.8.g+w 0+Z.Q w s x ;.K./+K.K.K.A 2 e D.5.D.v.D.y.5.++%.7.9.8.t.#+",
"!+w. .A.*._.#+D.3.s.B.B._.#+P.P.n.n.w 0+0+%.s s s ;.J.Z.K.Z.l.H 2 L i.v. . .B.B.i.v.u.9.9.D. .B.",
",+5.y.:.m.D._._.y.3.5.5.G.Z.0+r+r+r+Z.8+0+P.s s s &.K.K.l.l.,.m 2 v d.$.B.G.#+#+B.D.5.B.i.5.B.8.",
"G.B.D./.t.o.3.w.D.D.:.d.l.>.1.r+r+r+0+0+0+0+Z s b &.k.k.l.1.>.2 _ ,.1.&.5.)+i.3.F.#+G.B.G.I B.3.",
"=+B.$.u.o.%+t.t.w.z.&.4.1.,.B /+0+r+0+0+8+/+d.s b L l.4.,.'.;._ 6 '.1.1 7.$.5.%.i.i.i.m.i.9.i.i.",
"`.G.%+++o.D.s.D.w.s.n.l.1.B u 1./+/+0+/+0+/+/+z b H 1.,.1.1.;._ u '.>.] ;.:.N H B.*.#+7.9.5.F.G.",
"D.z #+B.<.w.D.z.w.s.G./+/+l.a B J./+0+/+0+/+/+>.b g '.1.1.4.u ~ ,.'.c ! u I 2.$.&.$.D.2.*.D.G.++",
"++2.9.B.o.z.`..+w.m.,+z+r+0+Z.B 4./+0+Z.0+/+Z.J.i o '.l.l.4.f f ,.M 1 B d.*.*.#.c.G.B.I y.2.~+~+",
":.9.G.D.X.3.`.W.v._.g+z+r+1+Z.M q /+0+Z.0+/+Z.J.;.i '.'.,.4.7 ;.,.M 1.1.4.&.i.G.#+%.8._.3.#+D.B.",
"5..+#+5.D.<.w.X.B.v.m+z+r+/+J.K.q J.0+I.I./+Z.J.k.j '.,.T 4.f ,.,.M '.1.1.n.8.F..+w.3.` 5.:.3.<.",
"I D..+s.X.F..+t.2.5.r+r+r+Z.l.P.q '.e.@ 4./+J.J.k.4.'.,.'.4.,.,.,.T T 1.1.d.3.F.B.D.w.D.9.y.D.t.",
"X _..+T.X.%+B.^.E &.0+0+/+k.2.c.d * @ q J.0+J.J.K.k.'.M '.4.,.T ;.>.q M ,.d.B.v.`.F.#+[.[.u.%.m.",
"5.3.X.`.w.v.[.m._.i.z+0+1+k.B.*.u ; d '.M 0+4.k.4.'.'.M '.'.B B 7.i.T ,.l.1.i.D.^.Z 9.5.3.3.Z ^.",
"(+o.z.D.5.3.v.s.w.9.9.i.7.O O 3.i.d.&.%   T k.4.'.T ,.>.'.T T T .+9.f f L e N 9.Z Z 3.Y I &.5.` ",
"B.D.w.w.` 5.X.t.s.n.o < - ~ N B.[.o.&.% . ; >.,.1.4.a | M d.d.d.2.L ~ ~ ~ > 5.2.5.:. .D.` $.D.D.",
"D.D.3.D._.3.w.3.].)+I.T d c i.D.3.5.1.| ] ] ] ! $ % % % 1 5.` 2.B.7 9 a c u 5.2.`  .o.3.G.2.A.:.",
"`.B.o.3. ..+o.:.^.!+I.T q M F.3.D.:.i.| c d q c c d c ; a p.7.3.9.T M q c 9.i.u.*.<.w.B.B.7.#+:+",
"f+7.5.G.5.t._. .<.%+I.T q >.<.3.5.:.l.4.B T 4.'.'.,.>.q v p.`.z.i.M M c &.D.i.9.u.:.3.t.v...W B.",
"!+G.*.F.,+i.5.5.3.=.P.T q ;.I %. .G.4.J.Z.M 4.4.'.>.M c B 3.].3.5.T q a 2.X.w. .$.%.5.s.p.*. .9.",
"F.#+I w.w.w.m._.`.3.B.J.M d. .o 9.G.k.Z.k.T q T q d c M T %.%.%.P.T c &.Z v.m.:.y.D.w.O.s.Z 5.%.",
"j+8.w.Z w.t.^.<.w.<.)+0+4.4.d.D.&.d./+Z.4.T ;.d.d.| q '.,.G.&.P.4.M M ;.2.2.B.:.H X.w.g.` s.6.%.",
"=+i.t.3.w.w.t.j.w.%.N.k.4.;.d.B.*.P.0+Z.1.T E.w.B.M '.4.,.;.9.l.M q q ;.` 3.t.y.3.D._.w.D.w.t.#+",
"(+D.B.w.B.%+j._.w.s.P.'.G.2.l.5.3.P.0+Z.'.>.w.3..+T 4.4.,.;.B.d.'.T M ;.w.D.%.o.s.s.V._.3.t.3.#+",
"D.%+3.w.w..+[.w.D.v.)+e.d.o.B.w.P.Z.0+k.T n.s.v.9.4.k.T q c.i.K.k.e.'.i.%+;+F.v._.v.D.o.<.2.:.5.",
"5.%+D.D._.8.z.v.Z 3.#+k.k.t.B.v.Z./+Z.q q 7.m.D.F.4.'.c a 7.B.P.k.4.d.B.z.D.2.w.y.F.D.W 3.2.3.D.",
"D.D.3._.s._.B.t.t.j._.K.P.`.D.D./+J.B u 1 3.M.B.B.T v u 1 G.B.D.2.Z .+B.D.w.w.=+D.!+D.3.B.5.#+D.",
"E.,+w.3.%+5.3.t._.t.t.B.#+z.D.`.0+/+B 1 1 t.t.o.5.l.B a ! d.D.G.B.v.#+w.v.v.M.%+X.B.v.B..+o.;+D.",
"3._.D.D.z.B.*._.w.M.t.s.F.-+`.t.1+r+0+l.'.G.o._.:.K.0+Z.k.J.B.z.B.D.D.X.M.v.3.%+X..+D.D.B.`..+w.",
"3.F.F.!+B.%+D.w.`.5.v.w.8.W.z.w.g+r+0+0+Z.k.y._.^.d.0+r+0+l.7.s.o.D.B.w.T.t.w.%+%+=+`.D.%+z.D.%+",
"^.D.#+B.3.E.%+`.t.w.z.D.E.]+z.w.g+r+0+0+0+l.G./.t.d./+z+r+K.l._./.v.;+D.`.X..+B.%+5+#+h+%+=+`.:+",
"5.B.%+5.3.E.D.w. +D.3.D.,+D.s.z.p+s+r+0+r+K.l.5.t.d.Z.s+0+Z.l.*.w.B.!+`.t.-+#+#+,+%+#+:+=+%+Y.t.",
"5.v.B. .` 3.v.B.5.%+w.D.y.w.Y.=+p+r+r+0+0+/+k.7._.P.J.s+r+0+l.G._.B.D.#+w.X.v.A.B.B.%+o.`.X.j.X.",
"++u.#+B.3.D.o.B.`.=+D.w._.o.W.X.m+r+r+0+0+r+k.l.:.K.e.8+z+0+J.l.B.D.5.X.X.w.B.#+B.B.D.`.s.M.D.X.",
"B.[.` :.v.5._.#+i.z.5._.z.Y.s.Y.z+z+r+0+0+0+/+k.G.Z.J./+z+0+Z.4.G.F.y.Y.D.F.%+5.#+D..+B._._.m.t.",
"5.2.9.^.2.3.<.w.`.9.F.F.D.`.w.L.g+r+r+r+/+0+Z.d.9.d.e./+/+k.4.'.)+o.v.].D.D.M._.w.B.v.2.3.D.].^.",
":. .V.2.B.9.5.D.%+9.B.`.`.-+`.!+p+r+r+r+Z.J.k.d.3.J.e.k./+0+J.l.#+y.3.v.D.B.Y.y.9.9.v.B.5.` D.Z ",
"u.2.v.B.2.i.)+B.w.5.B.`.D.s.=+r+z+z+z+0+J./+/+K.G.e.e.e./+0+Z.k.~+B.[.p.3..+^.v.B.w.-+#+2.5.%.B.",
"F.i.3.~+G.i..+%+F.D.D.w.`.,+;.Z.z+z+z+z+r+r+/+k.L [ q '.Z.0+Z.'.i.B..+^.B. .3.w.=+D.D.z.5.i.<.G.",
"X.`.F.:+,+F.D.v.w.F.-+#+w._.&.;.M M P P r P q c 5.y.$.&.q q a ;.2.G.3.t.5.$.F.t.X.:+y.B.B.2.].#+",
"X.z.`.!+#+D.t.o.%+,+#+i.5.D.G..+B.D.5.8.=+w.3.#+B.2.*.6.G.i.*.++B.D.i.#+.+w.9.F.;+Y.w.D.i.)+<.:+"};
