/* XPM */
static char * 48_buzz_down_grass_xpm[] = {
"48 48 255 2",
"  	c #040705",
". 	c #120E1D",
"+ 	c #151607",
"@ 	c #220D56",
"# 	c #271241",
"$ 	c #191B1A",
"% 	c #201D3C",
"& 	c #381A6C",
"* 	c #0D3406",
"= 	c #82110C",
"- 	c #40271E",
"; 	c #46215A",
"> 	c #432268",
", 	c #2B3023",
"' 	c #303035",
") 	c #402C42",
"! 	c #3B340F",
"~ 	c #144024",
"{ 	c #573118",
"] 	c #264A15",
"^ 	c #245003",
"/ 	c #6A327B",
"( 	c #583B74",
"_ 	c #594363",
": 	c #594553",
"< 	c #484E40",
"[ 	c #4C4D50",
"} 	c #853F45",
"| 	c #2E600F",
"1 	c #086A98",
"2 	c #496230",
"3 	c #3B682A",
"4 	c #3B6737",
"5 	c #4B651F",
"6 	c #3B6D1E",
"7 	c #276B85",
"8 	c #834E8E",
"9 	c #7D5835",
"0 	c #39720A",
"a 	c #7A5787",
"b 	c #8B6107",
"c 	c #726280",
"d 	c #666A5B",
"e 	c #487453",
"f 	c #746475",
"g 	c #407D13",
"h 	c #437B29",
"i 	c #696A6A",
"j 	c #4E7924",
"k 	c #796A42",
"l 	c #4E792F",
"m 	c #408106",
"n 	c #497A3A",
"o 	c #66722F",
"p 	c #6D6A77",
"q 	c #5C762E",
"r 	c #4C7E1B",
"s 	c #876E08",
"t 	c #677A1B",
"u 	c #50814D",
"v 	c #5E7E41",
"w 	c #4A8914",
"x 	c #5C7F4F",
"y 	c #508830",
"z 	c #4D8A24",
"A 	c #4F883A",
"B 	c #4C8D0A",
"C 	c #578825",
"D 	c #5B8630",
"E 	c #568646",
"F 	c #5A863A",
"G 	c #68823B",
"H 	c #72803B",
"I 	c #36908A",
"J 	c #628689",
"K 	c #7D7F7B",
"L 	c #3D90AE",
"M 	c #867D8B",
"N 	c #569617",
"O 	c #808087",
"P 	c #55982A",
"Q 	c #5E962B",
"R 	c #619535",
"S 	c #927D9F",
"T 	c #689335",
"U 	c #5F9541",
"V 	c #75902C",
"W 	c #599836",
"X 	c #6A914D",
"Y 	c #679341",
"Z 	c #5B964C",
"` 	c #589840",
" .	c #63944D",
"..	c #619456",
"+.	c #61926E",
"@.	c #6D905C",
"#.	c #758C6F",
"$.	c #61945E",
"%.	c #469A94",
"&.	c #A28746",
"*.	c #8C8B7B",
"=.	c #979110",
"-.	c #61A323",
";.	c #8A8CA1",
">.	c #5EA612",
",.	c #869365",
"'.	c #5FA900",
").	c #6BA329",
"!.	c #A0899B",
"~.	c #79969A",
"{.	c #A68D64",
"].	c #938F99",
"^.	c #91918C",
"/.	c #63A739",
"(.	c #6DA439",
"_.	c #6FA343",
":.	c #66A644",
"<.	c #6DA34E",
"[.	c #65A64E",
"}.	c #66A465",
"|.	c #6DA35A",
"1.	c #64A659",
"2.	c #5DAA45",
"3.	c #76A24D",
"4.	c #79A05B",
"5.	c #70A267",
"6.	c #7C9F6A",
"7.	c #C7896E",
"8.	c #71AD30",
"9.	c #67B131",
"0.	c #A3A504",
"a.	c #70B144",
"b.	c #72A7BB",
"c.	c #9F9F91",
"d.	c #7EB045",
"e.	c #6BB746",
"f.	c #6FB551",
"g.	c #A59DAB",
"h.	c #6EB92A",
"i.	c #74B35B",
"j.	c #9F9FAA",
"k.	c #77B351",
"l.	c #7FB150",
"m.	c #70B466",
"n.	c #7AB167",
"o.	c #86B048",
"p.	c #6EB65A",
"q.	c #A2A0A1",
"r.	c #A39EB5",
"s.	c #76B273",
"t.	c #7DB25C",
"u.	c #6FBC22",
"v.	c #86AE77",
"w.	c #88AF68",
"x.	c #8EAF5D",
"y.	c #77B84B",
"z.	c #9BAC5D",
"A.	c #70C016",
"B.	c #72BD3D",
"C.	c #7DBB3E",
"D.	c #AFA993",
"E.	c #93B293",
"F.	c #A4AF81",
"G.	c #6EC55D",
"H.	c #C0A984",
"I.	c #AFAAB7",
"J.	c #78C452",
"K.	c #74C465",
"L.	c #7CC35E",
"M.	c #7FC26B",
"N.	c #83C351",
"O.	c #7DC273",
"P.	c #82C357",
"Q.	c #7BC92D",
"R.	c #85C25E",
"S.	c #81C365",
"T.	c #9AB4C0",
"U.	c #84C181",
"V.	c #96BF57",
"W.	c #8BC16A",
"X.	c #B0B1A2",
"Y.	c #89C175",
"Z.	c #7FC93C",
"`.	c #8FC257",
" +	c #90C160",
".+	c #7EC948",
"++	c #B2B0B2",
"@+	c #9CBD6A",
"#+	c #A6BA6A",
"$+	c #96BF6B",
"%+	c #97BE77",
"&+	c #96BE7F",
"*+	c #94BE89",
"=+	c #BEB836",
"-+	c #83CD1A",
";+	c #89CC34",
">+	c #B7B3C0",
",+	c #8FCB4F",
"'+	c #92CD43",
")+	c #89CE5E",
"!+	c #8DCD68",
"~+	c #8CCD72",
"{+	c #94CE60",
"]+	c #90CD7F",
"^+	c #9DD03C",
"/+	c #9ACD71",
"(+	c #91CD94",
"_+	c #99CD78",
":+	c #94CD8B",
"<+	c #BEBCBF",
"[+	c #A1D226",
"}+	c #9DCC82",
"|+	c #C2BBC8",
"1+	c #BEBEC9",
"2+	c #D0B8CF",
"3+	c #A0D065",
"4+	c #9ED06D",
"5+	c #AACF57",
"6+	c #C4C0B3",
"7+	c #CABCCE",
"8+	c #A9CE7A",
"9+	c #A3CF99",
"0+	c #ACD070",
"a+	c #A5D090",
"b+	c #AFCC9C",
"c+	c #C7C87A",
"d+	c #AFD169",
"e+	c #ACD087",
"f+	c #C5C3C7",
"g+	c #B5CF8A",
"h+	c #D6C39F",
"i+	c #AAD0AE",
"j+	c #B7CBCF",
"k+	c #B5D194",
"l+	c #A8D78C",
"m+	c #BFCCBF",
"n+	c #A6DD60",
"o+	c #CFCBA4",
"p+	c #A9DC83",
"q+	c #BED2B4",
"r+	c #BAD8A1",
"s+	c #B9D8AA",
"t+	c #D0CED1",
"u+	c #D0CED9",
"v+	c #D5CFBF",
"w+	c #BBE089",
"x+	c #B9E399",
"y+	c #B9E5AA",
"z+	c #BFE2BF",
"A+	c #DDDBDE",
"B+	c #DEDCD1",
"C+	c #C6E6B7",
"D+	c #D6E9CB",
"E+	c #DAE7DA",
"F+	c #EBEAE9",
"S.N. +%+Y.W.w.4.W.%+$+&+w.$+%+W.i.W.&+ +!+Y. .t.|.t.n.5.5.M.5.*+|.t.w.5.Y.}+%+%+R.J.P.B.n.n.S.J.",
"Z.{+S.S.t.w.|.Y. + +t.$+W.R.t.4.W.}+Y.W.n.n.c.D.X.X.*+W.t.Y.Y.Y.|.k.S.w.n.`.w.w.n.a.N.P.t.v.|.k.",
"h.{+N.y.v.*+*+w. +N.t.&+l.R.n.|.a.t.5.U S.6.*.D.H.D.*.5.n.t.}+Y.n.<.n.n. +a.k.%+Y.t.y.N.8.4.&+W.",
"k.)+C.l.W.&+v.t.S.W.%+}+l.3.t.i. .3.<.n.k.#.X.q.h+j.o+#.i.R.&+n.s.|.%+v.3._.k.y.Y.Y.4.t.l.t.6.W.",
"y.N.C.i.~+*+&+Y.n.J.&+x. +w.&+v.w.W.n.x 4.v.h+h+h+h+h+F.n.R.L.4.n.&+Y.5. .k.w.t.a.<.$+w.t.|.i.|.",
"L.k.C.[.]+v.i.k.w.t.t.W.W.v.Y.W.n.w.n.w.x.D.{.H.H.h+h+D.4.t.%+n.5.n.Y.|.n.i.t.N._.a./.N.t.W.M.n.",
"N.L.a.w.M.W.v.l.Y.Y.v.}+S.W.w.&+9+w.d.d.s+6+H.H.h+h+h+c.3 6 Y *+<.n.<.i.4.n.t.Y.P.C.a.N.l.l.a.N.",
"n.P.i.t.5.t.W.&+&+t.}+~+t.<. .E.f+X.X.f+A+f+H.h+h+h+h+K i K c.f+t+*+Y.<.4.|.C.B./+S.t.X 4.C.<.y.",
"t.t._.|.|.n.S.&+i.P.%+4.S.R.v.X.t+>+^.>+F+<+{.{.{.H.H.: ) f ].t+t+a+ +i.n.t.R.M.4.W.3.6.6.4.J.%+",
"*+t.[.v.@.y.Y.t.k.y.w.Y.a.w.v.v.<+t+K ++>+O ; < { : : ) [ d ].B+6+l.v.w.<.X v.Y.n.L.s.6.w.t.<.w.",
"&+t.n.<.C.S.<.a.n.k.i.i.|.t+++P E.m+f+q+^.i > > > > > _ 6.b+t+m+w.8.X.t+v.v.&+Y.Y.L.i.w.v.4.Y.4.",
"v.w.S.:.y.i.i.k.M.t.|.E.^.++1+ .w <.E.X.m+m+g.c.c.q.g.m+v+m+b+l.d.l.f+<+c.E.v.3.%+]+&+W.&+Y w.4.",
"/+Y.|.n.k.Y.k.k.P.P.#.K O q.<+c.m m w R a+a+f+I.>+>+f+4.V o.F.o.$+4.t+X.c.c.v.|.n.v.v.C.w.4.n.n.",
"W.Y.%+Y.k.t.y.t.l.d.#.i K O ++++r m +.g Y t.X.~.~.~.O ).-.(.(.).d.^.<+*.*.D.*. .n.|.Y.n.n.|.w.v.",
"R.W &+M.k.t.R.t.N.y.c.i d [ j.j.#.g 7 | | t ~.~.].J ~.N t t N -.v.*.g.d i *.E.|.6...S.5.4.t.v.Y.",
"O.5.6.W.k.t.W.W.t.Y.c.c.d [ p ^.].h 4 0 | { _.v.v.v.R w = b N R <+K K d ].t+<+5.v.*+w. .n.5.&+]+",
"<.n.&+t.P.3. +,+t.++X.!.k i p O ].^.n g g g m w w B B B r w 4.++<+K i I.;.~.t+*+Y.|.t.<.4.&+n.n.",
"|.W.Y.i.R.k.P.`.U.1+++K f K v.E.q.j.M % < 3 g 6 x l w y e _ g.<+<+^.^.I.J J t+b+W.t.|.X t.<.k.3.",
"U S.S.N.`.%+W.y.X.f+f+j.M ^.5.v.g.c @ @ O j.].j.I.I.q.++].> & j.f+@.v.++r.>+A+t+Y.R.L.t.w.n.n.y.",
"/.a.W.C.R.W.n.:.++>+>+].E.i.i...c @ ; M ].].].].].q.q.g.g.]._ > O <.Y.Y.>+f+t+f+ +w.Y.|.|.n.|.a.",
"n.3.`.W.k.i.i._.6.4.|.*.v.P.i.|.#.p ^.p [ [ < < [ < [ [ d ^.q.M #.4.[.v.>+++6+q+y._.w.4.|.t.:._.",
"!+k.R.R.i.k.t.v 0 w P _.&+y.:.k.n.E.P.[       +           6.n.E.W.d.k.3.6._.-.).3.:.<./.U 5.|.<.",
"Y.S.t.t.<.t.P.k.^.c.E.3.X R.P.n.|.k.i.v               $ + x n.s.n.&+f.r 4.t.-.4.n.<.[.w.<...R.t.",
"n.S.i.w.<.k.t.k.*.g.++f+q.6.R.w.|.i.w.E | ] $ +     * | r v.1.n.i.Y.<.D v.X.f+<+|.<.k.k.v.n.v.<.",
"S.M.k.|.<.W.k.<.<.].!.++u+X.t.l.n.[.y.q.#.F r w w w N @.c.E.6.|.<.t.n.<+A+t+t+E.|.3.t.n.Y.6.&+]+",
"b+v.|.v.t.k.<.<.k.v.j.|+t+6+k.k.i.f.b+|+>+].^.#.p #.].M >+t+a+l.3.W.|.|+t+t+<+6.n.[.t.k.t.:.R w.",
"*+*+@.Y.&+w.4.i.k.<.*.].>+++Y |. .S.<+|+|+].p ].].].M I.t+A+X.t._.W.t.>+I.++&+<.|.<.t.d.y.|. .6.",
"W.Y. .l.P.l.a._.R.|.n.E.>+u+f+++i+t.|+<+>+]._ M M M M >+<+f+++_.w.S.*+f+t+E.a.f.n.R.k.Q.y.Y |.4.",
"b+l.N.:.N.y.a.k.t.k.t.E.r.f+u+E.++v.|+<+>+++*.^.*.^.q.I.>+f+++4.O.<+t+A+u+E.W.f. .R.k.Q.:.a.5.|.",
"W.v.k.k.P.P.l.8.t.<.|.v.r.I.u+n.|.n.>+<+>+<+X.t.k.N.++I.>+<+j.t.E.I.|+A+t+E.k.S.4.t.a.P.R.L.k.Y.",
"!+t.v.t.W.%+B.a.t.y.P.w.r.j.>+n.k.n.>+>+<+f+*+i.P.t.X.I.>+I.^.Y.++v.++<+|+*+<.k.y.N.N.a.l.y.k.%+",
"R.W.f.t.P.W.i.N.t.t.R.(.;.j.I.q+:+i.>+>+|+f+*+t.n.S.X.I.>+j.^.&+E.n.f+f+++}+$+i.a.t.R.i.k.5.<.t.",
"i.~+R.t._.k.t.i.Y k.y..+v.^.^.E.%+W.>+|+f+f+&+S.Y.&+++>+|+I.^.Y.i.*+|+>+++R.n.L.n.Y.S._.k.5.i.t.",
"W.W.t.3.y.y.n.J.k.B.y.N.N.R.S.S.t.R.++>+<+f+R.M.M.n.E.>+>+g.^.S.i.q.I.g.&+t.L.W.S.*+R.k.n.|.Y.S.",
"w.%+t.k.%+i.k.k.y.y.k.y.R.R.S.R.k.L.j.I.>+<+*+f.|.Y.E.I.g.q.*.&+n.v.q.E.i.i.J.~+R.W.t.n.M.L._+t.",
"k.<.n.n.R.W.|.<.i..+N.y.%+{+R.k.(.v.j.g.++<+*+f.<.a.X.I.g.].M N.w.n.S.P.N.L.i.Y.P.W.S.S.M.R.W.P.",
"k.W.v.&+W.%+n.P. +i.n.k.t.Z.`.P.y.*+I.I.>+<+E.f.a.:.X.>+I.j.g.W.k.S.w.P.Z.y.t.$+%+W.R.S.Y.N.R.Y.",
":.W.Y.M.k.W.%+ +J.P.t.R.w.`.N.t.N.E.>+>+f+|+E.a.y.t.X.>+>+>+f+*+<.t._+t.R.R.W.w.Y._+&+a+Y.W.W.&+",
"i.M.W.i.l.W.w.k.R.n.k.S.%+R.y.R. +X.>+|+f+f+X.i.k.[.X.>+<+<+t+E.t.s.}+R.N.W.Y.Y.&+~+]+_+W./+N.y.",
"i.i.M.<.<.k.t.w.i.W.P.S.t.P.`.W.{+++>+|+f+1+X.1.[.[.<+|+|+<+t+6+a.n.t.Y.R.R.t.Y.s.n.~+i.!+P.B.P.",
"W.s.Y.n.i.S.k.Y.R.W.S.P.k.k.N.R.R.<+|+f+t+t+++n.f.i.<+|+t+t+A+m+%+S.n.P.R.t.M.Y.n.O.S.R.a..+S.P.",
"M.i.[.<.t.n.a.Y.v.R.t.3.R.P.y.,+q+|+|+f+t+t+f+Y.f.E.f+|+f+f+u+t+b+W.n.P.R.Y.W.i.&+S.W.M.a.a.C.y.",
"i.n.n.:.n.4.a.t.R.n.W.w.W.W.P.Z.b+I.j.].j.g.I.w.i.E.I.g.].q.I.>+b+k.t.a.t.t..+a.k.W.t.n.|.R.a.a.",
"f.[.J.5.W.n.4.S.W.6.W. +R.!+R.L.*+>+>+f+t+f+q.n.f.v.>+>+f+t+u+<+*+n.k.t.t.W.N.L.w.t.t.M.i.<.w.U ",
"n.n.i.Y.n.w.*+M.P.4.W.R.S.y.R.L.R.X.E.w.v.b+X.n.k./.6+X.v.w.&+a+Y.v.f.y.k.S.a.i.n.N.W.Y.n.i.|.v.",
"Y.w.i.]+%+w.W.W.W.n.w.P. +!+P.R.&+U R l.).x.v.y.<.i.^.N l.).d.d.U.n.W.:.M.<.i.t.!+W.t.R.n.v.3.v.",
"P.W.W.&+&+Y.n.L.t.%+$+&+t.f.k.W.%+K i i i c K  .|.n.K f _ i f p v.Y.3.y.i.@.W.k.R.]+n.n.n.n.8.%+",
"R.t. +*+%+w.k.k.W.&+Y.v.t.W.Y.W.W.R.n.l.W.k.k.Y.n.n.|.s.Y.v.4.Y.s.W.v.Y.W.t.t.w./+N.P.R.v.*+k.&+"};
