/* XPM */
static char * 48_grass_xpm[] = {
"48 48 255 2",
"  	c #294B23",
". 	c #265B16",
"+ 	c #33581B",
"@ 	c #44551E",
"# 	c #3B6436",
"$ 	c #4B6039",
"% 	c #37701B",
"& 	c #3A6F26",
"* 	c #34730E",
"= 	c #3A6F2F",
"- 	c #406F1E",
"; 	c #486C27",
"> 	c #3F710F",
", 	c #476C30",
"' 	c #496D1F",
") 	c #5D672F",
"! 	c #467644",
"~ 	c #507445",
"{ 	c #4A7C29",
"] 	c #487C33",
"^ 	c #477C3B",
"/ 	c #43811B",
"( 	c #537A3C",
"_ 	c #4E7F1E",
": 	c #587C1F",
"< 	c #46840D",
"[ 	c #448700",
"} 	c #45842D",
"| 	c #547C5B",
"1 	c #617951",
"2 	c #587F2F",
"3 	c #6B783E",
"4 	c #607D30",
"5 	c #597F38",
"6 	c #667C42",
"7 	c #538532",
"8 	c #52834F",
"9 	c #508544",
"0 	c #50863C",
"a 	c #5C8151",
"b 	c #5C8345",
"c 	c #4F8D28",
"d 	c #5A8B29",
"e 	c #549320",
"f 	c #559416",
"g 	c #589247",
"h 	c #5C9239",
"i 	c #55943D",
"j 	c #5B9240",
"k 	c #62903E",
"l 	c #5B914D",
"m 	c #678E46",
"n 	c #5A9155",
"o 	c #6D8D3F",
"p 	c #668E4D",
"q 	c #758B3F",
"r 	c #609147",
"s 	c #638E61",
"t 	c #648F56",
"u 	c #6E8C56",
"v 	c #778A4D",
"w 	c #589631",
"x 	c #559A0E",
"y 	c #629432",
"z 	c #768B56",
"A 	c #778F6B",
"B 	c #5CA03A",
"C 	c #639F3A",
"D 	c #6AA01C",
"E 	c #699F46",
"F 	c #689F4C",
"G 	c #719D4B",
"H 	c #62A247",
"I 	c #68A231",
"J 	c #65A054",
"K 	c #6FA031",
"L 	c #61A24D",
"M 	c #61A52A",
"N 	c #6BA229",
"O 	c #6D9E53",
"P 	c #669F61",
"Q 	c #6DA03E",
"R 	c #6C9E5A",
"S 	c #739C59",
"T 	c #61A533",
"U 	c #61A71D",
"V 	c #769C53",
"W 	c #64A15A",
"X 	c #729C62",
"Y 	c #5AA555",
"Z 	c #6E9D6E",
"` 	c #849863",
" .	c #64A83E",
"..	c #63A945",
"+.	c #6BA742",
"@.	c #66AD53",
"#.	c #6CAC57",
"$.	c #6EAC50",
"%.	c #6EAB5D",
"&.	c #75AA55",
"*.	c #6DB12A",
"=.	c #64B428",
"-.	c #69B337",
";.	c #6CB23F",
">.	c #63B540",
",.	c #6CB247",
"'.	c #75AF4B",
").	c #6BB069",
"!.	c #6CB24E",
"~.	c #76AD66",
"{.	c #7BAC60",
"].	c #74AD6E",
"^.	c #68B262",
"/.	c #83AA61",
"(.	c #82AA67",
"_.	c #83AB58",
":.	c #81AA6F",
"<.	c #88AB4D",
"[.	c #8CAA59",
"}.	c #6DB91F",
"|.	c #99A56F",
"1.	c #6DB55A",
"2.	c #74B35B",
"3.	c #7BB343",
"4.	c #77B53B",
"5.	c #75B364",
"6.	c #7CB25C",
"7.	c #6DBC32",
"8.	c #76BB34",
"9.	c #77B581",
"0.	c #69BE4F",
"a.	c #6BBE48",
"b.	c #85B183",
"c.	c #71BD40",
"d.	c #71BC50",
"e.	c #74BB56",
"f.	c #75BC48",
"g.	c #78BB50",
"h.	c #96AE88",
"i.	c #7FBA55",
"j.	c #71C062",
"k.	c #78BE60",
"l.	c #76C51C",
"m.	c #76BF67",
"n.	c #7DBD67",
"o.	c #7FBD61",
"p.	c #79BE6D",
"q.	c #77BE76",
"r.	c #83BB74",
"s.	c #82BB7C",
"t.	c #85BC67",
"u.	c #87BC61",
"v.	c #85BC6E",
"w.	c #91BA67",
"x.	c #91B975",
"y.	c #93B96E",
"z.	c #8FB97D",
"A.	c #71C657",
"B.	c #79C72F",
"C.	c #70C65E",
"D.	c #9BB866",
"E.	c #7AC549",
"F.	c #77C73D",
"G.	c #A8B37C",
"H.	c #79C557",
"I.	c #7DC45F",
"J.	c #82C451",
"K.	c #81C458",
"L.	c #7BC752",
"M.	c #81C740",
"N.	c #89C359",
"O.	c #88C35F",
"P.	c #84C833",
"Q.	c #8BC843",
"R.	c #81CF21",
"S.	c #8FC936",
"T.	c #81C96D",
"U.	c #8BC94F",
"V.	c #87C871",
"W.	c #89C86A",
"X.	c #8CCD27",
"Y.	c #83CD50",
"Z.	c #85C978",
"`.	c #8EC771",
" +	c #8DC778",
".+	c #91C76B",
"++	c #91C957",
"@+	c #87CC60",
"#+	c #86CC66",
"$+	c #8BCC59",
"%+	c #A0C752",
"&+	c #8BCA80",
"*+	c #89CA88",
"=+	c #99CA52",
"-+	c #9BC866",
";+	c #92CB68",
">+	c #93CC61",
",+	c #A3C766",
"'+	c #9CC96F",
")+	c #99C97B",
"!+	c #9BC975",
"~+	c #96C98A",
"{+	c #99C982",
"]+	c #8BD346",
"^+	c #A6C773",
"/+	c #A2C782",
"(+	c #A0C78B",
"_+	c #A4C77D",
":+	c #A0C799",
"<+	c #93CE78",
"[+	c #95CE71",
"}+	c #A8C68C",
"|+	c #9FD12F",
"1+	c #94CC99",
"2+	c #95CF7F",
"3+	c #98D34B",
"4+	c #9DDA0E",
"5+	c #A5D250",
"6+	c #98D562",
"7+	c #C5C392",
"8+	c #96D56C",
"9+	c #9DD55C",
"0+	c #B5CC7B",
"a+	c #B3CC83",
"b+	c #BEC894",
"c+	c #A2D46F",
"d+	c #B2CD8A",
"e+	c #A6D37C",
"f+	c #A6D565",
"g+	c #A5D385",
"h+	c #A4D38C",
"i+	c #A2D394",
"j+	c #A9CFB2",
"k+	c #B0D27E",
"l+	c #9ED87D",
"m+	c #AFD286",
"n+	c #ABD296",
"o+	c #B0D471",
"p+	c #B4D097",
"q+	c #AED38D",
"r+	c #AED2A0",
"s+	c #BACEA7",
"t+	c #AED2A9",
"u+	c #BFD6BD",
"v+	c #B6E089",
"w+	c #BEDDA2",
"x+	c #B7E194",
"y+	c #B7E19A",
"z+	c #B8DFAF",
"A+	c #C1DEB2",
"B+	c #C7DCB6",
"C+	c #B8E3A5",
"D+	c #B6E780",
"E+	c #BEE1BF",
"F+	c #C2EABA",
"k.N.t.v. +[+6.{.y.!+v./+(.`.x.6.2.)+x.O..+ +O /.J t.5.~.~.v.:.{+5.o.n.X r.)+)+x.o.g.K.H.5.n.k.g.",
"E.U.t.t.t.t.v.v.N..+{.!+u.u.u.(.t.)+ +t.n.v.%.F n.z.~+v.6.v.v. +~.2.6.t.v.J.v.t.v.!.E.K.o.r.~.e.",
"E.++K.d.v.{+z.u.O.J.&.)+_.i.(.S '.2.%.F {.2.&.&.(.~.:.%.5.o.{+t.5.'.5.(.u.,.6.r.x.{.'.J.4.:.:.W.",
"i.M.M.6.`.z.z.5.o.w.)+_+'.&.(.{.$.S %.R '.+.'.F X ~.%.k.k.o.{+t.].%.v.:.&.$.'.e.v.x._.i.&.u.{.t.",
"J.g.c.2.v.{+x.v.t.u._+u.u.(.z.:.{.v.~.S &.f.i.n.:.:.%.o.n.I.o.{.5.z.v.].O $.6.i.,.6..+w._.&.&.X ",
"o.'.E.$. +r.5.2.v.o./.w.w.x.v.t.v.`.n.5.i.4.u.{+{+b.t &.v.i.!+6.%.v.v.2.{.{.6.u.F !.+.i.6.u.n.&.",
"g.H.f.{.v.t.:./.v.y.(.{+n.t.u.x.~+n.6.r..+f.t.u.v.z.(.v.6.o.6.v.&.v.F 5.~.%.o.W.6.g.f.g.g.3.,.g.",
"o.N.$./.X $.v.{+{+`.)+`.n.$.F (.{+`.1.n.i.g.o.g.v.x.6.6.'.d.g..+%.w.v.#.~.5.c.g..+o.&.V G g.$.i.",
"(.6.+.#.X !.o.z.&.i.`.6.W.e.O $.u.o.i.n.$.1.o.g.3.'.i.{.6.2.t.u.i.'.f.2.5.'.o.m.{.W.&.` (.&.H.)+",
"~+6.$.:.R g. +6.'.'.{.v.$.i.~.5.m.v.f.#.&.!.i.g.3.f.g.6.n.I.2.$.t.o.v.k.#.F r.n.{.2.~.:.(.6.O (.",
" +{.n.2.f.o.$.$.2.&.6.%.F 6.n.2.k.I.k.2.o.k.c.3.f.f.,.i.d.f.;.{.z.u.:.%.5.b.z.{+ +t.%.v.r.{.v.6.",
"{+2.k.$.i.2.6.i.n.o.&.#.k.2.$.!.e.e.2.:.t.k.f.4.+.i.O.o.E.f.'.{.~.$.W #.~.z.z.O r. +v.(. +F (.{.",
".+t.~.p.e.V.&.i.i.i.E 6.2.o.e.k.5.6.2.5.5.d.i.i.i.J.J.!.g.4.K.e.F &.%.5.~.~.%.O X :.s.+.r.{.~.v.",
"t.v.`.v.e.o.'.6.J.g.$.,.i.6.f.i.v.t.n.#.o.2.i.g.f.f.t.o.f.c.'.g.6./.|.v.b.#.p t ~.S Z.~.(.5.(.r.",
"6.F  +V.'.i.u.6.g.'.f.3.$.'.g.i.t.I.!.#.t.g.'.i.g.O.)+W.f.f.O :.x.i.y.{.X r ~.R S X n.~.X o.z.r.",
"m.R :.V.2.u.w.u.&.4.c.6.2.6.%.2.'.f.'.2.v.6.f.+.e.O.W.v.`.t.:.{.6.t.t.~.Z W ~.X :.:.5.p ~.{. +Z.",
"%.r.z.u.o.&..+N.o.!.f.e.H.$.{.$.,. .E {.v.&.&.'.2.o.i.6.6.v.v.o.{.:.x.{.:.X :.z. +{./.E {.v.x.~.",
"O t. +6.i.'.N.J.n.k.e.d.!.5.&.G 6.e.r #.e.&.&.6.e.6.6.W.k.v.n.+.{.r &.~.&+:.6.v.W.6.{.G %.#.&.$.",
"E o.W.f.K.y.W.e.~.#.2.,.%.~.%.F &.5.%.%.e.'.'.$.e.g.o.o.V.W.v.$.&.E 6. +2.{.{.`.v.W.o.6.(.5.~.f.",
"T '.O.M.O.v.t.$.E O v.o.n.o.2.R (.{.F #.$.g.J.d.g.e.i.6.t..+2.{.G O v.v.~.n.(.t.o.t.r.{.&.n.$.3.",
"5.&.K.O.o.2.2.;.d.#.2.&.2.i.2.%.%.~.$.,.O u.u.E.;.,.L. +z.O.g.e.$.&.%.#.2.2.6.o.'.$.{.{.&.6.E '.",
"`.e.K.N.6.&.k.f.i.6.2.g.!.g.+.2.~.%.E.K.k.2.M.6.&.g.J.k.u.v.].{.t.'.&.E F $.v.{.E ..O H r X {.$.",
"`.$.o.g.$.6.K.f.f.J.u.o.f.f.i.5.{.2.g.E.'.f.Q.o.2.6.u.e.6.%.5.:.~.x.$.O %.%.%.~.&.O J 6.#.p v.i.",
"t.t.{.{.$.o.6.&.;.J.t.i.f.e.o.6.{.%.&.g.,.E.o.u.g.2.g.K.g.&.O %.#.r.&.F R ~.X ~.F O g.6.v.~.r.&.",
"v.v.2.O &.O.g.$.+.f.O.v.%.u.6.2.5.@.f.g.E.J.J.g.f.g.g.O.f.!.~.{.$.n.%.r.o.{.(.5.~.&.6.n.:.Z z. +",
":+:.].r.(.g.E $.2.i.i.6.O 6.g.&.#.$.f.8.f.f.c.M.M.e.i.u.+.f.i.6.&.t.:.r.K.t.:.X 5.$.&.'.6.R E v.",
"~+b.t v.y.(.&.#.&.$.$.#.O &.E O R 6.J.3.g.g.+.8.,.i.O.'.!. .+.'.&.`.6.&.6.K.g.O R &.{.'.'.O S &.",
"t.x.k i.i.u.;.'.O.6.5.~.o.E F l ~.6.6.'.'.{.#.!.i.J.O.!.+.E O O {.t.,.F $.2.f.$.{.6.i.8.f.F J {.",
"(+6.i.E g.g.,.'.i.+.&.{.i.$.6.{.~.J v.n.5.k.&.'.E.M.-.g.$.O u &.n.6.'.+.%.&.6.$.S i.i.4.'.'.R R ",
"W.{.g.e.o.u.'.4.6.O #.2.o.2.5.t.%.5.~.o.u.6.6.o.e.J.i.e.$.S (.{.n.~.$.e.$.&.&.o.6.o.'.g.t.o.i.z.",
"W.t.v.i.v.`.;.g.i.f.g.'.M.$.n.n.6.n.o..+$.i.i.6.N.i.k.&.2.R t.n.2.6.%.r.O.o.&.i.f.g.g.e.&.i.2. +",
"t.W.&.6.u.o.$.i.6.6.H.;.8.e.o.g.g.2.o.6.%.6.3.6.6.o.v.2.v.:.:.x.2.n.6.:.v..+w.e.'.o.O.g.g.~.2.&.",
"6.`.o.6.'.&.i.6.&.&.g.f.,.L.t.2.i.W.W.6.t.n.4.t.V.{+s.e.{.v.v.r.2.2.o.:.i.t.6.o.v.v.t.+.#.X 2.o.",
"6.w.6.&.g.i.5.'.g.8.f.J.g.O.o.o.o.o.o.o.f.e.f.n.n.v.:.:.r. +v.o.6.$.t.t.o.e.o.W.n.~+t.2.(.5.v.n.",
"t.v.6.i.w.2.2.!.g.f.g.'.O.u.O.u.e.J.'.f.f.E.g.6.n.t.r.n.`.W.`.x.v.6.`.i.5.o.L.!+i.v.6.v.n.I.`.t.",
"6.&.n.5.o.t.R $.6.E.g.f.w.N.u.g.,.o.o.'.g.g.g.g.+.!.2.5.n. +o.o.{.t.o.J.J.e.e.W.O.w.6.t.5.t.O.O.",
"6.x.v.{+t.x.(.K.O.&.6.g.6.U.N.i.i.6.K.e.g.i.6.d.;.;.$.#.6.t.2.g.g.o.n.u.M.f.o.W..+.+u.v.x.N.t.v.",
",.t.v.v.2.w.`.O.e.i.i.o.t.N.g.i.K.6.i.2.e.6.5.!.g.o.#.%.r.:.{.,.$.n.`.t.K.I.v.n.)+<+ +{+`..+u.`.",
"5.v.W.&.&.u.t.2.O.t.6.o.!+t.3.i.$+K.2.2.i.&.{.1.$.&.#.%.:.{.r.O 6.r.{+W.i.;+r.r.)+`.2+)+.+[+K.i.",
"{.k.n.O F &.6.:.6.t.i.o.n.i.N..+;+W.n.o.i.n.%.#...!.$.H %.2.2.(.i.o.t.<+o.N.5.s.n.v.`.o.K.J.E.O.",
"v.~.V.~.2.6.o.t.o.`.o.i.'.g.J.N.U.i.n.k.k.6.E 2.,...!. .H O 5.&.5.t.t.N.K.i.n.v.n.p.n.I.f.E.i.K.",
"v.%.$.&.2.{.g.x.:.O.6.$.i.K.f.J.N.6.5.F ;.g.+.g.,.#.W O !.R %.6.`.v.n.K.6.v.W.n.v.t.n.T.$.,.E.g.",
"&.~.%.F 5.&.'.o.o.v.t.v.t.O.i.E.t.y.g.+.$.'.'.;.&.&. .1.#.~.R S r.5.6.,.t.o.J.!.2.t.5.{.$.'.'.c.",
"$.#.I.~.v.{.n.t.n.(.t.W.O.>+O.i.N.)+i.i.$.+.g.'.+.$.L X ].P X 2.r.6.2.2.6.t.J.k.{.t.t.v.2.O 6.E ",
"~.~.k.r.(.v.&+v.o.{.t.u.i.K.N.I.N.N.i.J.$.2.e.6.'.+.6.:.X %.%.o.v.v.2.,.2.t.,.e.(.i.O.v.~.{.{.].",
"x.t.2.v.z.(.`.v.u./.u.i.u..+K.o.O.g.N.K.i.e.2.'.$.2.6.R P {.6.n.~.(.6.,.n.O g.i..+v.o.O./.:._.{+",
"J.w.w.x.{+)+t.K.u.y..+t.6.g.2.t..+O.o.J.o.6.e.L %.5.2.r.b.:./.v.5.r.t.'.2.O v.i.O.)+n.t.v.:.g. +",
"u.u.u.z.)+/.i.k.W.x. +r.6.o.r.v.t.u.6.i.W.6.2.n.~.:.R ].z.:.S  +5.{.{.z.n.i.6.t.;+i.K.t.v.~+f. +"};
