/* XPM */
static char * 48_moon_grass_xpm[] = {
"48 48 255 2",
"  	c #000000",
". 	c #0D0B10",
"+ 	c #0C1019",
"@ 	c #0B1122",
"# 	c #141921",
"$ 	c #281611",
"% 	c #1B1B1D",
"& 	c #1E1B18",
"* 	c #131D2D",
"= 	c #191F27",
"- 	c #22252A",
"; 	c #1D2632",
"> 	c #1C272A",
", 	c #162B44",
"' 	c #372518",
") 	c #2E2725",
"! 	c #33271E",
"~ 	c #282A27",
"{ 	c #242C39",
"] 	c #292C31",
"^ 	c #232E30",
"/ 	c #442D17",
"( 	c #303337",
"_ 	c #203753",
": 	c #2C3642",
"< 	c #2C373A",
"[ 	c #3F332A",
"} 	c #443224",
"| 	c #343633",
"1 	c #3B3431",
"2 	c #36393E",
"3 	c #3F4040",
"4 	c #394451",
"5 	c #4B4043",
"6 	c #4D403C",
"7 	c #3D444A",
"8 	c #553F33",
"9 	c #4C4236",
"0 	c #47433D",
"a 	c #374846",
"b 	c #3A483D",
"c 	c #464848",
"d 	c #2F4D6E",
"e 	c #674C29",
"f 	c #365C27",
"g 	c #5A4F51",
"h 	c #475461",
"i 	c #455653",
"j 	c #614F43",
"k 	c #515352",
"l 	c #4C545A",
"m 	c #664F37",
"n 	c #57524B",
"o 	c #595246",
"p 	c #336519",
"q 	c #416E32",
"r 	c #6A5E60",
"s 	c #775D40",
"t 	c #58636D",
"u 	c #745D4F",
"v 	c #5F6261",
"w 	c #745E46",
"x 	c #6B6053",
"y 	c #66615A",
"z 	c #546663",
"A 	c #407223",
"B 	c #70604C",
"C 	c #726631",
"D 	c #496D90",
"E 	c #56752D",
"F 	c #59743D",
"G 	c #50764C",
"H 	c #487E1E",
"I 	c #488116",
"J 	c #47802D",
"K 	c #497E3E",
"L 	c #537C40",
"M 	c #517E31",
"N 	c #866A60",
"O 	c #65727C",
"P 	c #806D59",
"Q 	c #876C4E",
"R 	c #747069",
"S 	c #6F7170",
"T 	c #737163",
"U 	c #7A6F61",
"V 	c #846D54",
"W 	c #528A2E",
"X 	c #56893C",
"Y 	c #837B6D",
"Z 	c #7E7C77",
"` 	c #55911E",
" .	c #569027",
"..	c #618C33",
"+.	c #688941",
"@.	c #638B41",
"#.	c #519140",
"$.	c #5F8C4A",
"%.	c #618B54",
"&.	c #588E53",
"*.	c #55904B",
"=.	c #937C63",
"-.	c #6E876A",
";.	c #8D7D6F",
">.	c #8F7D68",
",.	c #648979",
"'.	c #6E8862",
").	c #798286",
"!.	c #7A837C",
"~.	c #5A9337",
"{.	c #5E9244",
"].	c #758C46",
"^.	c #599A1A",
"/.	c #9C8061",
"(.	c #738E58",
"_.	c #8C8475",
":.	c #87857F",
"<.	c #718A9F",
"[.	c #67926A",
"}.	c #5E9D3E",
"|.	c #659A4C",
"1.	c #6C9D37",
"2.	c #62A130",
"3.	c #6A9D42",
"4.	c #62A138",
"5.	c #739B50",
"6.	c #679E59",
"7.	c #719B58",
"8.	c #61A14F",
"9.	c #669E61",
"0.	c #789A50",
"a.	c #709B63",
"b.	c #A28C72",
"c.	c #9F8D78",
"d.	c #9E8D7F",
"e.	c #65A445",
"f.	c #7F987B",
"g.	c #92918B",
"h.	c #989081",
"i.	c #899397",
"j.	c #64A829",
"k.	c #6CA253",
"l.	c #68B121",
"m.	c #68AE4D",
"n.	c #6FAC4E",
"o.	c #6FAC5A",
"p.	c #69B517",
"q.	c #74AF46",
"r.	c #6AB434",
"s.	c #71B13F",
"t.	c #6DB247",
"u.	c #69B440",
"v.	c #73B235",
"w.	c #7BAE51",
"x.	c #7CAD5F",
"y.	c #6AB35E",
"z.	c #71B06A",
"A.	c #7DAD67",
"B.	c #7CAD71",
"C.	c #84AC60",
"D.	c #AE9E8A",
"E.	c #70B655",
"F.	c #A6A095",
"G.	c #8CA995",
"H.	c #77B556",
"I.	c #77B462",
"J.	c #9DA3A2",
"K.	c #80AE96",
"L.	c #BCA07F",
"M.	c #73BE3E",
"N.	c #95ADBC",
"O.	c #80BE41",
"P.	c #78BF53",
"Q.	c #77BF5C",
"R.	c #98B37C",
"S.	c #81BD5E",
"T.	c #76C528",
"U.	c #85B88C",
"V.	c #7FBD6A",
"W.	c #9DB46B",
"X.	c #78C34E",
"Y.	c #7AC537",
"Z.	c #78C26B",
"`.	c #96B690",
" +	c #83C250",
".+	c #80C077",
"++	c #7EC07F",
"@+	c #7CC746",
"#+	c #89C258",
"$+	c #8EBF6F",
"%+	c #8FBE78",
"&+	c #8EBE82",
"*+	c #91C064",
"=+	c #80CC18",
"-+	c #7FC663",
";+	c #BEAE9A",
">+	c #96BE70",
",+	c #9ABE65",
"'+	c #80C75A",
")+	c #87C931",
"!+	c #ACB3B3",
"~+	c #B6B1A6",
"{+	c #8AC565",
"]+	c #87C571",
"^+	c #8DCA4D",
"/+	c #84CD4C",
"(+	c #8FCB41",
"_+	c #8ACC76",
":+	c #8ECD61",
"<+	c #8CCD6B",
"[+	c #8ECE5A",
"}+	c #8ECC82",
"|+	c #99D122",
"1+	c #9CCF3B",
"2+	c #93CD79",
"3+	c #A0CE53",
"4+	c #9DCC7B",
"5+	c #9BCE6F",
"6+	c #9CCD85",
"7+	c #99D354",
"8+	c #A0D060",
"9+	c #9BCE8C",
"0+	c #9FD066",
"a+	c #99CE94",
"b+	c #A8CF74",
"c+	c #ACCE81",
"d+	c #C4C2B9",
"e+	c #CBC1AE",
"f+	c #B1CE74",
"g+	c #B5C6CB",
"h+	c #A0D0A4",
"i+	c #B4CD82",
"j+	c #ADCDA7",
"k+	c #ADCF91",
"l+	c #AAD09B",
"m+	c #AFD08C",
"n+	c #D7C2AA",
"o+	c #CBC89B",
"p+	c #A8D584",
"q+	c #BACE9D",
"r+	c #B5D09D",
"s+	c #CCCCAE",
"t+	c #B3D3BE",
"u+	c #ABDA92",
"v+	c #B2E081",
"w+	c #BADAB4",
"x+	c #B6E190",
"y+	c #D4D4C8",
"z+	c #C5D7DC",
"A+	c #B3E3A4",
"B+	c #BCE0A9",
"C+	c #C4E7C0",
"D+	c #B3E9EF",
"E+	c #F1ECDD",
"F+	c #FFFFFF",
"S. +{+]+%+2+S.x.$+$+V.R.A.%+$+I.H.2+$+S.<+%+5.C.k.S.I.A.A.V.A.&+x.S.A.o.%+4+4+%+S.P.'+P.x.I.I.P.",
"@+^+{+V.$+V.A.$+#+*+x.>+V.*+C.A.{+6+%+*+V.A.o.|.A.&+}+V.S..+V.%+x.H.I.V.V.#+$+A.A.q.O.S.S.B.A.Q.",
"@+#+S.w.%+&+&+V.S.P.x.&+w.H.A.o.k.B.B.f.G.G.G.J.!+!+`.B.B.V.}+V.I.n.I.C.S.q.Q.%+.+x.H. +M.$+%+$+",
"H./+Y.H.$+R.&+I.S.$+4+4+w.5.A.f.G.!+J.J.g.:.g.g.J.!+J.J.i.J.`.R.B.a.$+C.n.n.q.P.$+%+x.H.w.S.x.$+",
"P.X.Y.x.]+6+%+$+I.'+>+S.*+f.J.!+!+J.:.:.Y T y g k S i.g.g.g.:.h.g.`..+B.k.t.S.S.t.H.*+V.S.o.o.x.",
"Q.H.O.e.]+.+I.H.V.I.C.B.).i.i.).Z S t v n n k c n y Z :._.:.Z :.:.g.F.B.A.I.x.#+n.E.q. +H.S.V.x.",
"X.P.q.x.V.$+B.C.$+$+,.O O S k k n n k k k v S S T x S r T Y _._._.F.h.h.G.A.S.$+S.P.q.w.P.O.s.w.",
"S.#+n.x.a.n.V.}+&+-.O z k c 0 y x T Z !.R R Y ;.U x y y g o Y :.g.h.F.h.g.F.C.P.<+Q.o.k.5.P.n.P.",
"A.I.q.k.a.n.-+B.T v v l k l t v o v S Z Z Y _.;.Y U g c y y Y :.F.F.F.d.F.F.F.B.A.]+o.a.A.n.P.2+",
"9+I.n.V.6.q.B.G k c c t v n 1 c 0 1 c v v R h.T n o n 3 k Z Y g.D.h.F._._.Y Z F.R.H.B.A.C.I.k.V.",
"2+I.V.o.M.S.K 7 3 l v g n | 1 1 1 1 c i c v :.n ] | 1 3 ( 2 r F.F.h._._.Y c 3 T F.$+x.V..+x.V.o.",
"2+x.Q.n.H.|.] ( 2 v k 1 ~ - ] 1 2 2 3 i z c y c ] ( | 3 2 ] 3 R Z R g.D.F.k ( ( Y R.%+V.%+|.A.A.",
"5+V.I.V.n.q ~ 2 v y 0 - - ] ] ( | ] 2 3 v v k 3 ( ( 2 3 2 ( ( v R k r g.e+F.3 ] y h.R.s.$+A.z.V.",
"*+V.$+$+L & ~ 2 n o 1 - - ; { ( ( ( 2 n c n y k - ] ( 7 ( ( { 4 k 3 2 y _.F.h.g T _.h.x.B.A.A.$+",
"x.e.%+$+f % - ( c c ] ] ] ; { { ( ( k y l k S y ~ ( ( 3 3 < : , { ^ ; ] c Y g.D.d.Y Z R.a.I.%+%+",
"V.k.A.7.~ % = ( 3 ( ] ] ; ( ] ( 7 7 c k v Z _.n 3 c c v S i : { : { ; ; 2 y g Y d.h.Z g.I.A.%+_+",
"o.V.&+L % = - ] ] ( ( { ( ( ( ( ( ( ( ( k v v c 3 v k k v < ; { : { { { 2 c g 2 n r S :.a..+%+A.",
"k.{+%+F # = ] ] ] ] < { { < ( 2 | 2 3 c v v c < { 2 3 k S 3 * { { ^ < 3 ( c n ( { 2 y Y -.o.n.w.",
"|.S.S.q # > < < 2 ] - < 3 < 3 2 2 3 c i k c 2 < ^ - 2 S S l { { ^ ] 2 r y y c 2 ] 2 n Z _.I.I.X.",
"2.n.x.~ + - 4 4 < ^ ^ ( 3 2 2 2 c l l 7 < - 3 k c c k R Z z h : ; { < g.h._.y 3 ( 2 y _._.A.n.q.",
"A.w.X + + = h 4 : ^ - ] 3 i v z z h z 4 < 3 k v v Z Z J.i.S t h l l 2 Z :.;.r 3 < 2 Y ;+h.A.e.n.",
"<+E.L + # = { { { : ] ( l z k S Z l h 4 ] ( v v t S :.g.J.!.!.i.g.Z 7 v :.F.g.S c 3 y h._.f.a.k.",
"$+n.L # + # = ; ^ 2 2 ( 2 z v Z !.l 2 7 ; ] 2 3 7 v Z :.Z Z :.J.!+R c k R Y h.g.R r k R Z h.$+S.",
"V.S.K + + # = > - 2 7 2 ( 7 k l c 7 2 2 < 2 i 7 3 y Z :.Z Z Z J.J.:.Y Z S c T h.g.!.k S Z F..+o.",
"V.$+L + # + # > ^ : l h < 7 i h l i 2 < : 7 t t r T S :.J.:.Z i.J.F.~+g.z 2 v d.R v v i.Z f.&+%+",
"a+B.&.+ + + # # = 2 h z 2 2 3 i k l k c i t ).S Z S R Z g.Y :.J.g.F.d+~+v 2 | Y R y S :.Z f.3.$+",
"&+`.q # + # % = = ] 2 c ] 2 1 3 | 2 c n 7 l S T r y T T Z Y Z :.Y :.F.~+h.v U y Y Z Z F.h.f.a.x.",
"V.%+q = # = % % > = ( ] ] ] | 3 ] 0 o n 3 ] c T R y y T U Z g.Z Y :.h.h.F.Y ;.Y h.F.J.~+h.a.6.x.",
"9+I.|.( ~ # + % % = - = > ] 2 5 3 2 0 y k 2 2 k g U U R Z Y _.Y Z Y Y F.F._._.Y h.!+g+J.D.7.9.o.",
"{+A.n.b 1 & + # = = = - - ] 2 v 3 ] ] | c k 2 c g Y >.R Z U Y :.g.Y _.J.d.h.;.c._.~+z+!+h.S.S.2+",
"<+V.I.F 0 ) % # - - - = ] ~ | 0 3 ] 2 3 2 3 ] ^ v Y U u U P _.g._.Y g.h.;.b._.h.h.~+!+h.f.P.E.%+",
"S.]+H.|.c 1 ) % % = = = ] - - - ^ c k ( 2 ( ] ] l S Y Y h.Y F.g.Y _.F.d._.>.;._._.F.F._.x.x.H.o.",
"x.<+S.n.o ~ 0 ) % - - ~ 3 c 3 ( ] c l 3 2 < ] - 2 v Z g.F.D.d.;.Y g.h._.Y ;.;.c.g.h.;.>.k.a.x.S.",
"I.$+H.w.L ) 5 6 1 ( | 1 c g 2 3 3 c i l 7 { ] - ] v i.g.F.F.h._.g._.;.Y h._.D.D.D.;.c.(.A.o.$+V.",
"C.$+S.H.x.b 0 n g 3 1 0 n g 2 = n n 2 a 2 { ^ 2 g :.J.!+F.h.h.h.:.:.h.h.;.b.D.;+d.c.>.V.V.-+<+S.",
"H.x.V.A.S.(.| 1 5 6 6 6 B 0 # # - 1 n 3 c l v y Y F.!+d+F.F.F.h._.d._._._.D.D.D.c.;.7.$+I.S.{+#+",
"x.%+B.}+V.$+F ) 6 j 6 o j 5 - = - 6 x c o T g.:.g.J.~+~+~+F.h.F.;.>.N =./.b.d.>.b.(.S.]+$+#+S.{+",
"t.V.V.V.H.$+C.q 6 x x x j x 6 1 0 6 x 3 3 y R :.g.F.F.F.F.F.F.h.;.;.b./.b.c.c.b.c.$+%+4+$+<+{+_+",
"I.V.{+n.w.S.V.|.| n y B u P N u o o j x x r R :.g.g.F.d.D.F.F.F.c.>.b.b.b.c.c.c.R.]+2+}+<+2+ +P.",
"x.Q.V.k.k.H.H.V.%.| 1 n x B P x 6 6 x P x T r Z _.F.g.D.F.g.h.h.;.>.c.>.b.D.D.R.B.$+_+S.'+ +X.{+",
"V.I.]+A.I.S.S.V.S.7.f 1 6 9 j B o o j N U x y T Y _.F.F.d.h.;._.h.h.h.d.D.;+B.$+I.V.V.-+M.X.S. +",
"$+o.m.n.o.x.P.%+B.#+k.f 1 9 n 6 o j o g x x x x N ;.c.d.c._._._.d.d.D.F.R.>+*+V.]+{+V.V.m.q.X.H.",
"o.I.o.e.A.o.q.S.S.V.S.V.%.b 1 6 8 j j 0 6 x B B P Y ;.d.F.F.c.d.F.~+~+R.V.S. +E.w.V.I.I.k.w.P.t.",
"o.o.Q.x.V.x.x.S.{+A.S.*+{+o.F 9 9 8 8 j o o x u P Y Y _.F.F.d.J.!+`.A.H.H.V. +I.x.V.V.V.o.k.x.n.",
"A.x.I.$+A.$+&+V.Q.x.S.S.P.S.#+o.0.+.o 6 j B r U R Z Y :.:.i.f.U..+V.I.t.H.{+s.P.A. +{+$+A.x.x.B.",
"$+A.H.V.&+A.$+]+S.A.S.S.S.{+S.S.{+H.w.3.|.F G G T T -.a.'.A.A.V.A.A.S.t.I.k.H.S.*+$+S.#+C.B.w.&+",
" +{+$+%+6+%+V.P.S.>+*+V.H.H.H.{+$+*+S. +S.H.P.|.o.I.o..+B.B.C.A.z..+A.H.H.6.V.S.{+2+V.V.V.V.q.%+",
"S.#+{+&+}+A.S.Q.$+%+&+.+x.S.%+$+{+S.I.S.$+H.H.I.A.I.6.z.&+B.7.%+I.x.A.%+{+S.x.C.<+#+S.S.A.}+n.2+"};
