/* XPM */
static char * 48_moeda_5_escudos_grass_xpm[] = {
"48 48 255 2",
"  	c #000000",
". 	c #1D1A14",
"+ 	c #2B2822",
"@ 	c #38362F",
"# 	c #424039",
"$ 	c #314D2C",
"% 	c #494841",
"& 	c #505049",
"* 	c #544F49",
"= 	c #395D36",
"- 	c #336123",
"; 	c #3F5E26",
"> 	c #575750",
", 	c #5C5650",
"' 	c #5D5E43",
") 	c #396D1B",
"! 	c #605F52",
"~ 	c #5F5F57",
"{ 	c #645E57",
"] 	c #407028",
"^ 	c #486C43",
"/ 	c #407033",
"( 	c #4E6D34",
"_ 	c #66665E",
": 	c #6B655F",
"< 	c #577631",
"[ 	c #547829",
"} 	c #627059",
"| 	c #66732B",
"1 	c #467E2A",
"2 	c #736C66",
"3 	c #6D6E66",
"4 	c #6F6E60",
"5 	c #4E7D2B",
"6 	c #408135",
"7 	c #667352",
"8 	c #4E7D3C",
"9 	c #4E7E35",
"0 	c #4D7E44",
"a 	c #557B50",
"b 	c #5B7B41",
"c 	c #49861F",
"d 	c #5C8023",
"e 	c #528423",
"f 	c #7A736D",
"g 	c #767567",
"h 	c #6F7953",
"i 	c #75756D",
"j 	c #777763",
"k 	c #5A8C35",
"l 	c #508F38",
"m 	c #598C3C",
"n 	c #4C8F49",
"o 	c #648939",
"p 	c #4E8F43",
"q 	c #588C42",
"r 	c #827B74",
"s 	c #7C7D74",
"t 	c #7C7E69",
"u 	c #588C49",
"v 	c #7E7D6F",
"w 	c #618A42",
"x 	c #5A8B50",
"y 	c #608A48",
"z 	c #678848",
"A 	c #78815D",
"B 	c #668851",
"C 	c #55922D",
"D 	c #5E8C5E",
"E 	c #6D8C46",
"F 	c #59981C",
"G 	c #5A9725",
"H 	c #609433",
"I 	c #679232",
"J 	c #85847B",
"K 	c #8A837C",
"L 	c #7F8965",
"M 	c #5C9A35",
"N 	c #709068",
"O 	c #659941",
"P 	c #5D9C44",
"Q 	c #599C55",
"R 	c #5B9C4F",
"S 	c #719646",
"T 	c #649954",
"U 	c #62995C",
"V 	c #659A48",
"W 	c #6C9754",
"X 	c #649A4E",
"Y 	c #6E974E",
"Z 	c #6A975D",
"` 	c #73955B",
" .	c #68A13D",
"..	c #6C9C6D",
"+.	c #62A71F",
"@.	c #938F89",
"#.	c #949082",
"$.	c #8A9571",
"%.	c #6BA433",
"&.	c #64A72C",
"*.	c #99907E",
"=.	c #63A735",
"-.	c #63A73C",
";.	c #62A744",
">.	c #7DA041",
",.	c #6EA844",
"'.	c #72A64D",
").	c #71A653",
"!.	c #69A94D",
"~.	c #68A954",
"{.	c #72A560",
"].	c #74A55A",
"^.	c #6DA668",
"/.	c #67A95B",
"(.	c #6EA75A",
"_.	c #6BA861",
":.	c #7CA452",
"<.	c #7AA369",
"[.	c #7BA461",
"}.	c #7DA45A",
"|.	c #85A353",
"1.	c #919E68",
"2.	c #6AB338",
"3.	c #6DB23F",
"4.	c #6DB247",
"5.	c #6DB24E",
"6.	c #76B04C",
"7.	c #6CB72E",
"8.	c #76B42F",
"9.	c #6CB91E",
"0.	c #78AE7C",
"a.	c #76B53B",
"b.	c #7CB443",
"c.	c #87AC80",
"d.	c #A4A198",
"e.	c #9BA681",
"f.	c #70B75A",
"g.	c #77B559",
"h.	c #71B66E",
"i.	c #6DB867",
"j.	c #6FB860",
"k.	c #76B660",
"l.	c #78B566",
"m.	c #7FB459",
"n.	c #7EB460",
"o.	c #7CB46C",
"p.	c #81B366",
"q.	c #7AB474",
"r.	c #71BC40",
"s.	c #8AB167",
"t.	c #89B16D",
"u.	c #8AB25F",
"v.	c #74BB48",
"w.	c #88B176",
"x.	c #93B05F",
"y.	c #74BB4F",
"z.	c #74BB56",
"A.	c #A0AC74",
"B.	c #7FB954",
"C.	c #75C43A",
"D.	c #76C52D",
"E.	c #78C71E",
"F.	c #77C270",
"G.	c #80C43E",
"H.	c #82C52F",
"I.	c #84C063",
"J.	c #7CC35D",
"K.	c #83C06A",
"L.	c #7AC550",
"M.	c #79C557",
"N.	c #7BC649",
"O.	c #7BC279",
"P.	c #87C15C",
"Q.	c #7CC465",
"R.	c #83C171",
"S.	c #7BC46B",
"T.	c #84C17A",
"U.	c #82C559",
"V.	c #84C653",
"W.	c #88C08D",
"X.	c #82CE0C",
"Y.	c #B5B1A9",
"Z.	c #89C74D",
"`.	c #94C16C",
" +	c #90C17B",
".+	c #97BD91",
"++	c #8FC183",
"@+	c #ACB791",
"#+	c #92C275",
"$+	c #8EC655",
"%+	c #9CBF75",
"&+	c #A2BD82",
"*+	c #98C084",
"=+	c #9BC07B",
"-+	c #8ACD25",
";+	c #97C461",
">+	c #83CA64",
",+	c #8CC76A",
"'+	c #9FC262",
")+	c #85CD40",
"!+	c #8BC771",
"~+	c #8FC95E",
"{+	c #8EC965",
"]+	c #8DCA7A",
"^+	c #91CD49",
"/+	c #94CE3C",
"(+	c #8CCB84",
"_+	c #8DD603",
":+	c #97D02A",
"<+	c #91CF67",
"[+	c #94CE71",
"}+	c #93CE77",
"|+	c #97D057",
"1+	c #97D05E",
"2+	c #A1CF4D",
"3+	c #AEC77E",
"4+	c #A0CD73",
"5+	c #9FCD79",
"6+	c #B1C877",
"7+	c #9BD06A",
"8+	c #9ECD86",
"9+	c #9CCD8F",
"0+	c #9FCE80",
"a+	c #ABCC78",
"b+	c #97D282",
"c+	c #9FCE9D",
"d+	c #A8CD88",
"e+	c #AACD82",
"f+	c #A6CD91",
"g+	c #96D38C",
"h+	c #B1CB88",
"i+	c #A6D16C",
"j+	c #AFCC93",
"k+	c #B3CE6D",
"l+	c #C8C1BB",
"m+	c #C3C5BB",
"n+	c #B1D0A3",
"o+	c #B0D1B0",
"p+	c #AED982",
"q+	c #C4CFAB",
"r+	c #BAD58B",
"s+	c #B0D993",
"t+	c #B0DA8C",
"u+	c #B9D69C",
"v+	c #B1DB9E",
"w+	c #D2D5CA",
"x+	c #B5E1AF",
"y+	c #DAD3CD",
"z+	c #BEDFB1",
"A+	c #C0E0BE",
"B+	c #EAE8E0",
"C+	c #F5F4EE",
"D+	c #FBF7E8",
"E+	c #FDFDF3",
"F+	c #FFFFFF",
"J.V.K.R. +#+n.n.!+#+s.*+t.#+#+n.g.#+w.I.{+ +X u.W p.l.o.[.R.o.++{.n.p.{.w.0+5+t.J.L.U.L.{.p.k.L.",
"G.Z.I.I.s.s.p.t.P.`.}.=+s.;+u.p.I.5+ +p.p.t.{.!.o.T.++K.k.R.R.R.{.g.k.K.R.P.t.p.o.6.L.B.n.w.o.B.",
"b.$+U.v.#+ +++p.P.V.].*+m.B.p.].6.n._.V n.g.].5.o.l.o.(.l.n.*+p.l.6.n.s.u.6.m.R.T.n.6.V.a.p.w.,+",
"m.N.C.m.`.++c.l.I.`.&+=+6.).p.k.).].~.(.5.4.6.!.^.{._.k.k.I.++p.o.{.t.t.g.'.'.z.K.R.}.m.g.m.].s.",
"B.B.r.g.R.++w.R.p.U.%+m.P.p. +o.[.K.k.W 6.v.B.K.<.w.[.n.l.U.J.[.l.w.p.o.W ,.m.m.4.g.`.s.m.g.].[.",
"I.6.N.!.T.q.{.g.o.l.p.`.I.t.t.K.t.R.n.l.B.C.P.0+*+c.W ].t.B. +n.{.K.t.k.l.{.n.P.,.5.,.B.m.I.K.].",
"y.M.v.n.K.K.p.}.t.t.p.0+p.K.`.%+8+K.g.t.,+b.p.I.o.w.n.t.m.J.}.s.g.K.!.l.{.(.I.,+m.B.v.B.y.b.4.B.",
"I.P.'.m.{.6.t.*+*+#+ +!+n.5.W p.++#+z.n.B.y.J.B.K.w.n.m.6.5.6.,+].t.p.(.[.{.r.y.,+m.).).Y B.5.B.",
"p.g.,.).{.5.I. +].B.#+g.I.J.(.).I.n.J.l.X W B B b B Y ].[.g.K.n.m.6.6.k.l.6.I.n.n.K.].<.<.:.M. +",
"8+n.).t.W 6.#+n.6.v.p.K.).B.l.k.k.<.` v @.@.@.@.d.d.d.d.J ` W '.n.n.K.n.(.X w.p.m.g.o.<.p.n.X p.",
" +p.o.g.v.J.!.6.k.g.n.g.V k.o.{.N J d.d.@.K K K K K K #.d.Y.d.A w.I.o.{.o.w. +++#+K.l.o.t.l.o.[.",
" +[.k.!.B.).m.g.K.I.).g.k.].` J d.d.K s i i 3 i i 3 3 _ 3 s d.m+@.` U ~.o.++ +).t.#+ +K. +V p.[.",
"[+p.l.o.g.R.g.B.B.B. .g.g.N @.Y.@.f f J f f i v f 3 3 i 2 3 : r Y.Y.L l.l.{.{.W [.t.t.,.R.[.<.t.",
"s.K.#+t.g.n.6.m.B.v.5.5.L d.d.@.@.K K J f r K J s s i i r r : v r @.Y.c.w.(.B W p.{.T.l.p.l.<.t.",
"m.!. +t.6.g.I.m.6.6.y.[.@.d.J J @.d.d.J s v d.d.@.K f f r @.@.@.f i d.Y.N V <.T ` {.p.{.[.n.w.R.",
"K.Z t.R.g.P.I.I.g.a.].K d.K r r g 2 _ g f r f 3 g i f f g : 3 3 _ 3 i d.Y...^.Z <.<.l.z {.<. +T.",
"(.w.++u.U.m.,+Z.I.g.L d.K r s K @.r K s r s K @.K i f v J J K r i i i s Y.d.<.c. +<.u.V p.R. +l.",
"~.K. +].B.6.P.V.o.<.@.@.J J s K #.#.@.K r s K @.J J s J K d.d.d.r i i s K m+<.t.!+n.].Y {.(.).'.",
"V I.,+v.P.t.,+z.l.$.d.J f f v J g v f J K K J s i J #.s r f s f g K 3 2 s d.e.!+t.,+J.n.p.o.p.v.",
"=.5.{+G.U.#+K.,.X @.#.@.f : @.r f r i s @.@.i f s g s @.i 2 2 2 3 #.@._ K @.d.t.P.s.T.k.).p.'.6.",
"l.).U.I.J.g.).3.<.J K @.d.d.J K i 2 3 i K s s @.K s i i i J J K s K d.d.#.J d.w.6.'.p.].).m.V 6.",
",+z.I.P.g.6.J.v.$.r K d.m+Y.d.@.d.d.#.K s : 2 i 3 i 2 : 3 f s r s J d.Y.d.@.@.$.'.,.). .X {.[.).",
"K.6.n.B.'.].P.6.$.r J K d.@.K J f f _ i s J 3 i s _ 3 s _ : _ _ { i @.@.#.J @.J ].).).[.).X t.I.",
"K.p.n.n.'.m.m.6.K K K r s s r K d.@.@.@.@.K @.@.r @.#.J @.K #.@.s i J r J J @.K ~.).6.g.t.{.w.).",
"K.K.z.).(.I.g.).J J J i i i s J #.K K K #.#.i g 3 ~ i K s K #.#.J i s s J J d.K l.).g.p.o.<.*+ +",
"c+t.n.w.o.g.!.).K r J i i 3 i r K r r J K K f i : 3 4 J J 3 v r r i i i r J @.J l.!.g.g.n.(.O t.",
"*+c.W t.R.p.g.(.J r J r J : _ r K r v f K K K f J J i K s f r K #.@.3 : K J @.v (.).m.6.6.W {.[.",
"K.#+w B.J.m.3.6.$.s s s @.K K v @.J v J : 3 J @.@.@.r 3 r @.r #.J d.d.@.@.K J N n.n.B.C.v.V T ].",
"9+m.B.V B.v.4.6.w.i K K Y.Y.d.@.r d.Y.@.: J : 2 f J i @.3 d.d.K s @.Y.Y.J J J ` ].z.P.a.,.6.(.].",
",+p.z.g.P.I.6.3.p.f s v K d.d.g f f @.#.K #.K g : i @.r @.K K i s J d.d.K J s p.k.n.6.B.I.I.B.#+",
"{+p.K.n.K.#+3.6.m.$.3 s s s s 2 : 2 f @.d.@.s : _ _ i d.@.K 2 i i f f K s #.j m.b.y.y.y.).B.g. +",
"I.,+g.g.P.I.5.B.m.c.2 J i 2 2 _ _ ~ ~ _ 4 s K r _ s K f 3 _ 3 3 i v s r s i 1.g.6.J.P.y.6.[.g.g.",
"n.!+J.m.).:.m.k.).p.v _ 2 3 3 _ ~ ~ i : 3 _ ~ i @.2 > ~ ~ _ _ : _ f s s 3 j <.n.K.t.I.,.).{.g.n.",
"u.,+m.6.6.B.p.y.y.r.w.i { 3 : _ _ _ s s f > , > * : { ~ _ 2 J K 3 3 i 3 ~ ` I.{+K.(+I.g.l.].t.K.",
"s.!+P.g.s.g.n.5.6.v.z.$._ ~ 3 _ : J ~ ~ _ s 2 > _ i J ~ 2 3 _ s r i 3 ~ N n.L.[+z.K.k.K.Q.Q.#+I.",
"m.].p.p.I.,+(.!.g.N.B.n.#.~ { f i _ 3 : J { , ~ ~ > s _ s J _ 3 J i ~ A P.g.k.!+P.,+n.K.k.I.I.P.",
"g.t.t.(+K.#+p.U.P.).g.z.<.#._ ! i r i i 3 i _ s 3 > 3 i s J s s 2 ! L s.G.y.m.`.,+`.I.K.#+P.I.R.",
"5.K.R.K.g.`.#+P.M.B.m.I.s.`.e.2 & > ~ _ K K J _ r r v J : _ _ ~ ~ L R.I.U.U.K.p. +}+#+0+#+`.I.!+",
"k.K.,+].).u.p.g.I.I.B.p.`.I.B.e.#._ & * , _ > > > ~ ~ ~ > > > j $.R.*+K.B.,+T.T. +,+]+ +,+[+L.B.",
"k.J.o.).'.g.g.p.n.I.m.I.p.g.$+{+5+*+#.i ~ & % % & & * > 3 s <.t.z.n.p. +m.P.k.T.o.K.!+I.P.V.N.~+",
"K.o.R.o.k.n.B.K.I.!+n.m.5.y.L.U.Z.n.#+w..+e.#.@.J #.#.c.{.{.l.g.p.I.K.U.B.B.l.R.o.q.Q.I.v.N.J.V.",
"K.(.!.).g.n.y.T.o.P.g.).B.V.v.Z.~+n.k.!.3.v.,.z.5.(./.T !.(.{.n.#+K.n.U.n.,+`.p.w.K.K.K.!.4.N.v.",
"(.{.].!.l.].'.n.B.p.s.t.I.P.B.G.{+`.B.,.).6.6.4.g.g.P f.(.l.U W #+n.g.4.I.m.L.y.6.K.l.k.).6.6.3.",
").(.J.{.o.[.p.I.I.[.s.{+I.{+P.B.$+=+B.B.6.,.v.6.,.!.~.<.<.{._.k.#+n.z.g.m.I.L.k.n.I.Q.K.k.).n.,.",
"l.l.k.R.l.t.*+K.B.[.p.P.g.P.P.J.U.P.B.P.6.g.z.m.6.!.g.o.<.{.g.n.t.o.g.4.g.Q.3.z.K.B.{+K.o.k.k.l.",
"#+p.k.R.++p.!+K.I.p.p.B.P.,+B.I.I.m.P.U.B.6.g.5.!.f.n.(.Z [.l.o.o.p.n.6.p.).g.B.,+K.I.P.p.w.m.++",
"B.,+t. +*+ +p.B.I.#+`.p.m.g.g.I.`.I.P.N.P.m.z.X _.l.k.R.w.<.n.t.l. +t.g.g.W t.m.P.}+p.p.o.o.y. +",
"P.m.I. +*+p.M.J.!+ +++w.[.n.T.K.K.P.n.m.{+g.g.I.o.<.Z ^. +q.W T.l.m.n. +K.m.}.t.`.P.B.I.o.*+6. +"};
