/* XPM */
static char * 48_wall_xpm[] = {
"48 48 255 2",
"  	c #000000",
". 	c #050803",
"+ 	c #090C08",
"@ 	c #101310",
"# 	c #14160D",
"$ 	c #151714",
"% 	c #181A18",
"& 	c #1C1C15",
"* 	c #191E17",
"= 	c #1D1F1C",
"- 	c #1C2014",
"; 	c #212320",
"> 	c #1F251D",
", 	c #232615",
"' 	c #222619",
") 	c #24251E",
"! 	c #242624",
"~ 	c #282A28",
"{ 	c #2B2B24",
"] 	c #292D20",
"^ 	c #282E26",
"/ 	c #2D2F2C",
"( 	c #2F2F28",
"_ 	c #303523",
": 	c #323431",
"< 	c #30362E",
"[ 	c #34352D",
"} 	c #33372A",
"| 	c #373936",
"1 	c #3A3C39",
"2 	c #393F2C",
"3 	c #3B4032",
"4 	c #3A4037",
"5 	c #3F3F38",
"6 	c #3F413E",
"7 	c #3F482D",
"8 	c #434739",
"9 	c #444644",
"0 	c #45483F",
"a 	c #434A36",
"b 	c #4A4F41",
"c 	c #485137",
"d 	c #4C4E4C",
"e 	c #4E513E",
"f 	c #49533E",
"g 	c #4E5148",
"h 	c #4A5736",
"i 	c #515350",
"j 	c #575A52",
"k 	c #565B4C",
"l 	c #585A57",
"m 	c #555D43",
"n 	c #545D48",
"o 	c #535F3E",
"p 	c #5E615E",
"q 	c #606159",
"r 	c #5C6449",
"s 	c #5C644F",
"t 	c #5E6354",
"u 	c #5D6847",
"v 	c #5F665C",
"w 	c #646663",
"x 	c #61694E",
"y 	c #606954",
"z 	c #5F6B43",
"A 	c #656854",
"B 	c #66675F",
"C 	c #656A5B",
"D 	c #656E53",
"E 	c #646E58",
"F 	c #676E64",
"G 	c #657149",
"H 	c #627344",
"I 	c #6B6D6B",
"J 	c #6B6F5A",
"K 	c #65724F",
"L 	c #6D6E66",
"M 	c #6B7061",
"N 	c #62754B",
"O 	c #68725C",
"P 	c #697357",
"Q 	c #717460",
"R 	c #6E756B",
"S 	c #707566",
"T 	c #6B7855",
"U 	c #6D7850",
"V 	c #6E775B",
"W 	c #737572",
"X 	c #6E7861",
"Y 	c #75756D",
"Z 	c #74796A",
"` 	c #6F7C59",
" .	c #6B7E54",
"..	c #727B5F",
"+.	c #6D7E4E",
"@.	c #747B71",
"#.	c #727E55",
"$.	c #787B67",
"%.	c #787A77",
"&.	c #737D66",
"*.	c #7A7A72",
"=.	c #707F62",
"-.	c #787D6D",
";.	c #73805D",
">.	c #777F63",
",.	c #77835B",
"'.	c #748555",
").	c #7D7F7C",
"!.	c #78826C",
"~.	c #7F7F77",
"{.	c #7A8177",
"].	c #7C8171",
"^.	c #74865C",
"/.	c #788662",
"(.	c #7C8569",
"_.	c #788953",
":.	c #79886A",
"<.	c #7C885F",
"[.	c #808576",
"}.	c #828570",
"|.	c #798A59",
"1.	c #7D8770",
"2.	c #7F867C",
"3.	c #838582",
"4.	c #85857C",
"5.	c #7D8A67",
"6.	c #80896C",
"7.	c #868985",
"8.	c #858B7B",
"9.	c #848B81",
"0.	c #828D76",
"a.	c #898A81",
"b.	c #7F8F70",
"c.	c #818F6B",
"d.	c #838F65",
"e.	c #888C77",
"f.	c #7F9160",
"g.	c #81915A",
"h.	c #858E71",
"i.	c #7D935B",
"j.	c #898C89",
"k.	c #7F9267",
"l.	c #87917A",
"m.	c #8E8E86",
"n.	c #899086",
"o.	c #8B9080",
"p.	c #8D8F8C",
"q.	c #879571",
"r.	c #8C9578",
"s.	c #879778",
"t.	c #93938B",
"u.	c #8F9585",
"v.	c #8E958B",
"w.	c #889A68",
"x.	c #919490",
"y.	c #8A9A63",
"z.	c #859C63",
"A.	c #939681",
"B.	c #8E9881",
"C.	c #8E9A70",
"D.	c #899C70",
"E.	c #8B9B7C",
"F.	c #899F60",
"G.	c #8E9C78",
"H.	c #929B7E",
"I.	c #969895",
"J.	c #98988F",
"K.	c #929A8F",
"L.	c #949A8A",
"M.	c #91A270",
"N.	c #969F82",
"O.	c #9A9C99",
"P.	c #989E8E",
"Q.	c #9B9E88",
"R.	c #90A46C",
"S.	c #9C9D94",
"T.	c #96A089",
"U.	c #979F94",
"V.	c #94A27E",
"W.	c #97A379",
"X.	c #92A579",
"Y.	c #9D9F9C",
"Z.	c #92A868",
"`.	c #9BA386",
" +	c #9DA292",
".+	c #A2A29A",
"++	c #9DA49A",
"@+	c #97A977",
"#+	c #A1A3A0",
"$+	c #9DA68F",
"%+	c #9EA88A",
"&+	c #9CAA85",
"*+	c #A2A797",
"=+	c #A5A8A4",
"-+	c #A1AB93",
";+	c #A8A8A0",
">+	c #9BB170",
",+	c #9FAF81",
"'+	c #9CB177",
")+	c #A5ACA2",
"!+	c #A9ABA8",
"~+	c #A4B18C",
"{+	c #A9AE9E",
"]+	c #A6B092",
"^+	c #A7B099",
"/+	c #ABAEAA",
"(+	c #ADAEA5",
"_+	c #B1B3B0",
":+	c #AAB893",
"<+	c #AEB5AA",
"[+	c #ADB799",
"}+	c #A6BC81",
"|+	c #AEB7A0",
"1+	c #AABA8C",
"2+	c #B1B6A6",
"3+	c #A8BD7D",
"4+	c #B5B5AC",
"5+	c #B6B9B5",
"6+	c #ACC388",
"7+	c #B4BFA0",
"8+	c #B1C390",
"9+	c #BABDBA",
"0+	c #B4C29C",
"a+	c #BFBFB6",
"b+	c #B9C1B6",
"c+	c #BBC1B1",
"d+	c #B7C598",
"e+	c #BAC3AB",
"f+	c #B9C5A6",
"g+	c #C0C2BF",
"h+	c #BECCA6",
"i+	c #BCCE9A",
"j+	c #C4C9B9",
"k+	c #C6C8C5",
"l+	c #C2CBB3",
"m+	c #C2CCAD",
"n+	c #C0CEA1",
"o+	c #C3CBC0",
"p+	c #CBCBC2",
"q+	c #CBCDCA",
"r+	c #CDD2C1",
"s+	c #CBD4B9",
"t+	c #D0D3CF",
"u+	c #D5D5CC",
"v+	c #CFD7CC",
"w+	c #D3D9C8",
"x+	c #D5D8D5",
"y+	c #D9DFC7",
"z+	c #DCDEDB",
"A+	c #D8E0D4",
"B+	c #DBE1CF",
"C+	c #E0E0D7",
"D+	c #E0E3DF",
"E+	c #E6E9DF",
"F+	c #E8EAE7",
"2 e y M R v F F I I w w w F I W I w I I Y W Y l | p v B C q t t k s t k k t v B C y r C L y C e ",
"b r.^+4+g+!+5+g+g+9+_+_+_+9+k+k+9+_+_+5+g+g+o+;+l #+{+|+|+{+ +*+N.`.-+$+T.T.$+[+e+7+1+m+l+7+s+-+",
"5 o.L.O.I.p.#+_+=+Y.#+#+#+<+5+4+Y.a.2.~.v.K.-+T.| ).m.t. +o.!.1.!.&.(.1.M x D h.V.W.,+]+%+*+e+)+",
"0 1.(.[.L.t..+!+.+=+/+5+4+;+S.K.v.[.Z Z -.8.`.N.6 2.P.J.U.o.9.o.1.1.1.X y y V /.G.H.G.V.H.N.[+$+",
"a &.1.[..+#+ +;+=+Y.#+<+<+{+n.[.[.-.M M Z &.N.H.4 -.u.u.t.a.2.v.o.8.[.Z S Z X 6.H.N.`.H.!.1.~+V.",
"3 &.l.K.O.S.P..+!+S.J.L.P.o.[.Z -.1.].1.&...G.q.: -.l.4.a.~.*.a.m.9.~.*.o.u.8.u.-+^+-+H.X S -+T.",
"( C n.O.v.t.U.++.+J.n.].Z S S M >.r.H.G.h.!.M.f._ O *.Y %.Y Y {.3.*.*.4.m.S. + +*+2+{+T.].Z $+$+",
"= l a..+I.t.K.L.v.o.[.Q E y O Z >.r.`.D.c.5.W.d.( x X E C L L F %.%.%.3.3.x.I.J..+<+(+U.v.n.*+ +",
"/ R m.J.J.t.a.a.l.[.S M O E E &.h.G.G.6.;.P C.d.} P c.X E R v j F %.3.7.3.3.3.j.#+!+=+#+<+5+j+!+",
"1 3.J.J.n.9.).u.L.1.O O P E X e.e.q.5.V P x q.q.} X q.h.>.R v j w %.p.x.3.%.3.x.O.#+#+=+k+q+A+4+",
"5 4.n.4.].S F [.t.!.s r x D V [.1.6...D r m /.h.^ s 6.V.h.O C t v ).J.x.j.7.p.I.j.x.j.=+9+k+x+5+",
"/ g g d 0 3 | b g 8 [ } 3 a 0 b g g 8 2 _ ' 8 y = / b A t b 4 4 6 i l p w w w F l l j w W %.I.I.",
"L v t i b k a a 8 e n 8 [ s s s s s t v j q l q l j t y C F B F I I R q d W %.%.%.W W W I W *.*.",
"e+*+P.B.(.l.b.;.5.c.V.c.e B.%+%+~+~+[+{+T.S.P.U.I.P.{+{+^+<+<+_+_+g+q+{+W g+q+q+t+k+k+k+g+9+c+a+",
"n.S y O Q V 6.,.q.;.G.r.] r <.q.D.X.%+0.V S ].9.%.W 3.j.7.a.m.7.j.Y.g+_+d Y.=+!+_+_+=+/+_+#+m.l.",
"8.M s C X >.l.q.N.(.G.C.] x ,.f.R.M.G.` ` 6.o.++K.3.Z %.).{.Y I ).x.9+_+d O.#+Y.#+#+O.)+<+/+U.1.",
"1.Z y y P (.0.c.V.c.@+D._ U w.z.R.W.5.` #.e.v.;+#+j.%.I I *.R I ).O.g+_+9 t.I.7.7.x.I.O.#+=+U.[.",
"&.[.!...V /.0.k.R.<.@+w.} #.C.g.R.q.` #.,.8.m.S..+u.@.q L ~.~.).7.I.g+_+9 2.3.W 2.x.O.O.I.m.4.].",
"m.t.r.}./.^.q.w.D.d.C.w._ U f.f.z.i.'.'./.].].u.u.[.Y q F 7.O.I.j.j.5+_+9 3.j.%.3.I.#+Y.m.~.W ~.",
"K.L.N.c.,.'.f.f.c./.z.f.) o '.z.M.D.f.<.h.-.X [.u.].[.~.R ;+!+S.7.j.a+<+d j.O.p.j.#+=+Y.x.p.).7.",
"6.r.G.f.<.,.,.` ,.^.g.|.- a T w.:+,+f.,.0.>.X !.h.e.o.x.p.^+^+P.n.P.l+<+9 3.I.O.Y.=+!+=+#+Y.j.*.",
"h.q.k.<.` ;./.P U ;.<.|.- a D <.r.<.+.;.0.5.=.l.N.`. + +o.$+-+P.u. +c+(+6 %.O.Y.#+!+!+/+_+/+U.-.",
"u.c.,.K r D D y x T d.<.- c G ` ` U U  .b.!.S [.N.N.%+N.$.6.r.r.1.l.2+!+| w j.I.O.I.I.=+9+5+.+a.",
"q n b 8 } } < | 3 8 m k % _ c m n e c f n g g g s r C v j b e k g k w Y ! 1 i p v l p w %.).Y v ",
"5 w C B B q t q j t v k k t B C M E r C L C M g 1 q L R W I I L W W I w w I R W I I I I W %.*.q ",
"j #+{+|+|+{+ +*+N.`.-+$+T.T.$+[+e+7+1+m+l+7+s+-+j ^+c+b+k+9+9+o+k+9+_+_+_+9+k+k+9+_+_+5+g+g+o+;+",
": ).m.t. +o.!.1.!.&.(.1.M x D h.V.W.,+]+%+*+e+)+6 u.P.S.Y.I.#+/+=+Y.#+#+#+<+5+4+Y.m.~.~.v.K.-+T.",
"4 2.P.J.U.o.9.o.1.1.1.X y y V /.G.H.G.V.H.N.[+$+9 8.0.8.I.S.#+!+.+=+/+5+4+;+S.P.t.[.Z S -.8.`.N.",
"| -.u.u.t.a.2.v.o.8.[.Z S Z X 6.H.N.`.H.!.1.~+V.6 ].0.8..+;+ +;+=+Y.#+<+<+{+n.4.4.-.S S Z &.N.H.",
": -.l.4.a.~.*.a.m.9.~.*.o.u.8.u.-+^+-+H.X S -+N.5 ~.o.K.O.S.P..+!+S.J.L.P.o.[.Z !.1.!.1.&...G.D.",
"^ O *.Y %.Y Y {.3.*.*.4.m.S. + +*+2+{+T.].Z $+P.< L m.O.v.t.U.++.+J.n.].Z S S M >.r.H.G.l.6.M.f.",
"] x X E C L L F W %.%.3.3.x.I.J..+<+(+U.v.n.*+ +! q m..+I.t.K.L.v.o.[.Q E y O S (.G.`.D.c.:.W.d.",
"} P c.X E R B j I ).7.7.3.3.3.j.#+!+=+#+<+5+j+)+: R m.J.J.t.a.a.l.[.S M O E V !.h.G.G.6.;.P C.d.",
"} X q.h.>.R B s L 3.t.x.2.%.3.x.O.#+#+=+k+q+A+4+6 3.J.J.n.9.).u.L.1.O O P P >.e.e.q.5.V P x q.C.",
"! s 6.V.h.O C t v 3.t.x.j.7.p.I.j.x.j.=+9+k+x+5+9 4.n.4.].S F [.t.!.s r x D V [.1.6...D r m /.h.",
"= / b A t b 4 4 6 i l p w w w F l l j w W %.I.I.: g g d 0 3 | b g 8 [ } 3 8 0 b g g 8 2 _ ' 8 C ",
"l j t y C F B F I I R q d W %.%.%.W W W I W *.*.L v t q t t k r E y t e [ s s s s s t v j q l q ",
"I.P.{+{+^+<+<+_+_+g+q+{+W g+q+q+t+k+k+k+g+9+c+a+c+*+P. +P.T.&+&+[+:+:+G.e B.%+%+~+~+[+{+T.S.P.U.",
"%.W 3.j.7.a.m.7.j.Y.g+_+d Y.=+!+_+_+=+/+_+#+m.l.o.S y M Z &.6.q.B.l.W.G.] r <.q.D.X.%+0.V S ].9.",
"K.3.Z %.).{.Y I ).x.9+_+d O.#+Y.#+#+O.)+<+/+U.[.8.M s C X !.B.H.N.N.&+G.] x ,.f.R.M.G.` ` 6.o.++",
"#+t.).I I *.L I ).O.g+_+9 t.I.7.7.x.I.O.#+=+U.[.1.Z y y P (.l.G.V.V.,+q._ U w.z.R.W.5.` #.e.v.)+",
".+J.~.q L 4.a.3.j.I.g+_+9 2.3.W 2.x.O.O.I.m.4.].&.[.!...V /.l.G.R.w.@+w.} #.C.g.R.q.` #.,.8.m.S.",
"L.[.@.F Y J.Y.I.p.j.5+_+9 3.j.).3.I.#+Y.m.~.W ~.n.t.r.}./.^.q.D.C.q.M.w._ U f.f.z.i.'.'./.].].u.",
"u.].[.[.9.;+!+S.7.j.a+<+d j.O.p.j.#+=+Y.x.p.).7.K.L.N.c.,.'.f.f.k.c.y.f.) o '.z.M.D.f.<.h.-.X [.",
"h.e.o.I.S.{+^+P.n.P.l+<+9 3.I.O.Y.=+!+=+#+Y.j.*.6.r.G.f.<.,.,.` ,.^.z.|.- a T w.7+,+z.,.0.>.X !.",
"N.`. +*+^+-+-+P.u. +c+(+6 %.O.Y.#+!+!+/+_+/+U.-.6.q.k.<.` ;./.P U /.w.|.- a K r.^+G.i.<.l.5.=.o.",
"N.N.$+-+T.q.r.r.!.l.|+!+| w j.I.O.I.I.=+9+5+.+a.o.h.,.G r D D y x T d.<.- c P h.q.d.^./.0.!.S ].",
"8 8 b g 0 2 3 5 [ 4 g d @ ~ 1 6 9 6 6 d l l g 6 6 3 } ) ' ) ) ] ] ] 2 2 . - _ 2 2 _ _ } 3 [ < [ "};
