/* XPM */
static char * 64_buzz_right_grass_xpm[] = {
"64 64 255 2",
"  	c #000000",
". 	c #140B1E",
"+ 	c #270F32",
"@ 	c #290E41",
"# 	c #281219",
"$ 	c #2B1027",
"% 	c #331206",
"& 	c #1E1B18",
"* 	c #4A2217",
"= 	c #48205B",
"- 	c #4A224C",
"; 	c #442634",
"> 	c #45253E",
", 	c #322D31",
"' 	c #342E27",
") 	c #2E3040",
"! 	c #37311C",
"~ 	c #223A1A",
"{ 	c #622815",
"] 	c #7B2317",
"^ 	c #4F4018",
"/ 	c #4C423C",
"( 	c #46434C",
"_ 	c #643968",
": 	c #683875",
"< 	c #5F3D5B",
"[ 	c #56452F",
"} 	c #614345",
"| 	c #6A4332",
"1 	c #39542F",
"2 	c #2C5A1A",
"3 	c #484E42",
"4 	c #385066",
"5 	c #3F5424",
"6 	c #4A5030",
"7 	c #5A504A",
"8 	c #53525D",
"9 	c #BF412A",
"0 	c #39721E",
"a 	c #5F616D",
"b 	c #6B6057",
"c 	c #82558A",
"d 	c #3D7233",
"e 	c #437129",
"f 	c #3E7512",
"g 	c #477121",
"h 	c #486F36",
"i 	c #566D37",
"j 	c #7B5E79",
"k 	c #546F4A",
"l 	c #63695C",
"m 	c #646B4A",
"n 	c #88604E",
"o 	c #83625E",
"p 	c #7C683E",
"q 	c #7A6752",
"r 	c #5D6C85",
"s 	c #4C774A",
"t 	c #44821C",
"u 	c #9A6549",
"v 	c #4A822D",
"w 	c #70707A",
"x 	c #4C8138",
"y 	c #7A6F65",
"z 	c #4C8141",
"A 	c #55802F",
"B 	c #567F47",
"C 	c #E5543C",
"D 	c #657F47",
"E 	c #608426",
"F 	c #68803C",
"G 	c #568826",
"H 	c #4D8C18",
"I 	c #5D843D",
"J 	c #5D8544",
"K 	c #508F0F",
"L 	c #508E28",
"M 	c #548D38",
"N 	c #578C42",
"O 	c #568C4C",
"P 	c #5F8B39",
"Q 	c #5F8A51",
"R 	c #618A5E",
"S 	c #878072",
"T 	c #84817C",
"U 	c #68879F",
"V 	c #927E71",
"W 	c #E36856",
"X 	c #B17765",
"Y 	c #927E97",
"Z 	c #5B9B1F",
"` 	c #5D9A29",
" .	c #83868C",
"..	c #7E8B6C",
"+.	c #619936",
"@.	c #589C35",
"#.	c #A97F69",
"$.	c #649844",
"%.	c #6E9544",
"&.	c #6C954C",
"*.	c #5B9B44",
"=.	c #5A9B4E",
"-.	c #64984D",
";.	c #65975B",
">.	c #5D9A56",
",.	c #689753",
"'.	c #73935A",
").	c #5396AF",
"!.	c #968687",
"~.	c #6F9A39",
"{.	c #9F8772",
"].	c #789851",
"^.	c #60A51C",
"/.	c #7B994A",
"(.	c #6E9C6E",
"_.	c #9F8D7F",
":.	c #989081",
"<.	c #66A735",
"[.	c #65A82D",
"}.	c #95918D",
"|.	c #B88A68",
"1.	c #63A841",
"2.	c #6CA642",
"3.	c #63AA50",
"4.	c #6DA84D",
"5.	c #76A552",
"6.	c #6CA854",
"7.	c #6BA85A",
"8.	c #75A55A",
"9.	c #69A863",
"0.	c #74A560",
"a.	c #7CA452",
"b.	c #73A568",
"c.	c #81A267",
"d.	c #D18970",
"e.	c #6BB42C",
"f.	c #6EB439",
"g.	c #6EB441",
"h.	c #6EB449",
"i.	c #6DB450",
"j.	c #79B241",
"k.	c #78B24D",
"l.	c #A6A197",
"m.	c #6ABA5C",
"n.	c #75B56F",
"o.	c #75B75A",
"p.	c #74B761",
"q.	c #73B767",
"r.	c #7BB567",
"s.	c #71BE24",
"t.	c #83B367",
"u.	c #81B371",
"v.	c #80B55F",
"w.	c #72C218",
"x.	c #B5A395",
"y.	c #71C137",
"z.	c #B3A4A4",
"A.	c #A8A7A9",
"B.	c #7ABF39",
"C.	c #70C244",
"D.	c #7FB885",
"E.	c #BDA58E",
"F.	c #78C04C",
"G.	c #7BC045",
"H.	c #79C054",
"I.	c #65BBDF",
"J.	c #79C05B",
"K.	c #A3AF8C",
"L.	c #84BE58",
"M.	c #90B68B",
"N.	c #B1A8BC",
"O.	c #A2ADBE",
"P.	c #D4A37D",
"Q.	c #B5AB95",
"R.	c #97B87C",
"S.	c #75C566",
"T.	c #9CB968",
"U.	c #9BBA71",
"V.	c #7FC373",
"W.	c #7CCB22",
"X.	c #80C46C",
"Y.	c #82C466",
"Z.	c #82C37C",
"`.	c #88C273",
" +	c #80CB34",
".+	c #80CA42",
"++	c #B7B1A6",
"@+	c #8DC36C",
"#+	c #8FC17E",
"$+	c #92C174",
"%+	c #98C16D",
"&+	c #84CA56",
"*+	c #85CB4F",
"=+	c #84CA60",
"-+	c #8DCD2A",
";+	c #8DD112",
">+	c #90CA63",
",+	c #91CD46",
"'+	c #8ACE7C",
")+	c #96CD5C",
"!+	c #8DCE73",
"~+	c #98CE55",
"{+	c #9ED133",
"]+	c #9ACE72",
"^+	c #99CE79",
"/+	c #99CE7F",
"(+	c #A2D04E",
"_+	c #A1CE6B",
":+	c #96CF89",
"<+	c #81CFEC",
"[+	c #A4CD87",
"}+	c #98CF9C",
"|+	c #A2CD90",
"1+	c #9CD36D",
"2+	c #ACCC92",
"3+	c #A9CF7A",
"4+	c #A8CF83",
"5+	c #D8BEA1",
"6+	c #A9CE9F",
"7+	c #ADD16E",
"8+	c #CEC2B4",
"9+	c #EDBC91",
"0+	c #D2C3AB",
"a+	c #ADCCDC",
"b+	c #BACF93",
"c+	c #A3D3CF",
"d+	c #B0D4B2",
"e+	c #BED1A3",
"f+	c #CFC8D0",
"g+	c #B2D892",
"h+	c #B1D89C",
"i+	c #CDCDC2",
"j+	c #ABDD84",
"k+	c #BCD3C0",
"l+	c #BFD4B3",
"m+	c #B7DAAB",
"n+	c #AFE178",
"o+	c #D6D2B9",
"p+	c #E8CFB1",
"q+	c #E0D2B9",
"r+	c #BAE194",
"s+	c #BBE28C",
"t+	c #DFD3C3",
"u+	c #BEE6A7",
"v+	c #FCD3A5",
"w+	c #C3E8BC",
"x+	c #F0E4D2",
"y+	c #FCE3B2",
"z+	c #E7E8DC",
"A+	c #ECE9D3",
"B+	c #EBECCD",
"C+	c #F1E9E8",
"D+	c #E8F4F8",
"E+	c #F8F5DF",
"F+	c #FFFFFF",
"v.o.~+@+X.#+#+^+v.v.v.$+#+v.R.R.t.$+^+`.o.o.o.$+r.t.L.]+#+4.&.@+Q v.@+0.r.;.r.Y.b.#+R.6.v.t.r.;.`.:+/+[+R.L.=+F.L.G.L.0.u.v.p.F.",
"B.=+.+v.#+t.$+t.t.`.v.@+]+v.t.[+@+v.>+v.c.t.`.6+|+/+t.r.#+0.8.i.r.u.r.`.@+v.`.#+r.u.M.$.v.o.`.t.#+F.>+t.u.@+o.g.&+F.o.v.0.7.o.h.",
".+~+*+`.i.L.u.t.c.u.$+~+L.t.$.$+8.>+t.t.r.v.&+>+p.5.H.X.6.t.-.$.t.#+|+|+X.h.b.t.`.t.#+b.2.o.7.@+u.L.L.#+0.u.u.4.f..+@+L.M.M.r.L.",
"B.@+,+L.g.@+R.|+M.c.>+L.F.Y.&.|+v.k.L.t.8.4.h.r.r.[+R.c.k.0.4.v.t.6.0.M.u.0.`.J.|+t.r.r.k.$.$+t.T.2.4.H.`.|+8.v.i.L.j.e.v.u.`.$+",
"v.Y.W.B.a.L.R.R.M.r.o.Y.@+t.2+^+k.P v.t.0.b.4.,.2+o+Q B R 8.k.*.9. .j : : w b.Y.|+`.p.n.7.6./+t.v.+.8.2.F.X.^+#+&.L.f.v.=+c.0.%+",
"H.t.s.j.r.v./+|+M.`.Y.v.=+@+2+k.L.t.$+v.|+/+u.2+B+A+l i k Q K.p. .: : : : _ = c.Y.a.r.u.u.t.u.b.5.2.k.v.k.4.h.@+^+@+t.2.5.o.'.v.",
"F.L.k.B.i.X.#+R.c.@+u.t.H.@+R.L.$+8.u.|+4+$+R Q.}.T w y y l ..M.: < {.9+9+P.P.{.Y.8.r.o.#+8.`.n.,.-.G.L.@+f.4.7.L.@+t.t.v.k.6.0.",
"X.2.L.G.*.r.:+u.b.H.-.$+r.v.v.@+@+8.[+/+4+`.s l T a l a l l l a _ o _.:.u #.o } R.v.q.b.u.u.Y.7.r.u.8.r.L.&.2.i.1.G.L.5.@+`.r.8.",
"G.H.J.f.8.t.`.@+r.L.5.t.@+t.8.[+p.$+`./+4+r.k l y a a a 8 8 7 < o P.z+ ._.!.}.!.R.[+R.v.V.i.*.u.0.6.p.@+]+r.G.H.k.j.>+k.G.2.B.k.",
"v.G.J.0.@+u.0.H.@+@+/+|+:+|+|+/+r.4.u.$+[+u.k l T w a a 8 ( / < E.v+0+x.5+_._.|.e+u.r.D.`.:+$.4.r.u.-.j.2.]+H.o.v.v.2.4.&+r.$.*+",
"Y.$+F.+.<.c.Q o.o.|+R.t.H.@+@+L.t.o.#+#+x+8+B R !.T a 8 ( , , b 9+9+P.P.9+E.d.X ++f+l 0.b.6+X.0.,.b.k.W.H.Y.^+o.&.c.&.'.2.F.4.v.",
"t.@+$.j.7.0.0.2.H.|+6.8.H.$+`.5.@+L.'+o+x+x.++7...}.a ( 8 a 8 #.P.d.X |.9+#.u n V f+ .B ;.l.K.#+r.h.4.`.X.,.u.`.8.c.c.c.8.H.v.[+",
"|+t.k.$.u.,.;.f.:+Y.o.k.g.r.t.`.6.L.[+x+++_.o+`.;.}.}.w a w w #.P.|.P.0+5+#.n o ..A.T 7 D '.A.N.u.N ,.u.o.0.4.i.Z.,.R.t.t.4.&.u.",
":+h.X.r.u.4.G.@+-.h.4.8.k.v.8.q.$.@+e+t+6 :.e+%+q.R l.l. .a > o 9+v+y+5+0+E.V o 8 l 8 6 D D }.l.A.;.b.:+|+:+X.X.r.p.#+b.v.r.u.8.",
":+0.u.r.2.f.&+o.4.h.o.r.o.r.r.3.-.$+o+++k l.[+%+$+n.R }.l.l.w < P.9+v+v+P.#.#.b / 3 l ..D S V V z.l+|+r.`.:+o.r.0.u.t.u.0.`.t.a.",
"[+0.o.J.4.G.r.4.v.i.Y.Y.Y.k.$.o.r.$+t+V u ++[+@+@+`.9...l.l.l.T #.P.9+9+P.|.o 7 , ( c.b.8.(.u.y t+i+M.#+$.0.#+^+#+$+0.:+P 8.t.0.",
"^+L.c.7.n.o.o.#+k.H.Y.H.L.2.$.Y.o.|+q+n 9 8+t+2+@+Y.7.k a < y T 8 u |.P.|.n n 3 , ) l $.6.7.r.b t+++A.u.-.t.,.#+u.f.2.#+t.,.u.t.",
"%+`.#+#+`.p.k.t.2.g.o.f.G.4.-.g.H.e+0+V X t+A+E+B+e+c.7 : : > y 8 $ * | | [ ' ) 1 , ( c.t.R.0.T o+y y D 0.r.u.'.#+v.&.R.0.c.0.u.",
"L.v.4.@+`.h.o.t.k.t.v.)+G.k.5.k.o.e+Q.Q.x.t+A+E+A+A+E+y = = 3 ;.3 8 , + . . . @ 6 & ( ..%.R.R.2+++:.c.'.J 8.b.7.u.`.0.0.Y.'.$+0.",
"v.2.,.R.$+2.v.k.t.v.k.k.k.g.L.j.4.o+l.++x.t+x+l.&   ' l y l -.q.9.l l k 3 + @ 1 s ' ( 3 @+L.$+;.0.-.N u.7.'.'.0.r.r.;.0.t.6.2+X.",
"V.0.O c.#+o.i.L.@+L.t.k.f.B.B.v.4.t+S W ++t+y & ' / 7 ( & }.c.,.9.>.3 l l R s B s ' 8 k v.v.t.0.b.b.7.b.;.b.u.u.r.,.B u.;.`.#+Z.",
"p.`.u.M.v.=+H.v.$+>+L.o.2.F.F.r.Y.q+q 9 8+:.& b }.b T }.w , :.'.,.>.B / ( 8 k s k a w c.u.M.#+0.u.9.c.u.0.D.:+b.$+5.2.5.R.|+#+V.",
"*.`.0.:+0.Y.k.4.Y. +L.Y.p.h.G.k.#+0+o X t+' l ++i+l.l.!.w 8 ' :.,.,.B B k 3 ( ( 8 a w l (.8.R.,.#+u.'.c.|+$+t.8.v.2.&.u.v.r.v.,.",
"3.@+v.#+0.L.H.k.v..+@+r.p.i.o.i.`.Q.:.l.z.& l.++z+8+l.T l.A.w V c.,.B B B B h h k l r 3 R P v.r.:+u.v.k.v.`.@+8.0.&.5.7.6.k.-.k.",
"$.k.`.@+k.L.>+@+@+J.o.r.i.4.4.g.u._.x.x.}./ l.z.z.l.}.++f+z+f+}._.&.Q i i i i 6 5 6 w [ &.v.v.:+|+K.u.5.@+u.`.@+L.k.t.t.r.#+o.k.",
"<.8.H.@+B..+@+$+`.i.f.N 8.#+J.o.R.V u Q.}.3 S :.:.l.C+k+k+r A.f+!.'.&.i i i i | | 6 a q $.v.#+l+E+Y z+i+2+#+k.u.V.r.o.6.r.-.2.j.",
"[.$.F.>+G.G.@+r.r.4.2.,.B t.=+t.%+S u 0+l.}.y y y o+F+A.O.O.r i+i+m &.i i i i 5 5 k y &.4.#+o+t+o+N.++l.u.*+F.u.$+b.4.0.u.0.k.j.",
"`.P Y.L.@+L.o.6.6.h.B.k.7.o.4.4.o.S m 0+V j 8+}.:.A+x+8+ .U O.i+z+y i D i i [ ] { i 0.2.5.2+e+4+4+i+N.8+M.6.2.$.t.c.8.5.v.&.+.k.",
"]+o.H.Y.L.t.k.5.Y.i.G.v.v.o.k.k.k.Y.v...t._ !.8+Q.8+A+x+8+f+E+z+E+l. .(.0.b.'.z.8+8+o+l+2+B+2+4+4+l+j i+K.5.+.1.8.+.1.Q 0.b.8.-.",
"]+F.0.v.k.o.P 0.L.G.h.F.H.L.v.v.k.F.G.L.p.'.< T x.x.t+E+E+C+C+E+t+b :.`.`.`.l+z+z+z+z+i+z+E+e+^+%+/+l.l.++L.2.5.$.g.-.2.N $+`.L.",
"u.h.o.v.v.6.k.v.=+H.2.g.*+t.@+o.G.j.H.6.t.6.:.< < j l.t+E+F+F+i+t+++c.`.`.#+x+x+t+i+++8+8+A+o+@+Y.p.++j 8+0.0.4.7.t.u.8.N $+k.v.",
"v.u.L.8.r.8.1.v.v.v.4.2.&+t.u...w y b.Y.v.t.#+u.7 > - l.x+t+:.}.z.}.c.n.r.2+t+o+o+8+8+++x.K.0+K.t.c.x.:.c.-.6.6.k.2.v.R.0.u.u.2.",
"L.@+@+o.6.6.6.@+o.6.4.2.F.H.T ++u.;.B t.5.u.l+l+u.7 7 7 Q.{.b S :.S '.q.p.++++++Q.x.l._.K.`.M M.c.R.t.0.r.n.8.5.k.u.r.u.;.M.:+#+",
"#+#+;.6.8.0.Y.F.$.t.+.k.H...++e+$+K.}.w J.r.A+E+l+0.1 & ' b 7 y y b k 6.,.x.l._._._.K.u.v.u.b.#+Y.k.$+R.'.u.r.h.5.L.5.r.r.+.5./+",
"d+M.0.u.#+#+a.8.4.$.$.v.t.T l+R.A+A+8+l.(.K.t+E+E+Q.0.Q 1       ' / h J '._._._.R.$+k.4.$+8.t.0.o.=+@+'.t.7.7.-.v.2.o.o.-.+.-.0.",
"u.m+Q J v.#+@+u.v.6.r.k.y 8+u.t+E+E+t+8+}.++q+q+q+++:...'.Q i i h m q D y :.c.1.+.k.8.4.$+v.v.,.v.v.L.F.-.7.7.5.v.k.B.k.;.,.c.8.",
"k.h+-.x k.v.H.v.j.1.H.t.}.2+0.x+A+E+E+t+++8+o+0+E.l._.V K._.V :.Q.l.B+Q.l.T 0.$.5.2.8.c.@+h.f.8.$.L.h.F.i.p.@+v.o. +j.G.-.7.-.c.",
"|+t.L.v.+.k.k.F.f.$.v...8+b+8.o+x+E+E+A+o+8+8+Q.l._.V u.r.7.k.v.8+++E+A+o+++K.b.Q Q Y.X.r.o.f.+.0.p.h.k.4.6.v.J.t.s.B.h.j.Q ;.,.",
"|+u.j.k.,.h.L.F.k.f.F...t+0+,.0+t+A+E+E+++0+0+E._._._.c.J.L.5.h.2+t+A+E+t+x+++}.c.8.o.r.5.k.F.o.0.'.c.@+k.7.8.F.L.2.G.-.H.8.u.8.",
"=+t.0.k.k.L.L.Y.k.g.f.c.K.++K.++q+x+A+A+:.0+5+E.{.{.K.v.t.v.v.Y.v.o+A+A+++A+8+l.u.r.o.t.r.0.1.J.4.8.6.5.Y.r.8.X.2.k.H.@+Y.H.L.[+",
"]+o.R.`.k.@+@+^+f.f.o.8.'.D y c.0+o+x+t+x.0+++E.{.{.$+6.k.Y.h.o.L.R.t+++t+E+t+l.u.r.r.o.v.-.r.u.&+k.v.&.H.G.k.G.F.Y.g.5.F.h.r.:+",
"L./+k.6.r.k.@+J.i.k.v.v.Y.u.t.c.:.Q.0+t+l.0+E.E.{.K.r.2.8.0.f.k.8.$+T 8+E+E+A+l.}.[+7.o.t.u.7.c.#+|+@+$+o.$.*+v.G.H.8.v.r.8.v.0.",
"v.>+Y.o.o.H.@+v.6.L.h.v.7.h.F.B.f.`.2+0+l._.V y S 4.t.r.r.B.j.`.r.R.S B+E+E+x+++}.|+;.v.p.Y.0.$+v.)+t.v.J.6.o.J.$+L.+.2.c.;.o.4.",
"6.[+F.v.v.&.k.5.L.r.8.5.k.k.*+G.h.G.F.R.8+:.y y ( $+o.t.u.k.j.@+#+#+:.x+E+E+x+8+l.M.n.4.i.p.Y.u.L.=+u.r.v.Y.#+t.@+$.j.8.0.r.o.Y.",
"o.@+v.v.k.&.*+H.r.k.H.k.y.f.k.L.F.L.Y.v.t.++l.:.:.`.L.g.k.g.G.r.p.r.K.x+E+E+A+o+l.l.p.o.2.`.H.u.v.H.o.Y.>+Y.`.|+@+o.i.u.8.0.`.r.",
"t.R.t.L.2.L.J.o.t.h.F.o.F.k.k.H.k.L.L.J.Y.@+R.K.u.L.F.F.F.F.J.X.t.$+K.x+E+E+E+t+++}.#+0.4.$+v.Y.`.@+H.*+]+H.r.`.k.Y.u.Y.J.$+^+v.",
"L.v.@+o.v.t.R.k.6.4.o.k.G.G.k.4.%+@+@+Y.Y.k.k.F.8.g.F.j.F.h.4.i.b.o.2+t+A+E+E+A+8+l.}.u.o.$+r.F.4.p.p.H.:+G.Y.@+r.`.X.p.J.>+@+Y.",
"o.,.v.r.r.v.v.`.;.6.4.o.F.H.H.k.t.@+,+v.k.1.h.v.v.H.2.L.H.h.o.H.+.g.R.t+A+E+E+A+o+:...u.`.v.L.*+*+F.i.o.@+@+L.@+v.Y.@+p.t.>+v.L.",
"8.v.R.r.|+t.`.$+t.k.L.Y.4.8.o.k.5.L. +@+H.k.v.v.H.J.o.k.o.v.o.i.2.g.t.t+x+E+E+B+#+9.O B t.`.o.=+B.y.H.v.$+$+Y.$+L.`.v.$+L.L.X.Y.",
"g.v.#+u.`.p.k.$+@+Y.>+F.o.5.$+L.5.L.~+k.H.F.L.v.Y.o.o.i.t.`.h.h.h.Y.$+t+x+A+A+/+$+,.i 6 R u.;.u.=+H.F.t.8.$+/+!+$+$+[+X.L.L.t.:+",
"h.v.`.`.`.o.v.%+/+@+G.J.J.L.2.v.R.>+>+B.a.F.>+k.F.H.k.L.6.u.6.6.i.Y.u.t+x+A+2+[+'.& [ D q.;.8 > > u.@+!+Y.M.@+^+#+/+[+t.^+@+>+@+",
"p.u.X.=+6.-.L.v.t.4.o.@+`.L.4.Y.%+$+k.j.H.>+*+L.o.v.4.H.4.v.0.i.2.8.R.o+2+t.r.'., y Q.2+..: - > ; R $+`.`./+$+@+/+/+`.>+^+H.F.H.",
"p.o.J.r.$.$.4.4.o.u.`.8.Y.L.v.Y.r.r.L.)+@+%+1+`.`.Y.Y.H.`.7.p.6.$.o.t.0+t.@+t.7 ++o+t+!._ > ; ; > c.H.r.Z.#+,.$+!+X.H.>+&+H.G.>+",
"Y.`.`.$+#+6.0.`.L.4.`.v.^+L.o.o.6.F.g.*+Y.*+G.o.r.J.J.L.t.-.6.7.i.1.@+R.t.@+t.:.x+A+Y < ; $ ; ; b L.J.o.r.r.q.n.J.!+L.F.*+i.L.>+",
"@+7.o.`.;.r.v.5.i.#+Y.H.@+v.t.L.k.J.&+F.L.&+L.v.Y.X.o.k.v.+.4.r.4.1.8.v.v.v.'.o+x+!.< ; ; ; > ( b.L.v.`.#+u.r.`.r.=+k.f.G.>+F.G.",
"`.7.7.$.v.1.v.r.j.t.#+u.L.o.4.4.L.L.F.h.*+*+@+v.r.6.+.<.F.1.h.F.k.4.u.r.c.++o+A+}.< ; ; $ ; 7 c.o.$+@+@+p.u.$+Y.v.#+J.4.h.B.G.k.",
"6.q.0.6.<.0.r.8.2.k.@+L.t.t.0.u.@+t.L.v..+L.$+@+L.h.$.4.j.5.k.g.o.r.6.+.t.8+t+z.< ; ; $ ; / c.2.Y.v.L.F.h.k.k.`.r.J.0.6.k.L.e.h.",
"6.6.t.Y.9.r.t.,.8.L.@+J.c.v.$+@+v.)+Y.&+G.&+$+R.2.j.r.6.2.v.G.j.$.2.4.2.6.++8+< ; $ ; ; k 0.o.4.Y.k.J..+X.4.c.o.J.p.v.4.5.t.[.2.",
"k.$.7.H.0.u.`.r.u.u.Y.@+0.t.L.>+Y.=+>+@+Y.L.*+[+Y.k.L.6.2.h.F.&.k.4.i.7.c.R.j > ' ; ; l 0.r.F.v.k.t.^+F.J.6.$+@+t.`.#+7.-.$+5.6.",
"n.r.u.o.`.t.0.u.|+#+J.H.0.t.t.L.H.o.L.&+H.Y.&+F.k.)+k.4.o.J.o.r.H.$.F.v.u.b.< ; ; / b.t.u.`.1.h.i.`.H.<.o.r.v.G.>+@+u.r.0.t.-.D.",
"#+u.r.o.X.#+$+0.@+#+Y.v.v.r.L.v.L.>+>+L.L.v.Y.k.L.L.Y.F.k.o.o.H.4.3.J.v.,.-.R ..'.u.r.u.t.r.o.2.t.5.6.g.k.]+L.@+Y.L.L.t.u.v.v.M.",
"L.v.@+8.Y.M.|+u.o.r.J.@+`.@+L.p.L.J.o.L.@+$+@+L.L.L.G.v.o.k.o.N ,.u.r.o.X.'.u...L.u.u.r.r.t.v.g.r.x c.#+L.&+@+^+v.`.r.u.u.k.k.:+",
"L.L./+`.R./+@+R.u.J.L.v.R.%+$+`.6.k.o.,.Y.@+>+$+v.L..+Y.v.F.H.6.r.0.7.0.u.#+M.u.c.5.#+q.#+R.;.o.H.-.8.L.v.>+&+/+t.b.v.u.u.o.B.#+",
"L.c.*+L.#+|+R.5.F.i.J.$+$+u.|+u.c.v.@+#+@+t.v.L.v.4.L.$+v.F.8.t.r.t.b.;.9.u.$+u.Q #+Z.r.k.v.c.#+`.L.t.8.t.]+@+G.H.v.@+u.|+r.[.[+"};
