/* XPM */
static char * 64_buzz_left_grass_xpm[] = {
"64 64 255 2",
"  	c #000000",
". 	c #140B1E",
"+ 	c #270F32",
"@ 	c #290E41",
"# 	c #281219",
"$ 	c #2B1027",
"% 	c #331206",
"& 	c #1E1B18",
"* 	c #4A2217",
"= 	c #48205B",
"- 	c #4A224C",
"; 	c #442634",
"> 	c #45253E",
", 	c #322D31",
"' 	c #342E27",
") 	c #2E3040",
"! 	c #37311C",
"~ 	c #223A1A",
"{ 	c #622815",
"] 	c #7B2317",
"^ 	c #4F4018",
"/ 	c #4C423C",
"( 	c #46434C",
"_ 	c #643968",
": 	c #683875",
"< 	c #5F3D5B",
"[ 	c #56452F",
"} 	c #614345",
"| 	c #6A4332",
"1 	c #39542F",
"2 	c #2C5A1A",
"3 	c #484E42",
"4 	c #385066",
"5 	c #3F5424",
"6 	c #4A5030",
"7 	c #5A504A",
"8 	c #53525D",
"9 	c #BF412A",
"0 	c #39721E",
"a 	c #5F616D",
"b 	c #6B6057",
"c 	c #82558A",
"d 	c #3D7233",
"e 	c #437129",
"f 	c #3E7512",
"g 	c #477121",
"h 	c #486F36",
"i 	c #566D37",
"j 	c #7B5E79",
"k 	c #546F4A",
"l 	c #63695C",
"m 	c #646B4A",
"n 	c #88604E",
"o 	c #83625E",
"p 	c #7C683E",
"q 	c #7A6752",
"r 	c #5D6C85",
"s 	c #4C774A",
"t 	c #44821C",
"u 	c #9A6549",
"v 	c #4A822D",
"w 	c #70707A",
"x 	c #4C8138",
"y 	c #7A6F65",
"z 	c #4C8141",
"A 	c #55802F",
"B 	c #567F47",
"C 	c #E5543C",
"D 	c #657F47",
"E 	c #608426",
"F 	c #68803C",
"G 	c #568826",
"H 	c #4D8C18",
"I 	c #5D843D",
"J 	c #5D8544",
"K 	c #508F0F",
"L 	c #508E28",
"M 	c #548D38",
"N 	c #578C42",
"O 	c #568C4C",
"P 	c #5F8B39",
"Q 	c #5F8A51",
"R 	c #618A5E",
"S 	c #878072",
"T 	c #84817C",
"U 	c #68879F",
"V 	c #927E71",
"W 	c #E36856",
"X 	c #B17765",
"Y 	c #927E97",
"Z 	c #5B9B1F",
"` 	c #5D9A29",
" .	c #83868C",
"..	c #7E8B6C",
"+.	c #619936",
"@.	c #589C35",
"#.	c #A97F69",
"$.	c #649844",
"%.	c #6E9544",
"&.	c #6C954C",
"*.	c #5B9B44",
"=.	c #5A9B4E",
"-.	c #64984D",
";.	c #65975B",
">.	c #5D9A56",
",.	c #689753",
"'.	c #73935A",
").	c #5396AF",
"!.	c #968687",
"~.	c #6F9A39",
"{.	c #9F8772",
"].	c #789851",
"^.	c #60A51C",
"/.	c #7B994A",
"(.	c #6E9C6E",
"_.	c #9F8D7F",
":.	c #989081",
"<.	c #66A735",
"[.	c #65A82D",
"}.	c #95918D",
"|.	c #B88A68",
"1.	c #63A841",
"2.	c #6CA642",
"3.	c #63AA50",
"4.	c #6DA84D",
"5.	c #76A552",
"6.	c #6CA854",
"7.	c #6BA85A",
"8.	c #75A55A",
"9.	c #69A863",
"0.	c #74A560",
"a.	c #7CA452",
"b.	c #73A568",
"c.	c #81A267",
"d.	c #D18970",
"e.	c #6BB42C",
"f.	c #6EB439",
"g.	c #6EB441",
"h.	c #6EB449",
"i.	c #6DB450",
"j.	c #79B241",
"k.	c #78B24D",
"l.	c #A6A197",
"m.	c #6ABA5C",
"n.	c #75B56F",
"o.	c #75B75A",
"p.	c #74B761",
"q.	c #73B767",
"r.	c #7BB567",
"s.	c #71BE24",
"t.	c #83B367",
"u.	c #81B371",
"v.	c #80B55F",
"w.	c #72C218",
"x.	c #B5A395",
"y.	c #71C137",
"z.	c #B3A4A4",
"A.	c #A8A7A9",
"B.	c #7ABF39",
"C.	c #70C244",
"D.	c #7FB885",
"E.	c #BDA58E",
"F.	c #78C04C",
"G.	c #7BC045",
"H.	c #79C054",
"I.	c #65BBDF",
"J.	c #79C05B",
"K.	c #A3AF8C",
"L.	c #84BE58",
"M.	c #90B68B",
"N.	c #B1A8BC",
"O.	c #A2ADBE",
"P.	c #D4A37D",
"Q.	c #B5AB95",
"R.	c #97B87C",
"S.	c #75C566",
"T.	c #9CB968",
"U.	c #9BBA71",
"V.	c #7FC373",
"W.	c #7CCB22",
"X.	c #80C46C",
"Y.	c #82C466",
"Z.	c #82C37C",
"`.	c #88C273",
" +	c #80CB34",
".+	c #80CA42",
"++	c #B7B1A6",
"@+	c #8DC36C",
"#+	c #8FC17E",
"$+	c #92C174",
"%+	c #98C16D",
"&+	c #84CA56",
"*+	c #85CB4F",
"=+	c #84CA60",
"-+	c #8DCD2A",
";+	c #8DD112",
">+	c #90CA63",
",+	c #91CD46",
"'+	c #8ACE7C",
")+	c #96CD5C",
"!+	c #8DCE73",
"~+	c #98CE55",
"{+	c #9ED133",
"]+	c #9ACE72",
"^+	c #99CE79",
"/+	c #99CE7F",
"(+	c #A2D04E",
"_+	c #A1CE6B",
":+	c #96CF89",
"<+	c #81CFEC",
"[+	c #A4CD87",
"}+	c #98CF9C",
"|+	c #A2CD90",
"1+	c #9CD36D",
"2+	c #ACCC92",
"3+	c #A9CF7A",
"4+	c #A8CF83",
"5+	c #D8BEA1",
"6+	c #A9CE9F",
"7+	c #ADD16E",
"8+	c #CEC2B4",
"9+	c #EDBC91",
"0+	c #D2C3AB",
"a+	c #ADCCDC",
"b+	c #BACF93",
"c+	c #A3D3CF",
"d+	c #B0D4B2",
"e+	c #BED1A3",
"f+	c #CFC8D0",
"g+	c #B2D892",
"h+	c #B1D89C",
"i+	c #CDCDC2",
"j+	c #ABDD84",
"k+	c #BCD3C0",
"l+	c #BFD4B3",
"m+	c #B7DAAB",
"n+	c #AFE178",
"o+	c #D6D2B9",
"p+	c #E8CFB1",
"q+	c #E0D2B9",
"r+	c #BAE194",
"s+	c #BBE28C",
"t+	c #DFD3C3",
"u+	c #BEE6A7",
"v+	c #FCD3A5",
"w+	c #C3E8BC",
"x+	c #F0E4D2",
"y+	c #FCE3B2",
"z+	c #E7E8DC",
"A+	c #ECE9D3",
"B+	c #EBECCD",
"C+	c #F1E9E8",
"D+	c #E8F4F8",
"E+	c #F8F5DF",
"F+	c #FFFFFF",
"v.o.~+@+X.#+#+^+v.v.v.$+#+v.R.R.t.$+^+`.o.o.o.$+r.t.L.]+#+4.&.@+Q v.@+0.r.;.r.Y.b.#+R.6.v.t.r.;.`.:+/+[+R.L.=+F.L.G.L.0.u.v.p.F.",
"B.=+.+v.#+t.$+t.t.`.v.@+]+v.t.[+@+v.>+v.c.t.`.6+|+/+t.r.#+0.8.i.r.u.r.`.@+v.`.#+r.u.M.$.v.o.`.t.#+F.>+t.u.@+o.g.&+F.o.v.0.7.o.h.",
".+~+*+`.i.L.u.t.c.u.$+~+L.t.$.$+8.>+t.t.r.v.&+>+p.5.H.X.6.t.-.$.t.#+|+|+X.h.b.t.`.t.#+b.2.o.7.@+u.L.L.#+0.u.u.4.f..+@+L.M.M.r.L.",
"B.@+,+L.g.@+R.|+M.c.>+L.F.Y.&.|+v.k.L.t.8.4.h.r.7.O 2.R.$+0.4.v.t.6.0.b.0.R.|+X.|+t.r.r.k.$.$+t.T.2.4.H.`.|+8.v.i.L.j.e.v.u.`.$+",
"v.Y.W.B.a.L.R.R.M.r.o.Y.@+t.2+^+k.P v.t.0.,.4.,.6.R j : : j :.-.9.b.b.R B Q o+g+|+`.`.n.7.6./+t.v.+.8.2.F.X.^+#+&.L.f.v.=+c.0.%+",
"H.t.s.j.r.v./+|+M.`.Y.v.=+@+2+k.L.t.$+v.b.8.t.$+c.= _ : : : : }.b.l.Q k i l A+B+|+t./+2+u.t.u.b.5.2.k.v.k.4.h.@+^+@+t.2.5.o.'.v.",
"F.L.k.B.i.X.#+R.c.@+u.t.H.@+R.L.$+8.u.:+#+r.v.t.{.P.P.9+9+{.< : K...l y y w T }.Q.R $+4+|+8.`.n.,.-.G.L.@+f.4.7.L.@+t.t.v.k.6.0.",
"X.2.L.G.*.r.:+u.b.H.-.$+r.v.v.@+@+8.[+8.L.`.u.u.} o #.u :._.o _ a l l l a l a T l s `.4+/+u.Y.7.r.u.8.r.L.&.2.i.1.G.L.5.@+`.r.8.",
"G.H.J.f.8.t.`.@+r.L.5.t.@+t.8.[+p.$+Y.@+$+|+[+R.!.}.!._. .z+P.o < 7 8 8 a a a y l k r.4+/+p.*.u.0.6.p.@+]+r.G.H.k.j.>+k.G.2.B.k.",
"v.G.J.0.@+u.0.H.@+@+/+|+:+|+|+/+r.4.4.u.D.r.u.e+|._._.5+x.0+v+E.< / ( 8 a a w T l k u.[+$+|+$.4.r.u.-.j.2.]+H.o.v.v.2.4.&+r.$.*+",
"Y.$+F.+.<.c.Q o.o.|+R.t.H.@+@+L.t.o.6+b.0.l f+++X d.E.9+P.P.9+9+b , , ( 8 a T !.R B 8+x+#+^+X.0.,.b.k.W.H.Y.^+o.&.c.&.'.2.F.4.v.",
"t.@+$.j.7.0.0.2.H.|+6.8.H.$+`.5./+K.l.;.B  .f+V n u #.9+|.X d.P.#.8 a 8 ( a }...7.++x.x+o+#+f.r.r.h.4.`.X.,.u.`.8.c.c.c.8.H.v.[+",
"|+t.k.$.u.,.;.f.:+Y.o.k.g.r.t.:+N.A.'.D 7 T A...o n #.5+0+P.|.P.#.w w a w }.}.;.`.o+_.++x+[+@+o.6.N ,.u.o.0.4.i.Z.,.R.t.t.4.&.u.",
":+h.X.r.u.4.G.@+-.h.4.8.k.v.8.A.l.}.D D 6 8 l 8 o V E.0+5+y+v+9+o > a  .l.l.R q.%+e+:.6 t+e+#+8.b.;.b.:+|+:+X.X.r.p.#+b.v.r.u.8.",
":+0.u.r.2.f.&+o.4.h.o.r.o.r.e+z.V V S D ..l 3 / b #.#.P.v+v+9+P.< w l.l.}.R n.$+%+[+l.k ++o+M.,.r.#+|+r.`.:+o.r.0.u.t.u.0.`.t.a.",
"[+0.o.J.4.G.r.4.v.i.Y.Y.X.M.i+t+y R.t.1.h...( , 7 o |.P.9+9+P.#.T l.l.l...9.`.@+@+[+++u V t+u.i.r.#+u.#+$.0.#+^+#+$+0.:+P 8.t.0.",
"^+L.c.7.n.o.o.#+k.H.Y.H.v.A.++t+b $+o.i.Y.l ) , 3 n n |.P.|.u 8 T y < a k 7.Y.@+2+t+8+9 n q+:+r.7.0.b.r.-.t.,.#+u.f.2.#+t.,.u.t.",
"%+`.#+#+`.p.k.t.2.g.o.f.H.y y o+T Y.0.B.c.( , 1 ) ' [ | | * $ 8 y > : : 7 c.e+B+E+A+t+X V 0+e+t.|+b.7.I 0.r.u.'.#+v.&.R.0.c.0.u.",
"L.v.4.@+`.h.o.t.k.t.v.)+G.t.:.++2+v.L.F...( & 6 @ . . . + , 8 3 ;.3 = = y E+A+A+E+A+t+x.Q.Q.8+@+0.4.6.'.J 8.b.7.u.`.0.0.Y.'.$+0.",
"v.2.,.R.$+2.v.k.t.v.k.k.k.g.L.j.4.k.2.@+3 ( ' s 1 @ + 3 k l l 9.q.-.l y l '   & l.x+t+x.++l.o+;.0.-.N u.7.'.'.0.r.r.;.0.t.6.2+X.",
"V.0.O c.#+o.i.L.@+L.t.k.f.B.B.v.4.v.8.0.k 8 ' s B s R l l 3 >.9.,.c.}.& ( 7 / ' & y t+++W S t+0.b.b.7.b.;.b.u.u.r.,.B u.;.`.#+Z.",
"p.`.u.M.v.=+H.v.$+>+L.o.2.F.F.r.L.5.%...c.w a k s k 8 ( / B >.,.'.:., w }.T b }.b & :.8+9 q q+c.u.9.c.u.0.D.:+b.$+5.2.5.R.|+#+V.",
"*.`.0.:+0.Y.k.4.Y. +L.Y.p.h.G.k.H.4.8...l w a 8 ( ( 3 k B B ,.,.:.' 8 w !.l.l.i+++l ' t+X o 0+u.#+u.'.c.|+$+t.8.v.2.&.u.v.r.v.,.",
"3.@+v.#+0.L.H.k.v..+@+r.p.i.o.i.i.b.u.0.3 r l k h h B B B B ,.c.V w A.l.T l.8+z+++l.& z.l.:.Q.R.:+u.v.k.v.`.@+8.0.&.5.7.6.k.-.k.",
"$.k.`.@+k.L.>+@+@+J.o.r.i.8.M.[+7.;.b.'.[ w 6 5 6 i i i i Q &._.}.f+z+f+++}.l.z.z.l./ }.x.x._.|+o.8.u.5.@+u.`.@+L.k.t.t.r.#+o.k.",
"<.8.H.@+B..+@+$+`.i.f.K.i+z+Y E+e+`.o.r.D a 6 | | i i i i &.'.!.f+A.r k+k+C+l.:.:.S 3 }.Q.u V R.q.4.k.0.$+#+k.u.V.r.o.6.r.-.2.j.",
"[.$.F.>+G.G.@+r.r.4.2.c.l.++N.o+t+o+o.7.;.y k 5 5 i i i i &.m i+i+r O.O.A.F+o+y y y }.l.0+u S #+7.r.#+t.o.*+F.u.$+b.4.0.u.0.k.j.",
"`.P Y.L.@+L.o.6.6.h.B.R.8+N.i+4+4+e+e+o.7.0.i { ] [ i i D i y z+i+O.U  .8+x+A+:.}.8+j V 0+m S 8.v.h.6.o.t.6.2.$.t.c.8.5.v.&.+.k.",
"]+o.H.Y.L.t.k.5.Y.i.G.K.i+j l+4+4+2+B+K.e+o+8+8+z.'.b.0.(. .l.E+z+E+f+8+x+A+8+Q.8+!.a R.c.].`.@.4.7.-.$+t.5.+.1.8.+.1.Q 0.b.8.-.",
"]+F.0.v.k.o.P 0.L.G.h.e+l.l./+%+^+e+E+z+i+z+z+z+z+l+`.`.`.:.b t+E+C+C+E+E+t+x.x.T < c.u.#+,.k.,.,.7.7.8.8.L.2.5.$.g.-.2.N $+`.L.",
"u.h.o.v.v.6.k.v.=+H.2.8+j ++p.Y.@+o+A+8+8+++i+t+x+x+#+`.`.c.++t+i+F+F+E+t+l.j < < :.u.7.#+;.H.7.0.u.,.6.u.0.0.4.7.t.u.8.N $+k.v.",
"v.u.L.8.r.8.1.v.v.v.4.'.:.x.c.t.K.0+K.x.++8+8+o+o+t+2+r.n.c.}.z.}.:.t+x+l.- > 7 u.#+6.7.`.b.y w ..u.8.0.r.-.6.6.k.2.v.R.0.u.u.2.",
"L.@+@+o.6.6.6.@+o.6.4.2.F.H.[+c.u.t.L.K._.l.x.Q.++++++p.q.'.S :.S b {.Q.7 7 7 u.l+l+6.i.v.B ;.u.++w t.0.r.n.8.5.k.u.r.u.;.M.:+#+",
"#+#+;.6.8.0.Y.F.$.t.+.k.H.L.k.t.4.o.o.v.$+K._._._.l.x.,.6.k b y y 7 b ' & 1 0.l+E+A+8.8.w }.K.$+e+++..R.'.u.r.h.5.L.5.r.r.+.5./+",
"d+M.0.u.#+#+a.8.4.$.$.v.L.2.H.h.&.u.6.k.6.,.u.R._._._.'.J h / '       1 Q 0.Q.E+E+t+R.(.l.8+A+A+R.l+T ..t.7.7.-.v.2.o.o.-.+.-.0.",
"u.m+Q J v.#+@+u.v.6.r.k.$.5.$.o.-.0.-.J ,.,.8.v.&+t.:.y D q m h i i Q '...:.++q+q+q+++}.8+t+E+E+t+u.8+S -.7.7.5.v.k.B.k.;.,.c.8.",
"k.h+-.x k.v.H.v.j.1.H.L.v.r.0.r.v.4.M 3.N J u.L.v.c.T l.Q.B+l.Q.:.V _.K.V _.l.E.0+o+8+++t+E+E+A+x+0.2+}.r.p.@+v.o. +j.G.-.7.-.c.",
"|+t.L.v.+.k.k.F.f.$.v.L.4.2.@+t.v.o.*.o.6.M.r.1.#+K.++o+A+E+++8+Y. +B.e.u.V _.l.Q.8+8+o+A+E+E+x+o+8.b+8+..6.v.J.t.s.B.h.j.Q ;.,.",
"|+u.j.k.,.h.L.F.k.f.F.o.4.4.n.i.H.k.5.Y.0.Q Q 6.M.++x+t+E+A+t+K.B.*+j.j.Y._._._.E.0+0+++E+E+A+t+0+,.0+t+..7.8.F.L.2.G.-.H.8.u.8.",
"=+t.0.k.k.L.L.Y.k.g.f.v.,.4.p.o.>+8.p.p.`.0.8.u.l.8+A+++A+A+o+@+k.G.*+L.o.K.{.{.E.5+0+:.A+A+x+q+++K.++K.c.r.8.X.2.k.H.@+Y.H.L.[+",
"]+o.R.`.k.@+@+^+f.f.o.k.g.F.k.k..+2.,.`.r.0.o.u.l.t+E+t+++t+R.o.L.L.7.r.8.u.{.{.E.++0+x.t+x+o+0+c.y D '.v.G.k.G.F.Y.g.5.F.h.r.:+",
"L./+k.6.r.k.@+J.i.k.v.v.=+=+Y.$.B.i.G.4.v.h.H.}.l.A+E+E+8+T v.k.8.L.r.r.;.0.K.{.E.E.0+l.t+0+Q.:.R.R.R.R.o.$.*+v.G.H.8.v.r.8.v.0.",
"v.>+Y.o.o.H.@+v.6.L.h.v.7.h.F.B.f.o.Y.@+H.F.o.}.++x+E+E+B+S t.`.r.r.Y.#+k.@+#+S y V _.l.0+2+u.$+v.)+t.v.J.6.o.J.$+L.+.2.c.;.o.4.",
"6.[+F.v.v.&.k.5.L.r.8.5.k.k.*+G.h.G.F.t.r.F.$+l.8+x+E+E+x+:.k.@+#+#+|+u.o.4.R.( y y :.8+t.p.Y.u.L.=+u.r.v.Y.#+t.@+$.j.8.0.r.o.Y.",
"o.@+v.v.k.&.*+H.r.k.H.k.y.f.k.L.F.L.Y.v.v.@+K.l.o+A+E+E+x+R.G.r.p.r.u.u.u.R.t.:.:.l.++r.2.`.H.u.v.H.o.Y.>+Y.`.|+@+o.i.u.8.0.`.r.",
"t.R.t.L.2.L.J.o.t.h.F.o.F.k.k.H.k.L.L.J.Y.$+}.++t+E+E+E+x+[+J.X.t.$+u.#+r.#+o.R.K.M.`.0.4.$+v.Y.`.@+H.*+]+H.r.`.k.Y.u.Y.J.$+^+v.",
"L.v.@+o.v.t.R.k.6.4.o.k.G.G.k.4.%+@+@+Y.Y.:.l.8+A+E+E+A+t+[+4.i.b.o.r.r.r.$+`.Y.@+[+u.u.o.$+r.F.4.p.p.H.:+G.Y.@+r.`.X.p.J.>+@+Y.",
"o.,.v.r.r.v.v.`.;.6.4.o.F.H.H.k.t.@+,+v.c...:.o+A+E+E+A+t+R.o.H.+.g.4.o.r.r.Y.#+o.k.L.v.`.v.L.*+*+F.i.o.@+@+L.@+v.Y.@+p.t.>+v.L.",
"8.v.R.r.|+t.`.$+t.k.L.Y.4.8.o.k.5.L. +t.B O 9.#+B+E+E+x+t+R.o.i.2.g.<.4.6.-.X.Y.o.h.k.H.Y.`.o.=+B.y.H.v.$+$+Y.$+L.`.v.$+L.L.X.Y.",
"g.v.#+u.`.p.k.$+@+Y.>+F.o.5.$+Y...8.t.R 6 i ,.$+/+A+A+x+t+#+h.h.h.Y.o.6.8.0.t.u.6.k.G.1.v.^+0.Y.&+H.F.t.8.$+/+!+$+$+[+X.L.L.t.:+",
"h.v.`.`.`.o.v.%+/+@+G.J.J.L.].> > 8 ;.q.D [ & '.[+2+A+x+t+M.6.6.i.Y.6.o.6.c.#+t.#+-.i.o.q.^+@+Y.H.@+@+!+Y.M.@+^+#+/+[+t.^+@+>+@+",
"p.u.X.=+6.-.L.v.t.4.o.@+`.L.l ; > - : ..2+Q.y , '.r.t.2+o+R.0.i.2.8.4.7.6.u.c.8.#+-.v.v.r.|+/+=+L.)+$+`.`./+$+@+/+/+`.>+^+H.F.H.",
"p.o.J.r.$.$.4.4.o.u.`.8.Y.L...> ; ; > _ !.t+o+++7 t.@+t.0+u.p.6.$.o.h.7.*.6.q.p.o.u.@+k.v.0.@+#+o.>+H.r.Z.#+,.$+!+X.H.>+&+H.G.>+",
"Y.`.`.$+#+6.0.`.L.4.`.v.^+L.r.b ; ; $ ; < Y A+x+:.t.@+t.R.u.6.7.i.1.g.h.4.1.*.4.r.4.v.o.v.c.@+Y.L.L.J.o.r.r.q.n.J.!+L.F.*+i.L.>+",
"@+7.o.`.;.r.v.5.i.#+Y.H.@+v.t.t.( > ; ; ; < !.x+o+'.v.v.v.&.4.r.4.1.3.o.<.3.7.,.r.o.0.u.@+r.t.F.o.L.v.`.#+u.r.`.r.=+k.f.G.>+F.G.",
"`.7.7.$.v.1.v.r.j.t.#+u.L.o.4.4.c.7 ; $ ; ; < }.A+o+++t.Y.4.h.F.k.4.r.7.;.4.4.0.7.r.v./+`.u.o.L.o.$+@+@+p.u.$+Y.v.#+J.4.h.B.G.k.",
"6.q.0.6.<.0.r.8.2.k.@+L.t.t.0.u.@+c./ ; $ ; ; < z.t+8+c.j.5.k.g.o.r.6.+.o.1.6.u.R Q v.$+o.Y.h.2.Y.v.L.F.h.k.k.`.r.J.0.6.k.L.e.h.",
"6.6.t.Y.9.r.t.,.8.L.@+J.c.v.$+@+v.)+t.k ; ; $ ; < 8+++6.2.v.G.j.$.2.4.2.6.u.n.7.0.0.k.#+Y.6.o.4.Y.k.J..+X.4.c.o.J.p.v.4.5.t.[.2.",
"k.$.7.H.0.u.`.r.u.u.Y.@+0.t.L.>+Y.=+>+$+l ; ; ' > j R.6.2.h.F.&.k.4.i.7.c.b.(.;.;.o.J.$+8.r.F.v.k.t.^+F.J.6.$+@+t.`.#+7.-.$+5.6.",
"n.r.u.o.`.t.0.u.|+#+J.H.0.t.t.L.H.o.L.&+J.b./ ; ; < v.4.o.J.o.r.H.$.F.v.u.9.u.0.o.o.X.t.u.`.1.h.i.`.H.<.o.r.v.G.>+@+u.r.0.t.-.D.",
"#+u.r.o.X.#+$+0.@+#+Y.v.v.r.L.v.L.>+>+L.L.v.`.'...a.Y.F.k.o.o.H.4.3.J.v.,.-.;.v.r.r.r.u.t.r.o.2.t.5.6.g.k.]+L.@+Y.L.L.t.u.v.v.M.",
"L.v.@+8.Y.M.|+u.o.r.J.@+`.@+L.p.L.J.o.L.@+$+@+L.L.L.G.v.o.k.o.N ,.u.r.o.X.'.u...L.u.u.r.r.t.v.g.r.x c.#+L.&+@+^+v.`.r.u.u.k.k.:+",
"L.L./+`.R./+@+R.u.J.L.v.R.%+$+`.6.k.o.,.Y.@+>+$+v.L..+Y.v.F.H.6.r.0.7.0.u.#+M.u.c.5.#+q.#+R.;.o.H.-.8.L.v.>+&+/+t.b.v.u.u.o.B.#+",
"L.c.*+L.#+|+R.5.F.i.J.$+$+u.|+u.c.v.@+#+@+t.v.L.v.4.L.$+v.F.8.t.r.t.b.;.9.u.$+u.Q #+Z.r.k.v.c.#+`.L.t.8.t.]+@+G.H.v.@+u.|+r.[.[+"};
