/* XPM */
static char * 64_buzz_up_grass_xpm[] = {
"64 64 255 2",
"  	c #090C0A",
". 	c #111C04",
"+ 	c #2B1B45",
"@ 	c #391C71",
"# 	c #1B3106",
"$ 	c #352E35",
"% 	c #323429",
"& 	c #552762",
"* 	c #4A305B",
"= 	c #284514",
"- 	c #294B05",
"; 	c #474148",
"> 	c #325438",
", 	c #5E4360",
"' 	c #713C7F",
") 	c #713B8B",
"! 	c #4E4E42",
"~ 	c #375C03",
"{ 	c #664473",
"] 	c #565158",
"^ 	c #405E1B",
"/ 	c #485C2E",
"( 	c #2D671B",
"_ 	c #346705",
": 	c #3A632F",
"< 	c #39651E",
"[ 	c #755777",
"} 	c #845094",
"| 	c #645E66",
"1 	c #616154",
"2 	c #3D7614",
"3 	c #49741B",
"4 	c #427626",
"5 	c #427630",
"6 	c #44753D",
"7 	c #4F732E",
"8 	c #805C8E",
"9 	c #4D7252",
"0 	c #666E30",
"a 	c #6E6E62",
"b 	c #458309",
"c 	c #716D70",
"d 	c #736C79",
"e 	c #587A41",
"f 	c #627749",
"g 	c #567B4B",
"h 	c #4A831A",
"i 	c #4B8327",
"j 	c #4F8232",
"k 	c #4D823B",
"l 	c #578127",
"m 	c #5B7F32",
"n 	c #508148",
"o 	c #5A803C",
"p 	c #697C3D",
"q 	c #7D787F",
"r 	c #9570A0",
"s 	c #539112",
"t 	c #5D8866",
"u 	c #7A7F6D",
"v 	c #7D7E75",
"w 	c #599025",
"x 	c #509324",
"y 	c #539230",
"z 	c #5C8F37",
"A 	c #5E8F30",
"B 	c #817E7C",
"C 	c #569047",
"D 	c #53923B",
"E 	c #5C8F3E",
"F 	c #5C8E51",
"G 	c #658D3C",
"H 	c #658C48",
"I 	c #5D8F48",
"J 	c #6D8B3D",
"K 	c #5C8E59",
"L 	c #678B5B",
"M 	c #858087",
"N 	c #6F9056",
"O 	c #7E8D61",
"P 	c #8D8499",
"Q 	c #619D21",
"R 	c #58A11C",
"S 	c #6C9B22",
"T 	c #8D8A90",
"U 	c #669E33",
"V 	c #6B9774",
"W 	c #6A9C3D",
"X 	c #5EA133",
"Y 	c #60A03E",
"Z 	c #699D44",
"` 	c #689D4B",
" .	c #679D51",
"..	c #60A048",
"+.	c #609E60",
"@.	c #5EA053",
"#.	c #699B66",
"$.	c #679D58",
"%.	c #729A55",
"&.	c #749867",
"*.	c #6A9C5E",
"=.	c #739B49",
"-.	c #7B994A",
";.	c #89917C",
">.	c #8E8F86",
",.	c #918E8C",
"'.	c #959197",
").	c #71A82E",
"!.	c #65AE1D",
"~.	c #66AD2D",
"{.	c #77A93F",
"].	c #6DAD3B",
"^.	c #6CAD43",
"/.	c #68AE4A",
"(.	c #65B03F",
"_.	c #70AC4A",
":.	c #6BAD51",
"<.	c #78AA4A",
"[.	c #6BAD58",
"}.	c #7EA942",
"|.	c #6AAD60",
"1.	c #9C9996",
"2.	c #73AA64",
"3.	c #75AB55",
"4.	c #9C999D",
"5.	c #74AB5E",
"6.	c #70AB6D",
"7.	c #7DA774",
"8.	c #81A955",
"9.	c #81A862",
"0.	c #89A757",
"a.	c #A996B4",
"b.	c #AE9797",
"c.	c #7DA885",
"d.	c #96A08F",
"e.	c #A09CA8",
"f.	c #6CB91E",
"g.	c #6FBA2C",
"h.	c #6DBD13",
"i.	c #85AE70",
"j.	c #6FBA3A",
"k.	c #A4A1A6",
"l.	c #A4A29F",
"m.	c #7AB83C",
"n.	c #9BAA7C",
"o.	c #74BB56",
"p.	c #71BD4C",
"q.	c #68BF57",
"r.	c #8BB54E",
"s.	c #7BBB48",
"t.	c #7ABB50",
"u.	c #76BA6C",
"v.	c #78BB5D",
"w.	c #7DBA57",
"x.	c #6EBE60",
"y.	c #77BB64",
"z.	c #86B857",
"A.	c #7DB87A",
"B.	c #81B86D",
"C.	c #93B462",
"D.	c #83B962",
"E.	c #8EB662",
"F.	c #8FB56E",
"G.	c #8CB581",
"H.	c #9DB362",
"I.	c #ACA8B3",
"J.	c #ADA9AE",
"K.	c #ADABA8",
"L.	c #7AC541",
"M.	c #7AC548",
"N.	c #8CB996",
"O.	c #79C82B",
"P.	c #A4B19E",
"Q.	c #B8A8C5",
"R.	c #7CCB16",
"S.	c #C1AAA2",
"T.	c #7DC83A",
"U.	c #77C768",
"V.	c #7CC856",
"W.	c #88C649",
"X.	c #85C65A",
"Y.	c #87C653",
"Z.	c #B3B0B6",
"`.	c #88C561",
" +	c #81C862",
".+	c #85C769",
"++	c #84C76F",
"@+	c #82C777",
"#+	c #8CC478",
"$+	c #89CB33",
"%+	c #90C671",
"&+	c #84CD4D",
"*+	c #8FCB41",
"=+	c #93C76C",
"-+	c #95C765",
";+	c #9CC571",
">+	c #91D01E",
",+	c #9DC57D",
"'+	c #8CC990",
")+	c #99C590",
"!+	c #9CC586",
"~+	c #8FC987",
"{+	c #ACC17E",
"]+	c #8FCE5F",
"^+	c #BDB7CB",
"/+	c #BBB9BF",
"(+	c #91CE6A",
"_+	c #93D053",
":+	c #95CC7F",
"<+	c #9CD03C",
"[+	c #9CCD62",
"}+	c #90D075",
"|+	c #A1D226",
"1+	c #BEBDBA",
"2+	c #A1CF54",
"3+	c #8FD756",
"4+	c #BBC685",
"5+	c #9DD178",
"6+	c #A1D16F",
"7+	c #99D666",
"8+	c #C2C1CB",
"9+	c #A8D07A",
"0+	c #C4C1C6",
"a+	c #B0CE79",
"b+	c #CDC1A9",
"c+	c #B4CC90",
"d+	c #A8D187",
"e+	c #D1C3A3",
"f+	c #A8D0A0",
"g+	c #B2CD9F",
"h+	c #A9D191",
"i+	c #B2CF8A",
"j+	c #A8D198",
"k+	c #B8CE8A",
"l+	c #A1D689",
"m+	c #BECBB7",
"n+	c #A2DC5B",
"o+	c #BDCEA1",
"p+	c #B6D1B3",
"q+	c #AAD5B1",
"r+	c #CCC9CD",
"s+	c #CBC9D3",
"t+	c #9EDE81",
"u+	c #D2CBB9",
"v+	c #B0DE72",
"w+	c #B1DF84",
"x+	c #B8DE95",
"y+	c #B9DCAD",
"z+	c #D3D1D3",
"A+	c #ABE3A1",
"B+	c #B9DF9F",
"C+	c #B9DFA6",
"D+	c #C7E1C2",
"E+	c #C3E9BA",
"F+	c #DFDEDF",
"D.v._+%+B.#+:+%+D.9.9.#+,+D.,+!+9.#+5+%+v.v.w.;+9.F.Y.6+:+:.%.F.I D..+2.u.*.2..+2.G.,+[.D.B.9.*.F.!+:+!+n.z. +t.X.M.D.2.B.v.y.t.",
"L.X.*+D.:+E.#+F.F.F.9.`.;+E.9.d+F.D.`.8.i.B.#+j+h+,+F.G.P r 8 q &.B.2.#+%+D.#+G.B.B.~+H D.v.B.9.#+s.E.E.B.%+3.j.X.s.3.D.*.$.v.p.",
"L._+_+++o.w.B.i.7.B.%+_+`.B.` ;+8.-+D.D.9.D.X.`.5.3.c+b.) ) ' & & c )+)+B._.2.D.G.D.#+2.^.v.[.%+i.Y.w.G.9.i.i.:.].L.%+Y.!+G.9.w.",
"O.=+*+X.].%+G.!+)+9.`.`.M.`.=.!+z.<.D.B.%._._.y.2.I {+b.} ' ' ' & & 2.6.$.5.B.w.)+D.y.2._.Z #+D.E.]._.w.F.h+3.9.3.Y.s.~.9.i.B.%+",
"z.`.R.L.3.z.,+G.G.2.3.D.F.E.c+,+t.z z.B.5. ._.$.:.*.P.b.8 ' ' ' & & &.2.y.y.5.D.)+F.y.7.*.:.,+i.z.Y 5.^.t.B.:+#+=.z.].D.X.9.5.=+",
"w.D.O.m.2.v.!+)+)+#+D.5.`.E.c+<.Y.9.%+9.2.%.i.F.5.H P.S.} ' ' [ , & &.w.D.B.y..+`.8.9.B.G.D.G.&.3.^.3.9.3./._.`.,+F.E.{.3.w.*.9.",
"M.X._.T.:..+#+G.9.%+B.D.w.E.,+z.F.5.F.!+#+u.D.D.y.7.b+b+r B 9.<.A d B &.D.9.B.L.)+8.%.5.,+5.B.u. .F s.z.E.].:.5.t.=+9.E.v.<.3.5.",
".+^.z.L...y.~+i.2.t.` F.y.9.9.=+=+9.!+5.D.%+B.#+D.6.b+{+8.).Q Q =.d.u  . .F.B.j+0+%.h N F.A.D.[.D.B.3.9.X. .^.:.Z s.D.<.D.#+D.3.",
"s.t.v.].%.B.#+.+B.E.%.B.F.9.3.d+y.F.`.F.F.h+%+v.w.P.g+{.Q Q Q Q 9.P.Z.Z.Z.Z.Z./+/+i.h 3 H 5.E B.2.[.2.-+%+D.s.t.s.^.`.s.s.].m.t.",
"D.s.V.5.F.i.5.t.F.=+!+h+!+!+)+:+D._.3.9.)+r+m+!+F.p+r+<.Q s Q Q U &.K.K.K.K.K.Z./+i.h 3 7 n.Z 3.2.B. ._.^.(+w.w.v.8.=._.X.D.Z W.",
"D.%+t.X ].9.F 3.o.j+G.D.o.F.%+w.B.v.3.9.!+!+c+!+A K.r+n.U h Q s s N K.K.J.Z.l.J./+&.2 3 3 7.B.5.$.7.o.O.t.`.5+v.=.9.H O {.M.:.D.",
"B.B.E {.[.&.5.^.w.)+%.3.t.%+#+3.%+X.G.8.8.{.)+!+A P.r+Z.Q w s s s E l.K.Z.1+l.J.Z.&._ 3 4 7.j.2.B.p._.#+B.$.B.#+3.&.9.7.9.V.D.!+",
"j+D.3...G.N *.j.!+.+5.3.m.D.F.#+:.X.P.P.K.P.n.E.A P.r+0+9.s s s w h l.J.Z.Z.k.Z.K.&._ 3 e d.%+o.[.I  .B.v.5.:.:.A. .G.9.D.` H F.",
"!+_.B.6.B./.M.F.` _.:.3.s.w.%.y...P.0+r+r+r+r+0+Z.Z.8+0+K.s s s s b l.K.K.l.k.l.4.H _ 2 L P.7.5.2.K 2.)+)+!+B.++y.y.,+7.8.2.B.3.",
"!+2.B.D.^.j.Y.v._._.v.B.3.B.B.i.K.l.,./+r+r+r+r+0+/+8+0+0+%.s s s b 1.K.k.l.l.4.1.m _ 2 v 4.d.*.y.G.)+2.#+!+w.D.*.B.D.G.5.F.F.8.",
"!+5.o.v.:.s.B._.v.:.`..+D.3.&.K.1.>.>.>.r+0+r+r+0+/+8+0+0+P.s s s b d.k.k.k.l.1.1.m _ < '.l.M v 2.G.G.#+G 9.#+#+#+#+5.!+z %.B.9.",
"5+z.7.[.u.v.w.#+3.t.`.t.`.^.d.1.1.>.,.v Z.r+0+r+0+/+8+0+/+/+E s b b ,.l.1.,.,.1.,.i _ e '.4.B 1 7.2.2.2.F D.L ,+G.j.<.#+i.` i.B.",
"=+#+~+#+#+y.o.E.^.^.w.m.s._.l.K.l.>.,.u ,./+/+0+0+Z.0+0+/+/+d.s b b >.4.1.,.'.1.>.2 _ u '.1.u 1 ;.2.[.o 5.y.i.N ~+y.N G.2.7.2.G.",
"z.D._.%+B._.v.D.s.E.w.]+W.<.1.'.>.v a 1 c Z.Z./+0+Z.0+8+/+/+Z.y b b ;.'.'.4.4.4.;._ ~ ,.'.'.1 ! v _. .%.H 5.2.$.B.@+*.%.D.%.%+2.",
"5.Z  .!+#+^.w.t.D.9.<.t.<.^.m+z+r+0+l.c ] Z.k./+0+/+/+8+/+/+/+;.b b v '.1.'.l.4.O _ f '.'.B ! ! v I E A.$.*.&.#.y.9.#.5.D.3.j+++",
"u.5.I i.#+v.3.z.`.D.E.t.].m.m+z+r+r+/+Z.c k.4.0+0+/+/+0+/+Z.Z.J.i b u '.l.k.4.4.L _ B ,.T ] 1 T l.2.$.2.*.7.7.7.y.$.e B.$.%+G.#+",
"y.@+B.G.D.X.t.z.;+[+X.3.].p.r+z+r+0+Z.Z.T M 4.0+0+/+Z.0+/+Z.Z.Z.;.b u '.1.,.,.4.e e ,.,.M T 4.1.4.7.&.7.*.G.!+&.F.3.^.3.G.)+G.++",
"I #+5.!+5.`.t. .`.$+w.D.y..+z+r+r+r+Z.I.4.d T /+0+/+Z.0+/+Z.Z.J.k.i L ,.'.,.'.4.< B ,.,.T '.4.1.1.d.N i.)+;+D.5.w.`  .i.D.2.w.$.",
"` .+D.#+5.w.t.3.D.W..+y.y.)+z+r+r+0+J.J.Z.T d Z.0+/+{ /+0+Z.J.J.J.;.L T ,.,.'.1.f ,.,.,.M '.1.1.1.l.5.t.E.++.+3.5.=.3.3.:.t.` <.",
"I t.++.+s.Y.`.F..+V.o.B.:.m+z+r+r+1+J.l.G.k.| e.I.{ @ I.0+Z.J.J.k.k.1.T ,.,.'.4.>.,.,.T T T '.1.1.1.G.3..+B.B..+X.<.i.9.y.#+3.s.",
"X 3.w.%+T.T.%+;+F.3.j.E $.Z.0+0+/+k.l.A.7.J.d [ @ @ d Z.0+/+J.J.K.k.4.'.,.T 4.4.,.,.,.>.,.M M '.1.1.G.5.%+#+<.i.++B.v.$.y.F ^.m.",
"~.E t.`.W.L..+B.B._.Z  .e m+z+r+r+Z.K.[.*.B + + @ M k.J.0+Z.k.J.k.k.4.'.B ,.k.1.>.M T ;.*.T d B ,.'.)+9.5.Y.t.F.#+2. .5.B.5.t.<.",
"F.G `.Y.=+D.o.3.[.^.m.o.B.1+z+1+1+l.l.o.[.7., ] q '.d c 0+Z.T k.4.,.1.'.,.'.4.M B B q &.<.,.>.,.1.'.d.F.D.3.^.Z 9.9.5.3.8.` Y <.",
"}+o.t.`.X.B.3.3.D.:.M.w.i.8.F.n.n.&.N &.3.B.G.>.;.;     M Z.'.k.T T T ,.,.,.4.M T M '.=+s.u f L L H H %.E.%.Y ^.3.E ].F %.2.*.` ",
"}+p.5.w.s.5.E 5.w.M._.t.9.h b 2 _ _ ^ &.v...%+[.o.1       k.J.k.k.k.'.M B M '.4.'.,.d.i.&.~ ~ ~ ~ - = *.%.E.].%.Y _.` Z C %+F.w.",
"G._.w.D.D.3.s.v.`.t.^.j.!+d.u 9 / ^ ^ &.B.[.D.t.&.= # # = = 1 1 c v c % % ! >.7.7.6.B.[.g ^ ~ ~ ^ ! u $.B.5.2._.[.B.G.5.E F.3.D.",
"D.F.`.5.D.3.Y D.9.5._.].!+I.k.T q q M .+D.9.y.$.l.q | ] ] | | ] ; $ $ % $ $ 7.5.` 9. .A.e / a v q c &.*.2.I :. .t.^.D.G.2.A.A.Z ",
"X.`..+o. .3.3..+o.[.` ^.F.Z.e.T q q >.w.3.i.v.` D.d | c c d c | | c c | ; ; 9.:.*.i. .i.T M M q c u E.*.u.u.%.3.3.B.B.i.*.)+!+#+",
"~+G.*.3.5.2..+V.Z B.Y t.w.Z.e.T q q ;.z.t.5. .^.P.'.d c T '.'.T T ,.,.B c | i.s..+D._.i.M M q c | 5.%+G.N B.2._.3.X.3.D.i.W 3.:+",
"p+G.5.i.!+~+3.3.` ` Z w.X.P.k.T q M i.t.3.%.5.B.e.4.k.'.M 4.k.4.1.'.,.,.B d v p.s.z.<.i.M M q c &.`.%+N 9.$.[.` 9.<.w.w.` U ` 5.",
"i.p+F H D.#+F.i.9.$.y.<.Z 9.I.T q >. .E  .%.%.G.'.J.I.Z.T '.4.4.'.,.M B c q B ].Y s.5.9.T M d a 5.w.Y.t. .*.$.8.9.<.m._.*. .7.5.",
"_.j+..j t.D.t.D.m.Y w.`.v.y.N.'.d 1.I  .o o B.n.4.J.Z.k.'.d T T M q d c q ,.'.Z 3.Z %.P.T | c 9.Y w.p.s._.2.D.w.v.O.m.s.` [.H 9.",
"h+9.`.w.U t.s.s.].Z w.w._.{.p+0+4.e.I.B.3.!+B.d.I.Z.Z.4.T d M M d c | c '.,.T 9.L H Z.J.k.'.'.7.5.5.^._._.$.9.w.D.O.m._.s.F *.N ",
"h+i.<.s.$._.D.t.<.].t.w._.` 0+Z.'.T T )+5.F H P./+/+J.1.T d.G.G.G.M c T '.,.T *.&.i.J.M d q M c.*.*.9.B._.3.%.s.X.^.L.` t.5.7.8.",
"`.D.2.t.o.D.`.D.t.^.j.w.%.` Z.4.4.9.T d.++5.5.Z.8+/+J.'.T G.D.D.3.'.T 4.4.,.T 7.i.n.4.q q q q 7.:.5.3.3..+y.5.B.^.t.t.%+D.w.w.!+",
"(+w.F.#+w.F.F.,+].j.5.w.m.t./+'.P.^.>.d.B.5.v.Z.8+/+k.T T %+p.5.`.d.T 4.k.'.T ;.D.G.'.T T T M 7.X.3.D.` w.s.s.s.t. +{.3.t._.y.!+",
"D.:+3.:.D.t.=+v.:.<.w.w.`.`./+4.P./.i.c.v._.t.0+8+Z.4.T >.5.m.3.3.d.T k.4.M M A.7.f+e.e.'.M q 7.#+h+-+;+3.Z W.D.s.V.5.D.2.3.v.5.",
"D.(+`.o.w.w.=+v.3.X._.5.*._.P.4.K.o. +.+t.P.K./+0+Z.T M d.g.m.B.9.P.'.k.M q q 7.5.g+I.I.J.4.d.#+v.]+E.9.V.:.w.v.%+Y.Y ].9.*.o.` ",
"3.l+t.D.D.` <.3.z.B.5.3.8._.P.k.I.V.t.B.y.K.I.0+/+T c q c.3.m.++#+P.'.'.c 1 | G.B.P.J.e.4.4.F.i.w.`.B.D.D.D.#+B..+W _.5.&.5.o..+",
"w.F.D.w.3.Z W.t.B.t.t.t.g.j.G.J.K.X.D.D.v.Z.Z.0+T u a a B.^.M.B.y.d.M v v a a !+#+v.B.B._.F.w.F.D.t.o.D.`.D.B.)+F.w.:.B.5.5.#+D.",
"E.,+D.z.^.X.v.5.F._.p.w.s.w.t.P.K.X.D.X.`.Z.0+'.B u 1 1 M.V.v.B.B.P.q u a 1 ] #+D.B.B.2./.#+D.D.B..+t.Y.(+t.B.#+o..+B. +v.;+,+9.",
"D.9..+v.D.E.,+t.3._.w.<.L.s.p._.;+`.=+`.`.P.r+0+1.a ! u t.p.:.:.2.G.J.,.a ! a P.%+d+B.i.w.#+y.t._.2.v.V.:+M.D..+5.B..+v.w.`..+D.",
"3. .9.D.9.w.w.#+*. ._.v.M.Y.t.t.F.`._+D.t.d.r+r+0+Z.,.1.)+_.o.t.Y G.I.8+/+k.J.J.9.s.X.5.B.D.w.Y.Y.t.o.v..+%+X.%+w..+%+v.D.`.D.X.",
"3.8.!+9.)+B.B.;+B.t.X.`.3.5.3.t.3.`.$+`.w.w.r+r+0+0+r+k.k.A.3.p.].i.I.8+z+0+Z.l.G._.t.o.D.F.v.X.T.j.w.w.%+=+`.%+z.++D.#+X.w.B..+",
"^.z.#+B.#+5.3.;+%+D.`.t.w.3.=+X.8.X._+t.t..+r+r+0+0+r+/+l.P./._.p.G.I.8+z+0+1+l.d.3.s.Y w.:+2.D.Y.V.s.D.5.%+:+%+%+%+d+B.z.D.E.~+",
"^.D.B.B.B.5.w.;+,+.+M.v.w.X.<.D.,+`.`.m.8.%+r+r+r+0+0+0+l.k.5.:.:.#+k./+z+0+0+k.l.%.:.v.y.,+=+`.w.=+.+%+D.!+`.5+#+,+!+B.:+=+`.D.",
"v.B.B.`.:.` z.z.B.3.w..+B.z.<..+;+%+t.m.t.!+s+r+r+0+0+r+K.l.G.[.^.i.e.Z.r+r+r+J.4.;.D.w.u.)+,+`.w.]+%+#+A.!+%+++:+:+%+=+5+V.t.w.",
"5.5.w.y...Z _._.3.B.++5.`.X.w.D.D.y.w.]+-+!+r+r+r+0+0+r+/+l.l.$...G.e.Z.r+z+0+Z.l.d.D.t.D.2.=+~+3.]+t.y.#+A.$.#+}+.+t.]+Y.t.L.`.",
".+@+#+#+#+ .5.B.z.:.++D.,+D.w.w.3.s.^.W.`.;+r+r+r+0+0+0+r+k.k.7.o.G.k.I.8+z+0+0+k.l.B.3.D.7.=+`.`.w.w.o.B.y.y.B.v.%+w.t.W.3.X.`.",
"%+*.3.++$.y.D.3.p.#+D.w.=+w.B.w._.v.Y.t.Y.h+r+r+r+0+0+0+r+Z.k.P./.d.e.k.0+z+r+0+Z.k.d.i.`.2.D.W.w.D.D.B.#+B.B.A.u.`.t.].s.`.t.L.",
"%+5.[.Y v.Z v.9.s.B.#+i.X.w. ._.w.`.W._.W.p+z+z+s+r+0+0+0+0+Z.k.G.P.k.I./+z+r+0+/+k.4.!+F.B.w.Y.w.F.B.=+5.i.#+`.D.#+v._._.m.s.t.",
"3.2.5.$.W 5.2.3.].<.D.w.B.E.5.F.`.D.X.w.L.)+z+z+r+r+/+0+0+0+Z.k.G.n.e.e./+s+r+J.'.T '.)+o.D.p.].B.D.w.M.^.o.3.++v.v.2.:.s.z.~.p.",
"[.:.D. +5.y.B. .3.`.E.v.9.D.;+-+D.]+`.Y.s.Y.h+r+r+r+0+Z.0+J.'.n...9.e.4.J.I.J.Z.J.4.'.G..+:.w.3.`.3.w.M.B._.9.5.v.2.D.:.<.B.~._.",
"3.Y *.V.2.i.B.B.i.B. +.+&.i.t.`..+X.-+`.j+r+z+r+r+r+0+k.k.Z.J.d.3.K.J.4.e.I.r+0+Z.k.d.%+3.5.t.D.3.B.:+s.v. .%+F.D.B.#+5.I F.=. .",
"u.2.i.v.#+B.*.F.)+#+v.t.5.D.B.D.w.w.Y.#+m+z+z+s+z+r+Z.J.Z.0+J.K.F.I.e.4.e.Z.0+0+Z.k.l.B.B.B.Y _.:.++w.~.o.B.D.s.`.=+B.B.5.B.` A.",
"G.i.y.o.B.G.#+5.%+:+.+D.5.9.D.w.z.=+%+z.m+F+F+F+z+r+0+0+0+0+J.l.&.M P e.e.Z.0+0+/+J.K.i.B.D.5.^.B.%. .j._.=+X.B.D.z.X.9.i.z.8.N.",
"Y.z.F.3..+!+!+B.w.y.w.D.F.E.X.5.`.w.;.q T I.Z./+0+8+r+r+0+0+Z.4.&.u c , [ P a.a.'.q d u.D.E.w._.y.k 7.,+w.X..+:+D.F.y.A.i._.z.:+",
"Y.w.,+#+G.,+F.,+F.v.Y.D.F.;+#+#+3.t.3.&.7.;.;.M [ d 8 ' 8 { , a 2.5.[.2.7.G.>.M u &.#+2.!+!+*.v.o.` 5.z.9.`.V.:+B.6.w.B.G.w.T.G.",
"D.9.W.`.G.)+F.3.s.3.v.%+#+A.)+i.9.z.F.G..+B.D.z.v.:.E.%+v.t.5.B.B.B.7.$.#.G.%+i.F :+A.y.3.8.9.~+#+Y.D.3.i.=+=+s.V.D..+i.)+D.~.!+"};
