/* XPM */
static char * 64_grass_xpm[] = {
"64 64 255 2",
"  	c #294B23",
". 	c #265B16",
"+ 	c #33581B",
"@ 	c #44551E",
"# 	c #3B6436",
"$ 	c #4B6039",
"% 	c #37701B",
"& 	c #3A6F26",
"* 	c #34730E",
"= 	c #3A6F2F",
"- 	c #406F1E",
"; 	c #486C27",
"> 	c #3F710F",
", 	c #476C30",
"' 	c #496D1F",
") 	c #5D672F",
"! 	c #467644",
"~ 	c #507445",
"{ 	c #4A7C29",
"] 	c #487C33",
"^ 	c #477C3B",
"/ 	c #43811B",
"( 	c #537A3C",
"_ 	c #4E7F1E",
": 	c #587C1F",
"< 	c #46840D",
"[ 	c #448700",
"} 	c #45842D",
"| 	c #547C5B",
"1 	c #617951",
"2 	c #587F2F",
"3 	c #6B783E",
"4 	c #607D30",
"5 	c #597F38",
"6 	c #667C42",
"7 	c #538532",
"8 	c #52834F",
"9 	c #508544",
"0 	c #50863C",
"a 	c #5C8151",
"b 	c #5C8345",
"c 	c #4F8D28",
"d 	c #5A8B29",
"e 	c #549320",
"f 	c #559416",
"g 	c #589247",
"h 	c #5C9239",
"i 	c #55943D",
"j 	c #5B9240",
"k 	c #62903E",
"l 	c #5B914D",
"m 	c #678E46",
"n 	c #5A9155",
"o 	c #6D8D3F",
"p 	c #668E4D",
"q 	c #758B3F",
"r 	c #609147",
"s 	c #638E61",
"t 	c #648F56",
"u 	c #6E8C56",
"v 	c #778A4D",
"w 	c #589631",
"x 	c #559A0E",
"y 	c #629432",
"z 	c #768B56",
"A 	c #778F6B",
"B 	c #5CA03A",
"C 	c #639F3A",
"D 	c #6AA01C",
"E 	c #699F46",
"F 	c #689F4C",
"G 	c #719D4B",
"H 	c #62A247",
"I 	c #68A231",
"J 	c #65A054",
"K 	c #6FA031",
"L 	c #61A24D",
"M 	c #61A52A",
"N 	c #6BA229",
"O 	c #6D9E53",
"P 	c #669F61",
"Q 	c #6DA03E",
"R 	c #6C9E5A",
"S 	c #739C59",
"T 	c #61A533",
"U 	c #61A71D",
"V 	c #769C53",
"W 	c #64A15A",
"X 	c #729C62",
"Y 	c #5AA555",
"Z 	c #6E9D6E",
"` 	c #849863",
" .	c #64A83E",
"..	c #63A945",
"+.	c #6BA742",
"@.	c #66AD53",
"#.	c #6CAC57",
"$.	c #6EAC50",
"%.	c #6EAB5D",
"&.	c #75AA55",
"*.	c #6DB12A",
"=.	c #64B428",
"-.	c #69B337",
";.	c #6CB23F",
">.	c #63B540",
",.	c #6CB247",
"'.	c #75AF4B",
").	c #6BB069",
"!.	c #6CB24E",
"~.	c #76AD66",
"{.	c #7BAC60",
"].	c #74AD6E",
"^.	c #68B262",
"/.	c #83AA61",
"(.	c #82AA67",
"_.	c #83AB58",
":.	c #81AA6F",
"<.	c #88AB4D",
"[.	c #8CAA59",
"}.	c #6DB91F",
"|.	c #99A56F",
"1.	c #6DB55A",
"2.	c #74B35B",
"3.	c #7BB343",
"4.	c #77B53B",
"5.	c #75B364",
"6.	c #7CB25C",
"7.	c #6DBC32",
"8.	c #76BB34",
"9.	c #77B581",
"0.	c #69BE4F",
"a.	c #6BBE48",
"b.	c #85B183",
"c.	c #71BD40",
"d.	c #71BC50",
"e.	c #74BB56",
"f.	c #75BC48",
"g.	c #78BB50",
"h.	c #96AE88",
"i.	c #7FBA55",
"j.	c #71C062",
"k.	c #78BE60",
"l.	c #76C51C",
"m.	c #76BF67",
"n.	c #7DBD67",
"o.	c #7FBD61",
"p.	c #79BE6D",
"q.	c #77BE76",
"r.	c #83BB74",
"s.	c #82BB7C",
"t.	c #85BC67",
"u.	c #87BC61",
"v.	c #85BC6E",
"w.	c #91BA67",
"x.	c #91B975",
"y.	c #93B96E",
"z.	c #8FB97D",
"A.	c #71C657",
"B.	c #79C72F",
"C.	c #70C65E",
"D.	c #9BB866",
"E.	c #7AC549",
"F.	c #77C73D",
"G.	c #A8B37C",
"H.	c #79C557",
"I.	c #7DC45F",
"J.	c #82C451",
"K.	c #81C458",
"L.	c #7BC752",
"M.	c #81C740",
"N.	c #89C359",
"O.	c #88C35F",
"P.	c #84C833",
"Q.	c #8BC843",
"R.	c #81CF21",
"S.	c #8FC936",
"T.	c #81C96D",
"U.	c #8BC94F",
"V.	c #87C871",
"W.	c #89C86A",
"X.	c #8CCD27",
"Y.	c #83CD50",
"Z.	c #85C978",
"`.	c #8EC771",
" +	c #8DC778",
".+	c #91C76B",
"++	c #91C957",
"@+	c #87CC60",
"#+	c #86CC66",
"$+	c #8BCC59",
"%+	c #A0C752",
"&+	c #8BCA80",
"*+	c #89CA88",
"=+	c #99CA52",
"-+	c #9BC866",
";+	c #92CB68",
">+	c #93CC61",
",+	c #A3C766",
"'+	c #9CC96F",
")+	c #99C97B",
"!+	c #9BC975",
"~+	c #96C98A",
"{+	c #99C982",
"]+	c #8BD346",
"^+	c #A6C773",
"/+	c #A2C782",
"(+	c #A0C78B",
"_+	c #A4C77D",
":+	c #A0C799",
"<+	c #93CE78",
"[+	c #95CE71",
"}+	c #A8C68C",
"|+	c #9FD12F",
"1+	c #94CC99",
"2+	c #95CF7F",
"3+	c #98D34B",
"4+	c #9DDA0E",
"5+	c #A5D250",
"6+	c #98D562",
"7+	c #C5C392",
"8+	c #96D56C",
"9+	c #9DD55C",
"0+	c #B5CC7B",
"a+	c #B3CC83",
"b+	c #BEC894",
"c+	c #A2D46F",
"d+	c #B2CD8A",
"e+	c #A6D37C",
"f+	c #A6D565",
"g+	c #A5D385",
"h+	c #A4D38C",
"i+	c #A2D394",
"j+	c #A9CFB2",
"k+	c #B0D27E",
"l+	c #9ED87D",
"m+	c #AFD286",
"n+	c #ABD296",
"o+	c #B0D471",
"p+	c #B4D097",
"q+	c #AED38D",
"r+	c #AED2A0",
"s+	c #BACEA7",
"t+	c #AED2A9",
"u+	c #BFD6BD",
"v+	c #B6E089",
"w+	c #BEDDA2",
"x+	c #B7E194",
"y+	c #B7E19A",
"z+	c #B8DFAF",
"A+	c #C1DEB2",
"B+	c #C7DCB6",
"C+	c #B8E3A5",
"D+	c #B6E780",
"E+	c #BEE1BF",
"F+	c #C2EABA",
"o.2.=+v.v. +{+[+6.{.{.x.)+u.z./+/.x.!+x.6.2.2.)+(.w.J.!+&+F O w.l o.t.~.~.R ~.t.].z.{+#.o.v.~.R r.~+)+/+z.i.I.g.K.E.o.~.v.o.k.g.",
"c.O.Q.t. +t. +t.w.y.{.u.'+u././+w.o.w.6.:.n. +n+i+/+u.n.{+X R $.5.v.~.`.`.6.`.z.(.v.~+r o.6.v.(.z.g.O./.v.v.2.c.$+g.2.6.X R 2.d.",
"M.U.U.v.e.i.v.(.:.v.x.=+O.(.E !+_..+u.t.(.u.N.O.6.&.e.v.#.t.F r t.z.:+:+v.,.~.t.x.t.&+~.+.2.#.v.:.J.K.z.{.:.r.$.-.M.`.J.(+b.~.i.",
"8..+S.K.;.W.z.(+~+(.N.u.E.u.G (+_.3.u.:.R '.,.5.%.l +.{.2.{.$.6.:.&.%.].R ~.v.i.(+t.n.5.'.E  +(.w.;.$.i.r.h+&.{.&.N.3.*./.:.v.`.",
"i.O.R.M.&.u.)+z.z.~.2.t.w.t.}+_+'.h 6.(.{.J '.t #.R %.;.+.+.'.j P ~.R %.k.n.2.o.(+x.5.].R $.{+(._.C 6.+.g.v.)+z.G u.;.6.O./.%..+",
"i.u.l.3.5.6.{+(+h.r.t.{.O.w.}+'.N./.x.{.~.O :.x.~.p S 6.f.,.K.2.:.r.X e.u.n.n.W.t._.~.r.b.t.z.X &.+.&./.'.!.'.u.!+y.[.+.O 6.X /.",
"E.K.'.F.$.v. +x.{.v.r.t.i.w.G.i.y.S x.~+z.5.6.u.5.].S $.f.J.t.r.(.b.A X 6.{.v.E.o.&.{.&.)+S r.].J p f.i.w.-.$.%.i..+/.w.6.'.R X ",
"v.+.i.E.H o.~+:.~.J.F x.n._./..+.+{.(+&.u.v.v. +t.].m.i.8.;.!+(+{+:+S t F t.v.i./+u.~.%.v.s.o.#.6.r.&.{.N.O +.!.C 3.u.&.u.V.n.&.",
"f.g.I.4.S v.`.t.:.u.V t.w.{.{.h+5.x.O.w.y.i+`.2.i.:.z..+8.u.v.O.6.:+O :.x.~.O.t.&.!+~.&.r.$.i r.~.R 5.O.[+(.3.g.f.;.N.g.3.;.4.g.",
"6.f.H.%.y.:.%.g.y.w.{+:+{+~+(+2+n.F $.{.x.x.t+`.!.n.i.N.c.6.k.g.:.:+~.{./.&.f.f.$.!+f.O /.(+H $.~.v.J '.+.;+i.i.6._.G G N.5.E J.",
"o.!+J.B Q (.l #.2.:+z.t.e.w.`.i.t.k.L 5 F 6. +O.!.r.2.g.e.K.o.g.O.w.t.o.6.+.t.$.-.'+W.~.w.o.t.%.O ].g.B.H.O.)+6.m (.m z +.E.$.o.",
"(.v.k '.#.X %.,.g.(+O &.i.`.r.&.`.K.2.R $.O.o.6.K.5.v.E #.k.o.g.4.3.'.J.{.6.o.2.x.&.O.i.'.'.8.~.n.f.'.v.p.R v.`.&.` (.:.S L.o.(+",
":+t.&.H r.t X 4.~+t.6.'.3.n.(.r.$.K.&.~.5.p.5.r.4.#.O $.,.,.>+f.3.c.'.g.&.t.n.I.5.;.$.o.2.u.v.e.#.j O r.2.{.$.!.r.p b./.t.F p v.",
"{+'.v.~.r...E.v.F '.O &.'.6.S 5.H i.J ~.W n.2.W.d.n.,.v.o.g.8.3.g.8.K.;.i.2.e.d.c.+.z.(+ +z.:.2.~.t ~.(+(+~+v.v.5.5.)+:./.~.v.&.",
"~+X r.n.+.4.K.6.$.!.e.n.&.n.n.J J g.v.v.k.2.H.g.6.s.C u.e.f.7.'.4.f.4.'.O.E.7.c.T &.v.r.4.&.].R n.z.:+~.v.~+6.n.R :.t.r.%.x.v._.",
"(+{.e.k.$.f.n.$.o.$.O.n.u.&.E 2.n.o.F H !.#.I.e.,.h.V `.k.i.4.8.C i.N.-+t.f.M.d.'.F v.~.&.l P !.~.z.b.z.k {.z. + +x.%.~+h S t.{.",
"!+i.:.#.p.2.e. +&.g.O.i.u.+.k u.%.W.2.e.I.5.2.2.!.%.r.%.d.f.u.i.6.J.Q.K.,.6.c.8.K.W.,.E &.%.%.5.#.~.~.~.p (.t z.b.4.+.z.(.F r.v.",
".+`.~+z. +5.g.t.+.3.6.4.3.'.F ;.g.t.%.c.'.t. +v.v.$.H k.k.'.N.f.E.E.'.g.2.g.4.f.3.f.+.{.(.|.R t.:+~.#.5 R 5.:.u &+o.p z.~.:.~.z.",
"u.6.$..+v.3.2.t.'.w.6.++J.'.&.'.i.6.i.f.i.n.p.i.n.k.~.t.2.f.6.i.+.4.i.{+t.g.8.c.+.u._.g.G |.x.v.X $.O S b S ~.R r.Z.X S o.S <+~.",
"6.Q J {+ +,.6.g.u.6.'.'.'.;.J.3.F g.+.i.i.o.v.I.,.@.#.t.g.g.$.i.g.u..+)+`.g.f.f.F /.h.x.i.u.x.R X r r r.R R S X o.~.P X t.R n+v.",
"p.%.g :. +2.'.u.w.o.t.'.4.c.4.6.$.o.{.%.2.&.g.f.g.g.~.v.t.g.E.E e..+O..+r.`. +t.:.5.V u.u.{.t.X Z P W ~.R :.:.:.5.R b r.R `.z.Z.",
"5.r.r.z.u.O.i._.!+-+N.2. .f.g.n.K.&.E (.2.$.;...C E 6.v.F $.,.$.2.&.O.i.$.6.o.v.z.W.I.S z.z.z.{.:.%.X :.X b.{+X y.&.+.&.x.(+z.v.",
"g z.{.~+{.t.g.O u.P.i.t.k.f.f.f.L.,.{.&.$.,.,.T r R v.v.6.6.V i.e.6.O.6.t.2.o.v.t.g.&.{.#.&.)+t z.].u :.:+)+t.&.6.E F :.o.~.o.R ",
"F v.o. +{.i.g.'.u.M.t.n.k.e.1.d.!.~.r.$.G &.W.k.j H 2.d.&.,.6.6.k.'.v.6.`.e.o.v.r.,.C /.r h _.~.~+s.{.g.u.v.W.&.{.G V #.J g.F '.",
"r g.v.W.f.J.O.y..+K.2.].$.$.$.;.#.R ~.J F E /.5.~.W %.g.,.'.$.$.e.!.i.o.o.v.V.W. +2.H i.k _.6.{+e.&.:.&..+r.v.W.K.'.(.(.5.z.2.f.",
"T &.H.V.F.M.`.y.v.&.;.j R )+o.2.n.v.2.5.J X x.$.F %.%.$.6.M.i.d.'.&.,.e.&.v.`..+2.{.O V E 6.z.r.].,.&.{.`.z.'.v.r.v.2.O n.l +.4.",
"M k f.O.M.E.W.n.v.$.+.O ( (.O.t.o.o.i.%.X O n.~.J ..$.+.f.E.i.!.Q.i.k.O.n.&.t..+g.2.6.E O z.d.v.R p. +(.6.J.i.v. +X F &.v.%.g.3.",
"r.k t.J..+u.e.#.#.,.4.d.%.2.$.$.2.'.O.2.%.R #.].$.;.,.O u.`.i.M.+.+.-.L. +:+r.O.g.$.K.E &.r k.F 6.,.#.6.n.&.+.E {./.%.&.6.F C '.",
"[+2.g.O.N.v.&.&.n.$.E.6.6.2.&.g.!.o.f.C 2.v.X %.E.O.I.k.2.i.P.{.&.f.J.J.k.2.'+v.].R i..+3.y t.w E #.F x.(.O C ..&.j  .l X ~.S F ",
"<+f.%.i.f.2.k {.K.E.,.g.J.O.6.o.'.E.E.O.5.H x.O f.J.i.6.$.X.U.o.o.E u.K.g.2.N.5.p.:.:.:.z.O g.p O R #.{.S u. .O j ,.F E 9 `.x.J.",
"z.'.2.t.6.&.'.6.@+g.+.4.J.u.w.i.M.3.g.&.v.#.6.d.%.M.4.,.f.Q.i.o.&.&.t.u.e.6.O O {.%.:.#.z.t g.R {.].O R r.%.X $.%.v.x.%.b x.&.6.",
"o.x.O.S (.&. .t.6.{.G ;.J.u.t.'.f.g.2.t.6.(.5.R &.J.$.,.M.6.t.u.g.2.&.f.N.J.$.{.r ~.J #.r.&.2.r t r.S X ~.r $.O g.+.6.x.~.r.s.E ",
"o..+v.e.O &.&.W.g.#.E +.f.M.!+v.R t.N.6.&.v.2.L c.K.2.E.J.c.O.'.f.K.3.i.>+f.g.$.X :.O $.o.r.h z.t.S (.X p.].R &.&.r.n.:.P h.~+ +",
"~+z.R #.&.X t.L.Q t.C g.i.N.i.t.F i.&.i.g.2.J ;.g.7.B.c.g.J.B.J.M.g.H '.w.'.+.f.t.t.'.&.o.r.].{+O.'.`.z.u r.5.,.&.K.&.(.].C &.{+",
"t+z.S b.~+z.&.&.F E E 6.N.+.i.!.r r.&.'.&.O %.2.g.8.;.e.f.8.-.B.M.K.o.O.i.2.C f.f._.'.$.`.{.(.~.i.O.`.S /.W #.F {.+.2.e.F C F {.",
"r.t+l b u.x.y.:.{.J 5.'.E &.E 2.F {.F j O O R o.$+4.i.g.i.O +.8.+.'.u.O.+.e. . .C 3.&.&.`.u.6.O {.i.J.g.L R R &.{.'.4.'.R O :.&.",
"'.n+H 7 i.u.J.u.4. .i.O.6.5.~.~.o.$.7 F 9 b v.i.6.&.3.'.{.%.#.!.i.J.J..+!.$.C k &.+.S {.W.,.;.O C o.!.E.!.~.t.6.6.B.4.E.r %.r /.",
"(+(.O.6.C g.'.g.;.m 6.o.$.+.O.(.o.6.C 2.O ~+~.H z.k.2.5.5.%.'.+.E.P.P.*.3.'.E {.1 p t.n.o.2.-.w {.5.+.'.$.O {.I.u.8.3.'.3.p P O ",
"i+:.3.f.O '.u.g.'.-.J.i.+.G ].$.i.'.&.t.{.t p #.%.n.r.{.k.i.&.'.c.J.'.;.J.g.r O X S 6.n.&.&.f.e.R R (.v.'.&.S g.K.+.M.F i.&.].&.",
"O.(.X g.e.o.O.u.'.;.4.6.O F 2.2.O.&.k.5.v.{.%.p.~.t.6.u./.6.u.t.2.J.J.K.2.g.R S (.{.2.v.~.%. .I.$.&.&.&.n.n.&.t.+.g.J.`.o.i.i.(+",
";+6.x.r.g.y.v.)+;.8.6.i.c.g.g.'.Q.+.O v.n.{.6.n.5.'+O.$.g.t.f.6.N.N.&.n.&.$.2.t t.5.n.2.6.p n.r.N.&.o.G i.f.f.f.g.I.;.&.i.,.{.{+",
"u.{+'.$.o.'..+k.@.'.6.i.O.@+o.E B.!.f.$.6.$.g.5.g.O.5.+.&.{.4.2.&.K.n.5.R %.o.~.:.(+%.2.t.(.%.:. +(+.+y.2.E U.6.3.K.%.u.5.2.o.{.",
"6.;+u.2.6.i..+6.$.N.!.6.R ,.g.8.7.e.#+W.g.E.g.2.W.O t.~.n.8.4.r.{.5.o. +i.t.{+:.~.(+R 6.5.W.{.x.6.++u./.K.#.6.o.)+J.C ;.(.R 2.F ",
"$.(+J.o.u.G '.&.i.n.&.&.&.'.J.f.,.E.g.t.5.g.O.`.`.n.6.t.p.'.c.v. + +:+r.e.F v.v.v. +p.$.$.5.o.:.i.O.v.6.o.n.z.t.v.k '.%.X {.2.W.",
"6.w.u.6.&.E J.i.5.'.e.g.7.8.g.J.f.K.t.o.o.W.g.o.o.t.K.,.2.;.E.n.5.n.:.:.:.b.6.{+x.o.2.6.+.v.i.v.o.g.e.o.W.n.v.:+v.6.$.:.%.{.v.n.",
"/.z.t.i.+.N.o.%.v.,.f.i.f.i.g.g.g.N.u.K.O.o.$.J.'.i.E.f.E.E.I.v.v.`.:.z.n.)+6.[+t.v.r.~...)+u.u.v.W.g.J.'+g.n.r.'.t.v.n.k.)+)+{.",
"u.6.W.6.o.w.z.g.$.$.e.'.c.f.f.+.'+t..+u.u.f.g.J.&.;.f.f.g.f.$.$.%.2.n.(.5. +V.v.`.}+v.r.6.x.n.g.$.5.k.L.{+E.u.t.{.v.t.2.H.W.t.u.",
"6.O 6.n.~.6.o.v.X J $.6.E.J.g.f.w.O.U.u.g.H '.o.o.i.+.i.g.'.e.g.C ,.$.2.5.n.n.{+2.f.o.{.v.o.K.J.U.g.e.2.W..+K.y.6.t.W.5.t.>+o.N.",
"6.6.(+{.(+v.v.x.(.g.N.O.$.{.2.g.&.O.P.u.i.g.o.6.K.e.2.g.i.6.&.d. .;.T $.#.F t.t.2.'.g.g.o.v.2.O.M.7.i.o.`..+O..+i.v.o.x.N.o.v.t.",
",.6.x.v. +5.&.y.v.t.O.g.e.&..+K.&.N.U.i.i.E.K.{.t.i.2.$.u.v.,.,.f.u.2.$.&.~.t.:.$.'.f.C 6.)+~.t.J.H.f.t.{.`.{+`.x.`.h+v.N.u.t.{+",
",.6.r.v.v.6.i.'+_+W.E.k.i.K.'.o.z.O.O.4._.f..+g.g.g.&.K.$.].#.$.!.O.$.1.@.:.z.(.z.F !.2.5.)+.+O.i..+W. +n.~+.+)+ +)+/+v.)+.+O.t.",
"5.v.p.W.$.F i.u.t.$.6.W.v.u.$.t.'+x.g.3.i.;+U.K.2.o.$.i.'./.~.1.+.&.F #.#.:.(.{.s.p 6.6.].(+)+O.i.>+`.r.r.{+ +W.2+{+ +;+!+L.J.i.",
"{.2.H.n.r m F $.2.:.v.{.t.K.i.n.n.n.i.++.+.+;+V.v.I.n.g.v.%.~.J H 2.!.#.H #.5.2.e.:.t.g.o.~.W.{+2.++i.5.s.&+O x.<+n.g.@+J.J.F.O.",
"t.r.r. +z.O 2.v.u.$.v.o.)+o.6.i.&.f.;.U.O.U.M.e.k.k.k.o.t.F $.%.!...,.,.....j $.5.$.6.2.o.:..+O.O.i.i.1.v.5.5.p.o.`.i.g.Q.$.K.W.",
"`.R 2.V.J k.o.&.d.z.t.i..+i.t.i.'.k.J.g.N.U.N.o.W.n.2.g.o.h $.n.,.H L 1.T ..%.R 5.2.R r.W.~.t.J.i.u.o.r. +v.n.r.p.@+d.-.f.O.g.F.",
"v.%.#.C 6...6.{.f.t.z.:.N.i.O E i.u.J.,.J.U.w.6.5.O C -.g.H '.g.f.F 5.W R ,.$.X R n.6.)+v.v.2.N.6.x.v..+2.v.x.O.o. +k.F ,.c.E.g.",
"&.).~.R C 5.~.&.+.'.t.i.v.w.{.v.t.t.K.i.M.o.y.w.i.,.C $.3.&.3.;.6.{.$.B e.H #.].t t {. +2.n.'.;.t.u.K.J.,.e.'.V.5.o.X $.3.i.*.f.",
"#.J t.o.%.n.(.O &.O.t.I.:.t.!+.+o.>+O.J.f.U.y.)++.3.5.$.;.6.3.3.H +.F  .R :.].R ~.{.g.z.t.$.i.$.u.&.i.E.n.$./.6.o.5.o.$.G v.T +.",
"'.H %.L.~.:.v.n.r.r.o.v.S :.J.O.W.O..+t.n.K.U./+u.g.K.$.H ,.E.G '.$.!.W :.X Z P s 2.k. +&.{.g.6.'.t.)+g.k.O x.y.t.r.z.%.r x.G O ",
"].~.:.k.r.t.X x.~+ +k.i.{./.t.u.g.i.J.N.H.O.N.J.i.++g.$.2.k.6.6.g.r f.o.v.X :.%.2.6.n.v.v.r. .,.$.v.K.T d.(.u.f.O..+:.~.{.v.F s.",
"z.:.n.2.v.z.x.{.`. +t.u.{.{.u.i.u.;+.+i.o.o.O.'.N.J.o.i.g.6.2.g.$.J I.6.J J P 6.{.n.5.~.(.o.2.+.v.O O c.'.[+O.v.o.N.N./.b.6._.~+",
"J.6.w.6.t.~+}+r.6.o.K.t.y.w.N.{.u.i.i.K.t.`..+i.u.J.f.o.6.2.e.j J r.5.2.v.X b.A u.r.:.5.5./.i.,.n.( :.z.i.N.W.)+o.x.n.r.:.'.i.{+",
"J.i._+x.z.)+w./+x.k.J.u.x..+ +r.#.g.2.O u.w.O..+6.i.Q.u.o.g.d.J ~.%.#.%.r.{+b.:./.&. +5.z.{+R 6.e.F R i.6..+J.{+n.].6.v.b.6.M.z.",
"u./.U.u.z.(+x.&.g.2.o.`.x.r.(+:.{.i.v.z.v.v.u.u.6.$.u.`.6.g.{.v.~.v.:.W P b. +:.p )+s.5.&.6.{.~+r.J.t.{.(.[+.+3.J.o.W.:.:+n.*.{+"};
