/* XPM */
static char * 64_moeda_5_escudos_grass_xpm[] = {
"64 64 255 2",
"  	c #000000",
". 	c #1D1A14",
"+ 	c #2B2822",
"@ 	c #38362F",
"# 	c #424039",
"$ 	c #314D2C",
"% 	c #494841",
"& 	c #505049",
"* 	c #544F49",
"= 	c #395D36",
"- 	c #336123",
"; 	c #3F5E26",
"> 	c #575750",
", 	c #5C5650",
"' 	c #5D5E43",
") 	c #396D1B",
"! 	c #605F52",
"~ 	c #5F5F57",
"{ 	c #645E57",
"] 	c #407028",
"^ 	c #486C43",
"/ 	c #407033",
"( 	c #4E6D34",
"_ 	c #66665E",
": 	c #6B655F",
"< 	c #577631",
"[ 	c #547829",
"} 	c #627059",
"| 	c #66732B",
"1 	c #467E2A",
"2 	c #736C66",
"3 	c #6D6E66",
"4 	c #6F6E60",
"5 	c #4E7D2B",
"6 	c #408135",
"7 	c #667352",
"8 	c #4E7D3C",
"9 	c #4E7E35",
"0 	c #4D7E44",
"a 	c #557B50",
"b 	c #5B7B41",
"c 	c #49861F",
"d 	c #5C8023",
"e 	c #528423",
"f 	c #7A736D",
"g 	c #767567",
"h 	c #6F7953",
"i 	c #75756D",
"j 	c #777763",
"k 	c #5A8C35",
"l 	c #508F38",
"m 	c #598C3C",
"n 	c #4C8F49",
"o 	c #648939",
"p 	c #4E8F43",
"q 	c #588C42",
"r 	c #827B74",
"s 	c #7C7D74",
"t 	c #7C7E69",
"u 	c #588C49",
"v 	c #7E7D6F",
"w 	c #618A42",
"x 	c #5A8B50",
"y 	c #608A48",
"z 	c #678848",
"A 	c #78815D",
"B 	c #668851",
"C 	c #55922D",
"D 	c #5E8C5E",
"E 	c #6D8C46",
"F 	c #59981C",
"G 	c #5A9725",
"H 	c #609433",
"I 	c #679232",
"J 	c #85847B",
"K 	c #8A837C",
"L 	c #7F8965",
"M 	c #5C9A35",
"N 	c #709068",
"O 	c #659941",
"P 	c #5D9C44",
"Q 	c #599C55",
"R 	c #5B9C4F",
"S 	c #719646",
"T 	c #649954",
"U 	c #62995C",
"V 	c #659A48",
"W 	c #6C9754",
"X 	c #649A4E",
"Y 	c #6E974E",
"Z 	c #6A975D",
"` 	c #73955B",
" .	c #68A13D",
"..	c #6C9C6D",
"+.	c #62A71F",
"@.	c #938F89",
"#.	c #949082",
"$.	c #8A9571",
"%.	c #6BA433",
"&.	c #64A72C",
"*.	c #99907E",
"=.	c #63A735",
"-.	c #63A73C",
";.	c #62A744",
">.	c #7DA041",
",.	c #6EA844",
"'.	c #72A64D",
").	c #71A653",
"!.	c #69A94D",
"~.	c #68A954",
"{.	c #72A560",
"].	c #74A55A",
"^.	c #6DA668",
"/.	c #67A95B",
"(.	c #6EA75A",
"_.	c #6BA861",
":.	c #7CA452",
"<.	c #7AA369",
"[.	c #7BA461",
"}.	c #7DA45A",
"|.	c #85A353",
"1.	c #919E68",
"2.	c #6AB338",
"3.	c #6DB23F",
"4.	c #6DB247",
"5.	c #6DB24E",
"6.	c #76B04C",
"7.	c #6CB72E",
"8.	c #76B42F",
"9.	c #6CB91E",
"0.	c #78AE7C",
"a.	c #76B53B",
"b.	c #7CB443",
"c.	c #87AC80",
"d.	c #A4A198",
"e.	c #9BA681",
"f.	c #70B75A",
"g.	c #77B559",
"h.	c #71B66E",
"i.	c #6DB867",
"j.	c #6FB860",
"k.	c #76B660",
"l.	c #78B566",
"m.	c #7FB459",
"n.	c #7EB460",
"o.	c #7CB46C",
"p.	c #81B366",
"q.	c #7AB474",
"r.	c #71BC40",
"s.	c #8AB167",
"t.	c #89B16D",
"u.	c #8AB25F",
"v.	c #74BB48",
"w.	c #88B176",
"x.	c #93B05F",
"y.	c #74BB4F",
"z.	c #74BB56",
"A.	c #A0AC74",
"B.	c #7FB954",
"C.	c #75C43A",
"D.	c #76C52D",
"E.	c #78C71E",
"F.	c #77C270",
"G.	c #80C43E",
"H.	c #82C52F",
"I.	c #84C063",
"J.	c #7CC35D",
"K.	c #83C06A",
"L.	c #7AC550",
"M.	c #79C557",
"N.	c #7BC649",
"O.	c #7BC279",
"P.	c #87C15C",
"Q.	c #7CC465",
"R.	c #83C171",
"S.	c #7BC46B",
"T.	c #84C17A",
"U.	c #82C559",
"V.	c #84C653",
"W.	c #88C08D",
"X.	c #82CE0C",
"Y.	c #B5B1A9",
"Z.	c #89C74D",
"`.	c #94C16C",
" +	c #90C17B",
".+	c #97BD91",
"++	c #8FC183",
"@+	c #ACB791",
"#+	c #92C275",
"$+	c #8EC655",
"%+	c #9CBF75",
"&+	c #A2BD82",
"*+	c #98C084",
"=+	c #9BC07B",
"-+	c #8ACD25",
";+	c #97C461",
">+	c #83CA64",
",+	c #8CC76A",
"'+	c #9FC262",
")+	c #85CD40",
"!+	c #8BC771",
"~+	c #8FC95E",
"{+	c #8EC965",
"]+	c #8DCA7A",
"^+	c #91CD49",
"/+	c #94CE3C",
"(+	c #8CCB84",
"_+	c #8DD603",
":+	c #97D02A",
"<+	c #91CF67",
"[+	c #94CE71",
"}+	c #93CE77",
"|+	c #97D057",
"1+	c #97D05E",
"2+	c #A1CF4D",
"3+	c #AEC77E",
"4+	c #A0CD73",
"5+	c #9FCD79",
"6+	c #B1C877",
"7+	c #9BD06A",
"8+	c #9ECD86",
"9+	c #9CCD8F",
"0+	c #9FCE80",
"a+	c #ABCC78",
"b+	c #97D282",
"c+	c #9FCE9D",
"d+	c #A8CD88",
"e+	c #AACD82",
"f+	c #A6CD91",
"g+	c #96D38C",
"h+	c #B1CB88",
"i+	c #A6D16C",
"j+	c #AFCC93",
"k+	c #B3CE6D",
"l+	c #C8C1BB",
"m+	c #C3C5BB",
"n+	c #B1D0A3",
"o+	c #B0D1B0",
"p+	c #AED982",
"q+	c #C4CFAB",
"r+	c #BAD58B",
"s+	c #B0D993",
"t+	c #B0DA8C",
"u+	c #B9D69C",
"v+	c #B1DB9E",
"w+	c #D2D5CA",
"x+	c #B5E1AF",
"y+	c #DAD3CD",
"z+	c #BEDFB1",
"A+	c #C0E0BE",
"B+	c #EAE8E0",
"C+	c #F5F4EE",
"D+	c #FBF7E8",
"E+	c #FDFDF3",
"F+	c #FFFFFF",
"I.g.^+R.K. +*+[+n.n.n.#+ +u.=+*+p.#+5+#+n.g.g.#+o.s.V.7+++!.Y `.y n.K.{.o.Z o.K.<.++*+(.n.t.p.Z w.8+0+0+w.B.J.L.U.N.J.{.t.n.k.L.",
"r.P.)+n.]+s.#+s.s.t.n.I.4+u.p.d+`.I.;+m.t.p.!+f+f+=+u.p.*+{.Z 5.o.o.l.!+!+n.!+ +o.o.++V n.n.R.p. +B.;+s.t.K.g.r.~+y.g.n.{.(.g.y.",
"G.Z.^+R.5.B.t.p.<.t.#+^+P.p.V %+}.;+s.s.[.u.$+~+k.).z.K.(.t.V O p. +9+.+K.4.{.K. +p.T.<.3.g.(.`.w.V.P. +[.t.q.'.2.G.,+B.*+W.p.B.",
"8.,+)+U.3.,+*+*+.+<.~+I.N.I.Y f+m.b.P.o.(.'.6.l._.u  .p.g.[.!.g.o.).{.<.(.{.K.B.9+p.l.k.6.V #+p.x.3.6.B.R.9+g.n.6.$+b.7.}.w.R.!+",
"m.I.E.C.:.P.=+ +c.l.g.I.`.s.j+=+6.k n.p.k.T '.W ~.Z k.4.,.,.6.P ^.<.(._.k.k.k.I.9+t.k.q.{.).*+t.m. .].,.y.K.}+T.Y u.3.n.P.[.(.`.",
"B.u.D.b.l.g.*+.+.+T.K.n.U.`.h+'.$+p.#+n.l.W t.#+k.y ` m.N.3.B.k.<.w.{.g.I.o.l.,+I.}.[.o.c.p.w.<.).,.6.p.6.4.6.I.%+t.u.,.).m.` p.",
"N.P.,.C.5.K.]+w.[.,+o.p.M.u.=+B.`.].t.9+ +o.m.I.l.^.W 5.v.V.,+R.<.c.$.[.n.[.o.G.J.].<.g.=+].w.o.T X v.m.s.2.!.(.B.`.n.s.g.6.(.[.",
"K.,.B.N.P l.(+o.{.B.X w.l.}.p.`.,+}.*+].I.R.t.T.n.o.l.B.D.a.4+8+*+c+].T W s.t.B.*+n.l.{.K.w.I.~.p.q.(.p.P.'.,.5. .b.P.6.I.!+l.].",
"v.L.J.a.}.K.!+K.o.u.Y p.s.p.}.d+n.#+I.`.`.f+!+k.g.<. +,+a.n.R.I.g..+W p.w.[.P.I.).%+{.g.R.5.P q.{.).k.{+[+p.b.B.v.3.~+v.b.,.r.B.",
"n.b.J.].`.o.{.B.t.`.*+f+*+*+9+b+I.!.'.[.%+w.n+#+y.l.B.P.r.n.m.L.o..+{.n.n.].v.v.).#+r.).p.*+V ).p.o.X 4.3.<+B.g.g.m.,.'.P.k.O Z.",
"I.#+V.M %.p.T 5.g.f+++p.z.`.!+B.p.J.!.b X m.]+I.y.R.g.m.~.W B z b B W :.]. .I.!.2.[+,+{.t.B.K.(.W <.6.D.L.I.5+g.S [.E A >.N.!.m.",
"p.K.O ,.(.` {.4.B.9+).].B.!+w.).,+U.k.(.!.I.n.g.m.Z 4 _ 3 3 : 2 2 3 : : ~ } B ).#+).I.B.6.'.r.l.o.v.'.!+K.W K.!+].<.<.<.}.L.I.*+",
"f+I.g.V w.W Z a.8+K.m.6.r.K.t.R.).V.).l.k.l.{.N 3 f d.Y.Y.Y.Y.Y.m+m+m+m+m+Y.r : 7 V '.B.g.m.#+g.(.q W w.g.g.6.5.q.W w.p.I.!.y t.",
"*+6.K.o.R.!.N.K.X 6.'.].v.m.].l.P m.(.o.{.N i J Y.Y.d.K r v f f i i i i i @.Y.m+Y.3 A *+#+T.o.g.<.U <.9+9+*+K.K.l.k. +<.n.l.o.].",
"*+{.w.l.,.a.V.g.'.4.g.o.g.o.K.!.X y.R.<.i r Y.Y.@.r s i i i 3 3 3 3 3 3 _ 3 i r d.w+Y.4 V ].q.Z p.++9+l.R.*+g.p.{.o.p.w.{.R.t.}.",
"*+[.g.k.!.v.p.!.I.5.I.K.I.6.V g.l.n.N i d.m+@.J r s i 3 2 _ _ J K : ~ ~ _ _ 2 i i s Y.w+s } _.5.l.++w. +O [.#+#+ +#+k.*+k ].K.[.",
"5+B.<.(.o.g.g. +g.y.I.B.P.,.O I.f.<.i d.Y.s 2 : _ @.@.r J J K 3 { i s s s s 3 ~ ~ { J @.w+@.A l.(.l.{.l.B p.W  +w.a.,. +p.X w.t.",
"`.#+++ +T.l.y.s.,.b.m.a.b.5.!.3.<.g Y.d.K d.@.@.@.J s f f K J J J s s i i 2 @.f _ i K 2 J l+d.N 9+<./.b (.n.w.W ++I.B  +{.$.[.w.",
"u.n.6.`.t.6.g.I.6.s.m.$+N.6.).].f Y.d.r J K d.Y.Y.@.r s r f m+d.d.d.f f f f @.d.d.d.K i i J w+@.` !.).` B ].<.(.R.T.{.].Q.` #+o.",
"m.,.T *+ +,.m.g.I.n.6.6.6.4.P.s d.d.J s J g s 2 _ 3 v g f 2 : _ 4 ~ i f i i 2 : 3 _ : 3 i s r w+s X w w.T Z ` {.n.l.Z [.p.].f+K.",
"R.{.u t. +k.6.P.I.I.K.6.a.r.$.K Y.J r r J s _ 2 3 _ i f r #.r s s r J f f r : 2 2 J , _ 3 i s K w+t (.^.Z <.<.<.l.W b o.Z R.++T.",
"k.R.q.++u.U.B.u.#+1+P.g.,.m.s Y.K s r s K @.@.r K @.2 r s f @.@.@.f _ f v r @.J @.i @.3 i i i s Y.d.N <.Z c.*+<.`.).,.g. +9+ +R.",
"P  +[.8+}.I.y.'.I.H.U.K.Q.L @.@.J J J s K @.@.@.@.d.f f i J @.@.J K s i K f d.d.d.d.d.3 i i s r J w+J w..+#+I.].m.V Y w.n.o.n.W ",
"X K.I. +{.B.y.6.I.G.K.o.o.f d.r s f r v K v g v f r J @.#.#.i i 2 s @.@.J K r s s s f g i i 3 v s d.d.}.u.R.,+].].Y ).(.~.6.V 6.",
"q B.K.,+v.V.{+t.,+J.f.o.$.#.d.J s 2 i f K i g v v f @.J s J s J i s J J s i f f r f i 2 d._ : : s J m+L ,+w.K.,+U.6.t.p.l. +g.v.",
"=.].J.!+G.G.!+%+#+6.3.q s d.r d.J : { d.K f r r i i s @.d.r 3 f J 3 2 s d.i 2 : 2 4 3 3 K Y._ _ @.s Y.#.#+ +6.t.T.o.k.).l.X ,.a.",
"&.O v.~+G.N.K.K.K.'. .` s @.r i d.J d._ J _ ~ ~ > ~ s @.J s K d.@.@.3 s s 3 J J J J K 3 J d.d.@.s i K Y.[.V.B.t.#+<.!.].t.{.6.6.",
"T.w I.V.,+I.z.).).4.a.<.r K @.m+m+m+d.m+Y.d.Y.d.d.d.J ~ , ! _ > ~ > ~ ! , > i K J @.@.J @.d.Y.Y.Y.d.J d.<.).,.V n.[.].).m.Y  .6.",
"[+g.L.I.P.p.6.6.I.!.N.$.r v J K d.m+m+r K g @.@.2 _ J @.2 K i @.s @.i J i J _ 4 3 : _ : i @.d.m+f J s Y.$.). .,.g.m 3.x {.{.{.V ",
"[+v.{.m.v.g.m [.U.v.4.$.s J J K d.r @.K K r 3 2 _ ~ s i @._ _ i s > ~ _ J ~ { : { _ > _ i @.J J #.J s d.v u.3.W O 4.V ,.u !+w.U.",
"w.6.g.I.u.).6.g.{+B.,.#.f @.J r r s s r J @.d.@.d.i d.@.s d.@.@.i d.@.@.i d.J K K @.s i i J s J J J s d.J {.{.'.(.t.w.(.q w.g.n.",
"I.w.I.].p.]. .I.m.n.,.K g d.r s i i s s f d.K @.K @.J #.@.3 ~ J J ~ ~ J @.i J d.d.d.@.J i s s r J J r Y.r X !.).6.4.n.w.{.q.w.;.",
"I.,+K.z.).(.).,+g.(.!.K 3 r r i i i i s f @.K J @.r #.@.@.J s ~ , 3 { 3 J K i : 2 v r r i s f s J J J d.s h.].).6.o.p.o.Z .+8+ +",
"++++Z 5.].{.K.L. .K. .#.2 @.r i i i 3 i 2 @.K r v v K K K f 2 s : s _ 4 J @._ 2 v r K r i i 3 s r J s d.v q.l.4.).P.).p.o. .].*+",
"o+*+].w.*+++}.].!.!.V #.3 #.r v J _ _ ~ 2 @.f r r 2 f @.K #.s : K J s 3 @.s s 2 r r #.@.@.~ _ { @.J J d.t (.(.X n.,.g.g.X M X [.",
"t.o+B y u. +K.t.n.~.n.#.: @.s s d.@._ 3 #.f d.r v s J _ J @.@.d.r @.K K 3 i J J 2 K @.v d.d.3 @.J s J J j (.(.:.n.6.a.6.Z W w.].",
"6.s+V 9 B.I.L.u.a.-.B.1.g J s s : d.@.d.i : @.K 3 @.r { & ~ J J d.d.J i 3 _ d.@.J @.J K Y.Y.d.d.d.@.K s ` k.K.m.g.H.a.N.V (.X [.",
"f+p.P.m.M y.6.N.3.V m.w.i s @.J Y.Y.Y.d.d.@.f d.Y.m+f _ @.3 { : : 3 @._ d.: 3 Y.d.@.i s @.d.y+J s i @.i W ).n.J.s.D.b.4.3.y Z W ",
"f+t.b.v.W 6.P.v.6.2.B.n.K ! J v f d.d.d.g f f i d.i @.r @.J #.4 : : J @.2 @.@.s @.2 i s s Y.J Y.J s @.3 6.(.].v.U.,.G.V B.g.o.}.",
"P.p.<.y.g.I.P.I.6.3.a.m.#._ s i f @.i K 2 2 2 2 2 d.d.d.s d.2 : : _ : @.@.@.@.d.2 i s f s i r #.s r f j K.Q.].K.,.B.B.,+I.B.B.8+",
"<+g.w.R.g.`.K.=+3.a.g.B.t.f { K i i i i 3 : : 3 : 3 K @.d.4 3 : _ ~ _ ~ d.d.J _ 3 i i i f s r r s d.2 A B.b.v.v.y.J.3.).B.4.l.*+",
"P.0+6.).n.6.,+J.5.6.m.m.,+@.{ J i i 2 2 _ _ _ ~ , ~ ~ { 3 @.K J ~ 3 @.@.: ~ _ _ 3 _ 3 i v s r s s _ g `.g.V Z.n.a.U.(.u.l.g.n.k.",
"n.{+I.g.g.B.`.n.).P.6.n.(.w.3 ~ 2 i 3 3 _ ~ ~ > 3 , , _ _ ~ ~ s d.K ~ > ~ ~ ~ ~ & > ~ 3 f s s s i _ $.u.U.~.m.J.#+V. .3.[.Z g.'.",
").8+L.I.u.Y 6.:.B.o.(.).m.6.#._ ~ 2 : : _ ~ > ~ @.@.@.@.~ ~ ~ > > & & , ~ _ ~ K @.d.3 ~ i f i i > g t.n.n.I. +t.K.O 6.(.{.k.g.I.",
"m.`.P.m.g.V Z.B.o.6.z.y.C.a.w.J > _ 3 : _ ~ i _ ~ ~ > > & > , * & 3 K ~ > _ { _ : i @.3 3 i 3 ~ { }.g.I.{+I.R.9+K.g.5.o.].[.#+I.",
"s.*+I.P.,.P.m.(.t.4.v.B.v.B.B.e.i & _ 3 : ~ 3 @._ & _ _ J J _ & ~ J ~ @.~ , K ~ _ 3 @.f i i ~ > $.,+y.V.7+y.l.R.y.K.o.Q.J.#+=+n.",
"I.n.,+g.n.u.=+y.).5.g.6.r.v.v.'.d.3 % { f J > > _ 2 _ @.> ! > > ~ > ~ J { _ @.3 ~ 3 _ @.i ~ , N f.l.k.L.8+N.I.K.n.R.K.k.J.{+,+I.",
"m.W m.p.p.m.I.#+Z !.,.g.N.B.B.y.t.d.3 & > K @.J J J > i K ~ & J > > ~ J ~ J s d.i 3 @.J > > $.P.Z.y.g.k.,+,+U.`.m.I.,+k.I.~+n.P.",
"g.m.*+p.9+K.R.%+p.y.P.P.).].g.y.).,+e.i * % > s { ~ J : _ s i i J > > > J J { _ J J ~ % ! $.p.P.G.r.B.m.#+`.I.`.P.R.n.#+P.J.K.K.",
"4.m. +K.R.k.6.`.R.K.~+L.B.g.`.U.:.P.~+@+r ~ % & ! _ { @.@.@.s > f @.f K J _ _ _ ~ > & : $.}+{.I.V.M.v.K.}.#+8+[+#+#+d+K.P.I.s.(+",
"4.n.R.R.R.g.m.%+=+,+N.J.B.P.,.p.=+{+~+G.e.d.i & # % , , 3 ~ > > > ~ ~ { _ ~ > & % { J w.k.#+,+I.J.,+,+!+I.*+,+5+ +=+8+t.5+,+P.K.",
"k.o.K.{+).X B.u.p.).g.,+K.P.'.K.`.#+6.b.B.}+@+d.i > % # # % % & * & & & % % & _ f $.p.m.o.9+=+I.B.~+!+T.T.*+#+,+]+*+!+{+}+L.L.B.",
"k.g.M.l.V V '.6.g.p.R.].I.P.m.K.K.l.B.$+{+[+<+ +@+d.J 3 { * & & & & * , _ s @.e.p.o.I.y.n.{.,+++g.~+B.l.T.++T #+}+K.B.~+V.L.G.{+",
"K.R.T. + +).k.K.P.).K.I.}+I.m.g.).v.3.Z.I.Z.G.g.Q.k. +@+@+d.d.d.K d.d.e.e.<.P 5.o.!.m.g.I.o.,+{+P.B.g.f.o.p.l.o.J.!+m.L.N.g.P.{+",
"!+_.g.R.T l.n.:.y. +K.B.,+m.p.B.4.J.V.y.V.$+P.n.,+K.g.y.n.O '.o.4.;.!.f.=.;.(.W p.k.{.w.I.l.I.L.B.P.I.R. +K.o.T.l.>+y.2.r.>+y.G.",
"R.(.~.O g.;.n.p.v.p.++o.P.B.).!.B.P.N.v.Z.Z.`.m.k.).M 2.v.;.6.y.y.!.l.U Z 4.!.{.(.p.n. +R.K.g.P.m.#+K.`.k.t. +I.I. +k.!.4.r.N.y.",
")._.{.(. .k.o.].,.6.K.B.K.s.[.t.I.I.U.m.G.P.`.`.P.4.O ).b.].6.3.g.n.).M z.;.(.o.D x [.#+g.I.4.3.K.m.P.N.4.y.6.!+l.J.{.).6.P.&.v.",
"(.~.p.I._.l.p.W ).P.`.J.<.n.%+{+n.~+{+V.b.Z.`.=+4.b.n.5.,.m.b.6.V ,.!.;.(.w.o.(.{.k.g. +K.5.g.).I.g.B.N.K.6.[.g.J.k.n.5.'.t.&.,.",
"6.P {.L.{.o.R.p.w.t.I.K.[.t.B.P.K.U.`.I.K.U.Z.&+I.6.P.).;.4.N.'.6.!.5.Z <.<...Z U k.J.#+].k.y.n.6.K.}+N.z.~.#+`.K.R. +_.V #+'.).",
"o.l.o.k.T.p.{.w..+ +J.B.[.p.K.P.z.m.V.P.L.I.V.B.B.~+B.'.g.z.g.n.B.O y.n.o.{.q.{.g.g.K.t.o.R.-.4.5.K.M.%.z.o.I.b.~+,+o.o.k.K.X q.",
" +t.l.f.K.++#+[.!+]+I.I.n.[.I.B.P.[+{+B.P.n.I.6.P.V.I.B.6.g.g.y.!.X J.n.T X Z n.l.p.l.o.p.n.g.,.K.).).v.6.`.P.K.I.P.P.p.w.n.m.W.",
"B.m.`.m.K..+.+o.g.n.B.K.t.`.P.k.P.B.m.U.K.#+`.m.P.V.b.I.m.g.z.m T q.l.g.K.{.c.N m.w.q.l.p.s.m.6.K.8 <. +B.P.K.}+n.t.l.q.q.6.m.*+",
"V.B.5+w. +=+`.&+w.J.V.I. +`.#+w.).6.g.).P.`.~+`.n.B.)+P.n.y.y.~.l._.(._.q.(+c.c.[.:. +_.*+*+Z g.z.X ].u.n.{+V.0+p.<.m.o.w.g.G. +",
"P.[.Z.P. +9+ +).N.g.J.#+ +w..+t.[.m.K.++K.t.I.P.n.).I.,+g.y.n.K.o.t.<.U _.c.#+q.y  +T.l.6.m.[.*+R.V.p.}.t.[+`.b.L.n.,+o.9+p.&.*+"};
