/* XPM */
static char * 64_moon_grass_xpm[] = {
"64 64 255 2",
"  	c #000000",
". 	c #0D0B10",
"+ 	c #0C1019",
"@ 	c #0B1122",
"# 	c #141921",
"$ 	c #281611",
"% 	c #1B1B1D",
"& 	c #1E1B18",
"* 	c #131D2D",
"= 	c #191F27",
"- 	c #22252A",
"; 	c #1D2632",
"> 	c #1C272A",
", 	c #162B44",
"' 	c #372518",
") 	c #2E2725",
"! 	c #33271E",
"~ 	c #282A27",
"{ 	c #242C39",
"] 	c #292C31",
"^ 	c #232E30",
"/ 	c #442D17",
"( 	c #303337",
"_ 	c #203753",
": 	c #2C3642",
"< 	c #2C373A",
"[ 	c #3F332A",
"} 	c #443224",
"| 	c #343633",
"1 	c #3B3431",
"2 	c #36393E",
"3 	c #3F4040",
"4 	c #394451",
"5 	c #4B4043",
"6 	c #4D403C",
"7 	c #3D444A",
"8 	c #553F33",
"9 	c #4C4236",
"0 	c #47433D",
"a 	c #374846",
"b 	c #3A483D",
"c 	c #464848",
"d 	c #2F4D6E",
"e 	c #674C29",
"f 	c #365C27",
"g 	c #5A4F51",
"h 	c #475461",
"i 	c #455653",
"j 	c #614F43",
"k 	c #515352",
"l 	c #4C545A",
"m 	c #664F37",
"n 	c #57524B",
"o 	c #595246",
"p 	c #336519",
"q 	c #416E32",
"r 	c #6A5E60",
"s 	c #775D40",
"t 	c #58636D",
"u 	c #745D4F",
"v 	c #5F6261",
"w 	c #745E46",
"x 	c #6B6053",
"y 	c #66615A",
"z 	c #546663",
"A 	c #407223",
"B 	c #70604C",
"C 	c #726631",
"D 	c #496D90",
"E 	c #56752D",
"F 	c #59743D",
"G 	c #50764C",
"H 	c #487E1E",
"I 	c #488116",
"J 	c #47802D",
"K 	c #497E3E",
"L 	c #537C40",
"M 	c #517E31",
"N 	c #866A60",
"O 	c #65727C",
"P 	c #806D59",
"Q 	c #876C4E",
"R 	c #747069",
"S 	c #6F7170",
"T 	c #737163",
"U 	c #7A6F61",
"V 	c #846D54",
"W 	c #528A2E",
"X 	c #56893C",
"Y 	c #837B6D",
"Z 	c #7E7C77",
"` 	c #55911E",
" .	c #569027",
"..	c #618C33",
"+.	c #688941",
"@.	c #638B41",
"#.	c #519140",
"$.	c #5F8C4A",
"%.	c #618B54",
"&.	c #588E53",
"*.	c #55904B",
"=.	c #937C63",
"-.	c #6E876A",
";.	c #8D7D6F",
">.	c #8F7D68",
",.	c #648979",
"'.	c #6E8862",
").	c #798286",
"!.	c #7A837C",
"~.	c #5A9337",
"{.	c #5E9244",
"].	c #758C46",
"^.	c #599A1A",
"/.	c #9C8061",
"(.	c #738E58",
"_.	c #8C8475",
":.	c #87857F",
"<.	c #718A9F",
"[.	c #67926A",
"}.	c #5E9D3E",
"|.	c #659A4C",
"1.	c #6C9D37",
"2.	c #62A130",
"3.	c #6A9D42",
"4.	c #62A138",
"5.	c #739B50",
"6.	c #679E59",
"7.	c #719B58",
"8.	c #61A14F",
"9.	c #669E61",
"0.	c #789A50",
"a.	c #709B63",
"b.	c #A28C72",
"c.	c #9F8D78",
"d.	c #9E8D7F",
"e.	c #65A445",
"f.	c #7F987B",
"g.	c #92918B",
"h.	c #989081",
"i.	c #899397",
"j.	c #64A829",
"k.	c #6CA253",
"l.	c #68B121",
"m.	c #68AE4D",
"n.	c #6FAC4E",
"o.	c #6FAC5A",
"p.	c #69B517",
"q.	c #74AF46",
"r.	c #6AB434",
"s.	c #71B13F",
"t.	c #6DB247",
"u.	c #69B440",
"v.	c #73B235",
"w.	c #7BAE51",
"x.	c #7CAD5F",
"y.	c #6AB35E",
"z.	c #71B06A",
"A.	c #7DAD67",
"B.	c #7CAD71",
"C.	c #84AC60",
"D.	c #AE9E8A",
"E.	c #70B655",
"F.	c #A6A095",
"G.	c #8CA995",
"H.	c #77B556",
"I.	c #77B462",
"J.	c #9DA3A2",
"K.	c #80AE96",
"L.	c #BCA07F",
"M.	c #73BE3E",
"N.	c #95ADBC",
"O.	c #80BE41",
"P.	c #78BF53",
"Q.	c #77BF5C",
"R.	c #98B37C",
"S.	c #81BD5E",
"T.	c #76C528",
"U.	c #85B88C",
"V.	c #7FBD6A",
"W.	c #9DB46B",
"X.	c #78C34E",
"Y.	c #7AC537",
"Z.	c #78C26B",
"`.	c #96B690",
" +	c #83C250",
".+	c #80C077",
"++	c #7EC07F",
"@+	c #7CC746",
"#+	c #89C258",
"$+	c #8EBF6F",
"%+	c #8FBE78",
"&+	c #8EBE82",
"*+	c #91C064",
"=+	c #80CC18",
"-+	c #7FC663",
";+	c #BEAE9A",
">+	c #96BE70",
",+	c #9ABE65",
"'+	c #80C75A",
")+	c #87C931",
"!+	c #ACB3B3",
"~+	c #B6B1A6",
"{+	c #8AC565",
"]+	c #87C571",
"^+	c #8DCA4D",
"/+	c #84CD4C",
"(+	c #8FCB41",
"_+	c #8ACC76",
":+	c #8ECD61",
"<+	c #8CCD6B",
"[+	c #8ECE5A",
"}+	c #8ECC82",
"|+	c #99D122",
"1+	c #9CCF3B",
"2+	c #93CD79",
"3+	c #A0CE53",
"4+	c #9DCC7B",
"5+	c #9BCE6F",
"6+	c #9CCD85",
"7+	c #99D354",
"8+	c #A0D060",
"9+	c #9BCE8C",
"0+	c #9FD066",
"a+	c #99CE94",
"b+	c #A8CF74",
"c+	c #ACCE81",
"d+	c #C4C2B9",
"e+	c #CBC1AE",
"f+	c #B1CE74",
"g+	c #B5C6CB",
"h+	c #A0D0A4",
"i+	c #B4CD82",
"j+	c #ADCDA7",
"k+	c #ADCF91",
"l+	c #AAD09B",
"m+	c #AFD08C",
"n+	c #D7C2AA",
"o+	c #CBC89B",
"p+	c #A8D584",
"q+	c #BACE9D",
"r+	c #B5D09D",
"s+	c #CCCCAE",
"t+	c #B3D3BE",
"u+	c #ABDA92",
"v+	c #B2E081",
"w+	c #BADAB4",
"x+	c #B6E190",
"y+	c #D4D4C8",
"z+	c #C5D7DC",
"A+	c #B3E3A4",
"B+	c #BCE0A9",
"C+	c #C4E7C0",
"D+	c #B3E9EF",
"E+	c #F1ECDD",
"F+	c #FFFFFF",
"S.H.^+$+V.%+}+2+S.x.x.%+%+S.%+R.A.%+4+$+I.H.H.2+A.C. +5+}+k.5.$+$.S.{+o.A.a.A.V.A.&+&+o.S.A.A.6.%+6+6+6+R.S.'+P.'+@+S.x.V.S.I.X.",
"M.#+(+S.2+$+%+$+A.$+x.*+5+C.C.c+$+S.*+x.B.V._+l+k+4+*+V.&+a.7.n.A.V.A._+$+S.]+&+A.V.&+{.S.I.$+A.%+ +*+C.V.$+H.M.#+X.H.S.a.6.H.P.",
"@+^+^+]+E. +$+A.B.$+>+^+#+A.|.>+x.*+C.C.A.S.#+{+x.w.H.V.k.V.|.{.C.&+a+a+V.t.A.V.%+S.&+A.u.I.o.$+B. +S.%+x.B.B.n.v.@+$+ +`.&+A.S.",
"T.$+(+S.s.$+&+6+`.A.*+S.X.{+5.9+w.q.S.A.k.n.t.I.o.'.a.G.G.G.J.!+!+!+`.`.f.x.$+S.9+A.V.I.n.|.2+C.*+s.n.P.%+9+o.x.E.#+O.r.C.%+$+$+",
"w.{+=+Y.w.S.%+R.&+A.H.{+$+*+k+4+w...x.C.x.|.f.G.N.J.J.g.g.h.g.J.!+g+!+J.J.i.G.`.k+$+I.B.a.n.4+C.w.}.x.s.X.V.4+%+5.S.s.x.S.C.o.>+",
"S.S.T.O.A.I.6+9+`.%+V.x.'+*+k+q.#+C.>+a.<.N.g+!+i.g.g._._.Z g.Z S i.J.J.J.g.J.g.g.F.R.%+B.V.%+a.n.e.H.C.w.m.n.{+>+$+C.q.k.H.a.x.",
"X.#+q.Y.n.V.2+%+x.$+B.V.P.*+R. +>+'.).J.!+g+!+i.Z Z Z R r y c 0 0 0 S i.g.g.i.g.Z _.h.g.!+B.%+B.|.|.M.S.*+v.m.o.w.$+x.$+I.w.k.x.",
"V.e.S.O.}.I.}+B.z. +|.%+I.x.C.A.,.i.i.J.).).Z S O l v n n o c c 5 y y Z :.:._.g.Z Z g.:.g.F.R.o.A..+o.x.#+k.t.E.3.O.S.w.S.]+V.x.",
"M.P.Q.v.0.V.]+$+B.*+5.V.$+A.%.O O O Z v l k 1 0 0 c k k c !.S v T y y S r T T Y h.:.Y h.F.h._.F.R.k.I.*+2+A.O.P.q.s.#+P.O.s.M.w.",
"S.O.'+o.$+B.o.H.$+$+6+k+6+f.).O t v c 3 0 g y r S v v k v y y Z R x x Z T x x Y _.Y h._.d.~+h.h.J.`.|.q.q.5+P.H.H.x.3.n.#+I.3. +",
"S.2+ +4.1.A.%.n.H.a+&+I.G O t l k 3 3 0 v x x T :.:.).R R R h.;.U x o n y r 6 6 R :.g.g.h.F.F._.h.F.F.Y.P.{+4+Q.|.A.$.(.s.X.m.S.",
"A.$+}.q.k.a.x.t.P.a+|.T v S l l k l l O S 9 n v S S Z Z Y _._.;.;.Y x g c o T o Y :.g.F.F.F.D.h.F.F.F.~+V.6.$+]+o.a.A.B.7.X.S.6+",
"l+V.H.e.%+%.7.v.6+I.c v k c 2 t v v n 1 l 0 c 1 3 v S S Y :.D.T y x x y 3 3 Z :.U g.h.D.h.~+h._._._.g.g.~+A.n.E..+%.R.C.V.k.|.$+",
"6+n.V.B..+e.@+$+|.q l k 3 c t v r n 0 1 1 1 6 [ c k i k v Z Z 1 1 1 3 1 3 ( c r Y F.F.h.g.:.Y :._.n k y h.~+V.]+I.I.%+B.C.A.V.o.",
"6+a.$+V.e.s. +H.L 3 3 | l v S o n ] ~ 1 1 1 [ 1 0 l i c l S g.| ] ( 1 1 3 ( - - n :.!+F.h._.Y _.Y 3 3 ( k F.R.V.a.B.V.%+o.$+V.0.",
"6+x.H.Q.k.M.A.|.= 3 - ] v S 1 1 ~ = - ] 1 3 | 2 3 4 i t 7 c R 2 ~ ( | | 3 2 ( ] 2 y Z S v F.h.D.F.k ( ( ] y F.$+%+%+x.6+X 7.V.A.",
"4+ +B.o.V.H.H.G - ~ 2 v y r ) ~ - ] ] ] ] 2 1 ] 7 2 7 v v c c | 2 ( ( 2 3 3 | ( ^ k R R k S :.~+y+~+c { ] k h.h.%+v.3.%+A.|..+V.",
">+%+&+%+%+I.{.& ) 2 7 g o x | = = > ; { ( ( ( ] ] 3 n g r y S 2 ] ] ( ( c 2 ] ( { 2 S y c ( y _.c.e+_.2 { ( h.F.G.S.%.&+A.B.x.%+",
"S.S.n.$+$+q.| & ~ = 3 n n 1 ) ] - - ; { ( ] ( ( | n n 3 3 n r k - ; ] ( 7 2 ( 2 { _ < 7 3 ( ] r _.d.~+h.r T _.Y h.V.a.7.V.7.2+A.",
"x.3.|.&+%+3.~ % - = 2 c k ~ ] ] ] ] ; { { ( ( ( c y y l c v Z n ~ - : ^ 2 2 ( { : , { { ^ ; - = 2 y h.F.D.d._.R Z F.9.a.V.k.k+]+",
"V.o.*.A.%+$.. % = - 2 c 3 - ( ] ; ; ( ] 2 ( l 7 c g v v R F.T n 2 c c c v Z k i 4 ; { : { ; ; { { R c y h.D.h.h.Z F.G V.6.$+&+_+",
"I.]+V.&+w.. % = = - ] ~ ( - ( ] { ( ( ] ( ( 2 ( ] 2 3 k S S y c c 2 c 0 k S v { ; ; 4 : ; { ; ; 7 c y v 3 T h.:.Z :.'.w.%+a+%+]+",
"{.%+x.9+7.. % = = ] ^ ] ( ( ( { { 2 ] ( ] ( ( | ( ( ] k v v c c 2 c g.c k S c ; ; ; { { { { { < | 3 g k ( - ( n v :.Z B.I.A.S.7.",
"8.$+S.%+%.. # # ^ ] ] ] - 2 < { ; { < ( 2 2 | 2 3 2 k v v k ( { { ; 2 2 k S v { * ; : { ^ < 2 3 ( 2 y 3 ( : ; 3 r Y :.7.k.w.e.w.",
"{.H.]+S.{.+ # > ( : ( 2 ] ] - { 7 ^ < 7 2 ( 2 2 3 i l v k c : { ; = = 2 S S v 7 ; : { ^ ] 2 3 g c 3 v ( 2 ] ] 3 n Z h.f.I.%+H.X.",
"2.o.Q.]+E + + = ] 4 : 2 ] ; - < c 2 2 ( ( 2 c i l c : 2 - ~ 2 3 ( ( | 7 k !.Z l : { ; { { : ( ~+h._.R ( 7 ( ( c k U Y _.V.|.s.s.",
"j.{.P.S.& + + - { D : < ^ ^ ] ( 3 | 7 2 3 c l l h l 4 < - | k v k k k v Z :.S h O 4 ; { { { c F.:.h.Y v 2 ( ( 3 T D._.h.V.o.H.q.",
"%+{.{+X # + + # : O : : ^ ] - ] 2 c l v z v z h z i 4 { 2 k v v v !.Z Z J.J.).S t h l l l < c :.:.Y Y k 3 < ] 3 Y e+h.h.B.k.4.n.",
"5+H.P.$.+ + # = { { { { : ] - ] c t i k t :.v l h h 4 ] ] i S v O O S :.g.!+:.!.!.!.i.g.:.7 l S :.F.F.:.v c | c y d.h._.f.a.7.|.",
"2+t.o.$.% + + # = ; > ^ 2 7 - 2 2 l O v R ~+).l 7 7 4 # - 2 c c 7 l S :.:.:.Z :.:.i.!+J.S 2 c y _.h.F.F.g.k 7 k n R :.:.'.$+%+ +",
"%+q.H.$.# # + # = = ; ; ( 3 2 ] - i l v S Z l 4 ( 2 : ; ] { 2 < : k Z Z :.S Z Z :.i.g+F.y k k l y y U h.g.:.Z Z c R S :.h.%+H.I.",
"S.$+S.L + + + # = = > - ] 7 7 2 ] 2 3 c l 4 7 7 2 : 4 < : i l 7 2 g r Z :.Z Z Z Z g.J.J.g._._.Z S 3 c R h.g.:.).c S T Z R..+.+e.",
"S.{+$+{.+ + # + # # ^ ^ ] 4 l h < : 4 i h h i 7 2 ] < : 2 t t t r v R S Z J.g.:.Z !.i.~+F.F.;+:.z 2 7 R D.R S k v i.S :.f.`.6+%+",
"&+&+6.$.. + + + # = # # ^ h t t 2 7 2 7 l i v t k 3 7 7 h t ).S _.R S R :.J.:.R :.J.J.g.F.y+~+g.k 2 2 0 h.R R k S i.S _.f.3.w.6+",
"j+`.7.a.# . + + # # = = < 7 i z { 7 < 2 7 3 c 3 k k 7 i O <.O S Z S S R U Z :.Y :.g.g.Y g.~+d+~+v 7 2 1 x Y y R Z :.:._.(.4.|.x.",
"V.w+%.q + % + # % % = = - ( ( c ^ ] 2 1 0 | | ( 0 o n 2 3 v r T y g y T x Z T Y R Z :.Y :.g.~+~+h.S T _.y Y Y :.Z F.F.d.f.6.B.x.",
"n.l+|.q % - + - % = % > # - | ] ] ] ] | 3 1 - 0 o n n 2 - 2 k R Z y T y R U T :.g.:.T Y :.h.h.h.F.Y ;.;.Y h.h.F.J.~+F._.a.o.$.A.",
"9+A.{+n.= ] % + + % % % = = ] = = ] ( 2 1 3 | 3 0 o R c ] ; k v y y U x x T Y :.g.Y R Z Y Y _.F.~+N d._.U h.F.!+g+J.F.c.e.$.9.7.",
"a+B.q.q.| 3 ) & + + % = = = = - = - ] ( k g ~ ] | 1 n v c : 2 3 0 U U Y Z i._.x U _._.Z Y U g.!+F.h.d.>.>._.h.g+g+!+F.h.P.o.B.x.",
"#+V.A.P.f 3 1 & + # # = = = = - ] - ] 2 t n - ] ] ] | 3 v { c c k U ;.>.U R Y x Y _.g.g.U Y F.J.c.h.>._.c._.h.y+z+!+d.f.S. +S.6+",
"5+H.%+.+L | 0 ) % + % ] = ( - = ] - ~ | 0 n ] - ( 2 c 2 3 ( - > v R Y U u U U P _.:.g.Y Y g.g.h.>.b.>.g.h._.F.~+!+h.c.(. +t.I.6+",
"S.6+H.o.V.| 0 1 ) + + & ~ = % = = - % ] - < ^ c v ( ( 3 2 ] ( ] l S Z Y U h.P Y F.J._.U Y J._.d._.>.>._._._.h.!+F.d.>.S.I.o.S.x.",
"x.<+{+H.H.M 0 | 9 ) & + + = = % ( 2 - - = = ] k v : ( 2 { ; ( - i k R R Y F._.;.d.h.U Y :.F.h.d._.>.N _._._.F.h._.>.'.s.A.7.H.k.",
"n.6+ +S.S.|.| . n 1 ) & - ~ ~ ] | g c c 2 3 - 7 l 2 c : : ( ] = ] : S Z g.F.;+D.d.;.Y _.J.h.;.;.Y _._.;.c.F.g._.;.>.3.o.a.x.H.{+",
"H.$+S.H.w.3.M ) 5 6 9 ) ] 3 ~ 1 c g n ] c ] c c l i t : { < - - - < S i.h.F.h.F.h._.h.g.Y ;.Y N h._.h.D.D.D._.=.c.'.n.B.o.x.$+V.",
"C.&+S.S.n.#+8.) 0 5 y g 1 3 1 0 0 y y 3 = | T n 2 : i : { = ; ( c y g.i.J.~+h.F.h.h.g.:.).g._.h._.>.c.D.;+D.;.b.>.A.V.V.Q.2+2+x.",
"S.x.$+I.S.*+%+q 1 3 9 g 5 6 1 9 x x ] # # = 3 5 c ] ( 7 : ] 7 c y h.~+!+z+F.d.d.h._._.Y h._.h.d.N c.c.F.~+>.c.d.'.$+V.I.Q.{+{+{+",
"H.k.x.V.A.H.S.B.~ 1 ) 6 6 6 6 6 w x % # # # # ) n o | k v S S R Y g.~+!+d+J.F.F.F.h.h.d.D.;._.>.c.D.D.D.c.d._.U n.{+$+I.S.{+S.#+",
"x.w.`.A.9+V.$+>+G ) ) 6 j 6 9 o j j 2 = = = - 6 x 0 n o y g.J.:.g.F.!+~+~+~+F.F.h.F.d.>.N V N =././.c.d.=.b.N (.#+]+S.%+#+S.V.{+",
"t.C.%+V.%+I.w.>+$+G 1 6 j x B x j j x ] ) - 1 6 x ( 3 ( c R R g.g.F.~+D.F.~+F.F.F.F.c.P >.b.=.=.b.c.c.c./.c.>.<+%+$+9+$+#+S.*+}+",
"t.x..+V.V.x.S.>+4+$+q 1 n R x B u N u B j j o 6 u n 3 n U R R Y g.F.h.F.c.D.F.h.F.h.h.d._.>.b.b./.D.b.c.d.D.S.4+%+4+6+V.4+<+{+{+",
"I.V.V.{+n.|.#+S.V.n.n.| 1 n r j B P N ;.N j g x j x U x r r R g.h.g.g.J.c.D.F.~+F.~+c.;.=.b.c.b.b.b.c.c.c.&+%+]+2+}+_+<+2+ + +P.",
"x.H.Q.I.{.|.k.n.H.B.$+|.| ) 1 n x j u P U o 1 0 x U u x R y R Z _.F.F.h.D.F.J.g.h.F.;.Y >.c.>.=.b.D.;+D.%+&+6.%+2+V.P.:+ +X.@+{+",
"V..+.+%+%+k.x.$+S.n.$+S.V.| ) 1 6 6 8 j u x 6 o j P ;.U x x r T Y ;.g.F.F.D.h.h.Y _._.h.h._.d.c.D.;+D.o.V.A.I.B.S._+S.X./+E.'+{+",
"$+6.H.]+6.V.S.w.E.&+V.S.$+n.L ) 1 [ o x 6 9 x x j j U x r T x x P ;.Y h.h.h._.h._.>._.c._.h.D.D.D.R.S.%+%+V.V..+V.'+E.r.M.{+P.O.",
"$+o.o.}.H.e.I.A.M.A.&+B.#+S.|.f 1 9 1 5 n 9 6 j o 6 g n o x x B P d.U c.d.b.h._.;._.b.F.D.D.F.F.A.$+$+*+I.V.%+{+S.%+Q.e.q.M. +H.",
"o.z.x.k.4.I.A.o.s.w.$+S.V.*+x.$+o.o 1 [ 9 6 8 j j 9 0 6 x B u B P ;.P _.d.D.~+F.c.d.d.~+~+~+F.w.V.S.S. +t.H.n.]+I.Q.a.k.w.S.r.t.",
"o.k.V.S.o.V.A.|.w.#+*+S.B.A.>+*+S. +%.f ! [ 9 8 8 j j 6 9 o B u u ;.Y ;.;.F.F.D.d.g.d+!+!+B.H.n.S.H.S.@+V.n.C.x.S.I.S.n.n.V.j.n.",
"H.e.9.X.x.B.$+A.B.B.-+$+a.C. +{+{+'+*+{+6.+.o 9 8 j j B B x U N P Y U U Y _.h.J.F.!+G.R.o.x.P.x.n.V.2+ +Q.k.>+$+V..+%+o.{.$+5.k.",
"B.I.A.I.%+V.a.%+a+%+Q.P.x.C.V.S.P.H. +#+P.{+#+3.F 9 6 8 j x r T S :.:.Z g.Z ).!.[.I.V.V.V..+e.t.n.$+P.j.P.A.S.O.#+$+B.A.x.V.|.++",
"%+B.A.E.V.&+%+x.$+2+V.S.x.A.S.S.S.5+{+S.S.S.{+q.#+P.k.|.$.F G G T z '.-.(.$.a.C.A.V.I.A.A.V.H.u.V.k.k.M.w.5+#+$+S.#+#+C.B.x.w.`.",
" +S.*+H.V.`.9+V.H.S.P.$+$+*+#+x.#+P.H.#+{+$+$+S.S. +O.S.H.H.H.{.6..+I.H.V.a.f.a.S.B.B.I.V.C.S.q.V.L B.&+S.#+]+2+V.$+V..+B.q.w.6+",
" +S.4+%+R.4+*+R.%+Q. +S.R.>+%+%+o.q.H.k.{+$+{+>+x. +(+S.S.P.P.k.I.o.k.o..+}+U.B.C.w.%+z.&+&+a.H.P.|.o.S.C.{+ +6+V.B.H.V.%+H.Y.&+",
"S.C.^+S.&+9+%+o. +E.S.$+%+%+9+B.A.S.$+&+$+$+S.S.I.k.*+$+H.P.x.V.A.V.A.6.9.&+%+B.%.2+%+I.w.x.A.&+$+ +V.x.C.5+$+O. +S.{+A.a+A.r.6+"};
