/* XPM */
static char *collectible_xpm[] = {
"16 16 3 1",
"  c #FFD700",
". c #FFFFFF",
"a c #FFC400",
"................",
"......a.........",
".....a.a........",
"....a...a.......",
"...a.....a......",
"..a.......a.....",
".a.........a....",
"a...........a...",
"a...........a...",
".a.........a....",
"..a.......a.....",
"...a.....a......",
"....a...a.......",
".....a.a........",
"......a.........",
"................"
};
