/* XPM */
static char * 231_zurg_xpm[] = {
"32 32 255 2",
"  	c #320002",
". 	c #1A061B",
"+ 	c #440105",
"@ 	c #2D0B1B",
"# 	c #320F26",
"$ 	c #261439",
"% 	c #431015",
"& 	c #600C14",
"* 	c #2F1A2D",
"= 	c #50131C",
"- 	c #2B1D45",
"; 	c #4E162B",
"> 	c #29232D",
", 	c #351F42",
"' 	c #372755",
") 	c #492727",
"! 	c #582326",
"~ 	c #652226",
"{ 	c #3A2D52",
"] 	c #3F2D60",
"^ 	c #383639",
"/ 	c #642937",
"( 	c #552E4E",
"_ 	c #583036",
": 	c #662D42",
"< 	c #483552",
"[ 	c #6E3032",
"} 	c #752E37",
"| 	c #513860",
"1 	c #4D386F",
"2 	c #483C53",
"3 	c #483B6A",
"4 	c #3F4527",
"5 	c #902D33",
"6 	c #713742",
"7 	c #444747",
"8 	c #5D443E",
"9 	c #833A41",
"0 	c #57437C",
"a 	c #664346",
"b 	c #5A4373",
"c 	c #464C54",
"d 	c #58456B",
"e 	c #943942",
"f 	c #614572",
"g 	c #903C45",
"h 	c #7D4150",
"i 	c #4E504D",
"j 	c #5A4F34",
"k 	c #534E5D",
"l 	c #564E64",
"m 	c #81463C",
"n 	c #634B7D",
"o 	c #624D89",
"p 	c #684D79",
"q 	c #62564F",
"r 	c #585C5F",
"s 	c #775454",
"t 	c #A54852",
"u 	c #5A6067",
"v 	c #6D5979",
"w 	c #615E73",
"x 	c #54645E",
"y 	c #745987",
"z 	c #6F5A98",
"A 	c #516B47",
"B 	c #755A8E",
"C 	c #705C93",
"D 	c #6E6364",
"E 	c #6B6839",
"F 	c #796099",
"G 	c #7E6196",
"H 	c #7D6A51",
"I 	c #A15E61",
"J 	c #88619F",
"K 	c #60745D",
"L 	c #776D5C",
"M 	c #BA5862",
"N 	c #BA5957",
"O 	c #8166A0",
"P 	c #7F6F43",
"Q 	c #687553",
"R 	c #7A6C8B",
"S 	c #7C69AE",
"T 	c #8568A3",
"U 	c #7F6AA8",
"V 	c #D0585B",
"W 	c #8669AA",
"X 	c #956B5E",
"Y 	c #8768B6",
"Z 	c #787372",
"` 	c #687E50",
" .	c #BC6095",
"..	c #876FAF",
"+.	c #717F44",
"@.	c #7C7966",
"#.	c #A46D67",
"$.	c #638457",
"%.	c #7F7986",
"&.	c #8178A2",
"*.	c #857895",
"=.	c #6F8270",
"-.	c #8B75B4",
";.	c #95749F",
">.	c #7F8475",
",.	c #738D61",
"'.	c #8A838E",
").	c #7A888E",
"!.	c #73906D",
"~.	c #818A82",
"{.	c #8C8786",
"].	c #6B9763",
"^.	c #6B985B",
"/.	c #9584B1",
"(.	c #A37EC5",
"_.	c #759564",
":.	c #9C8974",
"<.	c #79975D",
"[.	c #7E937D",
"}.	c #9489AC",
"|.	c #879659",
"1.	c #68A33A",
"2.	c #709E61",
"3.	c #988ABC",
"4.	c #B5895E",
"5.	c #6FA055",
"6.	c #69A256",
"7.	c #819789",
"8.	c #919567",
"9.	c #6BA350",
"0.	c #CF7DA7",
"a.	c #D07F90",
"b.	c #75A05B",
"c.	c #9A9185",
"d.	c #789E71",
"e.	c #A08CB4",
"f.	c #7B9F5D",
"g.	c #97956F",
"h.	c #6FA35E",
"i.	c #99929D",
"j.	c #E77C86",
"k.	c #6FA847",
"l.	c #71A74D",
"m.	c #BD8C8C",
"n.	c #7CA36D",
"o.	c #7AA655",
"p.	c #6DAB4F",
"q.	c #AD91A2",
"r.	c #76A869",
"s.	c #75A963",
"t.	c #73AB57",
"u.	c #7BAA51",
"v.	c #A197B0",
"w.	c #969D93",
"x.	c #6EB143",
"y.	c #74AF46",
"z.	c #6FAF5A",
"A.	c #74AE60",
"B.	c #7BAC60",
"C.	c #72B055",
"D.	c #7DAD5B",
"E.	c #81AB65",
"F.	c #81AE4F",
"G.	c #78B05C",
"H.	c #7AB055",
"I.	c #70B551",
"J.	c #7AB069",
"K.	c #77B351",
"L.	c #7FAE6F",
"M.	c #A79BC0",
"N.	c #7DB250",
"O.	c #8AAA83",
"P.	c #8BAB76",
"Q.	c #87AF5E",
"R.	c #81B077",
"S.	c #78B83E",
"T.	c #7EB45A",
"U.	c #78B65A",
"V.	c #7DB460",
"W.	c #88AF75",
"X.	c #77B761",
"Y.	c #DF929B",
"Z.	c #7AB66E",
"`.	c #8DAF7F",
" +	c #81B56F",
".+	c #83B568",
"++	c #7FB948",
"@+	c #85B562",
"#+	c #7DB769",
"$+	c #77BB57",
"%+	c #7ABC49",
"&+	c #CF9AA7",
"*+	c #8BB56A",
"=+	c #8AB570",
"-+	c #7EBB58",
";+	c #8EB288",
">+	c #80BB51",
",+	c #81B965",
"'+	c #83B95E",
")+	c #7ABD51",
"!+	c #7DBB5F",
"~+	c #85BA58",
"{+	c #83B878",
"]+	c #7DC22B",
"^+	c #B3A899",
"/+	c #90B679",
"(+	c #8AB879",
"_+	c #A6ADAC",
":+	c #7EC247",
"<+	c #9AB398",
"[+	c #87BE62",
"}+	c #7FC069",
"|+	c #86BE69",
"1+	c #ABB087",
"2+	c #ABACB9",
"3+	c #94B881",
"4+	c #92BB69",
"5+	c #85BF70",
"6+	c #C4AB7D",
"7+	c #89BE77",
"8+	c #8EBE6A",
"9+	c #85C25E",
"0+	c #90BF65",
"a+	c #85C457",
"b+	c #8EC073",
"c+	c #91BF80",
"d+	c #94BF78",
"e+	c #BCAEB1",
"f+	c #8EC466",
"g+	c #9EBF7B",
"h+	c #B5B3B7",
"i+	c #BAB3AC",
"j+	c #8DC872",
"k+	c #B4B8AE",
"l+	c #D1B0B6",
"m+	c #C5B9AD",
"n+	c #A3C79C",
"o+	c #E5B6A8",
"p+	c #C5C1CE",
"q+	c #D6C658",
"r+	c #EABE82",
"s+	c #E0C479",
"t+	c #DBBFD7",
"u+	c #D1CCCD",
"v+	c #D0CCD9",
"w+	c #FDC599",
"x+	c #D3D3CA",
"y+	c #EDD0CF",
"z+	c #F8DF00",
"A+	c #E1DACC",
"B+	c #FAD7C4",
"C+	c #E8E4DD",
"D+	c #EFE5D8",
"E+	c #FFEB8A",
"F+	c #F2F3EB",
"$+a+5+b+D.@+8+g+8+0+.+b+d+0+ +o.B.#+.+7+{+L.,+ +b+d+*+)+a+G.A.I.",
":+a+K.(+W.f+9+E.N.@+D.-+6.U.B.b.`.<+z.#+=+7+k.#+0+,+(+B.S.>+/+|+",
"'+]+D.3+R.,+[+g+F..+5.E.6.t.x.m.0. .~.(+3+`.s.(+1.V.K.|+Q.N.H.B.",
")+%+z.{+G.B.'+4+.+=+/+^.r.t.>+s+r+;.!.[.K s. +z.s.H.~+C.~+@+,+B.",
"%+$+.+X.@+c+=+d+V.@+/+c+A 4.q+z+z+6+%.u W.C. +6.A.H.[+)+K.N.>+++",
"|+1.5.A.7+J.!+,+[+6.C.[+G.h &+t+l+:.u 7 ,+!+k.X.B.)+X.|+f.<.K.,+",
"d+G.s.U.#+l.-+.+K.A.W.[.].s+E+o+Z i D >.7.!.,+#+h.(+7+X.Z.(+@+B.",
"(+X.x.K.C.}+G.z.X.G.k+h+e+w+B+u+p+v+p+_+< d d.h. +R.J.|+ +{+5.*+",
"8+L.#+|+y.-+-+k.!+i.i.h+e+l+p+v+v+p+2+w e.e.*.n.{+5.6.2.#+E.r.=+",
"T..+,+U.'+~+y.@+{.R v %.i.q.2+v.}.&.3 | *.}.e./.[.h.b.2.#+r.B.7+",
"#+r.|+-+0+'+l.'.*.l < p y G G T O C ] - 2 R }.M.3.).2.L.B.9.(+7+",
"A..+T.K.~+P N #.s * A d < 2 y B y 3 ' - A s M V j.a.1+,+9.B.G.t.",
"k.[+:+8+5+j m+D+^+Q 6.K ^ r k d { - $ ; ^+F+F+y+Y.M 5 *+}+B.A.y.",
"9.>+>+!+C.k.@.C+D+c.h.J.7 r r c > @ = ^+F+F+C+u+_+[ +.T.J.t.B.K.",
"9+'+'+l.)+)+t.` i+A+A+e+J T F n {.m+^+x+k+w.>.>.,.B.Q.p.p.9.s.t.",
".+'+D.K.!+y.9+|+k.A+C+y (.(.(.Y u+C+x+q $.^.L.z.L.h.h.9.p. +L.A.",
"5+z.6.!+p.k.%+@+G.N.O.n T W -.U i.i+8 % B.p.#+ +T.E.Z.t.H.A.L.7+",
"n+2.7+.+t.H.k.K.s.9._.p F O ..S o ( + ) y.H.b+B.K.U.6.t.u.x.5.E.",
"d+l.K.>+1.-+p.V.C.l.L p B O U U z | + ! b.B.!+x.G.x.t.[+%+S.9.2.",
"b+-+C.-+y.>+l.z.U.E.h p B O U ..z 1 + 6 L.V.B.I.5.B.U.V.y.K.U..+",
"f+#+T.|+x.T.)+K.S.H 6 p F T U ..S 0 # [ W.G.B. +8+@+K.++)+H.K..+",
"|+-+T.T.T.t.p.:+o.9 6 f F W ..-.S o , & O.A.X. +-+.+!+,+'+k.h.C.",
"*+[+N.-+T.)+%+-+X 9 / f G W ..-.-.z ' + @.A.,+|+'+)+9+7+U.#+,+5+",
"H.V.G.8+6.K.:+|.g } / f G O ..-.-.z 1 # a L.,+)+$+U.j+[+,+}+9+[+",
"T.=+7+@+,+>+B.I g } / f B O W ..-.U 1 $ = _.b+!+:+-+8+j+|+b+-+5+",
",+}+t.[+@+9+g.g g } / f B T W ..-.U 0 -   q (+|+a+j+7+j+b+8+f+9+",
"#+5+5.V.V.#+#.e 9 } : b B T W ..-.U 0 ' . _ !.|+~+U.Z. +j+)+%+a+",
"#+z.z.G.,+P.t e 9 } : n B F F F U S o ] $   D H.,+|+#+5+|+I.%+%+",
"z.G.z.h.N.8.e m P E q b B T O ..U z 0 ] - 4 ~ K !+a+U.V.X.t.'+x.",
"z.,+Z.J.c+V.E.~+-+9+V.=.y F O F F C b x ^.}+E.` O.-+X.8+|+ +B.h.",
"@+,+7+(+|+|+.+~+f+-+[+~+~+o.2.d.].s.s.n.V.J.B.=+;+(+-+|+[+#+.+ +",
"'+0+c+*+U.[+d+c+T. +8+[+'+9+K.V.A.2.L.R.E.7+=+J.U.@+8+9+X.#+(+[+"};
