/* XPM */
static const char *enemy_xpm[] = {
"32 32 3 1",
" 	c None",
".	c #000000",
"X	c #FF0000",
"                                ",
"                                ",
"                                ",
"                                ",
"           XXXXXX               ",
"         XX......XX             ",
"       XX..........XX           ",
"      X....XXXXXX....X          ",
"     X...XX      XX...X         ",
"    X...X          X...X        ",
"   X...X            X...X       ",
"   X...X    XXXX    X...X       ",
"  X.....XX  X..X  XX.....X      ",
"  X........X....X........X      ",
"  X.........X..X.........X      ",
"  X..........XX..........X      ",
"  X......................X      ",
"   X....................X       ",
"   X....................X       ",
"    X..................X        ",
"     X................X         ",
"      X..............X          ",
"       XX..........XX           ",
"         XX......XX             ",
"           XXXXXX               ",
"                                ",
"                                ",
"                                ",
"                                ",
"                                ",
"                                ",
"                                ",
"                                "
};
