/* XPM */
static char *exit_xpm[] = {
"32 32 2 1",
"  c #000000",
". c #FFFFFF",
"................................",
"................................",
"................................",
"................................",
"................................",
"................................",
"................................",
"......EEEEEEEEEEEEEEEEEE........",
"......EEEEEEEEEEEEEEEEEE........",
"......EEEE......................",
"......EEEE......................",
"......EEEE......................",
"......EEEE......................",
"......EEEEEEEEEEEEEE............",
"......EEEEEEEEEEEEEE............",
"......EEEE......................",
"......EEEE......................",
"......EEEE......................",
"......EEEE......................",
"......EEEEEEEEEEEEEEEEEE........",
"......EEEEEEEEEEEEEEEEEE........",
"................................",
"................................",
"................................",
"................................",
"................................",
"................................",
"................................",
"................................",
"................................",
"................................",
"................................",
"................................"
};
