/* XPM */
static char * img_player_down_48x_xpm[] = {
"48 48 255 2",
"  	c #294B23",
". 	c #265B16",
"+ 	c #33581B",
"@ 	c #44551E",
"# 	c #3B6436",
"$ 	c #4B6039",
"% 	c #37701B",
"& 	c #3A6F26",
"* 	c #34730E",
"= 	c #3A6F2F",
"- 	c #406F1E",
"; 	c #486C27",
"> 	c #3F710F",
", 	c #476C30",
"' 	c #496D1F",
") 	c #5D672F",
"! 	c #467644",
"~ 	c #507445",
"{ 	c #4A7C29",
"] 	c #487C33",
"^ 	c #477C3B",
"/ 	c #43811B",
"( 	c #537A3C",
"_ 	c #4E7F1E",
": 	c #587C1F",
"< 	c #46840D",
"[ 	c #448700",
"} 	c #45842D",
"| 	c #547C5B",
"1 	c #617951",
"2 	c #587F2F",
"3 	c #6B783E",
"4 	c #607D30",
"5 	c #597F38",
"6 	c #667C42",
"7 	c #538532",
"8 	c #52834F",
"9 	c #508544",
"0 	c #50863C",
"a 	c #5C8151",
"b 	c #5C8345",
"c 	c #4F8D28",
"d 	c #5A8B29",
"e 	c #549320",
"f 	c #559416",
"g 	c #589247",
"h 	c #5C9239",
"i 	c #55943D",
"j 	c #5B9240",
"k 	c #62903E",
"l 	c #5B914D",
"m 	c #678E46",
"n 	c #5A9155",
"o 	c #6D8D3F",
"p 	c #668E4D",
"q 	c #758B3F",
"r 	c #609147",
"s 	c #638E61",
"t 	c #648F56",
"u 	c #6E8C56",
"v 	c #778A4D",
"w 	c #589631",
"x 	c #559A0E",
"y 	c #629432",
"z 	c #768B56",
"A 	c #778F6B",
"B 	c #5CA03A",
"C 	c #639F3A",
"D 	c #6AA01C",
"E 	c #699F46",
"F 	c #689F4C",
"G 	c #719D4B",
"H 	c #62A247",
"I 	c #68A231",
"J 	c #65A054",
"K 	c #6FA031",
"L 	c #61A24D",
"M 	c #61A52A",
"N 	c #6BA229",
"O 	c #6D9E53",
"P 	c #669F61",
"Q 	c #6DA03E",
"R 	c #6C9E5A",
"S 	c #739C59",
"T 	c #61A533",
"U 	c #61A71D",
"V 	c #769C53",
"W 	c #64A15A",
"X 	c #729C62",
"Y 	c #5AA555",
"Z 	c #6E9D6E",
"` 	c #849863",
" .	c #64A83E",
"..	c #63A945",
"+.	c #6BA742",
"@.	c #66AD53",
"#.	c #6CAC57",
"$.	c #6EAC50",
"%.	c #6EAB5D",
"&.	c #75AA55",
"*.	c #6DB12A",
"=.	c #64B428",
"-.	c #69B337",
";.	c #6CB23F",
">.	c #63B540",
",.	c #6CB247",
"'.	c #75AF4B",
").	c #6BB069",
"!.	c #6CB24E",
"~.	c #76AD66",
"{.	c #7BAC60",
"].	c #74AD6E",
"^.	c #68B262",
"/.	c #83AA61",
"(.	c #82AA67",
"_.	c #83AB58",
":.	c #81AA6F",
"<.	c #88AB4D",
"[.	c #8CAA59",
"}.	c #6DB91F",
"|.	c #99A56F",
"1.	c #6DB55A",
"2.	c #74B35B",
"3.	c #7BB343",
"4.	c #77B53B",
"5.	c #75B364",
"6.	c #7CB25C",
"7.	c #6DBC32",
"8.	c #76BB34",
"9.	c #77B581",
"0.	c #69BE4F",
"a.	c #6BBE48",
"b.	c #85B183",
"c.	c #71BD40",
"d.	c #71BC50",
"e.	c #74BB56",
"f.	c #75BC48",
"g.	c #78BB50",
"h.	c #96AE88",
"i.	c #7FBA55",
"j.	c #71C062",
"k.	c #78BE60",
"l.	c #76C51C",
"m.	c #76BF67",
"n.	c #7DBD67",
"o.	c #7FBD61",
"p.	c #79BE6D",
"q.	c #77BE76",
"r.	c #83BB74",
"s.	c #82BB7C",
"t.	c #85BC67",
"u.	c #87BC61",
"v.	c #85BC6E",
"w.	c #91BA67",
"x.	c #91B975",
"y.	c #93B96E",
"z.	c #8FB97D",
"A.	c #71C657",
"B.	c #79C72F",
"C.	c #70C65E",
"D.	c #9BB866",
"E.	c #7AC549",
"F.	c #77C73D",
"G.	c #A8B37C",
"H.	c #79C557",
"I.	c #7DC45F",
"J.	c #82C451",
"K.	c #81C458",
"L.	c #7BC752",
"M.	c #81C740",
"N.	c #89C359",
"O.	c #88C35F",
"P.	c #84C833",
"Q.	c #8BC843",
"R.	c #81CF21",
"S.	c #8FC936",
"T.	c #81C96D",
"U.	c #8BC94F",
"V.	c #87C871",
"W.	c #89C86A",
"X.	c #8CCD27",
"Y.	c #83CD50",
"Z.	c #85C978",
"`.	c #8EC771",
" +	c #8DC778",
".+	c #91C76B",
"++	c #91C957",
"@+	c #87CC60",
"#+	c #86CC66",
"$+	c #8BCC59",
"%+	c #A0C752",
"&+	c #8BCA80",
"*+	c #89CA88",
"=+	c #99CA52",
"-+	c #9BC866",
";+	c #92CB68",
">+	c #93CC61",
",+	c #A3C766",
"'+	c #9CC96F",
")+	c #99C97B",
"!+	c #9BC975",
"~+	c #96C98A",
"{+	c #99C982",
"]+	c #8BD346",
"^+	c #A6C773",
"/+	c #A2C782",
"(+	c #A0C78B",
"_+	c #A4C77D",
":+	c #A0C799",
"<+	c #93CE78",
"[+	c #95CE71",
"}+	c #A8C68C",
"|+	c #9FD12F",
"1+	c #94CC99",
"2+	c #95CF7F",
"3+	c #98D34B",
"4+	c #9DDA0E",
"5+	c #A5D250",
"6+	c #98D562",
"7+	c #C5C392",
"8+	c #96D56C",
"9+	c #9DD55C",
"0+	c #B5CC7B",
"a+	c #B3CC83",
"b+	c #BEC894",
"c+	c #A2D46F",
"d+	c #B2CD8A",
"e+	c #A6D37C",
"f+	c #A6D565",
"g+	c #A5D385",
"h+	c #A4D38C",
"i+	c #A2D394",
"j+	c #A9CFB2",
"k+	c #B0D27E",
"l+	c #9ED87D",
"m+	c #AFD286",
"n+	c #ABD296",
"o+	c #B0D471",
"p+	c #B4D097",
"q+	c #AED38D",
"r+	c #AED2A0",
"s+	c #BACEA7",
"t+	c #AED2A9",
"u+	c #BFD6BD",
"v+	c #B6E089",
"w+	c #BEDDA2",
"x+	c #B7E194",
"y+	c #B7E19A",
"z+	c #B8DFAF",
"A+	c #C1DEB2",
"B+	c #C7DCB6",
"C+	c #B8E3A5",
"D+	c #B6E780",
"E+	c #BEE1BF",
"F+	c #C2EABA",
"t.J.O. +z.`.u.S v.x.y.z.t..+`.v.2.`.z.u.;+ +F 6.S t.5.~.R v.~.(+R 6.t.%.z.{+!+x.o.L.K.f.{.(.o.g.",
"F.>+t.t.u.v.S v.++w./.y.w.u.{.{.t.g+x.u.n.:.%.H (.z.(+W.o.r.r. +R !.n.t.(.N.v.t.(.,.J.o.6.b.%.e.",
"8.++J.f.r.(+z.t.O.J.&.z.'.i.(.&.'.k.%.j t.6.&.2.(.%.~.%.{.o.~+v.5.$.(.6.w.'.e.z.`.{.'.N.-./.z.v.",
"&.$+8.&.t.z.:.6.t.w.x./+'.G 6.&.F &.J :.'.+.'.H R :.R 2.5.o.{+{.].J x.x.'.E '.f.V.x.&.i.'.i.{.w.",
"g.i.M.2.`.~+z.v.{.i._+u.w.(.{+r.(.v.~.a &.f.O.5.:.:./.t.~.O.o.&.6.z.v.X r '.w.&.!.$.y.w./.O &.S ",
"o.'.f.L  +:.%.'.(.o._.t.w.x.r.w.t.v.{.5.2.8.N.(+x.h.r O v.i.)+5.%.n. +#.5.5.6.i.+.,.C i.6.W.n.{.",
"J.I.;./.v.t.r._.z.x.z.{+n.t.u.)+(+n.6.:.`.4.v.o.r.b.(.x.6.O.6.x.$.5.$.~.{.~.6.`.i.f.;.i.i.i.+.J.",
"t.K.#.&.X 6.v.)+x.o.{+`.o.$.p V {+`.e.6.i.f.o.J.)+:.o.6.'.g.g..+{./.r.$.%.R c.c..+o.{.O V M.#.g.",
"o.6.Q %.R o.o.z.&.i.)+{.t.o.J $.W.6.I.v.$.%.e.i.f.g.i.&.u.6.t.o.g._.f.%.n.6.o.n.{.v.V :.` _.g.x.",
"(+i.F r.t '.z.o.'.f.v.v.!.6.~.k.n.v.f.#.%.,.K.f.3.c.i.&.t.k.2. .t.2.t.6.O O v.v.:.k.].(.(.6.O (.",
"{+{.5.$.f.u.$.,.5.2.2.5.r o.r.5.e.i.e.2.o.I.-.4.M.c.'.g.f.f.-.v.z.`.z.O :.b.z. +r.o.%.v.:.{.v._.",
"x.t.n.+.g.2.2.i.n.6.$.#.6.6.F e.2.e.t.X t.k.f.8.+.K.N.t.c.c.$.&.:.$.R #.{.(+r.V x. +z.v.z.r v.S ",
"'+v.R p.2.v.'.g.i.K.C 6.2.t.g.o.5.5.e.~.5.e.J.g.i.M.i.,.o.F.K.e.E &.5.%.:.R ~.O ].:.:.4.v.{.:.(.",
".+z.`.v.2.o.3.t.i.3.&.,.i.n.;.i.n.t.n.#.6.2.i.g.3.3.o.o.4.8.;.i.i.` G.`.z.#.u r (.R s.].(.%.v.z.",
"u.h z.t.'.o.u._.i.3.i.3.$.f.e.i.n.I.d.#.t.g.'.e.6.w.[+t.J.f.$.:.:.i.y.R t r ~.O X t n.%.X 6.z.V.",
"V.~.(.v.e.u.t.t.o.4.c.6.'.&.{.&.i.f.!.2.v.6.g.+.6.O..+n.`.t.r.&.u.t.:.~.].R P X b.b.v.r 5.~.z.~+",
"$.(.z.6.K.&.O.U.6.!.f.o.i.G {.e. .;.C %.t.&.&.6.6.i.u.&.o.t.`.o.{.r.v.X b.Z b.b.x.O &.$.&.x.5.n.",
"%.v. +&.o.'.i.N.n.k.2.!.1.~.2.G i.e.F $.e.&.2.6.k.o.2.`.2.y.5. ./.p G v.z.:._.v.W.6.&.G {.O $.&.",
"r o.t.J.N.x.W.g.~.#.$.,.~.R %.F O 5.~.W d.g.6.,.d.e.i.t. +W.v.&.'.G &.{+e.(.&.v.r.u.o.6.(.n.{.g.",
"T '.W.M.N.v.t.+.k S `.2.t.e.2.P b.~.J 2.F '.E.e.i.2.k.6.u..+k.6.S F z.n.~.5.(.o.O.v.r.#.#.5.O 4.",
"{.$.N.W.g.2.2.;.,.J 6.5.e.i.2.R +.5.&.;.F u.t.3.;.;.f.z.z.O.d.g.$.&...%.6.2.6.n.,.E (.{.&.&.E +.",
";+2.i.o.&.&.k.f.i.t.$.g.e.g.+.&.:.~.J.N.o.'.Q.i.2.4.N.e.t.v.~.$.w.'.&.E &.J t./.E +.$. .r X X F ",
"v.o.6.i.E 6.K.g.f.J.i.o.J.4.K.n.#.e.#.3.g.3.S.o.&./.u.e.'.#.~.].~.z.'.O O ~.6.~.6.$.J t.F t o.o.",
"n.t.2./.$.&.6.&.+.N.y.i.f.i.o.t.&.2.6.g.,.M.t.u.2.&.g.N.o.{.F ~.2.v.$.F {.X {.%.F O !.2.z.~.r.O ",
"O.v.e.&.O W.2.$.+.J.O.v.#.O.6.&.5.@.E.i.c.E.J.i.g.g.'.O.f.!.:.&.$.o.~.:.6.(.r.5.W G 6.(.v.Z z.{+",
":+:.%.r.{.g.$.O '.N.'.i.O 6.'.&.~.!.f.8.c.g.8.B.f.i.o.w.E f.O.i.'..+X v.O.t.:.{.5.$.&.g.2.H C v.",
"~+z.X v.{+(.&.%.&.E $.$.O {.r S O o.J.;.g.'.E 8.3.i.N.,.!. .+.6.E .+u.&.6.K.i.O R G {.3.'.X p (.",
"v. +r i.K.i.3.+.N.&.5.~.2.C L ( (.6.{.'.'.~.&.$.g.J.u.!.+.E O E (.o.;.E E o.c.!.5.u.i.P.f.E %.S ",
"n+i.i.E i.g.+.'.i.'.i.t.K.#.2.(.X F v.k.~.n.&.'.f.M.4.J.E X X {.n.6.'. .~.{.t.$.p O.i.8.E 3.].S ",
".+:.'.2.i.i.i.-.i.O #.$.u.&.5.{.R p.{.v._.u.t.6.g.J.J.!.O S (.6.5.{.F k.F &.'.o.&.o.,.i.u.o.g.x.",
".+6.v.6.t.`.4.'.6.f.i.i.M.$.{.~.$.n.u..+2.o.i.&.N.i.5.O 6.P t.r.2.6.&.:.i.t.V g.E.J.J.!.&.i.&.z.",
"u.`.$.6.i.W.#.i.o.o.N.;.c.d.i.o.g.2.O.&.$.6.f.6.{.o.n.%.5.n.:.z.&.{.~.:. +!+w.2.'.6.u.2.'.~.$.6.",
"6.[+o.u.+.&.u.2.E &.f.E.;.L.v.6.i.v.`.o.t.5.f.t.v.z.(+i.r.v.v.s.&.e.2.v.i.u.{.o.5.x.t.Q &.X 2.o.",
"t.t.2.$.g.'.n.g.e.8.3.i.i.u.o.u.6.o.o.o.f.!.f.v.v.5.b.:.r. +v.n.2.E t.v.t.i.o.W.n.~+u.2.5.%.x.n.",
"u.)+o.'.x.2.&.g.'.g.'.'.u.o.o.u.g.g.'.f.i.L.d.1.%. +:.v. +O.u.z.:.6.x.i.2.k.J.`.o.v.6.n.n.e.!+o.",
"&.F 5.t.i.v.R $.6.E.J.f.y.++O.g.+.i.o.,.'.g.e.!.$.$.2.5.v. +t.i.v.t.t.K.J.k.2.`.K.t.o.t.t.u.W.i.",
"&.y.x.{+t.y.o.i.O.6.6.i.6.M.N.i.g.6.i.2.$.o.o.!.;...$.J &.v.'.f.g.t.v.i.F.g.i..+`..+O.n.`.i.o.`.",
"+.t. +v.'.w.x.O.g.i.i.u.w.++i.i.J.6.I.g.2.6.&.$.g.6.$.%.r.(.:.'.$.6.!+o.O.O.W.v.v.)+ +h+v..+w.)+",
"2.n.`.2.&.w.(.i.o.n.'.o.)+u.3.i.>+i.2.6.g.$.{.2.g.F #.#.x.{.r.O 6.r.{+O.g..+ + +)+`. +)+.+`.J.'.",
"&.k.t.O F &.6.v.{.W.i.o.6.i.N..+>+t.n.n.i.v.5.J $...@.H %.2.k.t.$.n.6. +i.N.k.s.r.(. +e.>+K.c.N.",
"v.].V.v.2.t.g.v.O..+o.i.$.e.J.N.U.i.t.k.i.6.r ~.!.H ,. .H %.5.F t.t.{.K.K.6.n.r.n.r.o.O.c.E.t.N.",
"t.%.F $.6.{.'.x.r.K.6.$.i.K.f.U.O.u.5.$.-.'.H g.'.J %.J !.R %.2.z.v.5.J.o.v.w.2.z.t.v.n.+.'.c.g.",
"%.~.{.+.~.S '.6.I./.y.v.u.O.i.M.w.w.g.+.$.3.&.3.2.&...!.#.5.s O  +e.o.;.o.o.E.$.e.v.6.5.&.u.;.;.",
"$.J L.~.v.(.{.t.`.(.t.O.O.;+o.o.J./+g.i.2.C g.'.$.H H X :.R X e. +5.e.6.o.v.J.k./.{.o.t.2.G t.C ",
"~.~.2.r.~.v.~+n.i.S t.u.o.g.N.K.O.J.u.i.&.2.g.6.g. .o.:.:.%.&.n. +v.#.'.&.W.;.e.(.i..+r.~.{.S r.",
"x.v.2.&+z.:.W.`.t.(.u.i.O..+i.o.t.i.N.i.K.g.2.'.$.2.t.R ~.S t.~.r.(.t.+.v.O 2.6..+t.o.N.{.r.'.z.",
"K.t.y.)+)+x.o.o.o.x..+z.6.'.'.u..+w.u.M.O.o.g.L %.n.#.v.:.:._.:.5.x.V f.2.R v.g.N.<+5.v.5.~.4. +",
"N._.N.(+z.u.i.e.w.z.x.:.{.t.z.w.v.u.6.6..+i.'.`.v.(.P ].z.r.S v.p.u.:.z.t.6./.t.[+J.i.u.:.~+'. +"};
