/* XPM */
static char * 64_buzz_up_grass_xpm[] = {
"64 64 255 2",
"  	c #0E1211",
". 	c #20320B",
"+ 	c #323130",
"@ 	c #4D2C84",
"# 	c #463261",
"$ 	c #324518",
"% 	c #2A4D12",
"& 	c #6A3976",
"* 	c #524B53",
"= 	c #515047",
"- 	c #784485",
"; 	c #42601E",
"> 	c #2E681C",
", 	c #6F4C7D",
"' 	c #36652F",
") 	c #6F4AA3",
"! 	c #426509",
"~ 	c #446131",
"{ 	c #3A6721",
"] 	c #366C0D",
"^ 	c #48684A",
"/ 	c #645E66",
"( 	c #3A7918",
"_ 	c #467719",
": 	c #437727",
"< 	c #8C579B",
"[ 	c #437731",
"} 	c #45763E",
"| 	c #50742F",
"1 	c #666F30",
"2 	c #6B6B5F",
"3 	c #7F6283",
"4 	c #846090",
"5 	c #4A8009",
"6 	c #577A21",
"7 	c #617648",
"8 	c #736E75",
"9 	c #597B42",
"0 	c #4D8500",
"a 	c #577C4C",
"b 	c #478523",
"c 	c #52831B",
"d 	c #4F8333",
"e 	c #528329",
"f 	c #4E833C",
"g 	c #5C8033",
"h 	c #518249",
"i 	c #5A813D",
"j 	c #6A7C3E",
"k 	c #9B6AA9",
"l 	c #56930C",
"m 	c #7E7F72",
"n 	c #817D83",
"o 	c #519425",
"p 	c #5B9126",
"q 	c #549331",
"r 	c #5D9038",
"s 	c #5F9031",
"t 	c #668D3D",
"u 	c #5C903F",
"v 	c #579148",
"w 	c #54933C",
"x 	c #6B8E28",
"y 	c #5D8F52",
"z 	c #668D49",
"A 	c #5E9048",
"B 	c #6E8C3E",
"C 	c #5D8F5A",
"D 	c #688C5B",
"E 	c #758A4B",
"F 	c #8F7D91",
"G 	c #658E6C",
"H 	c #66951A",
"I 	c #997AA5",
"J 	c #719157",
"K 	c #59A21D",
"L 	c #639F1E",
"M 	c #829162",
"N 	c #679F34",
"O 	c #6B9D3E",
"P 	c #5FA234",
"Q 	c #699E45",
"R 	c #61A13F",
"S 	c #60A146",
"T 	c #8D8E82",
"U 	c #699E4C",
"V 	c #689E52",
"W 	c #619F60",
"X 	c #749B4A",
"Y 	c #7B9949",
"Z 	c #6A9C66",
"` 	c #5FA154",
" .	c #61A14D",
"..	c #689E59",
"+.	c #759968",
"@.	c #6B9D5F",
"#.	c #749B56",
"$.	c #918D98",
"%.	c #928E91",
"&.	c #66AF1E",
"*.	c #6CAC2F",
"=.	c #73AA2E",
"-.	c #65AF2F",
";.	c #6EAE3C",
">.	c #6DAE44",
",.	c #69AF4B",
"'.	c #66B140",
").	c #6FAD52",
"!.	c #71AD4B",
"~.	c #9C999C",
"{.	c #79AB4B",
"].	c #9A9B92",
"^.	c #6BAE61",
"/.	c #68B055",
"(.	c #74AB65",
"_.	c #6EAE58",
":.	c #76AC56",
"<.	c #7AAD40",
"[.	c #75AC5F",
"}.	c #71AC6E",
"|.	c #AF93B6",
"1.	c #81AB44",
"2.	c #81A962",
"3.	c #9C9D8E",
"4.	c #7DA975",
"5.	c #82AA57",
"6.	c #89A857",
"7.	c #A09CA7",
"8.	c #8CA686",
"9.	c #6DBA1F",
"0.	c #70BB2D",
"a.	c #6EBE14",
"b.	c #85AF71",
"c.	c #A4A1A6",
"d.	c #A2A39A",
"e.	c #7FB63D",
"f.	c #70BB3B",
"g.	c #96AA7B",
"h.	c #79B93D",
"i.	c #A7A3A1",
"j.	c #9CAC6B",
"k.	c #72BE4A",
"l.	c #72BE51",
"m.	c #6AC058",
"n.	c #7ABC51",
"o.	c #7CBC4A",
"p.	c #75BD58",
"q.	c #86B94D",
"r.	c #8CB74F",
"s.	c #79BC5E",
"t.	c #7EBB58",
"u.	c #6FBF60",
"v.	c #78BC65",
"w.	c #77BC6D",
"x.	c #88B958",
"y.	c #81B972",
"z.	c #84BA63",
"A.	c #82BA6C",
"B.	c #7EBA7B",
"C.	c #ACA9A7",
"D.	c #B6A4C0",
"E.	c #90B863",
"F.	c #90B76F",
"G.	c #8BB782",
"H.	c #ACA9AF",
"I.	c #9EB463",
"J.	c #96B765",
"K.	c #8CB996",
"L.	c #79C82C",
"M.	c #C1A8A7",
"N.	c #A7B19E",
"O.	c #7CCB16",
"P.	c #7DC83B",
"Q.	c #7DC74B",
"R.	c #7DC843",
"S.	c #78C869",
"T.	c #7DC957",
"U.	c #B4B0B7",
"V.	c #B3B1AF",
"W.	c #85C668",
"X.	c #86C75B",
"Y.	c #82C863",
"Z.	c #89CB33",
"`.	c #8BC94C",
" +	c #85C870",
".+	c #83C878",
"++	c #8DC579",
"@+	c #8BCA57",
"#+	c #92C772",
"$+	c #90CC42",
"%+	c #8DCA65",
"&+	c #94C86C",
"*+	c #96C866",
"=+	c #91D01E",
"-+	c #A6C27D",
";+	c #9DC671",
">+	c #8FC987",
",+	c #9CC67D",
"'+	c #C0B5CA",
")+	c #8DCA90",
"!+	c #BBB8BD",
"~+	c #9DC687",
"{+	c #8DCD6F",
"]+	c #BAB8C3",
"^+	c #8ECE62",
"/+	c #9BC691",
"(+	c #BBB9B6",
"_+	c #9CD03C",
":+	c #CDB7B4",
"<+	c #9DCD62",
"[+	c #96CD80",
"}+	c #A1D226",
"|+	c #A1CF54",
"1+	c #ACCA76",
"2+	c #99D457",
"3+	c #BCC685",
"4+	c #90D857",
"5+	c #9ED279",
"6+	c #95D579",
"7+	c #B5CA86",
"8+	c #C3C1BE",
"9+	c #A2D270",
"0+	c #99D666",
"a+	c #C3C1C6",
"b+	c #B4CB90",
"c+	c #A8D17B",
"d+	c #B9CA9B",
"e+	c #A8D187",
"f+	c #A5D0AC",
"g+	c #B2CF8A",
"h+	c #B2CE9F",
"i+	c #A9D1A1",
"j+	c #AAD292",
"k+	c #A9D299",
"l+	c #A3D78B",
"m+	c #BFCBB6",
"n+	c #CCCACE",
"o+	c #B8D3B4",
"p+	c #B1DF73",
"q+	c #BBDB85",
"r+	c #B2E085",
"s+	c #D8D0BD",
"t+	c #B8DE95",
"u+	c #D3D1D6",
"v+	c #D3D2D0",
"w+	c #C7D9AE",
"x+	c #ABE3A1",
"y+	c #B9E0A0",
"z+	c #BAE0A7",
"A+	c #BCE0B1",
"B+	c #DCDADE",
"C+	c #DDDCD9",
"D+	c #C8E5C4",
"E+	c #E1DFCD",
"F+	c #E9EAEA",
"z.t.2+F.A.++[+#+t.[.2.F.++z.,+~+2.F.5+F.s.p.p.#+b.F.q.9+[+V V F.A z.z.(.(.@.(.W.(.G.,+_.s.A.2...y.~+,+~+g.t.X.n.X.Q.t.(.y.s.s.o.",
"h.X.$+z.++z.++F.b.F.[.E.;+z.2.e+E.z.E.5.b.z.++k+j+,+E.A.,+@.@.).v.y.(.++#+z.++G.A.A.>+z s.s.y.2.++o.E.E.b.W.:.h.X.o.:.s.@...:.k.",
"R.@+`. +).t.A.b.4.A.#+`.X.A.Q ;+5.*+z.z.2.z.@+%+[.:.t./+7.|.I I 8.++/+/+A.>.(.z.y.z.++(.>.s._.F.b.q.t.G.2.b.b.!.;.P.#+q.~+G.(.t.",
"0.&+$+X.;.&+G.~+~+2.%+z.Q.z.X ~+5.1.z.b.#.!.!.v.^.A g.:+< < < - & m [.(...[.A.t./+z.v.[.!.Q #+z.E.;.!.t.y.l+:.2.:.@+h.*.2.b.y.#+",
"t.z.O.P.:.x.,+G.G.(.:.z.F.E.b+,+o.r 5.z.[.V !.V ).@.G.:+k < < 4 & , @.(.s.v.[.z./+F.[.4.@.).,+b.5.O [.>.o.A.[+G.X x.;.z.X.2.[.#+",
"t.z.9.e.(.s.~+/+/+++z.[.X.E.b+{.@+2.#+2.(.#.b.F.[.z 8.:+k < < < & , +.t.z.A.v.%+W.5.2.y.4.z.G.+.:.;.:.2.:.,.!.W.;+F.E.>.U t.@.2.",
"o.X.!.P.).A.++F.2.#+y.z.t.E.-+q.F.#.F.~+++v.t.z.(.}.N.s+k < < F 3 & +.+.5.2.A.R.z.2.2.:.,+:.y.}.V y h.x.E.;.,.:.q.&+2.E.s.!...[.",
"W.>.t.R.S v.>+b.(.n.U F.v.2.2.&+W.5.~+:.z.F.b.++z.}.m+s+H.3.F.q.<.$.+.V V A.y.~+d+{.b.(.A.y.z._.z.y.:.2.X.U >.).R o.z.{.E.++v.:.",
"k.n.s.;.#.A.++W.A.E.#.A.F.2.5.e+v.F.W.F.F.j+#+s.t.4.m+b+x.e.e.e.J.N.8.~+~+G.[+a+8+<.O g.y.).u b.(...(.%+#+z.o.n.o.<.X.o.q.;.h.n.",
"z.h.T.[.F.b.[.n.F.&+,+/+~+~+/+[+z.U !.2.F.F.h+#+k.>+u+J.e.e.e.e.J.N.8+8+8+8+a+n+(+E.s z g.~+Q U (.A. .<.>.&+t.t.t.5.Q X X.v.Q `.",
"z.#+o.P ;.2.y _.:.k+G.z.p.E.#+t.A.s. .i (.v+v+d+;+h+B+/+<.p e.=.<.g.8+8+8+(+(+a+(+2.p r 8.t.A.[.V }.n.L.n.W.,+s.X 2.z J <.Q.,.t.",
"2.A.t >._.+.[.>.n./+..:.n.#+F.:.#+X.[.,+;+-+J.E+q.G.u+8+1.L <.=.=.2.(+(+a+(+(+a+V.5.c s 8.!.f.(.A.k.!.++A...A.++:.+.2.2.#.n.z.~+",
"k+z.:. .y.D @.f.~+W.[.!.h.A.b.++).X.:.-+F.J.E.s+q.g.u+u+F.=.=.=.=.#.(+!+n+8+(+a+N.{.c s d.x.F.p._.u V y.p.[.).).B.y g.2.z.U z F.",
"~+!.A.}.y.,.o.F.U !.U :.!.t.#.v.S t.8.v+n+u+m+m+F.g.u+u+(+=.=.=.L O (+a+a+(+!+a+d.N c g C.++4.[.(.C (./+/+~+A.W.v.[.,+(.5.(.A.:.",
"~+[.y.v.Q f.X.s.).!.p.A.:.A.A. .y /+8+a+C+u+u+B+u+n+u+u+v+{.=.=.L L (+(+(+(+V.V.N.l c t V.G.4...v.G./+(.++~+s.z.@.b.z.b.[.F.F.5.",
"~+[.n.s.).h.A.!.s.).W.A.z.:.Q [.(+(+i.d.n+u+u+u+u+n+u+u+n+N.=.L L L V.!+!+V.V.V.d.0 c +.H.V.8.!.(.G.G.++t [.++++++F.[.~+r #.A.2.",
",+x.4._.w.:.t.++:.n.W.n.X.>.u N.V.C.d.].i.B+u+u+u+a+u+u+n+a+<.L L H C.(+V.i.C.V.g.0 c 3.V.C.m 8._.(.(.(.y A.D ,+G.h.X ++b.U y.A.",
"&+++>+++++[.n.z.>.<.:.h.o.!.V (+(+V.d.C.T n+n+v+u+n+u+u+n+n+G.L L l C.V.V.C.C.V.g.5 e C.H.i.m %./+(._.i @.v.b.J >+s.z G.(.4.(.b.",
"x.z.!.&+A.!.s.z.o.E.t.@+q.!.G.C.V.i.].%.T U.a+n+u+n+n+v+n+n+8+L L l d.C.C.C.H.V.+.5 +.H.H.].2 m Z !.V #.z [.(...y.++@.#.z.#.#+(.",
"5.Q V ,+++>.t.n.z.2.{.{.!.>.x.!+n+a+V.T m c.!+a+u+n+n+n+n+n+n+b.L l d.C.V.C.U.V.z 5 ].H.C.m 2 n Z A u y...@.J Z v.2.@.[.z.:.j+W.",
"w.[.v b.++s.).x.W.z.z.:.;.f.h.n+B+u+C+a+~.%.U.a+u+n+a+n+n+n+a+V.H l 3.C.U.(+V.V.c t i.c.].= 8 i.+.(...(.@.4.4.4.(...9 A...++G..+",
"v.y.y.G.z.X.n.5.;+<+X.:.;.k.o.C+B+u+n+a+8+%.7.n+u+u+a+n+n+a+a+a+2.l 8.C.V.C.C.C.c T i.i.n 7.H.H.K.^.+.4.@.B.~++.F.:.;.:.F./+G.A.",
"v y.[.~+2.W.n.U z.Z.t.z.v.!.F.B+B+u+v+a+]+%.F a+u+v+a+n+n+a+a+a+C.l 8.c.C.i.c.d.g i.i.c.c.H.V.C.V.4.J b./+,+z.:.t.Q V b.z.(.t...",
" .A.t.++[.t.n.:.z.R.W.v.s.l.N.B+B+u+n+a+!+(+%.U.v+u+D.]+n+a+a+!+!++.8.c.C.i.H.3.T i.i.7.c.H.V.C.U.B.[.n.z. +W.:.[.X #.:.V n.U {.",
"A n.W.W.k.q.%+F.W.T.p.y.).,.m+B+u+C+a+!+N.(+%.~.n+|.@ 7.n+a+!+!+!+V.d.c.i.c.H.d.i.i.i.7.7.H.C.C.H.G.b.).E.y.A.W.X.{.b.2.(.++:.o.",
"P :.t.#+h.Z.#+F.F.:.;.u ..++8+u+n+n+(+V.@.8+~.$.4 @ , H.n+n+8+!+!+!+V.c.i.C.U.C.i.i.i.d.7.7.H.C.C./+:.[.++++!.b.y.A.s.V v.A ;.h.",
"P u n.%+R.R.W.A.A.!.Q U 9 2.m+B+u+v+!+K.@.8., # @ , H.!+n+n+U.!+U.!+V.i.~.C.!+C.i.i.d.U i.F %.i.i./+++2.:.Q.n.F.++(.V [.A.[.n.<.",
"y.t W.q.&+z.t.).).>.h.!._.++n+B+v+n+(+N._...n * 8 C.c.8 n+n+c.U.V.c.V.C.i.C.U.~.~.~.3.Q N.c.i.V.V.C.b.s.z.:.>.Q 2.2.[.#.5.U R !.",
"#+p.n.W.X.A.:.:.z.).Q.:.[.-+-+d+d+N.3.g.2.y.}.C.].n +   %.a+7.U.c.~.C.i.i.c.H.%.~.c.G.#+g.M M g.b.b.g.F.z.#.N >.:.u ;.A @.(.@.U ",
"#+k.[.t.o.[.u [.t.o.>.o.t.F.L H p p c g b. .F.V k.4.      H.!+!+!+!+c.~.~.c.V.C.C.H.4.b.g c 5 5 _ ! [.[.#.E.;.#.R >.U Q h #+++t.",
"b.!.:.z.z.).!.s.Y.n.>.h.Q./+N.M 7 | | 7 y.).s.l.2.7 % $ $ ^ 2 m T %.m = = n ].b.b.^.b.#.6 6 _ : 7 +.V ..y.[.@.!._.A.G.[.u F.:.z.",
"z.F.z.[.z.:.R z.[.[.!.;.X.h+]+U.7.%.].3.z.2.v...N.~.n 8 8 n 8 / * = = + = * b.[.A 2.` 8.g m T %.n b.#.@.(.A ).V n.>.t.b.(.y.B.Q ",
"t.W.A.l.V _.:.W.n._.U >.o.#+a+U.7.%.~.K.:.b.[. .h.d.8 n n %.%.n n n T 8 / 8 z.).@.b.V d.~.~.~.T T [.2.@.w.}.#.:.:.y.A.b.@./+~+++",
">+G.@.).[.(.W.Q.O A.R n.t.X.a+U.7.%.~.F.n.[.V '.F.U.$.n ~.c.C.c.c.i.i.~.n %.!.k.z.z.!.i.~.~.%.n A.!.++G.J y.(.>.:.t.).z.4.O :.[+",
"o+G.#.b.~+>+:.:.U U Q t.X.Q h+U.7.%.d.{.:.V _.s.N.U.!+!+~.U.U.V.C.C.i.i.%.%.+.k.o.5.!.i.~.~.%.m t.X.#+J 2..._. .[.<.:.t.U N U [.",
"b.o+y z z.++F.b.[.V v.{.Q :.2.!+~.%.8.u V J ..t.H.!+a+a+H.7.U.H.C.i.~.$.F ~.8.;.O o.[.d.~.%.n #.[.t.n.n.V @...5.2.{.h.!.@.V 4.[.",
"!.k+ .d n.z.n.z.h.R t.X.s.v.(.N.7.$.d.(.i i A.F.H.!+a+!+C.%.c.7.~.%.T n ~.c.8.t :.Q 3.U.F n z.:.R t.!.o.!.[.A.t.s.L.h.o.Q _.A 2.",
"/+2.X.t.P o.o.o.;.z t.t.!.;.W.n+n+U.U.V.:.~+b.4.]+a+a+U.c.~.7.~.$.n 8 $.H.i.3.2.D d.]+U.c.c.d.P [.[.>.!.!...2.t.z.0.h.!.<.y @.J ",
"j+b.<.k.V !.x.o.{.;.q.t.!.U y.v+!+H.d.H.b.y z G.n+n+a+U.c.8.b.b.++~.$.C.H.i.d.V +.V.c.%.$.$.].p.@.@.(.A.!._.#.o.X.>.R.U n.:.4.5.",
"X.z.(.o.).z.X.z.{.>.f.t.#.U [.n+c.N.G.c.++[.[.N.n+n+8+H.7.G.z.z.:.H.c.U.V.i.d.#.2.!+7.~.~.~.].s.).:.).:.W.v.[.A.>.n.n.#+z.n.t.~+",
"&+t.F.y.n.F.A.,+;.f.[.n.h.n.W.a+H.G.V c.G.[.s.N.u+n+!+c.~.G.k.[.X.N.c.U.U.i.N.C z.N.H.c.7.~.8.y.X.:.z.X t.o.o.o.n.Y.;.:.n.!.[.~+",
"x.[+).).z.o.&+s.).{.t.t.%+X.++]+U.K.h.K.A.!.~+h+n+n+!+c.c.[.h.:.:.N.H.!+c.$.].(.4.8+U.U.C.~.4.2.++~+%+F.:.Q `.z.h.T.[.z.(._.t.[.",
"2.&+W.p.t.t.&+s.).X.!.[...!.n.!+U.V.Y.W.n.z.a+a+u+a+c.~.d.0.h.y.2.N.H.V.%.T ~.b.[.n+]+!+!+V.[.F.s.@+E.2.T.).t.s.#+T.R ;.2.@.p.U ",
").~+o.z.z.U !.:.q.A.[.:.5.!.`.V.!+V.n.A.v.F.a+a+n+~.n n 8.!.h.W.++V.H.%.T m T A.A.N.V.N.8.y.z.b.t.X.A.z.z.z.++A.A.u <.[.@.[.p.W.",
":.F.z.t.:.Q Q.n.(.{.n.n.0.f.n.~+!+h+A.z.s.~+n+!+i.3.T m b.>.o.v.v.N.F ].].m T [+++v.[.s.Q A.t.F.s.n.p.z.%+z.A./+A.:.).b.[.[.F.v.",
"E.G.z.t.>.X.s.[.A.!.k.t.o.n.n.n./+~+z.t.W.++n+v+d.T 8 8 z.Q.s.A.A.h+c.%.m 2 T ,+z.A.y.(.,.++z.z.y.W.n.Q.&+n.A.y.).W.y.v.s.#+,+[.",
"z.2.W.[.z.E.,+n.).!.p.{.h.o.k.>.;+E.W.z.z.o.v+u+u+V.m T ++k.,.).(.G.a+!+d.%.U.N.#+~+A.y.t.++v.o.).(.s.Q.[+Q.z.A.[.y.W.s.p.%+W.z.",
":.V 5.A.2.t.t.F.@.V !.s.Q.n.n.o.F.W.`.z.n.Q m+B+u+u+n+U.!+b.p.n.R /+a+B+v+n+a+(+:.o.t.[.A.z.t.X.`.n.).s.W.{+t.#+t.z.W.s.z.%+s.x.",
":.:.~+2./+A.A.;+2.n.X.X.).[._.n.:.X.Z.z.t.n.m+B+u+u+v+n+U.N.:.l.'.G.]+u+B+u+8+V.b.!.n.n.z.F.s.X.P.f.t.t.#+&+Y.#+x.y.z.++x.t.A.W.",
">.x.++A.++[.:.F.A.W.%+n.t.:.#+t.5.X.@+q.n.Q.m+B+B+u+n+v+(+(+,.>.k.G.]+v+B+u+a+V./+).o.R t.#+(.z.T.T.o.z.:.#+[+#+#+#+e+A.x.z.z.>+",
">.s.y.A.A.:.x.;+,+W.Q.s.t.t.!.z.,+%+X.e.5.o.m+u+u+u+n+u+8+U.G.).).>+U.n+B+u+n+(+V.U ).[.v.,+W.z.t.&+W.#+z.~+%+5+++,+~+A.,+&+%+z.",
"[.A.A.%+).U x.x.A.).n.W.A.x.{.W.;+F.n.h.n.&+o+B+u+u+u+v+n+U.N._.>.G.U.a+B+u+v+!+U.Z 2.t.w./+,+W.t.@+#+++y.~+#+ +++[+#+&+5+Q.o.t.",
"[.:.t.v.A z ).).:.b. +[.z.X.t.z.z.v.t.@+%+&+m+B+B+u+u+n+v+!+!+4.R N.U.a+u+B+u+8+V.N.z.n.v.(.%+>+:.%+n.A.++B...++#+W.n.^+T.n.R.%+",
"W..+B.++++V [.A.t.).A.z.#+t.t.t.:.o.;.`.z.`.v+B+B+u+u+u+C+8+U.N.l.N.U.]+u+B+u+n+(+V.v.:.z.4.W.%+x.t.t._.A.v.v.y.s.{+t.o.R.).t.%+",
"#+@.:. +..v.z.:.l.++z.t.&+t.A.t.!.s.T.n.X.@+B+B+B+u+u+u+v+v+a+!+G.N.!+]+n+B+u+n+8+U.d.y.W.(.z.Q.t.x.z.y.++A.A.y.w.Y.l.;.k.X.n.P.",
" +_._.R s.R [.2.h.A.++b.x.t.U U t.X.Q.>.`.`.C+B+B+u+n+u+u+u+n+U./+d.H.!+n+B+u+8+H.c.N.,+F.A.t.x.t.F.A.&+[.b.F.W.z.++s.U >.h.o.n.",
":.(.[...O [.b.:.;.!.z.t.A.E.[.F.z.z.X.t.P.z.~+v+u+u+u+a+u+a+H.K.:.G.U.U.a+a+!+!+U.C.d.++p.z.!.;.z.z.t.Q.>.l.:. +s.s.(.).o.t.*.k.",
"_.V z.Y.^.v.2.V :.z.E.t.2.z.;+%+z.^+W.T.t.h+n+B+B+u+u+a+!+!+!+V.V (+!+U.U.a+u+n+!+U.A.++W.).t.).z.:.t.R.A.).2.[.s.[.t.).{.A.-.!.",
":.S @.T.(.b.F.v.b.b.Y.W.#.b.n.X.W.X.*+ +b+B+B+B+B+B+u+!+a+v+!+V.F.]+U.H.U.a+u+n+!+U.y.#+:.[.l.2.:.A.[+o.s.V F.F.z.y.++^.A F.X V ",
"}.(.b.s.++A.@.F./+++s.n.[.z.A.z.n.t.X.,+-+B+F+F+B+B+n+u+u+u+]+(+8.7.H.U.!+n+u+n+a+!+/+A.A.y.R !.).A.n.*.l.A.z.o.X.&+b.(.[.A.U B.",
"G.b.v.p.A.G.F.[.#+++W.z.[.2.z.t.x.&+%+d.].D.'+n+n+u+B+B+u+u+a+H.(.m 3 3 F |.]+D.7.F 8.(.A.z.[.;.A.#.V f.!.#+X.A.z.x.x.2.b.5.5.K.",
"t.x.E.:.W.~+~+y.t.v.t.z.F.E.x.[.x.t.t.W.G.8.%.$.F F I < k 4 3 / ..y.v.[.4.m F n M 4.4.v.z.E.t.>.v.i 4.,+t.X.W.[+z.F.v.y.b.!.5.[+",
"T.t.,+F.G.,+E.,+F.p.X.z.F.#+++y.).o._.V %+F.%+#+[.t.$+z.z.n.l.V (.[._.^.y.[+G.4.2.:.++(.G.~+@.s.n.U :.x.2.%+Q.[+A.}.t.A.b.t.P.G.",
"z.2.`.x.G./+F.:.o._.s.#+++y.~+b.2.x.F.G.W.A.z.x.s.).E.#+s.o.[.A.(.A.4...Z G.#+b.y ,+B.v.:.5.2.>+y.X.z.:.b.&+&+o.Q.z.W.b./+z.*.~+"};
