/* XPM */
static char * 231_buzz_right_xpm[] = {
"32 32 255 2",
"  	c #27142B",
". 	c #3D2030",
"+ 	c #41253B",
"@ 	c #2D2F3C",
"# 	c #512853",
"$ 	c #493140",
"% 	c #353934",
"& 	c #4A3745",
"* 	c #413C43",
"= 	c #394B24",
"- 	c #4A443E",
"; 	c #544829",
"> 	c #4A5031",
", 	c #64465D",
"' 	c #604B54",
") 	c #575045",
"! 	c #6F4677",
"~ 	c #485749",
"{ 	c #6A4975",
"] 	c #4F564C",
"^ 	c #575455",
"/ 	c #675054",
"( 	c #615262",
"_ 	c #575A47",
": 	c #4A5F42",
"< 	c #535C57",
"[ 	c #605E35",
"} 	c #546053",
"| 	c #5C5C6D",
"1 	c #52624B",
"2 	c #635F5D",
"3 	c #4B6D47",
"4 	c #556E38",
"5 	c #7F6059",
"6 	c #5A6C54",
"7 	c #6D674A",
"8 	c #61686F",
"9 	c #5B6E44",
"0 	c #4F7242",
"a 	c #676978",
"b 	c #636F47",
"c 	c #7B656F",
"d 	c #557B47",
"e 	c #7B6D63",
"f 	c #637563",
"g 	c #737169",
"h 	c #5F7B3D",
"i 	c #65756F",
"j 	c #737175",
"k 	c #806E82",
"l 	c #916D5E",
"m 	c #647D46",
"n 	c #8A6F69",
"o 	c #608157",
"p 	c #7B796C",
"q 	c #827A79",
"r 	c #9D755C",
"s 	c #7E816C",
"t 	c #898264",
"u 	c #878281",
"v 	c #938173",
"w 	c #9C816E",
"x 	c #85877E",
"y 	c #BB7A6E",
"z 	c #7D8D72",
"A 	c #689659",
"B 	c #90877B",
"C 	c #739466",
"D 	c #689B4A",
"E 	c #819167",
"F 	c #6E9955",
"G 	c #619F45",
"H 	c #A58580",
"I 	c #6B9C51",
"J 	c #A0878C",
"K 	c #AF847C",
"L 	c #74995D",
"M 	c #7A985E",
"N 	c #A7897D",
"O 	c #889483",
"P 	c #998E8E",
"Q 	c #B08977",
"R 	c #68A543",
"S 	c #6BA350",
"T 	c #6AA356",
"U 	c #6EA263",
"V 	c #A29081",
"W 	c #67A752",
"X 	c #75A265",
"Y 	c #71A45E",
"Z 	c #69A84D",
"` 	c #6BA65F",
" .	c #7DA15F",
"..	c #71A74D",
"+.	c #74A55A",
"@.	c #68AB40",
"#.	c #6EA75A",
"$.	c #7EA075",
"%.	c #9E948E",
"&.	c #B1907C",
"*.	c #979696",
"=.	c #76A654",
"-.	c #70A854",
";.	c #69AA5C",
">.	c #6DAC3A",
",.	c #7AA560",
"'.	c #A89390",
").	c #82A26D",
"!.	c #71AC43",
"~.	c #76A76F",
"{.	c #70AD4A",
"].	c #BB9277",
"^.	c #6FAD52",
"/.	c #73AD5F",
"(.	c #78AB66",
"_.	c #6FAF59",
":.	c #6CB14D",
"<.	c #76AD5A",
"[.	c #80A874",
"}.	c #7BAB6C",
"|.	c #8AA954",
"1.	c #7BAD61",
"2.	c #7AAF4E",
"3.	c #74AF67",
"4.	c #70B348",
"5.	c #75B14F",
"6.	c #81AE4F",
"7.	c #77B248",
"8.	c #7AB056",
"9.	c #74B256",
"0.	c #83AD62",
"a.	c #99A388",
"b.	c #80AF56",
"c.	c #A49E9E",
"d.	c #83AE6A",
"e.	c #74B45E",
"f.	c #AE9E90",
"g.	c #82B05E",
"h.	c #72B935",
"i.	c #79B365",
"j.	c #7EB16B",
"k.	c #7BB35F",
"l.	c #80B266",
"m.	c #7DB642",
"n.	c #75B84D",
"o.	c #76B93E",
"p.	c #7AB654",
"q.	c #82B173",
"r.	c #76B946",
"s.	c #A9A29B",
"t.	c #9EA789",
"u.	c #7CB74D",
"v.	c #72B95B",
"w.	c #74B954",
"x.	c #7FB55B",
"y.	c #79B75B",
"z.	c #88B079",
"A.	c #8CB06D",
"B.	c #C99D76",
"C.	c #7CB76F",
"D.	c #76BE3A",
"E.	c #80B864",
"F.	c #85B66A",
"G.	c #83B770",
"H.	c #ACA799",
"I.	c #7FB96A",
"J.	c #93B182",
"K.	c #7BBB65",
"L.	c #7ABB6C",
"M.	c #A5AC88",
"N.	c #85BA58",
"O.	c #7DBC5F",
"P.	c #7FBC58",
"Q.	c #81BC52",
"R.	c #78C044",
"S.	c #84BA5F",
"T.	c #79BE59",
"U.	c #8FB578",
"V.	c #A9AB8F",
"W.	c #7BC134",
"X.	c #CCA186",
"Y.	c #7DBF4C",
"Z.	c #8AB966",
"`.	c #9FB17E",
" +	c #84BA79",
".+	c #7FC045",
"++	c #85BE4D",
"@+	c #7BC05B",
"#+	c #89B980",
"$+	c #8EB971",
"%+	c #91B2BA",
"&+	c #8CB97A",
"*+	c #7DC155",
"=+	c #83BD6F",
"-+	c #85BD68",
";+	c #AAACB5",
">+	c #8ABC6E",
",+	c #89BC75",
"'+	c #88BE63",
")+	c #84C15D",
"!+	c #83C164",
"~+	c #BFAB95",
"{+	c #86C257",
"]+	c #BAACA7",
"^+	c #89C16C",
"/+	c #8DC260",
"(+	c #84C46D",
"_+	c #B3B0AE",
":+	c #8EC173",
"<+	c #AAB59C",
"[+	c #85C754",
"}+	c #8DC368",
"|+	c #92C16E",
"1+	c #B6B1A9",
"2+	c #C0AF9E",
"3+	c #94C07B",
"4+	c #96C175",
"5+	c #8EC37B",
"6+	c #BAB2A3",
"7+	c #97C081",
"8+	c #9DBF7B",
"9+	c #A9B8AB",
"0+	c #95C469",
"a+	c #9EBF8A",
"b+	c #B5B79B",
"c+	c #D2B08E",
"d+	c #90C973",
"e+	c #B0BE99",
"f+	c #9EC97F",
"g+	c #96CD70",
"h+	c #C5BDA8",
"i+	c #C8BCBC",
"j+	c #CFBCA6",
"k+	c #C6BEB1",
"l+	c #B0C88C",
"m+	c #C3BFBA",
"n+	c #AACF8A",
"o+	c #EDBE93",
"p+	c #B0D0A3",
"q+	c #C2D2A9",
"r+	c #D7CBB7",
"s+	c #D5CDC0",
"t+	c #D3D1B5",
"u+	c #D2D0C8",
"v+	c #DED3BE",
"w+	c #F6CEA3",
"x+	c #CADFB0",
"y+	c #DFD8CA",
"z+	c #D7DFBD",
"A+	c #E4DBC7",
"B+	c #EBE7D1",
"C+	c #F1E6D2",
"D+	c #EDEBD5",
"E+	c #F6F2DC",
"F+	c #F5F3E3",
"*+{+>+:+l.>+|+8+Z.Z.i.5+8+'+G.g.l.I.l.5+ +}.k.(.5+|+F.*+[+<./.:.",
"[+[+p.U.z./+N.A.6.Z.g.u.#.k.-.S j.z.<.E.,+C.5.=+b.E.&+i.r.Q.z.E.",
"N.W.8.7+#+E.|+8+b.F.+.1.q+C 4.^.}.! { K.4+G.j.U.R ..p.-+0.2.8.1.",
"p.Y._. +E.1.x.Z.g.&+n+$.6+g 6 x { H K H Z.(.G.i.` x.S.^.2.g.E.#.",
"r.5.1.E.Z.&+$+3+k.g.f+3 j | ^ ( N s.w q Z.^.G./.#.y.'+n.p.2.u.m.",
"^+!.1.W 5+l.!+E.!+7+q+o x | * / o+X.c+Q 9+~...y.#.P.e.^+ .M 7.F.",
"3+<.(.y.E...p.j.p.q+h+e+$.u a n B.c+&.5 *.6 O ;+I q.,+K.3.q.k.Y ",
"&+E.4.p.{.K.E._.e.t+7 l+I.z *.c o+w+].5 ] b t %. +#+d.>+G.,++.0.",
"|+q.L.E.7.p.7.{.O.h+y z+3+A k q l B.r ) * Z d.6+c.Y (.X I.d.,.d.",
"b.l.E.S.x.N.7.u.^.2+j+C+s+H.# o < %   @ % } |.6+T F F X I.U #.5+",
"i.}.-+p.0+S.r.p.^.&.j+p ^ 2 g ).A } 6 0 ~ f ,+q.~.X [.~.1.T &+5+",
"1.>+k.5.++O.v.4.9.Q f.x m+P j p F d : ~ 8 i D d.#+d.3+E.S +.k...",
"Z (+.+|+-+_._.:./.v %.%.s._+m+;+E m 4 [ _ 2 D ,+9.S ,+S.K././.!.",
"D Q.{+y.9.5.Y y.w.w '.B H.u+%+;+%.h 4 ; 1 ^.+.x+i+_+5.2.j.-.+.5.",
"!+y.x.-.n.n.p.p.P.n.<.J 2+B+u+F+1+$.(.k+u+u+z+f+<+i+g.R ^.G Y >+",
"I.x.<.^.S.!.)+S.r.P.l.s ' f.F+s+1+d.a+y+s+k+r+3+`.P 3.S y.G.(.i.",
"=+_.+.O.^.R Y.c.a+z k.D+J.- v e g U t.f.f.f.I.j.E.d.3.-.x.F.}.5+",
"p+F 3+l.-.8.2.e+B+s+c.A+v+E 0 = > m V @.!...Z.+.O.y.+.S b.n.I }.",
"3+..5.Q.>.P.]+).C+E+s+j+f.v #.5.h+A+]+D F /.O.{.E.4._.S.Y.o...F ",
">+5.9.)+!.u.V.M.v+D+k+j+N g.8.8.v+B+y+_+,.e.1.:.I 1.K.k.7.p.p.F.",
"}+i.y.^+4.x.*+m V.r+h+~+V y.8.7./+k+F+1+,+i.1.j.|+Z.5.r.*+8.9.I.",
">+)+8.x.x...^..+r.)+6+v 2 k.y.P.G.r+E+m+,+/.9.F.)+g.O.-+S.R ,.x.",
"$+S.2.w.k.n.r.n.Q.!+'+s.p.Y.r.!+I.A+E+y+c./.k.-+S.T.!+5+y.K.I.E.",
"k.E.g.>+T p.R.7.|+/+p.p.p.!.n.p.Z A+E+B+a.I.>+@+w.w.!+'+k.K.)+'+",
"x.&+,+Z.E.{+k.!+8.++Q.x.P.9.E.:.n.A+D+p+A 9 $.E.R.P.Z.|+^+:+)+=+",
"-+K.<.S.F.w.p.8.4+++/+*+5.5.<._.p.t+a+L B a.( + {+^+,+d+5+|+g+)+",
"L.K.+.k.k.E.!+x.y.++/+)+(+@+i.;.Z U.^+V.s+, . $ P.y.,+i.(+*+*+{+",
"I._._.k.S.I.P.k.p.Y..+S.E.:.{.y.{.;.b+r+, . . Q.E.-+F.=+(+:.r.Y.",
";.k.<.+.2.!+d.Z.}+P..+4+n.-.5.m.^.G h+c . & y.5.y.Y.y.g.y.k.x.>.",
"/.e.G.j.&+!+,.P.P./+@+/+N.5.:.y.^.9.X & $ -+i.:.k.p.y.S.^+j.1.Y ",
"Z.E.,+&+^+!+F.S.)+)+^+N.{+p.9.5.#.y.Y [.l.3.>+p.#.1.)+^+-+E.l.G.",
"P.0+7+$+y.!+3+&+8.i.Z.'+x./+P.e.i.U q.z.0.3.$+j.y.g.|+/+K.F.G.S."};
