/* XPM */
static char * 231_exit_xpm[] = {
"32 32 255 2",
"  	c #11151E",
". 	c #161518",
"+ 	c #151C26",
"@ 	c #1A1B22",
"# 	c #1B1C1E",
"$ 	c #1A1F25",
"% 	c #1B242E",
"& 	c #242225",
"* 	c #1A2534",
"= 	c #272322",
"- 	c #1D271E",
"; 	c #222627",
"> 	c #21262C",
", 	c #1F2A3A",
"' 	c #232B36",
") 	c #252B31",
"! 	c #2E2A29",
"~ 	c #2A2B2E",
"{ 	c #22311C",
"] 	c #28303B",
"^ 	c #2A3036",
"/ 	c #2D3124",
"( 	c #263141",
"_ 	c #312F32",
": 	c #2E3233",
"< 	c #2F353B",
"[ 	c #323537",
"} 	c #2E3642",
"| 	c #3A3635",
"1 	c #3A373B",
"2 	c #3E3732",
"3 	c #383937",
"4 	c #333B41",
"5 	c #333B47",
"6 	c #373B3D",
"7 	c #3A3F46",
"8 	c #413E42",
"9 	c #3C4042",
"0 	c #433F3E",
"a 	c #4A3F35",
"b 	c #4A3F3A",
"c 	c #40423F",
"d 	c #294765",
"e 	c #3F454C",
"f 	c #414547",
"g 	c #49443E",
"h 	c #3B4753",
"i 	c #494544",
"j 	c #315127",
"k 	c #534743",
"l 	c #4E4A49",
"m 	c #494C4E",
"n 	c #484E55",
"o 	c #4C4E4B",
"p 	c #534D46",
"q 	c #5E4B44",
"r 	c #4C5052",
"s 	c #534F4E",
"t 	c #5B4E45",
"u 	c #5A4E49",
"v 	c #44545E",
"w 	c #43583B",
"x 	c #515350",
"y 	c #595554",
"z 	c #555754",
"A 	c #525960",
"B 	c #5E574C",
"C 	c #635652",
"D 	c #5A585C",
"E 	c #68554F",
"F 	c #565A5C",
"G 	c #515C5C",
"H 	c #595D33",
"I 	c #6B5649",
"J 	c #48623E",
"K 	c #5F5A54",
"L 	c #67594F",
"M 	c #5B5D5A",
"N 	c #6A5A4C",
"O 	c #4D6838",
"P 	c #5A6269",
"Q 	c #64605F",
"R 	c #67615B",
"S 	c #6E6059",
"T 	c #745F52",
"U 	c #566670",
"V 	c #606467",
"W 	c #636663",
"X 	c #746455",
"Y 	c #6C6760",
"Z 	c #6C6766",
"` 	c #686D6F",
" .	c #746C61",
"..	c #6C6E6B",
"+.	c #7B6B5F",
"@.	c #736E67",
"#.	c #816B5D",
"$.	c #5F775D",
"%.	c #7B6E69",
"&.	c #816F5B",
"*.	c #727471",
"=.	c #7D7365",
"-.	c #6E767A",
";.	c #7A766F",
">.	c #5E8446",
",.	c #80786C",
"'.	c #7F7872",
").	c #777A7B",
"!.	c #887762",
"~.	c #887868",
"{.	c #7E7E76",
"].	c #73817E",
"^.	c #857E78",
"/.	c #7F817E",
"(.	c #628E52",
"_.	c #888074",
":.	c #8E7F6F",
"<.	c #629246",
"[.	c #719144",
"}.	c #6E9150",
"|.	c #868885",
"1.	c #888980",
"2.	c #988671",
"3.	c #90887B",
"4.	c #8F8882",
"5.	c #69994D",
"6.	c #9E866C",
"7.	c #858F60",
"8.	c #77955B",
"9.	c #998878",
"0.	c #858F78",
"a.	c #958B79",
"b.	c #978B74",
"c.	c #73976E",
"d.	c #968D81",
"e.	c #8F8F8D",
"f.	c #8F9087",
"g.	c #839762",
"h.	c #6DA05B",
"i.	c #69A43B",
"j.	c #719F68",
"k.	c #74A05E",
"l.	c #909393",
"m.	c #969477",
"n.	c #9A938C",
"o.	c #9D9381",
"p.	c #95958D",
"q.	c #73A459",
"r.	c #8A9A7B",
"s.	c #A39282",
"t.	c #9D9588",
"u.	c #7BA26C",
"v.	c #A7947D",
"w.	c #6DAB49",
"x.	c #75A667",
"y.	c #979B6D",
"z.	c #919B84",
"A.	c #9C9884",
"B.	c #8C9B9D",
"C.	c #73A862",
"D.	c #7CA65C",
"E.	c #86A173",
"F.	c #71AA5D",
"G.	c #73AA57",
"H.	c #6DAC57",
"I.	c #86A469",
"J.	c #73AC52",
"K.	c #A2998D",
"L.	c #71AF41",
"M.	c #909F92",
"N.	c #7BAB59",
"O.	c #79AD4C",
"P.	c #8AA388",
"Q.	c #7EAA66",
"R.	c #7BAC60",
"S.	c #95A381",
"T.	c #A49D96",
"U.	c #A79E92",
"V.	c #7BB156",
"W.	c #A8A07B",
"X.	c #9CA19D",
"Y.	c #A1A199",
"Z.	c #77B26B",
"`.	c #7BB25E",
" +	c #75B45F",
".+	c #78B365",
"++	c #97A4A7",
"@+	c #86AF65",
"#+	c #78B552",
"$+	c #80B165",
"%+	c #72B753",
"&+	c #88AE71",
"*+	c #82B25F",
"=+	c #81B172",
"-+	c #78B65A",
";+	c #8BAF6C",
">+	c #95AA83",
",+	c #85B16C",
"'+	c #82B178",
")+	c #80B553",
"!+	c #88AE8A",
"~+	c #80B36D",
"{+	c #87B07C",
"]+	c #78BB4F",
"^+	c #77BC48",
"/+	c #ABA698",
"(+	c #7CBC42",
"_+	c #ABA69E",
":+	c #A4AB87",
"<+	c #87B764",
"[+	c #86B76B",
"}+	c #B3A694",
"|+	c #81BA65",
"1+	c #8DB66A",
"2+	c #80BA6C",
"3+	c #79BE59",
"4+	c #8AB95F",
"5+	c #82BD51",
"6+	c #7DC22B",
"7+	c #88B879",
"8+	c #AFAA90",
"9+	c #86BC61",
"0+	c #85BB74",
"a+	c #8DB974",
"b+	c #A4AF97",
"c+	c #B3AA9E",
"d+	c #83C05C",
"e+	c #8CBA87",
"f+	c #91B981",
"g+	c #9FB1B7",
"h+	c #96B888",
"i+	c #81C26B",
"j+	c #88C06B",
"k+	c #A4B3A6",
"l+	c #8CC15F",
"m+	c #81C656",
"n+	c #8EC073",
"o+	c #88C273",
"p+	c #97BD7F",
"q+	c #8CC179",
"r+	c #8BC553",
"s+	c #92C080",
"t+	c #91C26E",
"u+	c #8CC568",
"v+	c #97C175",
"w+	c #9DBBAB",
"x+	c #A1BE7C",
"y+	c #ADB6B1",
"z+	c #96C27C",
"A+	c #B5B6AD",
"B+	c #A2C69B",
"C+	c #B4C0C1",
"D+	c #C3C1B2",
"E+	c #CBC1AE",
"F+	c #C0D4D3",
"3+r+2+v+N.*+1+p+<+4+[+n+a+z+{+{+e+e+=+q+7+=+|+~+q+v+1+]+m+G.F.%+",
"(+r+#+7+'+l+d+;+)+<+!+w+++f.4.e.++g+++M.S.f+w.2+4+|+7+R.(+5+&+j+",
"9+6+N.f+'+|+9+x+c.B.++B.*.@.R l p ..e.e.1.1.z.h+i.`.#+j+@+4+V.@+",
"]+^+H.0+`.R.`.].-.V x p o G z W Y Z .. .4.3.K.d.r.V.)+J.)+*+j+R.",
"5+%+[+`.<+&+-.F m A K R /.).'.3.,.B R t ;.n.t.U.t.b+j+]+#+)+5+^+",
"<+i.5..+~+V m A M l l g l ..'._.B B f Y _.n.K.t.3./.b+n+k.8.#+|+",
"a+G.C.-+$.1 V Q g ! 2 2 m n F Q : | 6 ) K X.n._.'.7 y S.Z.p+*+q.",
"7+|+]+<.~ l M ! > ) 3 | < A F c < [ c [ 6 @.M {.E+R ' _.E.7+q.1+",
"t+~+.+O > s p ~ > ' < : m p s ..> ^ 7 < ( n 9 0 =.}+@.:.A.k.x.,+",
"V.[+*+- % c : : ' ) ^ 7 m z *...3 9 F F ( , ] * n R 3.t.4.>+R.q+",
".+x.(.$ > ~ ^ ^ ^ < : : : [ ` r 6 M o F * } ] ' < x c l M 0.7+q+",
".+[+O + ] : ) ' 4 < 6 6 7 r x < % ~ M F ' ( ) e z z : ) y 4.D.J.",
"w.j+j @ d 5 ' ) 6 6 9 n A 5 ) r x r ..` v , ' m p.'.9 ^ R o.E.L.",
"G.O.  + h ] ^ ) P F ` P v 5 6 V P ).X.l.).]...m 4.3.W :  .t.S.#+",
"d+G.    % % 7 < 9 P 1.P 4 } ^ 7 7 ).|./.|.g+*.m @.d.p.*.z '.z.G.",
"[+`.-   $ } 7 n } h v n < } h A M Y /.|.^.B.Y.o.W 9 d.{.V *.z.F.",
"o+C.{   + + 4 U 4 5 e G m e U -.{.@.{.f.{.++Y.D+` [  .;.../.m.0+",
"B+(.- @ $ $ ) 9 ) | 0 | p l 8 Z Y R  .{.{.'.4.Y.f. .~.3.f.K.7.Q.",
"z+5.| # . # $ $ > : i _ g z < f R =.@.'._.^.,.3.X.9.~.t.C+_+g.k.",
"n+)+J ! . ; $ & ; ~ D ; ) c f 8 y ~.+.=.&.n.,.p.d.2.a.t.F+K.@+[+",
"j+2+>.0 ! . & $ & & > < r 7 ^ [ F {.,.~.t.3._.d.s.!.a.t._+b.#+.+",
"|+-+*+/ p = 1 ~ i 0 _ 1 e h } > < ..f.U.s.3.p.:.:.3.s.t.2.g.h.J.",
"[+9+)+>.b K 0 | K l > K 8 h ' > s e.y+K.o.t.4.3.a.9.}+2.b.~+|+2+",
"J.`.`.$+w 2 b a T @ + _ u 1 Q Z '.A+C+K.t.d.s.:.2.v.s.2.I.|+d+u+",
"V.a+q+[+h.k L L I k & | E 0 Y e.T.Y.c+U.U.9.!.6.6.v.2.y.j+n+d+o+",
"j+i+G.9+<+<.p L T !.X C E C @.'.n.T.s.U.T.o.2.2.6.v.W.t+n+t+u+d+",
"|+o+q.`.`.`.}.2 t I I b S #.%.Y 3.4.U.t.d.a.9.v.v.8+7+~+i+]+^+m+",
"`.G. +`.`.~+d+>.a k q q u u S L &.:.s.a.a.2.o.}+:+[+2+n+j+%+^+^+",
"H.`.H.h.O.9+a+[+V.O a q q u t X +.~.a./+s._+k+&+-+m+-+*+ +G.4+L.",
"H.`.2+~+s+3+D.9+3+d+9+[.H I N +.^. .^.|.P.e+2+w.`.#+ +<+j+~+R.h.",
"@+7+e+h+z+a+h+[+l+#+u+)+5+O.5.<.j.x.x.u.`.Z.R.w.F.N.d+u+9+.+$+0+",
"9+t+s+1+-+9+p+p+V.Z.t+l+9+d+#+`.$+h.=+'+D.0+a+Q.-+*+4+d+ +2+=+9+"};
