/* XPM */
static char * 231_buzz_back_xpm[] = {
"32 32 255 2",
"  	c #0E1212",
". 	c #1E2F08",
"+ 	c #343233",
"@ 	c #472B76",
"# 	c #2A4217",
"$ 	c #493365",
"% 	c #532E8F",
"& 	c #2C4C0C",
"* 	c #6E3B7B",
"= 	c #385914",
"- 	c #634662",
"; 	c #554D57",
"> 	c #51524A",
", 	c #32661D",
"' 	c #3A622F",
") 	c #4A5D33",
"! 	c #7D468B",
"~ 	c #744B82",
"{ 	c #446708",
"] 	c #714CA9",
"^ 	c #436623",
"/ 	c #366C0F",
"( 	c #68606B",
"_ 	c #64645A",
": 	c #427627",
"< 	c #427630",
"[ 	c #45753E",
"} 	c #47781B",
"| 	c #4F742F",
"1 	c #5D7131",
"2 	c #9258A1",
"3 	c #657032",
"4 	c #806187",
"5 	c #428023",
"6 	c #507E08",
"7 	c #8D6099",
"8 	c #577B21",
"9 	c #458318",
"0 	c #47840D",
"a 	c #627749",
"b 	c #587B44",
"c 	c #4C8500",
"d 	c #567C50",
"e 	c #727266",
"f 	c #767079",
"g 	c #53831C",
"h 	c #4F8333",
"i 	c #4E833C",
"j 	c #5C8033",
"k 	c #528429",
"l 	c #518249",
"m 	c #5B803D",
"n 	c #6E7B3B",
"o 	c #687D3E",
"p 	c #569202",
"q 	c #598D3F",
"r 	c #A06EAF",
"s 	c #5A911D",
"t 	c #51941C",
"u 	c #668F1D",
"v 	c #55932E",
"w 	c #60902F",
"x 	c #688D43",
"y 	c #5E9139",
"z 	c #857E8B",
"A 	c #55943A",
"B 	c #539442",
"C 	c #698E39",
"D 	c #608F4F",
"E 	c #57924E",
"F 	c #6C8C4F",
"G 	c #828275",
"H 	c #698C5C",
"I 	c #5D905A",
"J 	c #858184",
"K 	c #609547",
"L 	c #5F9E04",
"M 	c #9D7DA9",
"N 	c #858E68",
"O 	c #5EA12B",
"P 	c #60A21C",
"Q 	c #689F29",
"R 	c #67A03C",
"S 	c #719D3C",
"T 	c #5FA33C",
"U 	c #6B9F46",
"V 	c #6A9F4D",
"W 	c #62A247",
"X 	c #799C3E",
"Y 	c #61A250",
"Z 	c #6A9F53",
"` 	c #6A9E67",
" .	c #6D9E5C",
"..	c #64A15C",
"+.	c #789C4F",
"@.	c #7B9B5D",
"#.	c #919185",
"$.	c #799B6A",
"%.	c #948F9B",
"&.	c #959194",
"*.	c #6AAD29",
"=.	c #68AF1F",
"-.	c #6CAD39",
";.	c #66B037",
">.	c #6FAB57",
",.	c #6EAB5D",
"'.	c #75AC38",
").	c #76AD2B",
"!.	c #79AF24",
"~.	c #74AE4A",
"{.	c #6CB146",
"].	c #6BB14D",
"^.	c #6AB154",
"/.	c #74AE53",
"(.	c #6BB068",
"_.	c #75AD68",
":.	c #7BAC5E",
"<.	c #72AD74",
"[.	c #69B25D",
"}.	c #80AD4A",
"|.	c #A09C9F",
"1.	c #82AB5D",
"2.	c #87AB4C",
"3.	c #83AA6A",
"4.	c #8AA95D",
"5.	c #81AA77",
"6.	c #B396BA",
"7.	c #9EA190",
"8.	c #76B361",
"9.	c #A39FAB",
"0.	c #6EBC1D",
"a.	c #A1A299",
"b.	c #71BD2E",
"c.	c #73BC38",
"d.	c #71BC44",
"e.	c #79BA46",
"f.	c #81B938",
"g.	c #82B843",
"h.	c #A8A5A7",
"i.	c #9CAC84",
"j.	c #74C056",
"k.	c #77BF61",
"l.	c #76BF69",
"m.	c #7DBF53",
"n.	c #77BE76",
"o.	c #7DBF5A",
"p.	c #7FBD6E",
"q.	c #81BD68",
"r.	c #83BC74",
"s.	c #82BE61",
"t.	c #89BD58",
"u.	c #8ABB6C",
"v.	c #83BC7C",
"w.	c #8DBC62",
"x.	c #80BD89",
"y.	c #92B978",
"z.	c #91BC59",
"A.	c #93BA6A",
"B.	c #B0ACAA",
"C.	c #90B986",
"D.	c #9EB76C",
"E.	c #B0ACB1",
"F.	c #B6A9BF",
"G.	c #AFACB7",
"H.	c #7BCA1E",
"I.	c #7AC935",
"J.	c #7EC844",
"K.	c #7DC84C",
"L.	c #7CC853",
"M.	c #95BB9F",
"N.	c #C3ACAE",
"O.	c #ACB5A4",
"P.	c #89C752",
"Q.	c #94C553",
"R.	c #88CB3C",
"S.	c #84CA65",
"T.	c #BBB1C6",
"U.	c #8CCD28",
"V.	c #85CB5E",
"W.	c #B8B4B9",
"X.	c #B7B5B2",
"Y.	c #B7B4BF",
"Z.	c #8FCB49",
"`.	c #89CA6C",
" +	c #87CA74",
".+	c #84CA80",
"++	c #92C873",
"@+	c #91C879",
"#+	c #90CA67",
"$+	c #92CB60",
"%+	c #91C983",
"&+	c #A1C779",
"*+	c #98CB70",
"=+	c #9BCF43",
"-+	c #9EC986",
";+	c #9ED134",
">+	c #C2B9CD",
",+	c #A9C787",
"'+	c #97D15C",
")+	c #BFBCC7",
"!+	c #97CD94",
"~+	c #C0BDBB",
"{+	c #C0BDC1",
"]+	c #A1CE6B",
"^+	c #A8CC74",
"/+	c #9BD07D",
"(+	c #A7D05E",
"_+	c #ABCF6E",
":+	c #B6CA81",
"<+	c #BAC5B5",
"[+	c #9DD56E",
"}+	c #BECA83",
"|+	c #9CD48D",
"1+	c #D4BFBA",
"2+	c #ABCF97",
"3+	c #B5CD8F",
"4+	c #ABCF9E",
"5+	c #ABCFA6",
"6+	c #ABCEB2",
"7+	c #ACD283",
"8+	c #BDCC90",
"9+	c #BBCC99",
"0+	c #A9D390",
"a+	c #C9C5C3",
"b+	c #C7C5D0",
"c+	c #CFC2D8",
"d+	c #B3D191",
"e+	c #C9C6CA",
"f+	c #BBCEA7",
"g+	c #A6DA87",
"h+	c #A9DB7E",
"i+	c #A9DF68",
"j+	c #D7CCE1",
"k+	c #D1CFD4",
"l+	c #BBDABE",
"m+	c #B1E37C",
"n+	c #C8D7BD",
"o+	c #D7D1D0",
"p+	c #B9E08F",
"q+	c #ADE49C",
"r+	c #D1D5D0",
"s+	c #BAE19E",
"t+	c #BBE1A8",
"u+	c #BCE1AE",
"v+	c #BEE2B8",
"w+	c #DAD7DC",
"x+	c #E4D8BE",
"y+	c #E3D8C4",
"z+	c #CFE1BA",
"A+	c #E2DFE4",
"B+	c #D3E9D0",
"C+	c #E4E3E0",
"D+	c #E6E5D5",
"E+	c #EAE8EC",
"F+	c #F2F1F2",
"m.t.u.++3.u.A.y.u.u.:.@+y.&+|.&.5.q.3.y.r._.8._.@+A.u.o.V./.,./.",
"P.P.m.y.5.w.s.3.}.u.:.m.>.~+2 7 ~ C.8.q.y.p./.q.1.s.y.:.e.e.5.q.",
"s.I.:.-+C.q.w.&+}.u. .:.Z 1+2 7 ~ $.q.s.y.r.3.y.R ~./.u.4.}.:.:.",
"m.e.>.r.q.:.s.w.u.y.u.u._.z+i.t.i.N 3.y.4+:.u.q.,.:.s.].}.1.s.>.",
"e./.3.s.u.y.y.-+8.1.f+2+2+f+f.g.y.a+a+e+<+Q @.,.,.8.s.e.m.~.m.e.",
"u.-.:.V @+3.#+q.u.-+&+f+2+r+'.'.'.a+e+a+O.s 1.8.>.o.8.u.@.@.~.q.",
"y.,._./.q./.m.3.C.r+r+n+<+w+y.).*.{+a+{+O.s i.u.V 3.r.q._.5.:.:.",
"y.q.~.m./.q.s.M.~+B.A+A+w+w+a+*.P ~+{+X.i.g B.7.r.v.3.u.r.r.>.1.",
"u.r.p.s.~.m.~.X.X.a.e+w+k+w+k+1.P O.E.E.5.F X.#.5. .:.$.q.3.:.3.",
"1.:.s.s.s.t.~.e+a+7.E.k+k+w+k+X.L h.X.~+$.#.B.e $. .Z  .p. .>.@+",
"8.3.s.o.w.s.d.A+A+e+h.e+w+k+k+e++.a.X.W.@.B.|.h.O.$.5.5.:.Z r.r.",
":.u.:./.m.s.%+A+A+e+B.Y.w+)+k+e+O.7.B.X.#.B.h.X.X.3.@+s.V  .:.>.",
"~.`.g.A.s./.O.A+o+O.O.%.7 9.k+e+{+X.B.W.B.B.h.E.X.5.r.s.s.:.8.~.",
"V t.t.8./.~.O.A+k+C.5.( %.h.k+W.W.X.h.X.h.#.i.|.X.i././.3.:.>.~.",
"s.s.:.>.m.e.A.3.3.@.>.C.$.  |.{+W.h.h.E.h.C.1.F F F 1.U /.W :.u.",
"q.s.:./.s.{.<+a.G 3.1.8.#._ ( e f > > 5.,.,.F H G 5._.Z 8.u._.8.",
"r.8.,.o./.U 5+W.|.y.8.>.O.z |.|.|.&.f :.3./.h.|.#.3._.>.8.u.3.@+",
"4+Z y.3.>./.C.W.|. . .5.Y.{+B.W.X.h.&.5.~./.h.&.u.o.,.Z :.e.Z 3.",
"y.V ~.m.-.t./.<+E.5. .C.e+{+|.h.%.#.h.7.V O.h.7.8.{./.s.m.c.V  .",
"y.~./.s.~.m.V k+O.O.:.a.k+~+a.y.i.h.E.7.5.G.%.7.Z :.8.:.~./.m.3.",
"#+8.o.u.e.o.o.)+y.O.:.5+k+X.i.~.C.G.X.7.C.W.h.a.++w.~.e.m.:./.q.",
"u.s./.s.:././.{+M.s.2+k+e+|.3.o.C.W.&.#.C.)+Y.C.t.1.s.u.s.~.:.8.",
"u.s.~.m.8.m.d.O.2+s.4+e+7.G o.s.C.|.#.5.q._.q.u.q.o.s.y.o.q.q.q.",
":.q.:.u.>./.e./.A.w.-+A+X.&.q.j.5.)+|.X.s.q.u.o.m.j.`.s.8.q.s.s.",
":.y.r.u.s.V.:.s./.P.o.A+w+o+O.].u.k+A+e+y.~.u.s.e.o.u.++u.++t.u.",
"q.k.>.t.u.m.o./.++m.w.A+w+w+{+_.q.b+A+k+a./.r.u.V.u.y.++@+++++o.",
"8.q. .8.8.q.S.o.8.m.&+A+w+w+e+7.3.)+A+w+~+:.3.++o.o.r.8.`.o.m.t.",
"q.8.>.8.s.q.o.:.m.m.0+A+A+w+w+{+C.)+A+w+a+O.q.m.s.u.q.u.q.~.e.m.",
">.8.,.,./.s.3.u.u.o.#+w+A+w+w+W.5.Y.k+k+W.O.8.~.o.m./.8.8.8.1.-.",
"8.8.r.3.v.q.:.s.o.#+n+C+A+k+e+W.O.Y.)+w+e+M.8.].8.m.8.s.u.3.:. .",
"u.s.v.y.u.s.q.s.s.i.o+E+A+w+w+a+&.9.F.k+{+M.u./.>.:.s.u.u.q.:.u.",
"o.A.y.y.o.s.y.y.:.5.7.#.&.a.7.#.8.$.5.#.5._.y.3.o.:.u.#+q.q.r.s."};
