/* XPM */
static char * img_player_right_48_xpm[] = {
"48 48 255 2",
"  	c #150421",
". 	c #1C1B16",
"+ 	c #2F171F",
"@ 	c #16290F",
"# 	c #2D2035",
"$ 	c #381F4A",
"% 	c #681C11",
"& 	c #482641",
"* 	c #34312B",
"= 	c #303738",
"- 	c #34363E",
"; 	c #522C59",
"> 	c #363948",
", 	c #602C67",
"' 	c #593273",
") 	c #713618",
"! 	c #2C4941",
"~ 	c #364A2E",
"{ 	c #43464E",
"] 	c #613B68",
"^ 	c #62433A",
"/ 	c #694161",
"( 	c #6E3E83",
"_ 	c #4A4D5C",
": 	c #61465C",
"< 	c #554C4C",
"[ 	c #5F4D61",
"} 	c #595426",
"| 	c #455936",
"1 	c #49564B",
"2 	c #535651",
"3 	c #754E48",
"4 	c #495E2E",
"5 	c #425E4B",
"6 	c #55596C",
"7 	c #7D4A8B",
"8 	c #65594F",
"9 	c #4C605C",
"0 	c #5E5A64",
"a 	c #625C56",
"b 	c #466A35",
"c 	c #476D43",
"d 	c #BE4938",
"e 	c #865A44",
"f 	c #6F6157",
"g 	c #64646D",
"h 	c #576968",
"i 	c #76652D",
"j 	c #636577",
"k 	c #526E4E",
"l 	c #7F5C7E",
"m 	c #775F7A",
"n 	c #666667",
"o 	c #736267",
"p 	c #567543",
"q 	c #5C715E",
"r 	c #547738",
"s 	c #8C6094",
"t 	c #746D67",
"u 	c #4E7C44",
"v 	c #557A42",
"w 	c #936753",
"x 	c #8B6965",
"y 	c #517E4F",
"z 	c #6C7188",
"A 	c #6F717F",
"B 	c #597E37",
"C 	c #797165",
"D 	c #627C3E",
"E 	c #558140",
"F 	c #876B8E",
"G 	c #667A56",
"H 	c #4E7D8E",
"I 	c #737566",
"J 	c #A96746",
"K 	c #5B7F5D",
"L 	c #6F7873",
"M 	c #797672",
"N 	c #76767F",
"O 	c #877275",
"P 	c #987051",
"Q 	c #627E75",
"R 	c #6D7B81",
"S 	c #667C92",
"T 	c #887382",
"U 	c #837B58",
"V 	c #94739E",
"W 	c #74865C",
"X 	c #638D49",
"Y 	c #8A7E70",
"Z 	c #728483",
"` 	c #807F8B",
" .	c #608E52",
"..	c #8D7D85",
"+.	c #758869",
"@.	c #957E70",
"#.	c #89827B",
"$.	c #6A9243",
"%.	c #A37D6B",
"&.	c #768B75",
"*.	c #898488",
"=.	c #AA7E5F",
"-.	c #958391",
";.	c #809258",
">.	c #709761",
",.	c #918B84",
"'.	c #948B7C",
").	c #6A9B5D",
"!.	c #8D9069",
"~.	c #BD8274",
"{.	c #6F9F4E",
"].	c #978F82",
"^.	c #6DA057",
"/.	c #A98C7B",
"(.	c #A28E8B",
"_.	c #B38B73",
":.	c #799D74",
"<.	c #8D9882",
"[.	c #9D938D",
"}.	c #A39283",
"|.	c #859D76",
"1.	c #9A9496",
"2.	c #A3929A",
"3.	c #9497A0",
"4.	c #A9919B",
"5.	c #A8957F",
"6.	c #A1988B",
"7.	c #6EA6B7",
"8.	c #80AA5F",
"9.	c #73AE69",
"0.	c #9AA17E",
"a.	c #B29A8C",
"b.	c #92A67D",
"c.	c #7BB062",
"d.	c #CD9578",
"e.	c #9FA28C",
"f.	c #AF9D8D",
"g.	c #8CA88C",
"h.	c #88AC6F",
"i.	c #C5978A",
"j.	c #7FB158",
"k.	c #A7A093",
"l.	c #A5A19D",
"m.	c #BE9D7C",
"n.	c #AF9FB2",
"o.	c #A6A3A8",
"p.	c #C19E88",
"q.	c #98A9B5",
"r.	c #9FA9A4",
"s.	c #9AAC95",
"t.	c #CA9F7F",
"u.	c #83B868",
"v.	c #91AEB1",
"w.	c #B3A5A0",
"x.	c #B8A58E",
"y.	c #ADA8A1",
"z.	c #B4A898",
"A.	c #A2B185",
"B.	c #85C06C",
"C.	c #B3AFAC",
"D.	c #BAADAA",
"E.	c #B0B298",
"F.	c #D3A985",
"G.	c #99BB8B",
"H.	c #B7B0A2",
"I.	c #90C079",
"J.	c #C0AFA2",
"K.	c #A7B89B",
"L.	c #B8B2BA",
"M.	c #8BCA70",
"N.	c #CEB298",
"O.	c #BDB6A8",
"P.	c #BBB7B2",
"Q.	c #A2C682",
"R.	c #CBB7A1",
"S.	c #A7C689",
"T.	c #D6B898",
"U.	c #B5C39D",
"V.	c #ACC3CB",
"W.	c #99D177",
"X.	c #DDBAA1",
"Y.	c #C8C0B1",
"Z.	c #D0BEAD",
"`.	c #C7C0B9",
" +	c #EEB893",
".+	c #BAC5BA",
"++	c #B4CD98",
"@+	c #C2C7B3",
"#+	c #CCC2CF",
"$+	c #B9CBB1",
"%+	c #C7C8AC",
"&+	c #C5C6D2",
"*+	c #C8C8BF",
"=+	c #A7D788",
"-+	c #CAC7CB",
";+	c #A0DB7E",
">+	c #EBC398",
",+	c #D1C9BB",
"'+	c #A3DD78",
")+	c #D1C9C3",
"!+	c #D3CAB6",
"~+	c #AADB85",
"{+	c #EDCAA8",
"]+	c #C9D3D4",
"^+	c #D6D0CC",
"/+	c #E4CFB5",
"(+	c #ADE588",
"_+	c #DAD2C4",
":+	c #DCD2BE",
"<+	c #CCD8B9",
"[+	c #D5D3D8",
"}+	c #CBDAC2",
"|+	c #CADDAB",
"1+	c #D5D8BF",
"2+	c #D4D8CE",
"3+	c #C1E2AA",
"4+	c #F7D3AD",
"5+	c #D6DAD6",
"6+	c #D1DFB8",
"7+	c #E1D9C5",
"8+	c #DFD9D6",
"9+	c #E1DBCD",
"0+	c #B9EF92",
"a+	c #D6E7C0",
"b+	c #DFE3E1",
"c+	c #E6E1E2",
"d+	c #EBE1D4",
"e+	c #E1E5CE",
"f+	c #EDE2CF",
"g+	c #DFE8C9",
"h+	c #E4E5DC",
"i+	c #FDE2BC",
"j+	c #CEF4AD",
"k+	c #EEE6DF",
"l+	c #E8E9D9",
"m+	c #DBF1D1",
"n+	c #ECEBE9",
"o+	c #F4EADD",
"p+	c #F0ECD6",
"q+	c #EBECF0",
"r+	c #DFF4C4",
"s+	c #F6F2DC",
"t+	c #F4F1F6",
"u+	c #F8F1E9",
"v+	c #E9F7DA",
"w+	c #F8F3F1",
"x+	c #F6F5E5",
"y+	c #F1F5F8",
"z+	c #F2F6EB",
"A+	c #F3F6F3",
"B+	c #FEF5E7",
"C+	c #F9FCF2",
"D+	c #F7FCFE",
"E+	c #FBFCF9",
"F+	c #FFFFFF",
"E+E+E+E+E+E+E+E+E+E+E+E+E+E+E+E+E+E+E+E+E+E+E+E+E+E+E+E+E+E+E+E+E+E+E+E+E+E+E+E+E+E+E+E+E+E+E+E+",
"E+E+E+E+E+E+E+E+E+E+E+E+E+E+E+E+E+E+E+E+E+E+E+E+E+E+E+E+E+E+E+E+E+E+E+E+E+E+E+E+E+E+E+E+E+E+E+E+",
"E+E+E+E+E+E+E+E+E+E+E+E+E+E+E+E+D+q+q+q+b+y+y+D+E+E+E+E+E+E+E+E+E+E+E+E+E+E+E+E+E+E+E+E+E+E+E+E+",
"E+E+E+E+E+E+E+E+E+E+E+E+E+E+E+y+t+q+E+y+t+w+F+w+y+D+E+E+E+E+E+E+E+E+E+E+E+E+E+E+E+E+E+E+E+E+E+E+",
"E+E+E+E+E+E+E+E+E+E+E+E+E+F+t+E+E+c+F+E+y+w+D+F+F+y+5+m+z+E+E+E+E+E+E+E+E+E+E+E+E+E+E+E+E+E+E+E+",
"E+E+E+E+E+E+E+E+E+E+E+E+D+t+E+E+E+q+#+#+#+t+y+F+E+s.g.<+6+E+E+C+E+E+E+E+E+E+E+E+E+E+E+E+E+E+E+E+",
"E+E+E+E+E+E+E+E+E+E+E+F+y+E+E+F+[+' ' 7 7 V n+n+g.u G C.u+z+$+(+v+D+E+E+E+E+E+E+E+E+E+E+E+E+E+E+",
"E+E+E+E+E+E+E+E+E+E+E+t+E+E+E+w+/.p.T.T.@.l n.s.&.2 9 R 1.3.:.;+j+E+E+E+E+E+E+E+E+E+E+E+E+E+E+E+",
"E+E+E+E+E+E+E+E+E+E+E+D+E+E+D+[+@._.=.[.Z.@.F *.g j j z *.6 u ;+0+v+E+E+E+E+E+E+E+E+E+E+E+E+E+E+",
"E+E+E+E+E+E+E+E+E+E+D+F+E+x+m+2+D.l.a.l.h+{+-.*.0 j j z N L u I.(+3+D+E+E+E+E+E+E+E+E+E+E+E+E+E+",
"E+E+E+E+E+E+E+E+E+F+D+E+}+B.G.@+p.m./+X.{+i+N.*.{ [ j z ,.:. .,+e+=+E+E+E+E+E+E+E+E+E+E+E+E+E+E+",
"E+E+E+E+E+E+E+E+E+F+t+.+9.+.[+J.~._.i+t.d. +>+..g 6 6 *.y.u.U.O.l+6+A+E+E+E+E+E+E+E+E+E+E+E+E+E+",
"E+E+E+E+E+E+E+E+F+q+&+:. .A &+'.w w m./+p.m.>+1.` ` N P.:.M.|+z.e.e+v+D+E+E+E+E+E+E+E+E+E+E+E+E+",
"E+E+E+E+E+E+E+E+w+-+L. .r g 3.Q %./.Z./+i+4+ +m m ` P.<.u.(+=+H.p 7+l+F+E+E+E+E+E+E+E+E+E+E+E+E+",
"E+E+E+E+E+E+E+D+[+[.w.!.B +.5 _ x _.t.4+i+4+t.` `.`.<.9.;+;+'+!+J P.e+E+E+E+E+E+E+E+E+E+E+E+E+E+",
"E+E+E+E+E+E+E+5+u+}.c+q+F+y+2 - f %.t.>+4+F.O l.,...+.u.;+'+6+d+d @.d+E+E+E+E+E+E+E+E+E+E+E+E+E+",
"E+E+E+E+E+E+y+L.2+z.5+t+F+b+_ = 5 3 e P P ^ j #.; s [ h.6+x+x+l+i.].f+E+E+E+E+E+E+E+E+E+E+E+E+E+",
"E+E+E+E+E+E+q+1.w.P.t+A+D+r.{ ~ -   + + # n n >.$ , o h+h+9+s+p+O.H.,+w+E+E+E+E+E+E+E+E+E+E+E+E+",
"E+E+E+E+F+E+E+E+8+h+F+F+q+h - c ! $ $ k q L 9.B. .,.a . . . ,.l+,+i.z.u+E+E+E+E+E+E+E+E+E+E+E+E+",
"E+E+E+E+E+E+E+E+E+F+E+E+*+Q { c y y  .&.n ).u.{.e.2 n ,.t #.* Y 9+d ].h+E+E+E+E+E+E+E+E+E+E+E+E+",
"E+E+E+E+E+E+F+E+E+E+D+E+.+s.N 5 K q h 2 u ^.^.A.< j 1.l.#.*+y.* Z.~./.k+E+E+E+E+E+E+E+E+E+E+E+E+",
"E+E+E+E+E+E+E+E+E+E+F+D+[+Q 3.R g 1 c X  .^.8.].g 3.*.l.2+k+*+#...H.l.,+F+E+E+E+E+E+E+E+E+E+E+E+",
"E+E+E+E+E+E+E+E+E+E+E+E+q+9 S c c b u E u ^.0.1.]+b+]+C.y.O.O.[.m Z.a.6.E+E+E+E+E+E+E+E+E+E+E+E+",
"E+E+E+E+E+E+E+t+c+E+E+E+E+,.R } } i B D B {.,.]+q.7.V.y+Y.[.[.t T _+d ].E+E+E+E+E+E+E+E+E+E+E+E+",
"E+E+E+E+E+F+P.2+n.x+w+E+D+c+Q 4 4 b D r X D D.[+H V.Z b+l+].].H.m _+U l.E+E+E+E+E+E+E+E+E+E+E+E+",
"E+E+E+E+E+F+[+^+#+0+j+x+D+D+.+4 % ) r B D I ^+c+b+v.]+p+o+Y.,+4.L.8+c+w+E+E+E+E+E+E+E+E+E+E+E+E+",
"E+E+E+E+F+F+[+4.e+0+0+r+E+n+b+^+)+A.B.M.I.l.2+E+z+5+x+s+:+O.4.l y+D+D+E+E+E+E+E+E+E+E+E+E+E+E+E+",
"E+E+E+E+F+D+)+-.3+'+0+v+u+2+k+h+u+n+=+;+;+s.)+h+F+C+C+7+4.: / c+E+F+E+y+c+E+E+E+E+E+E+E+E+E+E+E+",
"E+E+E+E+F+t+D.w.W.M.~+d+d+)+_+2+9+k+<+;+W.K.Y.H.k.d+d+O ; t Q.E+E+E+5+y >.o.D+E+E+E+E+E+E+E+E+E+",
"E+E+E+E+E+E+[+8+%+A.:+w+)+J.O.Z.,+,+,+B.B.!.[.[.C }.f.< f 8.e+z+F+A+<.h.~+e+2.F+E+E+E+E+E+E+E+E+",
"E+E+E+F+D+F+E+E+F+E+F+D+E+c+P.f.z.z.H.b.c.G C t f 8 . | c.g+u+o+D+]+`.8+e+=+:+L.E+E+E+E+E+E+E+E+",
"E+E+E+E+E+F+F+E+E+D+F+F+E+F+F+A+^+J.f.!.$.p ~ @ @ v X 8.E.9+o+f+c+C.h+x+x+f+S.C.t+E+E+E+E+E+E+E+",
"E+E+E+E+F+E+E+E+E+F+E+E+E+E+F+D+D+F+[+<.D H.e.W ;.!.R.'.x.R.!+7+`._+o+B+x+2+j.1+L.E+E+E+E+E+E+E+",
"E+E+E+E+F+E+E+E+E+F+E+E+E+E+E+E+E+F+-+,+l+s+O.9+w+E+E+)+}.f.Z.:+_+8+x+B+p+!+j.7+w.F+E+E+E+E+E+E+",
"E+E+E+F+E+E+E+E+F+E+E+E+E+E+E+E+F+n+^+k+u+B+p+A+D+D+F+A+}.a.J.:+:+`.x+B+p+,+A._+b.F+E+E+E+E+E+E+",
"E+E+E+F+E+E+E+E+F+E+E+E+E+E+E+E+E+L.9+9+9+p+k+F+E+E+F+F+`.}.x.Z.:+H.B+f+_+A.!.;.U.E+E+E+E+E+E+E+",
"E+E+F+E+E+E+E+F+E+E+E+E+E+E+E+F+b+P.h+C+P.9+E+E+E+F+F+F+A+a.x.R.:+H.d+:+E.h+2+5+D+E+E+E+E+E+E+E+",
"E+E+F+E+E+E+E+F+E+E+E+E+E+E+E+E+[+`.u+B+o+,.n+E+E+F+F+E+w+8+@.}.z.O.7+w+F+E+D+E+E+E+E+E+E+E+E+E+",
"E+F+E+E+E+E+F+E+E+E+E+E+E+E+E+F+-+`.u+x+s+O.b+E+F+F+E+D+D+c+n Y [.8+F+E+E+E+F+E+E+E+E+E+E+E+E+E+",
"E+F+E+E+E+E+F+E+E+E+E+E+E+E+E+E+o.^+x+B+x+8+F+E+F+F+E+E+E+y+6.y.)+E+E+E+E+E+E+E+E+E+E+E+E+E+E+E+",
"F+E+E+E+E+F+E+E+E+E+E+E+E+E+F+b+P.d+C+B+s+l+F+F+F+E+E+E+E+D+w+A+F+E+E+E+E+E+E+E+E+E+E+E+E+E+E+E+",
"F+E+E+E+E+F+E+E+E+E+E+E+E+E+F+o.`.k+B+B+l+k+E+F+F+E+E+E+E+F+D+F+E+E+E+E+E+E+E+E+E+E+E+E+E+E+E+E+",
"E+E+E+E+F+E+E+E+E+E+E+E+E+F+]+<.@+u+B+B+s+d+F+F+E+E+E+E+E+F+E+E+E+E+E+E+E+E+E+E+E+E+E+E+E+E+E+E+",
"E+E+E+E+F+E+E+E+E+E+E+E+E+b+E ^.M.r+C+B+o+l+F+F+E+E+E+E+E+E+E+E+E+E+E+E+E+E+E+E+E+E+E+E+E+E+E+E+",
"E+E+E+F+E+E+E+E+E+E+c+.+$+|.~ | 8.~+a+s+o+f+F+E+E+E+E+E+E+E+E+E+E+E+E+E+E+E+E+E+E+E+E+E+E+E+E+E+",
"E+E+E+F+E+E+E+E+D+*+; ] L B.b.a - h.~+++1+o+F+E+E+E+E+E+E+E+E+E+E+E+E+E+E+E+E+E+E+E+E+E+E+E+E+E+",
"E+E+F+E+E+E+E+E+F+1.& & / F @+7+Y.C c.'+W.d+E+E+E+E+E+E+E+E+E+E+E+E+E+E+E+E+E+E+E+E+E+E+E+E+E+E+",
"E+E+F+E+E+E+E+E+F+[+: & & & ] )+e+,+c.;+W.U.E+E+E+E+E+E+E+E+E+E+E+E+E+E+E+E+E+E+E+E+E+E+E+E+E+E+"};
