/* XPM */
static char * 64_buzz_down_grass_xpm[] = {
"64 64 255 2",
"  	c #080F11",
". 	c #0C110C",
"+ 	c #24112E",
"@ 	c #171D1F",
"# 	c #1A1E18",
"$ 	c #43253F",
"% 	c #2A2F29",
"& 	c #432083",
"* 	c #273033",
"= 	c #43295E",
"- 	c #373418",
"; 	c #452876",
"> 	c #244515",
", 	c #A4281F",
"' 	c #5F3991",
") 	c #494E45",
"! 	c #4E520D",
"~ 	c #714081",
"{ 	c #2E5F13",
"] 	c #495157",
"^ 	c #69468E",
"/ 	c #834827",
"( 	c #674A83",
"_ 	c #644E67",
": 	c #7C4493",
"< 	c #33652A",
"[ 	c #71504E",
"} 	c #446228",
"| 	c #426236",
"1 	c #397221",
"2 	c #3B7511",
"3 	c #477025",
"4 	c #5E6B28",
"5 	c #1C769E",
"6 	c #7D6246",
"7 	c #6E6C16",
"8 	c #636C47",
"9 	c #7E5E95",
"0 	c #8F589E",
"a 	c #477738",
"b 	c #736479",
"c 	c #41766A",
"d 	c #866086",
"e 	c #696C69",
"f 	c #558020",
"g 	c #4F804C",
"h 	c #488620",
"i 	c #5D7D40",
"j 	c #5B7D4F",
"k 	c #4F842D",
"l 	c #518523",
"m 	c #4C8537",
"n 	c #548337",
"o 	c #5C8137",
"p 	c #747B38",
"q 	c #4B8744",
"r 	c #6E8114",
"s 	c #568545",
"t 	c #508C15",
"u 	c #A36FAA",
"v 	c #2196BA",
"w 	c #5C9042",
"x 	c #629332",
"y 	c #808383",
"z 	c #589731",
"A 	c #60943C",
"B 	c #6B9045",
"C 	c #58973C",
"D 	c #7E8C33",
"E 	c #639251",
"F 	c #5A9551",
"G 	c #579745",
"H 	c #6E8F52",
"I 	c #6B8F5F",
"J 	c #60935D",
"K 	c #9B7BA6",
"L 	c #5D9575",
"M 	c #639849",
"N 	c #5A9E27",
"O 	c #4E97AB",
"P 	c #639C26",
"Q 	c #699A29",
"R 	c #878B7E",
"S 	c #B47F67",
"T 	c #639F1A",
"U 	c #92869C",
"V 	c #839166",
"W 	c #A18B4F",
"X 	c #958A95",
"Y 	c #A28A66",
"Z 	c #6AA051",
"` 	c #6AA440",
" .	c #62A740",
"..	c #6EA349",
"+.	c #65A64A",
"@.	c #70A15F",
"#.	c #75A241",
"$.	c #929295",
"%.	c #7F9F41",
"&.	c #67A45F",
"*.	c #64A653",
"=.	c #6CA26B",
"-.	c #A1981F",
";.	c #7AA053",
">.	c #7A9E6E",
",.	c #7E9F61",
"'.	c #68AD1D",
").	c #68AD29",
"!.	c #71A758",
"~.	c #6AAC37",
"{.	c #64AE36",
"].	c #66B112",
"^.	c #74AB29",
"/.	c #74AA37",
"(.	c #6CB24A",
"_.	c #6EB15D",
":.	c #78AF5F",
"<.	c #79B34F",
"[.	c #6EB658",
"}.	c #6FB46C",
"|.	c #A0A19E",
"1.	c #76B458",
"2.	c #A89EAC",
"3.	c #76B279",
"4.	c #7FB258",
"5.	c #7AB26D",
"6.	c #6FBA42",
"7.	c #86B24F",
"8.	c #87B063",
"9.	c #87AF6F",
"0.	c #84AF7C",
"a.	c #69B1C8",
"b.	c #A3A2AA",
"c.	c #8DAF63",
"d.	c #79B843",
"e.	c #70BE21",
"f.	c #9DAB63",
"g.	c #8FB153",
"h.	c #73BA51",
"i.	c #73BD2F",
"j.	c #75B965",
"k.	c #80BA38",
"l.	c #80B766",
"m.	c #73BF3A",
"n.	c #8BBB47",
"o.	c #B8B028",
"p.	c #77C24A",
"q.	c #82C04B",
"r.	c #6CC564",
"s.	c #83BA9A",
"t.	c #9FB29B",
"u.	c #9FB489",
"v.	c #C3A987",
"w.	c #A1B579",
"x.	c #78C557",
"y.	c #AEAEA3",
"z.	c #7AC92C",
"A.	c #73CA3A",
"B.	c #7BC465",
"C.	c #7DC45F",
"D.	c #7AC46D",
"E.	c #81C458",
"F.	c #7CC37A",
"G.	c #BCAE8A",
"H.	c #C1B710",
"I.	c #82C36F",
"J.	c #85C366",
"K.	c #89C35E",
"L.	c #80CC18",
"M.	c #89C17B",
"N.	c #84C288",
"O.	c #8CC26D",
"P.	c #83C93D",
"Q.	c #8BC274",
"R.	c #8FC267",
"S.	c #95C25C",
"T.	c #87CA31",
"U.	c #96C071",
"V.	c #B9AFBC",
"W.	c #9CC060",
"X.	c #80CA51",
"Y.	c #94BF8B",
"Z.	c #81CB46",
"`.	c #9DBF6F",
" +	c #A6BC72",
".+	c #B2B2BD",
"++	c #B4B2B7",
"@+	c #97C07D",
"#+	c #B3B3B0",
"$+	c #BFB84D",
"%+	c #8ECB49",
"&+	c #8DCB55",
"*+	c #98C855",
"=+	c #8BCE78",
"-+	c #99D122",
";+	c #8ECE70",
">+	c #8ECF66",
",+	c #9CCF3C",
"'+	c #90D33A",
")+	c #97CD7E",
"!+	c #9ACE72",
"~+	c #95CE87",
"{+	c #9ACE79",
"]+	c #96D449",
"^+	c #9ECF6A",
"/+	c #A5CC7D",
"(+	c #BFBECA",
"_+	c #A2CD89",
":+	c #C1BFC1",
"<+	c #9ACF97",
"[+	c #EAB7A5",
"}+	c #AACF76",
"|+	c #9BD75E",
"1+	c #ADD06F",
"2+	c #ACC8D3",
"3+	c #B2CD82",
"4+	c #BACB83",
"5+	c #C2C7B3",
"6+	c #B1D08F",
"7+	c #AED199",
"8+	c #AAD763",
"9+	c #ADD1A0",
"0+	c #B8CF91",
"a+	c #AED1A8",
"b+	c #D6C5A9",
"c+	c #AED586",
"d+	c #C9C7CA",
"e+	c #C2CE93",
"f+	c #C0CF9B",
"g+	c #C9C8D3",
"h+	c #ADD794",
"i+	c #BFD1AA",
"j+	c #ACDD81",
"k+	c #AADD8A",
"l+	c #B5D6BA",
"m+	c #CED2C8",
"n+	c #D1D0DB",
"o+	c #D3D1D4",
"p+	c #B4E47E",
"q+	c #BBE190",
"r+	c #D3D7C3",
"s+	c #B0E79F",
"t+	c #BDE3A1",
"u+	c #BDE4AA",
"v+	c #D6DAD0",
"w+	c #E5D7BD",
"x+	c #DAD8DB",
"y+	c #BFE4B7",
"z+	c #D7E3BF",
"A+	c #E2E0E5",
"B+	c #D3E8CE",
"C+	c #E2E2DF",
"D+	c #E7E7DA",
"E+	c #EAE9EB",
"F+	c #F2F2F1",
"l.1.]+O.I.M.@+!+4.:.:.Q.@+K.@+@+8.Q./+Q.:.1.1.U.5.c.q.!+)+Z Z O.E l.J.:.5.I 5.J.=.@+@+!.l.l.:.@.M.~+)+/+w.K.E.p.E.Z.C.@.9.C.l.q.",
"m.K.P.l.)+8.Q.9.9.O.:.R.!+8.8._+O.C.R.4.9.l.Q.7+_+/+8.l.@+@.@.(.l.5.:.Q.O.l.Q.M.5.5.Y.M l.:.Q.l.M.q.S.c.9.O.1.6.K.p.1.4.@.Z 1.h.",
"Z.&+%+I.<.E.9.5.>.9.U.%+K.l.M U.4.R.l.8.:.8.&+K.:.!.h.I.!.9.t.++V.:+5+<+I.(.@.l.9.l.M.:.` 1.!.O.9.q.E.0.:.9.5.(./.P.O.q.u.N.5.E.",
"i.O.'+E.~.O.@+Y.Y.,.K.K.q.J.H _+4.d.K.5.Z ..(.j.&.w ` l.1.t.b+w+b+G.Y $.@.:.O.E._+l.j.:.<.M U.8.R./...E.Q._+1.l.<.&+d.^.4.9.Q.Q.",
"4.J.L.k.;.4.@+0.0.:.1.J.O.c.6+@+<.o 4.8.:.Z ..E *.&.:.(.!.X y.|.b+:+v+2.0.j._.J._+9.j.5.@.!.@+9.4.A :.(.p.I.{+M.H 8./.4.K.,.:.U.",
"E.l.e.d.:.1.~+Y.u.Q.J.:.K.R.6+#.S.8.U.:.:.Z 9.Q.:.E @.4.@+y.d+#+w+:+r+5+0.l.l.R.J.8.5.9.0.l.0.@.!.` 4.8.<.(.(.R.@+U.c.#.!.1.I 8.",
"p.E.<.P.!.I.Q.0.:.O.9.l.E.R.w.7.U.!.9.Y.@+5.4.l.5.5.@.(.1.5+w+w+w+w+w+w+0.:.l.p.C.!.:.1.@+!.Q.5.M M d.4.R./.+.!.7.R.:.c.:.<.!.@.",
"I.` E.p.M j.~+9.:.E.Z Q.l.4.8.O.O.:._+!.K.O.9.Q.l.5.I.`.@+b+G.b+b+w+w+w+t.U.9.E.@+4.:.=.I.M.l.*.l.I.!.:.K.Z ..[.` d.K.;.R.Q.l.!.",
"d.x.C./.;.O.Q.O.5.K.Z l.O.:.,._+:.Q.J.R.O._+Q.1.Q.w.`.W.m+b+G.b+w+w+b+b+u.Q 8.@+l.U.@.1.I.1.C 9.:.!.:.R.!+l.q.h.d.d.S.<.q.~.d.<.",
"4.d.E.!.R.5.!.<.9.R.)+_+~+Y.<+)+l.....,.U.9.i+7+W.W.3+v+C+b+b+w+w+w+w+w+2.I k ` c.i+d.Z 8.Y.+.Z :.l.Z d./.^+E.1.1.4.....K.l...q.",
"C.U.q.A ~.8.E 1.1.<+@+l.h.R.O.E.l.1.+.n Z 9+x+m+5+m+x+E+E+b+b+w+b+w+w+w+y y |.++5+C+C+9+9.E.I.@.E >.<.z.E.J.{+1.B ,.B H /.p.+.l.",
"8.O.A d.!.@.!.(.x.<+Z :.E.Q.Q.;.O.E.:.9.R.5+x+x+++++g+F+E+|.b+b+b+b+b+#+_ _ y 2.(+x+A+r+^+O.m.:.l.d...Q.D.Z O.Q.!.,.>.>.,.q.l._+",
"7+l.1.+.0.E I m.~+J.:.<.d.l.9.Q.(.E.!.5./+5+x+A+#+b.g+E+E+d Y Y Y Y v.d _ _ y b.d+E+C+a+S.{+O.1.!.w Z 9.1.:...(.0.E 0.8.l...E Q.",
"~+(.I.5.I.+.p.O.M (.Z !.<.4.!.:.M 4.>.5+@+`.d+v+o+t.m+++_ ~ ~ _ _ _ ~ ~ $ b u.t.x+x+5+`.W.l+Y.:.:.J >.~+<+~+I.I.j.:.@+>.4.:.l.!.",
"Y.@.Q.l.` 6.E.1...(.1.l.1.l.l.*.F 1.l+x+5+/./+m+x+C+r+9+|.9 : : : : : 9 U u.i+x+C+m+`.*+0+C+5+9.l.M.<+:.O.Y.1.l.@.5.l.0.@.Q.9.;.",
"Y.:.<.j.+.d.l.(.l.(.K.B.l.<.M 1.t.:+++o+o+#./.7.7+m+v+x+r+++2.|.|.|.|.2.r+C+E+v+f+W.S.^+5+A+:+#+t.@+0.M.A :.@+)+M.Q.:.Y.n Z l.,.",
"{+E.>.!.5.1.1.@+<.h.J.E.K.` A Y.b.|.|.x+o+u./.^.^./.7.0+i+v+A+A+A+A+A+C+f+`.S./+0+S.3+`.5+E+y.y.y.u.:.:.E l.E @+0./.#.@+9.Z 9.8.",
"U.Q.Y.M.M.:.<.8.(.d.1.d.d.(.+.t.|.#+$.d+o+5+T T T ^.7.i+z+i+.+b.$.$.$.#+k.-.g.f+3+S.6+_+:+x+y.#+d+y.*.i @.l.0.H @+l.E @+:.>.:.0.",
"8.l.<.R.O.d.1.l.<.c.4.S.q.<.:.$.$.|.y #+d+d+;.T +.3.Q /.R./+d+b..+b.b.t.k.k.k.d.n.n.S.#+:+:+|.y.5+y.Z @.s @.,.Z 9.M.@.@.B.@.;+:.",
"4...Z @+Q.(.4.<.R.:.<.<.<.6.K.y.R y y $.:+(+t.P M v l l D g.a.b.++.+O u.k.D D k.k.n.6+y.:+b.$.$.y.y.w 0.Z @.,.@.l.5.&.@.l.!.7+I.",
"I.@.F 9.Q.:.<.K.O.K.l.<.6.m._+y.y.R b e ++++:+..Q L l 3 / %.7+t..+#+Y.g.^., , 7.n.n.m+|.#+y y $.m+C+@.=.J >.>.>.:.Z i I.Z Q.M.M.",
":.Q.5.0.l.E.q.4.U.^+K.1.` h.d+G.m+e e e $.b..+y.P P P t r Q ^.^.k.k.^.^.Q , / /.k.7+o+|.|.y :+(+d+C+t.5.@.0.Y.>.O.!.` 1.@+Y.M.I.",
"G M.:.~+:.J.h.Z J.T.E.J.j.@+o+b+S u.y X |.b..+:+|.B P P P T ^.^./.^.^.^.^.^.^.U.5+o+o+b.$.#+g+y y o+d+9.t.U.J.!.4.+.Z 9.l.:.C.Z ",
"+.O.l.M.:.E.h.<.l.Z.O.l.j.5+n+:+X X b.$.!.#+:+.+(+b.; ] o P T Q H B ^.^.#.I b K o+o+o+y.0..+d+y O .+C+l.8.Q.J.!.:.Z ;.!.Z <...<.",
"w <.O.O.h.q.R.9.O.E.1.5.M.n+n+o+(+2.b.u.Z 0.d+.+U & & ( .+#+|.++(+:+#+#+:+U ' ' K o+x+U.Z :+d+.+d+C+E+t.O.9.I.O.E.<.9.8.:.M.1.d.",
"{.!.E.Q.k.P.Q.U.O.<.6.w u.d+x+x+d+++#+5.Z @.d+9 ; ; 9 .+(+:+.+(+(+:+:+d+d+d+|.^ ' 9 (+;.M 9.d+g+g+C+E+5+Q.M.<.9.I.l.1.Z j.E #.d.",
").A p.K.q.d.O.l.l...` Z y.x+o+d+b.t.1.!.@.Z X ( ; U ++.+.+++++++++++++++:+:+:+b.^ ^ U M Z M.Y.d+d+o+C+5+4.q.q.9.Q.@.Z !.O.!.<.d.",
"Q.w R.q.R.K.1.!.!.(.m.8.9.7.R.7.t.0.K.1.!.Z $.U |.#+y ] ] ] ) ) ) ) ) ) ) ] R 5+++U Y...;.M t.o+o+r+y+i+@+!.` ` :.,.!.!.4.Z ` ..",
"!+1.E.K.E.l.<.1.J.(.q.9.P P d./.c.9+d.A 1.I.@.#+u.Q.e #               # # # R I.Y.#+4.U.7.;.@+t.U.n.*+n. +Z A ` !.C ~.s @.@.@...",
"!+h.@.4.d.:.w :.E.p.(.Q.H ,.#.d.S.U.@+K.:.M O.Z h.E.>.#   @ @ @ @   # % * # >.5.5.0.5.0.M.:.#.g.3+n.S.n.@+K.~.Z A d.M ` s Q.Q.E.",
"0.(.1.l.8.!.<.4.K.h.(.6.#+(+o+m+u.c.9.!.9.Z l.h.!.U.i % # # @ % @ @ # % % % o @+:.@.5.!.@+9.#.0+/+d.6+5+5.!.@...!.l.9.!.w Q.1.l.",
"l.Q.K.!.l.!.` l.4.:...~.Q..+d+V.x+o+t.J.8.8.l.!.<.@+8.P f } % % % # > | o /.`.u.M 5.Z _.9.9.#._+5+x+A+5+5.M !.!.<.` 4.0.:.5.0.M ",
"E.O.O.h.Z !.!.J.1.!...+.p.t.(+|.:+A+o+9.!.9.:.+.d.Q.#+0.` Q /.^.^./././.g.7+#+:.I 9.Z <.4.9+o+E+A+C+x+0.j.}.!.;.<.9.l.9.I Y.~+@+",
"Y.M.&.!.!.@.J.p.` l.A <.E.E.#+d+o+C+A+@+h.:.*.` q.7+x+(+++|.>.A H ` 9.y.#+:+o+9+J.l...!.4.y.n+A+A+x+5+u.H 5.:.(.!.E.!.l.5.` 1.~+",
"l+Y.@.0.Y.Y.;.!.Z +...4.E.` 0..+g+o+x+7+!.Z !._.I.x+x+x+(+2..+++++++:+2.++x+E+C+E.4.<...U.t.o+x+x+d+@+I 8.Z !.M :.#.1.1.M x M :.",
"9.a+E s K.@+O.9.:.Z l.<.M !.M t..+:+n+t.H H @.C.6+n+n+o+(+U b..+++++b.2.o+x+A+A+>.d.!.;.Q.t.(+V.d+a+E.q.F @.Z ;.:.<.m.<.@.E 9.!.",
"(.h+M n <.l.q.l.d. .<.K.4.:.:.:.t.g+x+A+x+d+m+8.9+n+n+o+(+U y ++b.#+y :+g+o+x+x+u...@.,.@+5+A+C+t.J.<.q.(.:.J.4.1.z.d.q.M _.E ,.",
"_+8.K.4.x d.<.q.6.M 4.4...` R.l.Y.(+g+A+A+:+m+5+a+n+g+g+o+2.$.2.2.#+$.d+d+o+x+x+R E J.a+o+A+E+A+t.:.` <...Z :.E.l.i.d.(.d.E @.H ",
"_+9.<.d.Z (.E.h.<.~.q.4.....5.[.Y.(+g+A+x+E >.0.t.n+n+o+o+d+u.M.Y.O._+g+d+g+o+o+u.@.M.n+g+A+E+x+5+@.5.O.<.!.@.p.E...Z.M q.:.5.:.",
"K.l.@.<.<.C.K.J.<.(.m.4.Z .._.1.Y..+(+g+A+:.!.5.t.n+n+o+o+o+@+J.1.q.@+g+d+g+o+(+Y.:.a+(+++A+E+x+a+!.!.!.J.l.:.J.` <.q.O.l.E.4._+",
">+4.Q.Q.<.O.O.)+6.m.:.4.d.q.<.<.q..+(+.+n+5.:.l.t.n+g+o+o+o+O.:.K.E.0.g+d+g+d+++@+:.d+y.t.o+o+o+9+<.l.M E.d.<.d.p.C./.;.q.(.:.@+",
"K.)+<.!.l.<.O.C.(.<.4.4.K.K.J...z.#+.+(+g+a+Q.j.<+n+g+o+o+o+d.<.:.E.M.g+d+g+(+2.0._+d+0.a+x+g+:+a+_+R.U.1.M q.l.d.E.!.l.:.!.l.:.",
"4.>+R.1.4.E.O.4.!.E.(.:.&.(.<.i.i.0.:+.+.+(+m+Q.9+n+n+x+x+o+d.Q.:.5.J.g+g+x+g+2.0._+0.4.m+o+o+m+Q.S.8.8.E.*.4.C.U.q. .~.:.I 1.Z ",
"!._+q.l.l.Z d.!.7.5.:.;.4.<.q.d.(.p.Y.t.u.@+Q.Q.9+g+n+o+x+m+d.O.@+M.7+o+n+g+o+++u.M.5.0.x+g+d+#+E.K.9.l.l.J.M.9.O.A (.!.@.:.1.J.",
"1.O.l.4.<.M q.q.5.<.h.h.i.m.<.E.p.E.J.l.l.O.<.l.@+d+g+g+x+5+p.5.j.l.5.:+d+d+d+2.@+j.:.t.(+d+:+@+l.<.1.C.R.l.I.<+O.1.(.5.!.:.Q.l.",
"8.@+l.E...K.1._.9.(.p.1.d.<.<.h.<.K.K.E.J.J.+.q.u.:+d+g+o+o+C.I.l.U.5.m+d+d+:+b.Y.5.I.0.:+++t.J.I.J.h.X.!+h.l.Q.<.J.l.B.C.@+{+:.",
"K.4.O.:.l.c.@+<.!.(.1.<.d.d.h...`.R.O.J.J.d.h.q.t.(+d+d+o+o+(.(.@.[.l.o+d+(+.+$.t._+9.9.0._+l.p.(.j.j.X.~+Z.J.O.:.Q.J.1.x.R.R.J.",
"4.Z 4.l.:.4.l.Q.@.Z ..1.p.q.q.<.c.R.%+l.<.` <.l.5+d+(+d+d+o+1.h.` (...n+g+(+.+|.#+d.K.:.O.l.E.X.X.p.1.1.O.;+E.O.4.J.O.j.l.K.l.K.",
"4.4.Y.:._+l.O.@+l.h.K.K.!.!._.<.!.K.T.K.4.<.l.4.:+d+d+g+o+o+1.h.~.(. .n+g+d+(+d+d+(.h.h.l.Q.1.K.P.m.1.4.U.U.J.U.E.Q.4.Q.K.C.I.J.",
"(.4.@+I.Q.:.<.U.O.J.K.p.1.1.U.E.!.K.*+<.4.q.E.:.o+g+g+o+o+o+(.(.<.J.1.n+g+g+o+o+x+<.d. .4.{+:.J.X.E.d.l.:.Q.~+;+U.U._+J.E.K.8.~+",
"(.:.I.I.I.:.4.U.@+O.q.C.E.E.#.l.@+R.K.k.4.d.R.l.o+g+o+o+x+o+0.!.h.J.5.n+g+o+o+x+x+9.(.1.j.@+R.J.x.;+J.Q.l.Y.R.{+M.)+_+9.{+O.K.O.",
":.l.I.>+!.Z 7.4.l.!.4.O.I.K...J.U.U.<.d.q.>+&+)+g+g+o+o+x+o+@+_.` 1.0.n+n+o+o+x+A+0.4.4.5.Y.@+K.E.&+;+Q.M.)+Q.O.)+)+Q.R.{+X.q.4.",
":.1.x.j.M B ..!.1.5.Q.:.J.E.4.J.l.l.q.*+R.U.^+9+g+o+o+x+x+x+Y.*.M 1.M.n+n+o+o+x+A+a+J.<.l.@.O.@+1.S.x.l.M.M.Z Q.=+I.h.K.E.q.p.R.",
"J.I.M.Q.M.Z :.O.K.!.I.l.{+C.4.1.!.q.(.&+K.q.q.9+n+n+x+C+C+x+t.!.h.+.9+n+n+x+x+A+A+5+8.1.l.>.O.R.K.E.4.[.5.l.j.5.C.;+4.p.Z.1.E.R.",
"O.@.1.I.Z j.l.!.h.@+J.4.O.4.l.E.(.j.E.q.E.&+_+x+n+x+x+A+A+A+o+l.(.+.x+n+n+x+x+A+A+A+u.9.R.:.l.q.1.4.l.Q.Q.I.l.M.l.K.h.~.d.K.h.P.",
"O._.!.M 1.` :.l.d.l.@+9.E.4.Z ..q.K.q.(.q.q._+o+o+o+o+o+o+x+o+h.<.Z x+n+g+g+g+o+x+C+<+@+O.I.1.q.4.Q.O.R.:.9.Q.J.l.@+j...(.m.q.h.",
"1._.:.!.` :.5.!.` <.O.E.O.c.:.9.R.l.E.4.P.E._+g+V.++2.2.V.V.:+6.4.:.n+V.++2.++V.d+d+t.Q.1.J.(.~.l.l.E.q.(.h.<.O.l.C.@.!.<.E.~.6.",
"!.*.l.C.!.l.8.Z 1.K.R.C.>.l.@+R.l.S.J.E.d.&+_+d+g+n+A+A+A+g+#+d. .(.:+g+n+x+A+A+A+:+@+Q.J.!.4.!.J.1.1.Z.l.!.,.:.C.:.4.(.;.l.)...",
"<. .@.X.:.5.O.l.0.5.J.O.,.9.q.K.J.K.R.R.J.E.q.i+d+i+7+f+r+x+@+..<.+.[.x+m+i+7+i+r+9+C.U.!.:.h.:.<.l.)+q.C.Z U.O.l.I.M._.M U...Z ",
"5.:.5.j.M.l.@.9.Y.M.1.E.@.8.O.K.h.1.E.K.x.K.&+_+d.n.n.n.S./+7+:.h.M @+i+n.n.n.%+*+^+Q.9.5.I. .(.(.O.x.~.h.5.l.d.K.O.5.5.:.l.M 0.",
"M.9.l.1.I.M.Q.@.Q.)+J.l.:.:.K.4.K.;+R.4.E.l.K.u./.R.`.n.`.`.|.q.(.Z t.,./.`.S.n./+w.u.5.l.l.1.~.l.!.Z 6.<.!+K.O.l.K.K.8.0.4.4.Y.",
"E.4.R.4.J.Y._+5.4.l.E.O.O.R.K.:.K.E.4.E.J.Q.R.$.0 0 0 0 K U 0.w Z 5.5.y 0 9 9 0 K K 0.j.:.c.4.d.l.n >.@+E.K.O.)+l.O.l.5.5.<.7.)+",
"E.E./+Q.@+@+R.@+9.x.E.l.w.U.U.M.!.<.1.Z K.R.R.U.:.E.%+K.l.<.h.Z :._.!.&.5.)+0.0.,.<.M._.@+Y.@.1.h.M !.4.4.R.X.)+l.5.4.5.0.4.k.M.",
"K.,.%+K.M.<+@+!.q.1.C.U.@+0.Y.9.:.4.O.M.O.l.l.K.l.!.R.;+l.<.:.l.5.l.>.&.&.0.Q.3.E @+M.j.<.4.,.Y.Q.E.l.:.9.!+O.q.X.l.O.9._+l.).~+"};
