/* XPM */
static char * 231_coin_xpm[] = {
"32 32 255 2",
"  	c #261506",
". 	c #2A1804",
"+ 	c #311E06",
"@ 	c #372307",
"# 	c #402B0A",
"$ 	c #51380E",
"% 	c #57390F",
"& 	c #58401D",
"* 	c #5E4015",
"= 	c #674717",
"- 	c #624922",
"; 	c #6D4C1B",
"> 	c #69502E",
", 	c #725227",
"' 	c #75531C",
") 	c #795726",
"! 	c #7B5821",
"~ 	c #7F5C24",
"{ 	c #7B5D30",
"] 	c #7F5D2B",
"^ 	c #795F3D",
"/ 	c #836028",
"( 	c #84612F",
"_ 	c #87652D",
": 	c #886533",
"< 	c #846734",
"[ 	c #836A41",
"} 	c #956A31",
"| 	c #916C2D",
"1 	c #8C6D39",
"2 	c #916C34",
"3 	c #886D4A",
"4 	c #8C6D40",
"5 	c #8D6F34",
"6 	c #957031",
"7 	c #8E7249",
"8 	c #967138",
"9 	c #9D7135",
"0 	c #977240",
"a 	c #92743F",
"b 	c #947647",
"c 	c #96773C",
"d 	c #92774D",
"e 	c #9B763D",
"f 	c #9D7738",
"g 	c #A57633",
"h 	c #997944",
"i 	c #947C5A",
"j 	c #A6793C",
"k 	c #A47D3E",
"l 	c #9E7F4A",
"m 	c #A47E45",
"n 	c #AC7F3B",
"o 	c #A28247",
"p 	c #AE8043",
"q 	c #A3834E",
"r 	c #A0845B",
"s 	c #A38455",
"t 	c #AB8444",
"u 	c #6D974E",
"v 	c #68994E",
"w 	c #629B4F",
"x 	c #A68751",
"y 	c #649F36",
"z 	c #699C57",
"A 	c #759860",
"B 	c #689E4B",
"C 	c #B08848",
"D 	c #B68743",
"E 	c #B0884F",
"F 	c #B58749",
"G 	c #719C59",
"H 	c #6E9F54",
"I 	c #6B9F61",
"J 	c #729E61",
"K 	c #67A25B",
"L 	c #6CA249",
"M 	c #69A255",
"N 	c #AF8D52",
"O 	c #69A543",
"P 	c #6CA350",
"Q 	c #B68D47",
"R 	c #B58D53",
"S 	c #AF8E5E",
"T 	c #6FA25D",
"U 	c #AF8F59",
"V 	c #B68E4E",
"W 	c #67A83E",
"X 	c #68A74B",
"Y 	c #AD9067",
"Z 	c #7BA26C",
"` 	c #B99157",
" .	c #71A855",
"..	c #69AA5C",
"+.	c #78A74E",
"@.	c #76A75B",
"#.	c #6EA962",
"$.	c #6AAD42",
"%.	c #70A95C",
"&.	c #B99264",
"*.	c #71A86A",
"=.	c #78A668",
"-.	c #BC9353",
";.	c #75AA49",
">.	c #6CAE3B",
",.	c #6FAC4A",
"'.	c #74AA50",
").	c #6CAC57",
"!.	c #6EAC50",
"~.	c #7DA75D",
"{.	c #76A964",
"].	c #79A870",
"^.	c #B69669",
"/.	c #B19865",
"(.	c #B89760",
"_.	c #75AD59",
":.	c #6DB14D",
"<.	c #BA985C",
"[.	c #7CAC5A",
"}.	c #75B047",
"|.	c #B29978",
"1.	c #6FB247",
"2.	c #72B054",
"3.	c #75AE61",
"4.	c #71B05B",
"5.	c #C29858",
"6.	c #7CAD61",
"7.	c #79AF55",
"8.	c #75B14F",
"9.	c #8BAA55",
"0.	c #72B532",
"a.	c #78B05C",
"b.	c #7CB04F",
"c.	c #75B069",
"d.	c #BE9B58",
"e.	c #AF9C86",
"f.	c #81AD68",
"g.	c #84AD60",
"h.	c #82AF50",
"i.	c #7CAF69",
"j.	c #B59D76",
"k.	c #80AE71",
"l.	c #C59B5B",
"m.	c #7CB171",
"n.	c #7AB54B",
"o.	c #6DB94C",
"p.	c #73B566",
"q.	c #7DB359",
"r.	c #7AB365",
"s.	c #76B745",
"t.	c #77B559",
"u.	c #79B553",
"v.	c #73B753",
"w.	c #C09E61",
"x.	c #80B266",
"y.	c #74B84C",
"z.	c #7CB460",
"A.	c #71B85A",
"B.	c #76B660",
"C.	c #8BAF6C",
"D.	c #79B56D",
"E.	c #7EB746",
"F.	c #81B554",
"G.	c #84B461",
"H.	c #7ABA40",
"I.	c #BEA16F",
"J.	c #7AB85C",
"K.	c #74BD41",
"L.	c #80B75C",
"M.	c #CBA059",
"N.	c #83B569",
"O.	c #7DB768",
"P.	c #82B56F",
"Q.	c #7CB956",
"R.	c #7FB763",
"S.	c #B9A381",
"T.	c #C3A26B",
"U.	c #87B475",
"V.	c #78BC50",
"W.	c #74BE49",
"X.	c #85B57C",
"Y.	c #CCA260",
"Z.	c #78BD58",
"`.	c #7DBB5F",
" +	c #8AB671",
".+	c #8CB66A",
"++	c #86B86B",
"@+	c #80BC52",
"#+	c #7FBC58",
"$+	c #81BA6C",
"%+	c #78BE60",
"&+	c #CAA374",
"*+	c #83B978",
"=+	c #8AB95F",
"-+	c #86BB59",
";+	c #7DBF4C",
">+	c #83BB66",
",+	c #7BBD6D",
"'+	c #84BD4C",
")+	c #7DC22B",
"!+	c #90B677",
"~+	c #8ABA67",
"{+	c #86BC61",
"]+	c #81BC74",
"^+	c #7AC247",
"/+	c #7EBE68",
"(+	c #CBA763",
"_+	c #90B967",
":+	c #8BB97A",
"<+	c #87BB74",
"[+	c #7CC15C",
"}+	c #81BF62",
"|+	c #D1A765",
"1+	c #86BE69",
"2+	c #83C05D",
"3+	c #7AC44F",
"4+	c #85C056",
"5+	c #7FC256",
"6+	c #82C348",
"7+	c #D3A860",
"8+	c #88C150",
"9+	c #94B985",
"0+	c #CCAA73",
"a+	c #8BC05E",
"b+	c #82C451",
"c+	c #83C265",
"d+	c #D2AA6E",
"e+	c #89C16C",
"f+	c #CAAB86",
"g+	c #8EC073",
"h+	c #86C279",
"i+	c #83C46D",
"j+	c #90C06D",
"k+	c #D6AB69",
"l+	c #93BF79",
"m+	c #8DC17A",
"n+	c #8CC367",
"o+	c #89C374",
"p+	c #88C561",
"q+	c #D8AC64",
"r+	c #CBAE7F",
"s+	c #8FC462",
"t+	c #93C182",
"u+	c #97C175",
"v+	c #94C369",
"w+	c #9DBF7E",
"x+	c #8EC973",
"y+	c #CCB48C",
"z+	c #9AC680",
"A+	c #95CB6F",
"B+	c #CDB996",
"C+	c #A2C69B",
"D+	c #DBB987",
"E+	c #DDBA82",
"F+	c #D3BEA4",
"Z.8+$+u+[.G._+w+~+=+++g+ +v+P. .6.r.P.m+*+m.>+P.m+u+.+5+3+_.3.:.",
"6+b+u.U.X.a+2+C.b.~+G.4+%.t.6.L f.X._.R. +]+,.$+=+>+:+6.H.4+!+1+",
"{+)+[.9+X.R.{+w+h.G.H 6.w '.s.2.k.%.B.`.l+i.@.U.y z.u.e+.+=+q.g.",
"y.s.).<+a.6.q._+x.<+g+O.#.'.K.g+9+A x.}+++%.<+4.{.7.-+2.F.G.>+6.",
"'+Z.++R.G.t+ +z+z.G.!+t+z.| 8 f 8 e e } j+2.D. .x.a.{+y.8.b.n.s.",
"~+W v 3.m+i.}+>+e+M n 2 : E T.D+|+Y.|+5.R m g R.{.y.t.>+G A 8.R.",
"l+_.{.t.$+'.Q.N.u.2 4 e C l.V o q+q+M.0+q+7+-.t z :+h+B.D.!+G.@.",
":+/+y.u.8.i+a.).: 1 b c N d.N 5.k+k+V T.q+q+7+M.k X.i.1+i.U.H .+",
"j+i.p.1+1.#+Q./ ( m q c o o <.T.E+k+k+q+q+w.5.|+k+E M J $+~.=.f.",
"7.N.>+t.{+F.6 : ~ ( o : 5 c o o l |+k+k+q+k+-.7+q+M.p J $+k.@.m+",
"r.*.>+Q.v+n / b ~ ~ ] ~ _ 1 x S N I.(+k+|+k+q+q+q+d+-.n @.B :+h+",
"3.++q.u.8+e : a x ( ~ ~ q U w.^.S w.<.<.d+|+q+|+5.7+d+F P @._.'.",
"O c+6+~+>+( / b 4 / : r ( Y x /.U /.x q Y.k+k+q+5.5.7+5.1+6.%.}.",
"P 4+4+J.m 4 ~ ~ ~ / l s j.0+B+B+r+y+F+w.N N l.7+q+q+q+M.j  .6.8.",
"2+{+J.'.f 4 8 b ~ / h 1 ] x q o R N <.N ~ < w.7+q+q+q+M.D P {. .",
"N.R.6.t.m ( : < ~ / a l ] q s a q h l U ~ 0 s |+7+(.M.k+D P.m.%.",
"o+4.B J.m ~ l d ~ / 3 a ] Y |.e.Y S.j.(.~ 7 x Y.7+Y.-.Y.D a.].<+",
"C+J P.x.9 3 ! ! ~ ~ l a ~ Y ` R U R <.(.~ ( N 5.Y.7+7+Y.t 1.H f.",
"z+L }.5+t / ! ! ! ~ d a ~ r |.S (.^.(.N ~ ( h C 5.M.M.` g H.L J ",
"g+Q.2.2+$.0 ! ' ; ! r c ~ a 1 a < h a s ~ 0 1 6 t -.-.&.}.u.J.N.",
"e+$+t.>+W f / ' ; ; ) a _ ) ) ! ) ) ! ) _ b / / | k E j 5+7.u.r.",
">+J.>+q.q.n r ' = = i b < ! ~ ~ a ! ! ! 4 c 1 / ~ d } g >+,.T 2.",
"N.{+F.2+q.V.j d = - 3 [ & $ * = m ; = * - [ a ' ~ i g <+t.O.R.$+",
"'.z.a.>+M 8.^+k 4 $ .     . . @ a # # @ + @ % ' h p x+c+R./+2+n+",
"q. +m+N.R.4+7.{+V 7 > @ + . .   5 + + @ # % ) U D u.j+x+1+g+#+o+",
">+i+ .{+G.2+}+'.j+Q m [ * # @ + ) # # % { ~ R D 4+o+m+x+g+j+A+2+",
"/+o+@.z.z.z.n+t.t.'+Q -.U 8 { ^ , { ( s S V g e+a+Q.]+P.x+@+W.5+",
"z._.4.a.R.P.2+'.Q.;+6+-+B.&+d+f+F+&+r+` a.x.g+n.R.>+$+g+>+:.;+W.",
").a.).T ;.c+ +++{+2+H.j+}.!.b.E.!.X  .3.I >+t.:.J.5+t.G.B._.=+>.",
").R.O.i.:+Z.~.{+Z.p+p+s+4+u.v.7.2.2.=.J a./+$+:.R.Q.B.~+e+P.6.z ",
"G.R.<+!+1+{+x.F.s+Q.n+F.4+u.2.8.%.J.@.Z a.c.6.,.%.[.2+n+{+r.x.<+",
"{+v+t+.+t.{+l+t+7.D.j+-+{+p+u.z.6.T m.].~.]+ +i.t.[.=+2+B.O.U.{+"};
