/* XPM */
static char * item_rot_4b_64_xpm[] = {
"64 64 255 2",
"  	c #000000",
". 	c #200B02",
"+ 	c #280903",
"@ 	c #302101",
"# 	c #403426",
"$ 	c #433819",
"% 	c #504637",
"& 	c #396023",
"* 	c #605841",
"= 	c #4D623D",
"- 	c #625B4D",
"; 	c #616031",
"> 	c #426A3B",
", 	c #516B30",
"' 	c #3F722D",
") 	c #437221",
"! 	c #487030",
"~ 	c #71695A",
"{ 	c #746C54",
"] 	c #477F2A",
"^ 	c #4E7D3E",
"/ 	c #54804E",
"( 	c #607C52",
"_ 	c #59813A",
": 	c #607F3A",
"< 	c #7B7365",
"[ 	c #5D8132",
"} 	c #51843B",
"| 	c #558432",
"1 	c #5F8043",
"2 	c #508833",
"3 	c #568827",
"4 	c #618528",
"5 	c #4F8B24",
"6 	c #538746",
"7 	c #5B8646",
"8 	c #7F7F41",
"9 	c #847E66",
"0 	c #867E6F",
"a 	c #599240",
"b 	c #5A933A",
"c 	c #5D9147",
"d 	c #63903E",
"e 	c #5C914F",
"f 	c #668E4F",
"g 	c #6B924A",
"h 	c #66925E",
"i 	c #639735",
"j 	c #5D9A28",
"k 	c #5C9B20",
"l 	c #788E53",
"m 	c #6A9536",
"n 	c #5C9A35",
"o 	c #5E965E",
"p 	c #66936B",
"q 	c #739064",
"r 	c #8C8966",
"s 	c #818F58",
"t 	c #5D9C45",
"u 	c #5B9D4F",
"v 	c #649B46",
"w 	c #659A4F",
"x 	c #928977",
"y 	c #649A57",
"z 	c #6C9946",
"A 	c #91897E",
"B 	c #6F9858",
"C 	c #63A821",
"D 	c #6AA53C",
"E 	c #65A82D",
"F 	c #70A341",
"G 	c #68A735",
"H 	c #64A83D",
"I 	c #67A64B",
"J 	c #69A644",
"K 	c #60AA36",
"L 	c #6EA44A",
"M 	c #63A845",
"N 	c #66A652",
"O 	c #63A65E",
"P 	c #6DA451",
"Q 	c #6AA558",
"R 	c #6BA465",
"S 	c #6DA45E",
"T 	c #72A358",
"U 	c #76A167",
"V 	c #76A350",
"W 	c #9B947A",
"X 	c #9D9482",
"Y 	c #9C9488",
"Z 	c #7DA663",
"` 	c #77A777",
" .	c #7FA75D",
"..	c #88A469",
"+.	c #85A57C",
"@.	c #6BB154",
"#.	c #6DB247",
"$.	c #6DB061",
"%.	c #6CB24E",
"&.	c #6FB05B",
"*.	c #74B04B",
"=.	c #77AE58",
"-.	c #72B054",
";.	c #75AE61",
">.	c #71AF69",
",.	c #75B32E",
"'.	c #77AD6F",
").	c #6CB62D",
"!.	c #7AAD67",
"~.	c #7CAD61",
"{.	c #80AD59",
"].	c #74B43A",
"^.	c #7BB23A",
"/.	c #79B242",
"(.	c #80AC70",
"_.	c #A79E8C",
":.	c #6DB73B",
"<.	c #A69E92",
"[.	c #A79F83",
"}.	c #6CB743",
"|.	c #73B542",
"1.	c #80B24E",
"2.	c #73B94D",
"3.	c #73B954",
"4.	c #7CB853",
"5.	c #72BF26",
"6.	c #80BB25",
"7.	c #72BB64",
"8.	c #74BB5D",
"9.	c #76BA6A",
"0.	c #7EB95D",
"a.	c #7ABA64",
"b.	c #7AB970",
"c.	c #78B978",
"d.	c #7FB96A",
"e.	c #81B964",
"f.	c #88B762",
"g.	c #72C238",
"h.	c #84B779",
"i.	c #88B76B",
"j.	c #ACAB77",
"k.	c #87B771",
"l.	c #7AC13A",
"m.	c #82BF3C",
"n.	c #B2A996",
"o.	c #B1A99D",
"p.	c #B1AB90",
"q.	c #78C34E",
"r.	c #79C71E",
"s.	c #77C355",
"t.	c #79C447",
"u.	c #7BC25D",
"v.	c #7FC256",
"w.	c #92B97F",
"x.	c #81C350",
"y.	c #99B87C",
"z.	c #A0B67C",
"A.	c #96BB69",
"B.	c #85C349",
"C.	c #88C251",
"D.	c #85C25E",
"E.	c #87C257",
"F.	c #7CC468",
"G.	c #9FB971",
"H.	c #82C08B",
"I.	c #80C373",
"J.	c #91C151",
"K.	c #8EC15D",
"L.	c #88C366",
"M.	c #83C46D",
"N.	c #8AC26D",
"O.	c #83C37C",
"P.	c #81C941",
"Q.	c #91BE8D",
"R.	c #83CA34",
"S.	c #8EC082",
"T.	c #9BBB90",
"U.	c #91C07A",
"V.	c #89C374",
"W.	c #92C16C",
"X.	c #9BBA9F",
"Y.	c #92C174",
"Z.	c #89CC25",
"`.	c #8CCB46",
" +	c #86CB61",
".+	c #89CC51",
"++	c #BEB5A2",
"@+	c #BDB5A8",
"#+	c #BAB984",
"$+	c #BDB79C",
"%+	c #8ACB6F",
"&+	c #8DCC59",
"*+	c #8FCB64",
"=+	c #96CF2B",
"-+	c #8ECB7B",
";+	c #98CD49",
">+	c #93CB75",
",+	c #97CD55",
"'+	c #94CB83",
")+	c #92CB8B",
"!+	c #99CC67",
"~+	c #98CC70",
"{+	c #9BCC77",
"]+	c #9ACC7E",
"^+	c #9FCA84",
"/+	c #9ECA8C",
"(+	c #9ECE5E",
"_+	c #97CD99",
":+	c #A3CC80",
"<+	c #A6CC77",
"[+	c #CEBCAB",
"}+	c #B0CB6C",
"|+	c #A4CB9C",
"1+	c #AFCA80",
"2+	c #C5C290",
"3+	c #A9CE6D",
"4+	c #AFCA87",
"5+	c #C7C1A6",
"6+	c #9CDC08",
"7+	c #C8C0B4",
"8+	c #AECB93",
"9+	c #CBC0AD",
"0+	c #C6C2AD",
"a+	c #BCC6AE",
"b+	c #A5CFAA",
"c+	c #A9D28B",
"d+	c #A8D295",
"e+	c #A6D671",
"f+	c #B4D0B1",
"g+	c #AED4A4",
"h+	c #B7D2A6",
"i+	c #A8DA84",
"j+	c #DAC7B6",
"k+	c #D5CAB7",
"l+	c #C5D0B7",
"m+	c #B3DA85",
"n+	c #B1DA8D",
"o+	c #D3CDB2",
"p+	c #ADDD81",
"q+	c #D3CCBF",
"r+	c #B9D79D",
"s+	c #D2CEB9",
"t+	c #B2DC9D",
"u+	c #B8DFB0",
"v+	c #C2DEBE",
"w+	c #DBD7C2",
"x+	c #E1D6C2",
"y+	c #E5D5CB",
"z+	c #E0D7CA",
"A+	c #DBD9CA",
"B+	c #E8E2CD",
"C+	c #E9E2D5",
"D+	c #F4EEE2",
"E+	c #F4F0DA",
"F+	c #FFFFFF",
"0.8.,+N.i.U.'+>+0.=.~.Y.U.f.y.y.e.U.{+V.;.8.4.U.!.i.C.{+S.P B i.e e.L.$.'.h !.M.U S.w.Q 0.k.!.S h.'+]+^+w.0.D.q.D.t.0.Z k.a.a.q.",
"g.K.`.e.-+i.Y.i.i.i.~.L.~+f.f.4+N.e.K.{.(.d.V.d+d+^+f.d.S.S B -.d.d.!.V.>+~.Y.w.d.k.Q.g 0.;.k.~.U.4.K.i.k.N.=.|. +q.=.0.U Q &.2.",
"B.&+.+V.-.4.k.(.` k.Y.,+D.!.L Y.{.W.f.i.Z f.&+*+;.=.3.M.Q i.v c i.S./+|+d.2.S i.U.e.O.!.J 8.&.N.(.E.0.h.!.(.b.*.].P.%+E.w.Q.!.4.",
",.W.`.D.|.N.w.Q.Q.Z K.f.x.L.B /+{.1.D.(.T L 2.a.S e J i.-.Z L =.(.T S U S ;.k.0./+e.d.;.*.z U.e.A./.*.0.k./+;.~.-.C./.,.{.k.k.V.",
"4.L.Z.m.V f.U.w.w.!.=.f.W.i.8+]+1.d {.e.;.w L B N S ;.|.L #.*.c R U S R a.a.;.D./+k.a.'.>.P ^+k.1.v =.J q.d.]+h.g f.].0.D.Z ;.~+",
"v.f.6./.;.0.'+T.T.V.L.~. +A.4+1.K.~.Y.~.!.B (.Y.;.f B =.x.T.5+s+7+h++.4.e.d.a.*+L. .Z b.h.e.w.U P J =.~.*.%.*.L.{+A.{.*.P =.B ~.",
"q.E.*.l.@.M.-+h.~.N.(.e.v.f.z.1.A.T k./+U.!.{.e.!.'.B y.o+s+k+q+w+w+q+T.f.~.d.t.0.T !.=.U.T h.'.w w 2.0.f.].I T 4.W.~.i.0.-.T Z ",
"M.#.0.t.t a.)+(.>.v.w k.a.{.~.W.N.~.^+=.f.N.k.V.~.'.8+q+++0 x A x Y k+s+$+i.k.E.^+f.>.>.k.h.e.Q !.b.=.~.K.P J -.J 1.D.V f.V.a. .",
"t.s.u.]. .i.V.N.b.f.V k.i.!. .c+e.Y.L.W.Y./+V.a.4.T.7+X n.k+s+s+q+@+0 5+7+a+D.L.=.Y.U =.b.@.t (.;.Q ;.L.>+i.B.4.2.|.K.2.1.J t.4.",
"f.t.u.;.i.'.S 4.k.W.'+|+'+Q./+]+e.P P Z y.w.h+Y.3.l+X 0+w+w+w+q+w+q+s+x @+7+^+q.-.Y.t.P f.'+I P !.d.w |.*.~+v.4.0.{.L L E.;.v B.",
"e.>+x.D D (.h -.8./+w.e.s.N.V.0.d.0.I _ w 0.-+L.8+<.@+z+z+q+w+q+q+w+w+w+A 9+l+0.:.~+N.;.i.D.d.S w '.-.5.s.L.{+0.V ..g s ^.q.I 0.",
"i.N.v F T B ;.#.v./+T =.4.Y.k.V N.D.;.S @.D.e.i.7+<.w+z+w+q+w+q+w+w+z+w+7+X k+T.Y.=.D.4.*.*.|.;.d.2.*.V.I.B i.V.T Z .... .q.e./+",
"|+N.=.I h.h h |.'+L.~.4.|.d.k.V.-.E.-.!.7.d.a.h+Y w+z+w+o.++7+7+7+C+C+Y 7+0+++a+d.D -.0.=.f.N.8.Q c B k.8.;.=.-.c.y +.~.f.P f k.",
"^+-.M.'.h.I t.N.w *.P =.*.=.T ;.t 0.Q '.S F.&.5+@+z+w+o.w+C+7+n.++z+A+<.7+z+Y 9+^+I h./+U.O.(.=.U h U /+/+'+M.M.9.;.U.'.~.!.d.=.",
"/+U k.a.J |.E.8.P #.8.d.=.d.d.N e 3.d.i.8.8.^+<.z+z+n.++w+q+o.n.o.n.o.A 7+z+7+o.a+=.N.k./.T '.B a.S._+!.k.Q.0.e.S (.i.h.S k.i. .",
"/+Z 4.a.N t.~.%.e.-.D.M.e.-.v &.a.a.P v %.&.h+o.C+z+_.n.@+n._.n.<.z+z+<.0+z+w+_.7+w.N.U =.e R -.;.S.h.h.z ~.U.U.U.U.;.Q.d T d.Z ",
"{+D.` &.b.8.4.U.4.4.L.v.D.J d L.&.L.=.3.F.!.o.s+7+o.<.n.q+B+@+n.o.C+w+7+@+z+w+++@+h+#.z T &.$.;.S !.U !.f d.h w.h.].F U.!.w k.i.",
"W.V.S.S.O.;.3.f.*./.0.|.1.*.I |.4.L.S l.4.^+o.w+@+q+n.o.C+C+7+n.@+w+0+Y @+B+z+s+n.l+L  .(.+.S d._+!.Q 1 Q a.(.f S.e.f w.Z ..Z h.",
"f.e.*.W.k.*.8.f.4.A.0.K.B.*.=.*.4.0.0.2.0.8+@+w+z+C+o.n.7+@+<.n.o.w+A+@+o.z+z+w+<.7+y.4.z j.y.N.T %.P U f T U Q h.O.R Z a.B Y.!.",
"{.J w w.U.*.0.4.L.~.1.4.*.|.v./.P *.J 0.4.p.q+z+z+7+<.n.z+z+@+5+7+7+o.0 @+z+x+w+o.0+@+y.C.0.Y.S R e c h.y B B U a.;.R U e.T d+M.",
"I.S e ..U.;.-.D.L.0.i.*.|.|.l.~.L 0.=.;.e.o.z+w+w+z+@+@+q+++q+B+q+X <.Y 0+x+7+w+7+n.$+K.f.~.i.R R R Q R B ` (.U d.B 7 d.S k.S.O.",
";.O.b.w.f.D.v.f.Y.!+D.=.J 2.4.d.E.T z ..i.o.C+z+@+_.q+B+B+C+@+s+k+_.n._.0+z+7+z+7+<.0+T S.Q.w.S (.S U (.U h.'+U k.P J =.w./+h.I.",
"t S.!.)+~.L.4.P L.R.E.d.a.2.2.2.v.*.T =.T.@+C+B+_.n.7+7+7+7+o.s+k+_._._.@+C+q+q+s+<.@+(.P T y.h S.'.q +.T.U.e.=.0.I w (.0.!.0.T ",
"w N.e.U.;.D.4.1.e.B.N.d.8.3.&.2.@.>.h.-.T.7+z+C+_.o.7+s+q+7+0+7+w+_.<._.@+@+C+o.w+n.++T.c d {.'.)+h.d.1.f.V.L.;.;.B T T N *.I 1.",
"c 4.N.N.2.C.K.i.N.u.8.'.@.I %.#.&.B U Q +.q+z+q+Y <.k+7+w+q+++s+q+w+w+w+7+B+q+z+B+n.++8+d {.f.'+3.P (.P W.h.M.L.D.*.i.(.!.U.=.2.",
"G T u.N.m.P.Y.Y.V.-.:.a Q U.8.&.e.i.;.9.X 7+C+7+++q+0+s+@+7+n.7+q+7+w+o.o.A _.0 X 7+++z.z ~.S.I.>.#.=.;.N.U.*.i.O.d.&.T a.e F /.",
"E c 2.K.B.t.M.d.d.L J P ^ !.L.i.D.0.3.&.<.w+q+C+q+q+s+w+w+7+z+D+z+o.s+A 0+w+0 o.w+s+n.p.w S.3.M.S 9.U.!.0.x.x.k.U.U N ;.d.;.4.*.",
"k.d L.E.W.f.3.-.&.#.].2.Q =.%.P =.2.D.-.n.@+0 @+@+@+0+z+7+q+0+k+++@+7+0 7+w+n.<.w+q+<.0+V t a.I {.#.@.0.d.-.J z ~.Z =.T {.P i *.",
"~+-.v.L.E.i.=.=.a.%.B.0.;.=.-.4.2.0.2.v n.w+A z+@+7+o.7+++7+0+s+o.q+z+@+0+7+w+@+w+q+n.0+1.i d.n L Q w k.i.T D J =.a H e U U S L ",
">+2.;.0.2.;.d ;.v.t.*.4.v.v.{.0.-.q.B.D.o.q+7+q+z+C+7+0+k+0+s+q+7+k+s+s+++z+w+w+w+s+n.0+h.w 1.f P Q &.~.T f.H w v |.w L 7 N.k.v.",
"k.-.4.e.{.=.*.0. +4.#.|.x.f.N.0.B./.4.=.n.q+z+z+7+o.++0+<.9+_.7+o.++_.X n.z+w+w+w+7+o.0+S.o 2.T S b.T Q '.S S P S k.h.&.6 k.-.~.",
"e.k.D.T !.=.J e.{.~.L D x.L.i.-.2.4.4.L._.q+z+z+z+z+k+@+++++7+@+@+k+z+7+_.w+w+z+w+7+<.++k.-.=.c B w.T S b.w P T 2.#.e.h.!.h.h.I ",
"D.N.N.3.P ;.P N.3.&.L J q.B.Y.k.Q f.D.{._.q+z+C+Y A ++0+q+B+w+k+k+Y X 0 o.x+B+z+w+7+<.++0.b.a U.e.Z i.U 9.'.T V -.(.d.(.h T./+U.",
"S.S.S &.T U L.q.J d.v 2.v.E.1.e.P 0.=.0.n.q+w+C+o.n.<.7+7+7+@+w+7+o.<.<.@+B+w+z+w+s+<.++0.h.>.'+D.-.Y.w.B b.;.#.-.D.=.!.'.J =.'+",
"f+Q.T h.Q.S. .T P I v 0.E.F 4.2.g k.V *.n.s+q+C+++n.0+w+q+z+k+w+w+7+Y <.k+z+7+w+q+k+o.$+Y.~.!.;.0. +N.h ~.Q &.w ~.*.-.=.w n w Z ",
"h.f+f f f.S.N.k.~.Q a.1.z T v &.w !.w c n.k+w+A+9+_.A+s+q+7+0+7+++q+X Y q+B+7+w+w+s+<.++>+e.~.P ~.0.x.4.w S Q =.~.1.].4.B B (.~.",
"*.d+t _ 1.e.v.f.|.H 4.K.0.9.>.;.0.P 2 N W k+q+@+k+n.q+0+q+$+<.7+k+y+X X 0+D+@+7+s+7+_.++L.2.:.T v 0.%.q.%.;.N.0.0.R.|.t.v &.f ..",
"/+(.D.=.i 4.2.x.:.v {.0.L F L.d.0.0.b =.W 7+q+q+A+@+7+D+q+q+s+z+D+w+++n.9+7+q+A s+k+n.$+a.=.G n ;.;.#.*.P P ~.u.f.5.l.*.|.e R B ",
"d+k./.2.y *.D.2.*.G B.4.L V '.-.4.-.P d.y.@+n.0 q+@+7+C+q+n.7+C+A+0+_.o.k+k+q+C+A+7+_.T.V =.2.3.S B (.N.2.T T q.E.*.l.w 4.~.'. .",
"D.i.!.2.3.0.D.f.*.|.].0.B L &.-.K.T a.;.8+o.@+_.C+o.@+7+@+n.o.q+z+_.x <.n.x Y < k+9+n.y.!.S M u.%.T =.=.M.a.T M.J 4.4.N.e.v.4./+",
"~+=.k.V.3.k.N.{+].].=.4.|.4.4.1.B.*.P d.T.++7+7+B+q+++7+n._.n.0+q+x <.w+k+n.- o.s+@+o.z.=.w a.k.E.=.0.z 4.t.4.t.q.u.|.V x.#.d.^+",
"D.]+-.=.e.2.W.F.@.*.0.0.L. +D.L l.%.|.*.e.o.w+w+z+B+o.@+A _.<.++o._.o.C+C+Y <.n.w+n.++w.d.(.S (.U./+W.Y.=.v B.0.|.v.&.f.!.;.0.;.",
"0.*+L.8.=.4.N.0.-.E.*.~.S *.2.g.:.3.F.L.D.n.s+w+w+z+s+<.X _.n.X n.X s+B+B+s+w+o.q+n.++i.;.L.;.k.a.K.f.f.v.@.0.0.>+x.D ].Z h 3.P ",
"-.^+x.e.f.z *.=.4.!.&.V =.|.C.t.#.t.4.i.a.p.7+w+w+q+w+7+@+n.<.0+x 7+x+C+w+z+w+q+s+o.o.T %.8.L.k.0.D.k.~.e.d.U.k.N.v *.&.U ;.0.L.",
"0.k.f.0.=.L B.4.!.*.4.2.g.].4.v.2.D.L.e.0.T.@+s+s+q+z+w+0+@+@+x ++B+B+B+w+w+s+k+7+o.[.=.J i.4.k.e.4.3.0.L.e.V./+N.=.-.(.S !.V.e.",
"i.w.e.0.*.E.0.&.i.#.2.0.2.4.4.2.4.E.D.u.L.Y.@+k+k+7+@+q+w+0+o.q+k+w+w+s+q+w+k+k+++o.y.;.-.U.f.L.k.L.4.x.~+4.d.k.4.L.b.F.u.Y.{+~.",
"f.~.N.~.e.f.U.3.P L 4.*.t.t.2.L Y.L.N.L.L.3.++k+7+7+o.++w+A+w+w+q+s+C+z+s+w+k+s+++o.k.h.0.Y.d.4.*.>.8.v.'+B.L.N.~.k.M.a.u.L.N.f.",
"4.P ~.d.!.0.f.V.R P *.0.q.x.4.4.i.L.;+e.4.J p.7+7+0+0+q+7+w+q+w+7+q+Y w+k+w+k+7+++[.v.~.k.e.D.C.C.s.-.0.N.%+v.N.0.L.N.a.f.*+0.E.",
"=.=.T.!./+i.N.Y.!.4.E.D.-.;.=.4.T D.R.f.0.4.y.7+@+0+0+++++s+++k+@+9+0+@+9+q+k+++++W 2.4.e.k.0.D.P.:.4.0.Y.W.L.Y.K.V.0.Y.D.0.k.L.",
"#.0.U.d.V.;.=.Y.N.L.K.q.0.=.W.v.=.D.J.1.4.x.0.++@+w+++0+o.0+@+@+0+7+0+@+++9+@+<.o.k.t.J 0.>+;.e.x.v.q.e.~.Y.^+>+Y.>+/+i.E.f.i.'+",
"#.e.k.I.k.=.0.{+^+W.x.0.0.D.*.e.y.*+K.m.{.4.L.T.9+_.++++k+0+++@+@+0+++++++0+++n._.w *.&.;.{+W.L.u.*+N.V.i.w.L.]+U.]+^+i.]+~+*+i.",
";.k.b.L.-.w E.f.i.-.4.N.k.E.L M.W.Y.4./.v.!+C.f.7+9+0+++++++++@+@+++@+0+++@+++@++.e e.0.b./+{+D.v.&+>+V.h.^+Y.%+-+'+-+*+>+x.x.4.",
";.&.u.a.v g P -.=.(.V.;.e.D.0.d.e.d.x.J.W.~+~+N.p.9+0+@+o.<.@+5+++n.s+w+<.++n.n.d.(.f.4.a.!.%+U.=.*+v.!.O.O.Q Y.-+F.4.*+E.q.t.*+",
"M.I.O.V.U.P ;.i.D.=.N.e.>+D.=.0.-.2.|.C.L.C.B.4.d.@+0+_.Y 0+++s+<.++Y <.++n.@+U !.N 0.=.e.(.N.L.D.E.0.&.d.d.9.b.F.%+0.x.B.-.v.*+",
"N.S =.I.y a.e.{.2.U.L.0.W.4.i.v.*.a.x.4.E.C.D.0.N.w.9+9+@+9+_._.$+@+o.0+@+++_.B !.8.S k.L.!.e.x.0.L.e.k.U.k.d.h.9. +3.:.|. +s.P.",
"N.&.Q t =.I ~.~.|.i.S.(.E.0.P L 4.D.x.2.B..+K.0.;.T [.9+k+@+@+++++++0+0+o.n.(.S S d.~.]+k.k.0.E.0.U.i.W.;.k.U.L.e.U.a.I *.l.x.4.",
"-.$.;.P D ;.!.T F *.i.v.i.i.~.k.L.f.D.0.l.D.W.W.0.*.w _.++++9+7+7+7+<.o._.U &.'.h f ;.U.=.e.2.|.d.0.D.x.#.3.-.V.a.0.U P 1.E.G 2.",
"&.N e.L.$.a.!.B =.D.W.u.U e.Y.L.e.*+L.v.|.C.Y.y.*.|.~.@.W ++++5+o.<.@+<.B (.'.Q U ;.3.U.L.-.4.P L.-.0.t.d.-.Z ~.0.;.0.-.V i.E L ",
"-.t S v.!.(.V.d.h.(.D.N.U i.x.D.L.D.*+L.M.v.C.^+L.4.E.P V .._._._.Y [.U (.U U h h ;.u.Y.;.;.2.~.*.i.]+q.8.P Y.i.d.k.S.$.w k.V P ",
"'.!.(.0.V.d.S k./+U.u.4.Z e.i.D.4.4.E.E.v.D.E.x.4.K.4.L -.8.=.~.4.v 4.0.(.R (.;.=.0.d.k.d.k.M #.-.N.v.G 3.d.f.2.K.N.(.!.;.i.w h.",
"S.(.d.3.M.w.k.!.Y.]+e.f.~.~.L.0.D.~+L.0.D.e.L.4.E.x.e.4.4.0.0.4.P N u.0.w w R ~.~.d.!.k.!.a.=.#.d.T P |.-.>+D.N.e.E.E.~.h.f.{.Q.",
"v.f.W.{.N.Q./+k.0.e.v.i.k.L.D.;.D.0.0.E.N.Y.W.0.K.C.t.e.0.-.3.a y b.9.-.d.U +.q f.k.h.9.d.f.0.*.d.^ ..U.v.D.N.]+a.k.a.h.(.*.1.'+",
"v.v.:+k.w.]+W.y.k.u.v.f.y.Y.U.h.=.2.=.P D.N.L.W.0.v.`.D.e.4.3.Q ;.;.Q S c.S.Q.+. .=.U.;.w.w.S 8.3.w T f.e.L.x.]+d.'.0.d.h.=.m.S.",
"D.Z C.K.w./+U.=.x.-.0.Y.U.h./+k.~.f.N.S.N.k.e.D.a.P K.W.0.4.;.k.!.k.U y R h.U.(.f U.h.9.*.{.Z S.V.E.i. ...~+W./.x.e.L.(./+!.G '+"};
