/* XPM */
static char * item_rot_2d_64_xpm[] = {
"64 64 256 2",
"  	c None",
". 	c #3A3230",
"+ 	c #483931",
"@ 	c #443C3A",
"# 	c #5D4441",
"$ 	c #4F4848",
"% 	c #534842",
"& 	c #5A4743",
"* 	c #4D4B4F",
"= 	c #605243",
"- 	c #684F4D",
"; 	c #64514C",
"> 	c #565559",
", 	c #5E544F",
"' 	c #635255",
") 	c #5C5554",
"! 	c #62554B",
"~ 	c #6E5A51",
"{ 	c #625E5C",
"] 	c #655E58",
"^ 	c #675D5D",
"/ 	c #6A5D52",
"( 	c #695D58",
"_ 	c #755B55",
": 	c #715D5C",
"< 	c #626266",
"[ 	c #756159",
"} 	c #6D6363",
"| 	c #706359",
"1 	c #6F635E",
"2 	c #696564",
"3 	c #6B655E",
"4 	c #7C675F",
"5 	c #74696A",
"6 	c #77695F",
"7 	c #766964",
"8 	c #6F6B6A",
"9 	c #716B64",
"0 	c #7D6A69",
"a 	c #7D6A73",
"b 	c #6E6F73",
"c 	c #766D73",
"d 	c #826D64",
"e 	c #7A6F70",
"f 	c #7C6F6A",
"g 	c #757170",
"h 	c #77716A",
"i 	c #7D7065",
"j 	c #837571",
"k 	c #7D7771",
"l 	c #80776B",
"m 	c #817676",
"n 	c #84766B",
"o 	c #7C7876",
"p 	c #8A756D",
"q 	c #89757E",
"r 	c #8A7675",
"s 	c #7E7B80",
"t 	c #787D81",
"u 	c #A1717C",
"v 	c #8E7970",
"w 	c #847B81",
"x 	c #877C7D",
"y 	c #897C77",
"z 	c #8B7C71",
"A 	c #827E7D",
"B 	c #847E77",
"C 	c #867E71",
"D 	c #968077",
"E 	c #B4777C",
"F 	c #928277",
"G 	c #8B847E",
"H 	c #848683",
"I 	c #90837E",
"J 	c #878589",
"K 	c #898583",
"L 	c #968283",
"M 	c #8E848A",
"N 	c #AA7C85",
"O 	c #908585",
"P 	c #96838C",
"Q 	c #8F8779",
"R 	c #838991",
"S 	c #85898C",
"T 	c #98887C",
"U 	c #968884",
"V 	c #8A8C89",
"W 	c #8D8B8F",
"X 	c #8F8B89",
"Y 	c #918B84",
"Z 	c #94908E",
"` 	c #9A8F8F",
" .	c #9F8F82",
"..	c #9D8F8A",
"+.	c #A38D8D",
"@.	c #8C939B",
"#.	c #98918A",
"$.	c #9A9183",
"%.	c #8F9396",
"&.	c #919390",
"*.	c #A08E97",
"=.	c #949296",
"-.	c #BE8789",
";.	c #A0927B",
">.	c #9C9299",
",.	c #BE8894",
"'.	c #989492",
").	c #B58C94",
"!.	c #A5957F",
"~.	c #A6968A",
"{.	c #9B989D",
"].	c #9D9897",
"^.	c #9F9891",
"/.	c #A1988A",
"(.	c #969A9D",
"_.	c #AC9494",
":.	c #989A97",
"<.	c #A39794",
"[.	c #939BA3",
"}.	c #AD978E",
"|.	c #A29D9C",
"1.	c #9EA09D",
"2.	c #A59F98",
"3.	c #9AA1A9",
"4.	c #A29FA4",
"5.	c #9CA1A3",
"6.	c #A89F91",
"7.	c #C4969F",
"8.	c #AC9FA0",
"9.	c #A6A1A0",
"0.	c #B59E96",
"a.	c #AFA095",
"b.	c #AEA09B",
"c.	c #B1A090",
"d.	c #C09AA1",
"e.	c #B89D9F",
"f.	c #ADA0A8",
"g.	c #B2A18A",
"h.	c #ACA69F",
"i.	c #A1A8B0",
"j.	c #AEA698",
"k.	c #A9A6AB",
"l.	c #ABA6A4",
"m.	c #A3A8AA",
"n.	c #A5A8A4",
"o.	c #B2ACA4",
"p.	c #BBAB9E",
"q.	c #B0ADB1",
"r.	c #B9ABA8",
"s.	c #A8AFB8",
"t.	c #B5ADA0",
"u.	c #AAAFB1",
"v.	c #B2ADAC",
"w.	c #B7AD9A",
"x.	c #ADAFAC",
"y.	c #C1AAA1",
"z.	c #CCA6AD",
"A.	c #B8AEB4",
"B.	c #B6B0A9",
"C.	c #C2ACB6",
"D.	c #BEB098",
"E.	c #D0A8B7",
"F.	c #C7ADB0",
"G.	c #C2B395",
"H.	c #B7B4B9",
"I.	c #B9B4B3",
"J.	c #B4B6B3",
"K.	c #BEB4A7",
"L.	c #C0B3AF",
"M.	c #AFB7C0",
"N.	c #B1B7B9",
"O.	c #C1B4A2",
"P.	c #BBB5AD",
"Q.	c #C0BBBA",
"R.	c #C2BBB4",
"S.	c #BABDBA",
"T.	c #C5BBAE",
"U.	c #D9B4BB",
"V.	c #B8BEC0",
"W.	c #C8BAC2",
"X.	c #CABCB8",
"Y.	c #D4B8C3",
"Z.	c #C1BEC2",
"`.	c #B9C0C8",
" +	c #CEBCAB",
".+	c #D4B9BE",
"++	c #C9BEAC",
"@+	c #CBBEA6",
"#+	c #B6C2CF",
"$+	c #BEC4C6",
"%+	c #C8C2BB",
"&+	c #C7C2C1",
"*+	c #C1C4C1",
"=+	c #CBC2B5",
"-+	c #CFC9C1",
";+	c #CCC9CE",
">+	c #CEC9C8",
",+	c #C6CBCE",
"'+	c #C8CBC8",
")+	c #D2C9BC",
"!+	c #C1CCD7",
"~+	c #D7C7C2",
"{+	c #D4C9B6",
"]+	c #E4C3CD",
"^+	c #D8CBB2",
"/+	c #DAC9CD",
"(+	c #DDCEC9",
"_+	c #D9D0C3",
":+	c #DBD0BD",
"<+	c #CDD3D5",
"[+	c #D7D1C9",
"}+	c #D4D1D5",
"|+	c #D6D1CF",
"1+	c #C8D4DF",
"2+	c #D0D3CF",
"3+	c #DFD8CA",
"4+	c #DED8D0",
"5+	c #DBD8DC",
"6+	c #DDD8D6",
"7+	c #D5DADC",
"8+	c #E8D7CC",
"9+	c #E7D7D2",
"0+	c #E7DAC1",
"a+	c #EAD7DC",
"b+	c #E4DBC7",
"c+	c #DADDDA",
"d+	c #CFDFEC",
"e+	c #D4DEE6",
"f+	c #E6DFD1",
"g+	c #DEE0E4",
"h+	c #E5DFD8",
"i+	c #E4DFDE",
"j+	c #F2E3DE",
"k+	c #EFE7CC",
"l+	c #ECE6E5",
"m+	c #E6E8E5",
"n+	c #ECE7DF",
"o+	c #F7E3E6",
"p+	c #F3E4EC",
"q+	c #F1E7D9",
"r+	c #DEECF6",
"s+	c #EDEAD9",
"t+	c #F4E7E8",
"u+	c #E6EBEE",
"v+	c #EDEAEE",
"w+	c #F3EEE6",
"x+	c #F3EEEC",
"y+	c #EDF0EC",
"z+	c #F9F5E4",
"A+	c #FAF4F3",
"B+	c #F5F7F4",
"C+	c #FAF7EE",
"D+	c #FAF7FC",
"E+	c #F4F9FC",
"F+	c #FFFAF9",
"G+	c #FFFFFF",
"                                                                                                                                ",
"                                                      -+|+|+%+&+R.r.e.e.z.                                                      ",
"                                                -+-+4+4+-+B.6.6.j.B.=+X.P.e.d.                                                  ",
"                                              X.[+B.G 5 Z 8.h.h.2.Q z $.t.R.B.0.7.                                              ",
"                                          F.=+B.x q.g+l+2+h+w+h+[+4+_+w.$.T K.L.o.d.                                            ",
"                                        T.K.G x.v+F+F+m+x+[+_+P.o.R.}+R.=+P.$.j.K.B.d.                                          ",
"                                      T.j.V 6+w+f+f+i+g+v+[+3+%+R.=+>+o.h.&+[+6.T K.o.e.                                        ",
"                                    L.2.].n+n+{+=+%+&+c+x+f+h+-+-+P.l.o.l.B.|+P.j./.K.l.e.                                      ",
"                                    6.n.h+T.h.-+R.n+B+c+h+f+3+=+o.h.l.h.B.Q.k.|.b.t.Q K.9.F.                                    ",
"                                  6.9.B.h.P.P.%+h+n+F+F+n+h+3+3+_+R.B.l.o.|+4.|.h.-+j.F J.k.z.                                  ",
"                                a.].B.p.$.[+_+f+n+A+F+F+h+h+3+)+=+R.P.P.P.|+4.|.^.h.[+....J.f.                                  ",
"                              b.|.P.t.<.b.B.T.[+w+F+G+F+l+4+-+&+&+}+Q.L.o.R.Q.|.` 9.2.-+l <.u.F.                                ",
"                              2.I.c.^.2.h.h.o.-+w+F+G+F+&+Q.R.B.Q.*+2+P.B.P.l.].l.'...2...7 v.v.E.                              ",
"                            <.q.K.T <.T.++a.B.X.n+F+F+A+Q.[+%+>+&+J.}+R.P.o.h.2.9.Z '.].|.x Y 4.C.                              ",
"                            ].I.j.U ..T.++t.=+a.R.m+G+A+Q.i+6+-+|+H.c+L.T.B.l.9.1.|.'.Z l.>+1 k.v.                              ",
"                          ^.v.R.$.2.~.w.=+K._+K.P.|+F+A+P.h+4+f+%+S.2+|+P.o.h.9.9.|.'.].l.v.j ` k.C.                            ",
"                          |.P.$...b.}.D.{+{+3+3+o.Q.l+A+B.R.B.=+Y 2.I.y+R.t.o.9.|.|.|.1.K ].<.0 v.v.                            ",
"                        <.J...i I ~.c.O.:+f+4+h+R.P.>+x+^.m k f y $.2.}+6+P.h.l.|.2.I.&.&.1.}+k 9.k.E.                          ",
"                        ].I...n T T T t.K.s+%+[+|+o.R.>+&+T.T.O. +{+~.&+>+|+h.l.9.2.I.H.4.:.'.` G q.C.                          ",
"                        k.^.U I f ..y =+_+w+%+4+i+v.2.&+Q.{+++ + +=+O.a.|+l.9.|.l.|.K ].W W |.2.7 x.A.                          ",
"                        S.p | 2.i ~.w.^+k+q+%+-+g+>+<.Q.6+=+{+ +@+{+:+~.[+v.|.1.n.l.].'.'.:.{.` 7 n.u.                          ",
"                      '.Q.7 f n p F p.:+s+f+%+%+c+|+B.P.%+=+ + +{+:+_+P.v.I.|.9.1.n.9.1.{.4.q.].y '.m.F.                        ",
"                      |.o.6 ..y z T  .3+s+)+%+R.c+>+o.<.&+=+@+ + +t.#.Y #.2.].9.9.1.k.4.^.x.Z.2+].G q.F.                        ",
"                      J.#.y U z z T T B.w+[+R.o.g+B.9.R.I.-+O.@+O.B.-+h.j.2.2.9.|.J.x.4.o.W g ].&+7 q.Q.                        ",
"                      &+| [ ^.n z T c.a.4+R.R.o.2+I.` l.9.4+:+^+O.~.4+o.b.o.Q.o.Z :.x.9.P.{.Z G Q.7 x.H.                        ",
"                    G &+1 6 j n F  .c.~.R.%+P.h.2+v.'.Z v.R.%+3+{+p.R.^.Y h.X ;+n.{.k.9.S.I.;+^.v.f n.q.                        ",
"                    Z Q.1 i n n F T 0.~.b.%+L.6.&+S.l.'.v.G L.R.6+R.#.L.o.-+` X }+1.9.|.K v.Z.K '.j 1.q.F.                      ",
"                    9.l.I b.z n y T c.a.2.-+B.a.B.*+|.].Q.^.o.#.2.[+b.P.%+1.].'.>+4.1.].X A =.1.].x ].u.r.                      ",
"                    l.9.I ^.z z z F ~.a.<.>+R.T.j.v.9.'.&+^.I K.P.J.&+Z Z |.].'.9.H.].'.'.=.1.1.9.G {.u.C.                      ",
"                    I.x 1 ^.n n C Q  .6.<.R.P.-+j.h.|.Z &+'.^.b.2.V.g+l.|.|.1.1.'.|.q.k.'.:.1.1.n.#.'.N.>+                      ",
"                    Q.j 6 6 i n j F Q /.<.P.h.|+h.^.o.o.&+|.L.F l.=.}+*+1.].].].|.Z K '.'.x.S.'+;+].Z N.>+                      ",
"                    Q.l 1 | 6 i j y F F |.v.^.2.o./.o.%+;+l.&+b.'.^.{.5+4.|.1.1.'.&.{.X '.=.g o W 9.Z s.W.                      ",
"                    Q.f | ..| i j C y I Z o.O 2.>+K.h.I.;+I.'+I.K v.Q.;+&+4.{.{.:.|.{.V X q.V Z =.I W u.A.                      ",
"                    Q.6 ! ^.| i l C C G ` h.Y U %+4+2.o.&+x.;+S.` v.4.c+m+1.1.1.:.1.=.W m 2+k.1.x.` :.s.f.                      ",
"                    Q.f | j | 7 l y j ` ` P.$.^.h.i+|.9.'+J.;+2+l.9.J.V.B+4.1.1.(.5.:.:.Z s =.4.$+'.{.s.|.                      ",
"                    Q.f ! ! | 7 j j m <.<.%+)+2.j '+q.v.>+S.Z.g+I.S.Z.m.g+S.1.1.1.5.5.{.:.=.J V J x 4.N.8.                      ",
"                    I.m / ( | 6 i j 9 o.o.R.B.6+v.v.S.9.&+x.I.g+%+,+l.Z.7+c+4.:.1.5.(.&.(.=.{.5.4.A 4.u.8.                      ",
"                    o.` 7 1 1 6 f f f o.#.h.%+v.&+&+|+J.Z.v.R.g+2+1+W '+g+m+5.5.4.5.=.Z ;+4.{.(.4.m m.5.                        ",
"                    |.l.U y j 1 ..U f I o.P.%+[+R.9.S.9.Q.R.%+5+m+e+J.v.,+u+5.(.5.(.=.X 4.}+'+m.4.m u.{.                        ",
"                    Y Q.O 7 ^.6 x k ..U h x o.|+>+l.n.k.H.R.B.5+m+g+i+k.$+B+m.$+5.(.%.'.H V m.;+Q.G u.>.                        ",
"                    G Q.f , 1 7 ` k 1 I 2.h.'.X '.Q.x.1.k.l.X Q.H.J.g+}+&+7+Z.,+i.5.%.(.=.=.A 4.9.Z k.|.                        ",
"                    ` &+! ( f I j B 7 f b.U ].P.I.*+Q.l.4.H.K Z.7+u.4.*+I.<+<+,+s.5.(.S (.s Z l.` ].4.f.                        ",
"                      Q.j ( | b.h f l 6 f 6.h.2.O 2.R.[+I.c+I.;+c+<+}+*+B.<+V.M.`.5.(.(.%.(.J '.O n.5.                          ",
"                      8.l.y <.h.f k j f f ~.6.2.b.P.P.9.^.|.l.u.$+$+Z.S.S.Z.,+s.`.m.v.N.(.5.5.|.K u.=.                          ",
"                      U &+<.f 3 f k l F 7 n T /...Y Y 2.l.I.Q.S.$+$+N.u.5.(.,+3.`.4.'.m.(.(.4.#.'.m.>.                          ",
"                      Y &+f , ( #.l j I C 7 l Y ..<.^.2.2.Z :.5.5.(.5.i.s.i.$+[.V.4.x.k.,+$+4.I 9.m.f.                          ",
"                        l.]., ( ..G k U I $.1 7 Y Y ^.#.2.9.m.u.m.3.i.s.s.M.@.i.`.m.*+k.%.V.9.K m.{.                            ",
"                        O &+/ ( y Y k I #.G Y ^ ^ h k g o g S %.%.(.3.i.i.i.R `.!+`.J %.(.m.>.].m.4.                            ",
"                        Y Q.m ( y X l.f x B Y O G A g 8 g 8 b b g b S [.3.@.@.s.#+1+!+s.i.m.O m.m.                              ",
"                          Y &+1 ^ e 8 5 9 ] ) ] } 8 h g o H &.X &.1.m.4.3.@.i.s.!+d+1+!+i.4.'.m.4.                              ",
"                          B &+O <.] 9 h g h k o m o A A A A o b { { 8 g t $+`.u.!+d+r+1+`.=.k.m.k.                              ",
"                            G &+k ) 9 e 5 h k o A H A K X V V J K H V H H S ,+V.!+r+r+1+k.5.u.4.                                ",
"                            B I.^.( } o.8 h o.o A H K K X V %.&.J S J J W R %.7+,+r+r+V.{.q.u.                                  ",
"                              k |+m 9 { } 1 G k O |.H K K V W {.=.S S &.(.3.i.@.!+u+7+'.u.V.q.                                  ",
"                              G Y >+h } } } 2 } k Z.K K l.V K '.&+5.%.{.<+#+!+!+i.N.9.x.V.u.                                    ",
"                                e 9.&+9 ^ e 8 ^ ].Z X o K q.A J J 7+M.%.i.1+1+e+7+x.9.`.u.                                      ",
"                                  k v.Z.9 ) 8 m } o g A |.V g m.g i.1+1+!+1+1+<+v.|.$+,+H.                                      ",
"                                    5 v.>+m 8 x '.} h e 2 H.o V.5.R !+r+d+e+,+9.l.u.V.A.                                        ",
"                                      h |.}+4.8 ) ^ h A l.o H s (.t `.r+u+Z.|.q.q.N.4.                                          ",
"                                        k x Z.'+n.B e 2 8 8 A H H 3.7+e+v.9.q.u.m.k.                                            ",
"                                          x 9 '.*+2+Z.x.n.4.u.N.,+;+J.n.k.m.3.m.                                                ",
"                                            |.A 8 O 9.J.Q.S.Z.q.k.k.l.5.%.(.5.                                                  ",
"                                                Z e 8 8 g o A A s s w W 4.                                                      ",
"                                                      |.X A Z V =.|.                                                            "};
