/* XPM */
static char * item_rot_2c_32_xpm[] = {
"32 32 255 2",
"  	c #000000",
". 	c #160506",
"+ 	c #0A0827",
"@ 	c #310203",
"# 	c #3C0002",
"$ 	c #280703",
"% 	c #250821",
"& 	c #261507",
"* 	c #461D05",
"= 	c #4B1C1D",
"- 	c #3F2A09",
"; 	c #45281A",
"> 	c #402831",
", 	c #452B26",
"' 	c #353033",
") 	c #402F1D",
"! 	c #3D3029",
"~ 	c #4E3909",
"{ 	c #524130",
"] 	c #4E423D",
"^ 	c #5D4032",
"/ 	c #5D4242",
"( 	c #4D4C53",
"_ 	c #60503F",
": 	c #5C514F",
"< 	c #5F5148",
"[ 	c #3C602E",
"} 	c #496727",
"| 	c #3D6C25",
"1 	c #6A5B54",
"2 	c #6E5E4D",
"3 	c #6A5F60",
"4 	c #686159",
"5 	c #646263",
"6 	c #A95066",
"7 	c #7B5F5F",
"8 	c #71635B",
"9 	c #487B31",
"0 	c #537834",
"a 	c #4D7940",
"b 	c #4D794D",
"c 	c #5A7647",
"d 	c #7B6D6B",
"e 	c #7C6E64",
"f 	c #7E6E5D",
"g 	c #75706C",
"h 	c #717176",
"i 	c #617E2B",
"j 	c #57832B",
"k 	c #4E862A",
"l 	c #51891F",
"m 	c #5F8437",
"n 	c #538740",
"o 	c #548837",
"p 	c #5E8541",
"q 	c #887972",
"r 	c #827B72",
"s 	c #7F7C7A",
"t 	c #5C8D53",
"u 	c #678A52",
"v 	c #8A7C7F",
"w 	c #8F7D6D",
"x 	c #668B60",
"y 	c #5A9529",
"z 	c #808286",
"A 	c #589638",
"B 	c #5A944B",
"C 	c #5F9439",
"D 	c #639242",
"E 	c #5B9542",
"F 	c #69904B",
"G 	c #61934C",
"H 	c #91827A",
"I 	c #8B847A",
"J 	c #878583",
"K 	c #6B952F",
"L 	c #BC7787",
"M 	c #6B973E",
"N 	c #5E9F24",
"O 	c #898C6A",
"P 	c #5FA21C",
"Q 	c #62A034",
"R 	c #6B9E35",
"S 	c #908D8B",
"T 	c #6A9F44",
"U 	c #8C8E92",
"V 	c #63A243",
"W 	c #6A9F4D",
"X 	c #65A056",
"Y 	c #6F9C61",
"Z 	c #6C9E56",
"` 	c #699D6D",
" .	c #62A24D",
"..	c #679F61",
"+.	c #759C56",
"@.	c #779B67",
"#.	c #9D8D86",
"$.	c #759B79",
"%.	c #9C8D90",
"&.	c #9F8E7E",
"*.	c #979188",
"=.	c #9A917F",
"-.	c #66AE1D",
";.	c #68AC31",
">.	c #989593",
",.	c #94969A",
"'.	c #70A93E",
").	c #68AC3D",
"!.	c #69AE4D",
"~.	c #71AC4A",
"{.	c #71AC51",
"].	c #71AB60",
"^.	c #70AC58",
"/.	c #6BAD60",
"(.	c #67AF58",
"_.	c #7CA958",
":.	c #7AA961",
"<.	c #7CAA51",
"[.	c #83A851",
"}.	c #7DAD36",
"|.	c #6CB32E",
"1.	c #8BA763",
"2.	c #9B9EA2",
"3.	c #A19D99",
"4.	c #75AF71",
"5.	c #78B528",
"6.	c #70B63B",
"7.	c #70B643",
"8.	c #7AB348",
"9.	c #70B64A",
"0.	c #7FAE73",
"a.	c #C1969F",
"b.	c #AB9DA0",
"c.	c #CD93A1",
"d.	c #AD9E97",
"e.	c #88AD76",
"f.	c #B09F8E",
"g.	c #A9A194",
"h.	c #70BC28",
"i.	c #9AAA68",
"j.	c #ACA28D",
"k.	c #73B954",
"l.	c #70B962",
"m.	c #72B95B",
"n.	c #7BB75B",
"o.	c #74B86A",
"p.	c #7DB755",
"q.	c #7AB762",
"r.	c #71C204",
"s.	c #7CB66B",
"t.	c #87B55A",
"u.	c #87B562",
"v.	c #85B56C",
"w.	c #A3A7AB",
"x.	c #8FB45B",
"y.	c #A9A6A2",
"z.	c #95B16D",
"A.	c #7BBE50",
"B.	c #77C250",
"C.	c #78C346",
"D.	c #85BE52",
"E.	c #7AC43F",
"F.	c #A1B289",
"G.	c #91B78F",
"H.	c #82C248",
"I.	c #78C733",
"J.	c #86C165",
"K.	c #7EC45F",
"L.	c #88C06B",
"M.	c #7EC926",
"N.	c #7DC466",
"O.	c #B2AEA9",
"P.	c #87C25F",
"Q.	c #7FC374",
"R.	c #80C281",
"S.	c #81CB1C",
"T.	c #82C46D",
"U.	c #8DBF82",
"V.	c #83C656",
"W.	c #D2A6B0",
"X.	c #85C839",
"Y.	c #87C744",
"Z.	c #C0AE9C",
"`.	c #88C376",
" +	c #8DC54C",
".+	c #BEAEAA",
"++	c #98BD86",
"@+	c #ACB3B7",
"#+	c #93C16E",
"$+	c #B3B1B6",
"%+	c #91C177",
"&+	c #B9B1A4",
"*+	c #BCB19D",
"=+	c #95C266",
"-+	c #9BBF79",
";+	c #8CC294",
">+	c #8FC85B",
",+	c #88CB5B",
"'+	c #89CC51",
")+	c #B9B6B1",
"!+	c #8FC96D",
"~+	c #90CA66",
"{+	c #95CB4A",
"]+	c #90D213",
"^+	c #92CA74",
"/+	c #99CD40",
"(+	c #91CD7E",
"_+	c #A2CB61",
":+	c #98CF5F",
"<+	c #94CD8C",
"[+	c #A0CC70",
"}+	c #9ECC78",
"|+	c #9CCC81",
"1+	c #ADC77F",
"2+	c #99D070",
"3+	c #A7CB84",
"4+	c #C3BEB9",
"5+	c #A3CE91",
"6+	c #A1CCB3",
"7+	c #DBB9C6",
"8+	c #DEB9C0",
"9+	c #C0C2C6",
"0+	c #A2D09F",
"a+	c #BCC4CE",
"b+	c #CFC1AD",
"c+	c #CBC2B5",
"d+	c #B9C8BC",
"e+	c #C5C6AA",
"f+	c #B1CF96",
"g+	c #AFCF9E",
"h+	c #AECFA8",
"i+	c #AAD578",
"j+	c #ACD682",
"k+	c #CCC7C2",
"l+	c #ABD68C",
"m+	c #BBD7C1",
"n+	c #B3DDA0",
"o+	c #E6CDD8",
"p+	c #E1D0CE",
"q+	c #DDD3BD",
"r+	c #DBD3C5",
"s+	c #BDDEB4",
"t+	c #D2D5D8",
"u+	c #D8D4CF",
"v+	c #CCD7E2",
"w+	c #F2E1DF",
"x+	c #EBE4D6",
"y+	c #DAE7F2",
"z+	c #E9E5E0",
"A+	c #F7E0EA",
"B+	c #E4E6EA",
"C+	c #F1E9D3",
"D+	c #F3F3F4",
"E+	c #FBF7ED",
"F+	c #FFFFFF",
"V.=+L.%+q.J.#+-+L.#+q.%+e.L.0.^.:.L.s.L.0.s.q.:.%+}+v.p.V.n.s.p.",
"H.K.n.U.e.P.t.%+t.u.].J.].q.q.{.v.v.q.q.%+:.{.u.t.q.v.q.A.8.v.L.",
"p.C.u.U.e.u.#+-+p.v.:.].X ^.~.{.@.:.q.J.%+s.s.v.{.{.n.L._.p.n.s.",
"K.C.m.e.:.u.q.v.v.v.L.%+G.&+)+4+4+e+F.++%+:.v.].].:.p.{.p.p.q.:.",
"A.9.u.J.v.v.v.%+s.z.*+3.$+t+z+B+k+k+4+%.&+g.e.:.].n.J.n.<.<.8.8.",
"v.~.^.^.L.v.J.e.F.3.y.k+k+k+r+B+t+u+k+k+)+y.&+F.s.n.K.J._.:.n.J.",
"%+].:.{.v.n.k.3.O.O.y.y.c+p+z+D+B+p+k+)+O.O.)+d.y.v.v.q.s.v.u.:.",
"`.q.9.k.n.s.F.O.&+H O.y.)+k+E+F+D+u+r+4+)+)+)+y.y.F.:.`.`.`.^.:.",
"`.s.s.J.p.++)+3.#.%.y.b+y.O.t+F+u+k+4+9+4+&+O.3.O.3.F.0.v.s.s.v.",
"n.v.u.n.z.b.3.q H #.f.q+r+u+O.z+z+k+k+)+u+)+y.3.>.>.y.e.q.:.v.`.",
"q.1.J.q.O O.e J r *..+x+z+k+k+)+k+y.g.d.4+k+y.3.3.3.>.y.:.].e.`.",
"].`.n._.4+*.d I q H .+x+u+k+x+)+4+c+b+c+b+k+y.y.y.>.*.w.0.].q._.",
"~.J.A.++4+1 e J H &.%.k+r+.+t+O.)+c+b+&+O.O.3.3.3.,.3.S ++q.q.8.",
"^.n.P.G.3.r S q I #.j.y.k+y.k+y.>.4+k+.+)+3.O.3.y.O.O.S F.+._.~.",
"J.n.p.3.>.d y.d q H j.>.k+O.O.y.3.3.y.)+O.)+3.)+3.3.y.*.y.W Y n.",
"s.q.:.g.J 8 d e r H H *.4+4+g.y.O.O.3.2.4+3.3.3.3.>.w.3.O.s.4.q.",
"%+q.:.g.I 1 S 8 r q q S )+S 4+O.)+$+)+3.4+)+3.>.>.>.3.y.O.s.:.%+",
"++@.v.g.S 1 e 8 d q I >.4+y.g.)+O.)+u+)+O.t+3.,.2.U >.3.g.k.Z :.",
"%+^.8.F.>.8 e 8 e r d b.)+k+4+)+O.)+k+t+O.t+$+2.>.O.y.>.F.C.W ].",
"`.k.k.e.4+r 8 v q J I J >.)+4+O.y.O.4+k+9+9+k+w.,.S y.>.e.n.n.v.",
"L.L.n.`.O.*.: r d s e I d.g.b.)+)+)+)+a+4+O.9+$+2.2.>.3.u.<.n.v.",
"J.P.t.n.e.)+r J H r r e q #.>.S >.3.y.w.2.@+w.9+w.$+2.2.K.{.Y q.",
"s.q.<.p.v.y.S < 8 S r H I d d s s J U ,.2.2.w.a+a+w.2.++J.q.q.s.",
"n.q.:.J.].e.4+e e S S e g r s g r s h g s J @+v+v+y.G.J.q.q.J.J.",
"n.v.`.#+L.J.$.y.S 3 3 g g J s J J J >.>.U w.9+9+)+y.%+#+L.%+P.L.",
"q.L._.u.v.P.t.O )+J g g 3 g *.>.S >.s O.a+a+a+O.O.U.`.!+(+^+~+J.",
"q.q.Z ^.q.q.J.K.@.>.O.S 1 3 S g I S S z a+9+w.G.s.q.`.s.J.K.V.P.",
"J.m.].:.n.v.P.{.D.q.O O.)+>.S S J S w.$+2.>.U.P.q.L.s.L.J.k.A.A.",
"^.^.^.:.p.q.v.v.J.K.P.z.:.e.*.>.>.*.*.$.@.L.n.{.u.D.^.u.q.].p.7.",
"4.q.s.0.`.q.:.P.p.V.V.J.D.{.{.n.9.{.s.].].v.s.k.n.A.q.q.L.s.:.:.",
"L.u.`.`.L.J.u.q.P.D.J.P.P.A.p.k.^.q.].:.q.s.v.{.].m.n.L.J.u.0.`.",
"P.J.U.%+q.J.-+v.:.L.L.P.n.P.n.q.s.].s.e.:.s.v.L.q.:.L.!+J.0.e.L."};
