/* XPM */
static char * item_rot_1a_32_xpm[] = {
"32 32 255 2",
"  	c #000000",
". 	c #1B0200",
"+ 	c #260601",
"@ 	c #271200",
"# 	c #322200",
"$ 	c #3F3200",
"% 	c #3D3023",
"& 	c #3E3210",
"* 	c #4D411E",
"= 	c #4D432D",
"- 	c #4D443B",
"; 	c #405932",
"> 	c #5B523B",
", 	c #5B5245",
"' 	c #3B6526",
") 	c #3E6A3A",
"! 	c #675E3F",
"~ 	c #6A604A",
"{ 	c #6A6152",
"] 	c #69615C",
"^ 	c #417430",
"/ 	c #4B7232",
"( 	c #597337",
"_ 	c #497C2C",
": 	c #53792C",
"< 	c #5A764C",
"[ 	c #4F7C4A",
"} 	c #4C803A",
"| 	c #567D3D",
"1 	c #79705E",
"2 	c #787065",
"3 	c #4C8328",
"4 	c #607D29",
"5 	c #558128",
"6 	c #7A7452",
"7 	c #4D871E",
"8 	c #508916",
"9 	c #4F8F3C",
"0 	c #598C3C",
"a 	c #857B6A",
"b 	c #628A3B",
"c 	c #618A42",
"d 	c #5F8A4B",
"e 	c #678849",
"f 	c #598D42",
"g 	c #588D4B",
"h 	c #5B8C56",
"i 	c #78844E",
"j 	c #5C8F34",
"k 	c #858166",
"l 	c #898075",
"m 	c #6A8F37",
"n 	c #5A9622",
"o 	c #589537",
"p 	c #5B952C",
"q 	c #6F8E41",
"r 	c #6B8F5D",
"s 	c #6A8F68",
"t 	c #8D8472",
"u 	c #63973C",
"v 	c #5C9C48",
"w 	c #69984E",
"x 	c #609B4E",
"y 	c #659A48",
"z 	c #6F9748",
"A 	c #659862",
"B 	c #689857",
"C 	c #5F9B56",
"D 	c #749556",
"E 	c #968D7A",
"F 	c #6EA13A",
"G 	c #68A33A",
"H 	c #6BA331",
"I 	c #63A720",
"J 	c #6CA146",
"K 	c #889663",
"L 	c #63A630",
"M 	c #63A63C",
"N 	c #74A046",
"O 	c #66A542",
"P 	c #65A549",
"Q 	c #969278",
"R 	c #999085",
"S 	c #68A954",
"T 	c #6FA754",
"U 	c #76A554",
"V 	c #6EA75A",
"W 	c #9E9582",
"X 	c #71A56F",
"Y 	c #6BA862",
"Z 	c #74A65A",
"` 	c #72A662",
" .	c #68AA5B",
"..	c #7DA45B",
"+.	c #7EA26F",
"@.	c #7BA464",
"#.	c #6CB13E",
"$.	c #6CB146",
"%.	c #6BB150",
"&.	c #73AF4D",
"*.	c #73B236",
"=.	c #72B054",
"-.	c #84AA5A",
";.	c #7AAE52",
">.	c #6CB536",
",.	c #6DB627",
"'.	c #A69D8A",
").	c #A69D91",
"!.	c #7AB242",
"~.	c #84AA82",
"{.	c #78B34A",
"].	c #9AA670",
"^.	c #80B24A",
"/.	c #73B666",
"(.	c #71B66E",
"_.	c #6FB860",
":.	c #7CB460",
"<.	c #76B660",
"[.	c #7DB466",
"}.	c #70BE21",
"|.	c #73BA47",
"1.	c #83B360",
"2.	c #7CB46E",
"3.	c #7DB37B",
"4.	c #8AB167",
"5.	c #74BA4E",
"6.	c #73BA55",
"7.	c #89B170",
"8.	c #72BA5C",
"9.	c #8BB07C",
"0.	c #7BB859",
"a.	c #83B65A",
"b.	c #AEA592",
"c.	c #ADA599",
"d.	c #9BAC8C",
"e.	c #73C234",
"f.	c #77C145",
"g.	c #77C23D",
"h.	c #7DC135",
"i.	c #82C044",
"j.	c #7BC255",
"k.	c #7BC25C",
"l.	c #79C44F",
"m.	c #82C063",
"n.	c #84C05D",
"o.	c #88BE70",
"p.	c #7DC271",
"q.	c #8BBF62",
"r.	c #7FC26B",
"s.	c #89BF6A",
"t.	c #B6AD9A",
"u.	c #7CC465",
"v.	c #B6ADA1",
"w.	c #88BF78",
"x.	c #7EC92D",
"y.	c #7DC37B",
"z.	c #7ECB1A",
"A.	c #83C552",
"B.	c #89C55A",
"C.	c #ACB781",
"D.	c #A5B891",
"E.	c #82CA3E",
"F.	c #98BF71",
"G.	c #8DC554",
"H.	c #97BF7A",
"I.	c #B9B298",
"J.	c #81CA4A",
"K.	c #95BF83",
"L.	c #A3BB83",
"M.	c #98BE91",
"N.	c #84C95C",
"O.	c #8AC483",
"P.	c #83C963",
"Q.	c #92C55C",
"R.	c #A3BF67",
"S.	c #89CF12",
"T.	c #8AC867",
"U.	c #91C671",
"V.	c #90C677",
"W.	c #A6BCA1",
"X.	c #93C769",
"Y.	c #BEB5A2",
"Z.	c #8ECB4E",
"`.	c #BEB5A9",
" +	c #90CC42",
".+	c #93CD32",
"++	c #89CB75",
"@+	c #91C794",
"#+	c #92C981",
"$+	c #96CE6E",
"%+	c #9FCE53",
"&+	c #99CF5E",
"*+	c #99CF65",
"=+	c #99CD7F",
"-+	c #99CE78",
";+	c #A3CB7D",
">+	c #A2CC86",
",+	c #A0CC8F",
"'+	c #AEC986",
")+	c #CEBCAB",
"!+	c #C6BEB1",
"~+	c #B4C87E",
"{+	c #C8BEAB",
"]+	c #A1CF72",
"^+	c #C3C0AA",
"/+	c #AACB91",
"(+	c #9EDA0F",
"_+	c #9BD18C",
":+	c #A7CC9D",
"<+	c #B1CA92",
"[+	c #AACF74",
"}+	c #A6CCA9",
"|+	c #BBCB9C",
"1+	c #B6CCAF",
"2+	c #D6C4B3",
"3+	c #D1C6B3",
"4+	c #CFC7BA",
"5+	c #AFD687",
"6+	c #CDC9B4",
"7+	c #AED690",
"8+	c #BAD29A",
"9+	c #B0D79B",
"0+	c #B5D9AA",
"a+	c #DFCCBB",
"b+	c #B7DAB7",
"c+	c #DACFBC",
"d+	c #D3D1C2",
"e+	c #D5D1BC",
"f+	c #C0D8BE",
"g+	c #D9D0C2",
"h+	c #C4D9B4",
"i+	c #DAD3B9",
"j+	c #DAD5CD",
"k+	c #E6D5CA",
"l+	c #E8D5C4",
"m+	c #E2D7C4",
"n+	c #DBD9CA",
"o+	c #DDD9C4",
"p+	c #E1D8CB",
"q+	c #CEE4BB",
"r+	c #F0DDCC",
"s+	c #EBDFCC",
"t+	c #E5E1CC",
"u+	c #E9E0D3",
"v+	c #EFDED5",
"w+	c #E3E2D3",
"x+	c #D6E8D5",
"y+	c #F1E9DC",
"z+	c #F0EAD5",
"A+	c #EFEAE3",
"B+	c #F7F2EB",
"C+	c #FAF2E4",
"D+	c #FAF4DF",
"E+	c #FFFBEC",
"F+	c #FFFFFF",
"A.q.o.V.1.s.F.H.4.o.1.U.o.T.o.Z :.o.[.o.2.2.[.@.w.U.7.j.n.0.7.0.",
"J.n.:.H.w.q.n.H.a.1...m.` :.Z T 2.w.[.m.w.[.=.4.n.0.o.[.^.^.4.m.",
"n.f.:.K.9.m.o.H.;.[.Z Z V U {.%.` ` :.m.w.2.[.7.U T 0.o.-.0.:.[.",
"n.|.<.w.@.:.1.s.s.7.V.K.D.I.^+^+^+^+|+/+K.@.o.[.` @.;.=.0.a.a...",
"j.{.1.m.2.o.o.V.[.K.^+b.c.^+!+6+!+{+^+t.^+^+K.<.` 0.m.0.{.{.{.{.",
"1.&.V =.s.2.s.H.|+`.t.4+o+o+g+d+g+e+g+g+{+Y.^+D.4.k.u.s.Z @.;.s.",
"H.Z @.6.2.;.o.Y.).4+j+g+!+Y.!+4+g+3+4+d+g+g+`.t.^+9.2.:.2.4.:.:.",
"w.:.=.0.0.w.Y.t.e+6+4+!+t.c.!+4+^+t.t.!+e+4+v.4+Y.^+7.o.o.o.Z @.",
"o.[.2.[.0.<+c.n+p+4+u+4+t.b.4+t+g+v.b.`.t+4+c.o+e+v.D.7.4.4.@.7.",
":.o.s.0.L.`.g+t+t+d+d+!+v.v.e+!+!+`.t.4+4+4+).g+n+6+!+K.[.@.[.o.",
"/.+.s.s.^+^+u+u+p+).).).o+g+o+p+g+e+e+t.'.'.).g+g+g+`.Y.@.V 7.w.",
"Z w.:.H.).g+t+g+j+b.).b.g+!+e+e+6+!+e+v.b.).b.4+g+o+`.Y.9.Z :.Z ",
"J m.l.D.`.4+d+4+g+!+g+!+4+4+4+4+Y.!+g+4+e+e+`.4+4+`.e+b.D.:.[.6.",
"=.n.n.D.!+6+'.t.p+`.4+t.4+e+^+d+!+4+e+b.6+`.'.e+c.b.4+!+Y.U ..&.",
"q.0.a.Y.!+4+e+d+p+e+p+!+6+!+^+!+!+6+6+c.g+e+Y.e+4+4+e+!+^+P Z Z ",
"s.:.:.v.!+e+p+p+p+`.`.t.4+{+^+4+6+!+6+t.`.`.'.e+p+p+g+Y.`.[.[.[.",
"V.<.Z v.!+e+g+p+u+v.t.b.!+!+6+g+4+4+e+{+b.b.t.g+n+o+g+!+Y.[.X w.",
"K.@.o.Y.`.4+n+e+g+^+b.!+e+6+4+{+v.!+!+g+Y.W Y.t+d+d+4+`.t.6.B :.",
"V.T &.D.v.6+Y.!+!+e+t.6+4+n+g+!+!+g+t+g+Y.b.`.c.!+v.4+Y.D.|.J ` ",
"o.0.6.L.c.!+v.E !+p+!+).g+{+`.b.b.6+4+v.W `.d+c.t v.4+c.L.0.0.7.",
"s.s.:.H.b.!+!+6+4+t+p+!+b.^+R ).'.'.`.R {+p+t+e+4+`.6+t.o.;.0.s.",
"m.m.:.-.Y.t.e+g+g+g+e+g+e+`.v.v.t.c.b.4+p+t+o+g+e+6+t.'.m.T ` :.",
"[.:.;.j.9.`.!+4+g+6+4+6+e+4+e+6+!+4+4+e+e+e+e+e+4+{+t.H.m.[.:.s.",
":.1.1.s.V D.`.4+4+!+4+^+^+!+!+4+e+g+!+6+^+`.^+{+`.b.L.s.[.m.m.m.",
";.o.V.F.m.s.D.!+^+!+{+!+Y.^+Y.6+v.I.{+Y.^+6+Y.Y.t.d.V.U.U.U.q.o.",
"<.T.0.1.4.m.s.I.3+Y.t.v.^+t.!+`.Y.`.`.`.t.{+Y.c.D.o.w.++#+V.X.m.",
"[.[.Z =.:.[.m.s.D.{+6+!+`.b.v.Y.t.Y.t.Y.`.v.t.d.q.m.o.o.o.m.A.N.",
"o.V Z :.0.o.m.=.0.s.D.Y.{+{+{+`.Y.`.`.Y.c.c.7.n.[.T.[.s.m.=.5.j.",
"=.Z V Z =.:.4.4.q.n.k.H.L.d.b.t.b.b.d.~.+.s.0.&.m.A.6.:.:.Z ;.$.",
"<.<.2.[.w.m.@.m.n.B.n.Q.a.=.=.0.6.=.2.` =.s.[.=.a.5.<.n.s.[.Z ` ",
"s.1.w.o.o.q.[.1.n.0.m.m.B.0.0.&.V :.` @.[.2.[.=.:.:.n.U.m.1.[.o.",
"n.q.K.o.n.m.H.w.:.o.s.m.0.m.0.<.2.Y 2.3.:.2.1.2.:.-.s.T.m.2.o.o."};
