/* XPM */
static char * item_rot_3c_32_xpm[] = {
"32 32 255 2",
"  	c #000000",
". 	c #1A0910",
"+ 	c #33150C",
"@ 	c #412C04",
"# 	c #3A2F2F",
"$ 	c #442F23",
"% 	c #50413A",
"& 	c #5A4632",
"* 	c #464D4B",
"= 	c #544E4F",
"- 	c #5F5048",
"; 	c #3A6032",
"> 	c #3E6429",
", 	c #3A6D20",
"' 	c #476C24",
") 	c #705D4D",
"! 	c #6C5F58",
"~ 	c #676161",
"{ 	c #5A6843",
"] 	c #457334",
"^ 	c #5C742E",
"/ 	c #497C30",
"( 	c #4A7A47",
"_ 	c #686E6C",
": 	c #55774A",
"< 	c #497E26",
"[ 	c #547A30",
"} 	c #58783C",
"| 	c #4A7F1E",
"1 	c #507F3F",
"2 	c #7D6F63",
"3 	c #78706D",
"4 	c #50883A",
"5 	c #57873B",
"6 	c #5D8B35",
"7 	c #538F2B",
"8 	c #648934",
"9 	c #5B8D2C",
"0 	c #63893F",
"a 	c #568E35",
"b 	c #827B78",
"c 	c #8F7878",
"d 	c #798441",
"e 	c #56921E",
"f 	c #618B49",
"g 	c #588E52",
"h 	c #5F8C52",
"i 	c #688A49",
"j 	c #668A52",
"k 	c #5A8F4B",
"l 	c #8B7D71",
"m 	c #589141",
"n 	c #5F8F43",
"o 	c #628C5F",
"p 	c #818185",
"q 	c #8A8481",
"r 	c #798E57",
"s 	c #768E69",
"t 	c #5D9B35",
"u 	c #5F9949",
"v 	c #69974B",
"w 	c #6B9C2C",
"x 	c #699C3A",
"y 	c #679C43",
"z 	c #6E9A43",
"A 	c #659F2C",
"B 	c #5FA12B",
"C 	c #609F44",
"D 	c #5FA31C",
"E 	c #6A9D58",
"F 	c #669E60",
"G 	c #729B58",
"H 	c #819751",
"I 	c #928D89",
"J 	c #719B61",
"K 	c #64A240",
"L 	c #64A059",
"M 	c #64A339",
"N 	c #62A250",
"O 	c #6F9C6D",
"P 	c #69A151",
"Q 	c #719F52",
"R 	c #9C8E81",
"S 	c #869691",
"T 	c #BA8690",
"U 	c #929297",
"V 	c #A78F91",
"W 	c #67AB35",
"X 	c #66AE1D",
"Y 	c #9A9592",
"Z 	c #68AC41",
"` 	c #67AC48",
" .	c #70AA46",
"..	c #6BAB4F",
"+.	c #6AAB58",
"@.	c #73A956",
"#.	c #75A94F",
"$.	c #72A95C",
"%.	c #7DA65A",
"&.	c #6AB12C",
"*.	c #75AD3B",
"=.	c #6EAC66",
"-.	c #76AA67",
";.	c #6AB43C",
">.	c #72B33E",
",.	c #74AE75",
"'.	c #A29D99",
").	c #8BA960",
"!.	c #82AC68",
"~.	c #81AC6E",
"{.	c #6FB549",
"].	c #78B528",
"^.	c #80AC76",
"/.	c #7DAC82",
"(.	c #6FB551",
"_.	c #67B758",
":.	c #75B357",
"<.	c #6FB558",
"[.	c #79B34E",
"}.	c #B7999E",
"|.	c #72B45E",
"1.	c #7EB157",
"2.	c #71B464",
"3.	c #8DAA75",
"4.	c #9FA1A6",
"5.	c #7CB25E",
"6.	c #AC9F90",
"7.	c #7BB264",
"8.	c #6DBC29",
"9.	c #74BA2A",
"0.	c #76B46D",
"a.	c #86B063",
"b.	c #BA9BA7",
"c.	c #70BF17",
"d.	c #7FB36E",
"e.	c #72BC40",
"f.	c #71C204",
"g.	c #7ABB46",
"h.	c #AAA5A1",
"i.	c #74BF4B",
"j.	c #73BF52",
"k.	c #76C03C",
"l.	c #70BF5F",
"m.	c #77BE59",
"n.	c #7FBE3C",
"o.	c #7ABE52",
"p.	c #75BE66",
"q.	c #77BE5F",
"r.	c #99B271",
"s.	c #7CBC66",
"t.	c #7EBC60",
"u.	c #81BC59",
"v.	c #79BD6D",
"w.	c #83BD53",
"x.	c #85BB67",
"y.	c #87BB60",
"z.	c #84BB6D",
"A.	c #8DBA58",
"B.	c #86BE4A",
"C.	c #A1AEB1",
"D.	c #95B590",
"E.	c #79C447",
"F.	c #79C724",
"G.	c #7AC077",
"H.	c #78C733",
"I.	c #81C34D",
"J.	c #83BF78",
"K.	c #7DC185",
"L.	c #8DBE78",
"M.	c #A7B76C",
"N.	c #8CBE7E",
"O.	c #D0A5AF",
"P.	c #7ECB1B",
"Q.	c #8BBE86",
"R.	c #99BD5F",
"S.	c #96BC7E",
"T.	c #94BE70",
"U.	c #81C65A",
"V.	c #7EC667",
"W.	c #80C660",
"X.	c #9CBC71",
"Y.	c #9DBA85",
"Z.	c #85C839",
"`.	c #94BD87",
" +	c #99BD79",
".+	c #AFB1B7",
"++	c #8FBE93",
"@+	c #82C570",
"#+	c #80C950",
"$+	c #87C568",
"%+	c #8BC55B",
"&+	c #BCB0A0",
"*+	c #81CA46",
"=+	c #8AC561",
"-+	c #B6B1AD",
";+	c #8EC46F",
">+	c #90C469",
",+	c #8DC475",
"'+	c #96C361",
")+	c #8BCC2D",
"!+	c #8BCA57",
"~+	c #8FCB49",
"{+	c #8DCB51",
"]+	c #8DCC64",
"^+	c #90D213",
"/+	c #8BCC6E",
"(+	c #97CF28",
"_+	c #8FCB7B",
":+	c #99CD40",
"<+	c #90CC75",
"[+	c #99CC71",
"}+	c #95CC85",
"|+	c #9ECD5A",
"1+	c #9BCD68",
"2+	c #A2CA7C",
"3+	c #9ACD7E",
"4+	c #9CCD78",
"5+	c #98CC94",
"6+	c #A5CA89",
"7+	c #D3B8BC",
"8+	c #9FCD89",
"9+	c #B0CB6C",
"0+	c #DCB6C5",
"a+	c #AFCA7E",
"b+	c #B6C880",
"c+	c #A9CE75",
"d+	c #A9CF6D",
"e+	c #C9C0B3",
"f+	c #A9CE96",
"g+	c #A6CEA3",
"h+	c #A8CE9C",
"i+	c #C6C2BE",
"j+	c #B7CB8E",
"k+	c #C1C3C8",
"l+	c #B6CC97",
"m+	c #AAD283",
"n+	c #B4CEA5",
"o+	c #AED291",
"p+	c #D3C6AF",
"q+	c #B6D3B8",
"r+	c #BFCFD7",
"s+	c #ADDB97",
"t+	c #B4DB8C",
"u+	c #B7DC9B",
"v+	c #B6DDA4",
"w+	c #B7DEAF",
"x+	c #D7D3CF",
"y+	c #DBD3C5",
"z+	c #D3D4D9",
"A+	c #C1DDB6",
"B+	c #E2E5EA",
"C+	c #E8E5E1",
"D+	c #F1EAD8",
"E+	c #DDEEF8",
"F+	c #FFFFFF",
"w.$+z.,+t.z.T. +z.T.7.,+3.$+z.@.5.z.0.z.z.7.t.7.L.[+z.o.U.5.d.m.",
"I.U.t.N.L.y.u.T.u.x.5.x.-.7.:.@.d.z.5.s.,+7.@.x.y.t.z.7.o.g.~.x.",
"u.n.5.S.3.x.;+4+1.!.$.$.+.+.[.+.-.-.7.y.,+!.~.~.#.#.t.z.5.1.5.x.",
"m.g.|.L.d.x.y.;+;+z.z.z.7.5.=+h.D.-.7.t.x.-.z.7.$.5.1.(.1.1.t.%.",
"u.[.5.x.z.;+z. +d.u.T.,+|.x.D.i+&+3.7.t.5.5.s.-.-.u.=+u.[.[.[.[.",
"x.#.$.@.z.z.$+x.x.$.5.x.q.!.-+x+&+Y.5.:.x.m.1.5.5.5.t.x.$.!.1.$+",
"3+|.-.<.x.:.1.d.@.-.2.V.(.~.i+x+-+D.5.m.:.x.t.t.$.d.J.7.d.!.7.7.",
"_+t.(.:.:.5.5.:.:.$.<.m.7.S.i+z+-+'.$+{.#.d.$.+.d.N.d.L.z.L.@.%.",
";+d.0.x.1.o.[.:.t.j.s.2.5.S.&+C+-+Y a.e.m.@.$.7.7.$.E ~.z.d.!.d.",
"5.z.s.5.t.[.[.g.:.o.t.s.:.3.e+i+-+'.L.i.@.a.y.d.E $.E $.v.%.d.L.",
"2.~.x.5.x.u.>.:.:.$.:.{.(.D.i+-+-+'.3.$+d.5.z.0.O =.~.-.$.$.z.,+",
"|.L.t.1.y.t.m.(.:.:.@.(.N Y i+e+h.h.D.z.d.@.G 7.J.7.,+s.@.@.5.@.",
"..$+I.;+$++.+.:.$.$.Q 7.=.Y &+-+-+h.D.$+7.#.Q ,+:.$.;+x.s.7.7.[.",
"@.u.%+t.:...$.5.m.:.+.-.@.I h.h.h.'.h.;+j...@.5.|.7.t.:.7.Q 5.#.",
"x.t.u.@.m.o.:.:.o.[.$.2.w.q h.h.h.'.h.x.0.7.5.P ..$.%.` ..v J 5.",
"z.5.5.:.5.{.u.5.g.u.a.$.[.I I -+.+Y '.$.$.$.d.Q $.J $.Q :.!.-.7.",
",+7.$.5.@...o.s.$.1.:.@.g.q Y -+k+Y '.(.7.(.t.z.x.-.-.@.$.d.-.L.",
"`.-.z.d.@.:.#.@.@.Q P $.g.q '.i+x+U '.` [.#.x.5.t.u.Q @.:.[.G !.",
"L.Q [.u.>.u.5.7.@.P E 5.7.I I -+x+4.'.P Q %.m...@.o.:.1.o.g.P $.",
"T.1.:.y.[.1.Q :.1.5.7.$.7.3.q -+k+.+'.G -.7.$.(.$.@.5.t.[.u.u.z.",
">+x.5.;+{.1.o.[.g.5.5.5.x.3.b h.-+.+'.=.z.7.5.d.$+5.1.o.o.[.5.z.",
"x.t.1.:.u.@.:.i.{.t.t.$+$+~.l I 4.C.D.z.z.7.|.d.x.x.t.x.t.#.$.5.",
"x.t.1.o.5.[.e.o.u.x.x.t.t.!.b 3 I .+D.,+L.7.5.x.t.u.$+,+t.7.s.z.",
"5.x.5.x.@.:.I.[.=+y.:.o.u.x.b b b k+D.,+x.7.z.U.m.t.;+$+5.s.x.=+",
"5.z.,+>+y.%+:.1.1.w.u.u.u.a.b q U k+/.x.:.:.x.x.#+t.T.;+$+L.=+;+",
"|.$+5.y.x.t.t.y.>+o.u.U.5.y.I b C.r+/.-.d.@.z.;+U.;+J.<+_+,+>+W.",
"t.s.$.:.7.7.x.t.t.U.>+>+x.m.3.q C.C.J $.7.q.s.z.u.t.z.z.@+U.U.U.",
"s.<.|.7.1.z.y.@.u.o.w.u.7.{.%.h.4.Y P E $.z.z.y.t.z.s.z.z.:.i.o.",
"$.|.$.-.:.t.z.x.$+t.w.T.1.#.[.~.Y -.|.=.F z.5.{.x.w.:.x.7.$.[.{.",
"2.q.d.~.N.x.7.y.t.=+u.=+u.#.:.5.#.:.~.$.|.z.7.(.5.:.5.y.$+-.$.$.",
"z.7.L.L.;+y.x.y.y.u.x.y.%+u.o.(.@.5.-.-.7.d.d.@.$.:.u.;+x.a.7.z.",
"y.y.N.L.u.W.S.L.5.z.x.y.5.=+5.q.7.=.0.^.-.d.7.z.s.5.x.$+W.d.J.z."};
