/* XPM */
static char * item_rot_4a_64_xpm[] = {
"64 64 255 2",
"  	c #000000",
". 	c #493E2B",
"+ 	c #396023",
"@ 	c #63594A",
"# 	c #4D623D",
"$ 	c #426A3B",
"% 	c #516B30",
"& 	c #3F722D",
"* 	c #437221",
"= 	c #487030",
"- 	c #477F2A",
"; 	c #4F7D2C",
"> 	c #4B7E35",
", 	c #4E7F1F",
"' 	c #4E7D3E",
") 	c #776F60",
"! 	c #607C4D",
"~ 	c #54804E",
"{ 	c #5F7C5A",
"] 	c #59813A",
"^ 	c #607F3A",
"/ 	c #5D8132",
"( 	c #5F8043",
"_ 	c #508833",
": 	c #618528",
"< 	c #4F8B25",
"[ 	c #538746",
"} 	c #588735",
"| 	c #54883E",
"1 	c #5B8646",
"2 	c #598B2A",
"3 	c #519011",
"4 	c #867E6F",
"5 	c #599240",
"6 	c #5A933A",
"7 	c #5D9147",
"8 	c #63903E",
"9 	c #628E5A",
"0 	c #5C914F",
"a 	c #668E4F",
"b 	c #838550",
"c 	c #6B924A",
"d 	c #639735",
"e 	c #5D9A28",
"f 	c #5C9B20",
"g 	c #788E53",
"h 	c #6A9536",
"i 	c #5D9A31",
"j 	c #5E965E",
"k 	c #5C9A38",
"l 	c #66936B",
"m 	c #73905F",
"n 	c #72906C",
"o 	c #818F58",
"p 	c #5D9C45",
"q 	c #5B9D4F",
"r 	c #649B46",
"s 	c #659A4F",
"t 	c #609B57",
"u 	c #91897A",
"v 	c #6C9946",
"w 	c #6B9763",
"x 	c #679A57",
"y 	c #6F9858",
"z 	c #63A821",
"A 	c #6AA53C",
"B 	c #65A82D",
"C 	c #70A341",
"D 	c #68A735",
"E 	c #64A83D",
"F 	c #67A64B",
"G 	c #69A644",
"H 	c #60AA36",
"I 	c #6EA44A",
"J 	c #63A845",
"K 	c #66A652",
"L 	c #63A65E",
"M 	c #6DA451",
"N 	c #6BA465",
"O 	c #6DA45E",
"P 	c #65A758",
"Q 	c #72A358",
"R 	c #6CA558",
"S 	c #76A167",
"T 	c #76A350",
"U 	c #9B957A",
"V 	c #9D9485",
"W 	c #7DA663",
"X 	c #77A777",
"Y 	c #7FA75D",
"Z 	c #88A469",
"` 	c #85A57C",
" .	c #6BB154",
"..	c #6DB247",
"+.	c #6DB061",
"@.	c #6CB24E",
"#.	c #6FB05B",
"$.	c #74B04B",
"%.	c #78AE54",
"&.	c #72B054",
"*.	c #75AE61",
"=.	c #77AE5A",
"-.	c #6CB627",
";.	c #71AF69",
">.	c #75B32E",
",.	c #77AD6F",
"'.	c #7AAD67",
").	c #6CB631",
"!.	c #7CAD61",
"~.	c #6CB81D",
"{.	c #80AD59",
"].	c #74B43A",
"^.	c #7BB23A",
"/.	c #79B242",
"(.	c #80AC70",
"_.	c #6DB73B",
":.	c #A79F82",
"<.	c #A69E92",
"[.	c #A89E8B",
"}.	c #6CB743",
"|.	c #73B542",
"1.	c #80B24E",
"2.	c #73B94D",
"3.	c #73B954",
"4.	c #7CB853",
"5.	c #80BB25",
"6.	c #72BB64",
"7.	c #74BB5D",
"8.	c #76BA6A",
"9.	c #7ABA64",
"0.	c #7AB970",
"a.	c #7CBA5D",
"b.	c #78B978",
"c.	c #82B95E",
"d.	c #7FB96A",
"e.	c #81B964",
"f.	c #88B762",
"g.	c #75C22A",
"h.	c #72C238",
"i.	c #84B779",
"j.	c #88B76B",
"k.	c #ACAB77",
"l.	c #87B771",
"m.	c #7AC13A",
"n.	c #82BF3C",
"o.	c #B2A996",
"p.	c #B1A99D",
"q.	c #79C05B",
"r.	c #7CC054",
"s.	c #78C34E",
"t.	c #78C71F",
"u.	c #77C355",
"v.	c #79C447",
"w.	c #92B97F",
"x.	c #81C350",
"y.	c #99B87C",
"z.	c #A0B67C",
"A.	c #96BB69",
"B.	c #85C349",
"C.	c #88C251",
"D.	c #85C25E",
"E.	c #87C257",
"F.	c #7CC468",
"G.	c #9FB971",
"H.	c #82C08B",
"I.	c #80C373",
"J.	c #91C151",
"K.	c #8EC15D",
"L.	c #83C46D",
"M.	c #85C466",
"N.	c #80C661",
"O.	c #8AC26D",
"P.	c #83C37C",
"Q.	c #8CC267",
"R.	c #83C65A",
"S.	c #81C941",
"T.	c #91BE8D",
"U.	c #83CA34",
"V.	c #8EC082",
"W.	c #9BBB90",
"X.	c #89C374",
"Y.	c #92C16C",
"Z.	c #9BBA9F",
"`.	c #83CE0C",
" +	c #90C17A",
".+	c #92C174",
"++	c #9ABF7B",
"@+	c #89CC25",
"#+	c #8CCB46",
"$+	c #86CB61",
"%+	c #89CC51",
"&+	c #BEB5A2",
"*+	c #BDB69C",
"=+	c #BDB5A8",
"-+	c #BAB984",
";+	c #89CB73",
">+	c #8DCC59",
",+	c #8BCB6D",
"'+	c #8FCB64",
")+	c #96CF2B",
"!+	c #8ECB7B",
"~+	c #94CB6F",
"{+	c #98CD49",
"]+	c #93CB75",
"^+	c #97CD55",
"/+	c #94CB83",
"(+	c #98CC69",
"_+	c #92CB8B",
":+	c #9ACC63",
"<+	c #9EC98A",
"[+	c #9BCC77",
"}+	c #9DCC72",
"|+	c #9ACC7E",
"1+	c #9FCA84",
"2+	c #9DCA90",
"3+	c #9ECE5E",
"4+	c #97CD99",
"5+	c #A3CC80",
"6+	c #A6CC77",
"7+	c #B0CB6C",
"8+	c #A4CB9C",
"9+	c #C5C0A5",
"0+	c #AFCA80",
"a+	c #C5C290",
"b+	c #A9CE6D",
"c+	c #B6C979",
"d+	c #AFCA87",
"e+	c #C9C0AD",
"f+	c #9CDC08",
"g+	c #C8C0B3",
"h+	c #AECB93",
"i+	c #A5CFAA",
"j+	c #A9D28B",
"k+	c #A8D295",
"l+	c #A6D671",
"m+	c #B4CEA2",
"n+	c #B4D0B1",
"o+	c #AED4A4",
"p+	c #A8DA84",
"q+	c #D2CBBE",
"r+	c #B3DA85",
"s+	c #B1DA8D",
"t+	c #D3CCB8",
"u+	c #ADDD81",
"v+	c #B9D79D",
"w+	c #D1CEB1",
"x+	c #B2DC9D",
"y+	c #BFDBAF",
"z+	c #B8DFB0",
"A+	c #C2DEBE",
"B+	c #DDD7C2",
"C+	c #DED7CA",
"D+	c #E7E1CD",
"E+	c #E9E2D5",
"F+	c #FFFFFF",
"c.7.^+O.j. +/+]+c.=.!..+ +f.++y.e..+[+X.=.a.3.[+(.j.C.}+/+M y j.0 e.O.*.,.w '.L.S V.++R a.l.'.O i.<+|+1+w.c.N.r.D.v.a.S l.a.9.s.",
"v.D.#+e. +j. +j.j.j.!.Q.}+f.f.d+Y.c.K.{.(.d.X.k+k+1+f.d.V.O y &.d.d.'.X.]+!..+w.d.l.T.a a.a.l.!. +4.K.j.j.O.=.|.R.s.=.a.S R #.2.",
"B.>+%+X.&.r.l.(.(.l..+^+D.'.I ++{.Q.f.j.W f.>+'+*.=.3.L.R j.r 7 j.V.2+8+d...O O. +e.P.,.G 7.#.O.(.E.c.i.'.l.(.$.].S.O.E.w.T.'.4.",
"g.~+#+R.|.Q.w.T.T.W K.Q.x.e.y <+{./.c.(.Q I 2.9.O 0 G j.&.W F =.(.=.O S O *.j.a.2+e.9.*.$.v  +!.A./.$.a.l.2+=.!.&.C./.>.{.l.l.X.",
"4.M.@+n.T f.++w.w.'.=.f.Y.j.h+++1.8 c.e.!.s I y K O *.$.$.|.$.7 N S O N 9.9.*.D.2+l.9.(.;.M 1+l.1.r =.G s.d.|+i.c f.].c.D.W =..+",
"q.f.g./.*.a./+W.W.X.M.!.$+A.d+1.J.!..+!.'.Q (..+*.a y %.s.e.h+t+=+(.w a.e.0.9.,+M.Y '.d.` e.w.S M G %.!.%.@.$.Q.++A.{.$.T =.m !.",
"s.D.$.m. .L. +w.!.O.l.e.r.f.z.1.A.Q l.<+ +0.{.e.8.,.y $.|.h+g+&+q+=+n W c.!.d.v.e.Q '.=. +Q i.;.s s |.c.f.].F Q 1.Y.!.j.a.%.R W ",
"L.G c.v.r 9./+(.'.r.s l.9.Y !.Y.O.!.<+=.f.O.l.X.!.,.8.4.C.e+u o.V q+` s y j.l.D.1+c.;.;.d.i.e.P '.0.#.!.K.M G &.G 1.D.%.f.X.9.Y ",
"v.r.q.].Q d.X.O.d.f.T l.j.'.Y j+9..+Q.Y..+2+X.a.4.(. +Q.z.<.B+B+e+o.W.'.l.'.D.M.%.++S =.0. .p (.*.R *.Q.~+j.B.4.2./.K.2.1.G m.4.",
"c.v.q.Q j.(.O 4.j.Y.++2+/+T.2+|+e.M M W y.w.m+.+2.9.c.$+-+g+C+q+B+o.=+!.e.=.2.s.&..+v.M f./+F M '.d.s |.$.(+r.a.a.{.I I E.!.v B.",
"e.]+x.A A '.x &.=.2+w.e.r.O..+a.d.a.F ] s a.!+M.2.I.3.Q.p.C+B+B+B+q+p.1+!.C Q.@._.~+O.S j.D.d.O x ,.&.g.r.Q.[+a.v Z c o /.s.F a.",
"j.O.r C R S *...r.2+Q =.4..+l.T O.D.*.O  .M.e.=.R.9.L.w.=+C+=+q+B+q+&+h+!.c.e.=.l.=.D.r.$.$.|.*.d.2.I X.L.y l.X.Q S Z Z Y r.e.<+",
"8+O.%.F i.y w |./+M.=.%.|.d.l.X.&.E.&.'.6.d.9.I.|.#.y z.t+g+q+p.C+=+e+*+%.j.F.q.9.A &.a.=.c.O.7.R 7 y l.7.!.&.&.b.x ` !.e.M a l.",
"<+&.L.,.l.F v.j.s $.M =.2.=.Q *.r a.R ,.O F.#.M.3.9...W.B+&+C+<.g+<.B+*+a.&.3.3.|.F i.2+ +P.(.=.S 9 S 2+2+/+L.L.8.*. +,.!.'.d.=.",
"<+S l.9.G |.E.a.M $.3.d.=.d.d.K 0 3.L.j.a.7.q.4.3.i.A *+E+<.e+<.=+p.C+&+j+B._._.B %.O.l.|.Q ,.x 9.V.2+'.l.T.a.e.O (.j.i.O l.j.Y ",
"<+W 4.9.K v.!.$.e.&.D.L.f.%.r #.9.a.M r @.#.F.7.$.W.S =+e+[.t+o.q+g+B+&+h+|.m.2.&.s O.S =.0 N @.*.V.i.i.v !. + + + +*.T.8 Q d.W ",
"[+K.X #.0.7.a. +%.4.M.r.D.G r M.#.Q.=.3.N.*.7.*.@.+.w.e+g+o.E+p.q+p.B+e+W.c.v.h.R.M...v Q #.+.*.O '.S '.a d.9 w.i.].I  +'.s l.j.",
"~+X.T.V.P.*.3.f.$.|.=./.1.$.F |.4.M.O m.3.L.P.0.I.K (.g+E+p.t+[.e+p.B+t+*+v._.|.|.s.G Y (.` O e.2+'.R 1 R 9.i.a V.e.a w.'.Z W i.",
"f.e.$.Y.j.$.7.f.1.j.c.K.B.%.%.$.4.c.c.2.a.9.0.r.d.9.y.q+g+<.C+&+B+p.B+B+&+4.m._.G Q.{.4.v k.y.O.Q @.M S a Q W R i.P.N W 9.y .+'.",
"{.G s w. +..a.4.Q.!.%.4.$.|.E./.M $.G a.r.9.I.N.2.#.w.C+C+=+g+C+p.u B+B+&+Y.2.2.F !.` y.C.c..+w w s 7 i.x y m S 9.*.w S e.Q k+L.",
"I.O 0 Z  +*.&.c.Q.c.j.%.|.|.m.{.M a.=.*.=.%.r.2.3.3.z.D+<.C+E+t+p.[.B+q+&+1+!+M.(.*.Y K.c.!.j.N N N O N w X (.S '.y 1 d.O X.V.P.",
"*.X.0.w.f.D.r.f..+:+D.=.G 2.r.d.E.Q v Z a.&...G D r W.E+[.g+g+e+&+[.C+q+p.l.a.l. +M.N.Q V.T.w.O (.N S (.S i./+S .+M G %.w.2+i.I.",
"7  +'.<+Y M.4.M e.U.E.d.9.2.2.2.r.$.W Q &.....D 8 Q *+D+[.t+t+g+=+V q+q+=+y.c.O.d.3.#.W M Q ++x V.b.m ` W.++f.=.{.r s (.a.'.a.x ",
"s O.e.X.*.c.4.%.e.B.O.d.7.3.#.2.&.*.i.&.I T M.7.7 r p.C+<.t+B+e+q+g+q+C+e+W.c.l.l.2.G Y 7 8 {.,._+i.d.1.f.X.M.=.=.y T Q K %.I %.",
"7 4.O.O.2.C.Q.j.O.q.7.,. .F @...#.y S R M r !.8.;.L p.C+q+g+e+=+q+g+=+<.&+h+X.O. +a.G 1.8 {.f./+3.M (.M Y.i.d.M.R.$.j.Z '. +=.2.",
"D Q q.O.n.S.X.++X.&._.5 R  +a.#.e.j.=.'.x O i.&.s ;.&+=+q+B+q+E+t+&+e+V e+m+X.~+a.*.R y v !.V.I.;...=.*.O.i.$.l.P.d.#.Q 9.0 C /.",
"B 8 2.K.B.v.M.d.d.I G M ' '.M.j.c.a.4.#.w x d.'.K J &+p.p.g+g+g+&+<.q+<.t+o.e.Q.r.a.a.r s V.3.L.O 8. +!.a.x.x.l. +S K Q d.*.4.$.",
"l.8 Q.E.Y.f.4.&.#...].@.R =.@.M &.2.D.&.O x  .,.M |.9+=+q+=+g+g+e+g+e+e+t+*+X.Q.3.&.D.F T p 9.F {... .a.d.&.G v !.W =.Q {.M k $.",
"]+3.r.Q.E.j.%.%.9.@.B.a.*.=.&.2.2.a.2.r &.0.N +.x.N.&+B+C+g+t+t+t+q+t+B+q+<.}+d.'.O 4.Y.1.d d.k I R s l.j.Q A G =.6 E 0 O S O s ",
"]+2.*.c.2.*.8 =.r.v.2.r.r.D.{.c.%.s.B.D.*.r .+R 2.x.&+C+=+=+o.&+&+V g+C+t+o.E.8.0.X '.(.i.s 4.a M R #.=.Q f.E s r |.s F 1 O.l.R.",
"i.&.=.e.{.Q $.a.$+r...|.x.c.O.a.B./.4.=.l.R 9.3.*.B.*+D+q+=+e+g+e+t+e+C+t+o.Q R !.;.0.*.V.9 2.O O 0.Q R ,.O O I O l.i.#.| i.&.!.",
"e.l.D.Q !.=.G e.!.!.I A x.Q.j.%.2.4.a.M.c.!.'.O %.x.*+D+[.&+B+q+&+u g+D+t+o.&.W r '.K  .l.&.=.7 x w.Q O 0.s M Q 2.G c.i.'.i.i.F ",
"D.Y.O.3.M *.M O.3.R I G 2.B..+d.R f.D.=.T l.*.s |.E.&+C+&+=+g+t+e+V q+C+q+o.2.M w (.M &.c.0.5  +e.W j.O 8.,.Q T %.(.d.(.w T.<+ +",
"V.V.O  .Q S M.s.G d.k 4.r.E.1.e.F a.%.c.4.*.R E x.).*+C+&+q+B+t+q+V B+q+t+o.G 2.O.f.$.%.=.0.;./+D.$..+w.y 0.*.@.&.D.%.'.,.G =./+",
"n+T.y i.T.V.Y Q M F r =.E.C 4.2.r i.T %.Q M #.#.3.m.o.q+&+q+g+&+g+U C+t+q+o.r 2.2.{.$.I ]+!.'.*.a.$+O.9 !.R #.s !.$.4.&.s i s W ",
"l.n+a a f.++j.l.!.R 9.1.r %.r #.s '.s 8 y x O c.E.].W.q+g+q+q+e+C+V C+g+g+[.G A r 1.Q T ]+c.!.y !.a.x.r.t O R %.!.1.].4.y y (.!.",
"$.k+r ] 1.c.r.c.|.E 4.K.a.9.*.'.a.&._ K 1 ( l.c.!.Q o.<.g+C+q+q+E+p.g+=+t+:.A r T C W W M.2._.Q r c.2.s.@.*.Q.{.a.U.].v.r #.a Z ",
"2+(.D.{.d 4.2.x._.v {.c.I C Q.d.a.a.k =.Q T.'.F i.7.y.p.q+g+&+q+q+<.t+C+q+:.v S { a e.d.9.=.D i *.*...$.&.M !.q.f.g.n.$./.0 O y ",
"k+l./.2.x $.D.2.$.D x.4.I M ,.&.r.&.M M.!.9 a R Q d.z.=+C+e+o.&+=+u V u g+:.7 y S Q 9.9.T %.2.3.O y (.j.$.R Q s.R.$.m.s 4.=.,.Y ",
"D.j.'.2.3.c.D.f.%.|.].c.y I #.&.Q.Q 9.*.O.!.Q 0.'.j.w.q+D+&+o.p.=+e+g+4 w+z.y Q '.'.3.d.'.Q J q.@.Q =.%.L.9.=.L.G 4.r.O.e.r.4.<+",
"(+%.l.X.3..+j.++].).=.4.|.4.4.1.B...M d.d.*.a.d.d.}+++t+C+=+V [.<.t+q+<.t+[.=.9 e.*.d.=.=.s 9.l.R.%.a.v r.v.4.v.s.q.].T x...d.1+",
"D.|+&.&.e.4.Y.F. .$.c.c.M.$+M.I g.@.|.$.!.$.4.9.r.K.l.g+B+t+<.[.V C+C+g+e+o.e.,.(.<+O #.e.(.O (. +<+Q..+=.r B.c.|.r.#.c.'.=.a.*.",
"c.~+Q.=.=.4.Y.a.&.E.$.!.O $.2.h._.7.N.M.r.s.4.a.Q.T j.e+q+C+=+p.p.D+C+B+e+W.V.(.'.2+x a.*.M.!.l.9.K.f.f.R.&.4.a.]+x.A |.W 9 =.M ",
"&.<+x.e.f.v $.%.c.'.=.T %.$.C.v...v.4.j.9.r.M..+.+L.e.9+t+q+t+<.t+D+B+t+=+Z d.X.d.!+0.M @.7.M.l.c.D.l.!.e.e. +j.O.r $.=.S *.a.Q.",
"=.l.c.a.%.I B.4.'.%.r.2.h.].4.r.2.D.M.e.e.O.2.e.e.M.r.*+t+p.B+t+q+B+B+t+p.w.a.|+X.9.*.=.G j.4.l.e.4.4.a.Q.e.X.2+O.%.&.(.O '.X.e.",
"j.++e.c.$.E.a.#.j...2.a.2.4.4.4.4.E.D.D.M.M.@.r.1.4.x.W.e+g+q+q+t+C+q+t+&+w.a.]+e.d.l.*. . +f.M.l.,+4.x.(+r.d.X.4.M.d.F.q..+[+!.",
"f.!.O.a.e.f.++&.M I 4.$.v.v.2.I .+Q.O.M.M.2.2.x.%...|.z.e+g+g+B+t+&+q+t+p.w.X.O.O.<+l.l.a..+d.4.&.*.7.x./+B.M.O.!.l.L.9.q.Q.Q.f.",
"%.M {.d.'.c.c.X.w M $.a.x.x.4.4.j.Q.#+e.4.G $.e.c.r.G y.g+9+&+=+g+e+g+e+o.9.d./+&.2.a.!.l.e.D.C.C.r.&.a.O.,+r.O.a.M.O.9.f.Q.e.E.",
"=.%.W.'.2+j.O..+'.2.E.D.&.=.#.4.Q D.U.D.4.4.c.a.R.q.=.c.=+p.9+9+e+e+=+&+V F j.d.&.&.2.4.e.l.a.D.S._.4.c..+~+M..+K.X.c..+K.a.l.M.",
"..c. +d.X.*.%..+O.M.K.r.a.=.~+E.%.D.J.1.4.x.a.!.M.4.#.=.e+e+&+=+=+&+=+*+z.O d.l.=.$./.G a.]+*.e.x.r.s.e.Y .+|+~+.+]+<+j.E.c.j./+",
"..e.l.I.L.=.4.}+++O.x.a.a.D.$.e.y.Q.K.n.{.4.Q.4.r.4.%.a.o.e+o.=+&+e+&+&+Z '. +(.V.s &.#.*.]+Y.Q.D.,+O.X.L.T.Q.|+ +|+1+j.[+~+Q.j.",
"*.l.8.M.&.s c.f.j.M 4.O.l.c.I L.Y..+4./.r.(+C.R.=.e.&.r.y.e+[.9+&+g+p.o.(.l.(.O V.0 c.a.,.<+++D.r.>+~+X.i./+.+,+!+/+]+'+[+x.x.4.",
"*.#.q.9.r v M &.=.(.X.*.M.D.a.M.d.d.x.^+Q.~+(+O.L.N.F.r.l.e+=+&+p.<.&+[.p R ;.*.7.,.f.4.9.'.,+ +=.'+R.'.P.P.R .+]+L.r.'+R.s.v.'+",
"L.i.P. + +Q *.j.D.&.O.e.[+D.%.a.&.2.|.C.Q.C.B.4.9.9.N.D.e.o.e+p.&+=+&+z.@.J p  .'.F a.%.e.(.Q.Q.D.E.a.#.d.d.8.0.9.;+c.r.B.&.D.'+",
"O.O =.I.x 9.e.{.2. +M.c.Y.4.j.r.$.9.E.r.E.C.D.a.O.L.&.4.a.Z =+=+&+g+p.'.H F #.x '.7.O l.Q.'.e.x.a.Q.e.l. +l.d.i.8.N.2.A |.$+r.S.",
"O.#.R p a.F *.!.|.j.V.(.E.a.M I 4.D.x.2.B.C.Q.c.*.M k D 4.s o.e+g+o.[.L x @.F w Q d.!.|+l.l.a.E.a..+j.Y.*.l. +M.M. +9.I $.m.x.3.",
"&.+.*.M A *.(.Q C $.j.r.j.j.!.l.Q.f.D.c.m.D.Y.O.a.$.r M /.%.Z o.&+o.W p 3.F #.0.9 9 !. +=.e.2.A d.c.D.x.$.3.&.O.9.a.S M 1.E.B 2.",
"#.P e.M.+.9.'.y %.D.Q.q.S e.++Q.e.'+Q.R.|.C..+++$.|.!. .G a.1.y.U (.F G R (.,.R S *.3. +M.&.4.M M.&.a.v.d.&.W !.a.*.c.&.T j.B I ",
"&.p O r.'.(.l.d.i.l.D.O.S j.r.D.M.D.Y.M.L.r.C.1+Q.4.E.&.G ..x.M %.M  .x (.S S w j *.q. +*.*.2.!.&.d.|+s.q.M ++j.j.l.V.O s .+T M ",
",.'.(.a.X.d.O l.2+ +a.4.W f.j.c.r.4.E.R.r.D.E.x.4.K.4.M &.7.=.!.r.r 4.e.d.N (.*.&.a.d.l.d.i.E $.&.O.r.D 3.'.e./.K.O.0.'.*.d.s i.",
"V.(.d.3.d.w.l.'..+/+M.f.!.!.Q.c.c.~+Q.c.D.e.Q.4.E.C.e.4.%.a.a.4.M K N.e.s s N !.!.e.'.l.'.e.=...d.Q Q |.%.~+D.O.e.E.E.!.i.c.=.T.",
"E.c.Y.{.O.T.<+l.a.e.q.j.l.Q.D.!.D.a.4.E.O..+Y.c.K.E.v.c.=.&.3.5 t 0.9.&.d.S ` n c.l.i.8.d.f.a.$.d.' S ++a.D.L.|+e.l.d.0.(.$.1./+",
"E.a.5+l.w.|+Y.++l.q.r.f.y.Y. +i.Q 4.=.M D.Q.Q.Y.!.r.#+D.f.4.3.R *.+.O N 0./+H.` Y %. ++.V.w.w a.3.s Q f.!.Q.x.|+d.,.4.d.i.%.n.w.",
"D.W C.K.w.2+w.%.x.#.a..+ +i.<+j.!.c.O.V.O.l.c.c.9.M Q.~+a.4.=.j.'.l.S x N i. +i.a  +i.8.%.{.W V.X.x.f.Y Z ~+~+/.x.e.M.(.2+'.D /+"};
