/* XPM */
static char * item_rot_4c_32_xpm[] = {
"32 32 255 2",
"  	c #000000",
". 	c #180101",
"+ 	c #250901",
"@ 	c #271800",
"# 	c #392C08",
"$ 	c #3E3221",
"% 	c #4D4433",
"& 	c #4F462A",
"* 	c #5B523F",
"= 	c #3A5E32",
"- 	c #5B524A",
"; 	c #3D6527",
"> 	c #3E6A1B",
", 	c #646332",
"' 	c #696049",
") 	c #6A6153",
"! 	c #417430",
"~ 	c #4B7232",
"{ 	c #457D26",
"] 	c #4F7B29",
"^ 	c #4D7948",
"/ 	c #5C763B",
"( 	c #59764C",
"_ 	c #5B792B",
": 	c #498117",
"< 	c #4C803A",
"[ 	c #577D36",
"} 	c #557D3F",
"| 	c #78705D",
"1 	c #707546",
"2 	c #787066",
"3 	c #528929",
"4 	c #518934",
"5 	c #5B8736",
"6 	c #847B6A",
"7 	c #5F8A48",
"8 	c #618A42",
"9 	c #628C27",
"0 	c #618C2E",
"a 	c #569028",
"b 	c #598D42",
"c 	c #66884E",
"d 	c #588D49",
"e 	c #5B8C51",
"f 	c #57931F",
"g 	c #798554",
"h 	c #858067",
"i 	c #5A9333",
"j 	c #5A933D",
"k 	c #888075",
"l 	c #64903E",
"m 	c #6D8D46",
"n 	c #649163",
"o 	c #6E8E66",
"p 	c #8D8472",
"q 	c #64994E",
"r 	c #5B9C4F",
"s 	c #689854",
"t 	c #6E974E",
"u 	c #67985C",
"v 	c #5F9B57",
"w 	c #73955B",
"x 	c #659D33",
"y 	c #5DA032",
"z 	c #5BA03D",
"A 	c #6E9A47",
"B 	c #649E3D",
"C 	c #5F9F47",
"D 	c #679D44",
"E 	c #669D4A",
"F 	c #968D7B",
"G 	c #6AA227",
"H 	c #61A526",
"I 	c #749F29",
"J 	c #929175",
"K 	c #889663",
"L 	c #999085",
"M 	c #65AA47",
"N 	c #67AA40",
"O 	c #6FA83D",
"P 	c #67AB38",
"Q 	c #6EA847",
"R 	c #69A94E",
"S 	c #69A954",
"T 	c #6EA75A",
"U 	c #71A752",
"V 	c #9E9583",
"W 	c #79A552",
"X 	c #6BA862",
"Y 	c #74A65A",
"Z 	c #72A662",
"` 	c #68AA5B",
" .	c #6DA76E",
"..	c #7AA36F",
"+.	c #7DA45B",
"@.	c #7BA464",
"#.	c #68B132",
"$.	c #74B337",
"%.	c #81A981",
"&.	c #A69D8B",
"*.	c #6EB728",
"=.	c #A69D91",
"-.	c #6CB642",
";.	c #70B54A",
">.	c #73B542",
",.	c #9AA571",
"'.	c #76B350",
").	c #70B551",
"!.	c #75B357",
"~.	c #68B758",
"{.	c #6AB751",
"].	c #6FB558",
"^.	c #7AB348",
"/.	c #72B45E",
"(.	c #7DB257",
"_.	c #7CB25E",
":.	c #90AD5D",
"<.	c #70BA3A",
"[.	c #88B05D",
"}.	c #73B666",
"|.	c #71B66E",
"1.	c #70BD20",
"2.	c #A6A488",
"3.	c #7DB466",
"4.	c #78B47A",
"5.	c #7CB46E",
"6.	c #8AB167",
"7.	c #87B17C",
"8.	c #88B270",
"9.	c #97AE72",
"0.	c #AEA593",
"a.	c #AEA599",
"b.	c #85B857",
"c.	c #75C04C",
"d.	c #74C053",
"e.	c #77BF60",
"f.	c #7BBF53",
"g.	c #7DBF4C",
"h.	c #73C15A",
"i.	c #76BF67",
"j.	c #7ABF5A",
"k.	c #7DBD67",
"l.	c #7FBD61",
"m.	c #81BD5A",
"n.	c #85BE52",
"o.	c #86BC68",
"p.	c #88BC61",
"q.	c #82C145",
"r.	c #9BB767",
"s.	c #7BC538",
"t.	c #7AC448",
"u.	c #7BC540",
"v.	c #79C82A",
"w.	c #92BB68",
"x.	c #B6AD9A",
"y.	c #88BF71",
"z.	c #B6ADA1",
"A.	c #86BF7F",
"B.	c #88BF78",
"C.	c #7FC372",
"D.	c #7DC37B",
"E.	c #7ECB1A",
"F.	c #85C931",
"G.	c #A9B784",
"H.	c #80C768",
"I.	c #98BF74",
"J.	c #84C854",
"K.	c #97BF7A",
"L.	c #81C862",
"M.	c #83C85B",
"N.	c #A3BB83",
"O.	c #B4B498",
"P.	c #9DBD84",
"Q.	c #94C083",
"R.	c #98BE8F",
"S.	c #85C770",
"T.	c #8DC93F",
"U.	c #8BC94C",
"V.	c #89CF12",
"W.	c #98BF9C",
"X.	c #89C86A",
"Y.	c #8BC864",
"Z.	c #8FC772",
"`.	c #A6BCA1",
" +	c #91C958",
".+	c #90C95E",
"++	c #BEB5A2",
"@+	c #93C76C",
"#+	c #BDB5A9",
"$+	c #96C672",
"%+	c #93CD32",
"&+	c #92C87A",
"*+	c #9FC571",
"=+	c #96C967",
"-+	c #91C794",
";+	c #8FC988",
">+	c #92C981",
",+	c #9DCB51",
"'+	c #94CF52",
")+	c #A3CD64",
"!+	c #A2CC86",
"~+	c #A4CC80",
"{+	c #A0CC8F",
"]+	c #9DCF77",
"^+	c #AEC986",
"/+	c #CEBCAB",
"(+	c #C6BEB1",
"_+	c #C9BEAB",
":+	c #9DD265",
"<+	c #C4C0AB",
"[+	c #9CD081",
"}+	c #AACB91",
"|+	c #9EDA0F",
"1+	c #A9CE79",
"2+	c #9BD18C",
"3+	c #A7CC9D",
"4+	c #B1CA92",
"5+	c #A6CCA9",
"6+	c #A4D472",
"7+	c #BBCB9C",
"8+	c #B6CCAF",
"9+	c #D7C4B3",
"0+	c #D1C6B3",
"a+	c #CFC7BA",
"b+	c #CDC9B4",
"c+	c #AFD68A",
"d+	c #AED690",
"e+	c #BAD29A",
"f+	c #A9DA81",
"g+	c #B5D59B",
"h+	c #AED89B",
"i+	c #B2D983",
"j+	c #B5D9AA",
"k+	c #DECCBA",
"l+	c #DDCDC3",
"m+	c #B7DAB7",
"n+	c #DACFBC",
"o+	c #D5D1BC",
"p+	c #D7D0C3",
"q+	c #C3D8BA",
"r+	c #E2D7C4",
"s+	c #DDD9C4",
"t+	c #E6D6CB",
"u+	c #E1D8CB",
"v+	c #DBDACB",
"w+	c #E6E0CC",
"x+	c #E9E0D4",
"y+	c #E3E2D3",
"z+	c #CEE9D2",
"A+	c #EFDFD6",
"B+	c #F0EAD5",
"C+	c #F1EADD",
"D+	c #FAF4DF",
"E+	c #FBF5E6",
"F+	c #FFFFFF",
"f.p.y.$+3.o.w.K.o.y._.Z.y.o.5.Y _.o.5.o.5.5.l.3.B.K.8.j.J._.5.f.",
"q.m.l.B.B.p.b.9.b._._.k._._._.Y 5.8._.k.B.}.!.o.p.l.8.3.'.g.8.H.",
"m.t._.Q.7.o.w.K.(.3.Y Y T U ;.U @.Z 3.k.B.5.5.8.'.R m.o.[.(._.3.",
"j.c./.B.3.3.l.w.o.8.o.y.K.G.++b+(+++P.o.o.Z y.3.Y _.(.).(.(.l.Y ",
"f.'._.l.o.8.y.&+3.[.B.4+++z.#+(+<+a.<+O.8._.3./.Z !.p.(.'.^.^.'.",
"o.U Y U y.y.o.o.l.Y G.z.b+s+p+o+n+n+#+++<+o.(./._._.k.o.Y @.'.y.",
"K.!.3.!.3.!.!.3.U P.a.p+s+(+b+a+o+u+a+b+++++y._.T 8.5.3.}.6.3._.",
"B.e.).!.!.l._.].o.++s+a+z.a+(+x.#+a+x.b+b+z.G.T 8.B.3.y.y.B.Y @.",
"I.6.3.o.(.f.'.!.4+++a+z.a.b+(+x.#+s+(+o+s+<+<+B.3.Z s 5.3.o._.8.",
"_.y.l.(.m.(.^.p.x.p+p+(+x.a+a+a.#+a+z.(+u+p+#+O.T Z s Z 3.@.3.B.",
"3.8.o.m.o._.>.8.a+u+a+(+#+a+(+p+(+&.V b+p+p+++z.%.Z Z ..Y T y.B.",
"!.B.(.(.p.l.].P.s+s+z.++p+p+a+b+<+0.&.a+p+p+<+z.R.3.y.3.Y Y /.Y ",
"Q X.g.w.k./.!.G.u+o+x.#+b+a+b+(+o+_+#+b+a+<+p+=.P.Y w.o.k._.}.f.",
"!.m.M.l.!.;.T O.#+#+a+(+p+a+a+p+o+_+a.(+x.0.a+z.O._._.Y 3.U !.U ",
"o.l.(.U j.'.!.<+<+(+a+(+(+(+<+(+++o+z.b+b+++o+(+++_.(.Q U E Z _.",
"k._.(._.(.Q M.#+p+p+v+b+<+++#+b+#+a+#+<+s+s+o+(+z.Z _.U !.3.3._.",
"Z._.Y _.U R n.++p+s+0.0.(+p+s+0+<+a.&.(+s+s+o+z.++@.}.U !.3.@.B.",
"R.@.y.8.!.!.'.++o+s+++#+b+p+<+b+0+x.&.o+o+p+o+<+O.l.T U '.'.s @.",
"B.T '.m.>.b._.2.(+(+(+(+p+b+#+a+p+#+0.(+p+b+b+#+0.f.!._.f.t.E Y ",
"Z.!.!.m.;.(.Q P.(+a.p+++s+++z.o+p+=.z.z.++a+o+z.2.Y _.l.'.j.j.o.",
"o.k._.X.;.(.f.8.(+p+u+a+z.0.=.z.z.0.b+_+L V 0+0.P.[.!.d.f.W (.o.",
"o.m.b.(.!.(.(.p.O.a+o+p+(+x.&.x.=.o+u+s+o+#+(+a.K.o.l.3.l.U @.e.",
"o.l.'.f._.'.t.f.O.b+b+b+a+a+<+#+a+u+s+p+o+a+++O.o.m.Y.B.l.3.l.o.",
"_.k.3.o.T !.g.'.w.<+b+(+b+a+a+o+0+(+o+o+a+b+++8.j./.@+o.3.k.o.l.",
"_.8.B.w.o.m.!.(.(.G._+#+++++b+(+#+<+_+#+_+x.2.l.g.l.@+@+y.y.o.y.",
"_.X.Y p.o.L.l.m.@+m.++(+#+a._+++z.++_+z.++x.K.S.p.y.B.$+&+Z.X.p.",
"}.k.Y !.l.3.o.l.l. +$+++#+#+x.z.z.z.++z.x.9.3.Z.m.l.B.y.y.j.J.M.",
"3./.!.3.l.5.l.!.b.'.J.w.O.#+#+++#+#+#+0.,.5.y.m.l.X.o.o.o.).c.f.",
"!./.T Z !.l.o.8.o.m.n.w.(...G.x.=.2.9...T o._.U l.f.!.3.3.!.'.;.",
"3.l.3.5.B.l.@.p.m.M.m.p.b.U '.(.;.!.5.Z /.y.3.'._.f._.p.X.3.Z }.",
"y._.B.y.y.p.o.p.p.m.o.m.n.j.(.'.S _.Z Z 3.5.3.'._._.m.y.o.6.3.y.",
"p.p.K.y.j.Y.K.B._.o.y.p.(.Y._.!.3.Z 5.4.@.5.3.5.k._.p.Y.L.8.y.y."};
