/* XPM */
static char * item_rot_2a_64_xpm[] = {
"64 64 255 2",
"  	c #000000",
". 	c #210804",
"+ 	c #412612",
"@ 	c #3E2F2B",
"# 	c #54402D",
"$ 	c #514039",
"% 	c #554D4E",
"& 	c #5F5047",
"* 	c #3D602D",
"= 	c #3E6725",
"- 	c #426E1E",
"; 	c #666060",
"> 	c #6D5F57",
", 	c #417039",
"' 	c #467530",
") 	c #536F52",
"! 	c #65696B",
"~ 	c #5F7033",
"{ 	c #457D29",
"] 	c #5E7346",
"^ 	c #55773E",
"/ 	c #537749",
"( 	c #5A792B",
"_ 	c #587937",
": 	c #488020",
"< 	c #517D2B",
"[ 	c #498218",
"} 	c #4E7E45",
"| 	c #4D8039",
"1 	c #786F6B",
"2 	c #557E3B",
"3 	c #7D6F64",
"4 	c #528935",
"5 	c #5B8736",
"6 	c #558942",
"7 	c #5F8743",
"8 	c #618B2E",
"9 	c #578F2F",
"0 	c #71863B",
"a 	c #5D8E26",
"b 	c #549125",
"c 	c #618B50",
"d 	c #588E52",
"e 	c #618C58",
"f 	c #8B7D71",
"g 	c #658A64",
"h 	c #6E8955",
"i 	c #5A923D",
"j 	c #877F7B",
"k 	c #63903E",
"l 	c #818185",
"m 	c #59934A",
"n 	c #60924A",
"o 	c #67904B",
"p 	c #748D4C",
"q 	c #6B951E",
"r 	c #5C9B44",
"s 	c #5E9C3A",
"t 	c #7C8E73",
"u 	c #639A45",
"v 	c #619B51",
"w 	c #6A9952",
"x 	c #6B9D34",
"y 	c #659F34",
"z 	c #699D3D",
"A 	c #60A223",
"B 	c #709B3D",
"C 	c #5FA234",
"D 	c #6F9C49",
"E 	c #669E61",
"F 	c #6F9B66",
"G 	c #719C5F",
"H 	c #789B57",
"I 	c #719B73",
"J 	c #65A341",
"K 	c #7C9965",
"L 	c #64A34B",
"M 	c #6BA14C",
"N 	c #9C8E80",
"O 	c #96908D",
"P 	c #68A358",
"Q 	c #71A159",
"R 	c #929397",
"S 	c #B18C91",
"T 	c #69AD3A",
"U 	c #69AD42",
"V 	c #68AD49",
"W 	c #6FAB49",
"X 	c #72AB40",
"Y 	c #6CAC50",
"Z 	c #6BAC57",
"` 	c #68B12C",
" .	c #75AA50",
"..	c #74AA57",
"+.	c #7FA755",
"@.	c #6FAF33",
"#.	c #6AB223",
"$.	c #76AD33",
"%.	c #6BAD5E",
"&.	c #72AB5E",
"*.	c #6EAC66",
"=.	c #68B236",
"-.	c #76AA67",
";.	c #7BAE4D",
">.	c #74AE75",
",.	c #A39D9A",
"'.	c #7CAE62",
").	c #8CAA5A",
"!.	c #82AC6B",
"~.	c #80AC77",
"{.	c #7DAC87",
"].	c #84AD62",
"^.	c #6DB743",
"/.	c #8FA96D",
"(.	c #70B64A",
"_.	c #74B643",
":.	c #6AB852",
"<.	c #71B651",
"[.	c #74B45F",
"}.	c #8BAA81",
"|.	c #76B458",
"1.	c #6FB65B",
"2.	c #78B452",
"3.	c #7BB448",
"4.	c #AC9F91",
"5.	c #A1A1A6",
"6.	c #72B566",
"7.	c #7EB358",
"8.	c #7DB35F",
"9.	c #76B46D",
"0.	c #C398A0",
"a.	c #70BD20",
"b.	c #7AB466",
"c.	c #89B15E",
"d.	c #7FB36E",
"e.	c #B69EA0",
"f.	c #71C032",
"g.	c #ABA5A1",
"h.	c #74BF3B",
"i.	c #7ABE32",
"j.	c #74BF43",
"k.	c #7FBD41",
"l.	c #75C04C",
"m.	c #74C053",
"n.	c #78BF5A",
"o.	c #77BF60",
"p.	c #7BBF53",
"q.	c #7DBF4C",
"r.	c #76BF67",
"s.	c #7DBD67",
"t.	c #7FBD61",
"u.	c #81BD5A",
"v.	c #82BC6D",
"w.	c #8ABA6E",
"x.	c #85BE52",
"y.	c #86BC68",
"z.	c #88BC61",
"A.	c #89BA76",
"B.	c #7AC077",
"C.	c #7CC070",
"D.	c #79C82A",
"E.	c #92BB68",
"F.	c #83BF78",
"G.	c #A1B2B5",
"H.	c #83C085",
"I.	c #7ECB1A",
"J.	c #8EC15F",
"K.	c #91BD85",
"L.	c #97BC7C",
"M.	c #80C844",
"N.	c #90BD8C",
"O.	c #80C93C",
"P.	c #7FC84C",
"Q.	c #9FBA7E",
"R.	c #C6AAAE",
"S.	c #85C931",
"T.	c #9ABD72",
"U.	c #82C754",
"V.	c #9ABA99",
"W.	c #82C75B",
"X.	c #8EBE9A",
"Y.	c #9BBB8E",
"Z.	c #7FC768",
"`.	c #81C761",
" +	c #B7B0AC",
".+	c #9FBD6C",
"++	c #BBB0A1",
"@+	c #84C66F",
"#+	c #B1B2B7",
"$+	c #8AC475",
"%+	c #89C662",
"&+	c #88C669",
"*+	c #8DC65A",
"=+	c #93C275",
"-+	c #91C27E",
";+	c #CDABB8",
">+	c #90C56A",
",+	c #8FC570",
"'+	c #89CF12",
")+	c #9AC36F",
"!+	c #8CCA50",
"~+	c #8FCB41",
"{+	c #8ECB49",
"]+	c #93CD32",
"^+	c #8CCC71",
"/+	c #8FCD5E",
"(+	c #8FCB7B",
"_+	c #8DCB83",
":+	c #8ECD68",
"<+	c #9ECC51",
"[+	c #94CC76",
"}+	c #96CC70",
"|+	c #9BCB7D",
"1+	c #9BCE6B",
"2+	c #9ECE63",
"3+	c #9CCC85",
"4+	c #98CC94",
"5+	c #9DCD76",
"6+	c #A6C989",
"7+	c #9CCD8C",
"8+	c #D6B8C0",
"9+	c #A7CD79",
"0+	c #A9CE6E",
"a+	c #9EDA0F",
"b+	c #ACCD82",
"c+	c #C9C1B8",
"d+	c #A9CE96",
"e+	c #A6CEA3",
"f+	c #A8CE9C",
"g+	c #CFC1AA",
"h+	c #BEC98F",
"i+	c #A4D284",
"j+	c #C4C3C3",
"k+	c #B6CC97",
"l+	c #B4CEA5",
"m+	c #AFD291",
"n+	c #B6D3B8",
"o+	c #AFDB8D",
"p+	c #ADDB96",
"q+	c #C0D0D8",
"r+	c #B4DB86",
"s+	c #AEDF86",
"t+	c #B7DB9B",
"u+	c #B6DDA4",
"v+	c #B7DEAF",
"w+	c #DED2BD",
"x+	c #DAD3CA",
"y+	c #D5D4D4",
"z+	c #C1DDB6",
"A+	c #E8E5E0",
"B+	c #ECE5D3",
"C+	c #E3E6EB",
"D+	c #DCEDF6",
"E+	c #FAF6E9",
"F+	c #FFFFFF",
"t.|.!+,+v.-+3+[+8.'.'.A.-+z.L.L.].=+5+=+8.8.|.=+!.w.x.5+-+M w w.n y.y.*.9.E b.v.-.-+L.Z t.w.'.G A.3+|+|+L.u.`.p.%+M.u.-.v.t.t.q.",
"j.%+~+t.(+y.=+w.!.w.'.y.5+c.].6+w.t.J.8./.b.$+d+d+|+z.b.-+G G Y b.d.b.$+,+8.$+-+d.v.N.o t.8.v.'.-+x.J.E.w.w.|.j.*+q.|.8.G P |.l.",
"M.!+!+$+<.x.w.d.!.w.=+!+J.d.M T.+.>+].].'.z.*+:+8...|.@+Q !.u n y.-+4+V.v.(.&.y.A.y.F.-.U [.Z ,+~.x.u.A.'.!.d. .X M.,+x.K.N.b.u.",
"i.,+~+u.X y.K.K.N.-.*+z.q.z.w 6+7.3.z.d.Q W (.6.%.n J d.|.'.M 7.!...P -.Q -.w.u.7+y.s.&. .u -+].E.X  .n.A.7+|.'. .*+k.@.+.~.A.,+",
"7.&+S.k. .z.L.L.}.'.|.z.E.w.k+|+2.5 8.].'.v W w P E &._.W X  .i F -.Q *.b.b.[.z.7+w.b.~.-.Y 3+/.7.z ..U q.v.|+A.w z.X 8.z.].&.)+",
"n.z.D.k.&.8.-+Y.Y.A.y.'.%+E.6+;.*+].=+'.-.Q !.w.&.c G 7.q._.T.++g.~.G 7.z.s.s.>+y.].-.d.~.y.A.K M U 2.]. .Y  .y.|+E.).;. .|.G ].",
"q.u.X h.Z v.(+A.'.w.d.y.p.z.Q.x.E.Q A.7+-+d.8.z.9.-.G  .3.z.g+c+y+g.t K 8.'.d.k.t.Q !.7.-+&.A.9.v v l.c.z.@.V &.2.>+].E.8. .Q G ",
"v.U u.q.u b._+d.-.p.w A.s.+.].>+,+'.3+'.z.w.d.A.8.-.6.7.i.Y.j l j c+G v w !.v.u.|+8.-.*.v.A.s.Z b.d.&.'.J.M W <.J 3.u.;.y.$+s.&.",
"j.p.o.$.H v.$+y.d.z.Q w.w.!.+.i+b.w.z.E.w.7+$+o.|.-.-+>+q.O j+F+C+O 4.d.A.-.%+y...=+-.|.C.Z r d.-.Q [.J.[+d.k.2.3.X *+3.3.U k.3.",
"8.k.n.&.E.d.&.2.w.>+|+d+3+K.4+3+s.Y  .G T.A.l+=+<.s.u.%+/.g.c+c+C+c+4.b.].&.q.l. .=+q.P ].K.M  .'.d.v _._.}+p.n.8.7.D M *+b.u x.",
"t.[+q.z T !.w Y |.d+K.y.n.w.,+u.v.n.L 2 M t.(+%+<.F.|.p.,. +4. +y+y+g.w.8.X z.Y =.}+&+&.!.t.s.&.w -.<.D.p.%+|+|.D ].o h X P.Y t.",
"d.w.u X Q G -.W n.4+Q ..p.,+A...w.W.[.&.Y y.t.8.W.6.v.Q g.++++c+A+x+++Q.'.8.t...A...t.p.;. .j.-.d.(. .$+C.w w.$+..K !.!.H p.t.3+",
"d+w.2.L A.w e _.3+y.8.2._.y.w.A.Y U...-.6.s.s.F._...w !. +N 4.B+E+x+c+4...y.s.o.b.T Y u.|.z.w.|.Z n w A.[.'...|.F.w ~.].y.M o A.",
"3+2.v.d.v.L l.w.w (.M ..(.7.Q 6.u t.P 9.%.s.|.y.<.s.W }. +N ++x+F+x+ +++u.|.<.<._.V A.7+=+F.~...-.E -.7+4+3+v.@+9.[.-+-.8.'.d...",
"7+-.A.s.V ^.U.8.Y W |.v.|.d.s.L v <.v.d.[.o.n.p.|.A.z 4.c+j ++c+F+x+,. +w.q.f.h.C |.w.A._.Q >.G b.K.4+b.w.N.8.t.&.d.v.~.&.A.w.+.",
"7+'.|.o.Y j.b.W t.Y z.v.y. .L [.b.t.M J (...Z.|.<.Y.H ++N ,.++c+F+x+ + +Q._.k.(.2.M w.-...n E <.'.K.~.A.u '.-+=+-+=+'.N.k Q y.'.",
"5+z.I Z 9.[.|.=+7.p.z.p.u.U k y.1.&+|.<.`.[.[.[.<.&.v. +3 O g+++E+c+c+ +/.8.j.h.U.Z.^.D ..%.%.-.&.-.-.b.c d.e -+A.$.W -+!.w d.w.",
"}+$+K.-+F.6.|.y.W _.7._.q.W L _.p.y.&.h.2.&+F.v.v.M G  +f N g+c+C+c+j+ +4.q.^.j._.q.W &.!.}.Q y.4+-.Z 7 P b.~.h K.s.o K.-./.-.A.",
"z.8. .>+w._.|.z.3.E.u.*+k. ...3.7.8.u.l.u.s.C.p.s.b.!.g.f f c+x+A+x+j+g.g.p.k.h.U z.'.q.B Q.Q.w.G Y Q K o Q -.P A.F.F G s.H ,+d.",
"8.D w L.$+W 8.7.y.].;.2.;._.x.3.M 2.U u.p.s.C.`.(.Z !.g.j f ++B+x+x+j+,.,.p.q.l.M ].}./.x.u.=+G E n n ~.P G H F s.-.E G y.Q d+v.",
"C.Q m !.-+[.<.z.y.t.w.2._.j.k.8.W t...&.|...p.l.<.p.}.,.3 N x+x+j+j c+g.O =+(+y.d.b.+.J.z.'.w.E F E P *.G >.~.I b.G / d.G w.K.$+",
"[.$+9.K.z.W.p.c.=+2+z.|.U (.q.b.u...D !.[. .U U C u Y.O f f x+y+c+++ +g.,./.8.v.L.&+t.Q K.K.K.Q ~.*.K ~.F ~.K.-.w.Q J ..-+4+A.F.",
"r -+'.3+'.y.p.Q z.S.u.y.s.(._.3.p.W Q .. .V ^.=.u Q V.N N f B+x+j+c+c+ +O !.8.w.y.<...-.Q Q L.w K.>.G ~.V.L.y...8.M w d.8.'.t.P ",
"L y.t.$+&.u.p.2.y.M.y.b.o.<.1.<.<.*.d.Y M  .Z.[.n u V.3 j f x+c+j+c+g+ +5.A.t.A.d.(.z ].n k 7.d.4+~.b.;.z.F.&+&.&.D Q &.P 2.M 2.",
"m 2.@+&+q.x.J.w.&+u.[.9.Z Y Y ^...G -.P M u '.6.6.E ++> f N c+c+c+g+w+g.R L.$+&+$+|.J 7.k +.8._+|. .!. .E.A.v.&+u.;.!.!.b.A.|.q.",
"C ..n.$+k.O.,+T.A.2.^.i P -+n.Z b.w.[.b.P G A.Y v *.++> 3 N  + +#+c+g.5.R Y.,+>+[.&.P H D 8.K.F.6.V |.-.,+A.;.w.F.d.[.Q b.v X _.",
"C u (.J.M.q.&+v.d.W J M ^ !.%+v.t.t.n.&.E Q v.-.P L g.f f N g. + +c+ +,.g.}.y.>+p.[.8.u w A.m.v.P 9.-+'.8.x.q.w.-+F P &.d.&.2._.",
"A.k y.x.>+z.|...Z (.h.<.P |.Y Y |.2.W.|.%.P Z 9.Y _. +f N f g. +g. +c+g.5.V.A.%+m.<.u.L  .u o.L 8.V Z 8.b...U D '.'.&.Q 7.M s  .",
"[+|.p.%+u.v.2...s.Y q.8.&.|.2.2.<.t.l.J ..d.F [.P.`. +j N f 4. + +g. + +g.Y.}+v.9.Q 2.>+;.s s.s M Z v w.w.Q z V ..i U c G -.G M ",
"[+<.-.7.3.|.k '.u.j.(.q.x.u.7.u.2.q.P.u.[.L A.P (.U. +> f f 4.c+,.g. +g.5.}.*+b.9.>.-.!.A.w 2.c w P &.'.H z.T w u _.L M 6 @+A.W.",
"~.<.|.y.]...(.t.%+p.U _.U.z.w.u.k.3.q...w.Q 8.<.&.k. +& 3 f O c+,.g.#+,.,.}.Q ..'.-.d.&.K.e <.Q Q d.Q P 9.&.G Y %.w.A.&.6 A...8.",
"s.A.`.&.'...J t.8.'.W T U.y.y. .3.2.7.y.8.].b.&. .x. +& 3 f N  +g. + +,.,.Y.Y &.n !.P Z A.Z |.m w A.G G d.v Y Q <.V 8.~.-.d.A.M ",
"`.>+v.2.P &.Q &+2.Z M V q.q.=+d.P y.u.7. .d.[.L _.W. +3 3 f j ,.g.j+g.,.R Y.m.Y F d.M ..u.d.i -+y.-.!.G 9.9.Q  . .d.d.d.F Y.7+-+",
"K.H.E Z ..-.&+p.J s.s 2.u.W.2.s.Y u.2.u.p.[.P U q.f.++& j f N O c+j+#+g.R O W j.y.y. ...7.d.-.-+%+2.$+}.G d.b.W  .u...b.-.M ..3+",
"l+Y.Q A.K.K.+...M M u |.*+D p.<.n A...;.Q Q %.1.p.i.G.& f 3 j ,.c+j+ +#+R ,.u (.l.7.W W =+'.!.&.n.%+,+G ].P %.L '.;.2.|.M s v -.",
"A.l+c c z.-+w.w.'.P b.2.u  .M ..M '.M 7 w w Q t.*+_. +> > 1 O ++g.j+j+#+R }.J T z 3.Q  .[+z.'.w '.t.x.q.v P Q +.'.;.h.2.G Q ~.'.",
"2.p+u 2 ;.t.p.z._.J 7.J.8.b.b.-.8. .4 L 6 7 w.u.'...++$ > 3 ,.c+ +#+j+j+5.}.J u +.D Q '.&+(.^.&.u t.<.q.<.*.y.7.u.i._.q.u %.o !.",
"d+!.z.7.s q.2.q.T u 7.u.M z z.d.8.8.i |.Q K.-.M A.o.V.& > 3 j  +j+#+y+j+,.Y.u -.e c y.v.s.|.=.C '.'.W (. .Q '.u.z.i.k.(._.n E w ",
"d+/.3.l.w W z.q.;.T q.7.W  .d.<.p.2.Y y.'.e c ..&.d.V.1 > 1 O c+ + +A+j+O }.n Q F Q b.s...2.(.<.Q G !.y.<...G q.W.W k.M p.&.9.+.",
"%+y.-.<.2.t.%+z.;._.h.8.w M [.|.J...b.6.w.'.&.d.b.w.V.O f j f O c+,.#+q+R }.w Q !.'.|.d.-.&.J n.Y Q .. .y.s...v.U 7.p.y.t.p.7.3+",
"}+7.A.A.2.w.w.=+X @.8.2._.3.2.3.M.W w v.d.&.[.b.b.1+Y.,.j 1 f g. +5.y+j+5.}.[.e y.b.d.[.7.w b.A.W.7.8.D p.q.3.j.p.o.X  .x.U b.3+",
"z.|+2...s.2.>+s.Y ;.7.u.%+%+z.D i.(._. .8.W p.[.p.J.~.g.& N f O g.j+j+#+5.}.t.9.d.6+&.[.d.!.P !.-+7+>+=+|.D x.8._.p.&.z.b.[.8.'.",
"8.>+%+|.|.p.,+8...W.(.'.P W p.i.@.1.`.&+p.q.7.o.>+ .!.,.> 1 > 4. + +#+G.g.}.K.d.b.4+E 8.[.y.'.A.t.*+c.].W.Z 7.t.[+U.J X '.w |. .",
"..3+x.z.z.D 3. .7.b... .7.3.x.j.^.l.p.w.b.q.%+=+,+y.'.g.> N 3 N N O 5.#+G.K d.A.d.(+9.Y <.[.y.A.u.%+w.b.t.s.A.w.w.u W &.G &.8.&+",
"8.w.z.7.2.D P.p.d.2.p.<.h.h.2.p.l.u.y.t.t.&+2.z.t.y.w.g.f O f 3 4.g.5.5.q+}.8.|+A.s.[.|.U w.u.w.t.p.|.t.%+s.$+Y.w.|.Y d.&.'.$+s.",
"w.L.y.u.W J.t.&.w.W l.n.(.2.p.p.2.*+z.W.%+t.W x.3.u.z. +j ; f 3 j ! l G.q+K.8.[+y.v.v.&.Z =+c.z.v.&+2.U.}+p.b.A.2.y.v.Z.n.=+|+'.",
"z.'.&+8.8.z.L.<...W |.;.j.j.(.W T.y.E.y.z.3.<.p...^._.g.1 j j N ; l j 5.q+L.$+w.,+6+d.A.8.A.v.q.Y 6.o.U.3+P.z.y.'.A.v.b.n.%+>+z.",
"7.w 8.v.b.7.z.A.F P W 8.P.x.p.q.w.>+{+t.|.J 3.t.t.p.W g.1 j j N j ! j R #+b.v._+|.3.u.8.w.s.W.U.!+p.|.[.@+,+u.w.8.y.&+b.y.%+t.u.",
"7...Q.!.7+v.w.=+d.2.*+z. .&.|.2...u.S.z.7.2.u.t.u.n.|.}.O 1 O & 1 O l #+g.L y.y.|.2.2.|.y.A.|.%+O.h.p.t.=+,+%+=+J.v.t.=+z.u.v.&+",
"^.7.L.v.$+[.2.T.w.y.*+p.u.|.,+u.+.z.!+2.2.q.u.'.y.|.[.'.g.1 1 1 j l ,.q+V.Q y.d.|. .q.J u.[+-.y.U.p.q.y.'.=+3+,+=+=+6+y.x.z.y._+",
"V 8.F.v.v.8.7.)+Q.,+P.u.u.u.;.y.L.%+J.k.).q.%+2.p.p.|.w. +& ; 1 j j G.q+~.-.A.!.H.L <.[.[.=+,+%+u.>+&+$+y.K.>+|+-+|+3+w.|+}+%+y.",
"[.v.s.%+..w x.z.y. .2.,+w.u.M y.)+=+2.3.u.1+!+u.[.t.Y u.++O 1 O ,.,.R q+~.A.!.&.H.n 8.7.9.7+|+%+u./+,+$+A.3+=+,+(+-+(+>+[+U.q.p.",
"&.|.n.b.u o M  .|.d.$+&.y.u.u.y.s.s.x.*+>+}+1+,+v.t.s.p.}.,.1 1 j l 5.j+v Z *.[.o.d.y.p.b.-.>+-+|./+u.b.F.F.P =+(+Z.p./+U.p.j.%+",
"&+F.F.$+A.Q &.w.u...v.y.[+z.7.u...q.X !+z.!+M.|.s.o.t.t.!. +& ; j j R ,.V U r Y b.Y 8.|.y.!.>+>+z.u.n.|.d.v.6.d.s.^+u.p.P.|.u.%+",
",+&.[.@+P s.t.+.<.-+y.u.,+7.d.u.W s.U.p.*+!+z.t.&+v.|.2.!.g.j ; j j #+~.C L &.w b.[.G A.y.b.y.x.u.z.t.A.$+v.b.F.s.`.<.T _.%+p.M.",
"w.&.Z r 8.V 8.'._.d.-+!.u.u.M M x.z.q._.P.!+J.u.[.Q s T q.1 j+& > l 5.F P V Y G Q b.8.|+w.v.7.x.8.A.w.>+8.d.A.z.y.-+o.M W j.q.2.",
"..*.[.Q z [.d...X 2.y.u.w.E.'.w.y.y.W.u.k.z.,+E.u.(.z  .3.G ,.j+g.j+t r |.L Z d.e e '.=+|.t.(.X s.7.u.P.W 2.2.$+b.t.-...3.u.` (.",
"Z Z b.y.%.b.!.w ..z.E.t.!.8.=+>+t./+%+U._.!+=+L.3._.b.Y X 7.h ,.#+1 K U Q d.9.P -.&.2.-+y.|.7.Y z.|.u.M.v. .].'.t.[.u.Y  .w.C W ",
"|.u &.p.-.d.w.d.A.d.t.y.K !.x.%+y.%+>+&+@+u.!+Q.z.2.u.Y J (.w.j ! ~.Z P !.K I E E [.o.=+&.&.l.8. .v.(+q.n.P =+w.y.A.-+&.n w.D M ",
"9.b.d.[.F.v.G A.4+-+n.p.'.].w.u.p.7.x.*+p.%+W.q.7.*+7. .|.n.|.8.p.u q.t.d.F ~.&.|.8.s.w.d.F.J (...w.p.T m.d.z.3.*+>+d.-.&.v.v ~.",
"A.!.b.|.v.K.A.'.,+|+y.z.'.'.z.u.u.>+%+u.u.8.%+2.*+x.t.x.2.|.8.p.Y P `.8.w v E '.b.b.b.d.b.b.|.U v.Q Q _.2.,+J.w.y.x.u.].~.c.+.N.",
"x.c.E.7.y.Y.6+d.7.s.u.y.w.>+J.[.z.u.7.W.&+=+>+u.z.x.k.t.7.|.|.i P d.b.|.v.G }.F c.d.~.9.d.c.7.(.s.2 !.-+u.W.&+|+s.w.s.F.d.W ;.3+",
"U.u.|+A.L.|+E.Q.A.n.u.z.L.=+=+A...3.|.P z.w.%+,+8.x.M.z.8.q.<.Z -.&.P *.B._+}.~.+...-+*.K.K.G |.m.L &.z.8.>+U.3+v.-.7.d.A.7.i.A.",
"u.].!+J.L.7+L...q.|.u.=+L.A.Y.!.'.u.w.K.w.w.z.u.8.M E.,+8.q.'.v.b.v.-.E E }.=+~.c -+F.9. .8.-.K.$+U.y.+./.}+,+k.U.t.y.!.4+b.@.3+"};
