/* XPM */
static char * item_rot_2b_64_xpm[] = {
"64 64 255 2",
"  	c #000000",
". 	c #060D20",
"+ 	c #3D0001",
"@ 	c #2E0500",
"# 	c #210B06",
"$ 	c #2D0B1A",
"% 	c #18132F",
"& 	c #4A1A13",
"* 	c #44252D",
"= 	c #422A0C",
"- 	c #2C2E3D",
"; 	c #462A21",
"> 	c #3B302E",
", 	c #3F3024",
"' 	c #513608",
") 	c #5B392C",
"! 	c #573C3B",
"~ 	c #534030",
"{ 	c #444349",
"] 	c #4E423C",
"^ 	c #654B48",
"/ 	c #624F40",
"( 	c #5C514E",
"_ 	c #5F5148",
": 	c #545359",
"< 	c #3B612D",
"[ 	c #3F6B25",
"} 	c #4F6729",
"| 	c #6A5C51",
"1 	c #665D59",
"2 	c #755A53",
"3 	c #705C5B",
"4 	c #626268",
"5 	c #716358",
"6 	c #6D6460",
"7 	c #41791F",
"8 	c #596F47",
"9 	c #487B31",
"0 	c #537834",
"a 	c #4B7A41",
"b 	c #557741",
"c 	c #50784D",
"d 	c #796A63",
"e 	c #7E6E5D",
"f 	c #7A6E6F",
"g 	c #777068",
"h 	c #737171",
"i 	c #856C73",
"j 	c #617E2B",
"k 	c #57832B",
"l 	c #80716A",
"m 	c #50872C",
"n 	c #51891F",
"o 	c #5F8437",
"p 	c #538740",
"q 	c #548837",
"r 	c #5E8541",
"s 	c #837A77",
"t 	c #877A6E",
"u 	c #5C8D50",
"v 	c #678A52",
"w 	c #5C8D58",
"x 	c #668B60",
"y 	c #848085",
"z 	c #5A9529",
"A 	c #7D8387",
"B 	c #AF7481",
"C 	c #81837F",
"D 	c #589638",
"E 	c #5A944B",
"F 	c #5F9439",
"G 	c #639242",
"H 	c #6A9042",
"I 	c #5B9542",
"J 	c #69904C",
"K 	c #61934C",
"L 	c #908276",
"M 	c #8C8380",
"N 	c #6B952F",
"O 	c #7F8C66",
"P 	c #6B973E",
"Q 	c #5E9F24",
"R 	c #5FA21C",
"S 	c #62A034",
"T 	c #6B9E35",
"U 	c #948C89",
"V 	c #6A9F44",
"W 	c #63A240",
"X 	c #6A9F4D",
"Y 	c #65A056",
"Z 	c #6F9C61",
"` 	c #63A247",
" .	c #6C9E56",
"..	c #699D6D",
"+.	c #62A24D",
"@.	c #679F61",
"#.	c #BF808F",
"$.	c #759C56",
"%.	c #789B63",
"&.	c #759B70",
"*.	c #9C8E81",
"=.	c #AD888E",
"-.	c #919287",
";.	c #949095",
">.	c #8F9394",
",.	c #66AE1D",
"'.	c #68AC31",
").	c #9C9491",
"!.	c #70A93E",
"~.	c #68AC3D",
"{.	c #69AE4D",
"].	c #71AC4A",
"^.	c #71AC51",
"/.	c #71AB60",
"(.	c #70AC58",
"_.	c #6BAD60",
":.	c #67AF58",
"<.	c #7CA958",
"[.	c #7CAA51",
"}.	c #83A851",
"|.	c #79AA61",
"1.	c #84A763",
"2.	c #7DAD36",
"3.	c #6CB32E",
"4.	c #8BA763",
"5.	c #A49C99",
"6.	c #75AF71",
"7.	c #C8929F",
"8.	c #78B528",
"9.	c #70B63B",
"0.	c #70B643",
"a.	c #7AB348",
"b.	c #70B64A",
"c.	c #83AD72",
"d.	c #82AD7E",
"e.	c #BA999D",
"f.	c #9FA29F",
"g.	c #A4A0A5",
"h.	c #70BB29",
"i.	c #9DA3A7",
"j.	c #ADA091",
"k.	c #9AAA68",
"l.	c #A3A499",
"m.	c #70BF17",
"n.	c #73B954",
"o.	c #70B962",
"p.	c #72B95B",
"q.	c #7BB75B",
"r.	c #74B86A",
"s.	c #7DB755",
"t.	c #7AB762",
"u.	c #71C204",
"v.	c #7CB66B",
"w.	c #87B55A",
"x.	c #87B562",
"y.	c #85B56C",
"z.	c #ACA5A1",
"A.	c #8FB45B",
"B.	c #95B16D",
"C.	c #7BBE50",
"D.	c #77C24D",
"E.	c #76C255",
"F.	c #78C346",
"G.	c #85BE52",
"H.	c #7AC43F",
"I.	c #B0AC97",
"J.	c #9FB47D",
"K.	c #9BB48D",
"L.	c #82C248",
"M.	c #78C733",
"N.	c #86C165",
"O.	c #7EC45F",
"P.	c #88C06B",
"Q.	c #7EC926",
"R.	c #7DC466",
"S.	c #80C36B",
"T.	c #87C25F",
"U.	c #85C081",
"V.	c #7FC374",
"W.	c #D4A4B0",
"X.	c #81CB1C",
"Y.	c #83C656",
"Z.	c #85C839",
"`.	c #87C744",
" +	c #94BE82",
".+	c #B4B0B5",
"++	c #88C376",
"@+	c #8DC54C",
"#+	c #B8B0AC",
"$+	c #91C174",
"%+	c #93C16E",
"&+	c #ACB3B8",
"*+	c #90C17A",
"=+	c #94BE8F",
"-+	c #BCB0A2",
";+	c #B1B3AC",
">+	c #95C266",
",+	c #9BBF79",
"'+	c #C0B199",
")+	c #8FC85B",
"!+	c #88CB5B",
"~+	c #89CC51",
"{+	c #C4B496",
"]+	c #8FC96D",
"^+	c #89CB73",
"/+	c #90CA66",
"(+	c #95CB4A",
"_+	c #90D213",
":+	c #92CA74",
"<+	c #99CD40",
"[+	c #91CD7E",
"}+	c #A2CB61",
"|+	c #98CF62",
"1+	c #99D057",
"2+	c #A0CC70",
"3+	c #9ECC78",
"4+	c #9DCC7E",
"5+	c #ADC77F",
"6+	c #9CCC85",
"7+	c #99D070",
"8+	c #A7CB84",
"9+	c #C3BEB9",
"0+	c #9CCE8F",
"a+	c #9FCE9D",
"b+	c #D9BABE",
"c+	c #A9CE93",
"d+	c #CBC1B4",
"e+	c #CEC1AC",
"f+	c #DEBAC7",
"g+	c #C1C3C8",
"h+	c #B7CC95",
"i+	c #AECF9E",
"j+	c #ACCFA7",
"k+	c #AAD578",
"l+	c #ACD682",
"m+	c #CCC7C3",
"n+	c #ABD68C",
"o+	c #BAD0BF",
"p+	c #BDD1AE",
"q+	c #C0CFD6",
"r+	c #B6DCA0",
"s+	c #E9CCD0",
"t+	c #DDD2BC",
"u+	c #BADEB3",
"v+	c #D9D3CF",
"w+	c #DCD3C6",
"x+	c #D3D5DA",
"y+	c #ECE5D3",
"z+	c #E3E6EA",
"A+	c #EAE5E1",
"B+	c #DCECF4",
"C+	c #F1F3F7",
"D+	c #F6F3EE",
"E+	c #FBF6E5",
"F+	c #FFFFFF",
"q.q.(+%+P.*+6+:+q.|.|.$+*+x.,+ +x.$+3+$+t.q.q.:+c.x.G.7+*+X  .P.K x.P./.6.x v.P.6. + +(.t.y.|.Z *+6+4+4+J.w.O.C.T.F.q.|.y.t.t.C.",
"H.!+`.t.*+y.$+y.y.y.t.N.2+x.x.8+P.T.>+<.c.y.++c+c+4+x.y. +Z Z ^.v.v.v.++]+q.*+*+v.y.=+K t.t.P.|.*+C.>+x.y.P.q.0.!+C.q.q.%.Y p.n.",
"L.~+~+++^.G.y.y.&.y.$+(+T.y.X ,+<.>+x.y.|.x.)+/+q.(.n.P. .y.X G y.*+0+a+P.b./.P.*+x.U.6.~.p.(.$+c.G.q.U.|.c.c.^.9.H.]+G. +U.v.s.",
"8.]+Z.O.!.P. + +=+|.T.N.C.N.$.8+w.a.T.y. .].b.t._.E V y.s.|.X q.c.(./.6.Z |.P.O.0+y.v./.^.V *+x.A.!.].q.y.0+|.|.^.@+a.3.<.c.++$+",
"s.N.Q.H.[.w.,+ +d.|.q.N.%+y.c+,+a.o x.y.|.K ]. .Y @./.a.].!.^.I Z |.Z /.t.t./.N.0+y.t.6./.^.6+B.}.W <.~.C.P.4+++J w.!.x.T.1./.:+",
"s.x.Q.a.|.q. +=+K.++P.|.T.>+8+[.G.1.$+|.|. .y.$+/.v %.J.J.;+d+9+d+9+;+J.,+v.v.]+N.1.|.v.d.x.*+%.^.~.[.x.^.{.].N.,+B.1.].^.q.Z x.",
"C.Y.].H.(.S.*+*+|.P.c.x.C.x.J.G.%+$.y.0+*+v.w.x.U.I.e+e+d+-+-+#+9+d+v+A+v+;+K.D.O.(.|.q.*+|.++6.Y K F.w.x.9.{./.s.>+1.P.t.^. .|.",
"S.!.s.F.` t.6+c.|.C.X $+t.<.1.%+P.|.6+|.T.$+$+i+-+z.).f 1 y f.;+z.;.h 6 l.m+m+I.J.x././.y.d.t.:.v.y.(.|.T.X ].^.V a.T.[.N.++t.<.",
"F.C.O.2.$.y.++P.v.x.$.y.y.y.<.n+t.$+N.%+$+0+l.j.).s i.v+D+F+D+D+F+F+F+x+9+f M d+#+I.|.(.V.(.I c.|. ./.>+:+y.L.n.a.0.)+a.a.~.F.a.",
"x.F.E./.y.6./.s.B.%+ +c+6+=+0+4+v.^.^.%.J.j.5.U f.v+#+y+e+-+d+e+t+A+C+A+m+D+m+s I.#+I. .y. +X ^.v.v.Y 0.a.7+C.q.q.<.V X )+t.V @+",
"N.:+C.W !.1.v ^.q.c+ +y.E.P.$+q.y.q.+.&.).z.;..+I.-+j.L #+).m+-+#+#+x+z+m+m+w+v+z.).9+j.y.T.S./. .6.n.M.C.N.3+q.X 1.J O !.D.{.q.",
"y.P.G ].(.Z |.{.E.0+ .<.C.:+++$.P.Y.y.).z.g.m+e+L 9+5.L v+w+9+9+A+A+C+v+D+y+#+z.v+-+*.#+J.].0.|.v.b.].++S. .y.++<.%.1.1.%.C.N.6+",
"c+P.^.` c.x x 9.6+P.|.s.0.v.y.++^.!+-.)..+m+'+L L -+M z.).d+w+A+A+D+F+v+y+w+w+m+m+m+#+j.-+J.P.q.(.G  .y.p.|.(.n.V. .c.x.x.X J $+",
"6+n.P.6.V.{.F.P.X ].X <.b.q.$.r.W K.U f.9+).#+L *.;+-+I.z.#+#+y+D+F+F+D+y+w+m+9+#+z.z.d+I.-+d.(.%.x |.0+0+ +P.S.r./.*+6.x.|.v.(.",
"6+|.y.v.` 9.Y.q.^.].p.v.q.v.v.+.d.M ;+v+*.v+L t 5.5.-+e+j.z.#+w+D+F+F+D+A+y+w+d+z.z.z.9+#+I.j. .t. +=+v.P.=+q.t./.y.y.c./.y.y.<.",
"6+|.q.t.{.F.t.].t.^.N.S.N.^.X (.-.).m+j.| #+L s 9+j.'+e+e+m+).m+D+F+F+D+y+w+m+d+#+l.#+.+#+j.#+J.|. +d.++G |.*+*+*+*+|.=+F  .y.|.",
"3+T.&.(.v.q.q.*+s.C.N.C.T.!.G K.s g+9+t d d ).).z.j.'+d+t+#+I.j.v+F+F+v+m+.+#+g+m+#+#+m+).#+j.e.|.|.|.v.K y.v  +d.9.].*+y.X c.y.",
"%+++ +*+++t.n.x.].a.q.9.C.].|.C g.v+).5.l t L ).*.j.'+t+t+-+v+#+9+z+F+v+m+v+9+m+q+9+z.9+5.5.-+l.p+|.(.r  .t.c.v  +N.J  +|.c.|.d.",
"w.t.^.%+y.b.p.x.a.B.w.)+L.].B.l x+#+^ *.U l L t *.*.-+t+y+d+A+v+z.v+F+A+m+A+d+v+.+m+#+#+5.).9+).;+^. .%.J $.|. .++V.Z %.R.$.:+v.",
"q.V X  +*+].q.s.P.x.[.s.a.0.-.).x+t 5 | U z.| M j.6 I.-+m+w+A+y+z.#+A+A+m+m+y+w+9+v+9+z.5.f.).*.z.*.G c. . .%.Z t.|.@.%.x.(.c+S.",
"S./.K 1.*+t.^.T.N.T.P.^.0.s.l m+9+5 d d | j.d L j.j.e+w+E+y+m+w+m+#+m+A+s g ).L ;+x+#+z.z.5.).).M z. ./.Z &.c.&.v. .b v.Z ++ +++",
"t.++6. +x.O.C.w.$+|+T.(.!.*+6 z+*.| d d M d t L ).-+e+y+y+y+m+v+x+z.#+m+m+-+j.*.L m+v+z.z.5.U ;+).#+&.c.Z d. +|.$+ .W <. +=+U.V.",
"E *+|.6+|.N.C. .N.Z.G.N.t.d.).x+t U d 3 9+l t L t I.t+y+y+y+9+9+x+m+5.m+m+e+e+e+e+5.A+#+z.5.f.U M 5.*.c.a+,+x.(.q.V X c.t.v.t. .",
"+.P.N.*+/.G.C.s.x.L.P.v.o.s 9+m+] 3 L M U l t L *.L d+D+d+w+9+9+x+v+5.9+v+e+e+e+d+j.v+.+z.l.9+>.9+U I.s.x.++N.|.|.X $.(. .^.X [.",
"I s.P.P.C.G.>+B.P.O.p.6.c.6 A+5.| 3 ^ 5.t l t L *.*.).v+w+w+9+#+z+m+z.).v+-+e+e+w+t+9+f.5.z.;.f.;.M 9+<.%+c.P.P.O.a.y.1.t.*+(.C.",
"S (.E.++H.Z.]+,+$+^.9.I d.1 D+l 5 d d d l t L L j.'+j.#+v+9+9+l.z+;+5.#+v+-+e+e+z.).l.l.f.g.f.;.f.s .+c.$+*+a.y.++v.p. .t.K !.a.",
"S G b.)+L.L.P.v.v.].W X C s A+_ M _ s l l l L L *.'+*.).9+9+#+I.x+;+U 5.9+t+e+-+#+-+5.5.5.f.g.).9+U f.J.q.G.G.y.*+|.Y /.y.|.s.a.",
"++G N.G.]+T.n.(.(.].9.b.l.).v+3 M d 9+U t l s L *.'+).j.z.m+#+).v+;+).M z.m+w+e+j.v+).;+;+5.;+z.C 9+;.K.v.^.!.V |.|.|.$.<.X W [.",
"7+n.C.N.G.y.s.(.R.^.L.q.O g.m+).3 l.).5.t L t L *.j.*.-+z.w+5.j.#+v+g.).;+z.#+v+-+5.U #+.+f.g.#+z.z.;.c+y. .W ].<.I ~.u Z |.Z X ",
":+b.|.q.a.|.G |.s.F.b.C.-..+9+_ | d #+L l t t t L j.L I.5.v+9+-+z..+f.;.m+L z.).m+z.9+z.U g+f.U 9+).M ;+$.A.~.X ` b.X V u P.y.Y.",
"c.^.q.N.x.(.a.t./+C.~.0.O 9+#+_ 5 5 d l t t t t L *.t I.z.m+#+v+j.z.5.M m+U ).-+9+.+M 5.)..+).U >.5.U z.6./.Z X _.y.*+/.p ++(.t.",
"t.y.T./.v.(.W t.q.|.].!.M m+#+| d 5 5 d d l l s L L l j.5.9+z.v+z.).#+z.g+g.L z.g.A+).5.5.;.z.;.g.;+U #+v.K ^. .n.{.x.c.6.c.d.X ",
"N.%+P.n. ./.(.P.n.(.X V O m+#+d 5 d L 5 5 g g s t L l U U 9+M 5.#+*.z.9+v+9+5.5.M g+;+).f.).>.U f..+).#+r.6. .[.^.v.y.c.Z =+0+*+",
" +U.@.(.(./.P.D.V v.W n.O 9+#+_ _ ! #+g 5 d l s t s t ).M 9+L ).v+m+5.;+m+.+.+5.z.g+x+).5.5.;.U f.U U ;+Z v.t.].^.T.^.v.6.V <.6+",
"j+=+ .d. + +<.(.X X V q.O #+9+_ _ _ ).M 5 d l l s t s U M 9+L *.-+A+).z.m+g.m+.+z.;+C+;.f.5.f.y ;+9+;.l.1. .(.X |.[.n.n.X F K |.",
"y.j+K u x. +P.y.|.Y t.[.-.z.m+| 5 d l 1 5 d d s M s s 5.U m+I.f L v+;+z.v+g.A+g+#+.+x+;+).f.f.;.y U >.I.Y  . .<.|.[.9.n.Z  .c.|.",
"^.i+I p a.x.G.x.0.~.s.T.c.U x+_ _ ] _ | 5 d d t t l U #+U v+m+v+).f.9+f.m+5.x+v+g+;+x+v+).f.;.;+;.g.;.J.b./.P.s.q.M.9.F.X (.J 1.",
"0+y.T.q.S C.a.C.~.G s.q.d.6 A+~ _ | 1 5 5 6 d l t 6 s z.5.d+#+9+m+9+x+;+9+;+m+A+x+).x+x+;.f.>.5.m+.+;.c.^. .|.O.x.h.H.b.0.K @. .",
"c+c.a.b. .].T.C.^.'.C.s.B.| z+5 _ | | 5 5 d d d g s U m+5.5.;+v+9+z..+5.9+d+.+C+z+m+;+z+9+f.U ;.y g.g. +b.(.%.C.Y.].H.X s.|.6.<.",
"T.y.|.a.n.q.T.N.[.0.9.w.%.l x+)._ z.5.| l | d 5.5.).3 1 g ).#+v+v+)..+g..+z.z.g+z.A+.+x+g+i.>.>.U ).g.<.S.t.<.S.].s.C.P.t.C.s.6+",
"7+s.y.++n.$+P.,+9.9.q.s.0.L z.9+M ] s f 9+3 5 ).( l t 5.z.5.U s M 9+9+).g.f.z.x+g+9+#+x+&+&+g.;.f.).f.$.s.F.a.F.C.O.!.[.G.].v.6+",
"T.4+s.(.t.a.]+R.^.].w.q.T.K.d A+).l 6 ] 6 d 6 z.M s | ).5.M ).z..+#+m+v+#+A+9+x+g+g+9+g+&+&+5.&+g.).K.$+(.V L.x.a.E.(.x.t./.q.|.",
"q.]+N.q.q.s.%+q.(.Y.b.|.@. +| A+f ( ( 6 5 U 5 g s g 6 | t I.z.z.z.z.z.z.5.z..+g+g+g.f.&+i.&+9+;+;+f.B.x.Y.^.q.t.:+G.W !.1.v q.^.",
"(.6+G.N.x.X a.[.s.v.(.^.<.n.M 9+9+~ | | _ #+s g g s l d l j.j.j.L M U ).-.U ;.f.f.&+&+&+i.q+y i.).g.y.t.t.S.*+y.P.V ]./.%./.q.P.",
"q.P.x.q.[.X L.C.v.^.E.n.M.9.K.s A+_ _ | 5.5 9+d f s l L 3 g t *.j.).l.l.#+z.&+i.f.i.&+>.i.q+x+&+).l.q.O.N.R.++0+P.q.^.c./.|.$+N.",
"x. +x.q.].T.q./.y.].D.q.b.s.y.l v+z.z./ 5.6 s 6 g s g *.s 6 1 g M U U s s h s h h >.f.>.&+x+B+&+g. +n.Y.]+C.v.++s.N.v.S.q.$+3+t.",
"x.|.P.t.t.x. +n.(.].q.a.F.F.b.-.U A+s ).1 ] 1 z.l s l *.L ).U 6 _ 1 1 1 h C >.U >.>.s g+&+x+B+f.;+t.t.Y.6+L.N.P.|.++S.t.E./+P.N.",
"s. .<.v.|.s.x.++Z X ].q.D.G.C.$+d m+;+( ] ( 1 l #+g f *.).M M U U U M h h h h h h y y h .+z+g+&+ +C.n.q.P.]+Y.P.q.P.P.t.N./+t.T.",
"<.[. +1.0+y.P.,+v.n.T.T.^.|.(.s.).f A+1 _ | | / z.5.M d s 6 1 ( 1 6 h C U U >.y y y >.i.g+&+g.;+L.9.q.w.$+]+N.$+T.P.t.$+T.O.P.N.",
"b.w.*+v.++|.[.$+P.N.)+C.q.<.%+G.c.g z.v+~ _ 5 l 5.s U g g g h s s C C M U U ;.5.y y 9+q+B+.+g+=+Y.E.C.P.|.$+6+:+$+:+8+P.G.x.y.[+",
"{.t.V.V.P.q.s.%+,+]+L.q.q.T.].x.,+K.| v+.+~ 5 ( g ( g g h f g s s s y y s y U ).x+&+&+x+g+z.l.P.O.]+]+++P. +N.4+*+4+8+y.3+:+/+P.",
"o.y.v.N.(.X w.w.y.^.s.]+y.w.X P.%+$+l.6 A+l.| .+1 1 6 C 6 6 #+U f ;+>.s ;+;+s s >.x+B+q+z.&+8+T.s.)+:+++++6+$+]+[+[+:+/+:+Y.C.s.",
"|.(.E.t.` J ^.^.(.y.++|.N.O.q.N.v.v.T.C 6 A+5.d ( 1 6 #+h 1 g 6 6 f 9+d y >.6 x+h q+z+g.i.c.]+*+q./+Y.t.U.U. .$+:+S.s.)+Y.C.F./+",
"N.V.++*+*+ ./.P.T.(.P.N.:+N.s.q.(.C.0.)+t 6 x+.+_ 1 6 ( 1 1 h 1 M M C 1 s ;+s C A x+g.f. +c.P.P.T.Y.q.p.v.v.r.v.R.^+w.C.`.p.O./+",
"++_.(.++Y t.t.<.n.*+P.q.%+s.y.G.].R.Y.C.%+t ( m+x+C | 6 6 1 s g U g 6 6 .+1 C i.m+z.>.K.N.|.x.G.q.N.t.++*+P.v.V.v.T.n.~.0.T.E.H.",
"P./.(.I q.{.t.|.0.y. +c.T.q. .X s.T.L.b.L./+-.( 5.A+m+s ( ( ( 1 C ( 6 1 ( >.g+.+;.y c.4+$+y.q.G.q.$+P.%+t.y.$+N.N.*+t.X ].F.C.n.",
"(././. .W /.v.<.!.a.P.s.y.y.|.y.P.x.T.q.H.T.%+K.( 1 z.A+x+9+f.;.U ).z.9+m+9+).h -.&.|.*+q.N.b.!.v.q.T.L.].n.^.++t.q.|.^.a.T.'.b.",
"(.:.x.N./.t.1. .<.T.P.O.%.x.,+/+t.)+N.Y.a.~+%+,+$+O 1 ( s z.9+m+m+g+.+).s 1 -.&.|.|.n.*+N.(.q.^.N.^.q.H.v.^.1.|.q./.w.^.[.y.'.].",
"n.` /.C.|.c.P.v.c.y.N.P.%.y.G.T.P.!+>+N.S.G.@+,+N.s.%+d.-.f 1 1 1 ( 6 M -.&.&.@.x q.O.$+|.|.b.|.^.y.[+C.q. .,+P.y.y.*+_.K y.$.X ",
"6.t.c.q.++y.Z c.0+*+O.s.|.x.P.w.s.s.G.T.C.T.Y.G.s.)+s.^.^.p.q.t.C.I C.t.v.Z c./.(.t.v.y.y.V.~.b.^.P.E.'.n.v.N.a.)+%+c.|./.y.K d.",
"U.c.v.p.S. +$+|.:+4+N.x.|.|.N.q.T.]+N.s.T.t.N.a.T.G.N.s.s.q.t.C.^.Y O.t.Y Y @.|.t.v.v.y.v.t.(.!.y. . .0.^.]+T.P.N.G.T.1.c.x.<.=+",
"G.w.%+q.P.=+8+y.q.t.O.P.y.P.T.|.T.q.s.Y.P.$+%+w.T.G.F.x.q.^.n.I Y v.r.n.S.%.d.%.w.y.c.r.y.4.s.b.v.p c. +O.T.P.[+t.y.v.v.c.].s.6+",
"Y.s.4+++ +4+%+ +c.O.Y.x.J.%+*+*+(.a.(. .T.P./+%+t.G.`.T.x.C.n. ././.(./.V.[+d.d.1.<.*+/. + +Z q.n.X /.w.x./+Y.4+v.6.q.v.d.s.H.*+",
"T.1.@+T. +0+*+^.C.(.O.$+*+++6+c.|.w.$+ +P.y.x.T.t.^.>+]+q.C.|.P.v.y.6.Y @.d.*+c.v *+++v.^.q.|. +++Y.x.<.c.7+]+a.Y.x.N.c.0+t.'. +"};
