/* XPM */
static char * item_rot_4a_48_xpm[] = {
"48 48 255 2",
"  	c #000000",
". 	c #493E2B",
"+ 	c #396023",
"@ 	c #63594A",
"# 	c #4D623D",
"$ 	c #426A3B",
"% 	c #516B30",
"& 	c #3F722D",
"* 	c #437221",
"= 	c #487030",
"- 	c #477F2A",
"; 	c #4F7D2C",
"> 	c #4B7E35",
", 	c #4E7F1F",
"' 	c #4E7D3E",
") 	c #776F60",
"! 	c #607C4D",
"~ 	c #54804E",
"{ 	c #5F7C5A",
"] 	c #59813A",
"^ 	c #607F3A",
"/ 	c #5D8132",
"( 	c #5F8043",
"_ 	c #508833",
": 	c #618528",
"< 	c #4F8B25",
"[ 	c #538746",
"} 	c #588735",
"| 	c #54883E",
"1 	c #5B8646",
"2 	c #598B2A",
"3 	c #519011",
"4 	c #867E6F",
"5 	c #599240",
"6 	c #5A933A",
"7 	c #5D9147",
"8 	c #63903E",
"9 	c #628E5A",
"0 	c #5C914F",
"a 	c #668E4F",
"b 	c #838550",
"c 	c #6B924A",
"d 	c #639735",
"e 	c #5D9A28",
"f 	c #5C9B20",
"g 	c #788E53",
"h 	c #6A9536",
"i 	c #5D9A31",
"j 	c #5E965E",
"k 	c #5C9A38",
"l 	c #66936B",
"m 	c #73905F",
"n 	c #72906C",
"o 	c #818F58",
"p 	c #5D9C45",
"q 	c #5B9D4F",
"r 	c #649B46",
"s 	c #659A4F",
"t 	c #609B57",
"u 	c #91897A",
"v 	c #6C9946",
"w 	c #6B9763",
"x 	c #679A57",
"y 	c #6F9858",
"z 	c #63A821",
"A 	c #6AA53C",
"B 	c #65A82D",
"C 	c #70A341",
"D 	c #68A735",
"E 	c #64A83D",
"F 	c #67A64B",
"G 	c #69A644",
"H 	c #60AA36",
"I 	c #6EA44A",
"J 	c #63A845",
"K 	c #66A652",
"L 	c #63A65E",
"M 	c #6DA451",
"N 	c #6BA465",
"O 	c #6DA45E",
"P 	c #65A758",
"Q 	c #72A358",
"R 	c #6CA558",
"S 	c #76A167",
"T 	c #76A350",
"U 	c #9B957A",
"V 	c #9D9485",
"W 	c #7DA663",
"X 	c #77A777",
"Y 	c #7FA75D",
"Z 	c #88A469",
"` 	c #85A57C",
" .	c #6BB154",
"..	c #6DB247",
"+.	c #6DB061",
"@.	c #6CB24E",
"#.	c #6FB05B",
"$.	c #74B04B",
"%.	c #78AE54",
"&.	c #72B054",
"*.	c #75AE61",
"=.	c #77AE5A",
"-.	c #6CB627",
";.	c #71AF69",
">.	c #75B32E",
",.	c #77AD6F",
"'.	c #7AAD67",
").	c #6CB631",
"!.	c #7CAD61",
"~.	c #6CB81D",
"{.	c #80AD59",
"].	c #74B43A",
"^.	c #7BB23A",
"/.	c #79B242",
"(.	c #80AC70",
"_.	c #6DB73B",
":.	c #A79F82",
"<.	c #A69E92",
"[.	c #A89E8B",
"}.	c #6CB743",
"|.	c #73B542",
"1.	c #80B24E",
"2.	c #73B94D",
"3.	c #73B954",
"4.	c #7CB853",
"5.	c #80BB25",
"6.	c #72BB64",
"7.	c #74BB5D",
"8.	c #76BA6A",
"9.	c #7ABA64",
"0.	c #7AB970",
"a.	c #7CBA5D",
"b.	c #78B978",
"c.	c #82B95E",
"d.	c #7FB96A",
"e.	c #81B964",
"f.	c #88B762",
"g.	c #75C22A",
"h.	c #72C238",
"i.	c #84B779",
"j.	c #88B76B",
"k.	c #ACAB77",
"l.	c #87B771",
"m.	c #7AC13A",
"n.	c #82BF3C",
"o.	c #B2A996",
"p.	c #B1A99D",
"q.	c #79C05B",
"r.	c #7CC054",
"s.	c #78C34E",
"t.	c #78C71F",
"u.	c #77C355",
"v.	c #79C447",
"w.	c #92B97F",
"x.	c #81C350",
"y.	c #99B87C",
"z.	c #A0B67C",
"A.	c #96BB69",
"B.	c #85C349",
"C.	c #88C251",
"D.	c #85C25E",
"E.	c #87C257",
"F.	c #7CC468",
"G.	c #9FB971",
"H.	c #82C08B",
"I.	c #80C373",
"J.	c #91C151",
"K.	c #8EC15D",
"L.	c #83C46D",
"M.	c #85C466",
"N.	c #80C661",
"O.	c #8AC26D",
"P.	c #83C37C",
"Q.	c #8CC267",
"R.	c #83C65A",
"S.	c #81C941",
"T.	c #91BE8D",
"U.	c #83CA34",
"V.	c #8EC082",
"W.	c #9BBB90",
"X.	c #89C374",
"Y.	c #92C16C",
"Z.	c #9BBA9F",
"`.	c #83CE0C",
" +	c #90C17A",
".+	c #92C174",
"++	c #9ABF7B",
"@+	c #89CC25",
"#+	c #8CCB46",
"$+	c #86CB61",
"%+	c #89CC51",
"&+	c #BEB5A2",
"*+	c #BDB69C",
"=+	c #BDB5A8",
"-+	c #BAB984",
";+	c #89CB73",
">+	c #8DCC59",
",+	c #8BCB6D",
"'+	c #8FCB64",
")+	c #96CF2B",
"!+	c #8ECB7B",
"~+	c #94CB6F",
"{+	c #98CD49",
"]+	c #93CB75",
"^+	c #97CD55",
"/+	c #94CB83",
"(+	c #98CC69",
"_+	c #92CB8B",
":+	c #9ACC63",
"<+	c #9EC98A",
"[+	c #9BCC77",
"}+	c #9DCC72",
"|+	c #9ACC7E",
"1+	c #9FCA84",
"2+	c #9DCA90",
"3+	c #9ECE5E",
"4+	c #97CD99",
"5+	c #A3CC80",
"6+	c #A6CC77",
"7+	c #B0CB6C",
"8+	c #A4CB9C",
"9+	c #C5C0A5",
"0+	c #AFCA80",
"a+	c #C5C290",
"b+	c #A9CE6D",
"c+	c #B6C979",
"d+	c #AFCA87",
"e+	c #C9C0AD",
"f+	c #9CDC08",
"g+	c #C8C0B3",
"h+	c #AECB93",
"i+	c #A5CFAA",
"j+	c #A9D28B",
"k+	c #A8D295",
"l+	c #A6D671",
"m+	c #B4CEA2",
"n+	c #B4D0B1",
"o+	c #AED4A4",
"p+	c #A8DA84",
"q+	c #D2CBBE",
"r+	c #B3DA85",
"s+	c #B1DA8D",
"t+	c #D3CCB8",
"u+	c #ADDD81",
"v+	c #B9D79D",
"w+	c #D1CEB1",
"x+	c #B2DC9D",
"y+	c #BFDBAF",
"z+	c #B8DFB0",
"A+	c #C2DEBE",
"B+	c #DDD7C2",
"C+	c #DED7CA",
"D+	c #E7E1CD",
"E+	c #E9E2D5",
"F+	c #FFFFFF",
"a.E.Q.l. +]+c.!.O..+Y.++j..+O.!.a.[+i.f.~+ +x !.R j.9.,.S L.(.V.*.a.d.*.i.|+|+ +c.r.R.r.'.d.a.u.",
"x.%+M.d.j.l.j.j.K.Q.{.++f.f.f.(.Q.|+ +j.d.(.Q s j. +_+O.!.X.l.i.S &.9.d.l.E.l.d.d.$.v.r.c.(.,.3.",
"S.>+R.2.O.V.w.f.Q.E.=.++{.4.(.Q $.a.O F e.=.Q R (.'.(.*.!.e./+e.*.$.!.d.f.$.a.l. +!.$.x./.f.l.O.",
"a.C.n.%.Y.w.w.!.f.Q.++++1.%.e.*.M Q R O %.$.$.s N S N 9.9.D./+d.(.;.l.l.%.M M r.O.l.Y 4.4.c.Y j.",
"r.4.].#.X.T.w.O.e.D.G.f.K.d. +l.'.j.*.y %.2..+=+e+w.!.e.d.N.e.W '.i.l.,.s I {.{...{.A.f.!.%.Q W ",
"N.%.v.M X.i.!.=.d.9.!.Q.O.l.j.j.l.O.'.,.4.h.*+p.&+g+S Q j.D. +*.;.d.d.+.*.*.!.c.I &.$.c.{.f.d.!.",
"s.r.$.*.d.O.d.{.l.l.(.1+d.j.Q. +/+e.a.l.Q.f.o.t+e+&+W.j.a.D.c.l.=.d. .W *.O c.Q.D.4.2.1.2.1.|.4.",
"c.R.$.=.S &.j.++ +X.V..+e.M s (./+.+3.9.D.++g+B+B+=+*+!.%.2.3.Q.=.j.d.R O *.].4.'+a.%.Q T 4.&.4.",
"j.a.C R S @.M.w.=.c..+=.M.a.R #.M.a.R.F.=.W.q+t+B+q+*+w.c.=.e.c.a.%.2.*.9.&.e.e.'.O.Q W Z {.a. +",
"2+c.R (.y %.X.a.%.2.d.l.&.4.'.6.9.L.2.R W *+t+g+g+g+9+y.e.q.7.M e.e.j.9.R a l.d.!.7.0.S '.!.M '.",
"/+'.d.=.2.c.M $.*.&.!.#.s a.d.*.7.a.7.=.j.e+9+q+&+p.q+z.2.2._.9.V.e.(.O '.i.V.V.X.d.*.l.i.*.j.!.",
"/+!.9.@.4.%.a.4.L.c.&.#.*.=.M &.7.7.a.(.w.t+p.e+&+=+q+*+B.2.@.!.'.&.x  .'.V.i.Q l. +X.j.V.s '.W ",
"~+l.'.0.7.O.%.a.r.4.G a.7.e.3.q.9.*.#.'.w.e+p.B+e+=+B+*+D.h.R.4.I *.+.*.'.'.S y *.(.l.I l.'.W l.",
"Q.l. +l.&.c.1.a.4.1.&.$.4.e.2.a.I.9.d.#.W.B+=+g+&+&+B+w+D.|.$.4.%.W ` j.l.&.x x '.Q i.'.(.'.W (.",
"{.F l.l.3.4.f.!.4.$.4.1.&.$.4.q.d.N.3.#.h+q+&+q+g+o.B+t+Y.2.M (.w.E.Y.'.w s ,.x y S d.N S 9. +X.",
"0.O Z l.=.c.Q.f.=.|.|.{.&.=.*.=.4.2.2.#.*+t+q+C+e+[.B+g+<+L.(.!.c.e.l.;.N N N S (.S '.a *.'.V.P.",
"O l.V.f.D.{.Q.%+a.&.2.a.r.T W &...A r *.m+g+e+g+9+<.B+e+y.j.O.q.*.(.w.S i.S (.w. +'.f.r !.l.i.'.",
"R j.X.!.c.%.c.E.d.7.3.2.&.'.=.I 4.7.7 R 9+g+g+t+g+p.q+t+W.j.d...Y 7 T '.V.0.{.l.O.=.=.M Q &.%.%.",
"r c.O.s.D.j.O.7.;. .&.@.=.S O M Q 9.+.+.9+q+g+g+g+g+=+=+*+O.O.&.%.v f.!+3.*.Q Y.0.M.D.!.Z '.'.2.",
"D &.D.n.R..+d...r x j.e.e.a.*.x '.*.K R &+g+B+q+B+=+=+p.&+O.a.=.x Q l.I.+.9.'.e.a.j.P.*.Q 9.M $.",
"!.%.E.Q.c.=.#.|.@.R =.&.&.r.&.O R '.M ..&+=+e+g+e+p.g+e+9+Q.3.a.M M #.&.=.&.a.9.$.M !.*.Q {.F $.",
",+3.D.D.!.%.a.2.a.*.=.3.3.r.I #.;.+.r.N.9+B+g+t+t+q+t+q+*+d.'.=.j.%.&.r M K '.e.I G M E s O '.R ",
"X.&.c.%.M =.R.2.2.r.c.c.4.v.a.'.!.=.3.B.e+q+=+*+=+o.g+B+*+*.'.,.'.i.M R O *.Q *.=.F R '.R a d.c.",
"d.e.=.!.M a.!.%.A x.Q.=.2.4.e.e.!.*.%.4.9+B+=+t+g+=+g+B+*+Y M *.#.l.&.s O (.O ;.M Q &.=.l.'.i.#.",
"Q.O.7.Q =.e.&.M G 2.K.d.#.c.=.=.'.K 2.r.e+t+&+t+g+[.q+B+*+&.S !.&.e.O l.e.e.'.;.*.T =.d.(.S V. +",
"8+(.'.i.j.%.M M %.r.1.4.M !.{.%.R  .s.).9+t+t+B+t+<.B+q+*+2.c.%.$.d.'.l.a.M.(.W *.K =.4.=.R G l.",
"T.w.y l..+j.=.#.4.I I  .R O v y R a.x.|.*+g+q+g+g+[.B+t+o.G I %.T ,+!.Q !.R.4.R R %.!./.4.y Q !.",
"j.l.8 1.a.a.|.$.E.a.*.'.a.r F a S c.!.%.o.=+q+q+C+&+g+g+<.s T Q W N.|.M M 4.s. .e.c.a.m.v.I x W ",
"2+e.4.r 4.s...$.4.I =.9.a.M a.W S M '.9.[.e+g+9+q+p.t+q+<.y w =.9.=.$.G O *.!.&.Q r.E.m.I $.O Q ",
"O.e.3.&.c.c.$.|.4.y R &.c.=.9.d.Q ;.'.e.z.q+g+o.=+<.<.o.o.Q '.*.9.*.M 3. .Q =.9.=.e.$.4.e.c.4. +",
"'+e.d.a.O..+|.$.4.2.4.1.v.@.9.d.=.e.e.Q.z.B+e+[.o.e+g+*+o.w d.d.=.=.#.l.D.e.%.4.2.s.s.2.%.4.7. +",
"M.O.=.a.f.M.&.4.a.9.q.|._.3.a.4.4.a.D.c.y.t+t+<.V q+B+e+*+(.l.i.#.e.'.(.X.Y.Q.4.$.a.D.2.4.W =.#.",
"e.~+c.{.$.%.a.!.T %.4.v...r.e.a.q.O.O.e.w.t+B+=+p.C+B+t+W.X.d.X.#.&.9.l.c.Q.!.e.j.j.M.I %.S *.e.",
"!.j.a.%.4.4.!.4.3.h.2.r.4.D.e.e.a.a.c.D.e.g+e+t+g+B+B+e+y.]+L.9.=.&.e.j.e.4.a.Q.d./+M.=.'.*.l.e.",
"j.j.c.a.Q.=.=.$.4.s.4.$.Q.Q.M.M.3.r.%.2.D.9+g+q+t+B+q+e+y.O.O. +d.a.O.c.e.9.x.~+D.O.a.L.F.N.Y.f.",
"%.=.e.'.f.L.O $.4.x.r.4.j.K.D.4...a.a.$.a.*+g+g+t+9+q+=+l.!+a.a.!.j.e.E.x.3.a.O.D.O.a.O.e.f.Q.D.",
"%.l.l./+j..+'.r.D.&.=.4.=.C.E.4.a.a.R.7.4.W.&+9+e+e+=+*+!.d.&.2.4.e.d.D.S.2.c.Y.,+.+Q.O.O.K.e.O.",
"$.j.I.L.=.Y..+D.r.a.c.D.j.K.B.4.c.a.D.%.=.W.e+&+=+&+=+o.l.l.d.$.@.e.O.e.R.N.L.j. +]+ +1+l.Q.Q. +",
"*.d.L.&.%.f.j.%.M.j.%.e.Y.Q./.E.K.R.a.a.r.y.9+o.&+e+&+[.l.S i.R a.(.|+Q.R.'+X.i. +~+!+|+'+~+E.a.",
"*.9.d.M M =.!.l.9.Q.c.M.9.a.J.Q.'+Q.L.N.q.l.9+p.&+p.p.` O *.6.'.4.9.d..+c.$+'.P.8.l.;+N.$+R.s.$+",
"L.0.X.'.*.e.a.M.e.Y.c.a.&.4.x.D.C.4.d.9.a.a.o.9+p.&+*+Z F K '.#.!.e.d.D.D.D.9.l.d.0.9.N.$.s.q.%+",
"L.R K =.#.!.4.X.l.D.=.$.4.R.2.B.K.c.*.F A %.Z =+=+e+<.O @.w *.'. +l.d.E.e.O.Y.d.l.O.L.L.I $.B.s.",
"#.*.=.I '.Q I c.a.j.j.j.Q.D.c.v.Q.O.4.I M $.=.z.=+o.Z &.#.;.w O X.a.a.G e.c.x.&.&.e.9.!.Q 1./...",
" .R a.*.d.'.d.Q.M.W j.Q.M.Q.M.q.D.++c.4.&.G 4.{.U ` R S ,.O N 7.X.9.&.=.a.d.r.a.!.j.e.l.*.Q {.I ",
"'.'.a.l.'.l._+j.a.W f.c.r.E.R.q.E.D.c.E.&.&.3.=.3.M a.d.S *.#.9.l.d.*.$.=.M...3.d.4.K.I.'.*.*.,.",
"X.d.a.l.w.(..+X.f.!.e.c.c.Q.c.D.Q.c.E.E.4.%.a.%.M 7.e.R O W !.d.l.'.a.$.9.Q 4.a.Q.O.e.D.!.l.4.V.",
"E.Y.j. +/+ +e.q.e..+O.l.a.4.4.Q.Y.Q.c.x.D.{.3.F O *.#.d.i.X !.l.8.i.(.%.#.s j.c.D.|+d.d.d.(./. +",
"D.c.K.w./+e.r.7.O. +V.l.!.e.i.O.j.c.9.a.,+a.4.e.'.'.x ;.V.i.Q X.8.!.W i.L.4.!.Z ~+c.r.e.d.V.$. +"};
