/* XPM */
static char * item_rot_4a_32_xpm[] = {
"32 32 255 2",
"  	c #000000",
". 	c #493E2B",
"+ 	c #396023",
"@ 	c #63594A",
"# 	c #4D623D",
"$ 	c #426A3B",
"% 	c #516B30",
"& 	c #3F722D",
"* 	c #437221",
"= 	c #487030",
"- 	c #477F2A",
"; 	c #4F7D2C",
"> 	c #4B7E35",
", 	c #4E7F1F",
"' 	c #4E7D3E",
") 	c #776F60",
"! 	c #607C4D",
"~ 	c #54804E",
"{ 	c #5F7C5A",
"] 	c #59813A",
"^ 	c #607F3A",
"/ 	c #5D8132",
"( 	c #5F8043",
"_ 	c #508833",
": 	c #618528",
"< 	c #4F8B25",
"[ 	c #538746",
"} 	c #588735",
"| 	c #54883E",
"1 	c #5B8646",
"2 	c #598B2A",
"3 	c #519011",
"4 	c #867E6F",
"5 	c #599240",
"6 	c #5A933A",
"7 	c #5D9147",
"8 	c #63903E",
"9 	c #628E5A",
"0 	c #5C914F",
"a 	c #668E4F",
"b 	c #838550",
"c 	c #6B924A",
"d 	c #639735",
"e 	c #5D9A28",
"f 	c #5C9B20",
"g 	c #788E53",
"h 	c #6A9536",
"i 	c #5D9A31",
"j 	c #5E965E",
"k 	c #5C9A38",
"l 	c #66936B",
"m 	c #73905F",
"n 	c #72906C",
"o 	c #818F58",
"p 	c #5D9C45",
"q 	c #5B9D4F",
"r 	c #649B46",
"s 	c #659A4F",
"t 	c #609B57",
"u 	c #91897A",
"v 	c #6C9946",
"w 	c #6B9763",
"x 	c #679A57",
"y 	c #6F9858",
"z 	c #63A821",
"A 	c #6AA53C",
"B 	c #65A82D",
"C 	c #70A341",
"D 	c #68A735",
"E 	c #64A83D",
"F 	c #67A64B",
"G 	c #69A644",
"H 	c #60AA36",
"I 	c #6EA44A",
"J 	c #63A845",
"K 	c #66A652",
"L 	c #63A65E",
"M 	c #6DA451",
"N 	c #6BA465",
"O 	c #6DA45E",
"P 	c #65A758",
"Q 	c #72A358",
"R 	c #6CA558",
"S 	c #76A167",
"T 	c #76A350",
"U 	c #9B957A",
"V 	c #9D9485",
"W 	c #7DA663",
"X 	c #77A777",
"Y 	c #7FA75D",
"Z 	c #88A469",
"` 	c #85A57C",
" .	c #6BB154",
"..	c #6DB247",
"+.	c #6DB061",
"@.	c #6CB24E",
"#.	c #6FB05B",
"$.	c #74B04B",
"%.	c #78AE54",
"&.	c #72B054",
"*.	c #75AE61",
"=.	c #77AE5A",
"-.	c #6CB627",
";.	c #71AF69",
">.	c #75B32E",
",.	c #77AD6F",
"'.	c #7AAD67",
").	c #6CB631",
"!.	c #7CAD61",
"~.	c #6CB81D",
"{.	c #80AD59",
"].	c #74B43A",
"^.	c #7BB23A",
"/.	c #79B242",
"(.	c #80AC70",
"_.	c #6DB73B",
":.	c #A79F82",
"<.	c #A69E92",
"[.	c #A89E8B",
"}.	c #6CB743",
"|.	c #73B542",
"1.	c #80B24E",
"2.	c #73B94D",
"3.	c #73B954",
"4.	c #7CB853",
"5.	c #80BB25",
"6.	c #72BB64",
"7.	c #74BB5D",
"8.	c #76BA6A",
"9.	c #7ABA64",
"0.	c #7AB970",
"a.	c #7CBA5D",
"b.	c #78B978",
"c.	c #82B95E",
"d.	c #7FB96A",
"e.	c #81B964",
"f.	c #88B762",
"g.	c #75C22A",
"h.	c #72C238",
"i.	c #84B779",
"j.	c #88B76B",
"k.	c #ACAB77",
"l.	c #87B771",
"m.	c #7AC13A",
"n.	c #82BF3C",
"o.	c #B2A996",
"p.	c #B1A99D",
"q.	c #79C05B",
"r.	c #7CC054",
"s.	c #78C34E",
"t.	c #78C71F",
"u.	c #77C355",
"v.	c #79C447",
"w.	c #92B97F",
"x.	c #81C350",
"y.	c #99B87C",
"z.	c #A0B67C",
"A.	c #96BB69",
"B.	c #85C349",
"C.	c #88C251",
"D.	c #85C25E",
"E.	c #87C257",
"F.	c #7CC468",
"G.	c #9FB971",
"H.	c #82C08B",
"I.	c #80C373",
"J.	c #91C151",
"K.	c #8EC15D",
"L.	c #83C46D",
"M.	c #85C466",
"N.	c #80C661",
"O.	c #8AC26D",
"P.	c #83C37C",
"Q.	c #8CC267",
"R.	c #83C65A",
"S.	c #81C941",
"T.	c #91BE8D",
"U.	c #83CA34",
"V.	c #8EC082",
"W.	c #9BBB90",
"X.	c #89C374",
"Y.	c #92C16C",
"Z.	c #9BBA9F",
"`.	c #83CE0C",
" +	c #90C17A",
".+	c #92C174",
"++	c #9ABF7B",
"@+	c #89CC25",
"#+	c #8CCB46",
"$+	c #86CB61",
"%+	c #89CC51",
"&+	c #BEB5A2",
"*+	c #BDB69C",
"=+	c #BDB5A8",
"-+	c #BAB984",
";+	c #89CB73",
">+	c #8DCC59",
",+	c #8BCB6D",
"'+	c #8FCB64",
")+	c #96CF2B",
"!+	c #8ECB7B",
"~+	c #94CB6F",
"{+	c #98CD49",
"]+	c #93CB75",
"^+	c #97CD55",
"/+	c #94CB83",
"(+	c #98CC69",
"_+	c #92CB8B",
":+	c #9ACC63",
"<+	c #9EC98A",
"[+	c #9BCC77",
"}+	c #9DCC72",
"|+	c #9ACC7E",
"1+	c #9FCA84",
"2+	c #9DCA90",
"3+	c #9ECE5E",
"4+	c #97CD99",
"5+	c #A3CC80",
"6+	c #A6CC77",
"7+	c #B0CB6C",
"8+	c #A4CB9C",
"9+	c #C5C0A5",
"0+	c #AFCA80",
"a+	c #C5C290",
"b+	c #A9CE6D",
"c+	c #B6C979",
"d+	c #AFCA87",
"e+	c #C9C0AD",
"f+	c #9CDC08",
"g+	c #C8C0B3",
"h+	c #AECB93",
"i+	c #A5CFAA",
"j+	c #A9D28B",
"k+	c #A8D295",
"l+	c #A6D671",
"m+	c #B4CEA2",
"n+	c #B4D0B1",
"o+	c #AED4A4",
"p+	c #A8DA84",
"q+	c #D2CBBE",
"r+	c #B3DA85",
"s+	c #B1DA8D",
"t+	c #D3CCB8",
"u+	c #ADDD81",
"v+	c #B9D79D",
"w+	c #D1CEB1",
"x+	c #B2DC9D",
"y+	c #BFDBAF",
"z+	c #B8DFB0",
"A+	c #C2DEBE",
"B+	c #DDD7C2",
"C+	c #DED7CA",
"D+	c #E7E1CD",
"E+	c #E9E2D5",
"F+	c #FFFFFF",
"r.Q.l..+e.Q.Y.++j.O.!.]+l.O.l.Q !.L.,.d.i.'.a.'.i.]+l.4.r.!.d.q.",
"B.R.a. +l.Q.c..+{.'.=.e.*.9.=.R (.i.!.e. +'.&.d.c.a.l.!.2.1.j.d.",
"a.n.a.w.w.f.Y.++4.e.*.=.O %.$.M S N 9.D.X.(.0.l.M M a.j.{.4.{.!.",
"q.2.=.i.'.e.e.f.O.l.j.O.'.=.Y.9+m+W !.D.l.;.d.;.#.!.{.&.4.{.c.!.",
"r.2.*.d.d.l.l.++d.e. +X.a.Y.W.g+9+w.e.a.e.!.d.*.*.=.D.a.$.$.1.4.",
"e.$.O &.O.j.j.j.e.R 9.M.N.j.9+B+g+d+!.=.c.a.=.=.*.a.e.j.Q W {.O.",
"/+=.'.%.d.=.3.d.&.!.6.F.3.` w+g+g+*+!.q.3.d.e.9.O l.l.9.,.'.!.!.",
" +9.&.4.4.e.a.#.=.=.#.7.9.W.9+g+&+t+Y.2.@.(.=.R (.i.'.X.l. +Q W ",
"Y.l.d.e.%.r.$.&.a.3.q.9.*.W.&+t+=+B+.+v.r.$.*.'.'.S Q '.d.'.'.(.",
"{.j.d.4.c.4.$.1.&.4.a.F.7.m+e+g+&+B+d+2.Q l.f.j.O N x S d.S d.X.",
";.(.j.c.Q.a.|.%.&.*.%.2.@.*+t+q+o.q+W.L.d.a.j.,.;.N (.'.W Q l.P.",
"*.X.c.{.D.e.3.3.=.!.$.3.s 9+g+g+p.q+h+j.e.=.y '.i.!.l.!.=.Q =.=.",
"I M.x.j.e.+. .&.!.O M *.+.9+g+g+g+=+*+O.e.&.T X.#.*.O.M.e.W '.&.",
"=.E.D.c.#...Q =.4.&.O *.M &+g+g+=+e+9+O.3.Q R *.=.a.a.%.'.Q =.$.",
"M.a.a.=.q.4.=.4.3.&.*.+.r.e+g+w+g+t+9+d.'.d.=.F R *.!.G M s O *.",
"d.=.=.=.a...E.c.2.a.e.*.4.e+e+e+=+t+9+!.Q *.d.M O O *.M &.'.'.9.",
".+9.*.c.&.I 4.e.=.{.=.R 2.e+e+t+o.q+9+&.W %.9.d.e.'.*.Q =.'.'. +",
"T.W l.j.=.%.$.&.R T Q =.s.9+q+g+o.B+&+..%.T L.!.a.a.O &.=.4.y !.",
"l.T %.a.|.4.=.'.=.F y !.!.o.g+q+e+g+*+s Q !.q.I Q r.#.c.r.v.M Q ",
"X.4.&.c.$.4.Q #.a.9.'.O '.*+g+*+p.p.o.Q *.9.=.@.#.=.*.a.4.a.4.j.",
"Q.e.e.O.$.4.3.1.2.7.a.a.e.h+t+[.e+t+o.S d.*.=.d.M.c.4.s.r.%.4.d.",
"M.e.{.4.a.%.=.s...a.a.M.M.W.B+&+q+B+h+l.l.*.=.l.Q.e.e.j.c.%.S 9.",
"e.e.4.4.=.3.v.4.c.e.e.a.c.++g+t+B+t+W.X.L.9.a.j.e.a.Q. +e.'.9.e.",
"=.e.e.e.Q 4.x.4.j.D.4.4.4.Y.e+g+e+g+W.X.e.e.e.D.r.a.O.Q.e.e.f.D.",
"{.l. +Y.e.D.=.4.c.C.4.a.R.f.*+&+=+=+Z d.&.2.e.D.x.a.Y..+O.O.K.O.",
"*.L.=.f.j.D.e.c.Y.4.E.D.a.c.*+o.9+*+(.(.d.&.l.O.R.O.i.]+!+~+'+e.",
"9.d.Q =.e.d.Q.D.a.C.Q.D.L.q.W.&+&+o.Q #.6.=.9.O.D.9.I.d.L.R.r.R.",
"d.#.=.!.a.l.D.%.4.r.C.c.*.I !.&+=+w.F O *.l.j.D.e.O.d.O.L.%.2.x.",
"#.=.Q *.%.c.j.j.Q.D.r.O.4.M $.y.:.Q =.;.N L.a.&.e.r.&.e.9.=.1.$.",
"*.a.d.d.V.e.W f.R.D.q.Q.c.%.&.%.&.&.'.*.+.l.9.%.a.3.a.c.Q.'.*.'.",
"O.e. +i.O.f.e.e.c.c.Q.f.E.r.%.&.R 9.*.'.!.d.'.%.*.=.c.O.e.e.d.X.",
"D.K.V.X.q.M. +l.!.d.O.f.a.M.a.a.'.O 0.i.!.0.'.(.9.!.j.Q.a.d.l.O."};
