/* XPM */
static char * item_rot_4c_48_xpm[] = {
"48 48 255 2",
"  	c #000000",
". 	c #180101",
"+ 	c #250901",
"@ 	c #271800",
"# 	c #392C08",
"$ 	c #3E3221",
"% 	c #4D4433",
"& 	c #4F462A",
"* 	c #5B523F",
"= 	c #3A5E32",
"- 	c #5B524A",
"; 	c #3D6527",
"> 	c #3E6A1B",
", 	c #646332",
"' 	c #696049",
") 	c #6A6153",
"! 	c #417430",
"~ 	c #4B7232",
"{ 	c #457D26",
"] 	c #4F7B29",
"^ 	c #4D7948",
"/ 	c #5C763B",
"( 	c #59764C",
"_ 	c #5B792B",
": 	c #498117",
"< 	c #4C803A",
"[ 	c #577D36",
"} 	c #557D3F",
"| 	c #78705D",
"1 	c #707546",
"2 	c #787066",
"3 	c #528929",
"4 	c #518934",
"5 	c #5B8736",
"6 	c #847B6A",
"7 	c #5F8A48",
"8 	c #618A42",
"9 	c #628C27",
"0 	c #618C2E",
"a 	c #569028",
"b 	c #598D42",
"c 	c #66884E",
"d 	c #588D49",
"e 	c #5B8C51",
"f 	c #57931F",
"g 	c #798554",
"h 	c #858067",
"i 	c #5A9333",
"j 	c #5A933D",
"k 	c #888075",
"l 	c #64903E",
"m 	c #6D8D46",
"n 	c #649163",
"o 	c #6E8E66",
"p 	c #8D8472",
"q 	c #64994E",
"r 	c #5B9C4F",
"s 	c #689854",
"t 	c #6E974E",
"u 	c #67985C",
"v 	c #5F9B57",
"w 	c #73955B",
"x 	c #659D33",
"y 	c #5DA032",
"z 	c #5BA03D",
"A 	c #6E9A47",
"B 	c #649E3D",
"C 	c #5F9F47",
"D 	c #679D44",
"E 	c #669D4A",
"F 	c #968D7B",
"G 	c #6AA227",
"H 	c #61A526",
"I 	c #749F29",
"J 	c #929175",
"K 	c #889663",
"L 	c #999085",
"M 	c #65AA47",
"N 	c #67AA40",
"O 	c #6FA83D",
"P 	c #67AB38",
"Q 	c #6EA847",
"R 	c #69A94E",
"S 	c #69A954",
"T 	c #6EA75A",
"U 	c #71A752",
"V 	c #9E9583",
"W 	c #79A552",
"X 	c #6BA862",
"Y 	c #74A65A",
"Z 	c #72A662",
"` 	c #68AA5B",
" .	c #6DA76E",
"..	c #7AA36F",
"+.	c #7DA45B",
"@.	c #7BA464",
"#.	c #68B132",
"$.	c #74B337",
"%.	c #81A981",
"&.	c #A69D8B",
"*.	c #6EB728",
"=.	c #A69D91",
"-.	c #6CB642",
";.	c #70B54A",
">.	c #73B542",
",.	c #9AA571",
"'.	c #76B350",
").	c #70B551",
"!.	c #75B357",
"~.	c #68B758",
"{.	c #6AB751",
"].	c #6FB558",
"^.	c #7AB348",
"/.	c #72B45E",
"(.	c #7DB257",
"_.	c #7CB25E",
":.	c #90AD5D",
"<.	c #70BA3A",
"[.	c #88B05D",
"}.	c #73B666",
"|.	c #71B66E",
"1.	c #70BD20",
"2.	c #A6A488",
"3.	c #7DB466",
"4.	c #78B47A",
"5.	c #7CB46E",
"6.	c #8AB167",
"7.	c #87B17C",
"8.	c #88B270",
"9.	c #97AE72",
"0.	c #AEA593",
"a.	c #AEA599",
"b.	c #85B857",
"c.	c #75C04C",
"d.	c #74C053",
"e.	c #77BF60",
"f.	c #7BBF53",
"g.	c #7DBF4C",
"h.	c #73C15A",
"i.	c #76BF67",
"j.	c #7ABF5A",
"k.	c #7DBD67",
"l.	c #7FBD61",
"m.	c #81BD5A",
"n.	c #85BE52",
"o.	c #86BC68",
"p.	c #88BC61",
"q.	c #82C145",
"r.	c #9BB767",
"s.	c #7BC538",
"t.	c #7AC448",
"u.	c #7BC540",
"v.	c #79C82A",
"w.	c #92BB68",
"x.	c #B6AD9A",
"y.	c #88BF71",
"z.	c #B6ADA1",
"A.	c #86BF7F",
"B.	c #88BF78",
"C.	c #7FC372",
"D.	c #7DC37B",
"E.	c #7ECB1A",
"F.	c #85C931",
"G.	c #A9B784",
"H.	c #80C768",
"I.	c #98BF74",
"J.	c #84C854",
"K.	c #97BF7A",
"L.	c #81C862",
"M.	c #83C85B",
"N.	c #A3BB83",
"O.	c #B4B498",
"P.	c #9DBD84",
"Q.	c #94C083",
"R.	c #98BE8F",
"S.	c #85C770",
"T.	c #8DC93F",
"U.	c #8BC94C",
"V.	c #89CF12",
"W.	c #98BF9C",
"X.	c #89C86A",
"Y.	c #8BC864",
"Z.	c #8FC772",
"`.	c #A6BCA1",
" +	c #91C958",
".+	c #90C95E",
"++	c #BEB5A2",
"@+	c #93C76C",
"#+	c #BDB5A9",
"$+	c #96C672",
"%+	c #93CD32",
"&+	c #92C87A",
"*+	c #9FC571",
"=+	c #96C967",
"-+	c #91C794",
";+	c #8FC988",
">+	c #92C981",
",+	c #9DCB51",
"'+	c #94CF52",
")+	c #A3CD64",
"!+	c #A2CC86",
"~+	c #A4CC80",
"{+	c #A0CC8F",
"]+	c #9DCF77",
"^+	c #AEC986",
"/+	c #CEBCAB",
"(+	c #C6BEB1",
"_+	c #C9BEAB",
":+	c #9DD265",
"<+	c #C4C0AB",
"[+	c #9CD081",
"}+	c #AACB91",
"|+	c #9EDA0F",
"1+	c #A9CE79",
"2+	c #9BD18C",
"3+	c #A7CC9D",
"4+	c #B1CA92",
"5+	c #A6CCA9",
"6+	c #A4D472",
"7+	c #BBCB9C",
"8+	c #B6CCAF",
"9+	c #D7C4B3",
"0+	c #D1C6B3",
"a+	c #CFC7BA",
"b+	c #CDC9B4",
"c+	c #AFD68A",
"d+	c #AED690",
"e+	c #BAD29A",
"f+	c #A9DA81",
"g+	c #B5D59B",
"h+	c #AED89B",
"i+	c #B2D983",
"j+	c #B5D9AA",
"k+	c #DECCBA",
"l+	c #DDCDC3",
"m+	c #B7DAB7",
"n+	c #DACFBC",
"o+	c #D5D1BC",
"p+	c #D7D0C3",
"q+	c #C3D8BA",
"r+	c #E2D7C4",
"s+	c #DDD9C4",
"t+	c #E6D6CB",
"u+	c #E1D8CB",
"v+	c #DBDACB",
"w+	c #E6E0CC",
"x+	c #E9E0D4",
"y+	c #E3E2D3",
"z+	c #CEE9D2",
"A+	c #EFDFD6",
"B+	c #F0EAD5",
"C+	c #F1EADD",
"D+	c #FAF4DF",
"E+	c #FBF5E6",
"F+	c #FFFFFF",
"j.n.o.y.&+$+_._.y.I.w.P.o.$+y._._.&+y.p.@+B.s _.T 3.3.5.Z o.5.Q.Z l.8.Z B.&+~+9.l.f.M.f._.5._.g.",
"t.U.o.o.w.8.8.8..+w.+.K.p.p.[.3.o.>+K.o.3.8.Z E 6.B.Q.o._.y.5.B.@.!._.o.y.n.8.8.5.'.g.m.m.8.3.f.",
"u. +m.'.y.Q.Q.p.p.n.+.9.b.b.3.Y '.e.T E 3.!.Y Y 5.@...Y 3.l.>+k.}.'.3.o.p.'.l.8.B._.'.n.>.6.B.X.",
"_.n.u.W y.Q.7.3.p.w.P.K.'.W 3.Y U T S T '.Q ;.E Z Z Z 3.}.o.Q.3.5.Z 8.9.(.R R f.o.y.+.(.!._.Y y.",
"f.g.>./.y.Q.B.y.3.l.K.p.p.6.B.8.3.o.}...N.7+<+a+b+<+G.9.3.M.l.+.3.B.5.5.E ;.(.(.Q _.w.w.(.!.Y @.",
"l.'.t.R B.B./.!.3.l.[.w.y.8.8.o.8.Q.7+b+z.a.x.z.z.#+a+b+7+Z.y.Z Z y.y./._.Z _.p.Q ).Q m.(.p.k.Y ",
"d.f.^._.o.o.o.[.8.y.8.[+3.o.6.B.4+<+x.&.#+(+(+b+b+++L x.a+<+}+o.!.k.S /.Z T m.w.b.'.'.n.^.^.^.'.",
"l.m.U (.Z ).o.>+>+y.Q.Z.l.U t P.<+=.#+p+r+p+o+o+n+o+n+z.=.<+<+!+Y 6.3.T Z Z <.f.@+l.!.W t g.U f.",
"8._.Q T w ).o.B._.j.Z._.o.m.7.++0.b+v+u+p+s+o+o+s+p+p+p+<+a.++b+K.(.'./._.U o.k.3.y.Y @...W j.K.",
"!+_.U 8.s '.y._.'.'.3.o.U 8.++&.p+s+u+b+z.(+(+a+b+s+u+u+z.o+x.<+<+Q.o._.T q 8.3._._.|.@.6.3.T 3.",
"Q._.k.!.c.l.E )._.!._./.R 4+a.p+u+a+++(+l+s+++z.z.p+p+(+&.o+o+0.#+7+7.Z 3.7.Q.Q.B.o.}.o.8.3.8.+.",
"Q.Y e.R !.!.j.(.k.3.U ].P.++b+w+p+a.a.(+b+x.=.x.a.(+(+++V o+s+a+&.b+`.].3.Q.B.Y 8.Z.B.k.Q.q 3.@.",
"$+8.@.5.!.y.(.m.f.f.D 3.7+a.(+a+#+0.0.#+o+a+++x.x.u+s+p+x.o+s+p+<+a.b+y.3.Z Z s Z 7.8.Q y._.Z 8.",
"w.y.Z.o.!.p.^.(.n.g.U K.0.o+(+a+p+++x.a+u+p+z.x.z.o+(+<+F a+s+u+p+x.<+7+8.T s s 3.T B.@.8._.@.8.",
"_.R B.o.'.(.l._.(.^.^.G.z.w+n+w+o+x.0.(+(+o+z.0.z.u+p+a+F b+s+u+p+#+<+#+..q ..s w Z k.Z @.3.B.B.",
"k.T 8.y.!.p.o.o.!.>.b.0.p+y+p+a+o+#+z.o+(+<+a+u+p+&.V V V o+p+o+p+a+0.#+`.X Z u ....3.e Z 5.Q.A.",
"/.8.A.[.m.(.Y.J.l.).6.++u+x+a+++0.a+u+p+u+u+(+a+b+=.a.0.&.o+s+(+p+o+=.<+O.4...7.B.@.[.E _.y.B.}.",
"U o.B.Y m.'.p.n.3./.8.(+u+w+(+a.0.(+a+a+o+(+z.o+a+0.0.=.&.a+p+s+u+++b+=.<+7._.y.y._.Y t Y T U U ",
"D l.X.g.M.w.y.!.}.].9.(+x+s+++0.0.a+b+o+a+o+<+(+o+(+_+(+a.a+(+v+#+p+p+V _+8.Y w.o.o.l._.6.}.3.g.",
"B '.X.u.M.y.3.Q E s O.#+s+p+b+a+a+(+a+o+(+++(+s+s+p+s+p+a.a+(+0.z.#+a+0.#+R.@.o.m.8.B./.T }.U ^.",
"3.U m.Y.m./.!.>.).S O.#+=.a.#+a+<+b+s+p+a+p+a+s+p+0.++=.p a+(+F &.b+a+#+a.7+_._.U U 3.Y U (.E U ",
"@+!.L.m._.U e.^.(.!.O.o+x.z.a+a+(+#+(+++(+<+#+b+x.<+s+(+&.o+b+(+0.o+a+b+0.<+3.[.Q Q U B q Z @.U ",
"o.!.l.(.U !.M.;.^.n.#+b+o+p+a+s+a+<+<+(+(+b+<+b+(+#+b+(+a.a+s+p+o+o+o+a+a.<+Y 3.!.R S _.S q y.l.",
"k.3._._.U l._.'.O J.z.0+s+u+p+v+o+b+(+0.++#+++o+z.a+a+(+0.#+s+s+s+s+o+(+x.#+Z 3.S U )._.8.3.8.Y ",
"X.o.!.U Y l.!.S M g.O.b+s+w+a+&.V ++#+a+v+s+n+_+b+0.x.z.p (+s+s+s+s+a+z.a.#+@.}.X U !.3.8.Z Q.B.",
"3+..5.8.8.(.R R '.m.O.(+p+s+u+a.x.z.o+(+o+p+b+s+o+++=.&.&.o+s+s+s+s+o+(+0.O...@./.R !.'._.T D 8.",
"R.Q.s y.B.8._.T (.Q O.<+p+o+s+x.x.a+b+o+u+++b+b+_+o+0.V x.s+p+b+p+p+a+(+a.O.f.T T U (.>.'.s u @.",
"y.B.7 '.j.m.>.U p._.G.z.(+a+a+<+++a+a+a+#+z.z.a+a+u+a.V x.o+x+(+p+b+o+<+=.O.g.!.3._.m.s.g.E s Y ",
"{+3.f.E f.g.Q ^.(.Q 9.++(+a.#+a+#+(+C+s+b+(+o+w+w+p+#+&._+a.o+a+a.b+b+#+&.2.3.U Y f.m.u.;.'.Z Y ",
"Z.3.'.!.l.p.'.>.b.A 8.z.b+V (+u+x.<+s+++z.0.a+o+u+++V =.(+z.z.++p+w+b+++=.N.Y k._.l.'.'.k.l.j.K.",
"X.3.o.(.o.Z.>.'.(.g.p.x.b+a+p+y+p+z.#+#+&.0.0.(+(+=.&.x.b+x.V p p ++0+x.++8.+.j.'.d.f.'.W b.!.K.",
"o.X.!._.p.l.'.f.m.l.p.2.(+p+p+s+u+(+0.&.&.&.&.z.0.L z.s+y+s+=.&.=.s+(+V ++K.w.!.'._.l.'.'.@.!.!.",
"_.@+m.b.'.W (./.W (.g.P.++b+o+o+o+s+b+z.x.&.=.++L #+s+u+s+s+s+p+++o+#+a.O.y.3.l.k.8.o.Q U @./.l.",
"3.y.(.'.^.f.3.'.'.u.;.o.++(+o+b+o+o+p+a+#+z.z.=.#+u+w+u+s+n+s+o+n+0+x.#+9.j.l.Y.k.>+o.!.3./.o.k.",
"o.y.l._.o._.(.).f.g.f.'.G.(+o+<+(+++#+o+s+b+a+n+o+o+s+w+o+s+p+b+a+#+x.2.8.l.J.@+m.o._.o.k.l.Z.o.",
"(.Y k.3.p.o.u R (.t.f.'.9.<+(+b+<+b+b+(+o+a+n+o+0+o+#+o+o+o+o+a+a+<+x.9.f.]./.Z.p.o._.y.3.o.L.m.",
"(.8.8.>+o.I.3.m.p.U _.'.Y N.<+(+b+#+#+z.#+o+z.o+#+<+(+<+b+b+o+0+++++2.p.t.g.l.@+@+@+o.y.y.p.o.y.",
"'.o.y.y.(.@+K.Y.f.m.m.p.o.@+7+_+x.#+++<+++b+++<+++_+#+_+(+a._+++0.a.9.o.m.p.X.o.&+]+&+[+y.X.X.Z.",
"/.o.X.Y W p.o.(.X.o.'.l.$+p.9.<+(+<+<+0.a._+++++z.++++_+<+x.<+x.z.2.>+X.m.@+B.B.&+Z.&+&+Z.@+M.m.",
"/.e.k.U U !._.o._.o.m.l.k.m. +N._+(+x.0.z.x.<+b+0.++++b+x.++a.z.2.8.o.&+m.M.3.A.5.y.Z.l.M.J.g.Y.",
"o.5.y.}._.l.j.y.l.Z._.m.'.f.n.M.N.#+(+#+(+x.0.0.z.#+x.x.<+x.++0.@.k.o.p.p.m.k.y.3.5.k.l.;.g.m.J.",
"o.` S !.!.3.'.B.5.m.(.U b.m.;.q..+9.++(+#+#+++++++#+<+b+x.z.2.8.B.y.o.n.l.o.@+3.y.o.o.k.R ;.g.'.",
"!././.R 3.Y Q l.m.o.6.8.o.L.m.t.w.w.p.2.a.++_+(+<+#+z.a.2.,.w Y y._.!.Q k._.g.).!.o.3._.U '.'.;.",
"].T j.Z 5.Z 8.o.o.@.o.Y.p.Y.p.m..+K.(.(.+.,.2.0.V V V 2.8.u Z /.y._.!.!.(.o.f.e._.6.k.o./.Y _.R ",
"3.3.l.o.3.8.;+o.j.@.o.p.j.b.M.m.M.p.b.m.U !.d.(.'.;._.5.@.Z !.3.y.5._.;._.o.>.!.o.m.Y.y.3.Z _.|.",
"B.6.!.y.Q.3.Z.y.p.3.6.m.p.Y.m.l.p.(.n.m.j.(._.'.R /._.T u Z 3.3.5.3._.Q 3.T !.m.Y.y.o.m.6.8.(.B.",
"n.w.o.K.Q.K.3.l.p.I.@+o._.'.(.X.@+Y.m.q.m._.f.E X }./.5.7..._.5.}.B.6.!.!.s y.m.L.&+k.3.5.5.^.B.",
"p.p.p.&+P.o.f.j.@+K.Q.B.@.p.B.y.o.p._.b.@+_.f.l.3...u  .B.4.w B.}._.@.B.y.m._.6.@+M.M.l.8.Q.;.B."};
