/* XPM */
static char * item_rot_3b_32_xpm[] = {
"32 32 255 2",
"  	c #000000",
". 	c #1A0B13",
"+ 	c #251109",
"@ 	c #3D0C08",
"# 	c #422A0B",
"$ 	c #382E33",
"% 	c #2E3234",
"& 	c #412E27",
"* 	c #55402F",
"= 	c #4E413F",
"- 	c #5C4919",
"; 	c #494F4E",
"> 	c #624E3F",
", 	c #664D4A",
"' 	c #5D514C",
") 	c #565359",
"! 	c #3C602D",
"~ 	c #3F6B25",
"{ 	c #4F6729",
"] 	c #6D5F58",
"^ 	c #417039",
"/ 	c #686162",
"( 	c #5C6A42",
"_ 	c #41791F",
": 	c #786756",
"< 	c #487A34",
"[ 	c #487B2B",
"} 	c #537834",
"| 	c #686D70",
"1 	c #567741",
"2 	c #686F61",
"3 	c #54774D",
"4 	c #846867",
"5 	c #4E7E46",
"6 	c #7B6F67",
"7 	c #767070",
"8 	c #617E2B",
"9 	c #57832B",
"0 	c #50872C",
"a 	c #51891F",
"b 	c #5F8437",
"c 	c #538740",
"d 	c #548837",
"e 	c #5E8541",
"f 	c #827B78",
"g 	c #5C8D50",
"h 	c #668A55",
"i 	c #5C8D58",
"j 	c #8A7D71",
"k 	c #927A7B",
"l 	c #648B64",
"m 	c #5A9529",
"n 	c #818286",
"o 	c #589638",
"p 	c #5A944B",
"q 	c #5F9439",
"r 	c #639242",
"s 	c #6A9042",
"t 	c #66923A",
"u 	c #5B9542",
"v 	c #69904C",
"w 	c #61934C",
"x 	c #8A8481",
"y 	c #6B952F",
"z 	c #778E62",
"A 	c #5E9F24",
"B 	c #5FA21C",
"C 	c #62A034",
"D 	c #6B9E35",
"E 	c #809187",
"F 	c #6A9F44",
"G 	c #669E60",
"H 	c #928D89",
"I 	c #A08892",
"J 	c #63A240",
"K 	c #6E9C61",
"L 	c #6A9F4D",
"M 	c #689D6C",
"N 	c #64A05A",
"O 	c #63A247",
"P 	c #6C9E56",
"Q 	c #62A24D",
"R 	c #769A64",
"S 	c #B5838D",
"T 	c #729E45",
"U 	c #759C56",
"V 	c #66A154",
"W 	c #729B73",
"X 	c #A18B8C",
"Y 	c #9C8F81",
"Z 	c #919297",
"` 	c #66AE1D",
" .	c #67AD28",
"..	c #68AC31",
"+.	c #67AB41",
"@.	c #70A93E",
"#.	c #68AC39",
"$.	c #9A9592",
"%.	c #69AE4D",
"&.	c #71AC4A",
"*.	c #71AC51",
"=.	c #73AB57",
"-.	c #70AB64",
";.	c #6DAD58",
">.	c #6BAD60",
",.	c #72AB5E",
"'.	c #67AF58",
").	c #7CA958",
"!.	c #78AE2D",
"~.	c #7CAA51",
"{.	c #83A851",
"].	c #79AA61",
"^.	c #84A763",
"/.	c #7DAD36",
"(.	c #8BA763",
"_.	c #74AE75",
":.	c #A29D9A",
"<.	c #75AF6E",
"[.	c #78B528",
"}.	c #6FB732",
"|.	c #6DB73B",
"1.	c #82AC71",
"2.	c #75B53B",
"3.	c #70B643",
"4.	c #81AC7D",
"5.	c #7AB348",
"6.	c #70B64A",
"7.	c #C795A1",
"8.	c #9FA1A6",
"9.	c #B59B9E",
"0.	c #B59BA6",
"a.	c #70BB29",
"b.	c #ACA092",
"c.	c #9AAA68",
"d.	c #70BF17",
"e.	c #73B954",
"f.	c #70B962",
"g.	c #72B95B",
"h.	c #7BB75B",
"i.	c #74B86A",
"j.	c #7DB755",
"k.	c #7EB662",
"l.	c #71C204",
"m.	c #78B862",
"n.	c #7CB66B",
"o.	c #87B55A",
"p.	c #87B562",
"q.	c #85B56C",
"r.	c #AAA5A2",
"s.	c #8FB26D",
"t.	c #8FB45B",
"u.	c #95B16D",
"v.	c #7CBE4B",
"w.	c #7BBE53",
"x.	c #77C23D",
"y.	c #77C24D",
"z.	c #76C255",
"A.	c #78C346",
"B.	c #85BE52",
"C.	c #9EB37C",
"D.	c #9AB38D",
"E.	c #79C724",
"F.	c #A2AFB1",
"G.	c #82C248",
"H.	c #78C733",
"I.	c #7FC07F",
"J.	c #86C165",
"K.	c #7EC45F",
"L.	c #88C06B",
"M.	c #7DC466",
"N.	c #80C36B",
"O.	c #87C25F",
"P.	c #88BF80",
"Q.	c #7FC374",
"R.	c #9ABA81",
"S.	c #CFA6B1",
"T.	c #92BD81",
"U.	c #81CB1C",
"V.	c #83C656",
"W.	c #85C839",
"X.	c #93BD8E",
"Y.	c #87C744",
"Z.	c #88C376",
"`.	c #8DC54C",
" +	c #AFB2B6",
".+	c #91C174",
"++	c #93C16E",
"@+	c #81CA46",
"#+	c #90C17A",
"$+	c #B6B1AD",
"%+	c #C4ADAF",
"&+	c #95C266",
"*+	c #BCB1A1",
"=+	c #9BBF79",
"-+	c #8BCC2D",
";+	c #8FC85B",
">+	c #88CB5B",
",+	c #89CC51",
"'+	c #8FC96D",
")+	c #89CB73",
"!+	c #90CA66",
"~+	c #95CB4A",
"{+	c #90D213",
"]+	c #92CA74",
"^+	c #99CD40",
"/+	c #91CD7E",
"(+	c #93CC8B",
"_+	c #A2CB61",
":+	c #98CF62",
"<+	c #99D057",
"[+	c #B0C770",
"}+	c #A0CC70",
"|+	c #9ECC78",
"1+	c #9DCC7E",
"2+	c #96CC99",
"3+	c #ADC781",
"4+	c #9CCC85",
"5+	c #9DCC8E",
"6+	c #99D070",
"7+	c #A4CA8F",
"8+	c #A7CB84",
"9+	c #C3BEBA",
"0+	c #E0B7BF",
"a+	c #CBC1B4",
"b+	c #A8CE9C",
"c+	c #A6CEA4",
"d+	c #CEC1AC",
"e+	c #C0C3C8",
"f+	c #DCBBC8",
"g+	c #D5BEBF",
"h+	c #B6CC95",
"i+	c #AAD578",
"j+	c #B3CEAA",
"k+	c #ADD297",
"l+	c #B7CFA0",
"m+	c #ACD682",
"n+	c #CCC7C3",
"o+	c #ABD68C",
"p+	c #B8D0BD",
"q+	c #BFCED5",
"r+	c #ACDC9C",
"s+	c #B6DCA0",
"t+	c #DDD1BB",
"u+	c #B7DEAF",
"v+	c #DBD3C6",
"w+	c #C1DDB9",
"x+	c #D8D4D0",
"y+	c #D3D5DB",
"z+	c #E2E5EA",
"A+	c #E8E5E1",
"B+	c #ECE5D3",
"C+	c #DDEDF6",
"D+	c #FBF5E4",
"E+	c #F4F7FA",
"F+	c #FFFFFF",
"V.J.L..+k.J.++R.q.++k..+s.L.q.=.].L.n.N.1.n.k.].#+]+s.j.V.k.q.h.",
"@+K.o.#+#+O.h.#+o.k.,.J.].k.m.=.1.q.k.k.#+-.=.q.o.k.q.k.v.5.^.J.",
"B.A.k.T.1.k.++=+h.q.,.,.N =.&.*.R -.k.J..+n.n.q.*.*.j.L.).h.k.k.",
"K.v.g.q.].k.p.s.L.q.L.L.k.k.R.9+$+C.].O.L.].L.].,.].h.*.j.o.k.].",
"w.5.].q.q.q.q.]+k.k..+.+h.R.n+n+a+9.T.K.p.].n.,.-.h.J.h.5.j.5.5.",
"k.&.=.=.L.q.J.q.k.=.h.L.J.$+x+x+9+$+r.=.J.h.h.,.,.m.M.J.).^.~.L.",
"/+].].e.n.h.h.q.*.n.m.J.4.$+z+x+$+9+r.R.e.k.k.k.,.q.q.k.n.q.k.].",
"#+m.e.e.h.k.h.;.=.=.g.k.D.*+z+x+9+$+:.D.=.k.=.,.n.Z.].L.L.P.=.].",
".+n.n.J.j.w.e.*.h.e.m.q.:.*+y+x+x+r.:.D.J.*.].].n.,.P ].L.q.1.q.",
"h.L.k.h.k.j.5.5.=.j.w.Z.X *+n+a+9+$+:.r.1.q.p.q.K P P R n.R k.Z.",
"m.1.N.h.J.K.3.j.*.=.h.s.x g+9+n+*+$+8.$.R.o.q.].M -.1.W ].,.q.Z.",
",.#+k.j.O.J.g.e.=.=.*.4.x t+n+9+$+r.:.r.D.,.U ].P.k.Z.k.=.=.m.).",
"L J.G.++J.;.;.e.,.,.P H j $+$+$+9+r.r.$.D.*.=.Z.g.,.L.L.M.].m.j.",
"=.h.K.k.=.6.P =.e.h.;.$.j r.$+r.$+r.:.:.D.*.=.,.g.h.k.=.].U ).&.",
"J.h.j.=.w.e.h.h.e.*.].$.j r.r.r.$+:.:.$.r.k.].L =.].].F *.L K h.",
"k.m.h.j.h.&.O.k.5.h.p.$.6 H r.9+$+r.H $.$+,.Q.V ,.-.-.P e.n.<.k.",
"#+m.,.k.*.%.w.p.=.h.=.H 6 H $+$+ +9+$.:.:.=.k.q.q.].<.=.,.q.<..+",
"T.R q.q.=.h.*.*.P *.P $.6 :.9+$+9+e+$.Z :.*.L.].k.k.P =.).j.P ].",
".+=.5.j.3.j.h.].h.*.P $.f $.9+$+n+n+:.$+$.].w.&.=.w.=.h.v.v.L ,.",
"Z.e.e.O.&.j.=.g.h.m.n.4.f f r.$+9+e+8.$.D.n.,.e.,.).m.m.v.h.h.q.",
"J.J.h.L.6.j.j.5.v.h.k.4.x x $.$+e+9+r.$.D.m.h.q.J.k.w.w.w.*.j.q.",
"J.J.h.j.h.=.j.v.6.K.h.s.x f H :.F.F.$+r.C.k.].q.p.p.k.q.K.*.R k.",
"q.k.~.w.h.6.A.w.K.k.k.L.x f 7 7 H 8.9+:.T.m.h.q.k.h.J.]+k.m.k.p.",
"k.k.k.J.,.j.y.j.L.O.j.p.$.7 f x f Z y+F.s.k.J.O.K.h.L.J.k.k.J.J.",
").q.#+.+L.O.=.h.o.V.j.h.D.7 x x $.8.e+F.].e.J.J.y.k..+++L..+O.L.",
",.L.).o.q.O.k.o.L.j.B.K.].$.x x r.e+9+D.n.h.L.L.O.Z.Z.]+/+]+'+J.",
"n.n.P =.k.k.J.k.m.O.&+J.J.4.x f Z q+F.-.m.h.k.L.h.k.Z.n.N.K.V.O.",
"N.,.,.].h.L.O.=.j.v.B.k.].).$+:. +$+4.P ,.L.L.O.k.L.n.L.L.=.v.w.",
"=.,.,.].).K.q.q.J.h.w.++j.*.).4.$.4.=.,.N L.k.*.k.V.=.k.m.,.5.&.",
"i.m.q.q.Z.k.k.O.w.V.K.J.B.*.e.h.6.*.<.-.,.q.m.e.h.w.m.o.J.n.,.-.",
"L.k..+.+L.J.k.k.O.B.J.k.O.B.j.e.;.h.,.-.k.n.n.;.].=.K.'+J.p.1..+",
"O.J.T.L.h.J.#+L.].N.L.J.k.J.h.h.n.-.n.4.^.n.q.n.k.].L.'+M.q.q.L."};
