/* XPM */
static char * item_rot_4b_48_xpm[] = {
"48 48 255 2",
"  	c #000000",
". 	c #200B02",
"+ 	c #280903",
"@ 	c #302101",
"# 	c #403426",
"$ 	c #433819",
"% 	c #504637",
"& 	c #396023",
"* 	c #605841",
"= 	c #4D623D",
"- 	c #625B4D",
"; 	c #616031",
"> 	c #426A3B",
", 	c #516B30",
"' 	c #3F722D",
") 	c #437221",
"! 	c #487030",
"~ 	c #71695A",
"{ 	c #746C54",
"] 	c #477F2A",
"^ 	c #4E7D3E",
"/ 	c #54804E",
"( 	c #607C52",
"_ 	c #59813A",
": 	c #607F3A",
"< 	c #7B7365",
"[ 	c #5D8132",
"} 	c #51843B",
"| 	c #558432",
"1 	c #5F8043",
"2 	c #508833",
"3 	c #568827",
"4 	c #618528",
"5 	c #4F8B24",
"6 	c #538746",
"7 	c #5B8646",
"8 	c #7F7F41",
"9 	c #847E66",
"0 	c #867E6F",
"a 	c #599240",
"b 	c #5A933A",
"c 	c #5D9147",
"d 	c #63903E",
"e 	c #5C914F",
"f 	c #668E4F",
"g 	c #6B924A",
"h 	c #66925E",
"i 	c #639735",
"j 	c #5D9A28",
"k 	c #5C9B20",
"l 	c #788E53",
"m 	c #6A9536",
"n 	c #5C9A35",
"o 	c #5E965E",
"p 	c #66936B",
"q 	c #739064",
"r 	c #8C8966",
"s 	c #818F58",
"t 	c #5D9C45",
"u 	c #5B9D4F",
"v 	c #649B46",
"w 	c #659A4F",
"x 	c #928977",
"y 	c #649A57",
"z 	c #6C9946",
"A 	c #91897E",
"B 	c #6F9858",
"C 	c #63A821",
"D 	c #6AA53C",
"E 	c #65A82D",
"F 	c #70A341",
"G 	c #68A735",
"H 	c #64A83D",
"I 	c #67A64B",
"J 	c #69A644",
"K 	c #60AA36",
"L 	c #6EA44A",
"M 	c #63A845",
"N 	c #66A652",
"O 	c #63A65E",
"P 	c #6DA451",
"Q 	c #6AA558",
"R 	c #6BA465",
"S 	c #6DA45E",
"T 	c #72A358",
"U 	c #76A167",
"V 	c #76A350",
"W 	c #9B947A",
"X 	c #9D9482",
"Y 	c #9C9488",
"Z 	c #7DA663",
"` 	c #77A777",
" .	c #7FA75D",
"..	c #88A469",
"+.	c #85A57C",
"@.	c #6BB154",
"#.	c #6DB247",
"$.	c #6DB061",
"%.	c #6CB24E",
"&.	c #6FB05B",
"*.	c #74B04B",
"=.	c #77AE58",
"-.	c #72B054",
";.	c #75AE61",
">.	c #71AF69",
",.	c #75B32E",
"'.	c #77AD6F",
").	c #6CB62D",
"!.	c #7AAD67",
"~.	c #7CAD61",
"{.	c #80AD59",
"].	c #74B43A",
"^.	c #7BB23A",
"/.	c #79B242",
"(.	c #80AC70",
"_.	c #A79E8C",
":.	c #6DB73B",
"<.	c #A69E92",
"[.	c #A79F83",
"}.	c #6CB743",
"|.	c #73B542",
"1.	c #80B24E",
"2.	c #73B94D",
"3.	c #73B954",
"4.	c #7CB853",
"5.	c #72BF26",
"6.	c #80BB25",
"7.	c #72BB64",
"8.	c #74BB5D",
"9.	c #76BA6A",
"0.	c #7EB95D",
"a.	c #7ABA64",
"b.	c #7AB970",
"c.	c #78B978",
"d.	c #7FB96A",
"e.	c #81B964",
"f.	c #88B762",
"g.	c #72C238",
"h.	c #84B779",
"i.	c #88B76B",
"j.	c #ACAB77",
"k.	c #87B771",
"l.	c #7AC13A",
"m.	c #82BF3C",
"n.	c #B2A996",
"o.	c #B1A99D",
"p.	c #B1AB90",
"q.	c #78C34E",
"r.	c #79C71E",
"s.	c #77C355",
"t.	c #79C447",
"u.	c #7BC25D",
"v.	c #7FC256",
"w.	c #92B97F",
"x.	c #81C350",
"y.	c #99B87C",
"z.	c #A0B67C",
"A.	c #96BB69",
"B.	c #85C349",
"C.	c #88C251",
"D.	c #85C25E",
"E.	c #87C257",
"F.	c #7CC468",
"G.	c #9FB971",
"H.	c #82C08B",
"I.	c #80C373",
"J.	c #91C151",
"K.	c #8EC15D",
"L.	c #88C366",
"M.	c #83C46D",
"N.	c #8AC26D",
"O.	c #83C37C",
"P.	c #81C941",
"Q.	c #91BE8D",
"R.	c #83CA34",
"S.	c #8EC082",
"T.	c #9BBB90",
"U.	c #91C07A",
"V.	c #89C374",
"W.	c #92C16C",
"X.	c #9BBA9F",
"Y.	c #92C174",
"Z.	c #89CC25",
"`.	c #8CCB46",
" +	c #86CB61",
".+	c #89CC51",
"++	c #BEB5A2",
"@+	c #BDB5A8",
"#+	c #BAB984",
"$+	c #BDB79C",
"%+	c #8ACB6F",
"&+	c #8DCC59",
"*+	c #8FCB64",
"=+	c #96CF2B",
"-+	c #8ECB7B",
";+	c #98CD49",
">+	c #93CB75",
",+	c #97CD55",
"'+	c #94CB83",
")+	c #92CB8B",
"!+	c #99CC67",
"~+	c #98CC70",
"{+	c #9BCC77",
"]+	c #9ACC7E",
"^+	c #9FCA84",
"/+	c #9ECA8C",
"(+	c #9ECE5E",
"_+	c #97CD99",
":+	c #A3CC80",
"<+	c #A6CC77",
"[+	c #CEBCAB",
"}+	c #B0CB6C",
"|+	c #A4CB9C",
"1+	c #AFCA80",
"2+	c #C5C290",
"3+	c #A9CE6D",
"4+	c #AFCA87",
"5+	c #C7C1A6",
"6+	c #9CDC08",
"7+	c #C8C0B4",
"8+	c #AECB93",
"9+	c #CBC0AD",
"0+	c #C6C2AD",
"a+	c #BCC6AE",
"b+	c #A5CFAA",
"c+	c #A9D28B",
"d+	c #A8D295",
"e+	c #A6D671",
"f+	c #B4D0B1",
"g+	c #AED4A4",
"h+	c #B7D2A6",
"i+	c #A8DA84",
"j+	c #DAC7B6",
"k+	c #D5CAB7",
"l+	c #C5D0B7",
"m+	c #B3DA85",
"n+	c #B1DA8D",
"o+	c #D3CDB2",
"p+	c #ADDD81",
"q+	c #D3CCBF",
"r+	c #B9D79D",
"s+	c #D2CEB9",
"t+	c #B2DC9D",
"u+	c #B8DFB0",
"v+	c #C2DEBE",
"w+	c #DBD7C2",
"x+	c #E1D6C2",
"y+	c #E5D5CB",
"z+	c #E0D7CA",
"A+	c #DBD9CA",
"B+	c #E8E2CD",
"C+	c #E9E2D5",
"D+	c #F4EEE2",
"E+	c #F4F0DA",
"F+	c #FFFFFF",
"4.E.L.k.U.>+0.~.N.Y.i.y.i.Y.N.;.0.U.k.f.>+h.B ~.Q e.a.'.U M.(.S.;.e.(.;.h.>+]+U.0.q.D.4.~.d.a.s.",
"B..+L.d.i.k.(.i.K.L.~.Y.f.f.f.!.L.]+U.i.d.(.T w i.U.)+N.~.k.k.h.Z -.a.d.k.E.k.d.d.*.x.v.D.(.'.3.",
"/.&+D.2.V.S.w.f.K.E.~.U.{.E.(.T *.0.S I e.=.T P (.!.(.;.!.e.'+d.;.*.~.i.f.*.0.k.h.~.*.x./.f.k.N.",
"4.C.m.=.N.w.w.~.f.W.^+]+1.V e.;.P T Q S *.*.*.I U U S a.a.D.'+d.'.>.k.k.*.P P 4.N.k. .4.4.0.;.W.",
"v.1./.&.V.S.w.N.e.D.G.f.f.d.U.k.Z i.;.B ~.{+5+s+7+|+k.e.d.D.0.Z !.k.k.'.w L 0.4.#.=.W.f.~.=.T Z ",
"u.3.t.N V.h.;.=.d.0.~.i.N.k.i.i.i.N.!.k.8+5+n.o.++7+0+z.i.D.Y.!.>.k.d.;.;.;.~.f.L -.*.0.{.f.d.~.",
"q.s.2.~.k.N.d.f.k.k.(.^+e.i.i.U.'+d.e.$+n.++9+0+7+<.++a+^+D.~.i.=.d.@.!.;.S e.N.D.4.2.4.2.1.#.4.",
"e.D.-.~.U -.d.'+S.V.S.Y.e.P w (.'+Y.U.o.0+w+w+q+w+q+n.++a+e.4.N.=.i.d.Q S ;.:.4.*+0.{.T V 4.@.4.",
"i.0.F T S %.L.w.=.0.V.=.L.0.Q -.L.i.$+++z+w+w+q+w+w+w+o.5+T.L.0.4.-.2.;.a.-.e.d.~.N.T Z ..{.4.U.",
"/+e.Q (.y -.V.0.4.2.d.k.-.4.!.7.a.8+o.w+w+@+7+7+s+C+o.7+@+a+a.P e.~.i.a.Q w k.d.~.=.b.U !.~.P !.",
"'+!.d.;.2.D.I %.;.=.~.&.w 8.d.&.a.$+7+w+++w+q+o.@+q+n.7+7+++y.a.U.e.'.T !.h.w.S.V.d.;.k.h.;.i.~.",
"'+~.a.%.4.-.0.4.M.0.P &.;.=.P @.U.o.B+7+n.0+o.n.o.k+<.7+w+o.$+k.!.-.y &.!.S.h.T k.U.k.i.S.w !.Z ",
"~+d.!.b.3.N.4.0.v.0.v 0.8.0.3.a.y.7+7+o.n.q+s+n.@+z+7+7+z+5+++^+L ;.$.;.'.!.U B !.(.k.F k.Z Z k.",
"N.d.Y.k.-.f.4.0.4.1.*.*.4.0.2.e.$+s+7+7+o.z+k+o.@+q+o.0+z+q+o.8+=.Z +.i.h.&.B Q !.B h.;.(.~.Z (.",
"{.I k.k.-.0.D.{.4.*.2.*.-.*.4.f.a+w+z+@+n.q+7+++0+7+<.@+z+w+o.a+w.4.W.!.S c '.y B U a.>.U a.U.V.",
"b.S ..k.=.D.L.f.-.|.|.0.-.=.;.k.7+w+w+7+@+q+7+z+7+_.Y 7+q+w+0+$+A.i.k.>.R S R U (.U d.f ;.!.U.O.",
"&.h.S.e.D.{.N.E.0.-.2.0.v.P  .y.q+z+o.@+w+w+7+o+9+_._.7+w+q+0+o.k.(.w.U h.U (.h.U.!.e.I ;.k.k.!.",
"Q i.U.~.v.1.D.E.d.8.3.2.-.'.=.p.q+B+<.@+k+s+0+7+k+_._.@+w+0+s+o.T.c V !.S.(.{.k.N.;.;.T T -.-.1.",
"v e.N.q.E.i.N.8.>.@.-.%.&.U S [.w+q+<.@+7+q+0+7+q+w+s+7+q+q+q+o.8+z f.-+3.;.T W.k.L.D.0.(.!.e.2.",
"G -.L.m.D.N.d.#.v y d.a.e.0.7.<.w+w+7+s+s+7+7+w+q+7+o.++<.X ++0+p.T k.I.$.a.!.L.D.i.V.;.T a.P *.",
"~.-.E.L.0.=.&.|.*.Q =.=.=.4.-.n.o.@+0+0+w+k+s+w+0+0+Y 7+0+<.w+@+$+P &.-.=.-.0.a.*.P ~.;.T {.L *.",
"W.3.D.D.~.=.8.2.0.;.=.4.3.4.L ++@+q+7+0+7+5+7+s+@+w+7+0+q+7+w+0+5+=.-.v P N !.e.L J P v w U !.-.",
"N.-.0.=.P =.v.2.2.v.f.0.4.t.0.$+q+q+q+7+0+@+5+7+@+5+++@+z+w+w+@+0+h.P P S ;.T ;.=.P P ~.Q f i.0.",
"d.e.=.~.*.0.0.=.D v.i.=.2.4.D.n.w+z+w+k+@+++@+@+@+k+0+o.w+z+w+++++k.-.w U (.S >.P T -.0.b.!.h.&.",
"L.N.8.T =.e.3.-.J q.K.k.T D.{.o.w+B+_.<.0+q+w+s+9+Y A @+B+z+w+++$+e.S k.e.e.(.>.;.V =.d.(.U S.U.",
"|+(.!.h.i.-.P P -.v.1.4.T ~.4.$+q+B+++o.s+q+k+w+s+o.<.k+w+w+q+@+$+i.!.k.D.L.(.Z ;.P =.4.;.S J k.",
"Q.w.B k.V.i.=.&.4.L P @.P T v $+q+A+5+0+s+q+7+7+0+++Y q+w+w+w+@+$+Y.~.T ~.v.4.Q Q =.~./.4.B S ~.",
"i.k.d 1.0.f.|.*.E.0.>.;.0.v I _.q+7+k+0+s+s+++7+x+9+_.k+w+@+s+++$+D.|.P P 3.2.@.e.0.0.l.t.I Q Z ",
"/+e.4.v 4.q.#.*.4.L =.a.4.P ;._.@+o.q+@+C+q+0+z+B+@+o.k+s+k+q+++p.=.*.J S ;.0.-.T s.E.l.L *.R T ",
"N.e.3.-.0.f.*.].4.B -.-.0.=.;.T.++<.z+++7+@+n.q+q+X <.n.Y X k+++y.;.N 8.@.T ~.F.=.a.*.4.e.0.4.U.",
"W.e.k.0.i.>+|.*.4.2.4.1.B.*.a.y.0+s+z+7+@+<.<.@+@+Y q+k+A <.s+o.z.=.&.k.D.e.=.4.2.q.q.3.=.4.8.U.",
"D.L.8.0.D.e.-.4.0.0.v.|.|.3.0.N.0+w+z+q+o.X <.<.n.o.z+z+0+o.s+o.y.d.!.(.V.W.W.4.*.0.D.2.4.Z &.&.",
"0.W.0.{.*.=.4.;.V =.4.t.}.q.i.i.5+w+w+w+7+++n.++_.s+B+w+w+q+7+o.k.-.e.k.0.L.~.e.k.k.L.L -.U ;.e.",
"e.i.0.=.1.4.~.*.3.g.2.v.4.D.e.i.n.k+s+q+w+7+@+n.9+B+z+w+q+k+@+p.~.-.f.i.e.4.0.L.d.'+L.=.!.;.k.e.",
"i.k.e.0.L.8.=.*.4.q.4.*.L.L.D.L.T.k+7+@+@+w+s+w+q+w+z+q+q+s+++p.d.0.N.0.e.a.v.>+0.i.0.M.F.u.Y.f.",
"4.;.d.!.f.N.S *.4.q.x.4.i.&+D.4.k.0+7+0+k+7+q+w+7+@+s+k+q+7+++k.e.i.e.E.x.3.0.N.D.L.0.N.e.f.L.D.",
"=.k.k.'+i.Y.!.E.D.=.~.4.=.C.E.0.e.++@+0+@+++0+9+0+9+@+9+k+++o.f.4.e.d.D.P.2.0.N.W.Y.L.N.N.D.e.N.",
"%.i.I.k.=.Y.>+K.v.0.0.0.i.K.B.4.v.T.5+++++9+5+@+@+0+++++5+n._.*.%.e.W.e.v.D.M.i.U.>+U.^+k.W.W.Y.",
";.k.M.=.=.f.i.4.L.i.4.e.W.L./.E.K.L.0+0+++++++@+@+++0++++++++.T 0.k.]+L.v.*+V.h.U.%+-+'+%+>+E.0.",
";.a.a.P P =.~.k.a.L.0.e.e.0.C.W.!+L.T.0+++<.++9+o.++0+o.o._.d.!.4.a.d.Y.0.D.~.O.9.k.V.u.D.E.q. +",
"M.9.I.!.;.e.0.i.e.W.0.0.-.4.x.D.C.4.k.$+5+++++n.$+o.++@+o.Z ;.&.~.e.d.D.D.D.a.k.d.b.F.D.2.t.u..+",
"M.Q N -.=.~.4.U.k.D.=.*.4.E.2.B.E.0.;...5+9+@+++++@+0+o.y.U ;.~.Y.k.e.E.e.k.W.d.k.N.d.M.%.*.x.4.",
"&.;.=.L !.T L e.D.i.e.i.L.D.0.t.L.W.4.L ..p.++0+@+o.n...&.>.h T V.0.0.*.e.0.x.-.-.d.a.~.T 1.*.#.",
"@.Q D.;.d.!.d.L.L.Z L.L.L.*+D.u.E.U.0.4.-.Z [.p._.[.+.!.'.S U 8.V.a.-.=.0.i.v.a.~.i.e.k.;.T ~.L ",
"!.!.0.k.!.k.'+N.0.Z e.D.4.E.E.D.E.D.0.E.L -.3.=.-.P 0.(.U ;.=.a.k.d.;.%.=.L.|.8.e.4.L.k.!.;.~.'.",
"V.d.0.V.w.(.Y.N.f.~.e.0.D.N.0.D.L.0.E.v.4.4.0.-.P 8.0.Q S Z ~.d.k.!.0.*.a.T 4.0.N.N.e.D.e.k.{.S.",
"v.W.i.U.'+U.e.v.f.Y.N.d.0.4.4.L.N.L.D.B.D.0.3.I S >.&.b.h.+.~.k.9.k.i.-.&.B i.D.D.{+d.d.d.(.1.U.",
"D.f.K.w.'+e.v.4.N.U.S.k.~.f.h.N.i.D.a.4.W.0.=.d.!.!.y >.S.(.T U.9.{.~.h.M.0.~.i.W.4.v.e.d.S.*.U."};
