/* XPM */
static char * item_rot_1b_48_xpm[] = {
"48 48 255 2",
"  	c #000000",
". 	c #1E0701",
"+ 	c #280901",
"@ 	c #291900",
"# 	c #342502",
"$ 	c #3E3025",
"% 	c #403414",
"& 	c #4D4333",
"* 	c #4F452A",
"= 	c #405932",
"- 	c #5A523F",
"; 	c #5A5248",
"> 	c #3B6526",
", 	c #3E6A3A",
"' 	c #666334",
") 	c #69614E",
"! 	c #696157",
"~ 	c #417430",
"{ 	c #4B7232",
"] 	c #597337",
"^ 	c #497C2C",
"/ 	c #53792C",
"( 	c #5A764C",
"_ 	c #4F7C4A",
": 	c #786F5D",
"< 	c #4C803A",
"[ 	c #577D36",
"} 	c #557D3F",
"| 	c #787065",
"1 	c #4C8328",
"2 	c #607D29",
"3 	c #558128",
"4 	c #4D871E",
"5 	c #508916",
"6 	c #4F8F3C",
"7 	c #598C3C",
"8 	c #628A3B",
"9 	c #618A42",
"0 	c #5F8A4B",
"a 	c #678849",
"b 	c #598D42",
"c 	c #588D4B",
"d 	c #5B8C56",
"e 	c #658957",
"f 	c #78844E",
"g 	c #5C8F34",
"h 	c #60922B",
"i 	c #89806E",
"j 	c #888075",
"k 	c #838367",
"l 	c #6A8F37",
"m 	c #5A9622",
"n 	c #589537",
"o 	c #59962D",
"p 	c #6F8E41",
"q 	c #6A8F68",
"r 	c #63973C",
"s 	c #5C9C48",
"t 	c #69984E",
"u 	c #609B4E",
"v 	c #659A48",
"w 	c #6F9748",
"x 	c #659862",
"y 	c #689857",
"z 	c #5F9B56",
"A 	c #749556",
"B 	c #719663",
"C 	c #63A13F",
"D 	c #968D7A",
"E 	c #839475",
"F 	c #6EA13A",
"G 	c #68A33A",
"H 	c #6BA331",
"I 	c #63A720",
"J 	c #6CA146",
"K 	c #889663",
"L 	c #63A630",
"M 	c #63A63C",
"N 	c #74A046",
"O 	c #65A549",
"P 	c #999185",
"Q 	c #68A846",
"R 	c #68A954",
"S 	c #6FA754",
"T 	c #76A554",
"U 	c #6EA75A",
"V 	c #9E9582",
"W 	c #71A56F",
"X 	c #6BA862",
"Y 	c #74A65A",
"Z 	c #72A662",
"` 	c #68AA5B",
" .	c #7DA45B",
"..	c #7EA26F",
"+.	c #7BA464",
"@.	c #6CB13E",
"#.	c #6CB146",
"$.	c #6CB14D",
"%.	c #73AF4D",
"&.	c #6BB154",
"*.	c #73B236",
"=.	c #72B054",
"-.	c #84AA5A",
";.	c #6CB530",
">.	c #7AAE52",
",.	c #6DB627",
"'.	c #6CB539",
").	c #A69D8B",
"!.	c #A69D91",
"~.	c #7AB242",
"{.	c #84AA82",
"].	c #78B34A",
"^.	c #9CA56D",
"/.	c #80B24A",
"(.	c #73B666",
"_.	c #71B66E",
":.	c #6FB860",
"<.	c #7CB460",
"[.	c #76B660",
"}.	c #7DB466",
"|.	c #70BE21",
"1.	c #73BA47",
"2.	c #83B360",
"3.	c #7CB46E",
"4.	c #A6A589",
"5.	c #7DB37B",
"6.	c #8AB167",
"7.	c #74BA4E",
"8.	c #73BA55",
"9.	c #89B170",
"0.	c #72BA5C",
"a.	c #8BB07C",
"b.	c #7BB859",
"c.	c #83B65A",
"d.	c #AFA593",
"e.	c #AEA599",
"f.	c #73C234",
"g.	c #77C145",
"h.	c #77C23D",
"i.	c #7DC135",
"j.	c #82C044",
"k.	c #7BC255",
"l.	c #7BC25C",
"m.	c #79C44F",
"n.	c #79C26A",
"o.	c #82C063",
"p.	c #84C05D",
"q.	c #7AC82B",
"r.	c #88BE70",
"s.	c #7DC271",
"t.	c #8BBF62",
"u.	c #89BF6A",
"v.	c #B6AD9A",
"w.	c #B5ADA1",
"x.	c #7CC465",
"y.	c #86BF7F",
"z.	c #88BF78",
"A.	c #82C26B",
"B.	c #7DC37B",
"C.	c #7ECB1A",
"D.	c #83C552",
"E.	c #85C931",
"F.	c #89C55A",
"G.	c #ACB781",
"H.	c #82CA3E",
"I.	c #98BF71",
"J.	c #8DC554",
"K.	c #97BF7A",
"L.	c #B3B496",
"M.	c #81CA4A",
"N.	c #95BF83",
"O.	c #A3BB83",
"P.	c #98BE8F",
"Q.	c #84C95C",
"R.	c #83C963",
"S.	c #92C55C",
"T.	c #A3BF67",
"U.	c #89CF12",
"V.	c #98BF9C",
"W.	c #8BC864",
"X.	c #8AC86B",
"Y.	c #91C671",
"Z.	c #90C677",
"`.	c #93C769",
" +	c #BEB5A2",
".+	c #8ECB4E",
"++	c #9DC46A",
"@+	c #BDB5A9",
"#+	c #90CC42",
"$+	c #93CD32",
"%+	c #89CB75",
"&+	c #91C794",
"*+	c #8FC988",
"=+	c #92C981",
"-+	c #96CE6E",
";+	c #9FCE53",
">+	c #99CF5E",
",+	c #99CF65",
"'+	c #99CD7F",
")+	c #99CE78",
"!+	c #A3CB7D",
"~+	c #CDBBAA",
"{+	c #A2CC86",
"]+	c #A0CC8F",
"^+	c #AEC986",
"/+	c #C6BEB1",
"(+	c #B4C87E",
"_+	c #A1CF72",
":+	c #C9BEAB",
"<+	c #C4C0AB",
"[+	c #AACB91",
"}+	c #9EDA0F",
"|+	c #9BD18C",
"1+	c #A7CC9D",
"2+	c #B1CA92",
"3+	c #AACF74",
"4+	c #A6CCA9",
"5+	c #BBCB9C",
"6+	c #B6CCAF",
"7+	c #D1C6B3",
"8+	c #D7C5B4",
"9+	c #CFC7BA",
"0+	c #AFD687",
"a+	c #CDC9B4",
"b+	c #AED690",
"c+	c #BAD29A",
"d+	c #B0D79B",
"e+	c #DDCBBA",
"f+	c #B5D9AA",
"g+	c #D7CFAE",
"h+	c #D7D0B5",
"i+	c #B7DAB7",
"j+	c #DECDC2",
"k+	c #DACFBC",
"l+	c #D3D1C2",
"m+	c #D5D1BC",
"n+	c #D9D0C2",
"o+	c #C2D8BA",
"p+	c #DAD4CD",
"q+	c #E6D5CA",
"r+	c #E8D5C4",
"s+	c #E3D7C4",
"t+	c #DBD9CA",
"u+	c #DDD9C4",
"v+	c #E0D9BE",
"w+	c #E1D8CB",
"x+	c #E7E1CC",
"y+	c #D2E7D4",
"z+	c #EFDED4",
"A+	c #E9E0D3",
"B+	c #E3E2D3",
"C+	c #F0EAD5",
"D+	c #F1EADD",
"E+	c #FBF5E5",
"F+	c #FFFFFF",
"l.D.u.r.Z.Z.2.<.r.I.u.K.6.Z.r.<.b.Z.r.t.`.Z.y }.U o.}.3.Z A.3.N.Z }.9.+.z.Z.)+9.p.k.p.k.<.3.<.k.",
"j..+o.o.u.9.9.r.F.`. .I.6.t.2.6.u.'+K.t.A.9.Y S }.z.*+u.<.r.3.z.}.=.<.3.r.D.9.9.3.7.j.k.p.9.}.8.",
"j.S.p.%.z.N.a.2.t.k. .K.c.c.}.Y ].<.X O }.=.Y %.}.}.5.Z }.o.N.n.(.%.<.6.t.].<.r.z.<.].D.1.6.r.u.",
"c.D.h.T u.N.a.<.p.u.O.!+/.T }.Y S Y U x >.%.#.O B +.X <.<.o.N.}.3.Z r.9.>.S S 8.r.z.Y >.b.c.Y u.",
"k.k.~.[.r.N.z.r.}.p.K.6.t.6.z.9.}.6.z.4. +<+<+/+a+@+O.9.5.p.o. .}.z.3.3.t %.c.>.#.b.t.6.<.=.Y +.",
"o.>.g.R z.5.<.=.}.<.6.u.u.r.9.u.a.5+a+@+d.d.e.d.e.v.w.<+5+'+Z.<.Z r.r.:.<.Z +.c.J =.Q c.c.t.}. .",
"m.k.].-.r.u.3.2.9.r.9.'+}.o.u.{+a+/+D V :+9+9+9+m+a+/+v.e.a+[+9.<.A.R (.Z U c.u.c.7.]./.]./.1.].",
"o.Q.S >.Z =.u.=+N.r.N.Y.<.S ..a+v.j /+n+u+u+t+t+w+w+u+n+:+d./+5+6.6.o.S Z Z *.k.X.b.T T w k.=.b.",
"6.<.Q U B $.o.z.Y p.Y.<.u.K.<+e.).9+w+A+w+n+m+9+7+<+9+n+m+m+ +@+5+2.7.[.<.%.A.n.}.r. .+...>.l.z.",
"{+c.S 9.y 8.z.<.>.7.3.r.9.a+!.!.n+9+@+w+B+:+e.v.7+m+9+m+n+u+n+@+ +5+9.<.U y 9.3.<.[.3...6.<.S }.",
"N.}.3.=.1.o.S =.<.b.[.(.L.@+).n+w+m+e.w.v.!.d.d. +m+m+9+ +a+n+u+<+@+1+Z }.5.N.N.z.o.(.r.9.}.3. .",
"N.<.[.R b.=.b.b.A.o.S N.9+).9+w+w+m+9+D+C+9+v.v.v./+9+d.d.v.n+w+m+w. +9.}.N.z.Y r.Z.z.r.N.t }.+.",
"Y.9.Z 3.[.u.b.b.k.b.J <+@+w.w+B+w+m+9+9+l+ +d.d./+A+w+/+v.e.v./+!.<+<+2+}.Z Z y Z a.9.N 9.2.Z 9.",
"u.r.r.r.0.2.].c.D./.K.a+D t+A+A+A+n+n+p+t+/+ +d.@+/+/+/+v.d.n+A+v./+9+@+N.S y y 3.Z Z.<...<.+.9.",
"<.J z.r.=.b.p.c.].>.2+e.@+w+x+u+A+u+).!.e.v.a+9+n+t+a+@+v.!.n+9+/+@+u+ +L.t W y A Z }.Z +.<.z.r.",
"n.U ..r.b.p.u.u.b.c.5+j l+w+x+m+A+u+d.e.e.v.9+u+9+n+u+9+n+m+/+/+e.v.w+m+v.a.Z B ....}.0 Z ..K.y.",
"X r.N.2.l.b.`.F.b.r. +d.n+a+C+n+9+n+!.e.d.e.9+9+9+/+m+v./+n+d.d.V @+u+u+ +P...a.z.+.<.J -.z.z.(.",
"S u.z.Y k.>.p.p.}.P.d./+9+@+/+9+9+w+@+9+9+/+9+9+a+m+a+/+/+m+v.d.).@+u+m+/+L.2.r.r.Y Y N Y Y =.T ",
"v o.u.7.F.9.u.8.(.O.).9+9+/+).P w.9+@+t+w+/+a+/+9+<+9+e./+9+9+/+w.w.l+t+<+L...r.3.u.o.<.6.(.}.7.",
"G %.o.h.F.Y.}.Q v L.e.9+m+9+V )./+w+!.w. +P 9+w+x+9+m+n+x+w+a+9+9+@+t+/+m+ +N.o.p.u.z.[.U (.S ].",
"}.=.F.W.b.b.=.@.%.@+!.a+m+/+a+m+/+w+ +x+A+v.@+/+@+@+9+<+9+9+d.a+!.!. +P  +@+O.<.%.S }.Y T  .J %.",
"`.8.p.p.2.>.b.1.b./+).<+m+m+u+w+u+w+<+9+m+v./+@+m+a+7+9+a+a+ +u+<+<+9+w.m+<+L.2.J Q =.C u Y +.S ",
"r.=.c.b.S Y p.1.7. +V <+m+n+w+n+w+w+m+t+l+9+<+7+!.d.a+d.<+/+e.<+w.).u+n+u+/+L.}.Y S S }.S u r.o.",
"o.A.<.<.S b.<.=.G  +).<+m+m+t+w+A+w+d.!.v.V <+<+/+l+m+n+7+<+ +a+/+).n+w+u+@+v.}.R S 7.<.9.3.5.Y ",
"A.A.0.S Y o.=.S Q w.!./+9+m+u+n+w+A+@+e.v.d.e.9+<+9+m+m+7+u+ +).V e.u+u+n+<+d.3.(.S =.}.3.W N.z.",
"1+3.}.9.3.b.S S 7.5+e.w.m+n+n+n+n+A+/+).d. +9+n+9+u+m+9+a+9+m+v.V <+u+m+n+/+e. .[.S b.>.[.U J 3.",
"P.N.y r.z.9.[.U >.L.!.w.9+9+n+p+l+9+n+v.d./+m+/+9+9+@+w./+/+w+@+V <+p+9+/+<+L.S U T 2.].7.y B +.",
"r.z.9 /.l.c.~.%.p.O.).w.9+m+/+n+n+l+u+@+v.n+/+B+w+9+9+/+n+B+n+ +).9+<+@+9+<+L.&.}.c.b.h.1.t y +.",
"]+2.].v 7.7.#.N b.a.!.w.a+a+w.e.V d.9+a+<+ +n+B+/+9+!.w.p+n+a+D ).@+).j /+@+O.%.Y k.c.h.%.>.Z Y ",
"u.}.8.8.p.p.%.@.b... +V /+m+/+!.i /+w+w+w.D 9+9+w.d.d.!.w.a+e.).n+B+@+!.9+@+a.o.<.o.7.k.o.o.b.K.",
"`.}.r.b.u.Y.#.].b.b.L.P w.9+/+e.@+/+w+B+n+@+w.w./+V ).).).w.P @+w+w+u+m+a+v.9.b.1.7.k.b.>.k.=.K.",
"t.u.b.<.t.o.=.b.c.}.O.v.e.m+a+m+l+n+w+w+w+m+w.e.!.).d.).v.). +x+x+s+n+9+/+d.r.8.%.c.o.].>.+.[.=.",
"<.Y.p.<.>.>.c.<.T >.I.<+V <+m+n+u+n+n+u+t+t+n+/+ +<+w.w.v. +n+n+w+9+n+9+/+4.}.<.A.9.u.Q S Z [.o.",
"}.u.b.>.].k.}.7.7.h.k.2+@+e.a+m+n+n+m+a+m+w+w+n+m+9+/+@+m+9+m+/+a+m+9+<+d.a.p.W.o.=+u.=.3.<.r.o.",
"u.r.2.b.u.[.<.%.7.7.7.K.@+w./+a+m+m+m+a+m+!./+/+9+u+n+m+n+a+<+/+@+/+ +v.d.}.D.-+p.u.[.A.o.o.Y.t.",
">.Y o.}.t.u.Z =.b.M.m.].L.w./+/+a+m+9+/+/+ + +@+<+9+m+a+@+7+@+/+:+<+w.v.K.8.<.X.Q.u.}.u.<.o.o.p.",
">.9.r.=+u.I.}.k.p.=.=.8.6.<+w./+a+9+9+@+/+m+@+9+ +w.a+ +@+/+e.@+a+@+v.d.M.7.c.Y.Y.Y.u.r.Y.F.u.r.",
"$.u.r.r.b.I.Z.R.k.b.c.o.6.O.@+@+a+:+<+a+ +9+v./+9+ +<+w.@+:+d.d.e. +e.K.p.p.u.6.Z.Z.Z.'+Z.Y.u.Z.",
"[.A.W.=.T c.6.b.o.u.>.o.I.u.G.:+/+/+e.n+a+ + +v. +<+e.@+/+ + +<+<+v.4.u.p.`.z.z.Z.Y.=+=+Y.-+D.b.",
"[.[.}.S S =.b.3.<.o.b.o.<.b.S.O.@+9+ + +v.w./+@+v.d.w.e. +v.<+@+ +4.}.r.p.F.}.y.3.r.Y.o.Q.D.m.W.",
"r.3.r.}.[.2.b.r.o.Y.<.b.=.7.k.W.L.@+9+a+:+<+/+).V @+:+w.v.<+<+v.4.u.}.F.p.p.o.r.3.3.x.o.7.m.p.D.",
"r.` R =.=.<.7.K.3.p.=.%.c.p.7.M.F.9.v.:+<+/+/+<+<+<+ +@+a+@+e.4.z.r.o.p.<.r.`.}.r.A.A.A.Q ].m.7.",
"=.Z Y Q }.Y #.2.b.r.2.9.t.t.c.g.t.u.9.^. +@+<+:+7+<+ +v.v.4.k B r.b.b.#.}.c.D.=.=.}.}.[.S /.%.#.",
"=.U l.(.3.Y 6.u.o.+.t.`.t.W.t.l.F.K.c.b.<.6.O.4.).V 4.4.a.B X [.r.}.b.=.c.u.k.[.}.}.A.A.[.T <.Q ",
"}.}.[.r.+.9.*+A.b.+.o.p.b.p.F.l.p.F.c.p.S =.8.<.8.$.<.3.+.Z =.<.r.3.0.%.b.A.@.0.}.c.S.r.}.Z <.3.",
"z.6.b.A.y.}.Y.r.t.}.2.c.t.X.p.p.t.b.F.p./.>.b.=.S [.<.U x Z }.}.3.}.<.#.}.S b.c.W.r.o.p.}.9.>.z.",
"D.u.r.z.K.z.}.l.o.Y.u.A.c.=.b.u.X.u.p.M.p.b.8.O X Z U s.5...-.3.(.z.9.=.=.y 9.p.F.)+}.}.3.3.].z.",
"p.t.t.N.'+}.k.b.X.K.N.a.+.2.z.u.u.o.<.b.X.b.=.}.}.3.x W z.5.B z.3.2.+.z.A.p.-.6.`.F.p.2.3.N.7.z."};
