/* XPM */
static char * item_rot_2c_48_xpm[] = {
"48 48 255 2",
"  	c #000000",
". 	c #160506",
"+ 	c #0A0827",
"@ 	c #310203",
"# 	c #3C0002",
"$ 	c #280703",
"% 	c #250821",
"& 	c #261507",
"* 	c #461D05",
"= 	c #4B1C1D",
"- 	c #3F2A09",
"; 	c #45281A",
"> 	c #402831",
", 	c #452B26",
"' 	c #353033",
") 	c #402F1D",
"! 	c #3D3029",
"~ 	c #4E3909",
"{ 	c #524130",
"] 	c #4E423D",
"^ 	c #5D4032",
"/ 	c #5D4242",
"( 	c #4D4C53",
"_ 	c #60503F",
": 	c #5C514F",
"< 	c #5F5148",
"[ 	c #3C602E",
"} 	c #496727",
"| 	c #3D6C25",
"1 	c #6A5B54",
"2 	c #6E5E4D",
"3 	c #6A5F60",
"4 	c #686159",
"5 	c #646263",
"6 	c #A95066",
"7 	c #7B5F5F",
"8 	c #71635B",
"9 	c #487B31",
"0 	c #537834",
"a 	c #4D7940",
"b 	c #4D794D",
"c 	c #5A7647",
"d 	c #7B6D6B",
"e 	c #7C6E64",
"f 	c #7E6E5D",
"g 	c #75706C",
"h 	c #717176",
"i 	c #617E2B",
"j 	c #57832B",
"k 	c #4E862A",
"l 	c #51891F",
"m 	c #5F8437",
"n 	c #538740",
"o 	c #548837",
"p 	c #5E8541",
"q 	c #887972",
"r 	c #827B72",
"s 	c #7F7C7A",
"t 	c #5C8D53",
"u 	c #678A52",
"v 	c #8A7C7F",
"w 	c #8F7D6D",
"x 	c #668B60",
"y 	c #5A9529",
"z 	c #808286",
"A 	c #589638",
"B 	c #5A944B",
"C 	c #5F9439",
"D 	c #639242",
"E 	c #5B9542",
"F 	c #69904B",
"G 	c #61934C",
"H 	c #91827A",
"I 	c #8B847A",
"J 	c #878583",
"K 	c #6B952F",
"L 	c #BC7787",
"M 	c #6B973E",
"N 	c #5E9F24",
"O 	c #898C6A",
"P 	c #5FA21C",
"Q 	c #62A034",
"R 	c #6B9E35",
"S 	c #908D8B",
"T 	c #6A9F44",
"U 	c #8C8E92",
"V 	c #63A243",
"W 	c #6A9F4D",
"X 	c #65A056",
"Y 	c #6F9C61",
"Z 	c #6C9E56",
"` 	c #699D6D",
" .	c #62A24D",
"..	c #679F61",
"+.	c #759C56",
"@.	c #779B67",
"#.	c #9D8D86",
"$.	c #759B79",
"%.	c #9C8D90",
"&.	c #9F8E7E",
"*.	c #979188",
"=.	c #9A917F",
"-.	c #66AE1D",
";.	c #68AC31",
">.	c #989593",
",.	c #94969A",
"'.	c #70A93E",
").	c #68AC3D",
"!.	c #69AE4D",
"~.	c #71AC4A",
"{.	c #71AC51",
"].	c #71AB60",
"^.	c #70AC58",
"/.	c #6BAD60",
"(.	c #67AF58",
"_.	c #7CA958",
":.	c #7AA961",
"<.	c #7CAA51",
"[.	c #83A851",
"}.	c #7DAD36",
"|.	c #6CB32E",
"1.	c #8BA763",
"2.	c #9B9EA2",
"3.	c #A19D99",
"4.	c #75AF71",
"5.	c #78B528",
"6.	c #70B63B",
"7.	c #70B643",
"8.	c #7AB348",
"9.	c #70B64A",
"0.	c #7FAE73",
"a.	c #C1969F",
"b.	c #AB9DA0",
"c.	c #CD93A1",
"d.	c #AD9E97",
"e.	c #88AD76",
"f.	c #B09F8E",
"g.	c #A9A194",
"h.	c #70BC28",
"i.	c #9AAA68",
"j.	c #ACA28D",
"k.	c #73B954",
"l.	c #70B962",
"m.	c #72B95B",
"n.	c #7BB75B",
"o.	c #74B86A",
"p.	c #7DB755",
"q.	c #7AB762",
"r.	c #71C204",
"s.	c #7CB66B",
"t.	c #87B55A",
"u.	c #87B562",
"v.	c #85B56C",
"w.	c #A3A7AB",
"x.	c #8FB45B",
"y.	c #A9A6A2",
"z.	c #95B16D",
"A.	c #7BBE50",
"B.	c #77C250",
"C.	c #78C346",
"D.	c #85BE52",
"E.	c #7AC43F",
"F.	c #A1B289",
"G.	c #91B78F",
"H.	c #82C248",
"I.	c #78C733",
"J.	c #86C165",
"K.	c #7EC45F",
"L.	c #88C06B",
"M.	c #7EC926",
"N.	c #7DC466",
"O.	c #B2AEA9",
"P.	c #87C25F",
"Q.	c #7FC374",
"R.	c #80C281",
"S.	c #81CB1C",
"T.	c #82C46D",
"U.	c #8DBF82",
"V.	c #83C656",
"W.	c #D2A6B0",
"X.	c #85C839",
"Y.	c #87C744",
"Z.	c #C0AE9C",
"`.	c #88C376",
" +	c #8DC54C",
".+	c #BEAEAA",
"++	c #98BD86",
"@+	c #ACB3B7",
"#+	c #93C16E",
"$+	c #B3B1B6",
"%+	c #91C177",
"&+	c #B9B1A4",
"*+	c #BCB19D",
"=+	c #95C266",
"-+	c #9BBF79",
";+	c #8CC294",
">+	c #8FC85B",
",+	c #88CB5B",
"'+	c #89CC51",
")+	c #B9B6B1",
"!+	c #8FC96D",
"~+	c #90CA66",
"{+	c #95CB4A",
"]+	c #90D213",
"^+	c #92CA74",
"/+	c #99CD40",
"(+	c #91CD7E",
"_+	c #A2CB61",
":+	c #98CF5F",
"<+	c #94CD8C",
"[+	c #A0CC70",
"}+	c #9ECC78",
"|+	c #9CCC81",
"1+	c #ADC77F",
"2+	c #99D070",
"3+	c #A7CB84",
"4+	c #C3BEB9",
"5+	c #A3CE91",
"6+	c #A1CCB3",
"7+	c #DBB9C6",
"8+	c #DEB9C0",
"9+	c #C0C2C6",
"0+	c #A2D09F",
"a+	c #BCC4CE",
"b+	c #CFC1AD",
"c+	c #CBC2B5",
"d+	c #B9C8BC",
"e+	c #C5C6AA",
"f+	c #B1CF96",
"g+	c #AFCF9E",
"h+	c #AECFA8",
"i+	c #AAD578",
"j+	c #ACD682",
"k+	c #CCC7C2",
"l+	c #ABD68C",
"m+	c #BBD7C1",
"n+	c #B3DDA0",
"o+	c #E6CDD8",
"p+	c #E1D0CE",
"q+	c #DDD3BD",
"r+	c #DBD3C5",
"s+	c #BDDEB4",
"t+	c #D2D5D8",
"u+	c #D8D4CF",
"v+	c #CCD7E2",
"w+	c #F2E1DF",
"x+	c #EBE4D6",
"y+	c #DAE7F2",
"z+	c #E9E5E0",
"A+	c #F7E0EA",
"B+	c #E4E6EA",
"C+	c #F1E9D3",
"D+	c #F3F3F4",
"E+	c #FBF7ED",
"F+	c #FFFFFF",
"K.D.=+L.%+^+n.:.L.#+#+++v.^+#+q.q.%+e.u.!+U.Z q.Z v.q.4.:.L.0.U.:.q.s.:.%+-+|+v.K.A.V.A.:.s.q.A.",
"H.'+J.u.v.v.0.v.>+=+:.-+u.=+u.0.L.}+%+u.v.0.].W v.`.|+L.q.`.v.`.].k.q.v.v.V.%+v.v.{.A.V.n.e.s.k.",
"H.,+K.9.%+++e.u.P.D.:.++t.D.v.Z 8.q./. .s.n.^.{.0.q.0.:.q.q.|+v.].~.q.u.t.~.q.v.%+q.8.D.6.v.`.!+",
"n.H.E._.#+++e.:.J.#+|+-+p.<.v.:.W ].X ..{.~.~.W @.:.].q.q.J.|+q.0.:.L.z.p.!.~.p.L.`.+.<.p.n.].L.",
"p.A.C.:.`.U.e.L.u.P.-+u.u.v.`.v.q.L.0.F.g+h+4+4+k+c+.+*+++#+J.:.q.v.v.4.W ~.t._.!.n.#+z.n.^.^.:.",
"N.p.C.!.`.e.:.{.v.q.:.L.L.e.v.-+F.*+y.g.y.O.O.)+)+)+y.y.&+&+*+=.0.v.s./.q.].:.t.~.{.~.p.p.J.s._.",
"A.A.~.:.L.L.v.t.v.v.v.|+s.%+F.*+g.S $+t+B+B+D+D+k+k+t+k+O.H d.4+y.F.Y :.].].q.L.P.k.8.p.8.8.7.8.",
"J.V.{.t.:.{.v.|+U.`.|+%+U.j.3.,.9+u+u+u+q+q+u+D+t+z+u+k+4+k+4+#.y..+f.1.].].6.A.!+n._.+.+.A.{.p.",
"v.n.'.^.Y {.J.U._.p.^+F.3.3.y.c+g..+O.)+)+k+k+B+u+z+p+k+4+4+u+4+y.&+O.&+F.{.J.N.:.L._.:.1.:.p.^+",
"|+n.^.0.Z {.%+n.p.9.G.b.O.)+y.y.>.O.c+r+x+z+E+F+D+x+r+p+)+O.O.y.O.4+&+g.O.F.v.s.:.m.s.:.v.u.Z v.",
"%+q.s.m.9.K.~.{.:.e.3.$+.+&.H y.3.3.4+)+p+E+F+F+D+x+x+r+q+)+O.O.4+4+O.d.y.y.F.(+%+N.o.v.0.q.v.:.",
"U.:.q.!.A.{.n.q.G.2.)+)+d.H H k+.+&+O.O.k+D+F+F+D+u+k+k+4+k+4+)+&+4+>.y..+3.O.=.v.%+U.v.U.W :.:.",
"^+0.:.s.n.L.p.%+3.4+#.O.=.*.d.y.*+q+d.)+d.u+D+F+z+)+k+)+4+9+k+)+&+)+3.>.)+O.3.&+e.e.v.~.L.s.:.v.",
"L.s.%+v.k.u.t.*.)+y.e d H >.f.f.b+q+.+x+)+)+u+F+D+k+z+r+u+)+t+4+.+O.3.y.*.y.q 2.g.Y `.:.0.:.v.v.",
"n.W %+L.{.n.++3.O.*.H q H #.&.g.b+r+x+r+z+y.)+z+B+y.)+4+)+)+k+u+)+O.3.3.>.S y.*.y.j.q.].:.u.`.`.",
"T.X 1.L.n.L.O 9+H 8 r 3.d *.*..+q+z+E+4+u+u+y.4+u+O.g.g.#.d.d.t+k+y.y.3.3.3.3.*.3.O.v.G :.0.U.`.",
"].v.U.u.K.@.O.4+8 e d q q H f.&+p+C+x+4+k+z+O.O.)+k+b+.+b+c+*+4+k+)+y.3.y.3.S y.*.w.F.W :.`.`.s.",
"X L.`.:.D.@.t+J q d 3.q q w H .+x+r+u+4+k+z+k+O.)+u+b+b+b+c+q+&+k+3.3.y.3.w.,.3.I 2.y._.].^.{.<.",
"V P.L.A.P.3.k+1 8 e >.d H H #.#.c+r+u+.+)+t+)+O.O.k+e+b+b+&+O.%.O.3.3.3.y.>.,.3.*.s O.v.s.q.q.8.",
"Q {.J.E.L.)+y.8 e e q r I H f.#.y.k+k+&+y.t+O.3.3.$+k+b+b+#.u+&+g.3.3.3.O.2.3.$+4+r O.e.^.q.{.8.",
"q.{.P.J.e.)+J I r 3.q q I H j.j.d.3.r+&+g.k+)+3.S 3.4+k+q+b+O.y.3.)+O.3.2.y.)+S O.S y.*++._.T ~.",
"!+k.P.D.e.)+S d I )+e q q H &.f.g.>.u+4+3.)+)+y.>.y.3.O.y.4+O.y.4+y.>.9+3.3.3.O.3.*.3.f.G Y :.{.",
"v.{.q.n.*.4+g 1 4 S e r q q =.=.g.>.k+4+k+g.y.y.>.4+3.S O.$+k+>.>.3.>.O.w.>.S ,.y.*.>.g.^.G L.K.",
"s.u.q.:.*.4+d 8 e 8 e e r q H q #.S 4+3.k+d.*.O.O.4+O.g.>.,.9+4+3.3.3.>.>.3.>.2.w.y.>.4+0.4.0.^.",
"L.L.m.Z *.)+d < d *.8 e r r q q *.J 4+J >.k+.+y.)+k+$+4+>.y.y.u+y.3.3.>.>.S >.,.>.y.>.)+0.@.U.%+",
"5+0.:.e.>.4+e < 8 >.4 e e q r r >.I )+*.*.&+u+3.O.k+w.u+O.*.O.t+u+>.2.>.2.S S )+O.O.,.y.n.^.T v.",
"++G.F v.F.4+r 8 1 1 8 e d q q r O.S k+)+3.I k+O.y.k+O.u+u+4+y.$+B+3.2.,.2.2.U s S >.2.F.k.Z ].:.",
"v.%+E 8.e.)+s < 1 8 8 8 8 d d e .+%.)+4+k+4+4+4+O.4+O.k+t+t+y.)+B+4+,.2.2.>.9+2.,.>.2.++C.W X :.",
"5+u.p.W v.O.y.8 3.e d 8 H *.q 8 %.y.)+4+k+)+O.O.2.4+k+4+z+B+4+O.t+t+w.2.,.S J )+4+S w.L.~.9.Y ^.",
"L.s.9.k.L.*.k+J 8 8 >.8 q I S H S r J y.4+4+)+O.2.O.y.b.u+9+k+9+9+t+9+w.,.,.S S y.S w.u.q.P.p.%+",
"~+v.L.n.L.O k+I 1 : 8 r d S g 1 r 3.b.3.3.3.O.4+4+$+k+y.t+a+4+)+O.t+@+@+2.w.,.,.>.3.F.n.<.p.n.%+",
"J.!+n.n.J.e.3.k+/ 1 8 3.g g r r 8 I j.g.&+b.O.y.y.3.O.O.4+t+9+9+w.9+w.9+>.w.@+2.J w.e.9.<.:.^.^.",
"q.!+P.t.<.u.O k+>.d %.v *.e r r q 8 q H j.>.H S >.3.3.y.2.2.,.w.@+@+w.9+w.O.$+w.,.w.L.~.^.Y ].J.",
"q.L.n.<.8.A.e.>.4+H < < 8 >.r r H H q 8 e H *.>.*.>.S 2.2.,.2.w.w.,.w.a+a+w.2.>.2.5+J.p.s.].v.q.",
"v.v.n.n.J.q.:.e.4+J / 1 8 *.J g H *.I S d 4 3 8 5 s h z z U ,.2.2.2.$+t+y+v+$+2.g.L.n.L.N.n.#+J.",
"n._.q.:.u.L.Y :.J u+r < 8 r 3.*.e e g g r s s g r s s h g g r h z @+@+v+y+a+b.@+++L.q.L.q.J.J.P.",
"_.v.v.U.v.%+s.K.e.J 4+r *.g 4 g 8 g g g r s s J J S S U J J J J U ,.@+9+t+w.$+F.!+#+J.L.%+P.J.L.",
"9.L.Q.L._.#+#+P.A.e.J 9+J d : 3 J g g 3.s s J J J J J >.O.y.U 2.9+a+v+a+y.9+F.v.%+^+%+|+%+=+L.%+",
"l.v.J.^.<.u.v.p.J.u.e.I k+>.8 3 g g 4 d g I )+S v O.S s s 4+a+9+a+v+a+y.@+O.`.`.%+!+(+|+!+!+V.n.",
"].q.q.Z W ^.n.T.q.J.q.0.r O.)+J 1 4 4 g 3 r s J g J 3.s @+s 9+y+v+$+w.@+G.L.q.U.4.v.!+K.P.V.A.P.",
"L.s.T.s.].q.n.v.J.#+n.p.:.O J 4+4+r 1 3 g 3.3 g r 3.s J z z a+9+O.w.w.++J.q.N.L.s.s.N.P.9.A.K.V.",
"J.^.!.^.^.:.p.`.0.P._.{.D.P.@.f *.k+k+y.S s v J s s J w.$+9+y.2.,.G.v.D.q.L.#+s.L.L.L.J.!.9.H.A.",
"^.].^.W q._.~.u.q.v.v.v.J.P.n.J.1.@.J 3.y.O.O.O.O.O.y.y.U U J $.++n.n.~.v.n.D.{.{.u.q.:.^.p.8.7.",
"{.^.K.].v.:.u.J.J.@.L.P.J.>+P.K.>+-+u.1.e.I I J J I I *.e.` @.n.%+q.^._.n.J.V.q.:.v.q.v.]._.n.T ",
"4.s.n.L.:.0.U.T.n.:.J.P.p.D.V.V.V.P.D.D.{.^.m.n.9.~.n.s.@.].^.q.v.v.m.9.^.J.7.m.v.p.~+`.:.].:.:.",
"`.v.n.T.U.v.!+L.u.:.u.n.P.~+D.J.J.p.P.V.A.p.n.k.{.m.q.^...:.q.s.v.s.n.~.s.Z k.n.J.L.J.D.u.e._.U.",
"D.=+v.%+-+%+v.K.J.#+#+s.n.p.p.L.#+=+P.H.P.n.k.W ].:.m.T.e.0.u.v.o.%+v.k.^.X v.P.P.(+s.s.s.0.8.%+",
"P.t.J.U.|+v.n.n.L.-+%+v.:.u.`.L.u.P.q.t.~+n.p.s.s.:...].U.e.+.`.s.q.u.`.T.n.:.L.!+P.P.u.0.++9.%+"};
