/* XPM */
static char * item_rot_1a_48_xpm[] = {
"48 48 255 2",
"  	c #000000",
". 	c #1B0200",
"+ 	c #260601",
"@ 	c #271200",
"# 	c #322200",
"$ 	c #3F3200",
"% 	c #3D3023",
"& 	c #3E3210",
"* 	c #4D411E",
"= 	c #4D432D",
"- 	c #4D443B",
"; 	c #405932",
"> 	c #5B523B",
", 	c #5B5245",
"' 	c #3B6526",
") 	c #3E6A3A",
"! 	c #675E3F",
"~ 	c #6A604A",
"{ 	c #6A6152",
"] 	c #69615C",
"^ 	c #417430",
"/ 	c #4B7232",
"( 	c #597337",
"_ 	c #497C2C",
": 	c #53792C",
"< 	c #5A764C",
"[ 	c #4F7C4A",
"} 	c #4C803A",
"| 	c #567D3D",
"1 	c #79705E",
"2 	c #787065",
"3 	c #4C8328",
"4 	c #607D29",
"5 	c #558128",
"6 	c #7A7452",
"7 	c #4D871E",
"8 	c #508916",
"9 	c #4F8F3C",
"0 	c #598C3C",
"a 	c #857B6A",
"b 	c #628A3B",
"c 	c #618A42",
"d 	c #5F8A4B",
"e 	c #678849",
"f 	c #598D42",
"g 	c #588D4B",
"h 	c #5B8C56",
"i 	c #78844E",
"j 	c #5C8F34",
"k 	c #858166",
"l 	c #898075",
"m 	c #6A8F37",
"n 	c #5A9622",
"o 	c #589537",
"p 	c #5B952C",
"q 	c #6F8E41",
"r 	c #6B8F5D",
"s 	c #6A8F68",
"t 	c #8D8472",
"u 	c #63973C",
"v 	c #5C9C48",
"w 	c #69984E",
"x 	c #609B4E",
"y 	c #659A48",
"z 	c #6F9748",
"A 	c #659862",
"B 	c #689857",
"C 	c #5F9B56",
"D 	c #749556",
"E 	c #968D7A",
"F 	c #6EA13A",
"G 	c #68A33A",
"H 	c #6BA331",
"I 	c #63A720",
"J 	c #6CA146",
"K 	c #889663",
"L 	c #63A630",
"M 	c #63A63C",
"N 	c #74A046",
"O 	c #66A542",
"P 	c #65A549",
"Q 	c #969278",
"R 	c #999085",
"S 	c #68A954",
"T 	c #6FA754",
"U 	c #76A554",
"V 	c #6EA75A",
"W 	c #9E9582",
"X 	c #71A56F",
"Y 	c #6BA862",
"Z 	c #74A65A",
"` 	c #72A662",
" .	c #68AA5B",
"..	c #7DA45B",
"+.	c #7EA26F",
"@.	c #7BA464",
"#.	c #6CB13E",
"$.	c #6CB146",
"%.	c #6BB150",
"&.	c #73AF4D",
"*.	c #73B236",
"=.	c #72B054",
"-.	c #84AA5A",
";.	c #7AAE52",
">.	c #6CB536",
",.	c #6DB627",
"'.	c #A69D8A",
").	c #A69D91",
"!.	c #7AB242",
"~.	c #84AA82",
"{.	c #78B34A",
"].	c #9AA670",
"^.	c #80B24A",
"/.	c #73B666",
"(.	c #71B66E",
"_.	c #6FB860",
":.	c #7CB460",
"<.	c #76B660",
"[.	c #7DB466",
"}.	c #70BE21",
"|.	c #73BA47",
"1.	c #83B360",
"2.	c #7CB46E",
"3.	c #7DB37B",
"4.	c #8AB167",
"5.	c #74BA4E",
"6.	c #73BA55",
"7.	c #89B170",
"8.	c #72BA5C",
"9.	c #8BB07C",
"0.	c #7BB859",
"a.	c #83B65A",
"b.	c #AEA592",
"c.	c #ADA599",
"d.	c #9BAC8C",
"e.	c #73C234",
"f.	c #77C145",
"g.	c #77C23D",
"h.	c #7DC135",
"i.	c #82C044",
"j.	c #7BC255",
"k.	c #7BC25C",
"l.	c #79C44F",
"m.	c #82C063",
"n.	c #84C05D",
"o.	c #88BE70",
"p.	c #7DC271",
"q.	c #8BBF62",
"r.	c #7FC26B",
"s.	c #89BF6A",
"t.	c #B6AD9A",
"u.	c #7CC465",
"v.	c #B6ADA1",
"w.	c #88BF78",
"x.	c #7EC92D",
"y.	c #7DC37B",
"z.	c #7ECB1A",
"A.	c #83C552",
"B.	c #89C55A",
"C.	c #ACB781",
"D.	c #A5B891",
"E.	c #82CA3E",
"F.	c #98BF71",
"G.	c #8DC554",
"H.	c #97BF7A",
"I.	c #B9B298",
"J.	c #81CA4A",
"K.	c #95BF83",
"L.	c #A3BB83",
"M.	c #98BE91",
"N.	c #84C95C",
"O.	c #8AC483",
"P.	c #83C963",
"Q.	c #92C55C",
"R.	c #A3BF67",
"S.	c #89CF12",
"T.	c #8AC867",
"U.	c #91C671",
"V.	c #90C677",
"W.	c #A6BCA1",
"X.	c #93C769",
"Y.	c #BEB5A2",
"Z.	c #8ECB4E",
"`.	c #BEB5A9",
" +	c #90CC42",
".+	c #93CD32",
"++	c #89CB75",
"@+	c #91C794",
"#+	c #92C981",
"$+	c #96CE6E",
"%+	c #9FCE53",
"&+	c #99CF5E",
"*+	c #99CF65",
"=+	c #99CD7F",
"-+	c #99CE78",
";+	c #A3CB7D",
">+	c #A2CC86",
",+	c #A0CC8F",
"'+	c #AEC986",
")+	c #CEBCAB",
"!+	c #C6BEB1",
"~+	c #B4C87E",
"{+	c #C8BEAB",
"]+	c #A1CF72",
"^+	c #C3C0AA",
"/+	c #AACB91",
"(+	c #9EDA0F",
"_+	c #9BD18C",
":+	c #A7CC9D",
"<+	c #B1CA92",
"[+	c #AACF74",
"}+	c #A6CCA9",
"|+	c #BBCB9C",
"1+	c #B6CCAF",
"2+	c #D6C4B3",
"3+	c #D1C6B3",
"4+	c #CFC7BA",
"5+	c #AFD687",
"6+	c #CDC9B4",
"7+	c #AED690",
"8+	c #BAD29A",
"9+	c #B0D79B",
"0+	c #B5D9AA",
"a+	c #DFCCBB",
"b+	c #B7DAB7",
"c+	c #DACFBC",
"d+	c #D3D1C2",
"e+	c #D5D1BC",
"f+	c #C0D8BE",
"g+	c #D9D0C2",
"h+	c #C4D9B4",
"i+	c #DAD3B9",
"j+	c #DAD5CD",
"k+	c #E6D5CA",
"l+	c #E8D5C4",
"m+	c #E2D7C4",
"n+	c #DBD9CA",
"o+	c #DDD9C4",
"p+	c #E1D8CB",
"q+	c #CEE4BB",
"r+	c #F0DDCC",
"s+	c #EBDFCC",
"t+	c #E5E1CC",
"u+	c #E9E0D3",
"v+	c #EFDED5",
"w+	c #E3E2D3",
"x+	c #D6E8D5",
"y+	c #F1E9DC",
"z+	c #F0EAD5",
"A+	c #EFEAE3",
"B+	c #F7F2EB",
"C+	c #FAF2E4",
"D+	c #FAF4DF",
"E+	c #FFFBEC",
"F+	c #FFFFFF",
"n.A.s.o.V.V.1.:.o.F.s.K.4.V.o.:.0.V.o.q.X.V.w 1.V m.[.2.` o.2.K.` [.7.` w.V.-+7.n.j.n.j.:.7.:.j.",
"J.Z.m.m.s.7.7.o.B.X.:.F.4.q.1.4.s.=+H.q.m.7.Z P 4.w._+s.:.o.2.w.@.=.:.2.o.A.s.7.[.5.i.n.n.7.[.6.",
"i.B.n.&.w.K.K.1.q.j.-.L.a.a.[.Z {.<.Y y [.=.Z =.2.[.3.` [.m.K.r.[.&.:.4.q.{.0.o.w.:.{.G.!.4.o.s.",
"a.A.g.;.U.K.9.:.m.s.L.;+^.U [.Z T Z V A ;.&.$.P ` @.Y :.:.m.K.[.2.` s.7.;.J T 6.o.w.Z ;.0.a.` s.",
"j.A.!.<.o.K.9.o.1.n.H.4.q.4.H.7.[.V.K.D.|+^+^+^+!+!+6+1+D.U.o...[.9.7.2.B &.a.0.$.:.q.4.:.=.T @.",
"m.;.f.S w.7.` =.[.:.4.s.s.o.7.,+W.^+{+c.c.t.t.t.t.c.t.v.!+6+6+<+9.o.o.<.[.` @.a.J =.&.a.a.q.[...",
"l.j.{.-.o.s.2.1.o.o.4.=+[.V.|+6+Y.E ).`.6+4+4+e+4+4+{+!+`.'.t.4+!+:+` /.` V a.s.a.5.5.^.{.^.|.{.",
"m.N.&.;.` =.s.#+K.o.#+V.D.4+Y.E c.e+g+o+o+p+o+n+g+g+e+g+e+e+{+'.v.6+^+9.@.` g.j.T.0.U U z ;.=.0.",
"4.0.$.V ` %.m.w.Z n.=+|+!+W t.c+p+p+t+p+o+4+!+`.e+g+e+g+g+o+g+g+{+c.v.6+<+;.r.u.[.o.Z +.+.;.k.H.",
">+a.T 7.B 6.w.:.;.s.^+v.R !+p+j+g+4+!+Y.t.!+4+e+g+e+{+3+4+d+g+g+p+4+v.).6+Y.9.2.:.<.2.+.4.m.T [.",
"H.[.2.V |.m.T =.7.^+v.'.e+4+n+p+o+!+t.c.c.4+e+4+6+c.t.t.t.g+p+g+p+c.!+6+b.!+^+K.w.[./.o.2.[.2...",
"K.:.<.%.0.=.0.m.|+v.).g+o+b.{+`.`.c.c.t.b.v.4+4+!+t.t.t.c.t.!+!+`.R !+o+3+c.3+D.7.V.w.2.w.w :.@.",
"U.7.` 2.<.o.0.<+!+).n+t+p+v.w+y+u+!+t.t.b.4+u+u+p+!+t.b.b.`.z+o+g+).`.p+o+6+b.6+9.9.7.!.7.@.` 7.",
"s.o.V.o.8.1.4.6+).g+p+p+u+6+p+d+e+!+t.c.b.e+e+!+4+v.v.b.b.g+e+!+4+c.Y.o+o+g+^+v.6+9.w.[.+.[.@.7.",
":.J w.o.=.0.1+Y.!+p+u+t+t+!+n+4+4+`.`.`.`.g+6+^+!+v.!+{+`.4+g+4+g+t c.g+p+p+g+v.{+W.[.` @.:.H.o.",
"r.V +.o.0.;+6+'.w+u+u+u+t+b.W '.W ).p+o+o+o+p+p+p+4+g+e+o+'.W '.R R v.g+o+g+g+!+Y.`.K.d ` @.H.O.",
"Y 2.K.1.k.<+).4+t+p+d+u+p+t.).c.t.c.e+4+!+4+3+m+!+t.!+4+d+b.).t.).'.Y.g+g+3+g+g+).!+D.J :.w.w.[.",
"T s.w.Z s.Y.R e+j+u+g+4+j+c.).).c.b.p+4+!+e+o+6+d+!+!+4+o+t.).b.).'.Y.!+w+d+t+`.!+c.Y.@.Z =.;.U ",
"y m.s.5.H.c.!+g+!+n+g+4+p+`.4+n+g+!+4+!+4+4+Y.g+v.b.!+e+g+d+g+g+g+!+!+4+4+j+`.4+g+'.^+H.1.[.[.5.",
"G &.m.i.<+).4+!+Y.'.R Y.g+v.4+d+!+v.o+d+p+e+e+4+4+g+u+p+p+t.!+6+6+W t.6+v.W c.`.6+v.v.<+T /.T {.",
"[.&.B.q.D.c.4+e+!+W ).4+u+c.4+4+`.'.6+6+6+t.`.n+`.`.{+e+^+W 6+4+v.E Y.p+`.).'.4+e+4+c.^+U -.J &.",
"X.6.n.n.Y.c.4+e+!+e+d+4+p+!+p+u+n+v.4+!+!+^+4+`.6+!+e+!+!+).o+o+e+!+Y.g+!+g+!+e+e+4+t.!+y Z ` T ",
"s.=.a.0.!+'.4+e+g+o+p+p+p+4+g+!+!+`.!+^+6+b.`.6+{+v.^+o+!+v.4+!+6+b.b.g+o+g+o+o+e+!+v.!+V x o.m.",
"s.r.:.:.`.R 4+4+o+p+p+u+p+v.v.Y.v.'.g+!+^+^+e+4+e+e+!+{+4+b.`.`.`.W ).e+p+p+p+o+e+Y.t.`.7.[.3.Z ",
"s.s.6.T `.).4+e+g+g+p+u+u+Y.c.t.b.b.`.^+!+!+e+g+g+!+4+e+4+Y.b.'.b.W `.g+p+p+o+g+g+!+t.Y.2.X K.V.",
":+2.[.7.!+).3+e+g+g+4+p+u+!+b.t.c.Y.4+4+!+e+g+g+!+e+!+g+!+o+v.'.'.).e+o+g+4+g+g+e+!+v.Y.<.V J 2.",
"K.K.B o.^+).!+4+4+w+6+p+g+d+t.b.t.g+e+!+4+4+4+t.t.c.!+!+!+j+6+).R c.^+u+w+!+d+!+4+`.c.I.5.B D [.",
"s.w.c {.W.W `.6+e+v.n+!+!+p+^+b.6+d+!+p+g+j+g+4+6+4+d+w+u+o+g+c.b.Y.!+c.g+6+c.g+6+^+b.D.|.J B @.",
",+1.{.y L.).Y.4+!+v.v.).^+e+4+Y.!+Y.n+u+d+g+^+v.t.4+u+g+p+6+'.W '.Y.v.).t.b.v.4+4+`.b.L.&.&.` Z ",
"s.1.6.6.H.c.c.!+4+v.E t 6+p+p+!+R ).p+4+t.{+W b.).b.6+`.g+b.W ).!+n+4+c.t 2 c.e+6+).Y.7.m.m.0.H.",
"X.[.o.0.o.Y.W !+e+v.!+Y.4+t+w+p+!+Y.b.^+4+R '.).'.b.'.e+c.t t.Y.t+u+t+6+^+!+c.g+6+).I.[.U j.=.H.",
"q.s.0.:.n.D.t.v.4+4+g+g+e+o+n+p+o+!+b.b.v.E '.).'.'.).t.R ).6+g+p+t+o+g+n+e+4+6+v.Y.L.6.;.@.<.=.",
":.U.n.:.&.7.^+).{+e+g+g+g+g+g+e+n+g+g+6+v.v.!+c.b.`.c.R Y.g+p+p+t+o+g+g+o+4+6+^+b.b.o.P T ` Z m.",
"[.s.0.;.{.j.D.`.`.6+e+e+o+e+!+4+o+n+p+g+e+e+{+^+`.v.6+4+e+g+o+n+t+4+e+o+g+4+6+^+Y.9.s.=.[.Z 7.m.",
"s.o.1.0.q.=.7.v.Y.!+6+4+e+4+!+g+b.Y.!+{+4+g+o+4+6+e+g+6+e+4+e+`.!+g+6+4+e+!+Y.t.'.o.:.r.r.m.U.q.",
"0...m.[.q.o.A 9.`.`.4+6+4+6+!+e+!+^+^+!+!+!+g+4+e+e+p+4+Y.4+^+!+`.6+v.{+!+v.b.c.H.s.[.s.:.m.m.n.",
";.7.o.#+s.H.[.k.D.`.!+6+{+!+^+t.g+{+Y.6+v.v.^+e+`.v.t.6+Y.6+^+^+!+^+t.`.{+t.Y.L.V.U.T.o.U.n.s.o.",
"&.s.o.o.0.F.V.q.n.D.{+!+^+v.n+6+!+Y.v.^+!+^+v.4+c.{+I.3+Y.c.^+!+6+!+c.Y.c.t.].7.V.V.V.=+V.X.s.V.",
"<.r.T.=.U a.4.0.s.s.d.!+3+`.t.c.).`.!+t.Y.4+).!+v.{+`.!+v.`.).^+{+t.`.c.Y.d.w.w.V.++#+#+U.$+B.0.",
"<.<.[.T T =.0.2.:.m.m.D.`.3+3+!+{+{+`.Y.'.t.t.c.v.!+{+t.I.^+v.b.Y.`.t.c.L.X.[.w.2.o.V.m.m.A.l.P.",
"o.2.o.[.:.1.0.s.m.U.:.0.7.t.{+6+!+!+`.b.c.v.{+`.c.b.t.t.Y.Y.!+`.v.t.'.7.n.n.m.o.[.2.r.m.5.l.k.B.",
"o.V S Z =.:.5.H.2.n.=.T a.s.].t.!+`.3+{+!+{+^+`.Y.`.`.`.!+^+).v.v.d.m.n.:.o.X.[.o.s.m.r.P {.l.5.",
"=.` Z P [.Z $.1.0.s.1.4.q.q.a.0.9.I.Y.Y.^+^+^+^+`.{+6+Y.b.).).9.9.0.0.$.m.a.A.5.=.[.:.<.T ;.{.$.",
"=.V k.` 2.Z [.s.m.@.s.T.q.Q.q.a.B.H.7.9.].'.'.b.'.).W W d.X ` <.U.[.0.=.a.s.j.k.:.[.m.s.V U :.J ",
"[./.:.o.[.7.K.r.0.@.m.n.0.n.B.n.B.G.a.n.T =.6.:.6.%.:.2.@.` =.:.o.2.<.&.0.s.#.8.[.A.q.o.[.` ..X ",
"o.4.0.o.K.[.U.o.q.[.1.a.n.T.0.m.s.0.B.n.0.0.0.&.T <.:.V A @.[.[.2.[.:.&.[.T 0.0.T.o.m.n.1.7.;.w.",
"A.X.s.H.K.w.[.k.q.U.s.o.0.=.0.s.s.s.n.J.n.0.5.P V /.V p.3.+.-.2./.w.4.=.=.B 7.n.n.-+[.[.2.2.{.w.",
"n.n.q.K.=+[.n.6.T.H.#+w.@.1.w.s.s.m.:.0.T.:.=.[.2.2.A /.9.3.Z w./.1.@.w.m.a.-.7.X.B.n.1.2.K.&.w."};
