/* XPM */
static char * item_rot_4b_64_xpm[] = {
"64 64 256 2",
"  	c None",
". 	c #3C3229",
"+ 	c #473F36",
"@ 	c #4A4232",
"# 	c #504838",
"$ 	c #534934",
"% 	c #514A40",
"& 	c #544C3C",
"* 	c #595141",
"= 	c #595246",
"- 	c #59534D",
"; 	c #605540",
"> 	c #5F5646",
", 	c #5E574B",
"' 	c #645C4B",
") 	c #645C51",
"! 	c #635D56",
"~ 	c #696050",
"{ 	c #686055",
"] 	c #6E6554",
"^ 	c #6D6559",
"/ 	c #6C655F",
"( 	c #6A6754",
"_ 	c #756657",
": 	c #746A59",
"< 	c #6F6C59",
"[ 	c #716B64",
"} 	c #736B5F",
"| 	c #7B6C5C",
"1 	c #786F5E",
"2 	c #74715E",
"3 	c #767069",
"4 	c #787064",
"5 	c #737265",
"6 	c #7B7261",
"7 	c #7A7663",
"8 	c #7E7563",
"9 	c #7D7569",
"0 	c #7B766F",
"a 	c #81796D",
"b 	c #837967",
"c 	c #86786E",
"d 	c #897869",
"e 	c #7F7C69",
"f 	c #7E7C6F",
"g 	c #817B75",
"h 	c #847C70",
"i 	c #867C6B",
"j 	c #838174",
"k 	c #868079",
"l 	c #8A806F",
"m 	c #898074",
"n 	c #85826E",
"o 	c #918278",
"p 	c #8E8473",
"q 	c #888678",
"r 	c #8D8578",
"s 	c #8C8680",
"t 	c #8B8874",
"u 	c #90887B",
"v 	c #928876",
"w 	c #918A84",
"x 	c #8E8C7E",
"y 	c #9A8979",
"z 	c #938B7F",
"A 	c #958B79",
"B 	c #908D79",
"C 	c #978F83",
"D 	c #998F7D",
"E 	c #939183",
"F 	c #9D8E84",
"G 	c #95917E",
"H 	c #96918A",
"I 	c #A08F7F",
"J 	c #9A9286",
"K 	c #9C9280",
"L 	c #9D9488",
"M 	c #9F9482",
"N 	c #9A9783",
"O 	c #9C968F",
"P 	c #A4948A",
"Q 	c #9F978B",
"R 	c #A19785",
"S 	c #A99888",
"T 	c #A49A87",
"U 	c #A39A8E",
"V 	c #9E9C8E",
"W 	c #A8998E",
"X 	c #A09D89",
"Y 	c #A19C95",
"Z 	c #A39D83",
"` 	c #A69C89",
" .	c #A69D91",
"..	c #A89D8B",
"+.	c #AB9C91",
"@.	c #AAA08E",
"#.	c #A9A093",
"$.	c #A5A28E",
"%.	c #A4A294",
"&.	c #AE9F94",
"*.	c #A7A19A",
"=.	c #ACA290",
"-.	c #ABA295",
";.	c #ADA497",
">.	c #AFA492",
",.	c #A8A698",
"'.	c #ACA59E",
").	c #B3A499",
"!.	c #AFA699",
"~.	c #B1A694",
"{.	c #ABA893",
"].	c #B7A595",
"^.	c #B1A89B",
"/.	c #B3A896",
"(.	c #ACAA9C",
"_.	c #AFA9A2",
":.	c #B4AB9F",
"<.	c #B6AB99",
"[.	c #BAAAA0",
"}.	c #ADAEA6",
"|.	c #B0AEA0",
"1.	c #B2AE9A",
"2.	c #B3ADA6",
"3.	c #B8AE9B",
"4.	c #B7AEA1",
"5.	c #BBB09E",
"6.	c #BAB1A4",
"7.	c #B6B39E",
"8.	c #B3B3AA",
"9.	c #C0B0A5",
"0.	c #B9B2AB",
"a.	c #B6B4A5",
"b.	c #BDB3A0",
"c.	c #BCB3A6",
"d.	c #BAB59A",
"e.	c #BDB4A8",
"f.	c #BFB4A2",
"g.	c #BAB6A1",
"h.	c #BCB5AE",
"i.	c #C0B7AA",
"j.	c #C2B7A4",
"k.	c #BBB9AB",
"l.	c #BDB9A5",
"m.	c #BFB99F",
"n.	c #C6B6AB",
"o.	c #BFB8B1",
"p.	c #C2B9AC",
"q.	c #C4B9A6",
"r.	c #C4BBAE",
"s.	c #C6BBA8",
"t.	c #C1BDA9",
"u.	c #C0BEAF",
"v.	c #CBBBB0",
"w.	c #C4BDB6",
"x.	c #C6BDB0",
"y.	c #C8BDAB",
"z.	c #CFBDAC",
"A.	c #C8BFB2",
"B.	c #CABFAC",
"C.	c #C3C1B2",
"D.	c #C5C1AC",
"E.	c #CCC1AE",
"F.	c #C7C3AF",
"G.	c #CBC2B5",
"H.	c #C3C4BC",
"I.	c #D1C1B6",
"J.	c #CAC3BC",
"K.	c #CEC3B0",
"L.	c #C7C5B6",
"M.	c #CBC5AB",
"N.	c #CFC4B1",
"O.	c #CEC4B7",
"P.	c #CAC6B1",
"Q.	c #D6C4B3",
"R.	c #D0C7BA",
"S.	c #D2C7B4",
"T.	c #CDC9B4",
"U.	c #CFC8C1",
"V.	c #D3C8B5",
"W.	c #CACAC1",
"X.	c #CCCABB",
"Y.	c #D3CABD",
"Z.	c #D5CAB7",
"`.	c #CFCCB7",
" +	c #D9C9BE",
".+	c #D2CEB9",
"++	c #D4CDC6",
"@+	c #D6CDBF",
"#+	c #D8CDB9",
"$+	c #CFCFC6",
"%+	c #D1CFC0",
"&+	c #D3CFBA",
"*+	c #D4D0BB",
"=+	c #D8CFC2",
"-+	c #DACFBC",
";+	c #DAD0C3",
">+	c #D6D2BD",
",+	c #D3D3CA",
"'+	c #DDD1BE",
")+	c #D5D3C4",
"!+	c #DBD2C5",
"~+	c #D8D4BF",
"{+	c #DAD3CC",
"]+	c #DCD3C6",
"^+	c #D9D5C0",
"/+	c #DAD6C1",
"(+	c #E4D3C8",
"_+	c #DED5C8",
":+	c #E0D5C1",
"<+	c #D8D7C8",
"[+	c #E0D7CA",
"}+	c #DCD9C3",
"|+	c #DBD9CA",
"1+	c #E4D8C5",
"2+	c #DEDAC5",
"3+	c #E0D9D2",
"4+	c #E2D9CB",
"5+	c #DADBD2",
"6+	c #E4DACD",
"7+	c #DEDCCD",
"8+	c #E0DCC7",
"9+	c #EBDACF",
"0+	c #E6DDD0",
"a+	c #E1DFD0",
"b+	c #E3DFCA",
"c+	c #EADECB",
"d+	c #E6DFD8",
"e+	c #E9DFD2",
"f+	c #E1E1D8",
"g+	c #EAE1D4",
"h+	c #E5E3D3",
"i+	c #E7E3CD",
"j+	c #E9E5D0",
"k+	c #EDE4D6",
"l+	c #EFE4D1",
"m+	c #ECE4DD",
"n+	c #E8E6D6",
"o+	c #E6E6DE",
"p+	c #EBE5E4",
"q+	c #EFE6D9",
"r+	c #F5E6E1",
"s+	c #F2E8DB",
"t+	c #EBEBE2",
"u+	c #EFEAE9",
"v+	c #F2EAE3",
"w+	c #EEECDC",
"x+	c #F1EDD8",
"y+	c #F6ECDF",
"z+	c #F9EFE2",
"A+	c #F7F0E9",
"B+	c #F1F2E9",
"C+	c #F4F2E2",
"D+	c #FAF7E8",
"E+	c #FCF6F5",
"F+	c #FEF7EF",
"G+	c #FAFAF1",
"                                                      %+U.++{+                                                                  ",
"                                                  O.T.T.@+;+Y.R.=+                                                              ",
"                                                O.R.:.z u G !.R.Y.O.                                                            ",
"                                              O.e.m  .e.s.D.<.r  .*+A.|+                                                        ",
"                                            A.^.J A.&+>+Y.*+Z.E. .C `.G.                                                        ",
"                                          R.b. .R.!+]+^+@+*+@+-+Y.^.J G.G.                                                      ",
"                                          r.L R.]+_+;+>+>+@+;+=+;+=+:.#.E.++                                                    ",
"                                        R.L T.!+_+=+@+;+=+]+]+=+!+]+r.-.f.G.                                                    ",
"                                        6.6./+_+]+x.6.R.O.R.Y.]+4+R.6.Y.L G.G.                                                  ",
"                                      Y.Q >+_+!+p.n.R.]+<.^.=+_+]+o.!.;+i.^.x.                                                  ",
"                                      6.p.[+@+e.p.6+[+e././.e.Y.O.z 6.!+@+U E.X.                                                ",
"                                    )+#._+[+A.<.6.Y.Y.e.<.~.3.:.r.U 4.!+!+t.4.R.                                                ",
"                                    x.:.[+3+4.~.<.i.1. .<.!.3.0+]+6.^.!+/+*+ .D.3+                                              ",
"                                    !.R.R.O.!.>.<.Y._+A.3.~.p.h+!+++4.^+/+^+:.p.R.                                              ",
"                                    !.@+^.c.6./.4.[+e+!+6.~.O.=+Z.;.Q /+b+}+T.!.G.                                              ",
"                                  J.e.!+@+m+G.).i.[+@+6.^.>.c.x.6.p.-.>+8+2+>+#.F.                                              ",
"                                  4.%+!+!+a+O.-.4.i.4.A.6.~.Y.0+6+6.J >+8+2+~+1.F.J.                                            ",
"                                  :.[+]+Y.x.4.;.i.e+4+A.x.Y.A.;.L B ;.-+]+~+~+D.:.x.                                            ",
"                                  4.6+]+[+{+=+c.R.O.e.O.4+Y.r.@.-.U ^.=+]+A.^+&+ .p.                                            ",
"                                R.p.e+_+A.4.!.4+4+0+a+G.O.@+c.=.;.+.^.]+=+O.]+x. .i.                                            ",
"                                e.%+d+6+;.#.4.R.G.@+O.^.A.R.i.=.-.=.^.Y.d+Y.]+r.^.e.X.                                          ",
"                                4.[+|+a+^.;.4.R.O.O.;+r.i.=+G.=.#.#.;.D.m+=+0.@+i.:.p.                                          ",
"                                :.3+{+_+&.;.:.=+O.!+r.O..+O.R.c.i.e.^.R.L.{+w.]+O.-.e.                                          ",
"                                :.3+[+R.-.^.4.=+O..+R.;.D.@+!+4+_+_+r.0+!+e.J.;+G.-.i.                                          ",
"                                4.R.{+U.i.]+Y.G.R.p.R.6.O.O.Y.A.R.c.Q -.J  .C L O.-.r.                                          ",
"                                e.@+++a+@+]+x.@+[+!+O.@+k+k+A.t.O. .U ]+G.9 4.Y.R.;.i.                                          ",
"                                2.U J c.6.%+:.[+2+O.@+G.!+Y.^.F.p.z ^._+c.!.^.>+Y.!.p.)+                                        ",
"                              r.e.G.u _+6.x.U x.x.4.O.1.r.A.^.=+]+!.:.]+6.@+1.~+`.:.t.Y.                                        ",
"                              i.i.x.e.=+A.d+c.R.O.A.i.F.&+t.3.]+`.!+t.=+@+=+.+}+`.6.i.G.                                        ",
"                              i.c.R.;+)+]+_+w.Y.R.F..+T.*+;+c.F.P.c.K >+/+;+/+/+`.e.i.L.                                        ",
"                              p.c.>+[+[+r.6.!.6.i.$.t.;.1.*+;.O.4.4.-.O.2+]+}+/+T.p.6.x.                                        ",
"                              a.6.^+|+4+!+7+@+O.4.p.c.x.F.c.l.Y.;+R.G A.8+}+2+~+V.:.^.x.                                        ",
"                              4.6.>+4+0+^.U C R.F.R.6+4+T.N.r.@.T A J &+8+b+2+~+V.6.^.h.                                        ",
"                              e.6.*+_+0+i.^.&.4.G.G.=+R.R.^+i.:.=.#. .>+b+2+2+^+&+i.!.6.                                        ",
"                              p.4.@+=+0+x.^.).x.T.*+@+Y.R.[+O.6. .@.:.]+2+.+/+^+T.i.:.:.                                        ",
"                              X.!.@+Y.[+G.~.c.@+Y.=+!+P.F.Y.R.A...` p./+=+O.~+~+.+p.1.0.                                        ",
"                                :.R._+=+O.!.r.=+O.Y.r.g.6.G.R.O.T R 4.h+|+r._+Y.&+6.4.e.                                        ",
"                                ;.R.G.i.@+/.Y.G.O.;+l.6.O.x.[+_+..T q.L.v+r.r.R.O.-.5.!.                                        ",
"                                ;.&+Y.%+4+6.R.Y.v+R.@+R.R.v+a+@+b.;.K.^.7+G.Q `.O.4.c.A.                                        ",
"                                ^.F. .z A.A.p.]+7+=+4.:.d+7+!+F.-.;.V.f.@+R.[+~+R.X 5.                                          ",
"                                !.A.^.U [+G.G 4+x.O.!.4.0+Y.4+X U ` x.#.#.Q 0.7+A.!.4.                                          ",
"                                :.F.6.6.6+<+4.R.6.^.>.;.t.p.R.G K 3.p.!.U r E 4.T.^.4.                                          ",
"                                :.r.R.R.4+a+x.6.O.U @.>.!.!+i.X ;.!+|+A.r h 6..+G.;.a.                                          ",
"                                A.4.>+/+_+7+=+Q i.G  ...{.A.r !.4.0+h+=+T ,.:.@+t.^.!.                                          ",
"                                  4.&+^+^+2+[+c. .L $.-.@.L ^.U Y.4+4+2+.+.+4.R.r.4.4.                                          ",
"                                  6.`.~+~+.+_+)+a.i.;. .^.e.u R./+6+]+}+|+>+&+R.g.f.|.                                          ",
"                                  6.P.*+>+T.[+!+&+4.l.6.:.G r.7+4+6+[+>+/+T.`.P.7.b.                                            ",
"                                  p.p.T.&+`.r._+*+;+l.:.^.A.Y.}+2+2+/+>+~+&+T.t.~.;.                                            ",
"                                    p.T.Y.Y.;.e.G./+>+t.^+&+>+*+)+/+&+!+]+P.R.r.<.^.                                            ",
"                                    i.T.O.x.D.t.p.~+/+>+.+Y.*+@+[+g+O.=+>+.+R.t.f.C                                             ",
"                                    i.A.A.g.&+t.Y.F.~+&+2+Z.P.@+ .O.Y.@+@+N.F.b.<.                                              ",
"                                    4.A.i.A.A.r.1.l.T.T.g.*+l.F.F.l.O.O.Y.G.b.3. .                                              ",
"                                      r.c.=+A.4.P.^.r.t.l.P.c.T.P.l.O.g.T.i.>.b.O                                               ",
"                                      p.x.:.>.q.D.t.t.i.y.t.4.T.f.s.E.3.y.5.=.#.                                                ",
"                                        A.y.b.G./.P.l.b.s.s.c.q.6.y.D.4.r.<.5.L                                                 ",
"                                        e.A.y.x.3.4.~.6.y.s.4.3.y.y.D.=.p.~.6.                                                  ",
"                                          y.y.i.l.;.~.j.s.D.<./.G.=+:.4.~.6.%.                                                  ",
"                                          :.E.B.J #.r.;.Y.t./.f.X {.{.A.=.4.                                                    ",
"                                            i.y.p.i.x.;.#.` f.i.4.7.A.-.s.V                                                     ",
"                                             .y.B.K.q.j.4.b.l.g.f.T.^.6.$.                                                      ",
"                                              !.p.q.f.p.f.f.l.A.O.;.b.#.|.                                                      ",
"                                                 .b.q.j.V.R.G.^.Q i.U %.                                                        ",
"                                                  U -.5.3.5./.4.4. .                                                            ",
"                                                       .R U L L Y                                                               "};
