/* XPM */
static char * item_rot_2b_32_xpm[] = {
"32 32 255 2",
"  	c #000000",
". 	c #060D20",
"+ 	c #3D0001",
"@ 	c #2E0500",
"# 	c #210B06",
"$ 	c #2D0B1A",
"% 	c #18132F",
"& 	c #4A1A13",
"* 	c #44252D",
"= 	c #422A0C",
"- 	c #2C2E3D",
"; 	c #462A21",
"> 	c #3B302E",
", 	c #3F3024",
"' 	c #513608",
") 	c #5B392C",
"! 	c #573C3B",
"~ 	c #534030",
"{ 	c #444349",
"] 	c #4E423C",
"^ 	c #654B48",
"/ 	c #624F40",
"( 	c #5C514E",
"_ 	c #5F5148",
": 	c #545359",
"< 	c #3B612D",
"[ 	c #3F6B25",
"} 	c #4F6729",
"| 	c #6A5C51",
"1 	c #665D59",
"2 	c #755A53",
"3 	c #705C5B",
"4 	c #626268",
"5 	c #716358",
"6 	c #6D6460",
"7 	c #41791F",
"8 	c #596F47",
"9 	c #487B31",
"0 	c #537834",
"a 	c #4B7A41",
"b 	c #557741",
"c 	c #50784D",
"d 	c #796A63",
"e 	c #7E6E5D",
"f 	c #7A6E6F",
"g 	c #777068",
"h 	c #737171",
"i 	c #856C73",
"j 	c #617E2B",
"k 	c #57832B",
"l 	c #80716A",
"m 	c #50872C",
"n 	c #51891F",
"o 	c #5F8437",
"p 	c #538740",
"q 	c #548837",
"r 	c #5E8541",
"s 	c #837A77",
"t 	c #877A6E",
"u 	c #5C8D50",
"v 	c #678A52",
"w 	c #5C8D58",
"x 	c #668B60",
"y 	c #848085",
"z 	c #5A9529",
"A 	c #7D8387",
"B 	c #AF7481",
"C 	c #81837F",
"D 	c #589638",
"E 	c #5A944B",
"F 	c #5F9439",
"G 	c #639242",
"H 	c #6A9042",
"I 	c #5B9542",
"J 	c #69904C",
"K 	c #61934C",
"L 	c #908276",
"M 	c #8C8380",
"N 	c #6B952F",
"O 	c #7F8C66",
"P 	c #6B973E",
"Q 	c #5E9F24",
"R 	c #5FA21C",
"S 	c #62A034",
"T 	c #6B9E35",
"U 	c #948C89",
"V 	c #6A9F44",
"W 	c #63A240",
"X 	c #6A9F4D",
"Y 	c #65A056",
"Z 	c #6F9C61",
"` 	c #63A247",
" .	c #6C9E56",
"..	c #699D6D",
"+.	c #62A24D",
"@.	c #679F61",
"#.	c #BF808F",
"$.	c #759C56",
"%.	c #789B63",
"&.	c #759B70",
"*.	c #9C8E81",
"=.	c #AD888E",
"-.	c #919287",
";.	c #949095",
">.	c #8F9394",
",.	c #66AE1D",
"'.	c #68AC31",
").	c #9C9491",
"!.	c #70A93E",
"~.	c #68AC3D",
"{.	c #69AE4D",
"].	c #71AC4A",
"^.	c #71AC51",
"/.	c #71AB60",
"(.	c #70AC58",
"_.	c #6BAD60",
":.	c #67AF58",
"<.	c #7CA958",
"[.	c #7CAA51",
"}.	c #83A851",
"|.	c #79AA61",
"1.	c #84A763",
"2.	c #7DAD36",
"3.	c #6CB32E",
"4.	c #8BA763",
"5.	c #A49C99",
"6.	c #75AF71",
"7.	c #C8929F",
"8.	c #78B528",
"9.	c #70B63B",
"0.	c #70B643",
"a.	c #7AB348",
"b.	c #70B64A",
"c.	c #83AD72",
"d.	c #82AD7E",
"e.	c #BA999D",
"f.	c #9FA29F",
"g.	c #A4A0A5",
"h.	c #70BB29",
"i.	c #9DA3A7",
"j.	c #ADA091",
"k.	c #9AAA68",
"l.	c #A3A499",
"m.	c #70BF17",
"n.	c #73B954",
"o.	c #70B962",
"p.	c #72B95B",
"q.	c #7BB75B",
"r.	c #74B86A",
"s.	c #7DB755",
"t.	c #7AB762",
"u.	c #71C204",
"v.	c #7CB66B",
"w.	c #87B55A",
"x.	c #87B562",
"y.	c #85B56C",
"z.	c #ACA5A1",
"A.	c #8FB45B",
"B.	c #95B16D",
"C.	c #7BBE50",
"D.	c #77C24D",
"E.	c #76C255",
"F.	c #78C346",
"G.	c #85BE52",
"H.	c #7AC43F",
"I.	c #B0AC97",
"J.	c #9FB47D",
"K.	c #9BB48D",
"L.	c #82C248",
"M.	c #78C733",
"N.	c #86C165",
"O.	c #7EC45F",
"P.	c #88C06B",
"Q.	c #7EC926",
"R.	c #7DC466",
"S.	c #80C36B",
"T.	c #87C25F",
"U.	c #85C081",
"V.	c #7FC374",
"W.	c #D4A4B0",
"X.	c #81CB1C",
"Y.	c #83C656",
"Z.	c #85C839",
"`.	c #87C744",
" +	c #94BE82",
".+	c #B4B0B5",
"++	c #88C376",
"@+	c #8DC54C",
"#+	c #B8B0AC",
"$+	c #91C174",
"%+	c #93C16E",
"&+	c #ACB3B8",
"*+	c #90C17A",
"=+	c #94BE8F",
"-+	c #BCB0A2",
";+	c #B1B3AC",
">+	c #95C266",
",+	c #9BBF79",
"'+	c #C0B199",
")+	c #8FC85B",
"!+	c #88CB5B",
"~+	c #89CC51",
"{+	c #C4B496",
"]+	c #8FC96D",
"^+	c #89CB73",
"/+	c #90CA66",
"(+	c #95CB4A",
"_+	c #90D213",
":+	c #92CA74",
"<+	c #99CD40",
"[+	c #91CD7E",
"}+	c #A2CB61",
"|+	c #98CF62",
"1+	c #99D057",
"2+	c #A0CC70",
"3+	c #9ECC78",
"4+	c #9DCC7E",
"5+	c #ADC77F",
"6+	c #9CCC85",
"7+	c #99D070",
"8+	c #A7CB84",
"9+	c #C3BEB9",
"0+	c #9CCE8F",
"a+	c #9FCE9D",
"b+	c #D9BABE",
"c+	c #A9CE93",
"d+	c #CBC1B4",
"e+	c #CEC1AC",
"f+	c #DEBAC7",
"g+	c #C1C3C8",
"h+	c #B7CC95",
"i+	c #AECF9E",
"j+	c #ACCFA7",
"k+	c #AAD578",
"l+	c #ACD682",
"m+	c #CCC7C3",
"n+	c #ABD68C",
"o+	c #BAD0BF",
"p+	c #BDD1AE",
"q+	c #C0CFD6",
"r+	c #B6DCA0",
"s+	c #E9CCD0",
"t+	c #DDD2BC",
"u+	c #BADEB3",
"v+	c #D9D3CF",
"w+	c #DCD3C6",
"x+	c #D3D5DA",
"y+	c #ECE5D3",
"z+	c #E3E6EA",
"A+	c #EAE5E1",
"B+	c #DCECF4",
"C+	c #F1F3F7",
"D+	c #F6F3EE",
"E+	c #FBF6E5",
"F+	c #FFFFFF",
"G.>+P.$+v.N.%+*+x.%+t.:+$+P.y./.|.P.v.P.c.c.t.|.$+:+y.s.Y.q.v.s.",
"L.O.q.*+++T.w.$+w.x.<.N./.x.t.^.y.U.t.R.*+v.^.y.w.t.y.t.C.a.1.N.",
"s.F.x. +d.N.%+,+[.y.|./.Y ^.b.(.%./.t.N.++v.v.y.[.].q.P.<.s.q.v.",
"s.F.p.++|.x.x.P.y.y.P.P. +J.l.9+9+;+K.$+P./.y./.|.|.s.^.s.s.t.|.",
"C.a.|.x.y.y.y.*+v.x.*+K.).#+v+v+A+x+#+l.K.|.v.|.|.q.N.q.a.a.a.a.",
"x.^./.(.P.y.P.y.N.|.l.z.#+#+d+d+w+A+v+9+-+K.w./.t.q.t.N.<.1.[.P.",
"*+(.|.n.y.q.n.v.<.-..+j.).5.#+v+A+A+y+m+9+-+I.t.(.y.y.t.v.y.|.|.",
"++t.b.n.q.t.t.(.K.;+z.U z.-+z.m+D+D+y+d+z..+-+c.y.*+|.++y.*+(.|.",
"$+y.v.N.s.C.s.c.g.j.l U z.e+d+-+D+D+m+g+9+9+5.e.y.|. .|.y.y.v.y.",
"q.P.x.q.w.s.a.-.9+M M M *.e+w+v+9+A+m+w+9+#+5.5.K. . .Z v.%.y.++",
"t.1.P.q.N.q.^.;+5.d t L j.t+A+w+m+v+).)..+#+z.).-.|.6.&.|./.y.++",
"/.*+q.s.T.t.c.g+g l U t j.v+w+m+v+9+m+-+-+9+z.5.5.d.$+t.|./.t.<.",
"` N.C.%+N.(.d.#+| s t L *.9+w+#+x+z.9+e+d+#+5.f.5.K.%+P.R.|.t.s.",
"(.s.!+t.(.b.l.).s M t L j.j.9+z.g+).9+e+-+z.z.5.5.K.t.^.|.$.<.[.",
"N.q.s.(.O.s.l.5.s ).t L *.j.#+-+#+5.;+9+-+z.;+z.z.l.|.].^.X Z q.",
"v.t.q.q.q.].l.U d l l s L ).;+9+z.z.#+5..+z.5.).g.l.|. .p.v.6.t.",
"++t./.t.^.].l.U 5 s 5 s t M 5.).#+#+9+z.;+;+5.U f.z.r.<./.v.6.$+",
" +Z y.y.(.[.l.U 5 l 5 l M U 5.).#+#+m+m+.+.+).;.).l. .<.<.n. .|.",
"$+(.a.w.0.s.K.U _ | 5 d t 5.z.m+#+;+9+v+g+v+5.5.g.K.(.q.C.F.X /.",
"++s.n.T.].s.-.g.t t d M U s U 9+9+z..+g+m+x+.+;.).d.t.t.a.q.q.y.",
"P.N.q.P.b.s.1.9+s 6 M M g M ).).z.9+#+m+g+9+&+z.f.c.s.s.C.[.q.y.",
"N.T.w.s.q.(.t.;+5.| s s f g L j.).).).f.g.&+&+;+5.P.t.y.O.^.%.t.",
"t.t.[.s.q.n.D.c.9+s M M l L t t M M U U >.f.g+g+l.R.N.:+N.v.t.P.",
"q.t.|.P./.s.D.x.5.U _ d ).t M M M h h h C U m+g+++q.P.N.t.t.N.N.",
"q.y.*+$+P.T.(.q.B.#+f | M l h g f C U ).z.g+g+K.C.w.$+$+P.$+T.P.",
"o.S.<.w.y.T.w.w.P.-.9+).1 s g M M U 5.).&+q+l.*+T.++++:+[+:+]+O.",
"t.t. .(.t.v.N.O.t.N.-.;+U g 6 g s f >.).;+l.c.P.O.O.V.v.^+T.Y.!+",
"N.(./.|.t.P.N.^.s.C.w.O z.z.y s M M U z.-.$+P.T.t.P.v.P.P.q.n.C.",
"(.(.(.|.<.q.y.y.N.O.G.%+|.-.).U U ).-.&.@.P.q.^.t.C.(.y.t.(.[.].",
"r.t.y.c.*+N.|.T.G.T.O.N.G.^.^.q.b.(.|././.y.v.n.q.C.t.x.N.|././.",
"P.v.$+$+]+N.x.t.T.s.N.x.T.G.s.n.(.t./.|.t.y.y.^./.q.q.P.N.x.c.$+",
"T.N. +P.q.N.*+P.|.P.P.N.q.T.q.t.v./.v.c.1.v.v.y.t.|.P.N.N.y.y.P."};
