/* XPM */
static char * item_rot_1d_32_xpm[] = {
"32 32 255 2",
"  	c #000000",
". 	c #260706",
"+ 	c #2D1C00",
"@ 	c #433618",
"# 	c #4C4138",
"$ 	c #396023",
"% 	c #62594D",
"& 	c #4D623D",
"* 	c #426A3B",
"= 	c #62642D",
"- 	c #516B30",
"; 	c #3F722D",
"> 	c #437221",
", 	c #487030",
"' 	c #477F2A",
") 	c #4B7E35",
"! 	c #4E7F1F",
"~ 	c #4E7D3E",
"{ 	c #776F61",
"] 	c #607C4D",
"^ 	c #54804E",
"/ 	c #5F7C5A",
"( 	c #59813A",
"_ 	c #607F3A",
": 	c #5D8132",
"< 	c #558432",
"[ 	c #5F8043",
"} 	c #508833",
"| 	c #618528",
"1 	c #4F8B25",
"2 	c #538746",
"3 	c #54883E",
"4 	c #5B8646",
"5 	c #598B2A",
"6 	c #519011",
"7 	c #877E70",
"8 	c #599240",
"9 	c #5A933A",
"0 	c #5D9147",
"a 	c #63903E",
"b 	c #5C914F",
"c 	c #668E4F",
"d 	c #848859",
"e 	c #6B924A",
"f 	c #66925E",
"g 	c #639735",
"h 	c #5D9A28",
"i 	c #5C9B20",
"j 	c #788E53",
"k 	c #6A9536",
"l 	c #5D9A31",
"m 	c #5E965E",
"n 	c #5C9A38",
"o 	c #66936B",
"p 	c #73905F",
"q 	c #72906C",
"r 	c #818F58",
"s 	c #5D9C45",
"t 	c #5B9D4F",
"u 	c #649B46",
"v 	c #659A4F",
"w 	c #609B57",
"x 	c #91897B",
"y 	c #6C9946",
"z 	c #679A57",
"A 	c #6F9858",
"B 	c #63A821",
"C 	c #6AA53C",
"D 	c #65A82D",
"E 	c #70A341",
"F 	c #68A735",
"G 	c #64A83D",
"H 	c #67A64B",
"I 	c #69A644",
"J 	c #60AA36",
"K 	c #6EA44A",
"L 	c #63A845",
"M 	c #66A652",
"N 	c #63A65E",
"O 	c #6DA451",
"P 	c #6AA558",
"Q 	c #999477",
"R 	c #6BA465",
"S 	c #6DA45E",
"T 	c #72A358",
"U 	c #76A167",
"V 	c #76A350",
"W 	c #9D9484",
"X 	c #7DA663",
"Y 	c #77A777",
"Z 	c #7FA75D",
"` 	c #88A469",
" .	c #85A57C",
"..	c #6BB154",
"+.	c #6DB247",
"@.	c #6DB061",
"#.	c #6CB24E",
"$.	c #6FB05B",
"%.	c #74B04B",
"&.	c #78AE54",
"*.	c #72B054",
"=.	c #75AE61",
"-.	c #77AE5A",
";.	c #71AF69",
">.	c #75B32E",
",.	c #77AD6F",
"'.	c #6CB62D",
").	c #7AAD67",
"!.	c #7CAD61",
"~.	c #6CB81D",
"{.	c #80AD59",
"].	c #74B43A",
"^.	c #7BB23A",
"/.	c #79B242",
"(.	c #80AC70",
"_.	c #6DB73B",
":.	c #A69E92",
"<.	c #A89E8C",
"[.	c #6CB743",
"}.	c #73B542",
"|.	c #A9A07B",
"1.	c #80B24E",
"2.	c #73B94D",
"3.	c #73B954",
"4.	c #7CB853",
"5.	c #80BB25",
"6.	c #72BB64",
"7.	c #74BB5D",
"8.	c #76BA6A",
"9.	c #7ABA64",
"0.	c #7AB970",
"a.	c #7CBA5D",
"b.	c #78B978",
"c.	c #82B95E",
"d.	c #7FB96A",
"e.	c #81B964",
"f.	c #88B762",
"g.	c #75C22A",
"h.	c #72C238",
"i.	c #84B779",
"j.	c #88B76B",
"k.	c #ACAB77",
"l.	c #87B771",
"m.	c #7AC13A",
"n.	c #82BF3C",
"o.	c #B2A996",
"p.	c #B1A99D",
"q.	c #79C05B",
"r.	c #78C34E",
"s.	c #78C71F",
"t.	c #77C355",
"u.	c #B2AC91",
"v.	c #79C447",
"w.	c #7FC256",
"x.	c #92B97F",
"y.	c #81C350",
"z.	c #99B87C",
"A.	c #A0B67C",
"B.	c #96BB69",
"C.	c #85C349",
"D.	c #88C251",
"E.	c #85C25E",
"F.	c #87C257",
"G.	c #7CC468",
"H.	c #9FB971",
"I.	c #82C08B",
"J.	c #80C373",
"K.	c #91C151",
"L.	c #8EC15D",
"M.	c #83C46D",
"N.	c #85C466",
"O.	c #80C661",
"P.	c #8AC26D",
"Q.	c #83C37C",
"R.	c #8CC267",
"S.	c #81C941",
"T.	c #91BE8D",
"U.	c #83CA34",
"V.	c #8EC082",
"W.	c #9BBB90",
"X.	c #89C374",
"Y.	c #92C16C",
"Z.	c #9BBA9F",
"`.	c #83CE0C",
" +	c #90C17A",
".+	c #92C174",
"++	c #9ABF7B",
"@+	c #89CC25",
"#+	c #BAB59A",
"$+	c #8CCB46",
"%+	c #86CB61",
"&+	c #BDB4A8",
"*+	c #BDB5A2",
"=+	c #89CC51",
"-+	c #BAB984",
";+	c #89CB73",
">+	c #8DCC59",
",+	c #8BCB6D",
"'+	c #8FCB64",
")+	c #96CF2B",
"!+	c #8ECB7B",
"~+	c #94CB6F",
"{+	c #98CD49",
"]+	c #93CB75",
"^+	c #97CD55",
"/+	c #94CB83",
"(+	c #98CC69",
"_+	c #92CB8B",
":+	c #9ACC63",
"<+	c #9EC98A",
"[+	c #9BCC77",
"}+	c #9DCC72",
"|+	c #9ACC7E",
"1+	c #9FCA84",
"2+	c #9DCA90",
"3+	c #9ECE5E",
"4+	c #97CD99",
"5+	c #A3CC80",
"6+	c #A6CC77",
"7+	c #B0CB6C",
"8+	c #A4CB9C",
"9+	c #AFCA80",
"0+	c #C5C290",
"a+	c #A9CE6D",
"b+	c #B6C979",
"c+	c #AFCA87",
"d+	c #C4C2A5",
"e+	c #C9C0AD",
"f+	c #9CDC08",
"g+	c #C8C0B3",
"h+	c #AECB93",
"i+	c #A5CFAA",
"j+	c #A9D28B",
"k+	c #A8D295",
"l+	c #A6D671",
"m+	c #B4CEA2",
"n+	c #B4D0B1",
"o+	c #AED4A4",
"p+	c #A8DA84",
"q+	c #CDCDAF",
"r+	c #B3DA85",
"s+	c #B1DA8D",
"t+	c #D3CCB8",
"u+	c #ADDD81",
"v+	c #D3CCBF",
"w+	c #B9D79D",
"x+	c #B2DC9D",
"y+	c #BFDBAF",
"z+	c #B8DFB0",
"A+	c #C2DEBE",
"B+	c #DCD7C2",
"C+	c #DED7CA",
"D+	c #E8E2CD",
"E+	c #E9E2D5",
"F+	c #FFFFFF",
"w.R.l..+e.R.Y.++j.Y.!.]+l.P.l.T =.M.,.d.i.).a.).i.]+l.4.w.!.d.q.",
"C.F.a. +l.L.a..+{.e.-.e.=.9.-.T (.i.).d. +).*.d.c.a.l.!.4.1.j.d.",
"a.n.c. +i.f.Y.++4.e.=.T S &.%.*.U R 9.N.X.(.(.(.K O a.j.{.4.a.!.",
"q.2.=.i.).e.c.f.P.l.j.j.).-.E.d+#+X !.E.j.;.l.;.$.!.4.*.4.{.e.!.",
"w.3.=.d.d.l.l.++d.e. +X.a.P.A.&+&+W.e.w.c.!.d.=.=.a.E.4.2.%.1.4.",
"e.%.S *.l.j.j.j.e.P 9.N.a.a.u.B+v+u.!.-.E.a.-.-.=.a.9.j.T X {.P.",
"/+=.).*.d.4.3.d.*.;.6.G.3.l.e+t+g+q+!.q.3.e.e.9.S l.l.!.,.).!.!.",
" +9.*.4.4.e.a.$.$.T $.7.!.x.t+g+&+q+++2.*.(.-.S l.i.).X.l. +T X ",
"P.d.d.e.&.4.%.*.a.3.q.9.=.A.v+t+g+*+z.h.4.%.=.).).U T ).d.).).j.",
"{.j.d.4.c.4.%.%.*.4.a.G.7.h+C+e+e+&+<+2.T l.f.j.S U z U 8.U ).X.",
";.(.d.a.R.4.}.4.&.=.*.2.#.m+B+*+v+g+h+N.(.a.j.,.;.R (.).!.T (.Q.",
"=. +9.&.E.c.3.2.$.=.%.3.v d+B+&+g+&+#+j.9.-.A ).i.!.l.!.&.T =.-.",
"H N.y.j.d.$.$.3.!.S O =.@.u.p.v+e+g+d+P.e.%.T X.$.=.P.P.N.X ).*.",
"-.w.E.a.*.+.P -.a.-.S =.O #+g+t+g+e+#+P.3.O T 7.-.a.a.&.).T -.%.",
"N.c.c.-.q.4.-.4.3.*.=.@.w.d+C+t+g+e+d+d.).d.-.K O =.!.K O O S -.",
"d.-.-.-.{.+.w.c.2.E.e.=.4.*+B+*+q+e+e+!.S =.d.O S S @.T *.).).=.",
" +9.=.e.*.K 4.e.-.{.-.P 2.#+C+#+t+e+e+#.X &.e.d.j.(.;.T -.).). +",
"T.U l.j.-.&.%.*.T O T -.r.#+B+*+&+g+d+I &.V j.!.c.a.P *.-.4.A ).",
"l.T &.a.}.4.-.=.-.H A !.!.#+g+q+t+t+#+v T !.a.K P 3.$.c.w.v.O T ",
"X.a.*.c.%.4.T *.a.9.).=.).#+*+g+#+&+#+T =.9.-.#.$.-.a.a.4.a.4.j.",
"R.d.c.P.%.4.4.4.v.a.a.a.e.u.e+t+:.&+d+=.d.!.=.d.N.c.4.r.t.&.4.d.",
"N.E.{.4.4.&.4.r.[.a.a.N.j.h+v+B+#+t+#+l.l.9.-.l.R.d.e.j.c.*.U a.",
"e.e.4.4.-.3.v.w.c.e.e.c.c.++v+v+t+g+W.X.P.9.a.j.e.a.R.X.e.d.9.j.",
"a.e.e.e.T 4.y.4.j.E.4.4.4.l.t+e+g+e+z.X.e.e.e.E.q.a.P.N.e.e.f.E.",
"{.l. +P.e.E.-.4.c.F.4.a.q.j.e+e+&+*+` d.*.2.e.E.y.c.Y..+P.P.N.P.",
"=.M.!.c.j.E.e.c.Y.4.E.w.-.N.d+g+&+#+(.(.d.-.l.P.E.P.i.]+!+X.Y.e.",
"9.d.T -.e.d.N.e.a.D.R.E.M.a.#+&+p.u.T =.9.-.9.P.c.e.J.d.M.w.w.%+",
"d.$.-.!.a.l.E.&.4.4.D.c.=.+.z.e+e+A.H P =.l.j.E.e.R.d.P.d.3.4.w.",
"$.-.T =.-.e.j.j.R.c.w.Y.4.O %.A.o.T -.;.z d.a.*.e.w.*.e.9.-.&.%.",
"=.a.d.d.V.e.!.e.w.E.E.R.w.%.*.&.*.*.).=.$.j.9.&.a.3.a.c.P.).=.).",
"P.e. +i.P.f.d.e.c.c.R.f.F.w.4.*.P 9.=.X e.(.d.&.=.-.c.P.e.d.j.X.",
"c.R.V.X.w.N. +l.!.d.P.f.a.N.a.a.).S 0.i.!.0.).d.9.!.j.'+a.d.l.P."};
