/* XPM */
static char * item_rot_4c_64_xpm[] = {
"64 64 255 2",
"  	c #000000",
". 	c #180101",
"+ 	c #250901",
"@ 	c #271800",
"# 	c #392C08",
"$ 	c #3E3221",
"% 	c #4D4433",
"& 	c #4F462A",
"* 	c #5B523F",
"= 	c #3A5E32",
"- 	c #5B524A",
"; 	c #3D6527",
"> 	c #3E6A1B",
", 	c #646332",
"' 	c #696049",
") 	c #6A6153",
"! 	c #417430",
"~ 	c #4B7232",
"{ 	c #457D26",
"] 	c #4F7B29",
"^ 	c #4D7948",
"/ 	c #5C763B",
"( 	c #59764C",
"_ 	c #5B792B",
": 	c #498117",
"< 	c #4C803A",
"[ 	c #577D36",
"} 	c #557D3F",
"| 	c #78705D",
"1 	c #707546",
"2 	c #787066",
"3 	c #528929",
"4 	c #518934",
"5 	c #5B8736",
"6 	c #847B6A",
"7 	c #5F8A48",
"8 	c #618A42",
"9 	c #628C27",
"0 	c #618C2E",
"a 	c #569028",
"b 	c #598D42",
"c 	c #66884E",
"d 	c #588D49",
"e 	c #5B8C51",
"f 	c #57931F",
"g 	c #798554",
"h 	c #858067",
"i 	c #5A9333",
"j 	c #5A933D",
"k 	c #888075",
"l 	c #64903E",
"m 	c #6D8D46",
"n 	c #649163",
"o 	c #6E8E66",
"p 	c #8D8472",
"q 	c #64994E",
"r 	c #5B9C4F",
"s 	c #689854",
"t 	c #6E974E",
"u 	c #67985C",
"v 	c #5F9B57",
"w 	c #73955B",
"x 	c #659D33",
"y 	c #5DA032",
"z 	c #5BA03D",
"A 	c #6E9A47",
"B 	c #649E3D",
"C 	c #5F9F47",
"D 	c #679D44",
"E 	c #669D4A",
"F 	c #968D7B",
"G 	c #6AA227",
"H 	c #61A526",
"I 	c #749F29",
"J 	c #929175",
"K 	c #889663",
"L 	c #999085",
"M 	c #65AA47",
"N 	c #67AA40",
"O 	c #6FA83D",
"P 	c #67AB38",
"Q 	c #6EA847",
"R 	c #69A94E",
"S 	c #69A954",
"T 	c #6EA75A",
"U 	c #71A752",
"V 	c #9E9583",
"W 	c #79A552",
"X 	c #6BA862",
"Y 	c #74A65A",
"Z 	c #72A662",
"` 	c #68AA5B",
" .	c #6DA76E",
"..	c #7AA36F",
"+.	c #7DA45B",
"@.	c #7BA464",
"#.	c #68B132",
"$.	c #74B337",
"%.	c #81A981",
"&.	c #A69D8B",
"*.	c #6EB728",
"=.	c #A69D91",
"-.	c #6CB642",
";.	c #70B54A",
">.	c #73B542",
",.	c #9AA571",
"'.	c #76B350",
").	c #70B551",
"!.	c #75B357",
"~.	c #68B758",
"{.	c #6AB751",
"].	c #6FB558",
"^.	c #7AB348",
"/.	c #72B45E",
"(.	c #7DB257",
"_.	c #7CB25E",
":.	c #90AD5D",
"<.	c #70BA3A",
"[.	c #88B05D",
"}.	c #73B666",
"|.	c #71B66E",
"1.	c #70BD20",
"2.	c #A6A488",
"3.	c #7DB466",
"4.	c #78B47A",
"5.	c #7CB46E",
"6.	c #8AB167",
"7.	c #87B17C",
"8.	c #88B270",
"9.	c #97AE72",
"0.	c #AEA593",
"a.	c #AEA599",
"b.	c #85B857",
"c.	c #75C04C",
"d.	c #74C053",
"e.	c #77BF60",
"f.	c #7BBF53",
"g.	c #7DBF4C",
"h.	c #73C15A",
"i.	c #76BF67",
"j.	c #7ABF5A",
"k.	c #7DBD67",
"l.	c #7FBD61",
"m.	c #81BD5A",
"n.	c #85BE52",
"o.	c #86BC68",
"p.	c #88BC61",
"q.	c #82C145",
"r.	c #9BB767",
"s.	c #7BC538",
"t.	c #7AC448",
"u.	c #7BC540",
"v.	c #79C82A",
"w.	c #92BB68",
"x.	c #B6AD9A",
"y.	c #88BF71",
"z.	c #B6ADA1",
"A.	c #86BF7F",
"B.	c #88BF78",
"C.	c #7FC372",
"D.	c #7DC37B",
"E.	c #7ECB1A",
"F.	c #85C931",
"G.	c #A9B784",
"H.	c #80C768",
"I.	c #98BF74",
"J.	c #84C854",
"K.	c #97BF7A",
"L.	c #81C862",
"M.	c #83C85B",
"N.	c #A3BB83",
"O.	c #B4B498",
"P.	c #9DBD84",
"Q.	c #94C083",
"R.	c #98BE8F",
"S.	c #85C770",
"T.	c #8DC93F",
"U.	c #8BC94C",
"V.	c #89CF12",
"W.	c #98BF9C",
"X.	c #89C86A",
"Y.	c #8BC864",
"Z.	c #8FC772",
"`.	c #A6BCA1",
" +	c #91C958",
".+	c #90C95E",
"++	c #BEB5A2",
"@+	c #93C76C",
"#+	c #BDB5A9",
"$+	c #96C672",
"%+	c #93CD32",
"&+	c #92C87A",
"*+	c #9FC571",
"=+	c #96C967",
"-+	c #91C794",
";+	c #8FC988",
">+	c #92C981",
",+	c #9DCB51",
"'+	c #94CF52",
")+	c #A3CD64",
"!+	c #A2CC86",
"~+	c #A4CC80",
"{+	c #A0CC8F",
"]+	c #9DCF77",
"^+	c #AEC986",
"/+	c #CEBCAB",
"(+	c #C6BEB1",
"_+	c #C9BEAB",
":+	c #9DD265",
"<+	c #C4C0AB",
"[+	c #9CD081",
"}+	c #AACB91",
"|+	c #9EDA0F",
"1+	c #A9CE79",
"2+	c #9BD18C",
"3+	c #A7CC9D",
"4+	c #B1CA92",
"5+	c #A6CCA9",
"6+	c #A4D472",
"7+	c #BBCB9C",
"8+	c #B6CCAF",
"9+	c #D7C4B3",
"0+	c #D1C6B3",
"a+	c #CFC7BA",
"b+	c #CDC9B4",
"c+	c #AFD68A",
"d+	c #AED690",
"e+	c #BAD29A",
"f+	c #A9DA81",
"g+	c #B5D59B",
"h+	c #AED89B",
"i+	c #B2D983",
"j+	c #B5D9AA",
"k+	c #DECCBA",
"l+	c #DDCDC3",
"m+	c #B7DAB7",
"n+	c #DACFBC",
"o+	c #D5D1BC",
"p+	c #D7D0C3",
"q+	c #C3D8BA",
"r+	c #E2D7C4",
"s+	c #DDD9C4",
"t+	c #E6D6CB",
"u+	c #E1D8CB",
"v+	c #DBDACB",
"w+	c #E6E0CC",
"x+	c #E9E0D4",
"y+	c #E3E2D3",
"z+	c #CEE9D2",
"A+	c #EFDFD6",
"B+	c #F0EAD5",
"C+	c #F1EADD",
"D+	c #FAF4DF",
"E+	c #FBF5E6",
"F+	c #FFFFFF",
"l.!.'+y.o.B.>+$+_.+._.B.K.p.K.P.3.K.]+y._._.!.&+3.6.n.]+>+S t o.q 3.o.Z 5.n 3.o. .Q.K.T l.8.3.u B.Q.[+~+9.m.L.f.M.t.l.Z 8.l._.g.",
"u.M.T.3.&+6.K.6.6.8.3.p.*+[.6.!+w.p.p._.8.3.B.3+}+~+p.3.Q.Z u !.3.5.3.Z.Z._.B.B.5.5.R.q l._.y.3.B.g.w.6.8.y.!.>.M.g.!.l.Z T !.c.",
"t. +'+y.!.n.y.8...8.$+'+p.3.A I._.Y.3.6.@.p..+Y._.!.!.o.T 8.E l 6.Q.R.W.o.;.Z o.B.k.A.5.N /.` y.8.n.m.7.3.8.5.U $.u.Z.n.Q.A.3.m.",
"v.@+T.m.>.o.Q.Q.R.@..+p.g.p.t N.b.^.p.5.Y Q ;.}.X d Q 8.!.+.R _.5.Y T ..T Z o.m.{+3.k./.'.E &+_.w.>.U j.8.{+_._.'. +^.#.+.7.y.Z.",
"(.o.F.u.W p.K.Q.7.3.!.p.w.6.4+K.'.5 _.3._.q Q s S u /.;.Q O '.j Z Z Z X 3.3./.o.{+8.}.5.Z U Q.9.b.B Y N c.o.&+B.t p.O _.p.@.Y $+",
"j.p.v.^.Z _.>+R.R.B.o._.L.w.4+^. +[.K._.Z Y 8.y./.c @.P.4+<+<+b+b+b+O.P.p.3.k.X.o.[.@.5.7.3.B.@.U N !._.'.R '.p.K.w.[.Q U (.w 3.",
"g.m.Q s.].k.&+7.3.y.5.3.j.p.N.b.w.Y 8.R.Q.5._.o.B.8+a+a+o+o+n+s+s+p+a+a+<+G.5.q.l.Y @._.&+Y B.|.q q c.b.p.$.R T (.@+3.w._.'.T @.",
"o.Q m.t.C 3.;+5.Z f.q y.k.+.[.@+Z._.P._.p.y.8.7+b+o+z.F 2 k p k p p z.n+p+b+b+K.K.3.Z X o.B.k.` 3.5.Y _.Y.t Q ).D ^.m.W p.y.k.Y ",
"c.f.j.$.+.o.y.y.5.p.W 8.o.3.+.!+3.y.p.w.y.3+<+0+0.6 0.(+a+o+b+o+o+0+0.2 L o+a+<+7+I.Z !.C.].C 5.Z T /.Y.$+6.q.'.'.>..+^.^.O q.'.",
"_.>.j.Y w.5.Z '.w.@+>+{+Q.R.{+[+k.U U +.N.(+_+k x.o+p+r+p+p+o+o+n+a+n+n+++2 z.a+(+7+t.s 6.Q.E U 3.5.q >.>.=+f.j.j.(.A Q J._.D U.",
"l.&+g.B O @.u ).!.{+Q.o.f.o.Z.m.o.j.R c (+z.p b+p+u+s+s+o+n+o+o+o+p+p+p+p+a+&.F n+#+q+Z 6.l.k.Z s ..'.v.f.o.]+_.t @.m g O g.R l.",
"8.y.l Q T w Z ;.j.{+T !.f.Z.y.W y.M._.7+x.L n+s+v+u+p+a+r+p+o+p+s+s+p+p+u+p+#+#+F 0+(+}+'.U >./.3.;.U B.C.s y.Z.Y @.....+.f.l.P.",
"}+o.!.E 7.u u >.>+o._.'.>.k.8.y.U J.7+#+F s+s+s+u+o+z.a.(+(+(+a+(+p+u+u+x+(+=.s+<+F o+(+}+p.y.!.T l s 8./._.!.!.4.s 8.6.o.R s y.",
"Q.'.o.5.y.M t.y.q ;.U !.;.(.Y }.C P.a+p p+u+u+p+++x.l+r+w+a+a.++0.u+u+u+u+z.V s+s+#+V (+<+R...Y @.u ..{+{+Q.o.y.}./.K...[.3.5.Y ",
"R.Z 8.k.Q >.J._.R Q !.k.(.3.k.S s b+F o+u+u+_+a.a.p+p+a+a+a.0.x.x.#+<+z.=.2 0.s+s+p+=.x.0+<+4.u 3.A.R.3.y.R._.k.Z 5.o.7.Z y.8.+.",
"{+@.!.e.R >.3.;.l.).p.k.o.U E /.3+z.z.w+x+y+z.0.0.a.b+<+&.V x.x.0.0.u+0+o+&.&.p+s+s+p+p b+b+7+).Z Q.7.B.A _.K.&+Q.B./.R.j Y o.@.",
"]+p...T 5./.!.B.(.f.p.f.m.Q l y.b+F p+#+a+#+0.0.0.x.a+o+a+(+a.x.0.(+E+s+u+a+&.o+s+p+p+b+V <+a+5.T @.Z 3.c 3.s Q.7.$.Q K.3.t 5.6.",
"$+B.Q.Q.B.}.!.6.Q ^.(.>.g.'.E N.a.(+u+=.(+a+++x.x.z.C+x+x+a+x.x.0.u+p+a+o+F k p+s+u+s+s+V (+<+j+{+Z T } u 3.7.s Q.k.c Q.Z ..@.7.",
"p.3.'.@+o.;._.p.^.6.m. +q.'.W b+L u+u+#+C+C+p+x.0.a+p+(+(+F a.0.=.(+_+x.b+z.L a+s+u+u+p+a+V 0+<+8.R U @.c Y @.T y.B.Z @.l.w Z.3.",
"_.Q s Q.B.Q _.(.o.3.(.'.^.>.p.<+#+w+u+n+u+o+=.a.0.#+a+(+u+a+a.0.0.y+x+w+u+k k o+s+u+s+p+p+V b+#+R.q 8 7.s u w Z k.Z u @.3.Y {+C.",
"C.Y d 8.K._.'.p.o.l.o.'.>.>.}+=.v+y+u+a+a+p+p+0.a.0+p+#+++#+w+w+x+&.F F F L &.n+p+s+o+p+p+(+&.#+b+Z u Z u ......3.u } 5.Z y.Q.A.",
"}.B.5.7.p.M.f.[.$+=+p.!.N ;.7+=.u+x+u+(+(+z.&.x+x+u+w+x+C+(+o+a+o+=.=.x.a.V &.s+p+l+#+p+s+o+p b+(+7.....Z 7.Q...w.U N !.K.R.B.C.",
"C B.@.;++.o.f.U o.F.m.o.k.;.#+(+x+x+x+0.=.=.a.a+o+_+o+a+(+=.(+(+b+0.0.0.0.&.&.a+x+o+a+u+a+<+a.z.x.8+w %.W.K.o.Y _.E t 8._.3.l.s ",
"E o.l.B.Y m.f.'.p.q.o.3./.y.a.u+u+u+x+a.a.x.0.o+a+a+a+s+a+z.#+s+p+z.=.0.=.&.&.o+#+E+a+x+F s+a+L #+<+3.(.p.y.X._.Y t Y Y S '.E '.",
"b (.y.X.g.n.Y.w.y.j./.5.].8.=.u+x+u+a+0.=.0.&.u+b+a+s+b+s+++b+(+p+#+_+_+(+++=.o+z.p+y+a.p+s+p+F _+z.5.U w.8.o.X.m.'.6.6.}.B.!.g.",
"P Y j.y.u.T.Z.I.y.!.-.b T 4+=.(+x+a+p+0.(+a+#+a+o+o+#+a+z.&.<+a+o+u+x+w+x+a+a.w+w+(+z.#+p+p+a+F 0+z.Q.@.y.B.'.8.B.5.].T }.q Q ^.",
"y l c.Y.q.t.X.k.3.Q D U } ++z.r+a+a+x+a+u+y+#+a+(+s+o+<+<+p+x+B+x+z.b+o+o+=.F ++L ++6 a.F =.a+z.#+z.g+@._.n.g.8.&+Z S Y 5.Z '.^.",
"B.l p.n.@+p.!.T !.;.>.).` O.#+z.k p (+=.a+b+V u+w+w+(+p+w+#+u+o+u+V x.x.0.- =.u+s+z.6 L o+p+a+(+=.z.8+_.3.U Q A _.@.Y U (.E B U ",
"$+!.f.Y.m.8.!.U k.R q._./.0.(+s+&.L x+z.a+a+L (+(+z.z.(+<+z.#+o+x.&.s+u+o+k =.p+s+V p+V b+p+a+o+L #+8+y.6.U B Q !.j N 7 Z Z w E ",
"$+'.Z m.'._.l Y m.t.;.g.n.x.(+o+(+(+s+(+C+C+#+o+<+a+<+(+<+(+s+++a+=.w+o+a+s+++a+o+o+p+a+b+s+b+p+F <+++_.+.p.N E D >.E E d y.B.m.",
"8.'.!.l.[.Y ;.l.Y.f.Q >.n.#+#+o+s+u+u+(+(+#+V (+#+(+++b+o+V b+o+b+=.<+++<+L 6 a+u+s+n+s+s+s+a+a+L b+O.T 5.Z Z R ` 8.B.T b B.!._.",
"k.8.l.Y 3.Y D o._._.Q O J.0.#+n+s+u+w+p+y+v+p+b+b+V z.x.z.<+x.s+0.<+u+o+b+(+=.++s+s+s+s+s+s+b+a+L 0+++Z 5.q R U ).M 3.7.5.5.7.E ",
"L.@+o.!.U Y U X.!.T R M g.0.#+o+s+w+x+#+F &.6 o+z.o+a+y+s+s+n+++o+0.0.++<+L 6 (+p+u+s+s+s+p+b+z.F (+++Z }.|.s W '.5.3.8.u R.{+B.",
";+A.u ].Y Z o.f.D 3.B '.m.O.#+o+p+s+x+a+a.x.a.a.b+++b+o+s+++p+o+o+x.0.&.&.V L p+s+w+u+u+s+o+o+(+F (+O.7.w 5.}.;.U m.U 3.5.Q !.>+",
"8+R.u 7.Q.Q.+.Y R R D (.M.O.0.o+p+a+x+p+&.x.a.(+u+<+p+p+s+(+p+u+o+0+z.=.&.&.a.s+s+p+o+s+s+p+a+a+F (+O.u 6.T T E _.^.!.!.E y q @.",
"B.j+s 7 p.Q.y.8.3.S 3.(.D O.=.o+p+a+u+o+x.0.++u+<+o+p+w+x.b+b+b+x.x+<+&.V &.<+s+r+a+b+p+p+n+a+a+L _+G.f.v T T W _.^.<.'.u s ..@.",
"'.3+C } '.l.f.p.>.N (.p._.N.L a+<+p+#+p+++&.p+a+<+(+o+0.x.F #+b+++x+a+&.F &.z.v+C+p+z.w+(+s+o+b+F #+O.g.).}.o.(.l.F.>.g.E T q @.",
"{+5.p.(.B g.'.g.O A (.m.Q 6.&.a+a+(+(+y+b+z.p+(+C+x+p+o+a+p+a+u+C+x+r+z.V &.o+=.x+x+(+#+z.o+b+(+F ++9.'.U U _.j.p.v.q.;.>.e u s ",
"}+8.^.c.s ;.p.g.'.P g.(.Q 8.=.b+(+L k #+p+<+x.a+C+a+u+x.++#+x+x+u+b+a+++=.0.n+a.a.w+#+L o+a+b+(+V x.7.y.'.T Y g.M.Q u.E f.Y 5.+.",
"Y.3.@.'.!.l.p.p.'.>.<.b.t U x.++o+V L w+w+#+p p+u+0.<+a.=.z.x+b+u+s+F F =.x.a+z.a.<+z.v+C+s+(+++0.=.P.U H.k.Y o.Q (.f.y.l.f.m.!+",
"@+!.8.y.'.y.o.&+>.$._.(.>.g.4+a.a+a+(+u+y+v+++z.#+s+F 0.0.0.++<+a+(+p =.p <+++&.&.L F 2 F b+0+x.<+&.3.t j.g.'.c.f.e.O W n.Q 3.!+",
"p.[+!.Y 3.'.@+k.).'.b.m.Y.Y.N.=.b+s+p+s+u+w+o+&.a.#+F =.&.=.&.u+#+k z.&.o+x+y+o+&.6 | a.p+o+(+F b+O.@+I.!.E n._.>.f.Y p.3./._._.",
"_.@+p.!.(.j.@+_.U M.;._.T ;.p.x.(+o+s+o+s+u+u+(+=.=.F =.&.0.&.V 0.L L <+s+x+y+w+=.(+x.F s+o+#+L #+G.p.[.j.S (.l.&+n.B O @.s !.U ",
"U !+n.l.p.t ^.W b.3.T W (.^.J.O.++b+o+o+o+a+s+s+o+a.<+x.&.&.a.(+F L o+s+u+w+o+s+s+u+p+z.o+a+++a.a.d+8.3.l.k.B.8.y.D Q Y @._.e.o.",
"_.y.p.(.(.A q.f.5.'.f.'.s.<.'.P.#+(+o+o+b+o+u+u+p+o+#+z.z.(+V p =.s+y+w+u+w+s+n+v+p+b+n+0+n+0.(+2.X.!.l.Y.k.y.{+y.!.U 5.Z _.y.k.",
"6.Q.o.m.Q p.j./.o.;.c.j.^.(.f.o.++(+b+o+<+p+L (+o+o+u+a+0.a.b+a+b+s+s+s+s+s+s+o+p+o+o+0+(+#+&.++P.X.f.J.=+f.3.y.!.o.5.k.j.&+&+3.",
"p._.X._.3.6.K.'.U R !.'.t.g.;.Q O.#+b+o+++a+#+++a.b+s+u+s+o+s+n+o+p+b+u+B+0+a+s+s+o+_+a+a+V <+V 8.}.e.J.[+t.p.o._.y.k.3.j.Y.X.p.",
"(.s _.k.3.b.p.y.u S Q _.t.n.f.'.8.#+b+#+b+x.p+<+a+a+(+s+a+o+r+a+0+b+u+a.a+w+b+o+o+o+a+a+o+0.++,.J.d.!./.S.Z.m.y._.o.y.3.o.Y.l.m.",
"(.(.P.3.{+o.y.I.3.'.M.p.U Y !.'.Y P.(+++o+<+o+z.(+=.z.0+s+x.#+s+++<+<+<+x.o+(+o+o+o+0+#+x._+F X.u.<.m.l.$+$+Y.$+p.y.l.y.p.m.y.o.",
";.b.K.5.B._.'.I.y.o..+f.m.(.@+m.W L.++b+a.o+++z.++(+z.x.o+z.++0+#+(+b+b+0+++b+z.b+b+++x.0.++J o.J.m.g.o._.Z.[+@+K.&+!+o.n.p.o.>+",
"Q 3.y.y.y._.b.$+P.@+g.j.j.m.^.o.K.Y.I.<+0+0.0.b+++<+b+x.a+x.<+#+++++b+x.0+++a+&._+<+x.&.++L $+o.m.@+X.Z.o.Q.Y.[+&+K.!+8.&+$+Y.o.",
"/.8.k.Y.U q b.p.o.U (.Z.y.b.Q o.$+I.'.2.0+(+_+<+b+F (+&.0+0.<+++z.z.#+++_+++b+0.<+<+&.++&.R.&+Y.m..+Z.B.B.>+Z.X.&+>+Z.@+$+J.f.f.",
"/./.j.3.E A U '.!.5.y.Y o.m.m.k.k.3.n.=+O.0+_+(+a.++&.a.++++<+<+0.<+0.0+s+a+a.0.z.++x.++J @.X.Q.!..+m.3.A.A.u Z.&+k.f.Y.J.f.u.Y.",
"o.C.B.&+B.U /.y.m.!.y.l.&+p.(.m.!.g.>.U.w.0.0+(+++V z.b+0.++p+0+V _+x.&.z.a.&.0+&.a.++p y.5.w.Y.p.m.j.!.5.5.}.5.k.Z.m.f.U.!.m.Y.",
"y.X !.y.v k.l.(.).Q.o.m.@+(.3.m.Q k.J.f.M..+2._+(+(+#+(+++&.&.V ++#+#+z.0.<+a+=.++<+J 8.p.3.o.n.m.p.l.y.B.y.3.B.5.L.'.P >.Y.f.u.",
"y./.` C _.M _.3.>.6.Q.5.m.m.U Q n.p.g.;.q.U.I.2.++(+0+++#+++++++++++++<+o+<+=.#+0.2.8.>+y.y._.n._.y.o.@+_.8.B.p.o.B.e.R ;.u.g.'.",
"!.X /.T B /.5.Y O '.o.m.o.w.Y 8.o.o.M.m.u.p.w.w.9.&.++#+++0+a+a+a+a+(+a.=.x.++F J s _.&+!.l.;.O k._.m.g.;.!.'.y.3.l.Z U ^.m.#.;.",
"/.S 3.l.X 3.3.s (.p.w.j...3.I.@+l..+Y.J.>.J.I.K.;.(.2.V x.x.++++x.=.a.#+++&.J ..Z Z !.B.o.!.(.U p.!.m.t.k.U @._.l./.m.).W 8.P Q ",
"!.C Z f.Z 5.y.3.7.8.l.y.@.6.n.Y.o.M.@+o.o.m.U.N.p.'.m.U 8.2.&.&.V V V J %.%...u u /.e.&+Y _.c._.'.o.&+g.j.S I.w.o.y.B.X q w.U S ",
"5.3.5.l.y.o.Z 8.-+B.j.f.@.6.o.p.j.(.n.M.f.Y.J.n.b..+(.U !.h.!._.f.D f.l.5.Z 5.Z !._.k.y.5.y.N ;.!.y.f.#.).5.p.g..+Z.5.3.Z o.q 4.",
"A.8.3.!.k.Q.B.@.Z.>+o.p._.@.p.m.m.@+Y.m.m.l.p.^.n.n.l.f.(._._.f.R q L._.s s u _.3.3.3.5.3.3.!.N o.T U >.'.@+p.y.o.b.m.6.7.[.(.Q.",
"n.b.w.(.o.R.P.5._.k.m.o.y.w.p._.p.j.(.M.X.Z.@+b.p.n.t.l.(.!.!.j v 5.}.!.o.@.%.o p.5.5.}.3.[.b.;.k.} ..Q.m.M.S.&+k.8.k.5.5.Q (.>+",
"J.m.~+B.K.>+w.P.8.j.m.p.K.I.&+B.Y ^.!.U p.w.Y.@+_.n.T.p.3.g.d.S }.Z T X 5.;+7.%.+.W B.}.Q.Q.u _.d.E Y p._.Y.J.[+k...(.5.7.(.s.A.",
"p.@.U.p.B.{+K.!.g.!.l.$+K.7.R.8.@.b.y.Q.y.y.p.m.3.U w.Z._.g._.o.3.8...u X 7.B.4.c &+B.}.W _.@.Q.B.J.o.+.6.@+Z.g.J.l.o.8.R.3.#.Q."};
