/* XPM */
static char * item_rot_2a_48_xpm[] = {
"48 48 255 2",
"  	c #000000",
". 	c #210804",
"+ 	c #412612",
"@ 	c #3E2F2B",
"# 	c #54402D",
"$ 	c #514039",
"% 	c #554D4E",
"& 	c #5F5047",
"* 	c #3D602D",
"= 	c #3E6725",
"- 	c #426E1E",
"; 	c #666060",
"> 	c #6D5F57",
", 	c #417039",
"' 	c #467530",
") 	c #536F52",
"! 	c #65696B",
"~ 	c #5F7033",
"{ 	c #457D29",
"] 	c #5E7346",
"^ 	c #55773E",
"/ 	c #537749",
"( 	c #5A792B",
"_ 	c #587937",
": 	c #488020",
"< 	c #517D2B",
"[ 	c #498218",
"} 	c #4E7E45",
"| 	c #4D8039",
"1 	c #786F6B",
"2 	c #557E3B",
"3 	c #7D6F64",
"4 	c #528935",
"5 	c #5B8736",
"6 	c #558942",
"7 	c #5F8743",
"8 	c #618B2E",
"9 	c #578F2F",
"0 	c #71863B",
"a 	c #5D8E26",
"b 	c #549125",
"c 	c #618B50",
"d 	c #588E52",
"e 	c #618C58",
"f 	c #8B7D71",
"g 	c #658A64",
"h 	c #6E8955",
"i 	c #5A923D",
"j 	c #877F7B",
"k 	c #63903E",
"l 	c #818185",
"m 	c #59934A",
"n 	c #60924A",
"o 	c #67904B",
"p 	c #748D4C",
"q 	c #6B951E",
"r 	c #5C9B44",
"s 	c #5E9C3A",
"t 	c #7C8E73",
"u 	c #639A45",
"v 	c #619B51",
"w 	c #6A9952",
"x 	c #6B9D34",
"y 	c #659F34",
"z 	c #699D3D",
"A 	c #60A223",
"B 	c #709B3D",
"C 	c #5FA234",
"D 	c #6F9C49",
"E 	c #669E61",
"F 	c #6F9B66",
"G 	c #719C5F",
"H 	c #789B57",
"I 	c #719B73",
"J 	c #65A341",
"K 	c #7C9965",
"L 	c #64A34B",
"M 	c #6BA14C",
"N 	c #9C8E80",
"O 	c #96908D",
"P 	c #68A358",
"Q 	c #71A159",
"R 	c #929397",
"S 	c #B18C91",
"T 	c #69AD3A",
"U 	c #69AD42",
"V 	c #68AD49",
"W 	c #6FAB49",
"X 	c #72AB40",
"Y 	c #6CAC50",
"Z 	c #6BAC57",
"` 	c #68B12C",
" .	c #75AA50",
"..	c #74AA57",
"+.	c #7FA755",
"@.	c #6FAF33",
"#.	c #6AB223",
"$.	c #76AD33",
"%.	c #6BAD5E",
"&.	c #72AB5E",
"*.	c #6EAC66",
"=.	c #68B236",
"-.	c #76AA67",
";.	c #7BAE4D",
">.	c #74AE75",
",.	c #A39D9A",
"'.	c #7CAE62",
").	c #8CAA5A",
"!.	c #82AC6B",
"~.	c #80AC77",
"{.	c #7DAC87",
"].	c #84AD62",
"^.	c #6DB743",
"/.	c #8FA96D",
"(.	c #70B64A",
"_.	c #74B643",
":.	c #6AB852",
"<.	c #71B651",
"[.	c #74B45F",
"}.	c #8BAA81",
"|.	c #76B458",
"1.	c #6FB65B",
"2.	c #78B452",
"3.	c #7BB448",
"4.	c #AC9F91",
"5.	c #A1A1A6",
"6.	c #72B566",
"7.	c #7EB358",
"8.	c #7DB35F",
"9.	c #76B46D",
"0.	c #C398A0",
"a.	c #70BD20",
"b.	c #7AB466",
"c.	c #89B15E",
"d.	c #7FB36E",
"e.	c #B69EA0",
"f.	c #71C032",
"g.	c #ABA5A1",
"h.	c #74BF3B",
"i.	c #7ABE32",
"j.	c #74BF43",
"k.	c #7FBD41",
"l.	c #75C04C",
"m.	c #74C053",
"n.	c #78BF5A",
"o.	c #77BF60",
"p.	c #7BBF53",
"q.	c #7DBF4C",
"r.	c #76BF67",
"s.	c #7DBD67",
"t.	c #7FBD61",
"u.	c #81BD5A",
"v.	c #82BC6D",
"w.	c #8ABA6E",
"x.	c #85BE52",
"y.	c #86BC68",
"z.	c #88BC61",
"A.	c #89BA76",
"B.	c #7AC077",
"C.	c #7CC070",
"D.	c #79C82A",
"E.	c #92BB68",
"F.	c #83BF78",
"G.	c #A1B2B5",
"H.	c #83C085",
"I.	c #7ECB1A",
"J.	c #8EC15F",
"K.	c #91BD85",
"L.	c #97BC7C",
"M.	c #80C844",
"N.	c #90BD8C",
"O.	c #80C93C",
"P.	c #7FC84C",
"Q.	c #9FBA7E",
"R.	c #C6AAAE",
"S.	c #85C931",
"T.	c #9ABD72",
"U.	c #82C754",
"V.	c #9ABA99",
"W.	c #82C75B",
"X.	c #8EBE9A",
"Y.	c #9BBB8E",
"Z.	c #7FC768",
"`.	c #81C761",
" +	c #B7B0AC",
".+	c #9FBD6C",
"++	c #BBB0A1",
"@+	c #84C66F",
"#+	c #B1B2B7",
"$+	c #8AC475",
"%+	c #89C662",
"&+	c #88C669",
"*+	c #8DC65A",
"=+	c #93C275",
"-+	c #91C27E",
";+	c #CDABB8",
">+	c #90C56A",
",+	c #8FC570",
"'+	c #89CF12",
")+	c #9AC36F",
"!+	c #8CCA50",
"~+	c #8FCB41",
"{+	c #8ECB49",
"]+	c #93CD32",
"^+	c #8CCC71",
"/+	c #8FCD5E",
"(+	c #8FCB7B",
"_+	c #8DCB83",
":+	c #8ECD68",
"<+	c #9ECC51",
"[+	c #94CC76",
"}+	c #96CC70",
"|+	c #9BCB7D",
"1+	c #9BCE6B",
"2+	c #9ECE63",
"3+	c #9CCC85",
"4+	c #98CC94",
"5+	c #9DCD76",
"6+	c #A6C989",
"7+	c #9CCD8C",
"8+	c #D6B8C0",
"9+	c #A7CD79",
"0+	c #A9CE6E",
"a+	c #9EDA0F",
"b+	c #ACCD82",
"c+	c #C9C1B8",
"d+	c #A9CE96",
"e+	c #A6CEA3",
"f+	c #A8CE9C",
"g+	c #CFC1AA",
"h+	c #BEC98F",
"i+	c #A4D284",
"j+	c #C4C3C3",
"k+	c #B6CC97",
"l+	c #B4CEA5",
"m+	c #AFD291",
"n+	c #B6D3B8",
"o+	c #AFDB8D",
"p+	c #ADDB96",
"q+	c #C0D0D8",
"r+	c #B4DB86",
"s+	c #AEDF86",
"t+	c #B7DB9B",
"u+	c #B6DDA4",
"v+	c #B7DEAF",
"w+	c #DED2BD",
"x+	c #DAD3CA",
"y+	c #D5D4D4",
"z+	c #C1DDB6",
"A+	c #E8E5E0",
"B+	c #ECE5D3",
"C+	c #E3E6EB",
"D+	c #DCEDF6",
"E+	c #FAF6E9",
"F+	c #FFFFFF",
"n.x.&+$+-+[+8.'.w.=+w.L.y.}+=+8.8.=+A.z.,+A.w '.Q y.9.9.-.v.d.-+&.t.d.-.A.|+|+=+t.p.*+q.'.b.t.p.",
"P.!+&+s.y.w.!.w.J.>+'.T.c.z.].].y.|+-+y.s.d.G L v.A.K.y.8.A.v.F.-.|.[.y.A.x.w.d.d.2.q.u.u.~.d.p.",
"k.*+u.;.A.K.K.y.J.x...L.7.u.d...2.o.%.u b.|.....!.-.~.&.b.t.-+v.[.W '.w.z.;.t.A.A.'.;.x._.].A.,+",
"u.U.k...w.L.}.8.z.E.6+|+2.Q ].&.M Q P E 2.W ;.L F -.&.b.b.z.-+d.~.-.w./. .W W p.w.A.'.7.7.c.'.E.",
"p.q.h.&.$+K.A.w.b.u.T.z.z.d.-+d.'.y.-.G ..q.u.6+++}.'.8.b.u.t.'.b.A.v.!.L W c.7.W 8.>+E.c.....Q ",
"t.2.q.M $+v.'.|.d.t.].>+w.A.w.y.d.w.b.-.7.h.Q.4.g. +w Q d.u.=+'.-.v.v.[.-.'.'.z.W <.W u.7.y.v.&.",
"l.n.3.'.v.y.d.8.A.A.!.|+b.y.z.=+3+v.|.v.>+q.,.j+C+g.Q.d.t.t.8.w.|.s.P '.-.&.u.,+u.2.;.2.3.3._.3.",
"t.W.Y 7.-. .y.3+|+$+-+=+s.Y o ].-+=+|.s.u.y.g.c+y+x+4.8.2.<.2.>+&.!.d...&.&.h.p.>+n...Q w x.<.7.",
"v.8.X Q -.Y s.K...u.$+8.y.n.Q ..y.t.n.b...}.++++x+y+++!.8.|.v.8.n.;.2.[.'. .y.s.'.@+..K !. .p.=+",
"6+8.Z d.w 2.=+8.2.3.y.v.Y |.-.6.s.v.(...&.Y.4.++A+x+c+/.s.o.|.W t.t.w.8.Z w A.d.'.8.d.-.!.8.w d.",
"-+b.v.|.(.t.M Y 8.|.'.Z L [.9.[.o.u.|.|.y.g.O ++A+B+ +Q.l._.U b.-+z.d.-.b.A.-+-+A.s.6.v.d.'.w.'.",
"3+'.o.Y p. .|.|.v.t.Y &.[.|.Y <.o.|.8.~.A.g.,.++A+B+ +V.q._.W '.d. .E Z d.K.A.Q A.=+A.y.K.w b.'.",
"}+d.-.9.|.w.2.u.p.p.J 8.o.t.<.t.b.[.|.'.A.O O g+x+x+c+V.7.h.U.m.M &.%.-.9.-.&.w -.d.w.X A.-.-.w.",
">+v.=+v.|.z.;.u.x.q.Y 3.u.8.l.u.v.s.s...}.,.N g+y+x+j+ +z.h._.7.|.].}.w.A.Z w w -.G A.-.!.'.!.v.",
"8.M w.v.2.7.z.7.2.3.3.3. .<.p.n.C.`.<.|.}.O f c+B+x+j+,.z.l. .!./.x.,+-.E n -.P G G s.*.G b.A.A.",
"s.P !.$+|.z.y.y.7._.j.7.2.|.&.|.2.l.(.|.}.N N x+x+,.c+,.L.y.d.8.z.y.w.-.F E *.F ~.I b.c -.!.-+$+",
"&.v.-+t.u.7.>+*+t.|.(.|.p.M '...V T J &.V.N f x+x+ + +,./.v.w.t.&.d.A.&.~.-.~.}.A.'.8.M &.A.A.b.",
"Y y.$+'.u.2.z.U.b.o.<.<.<.-...M |.|.n ..Y.f f x+j+c+g+g.A.w.b.W '.n  .d.N.-.7.w.$+[...M &.Z  . .",
"u t.&+q.*+w.&+|.*.Z |.(...-.&.M ..[.*.%.g.3 N c+c+g+c+,.}.&+v.Y  .D 8.$+|.'...E.v.y.t.'.!.b.b.q.",
"C Y y.M.W.,+d.W u w y.b.s.t.[.E !.&.P Z g.3 N  + +c+g.,.}.>+|.&.w Q v.v.%.b.'.y.u.y.A.&.&.b.Y _.",
"'. .u.%+u.|.Z _.(.P |.|.|.u.|.%.Z 9.Y ^.,.f f g. + + +g.g.&+m.|.Y  .|.Z |.Z 8.b.W  .'.&.Q 7.L W ",
",+|.u.u.8...o.(.7.|.|.2.2.p.W &.-.&.P.W.g.j f 4. +g. +g.Y.v.9...y. .Y L M P d.].M V M J v G -...",
"w.|.8.7.Y 8.u.(._.x.z.u.3.q.7.b.'...<.q.g.> f 4. +g. +,.,.8.b.-.-.A.M w Q &.&.-...M Z 8...n v.t.",
"v.y.[.'.Y 8.8...U U.y.7.3.2.t.8.'.&. .q.g.> f O  + + +,.,...w -.Z A.Z v Q !.G b.P Q <.|.d.-.A...",
"&+v.|.P &.t.2.Y V q.z.d.&.t.7.|.b.Y _.u.g.3 f j g.j+g.,.}.<.-.&...t.Q A.y.'.-.9.-. ...d.d.-.K.-+",
"4+~.b.d.d.|.M M <.u.2.n.Z 8.7.|.&.Y q.f.g.3 f N  +j+ +5.,.(.u.7. .y.!.d.W.&+~.-.-.Y ..2.[.Q L w.",
"Y.}.w w.A.y.&.&.|.M  ...M &.o w Q 8.x._.g.> 1 O ++j+j+5.O T X  . .,+8.Q 8.u.p.P P +.'.3.2.Q -.'.",
"w.A.k ;.u.u._. .z.8.b.-.8.u L n -.u.'.2.,.& 3 ,.c+#+j+#+}.M H Q '.t.^.Y M |.q.<.b.7.u.h.q.M P -.",
"6+].p.M 2.q.X W 7.W 7.8.7.Y 8.-.F Q d.b.,.> 3 O c+#+y+ +O Q E &.v.[.(.U &.&.7. .Q u.u.k.W <.P Q ",
",+b.<.2.t.z.;._.7.M ..|.u.&.b.d.&.b.b.y.,.j j j  +g.j+#+O Q !.[.b.-.Y <.Z Q ..t.[.s.(.2.t.t.|.=+",
">+y.w.7.w.,+X ;.7.3.2.;.k.M b.b.[.b.t.>+}.O f j g.#+y+#+}.E y.d.[.8.&.v.%+z...p.3.l.p.2. .7.|.-+",
"z.>+|.n.z.s...2.8.8.u.3._.m.u.p.2.o.u.8.~.j 1 f g. +#+5.}.d.A.A.[.b.'.d.$+,+w.|. .8.W.2.2.'.....",
"8.,+z.7.;.2.7.[...2.3.j.^.p.y.8.u.,+,+8.~.N f f N O 5.#+}.A.v.F.Z |.s.A.u.y.b.t.v.w.y.W ..G &.t.",
"8.w.7.2.2.p.d.2.<.j.3.p.l.z.t.t.t.u.t.t.~.O j f j O ,.#+Y.=+A.b.|.<.y.y.t.n.t.%+v.K.y.|.b.[.w.v.",
"w.w.t.7.E.[.8.(.2.(.l.<.z.z.z.z.2.p.2.l.y.O 1 j f 1 l #+4+,+,+A.d.8.w.u.b.t.U.[+u.w.8.v.s.t.,+y.",
"7...v.b.z.w.G Y 7.P.p.q.w.*+t.|.W u.t.(.].O j j j 1 j #+K.$+8.u.8.y.s.U.x.n.[.$+z.y.8.y.s.y.%+u.",
"2.w.w.-+v.=+d.u.z...[.2...P.u.7.p.t.u.|.8.,.j j 1 l R #+d.y.|.2.2.y.v.z.M.l.t.,+,+,+>+y.,+z.t.@+",
"(.w.v.v.|.E.=+%+p.u.u.z.w.*+q.7.x.7.u.|.|.Y.1 ; j j G. +d.d.9.(.Y t.,+y.u.W.y.y.-+[+-+|+w.>+&+$+",
"[.v.%+.. .z.y.2.&+y.2.t.)+y.3.z./+u.[.|.u.}.O 1 O ,.5.#+d.-.B.Q 7.d.3+&+u.:+$+A.-+,+(+(+,+[+U.p.",
"[.o.s.w w ..|.v.b.y.u.z.s.u.*+>+:+>+v.t.n.~.g.; 1 j 5.}.%.[.o.b.n.b.y.=+u.W.b.F.9.w.$+`.*+U.l.%+",
"&+d.@+b.[.].u.v.z.,+8.u. .p.U.*+!+u.y.t.u.'.,.1 1 j 5.G L M b...b.y.y.J.z.u.s.v.b.d.s.`.(.q.u.U.",
"y.&.Y |.|.'.2.A.d.u.|. .x.u._.U.*+u.[.M U 2.h  +1 O ,.P Y Q &.'.=+w.t.x.8.w.>+b.v.y.y.v.Y (.q.2.",
"..[.&.M b...W t.t.w.y.w.y.%+u.q.>+E.p.W  .3.7.O #+g.K ..Z -.e Q ,+8.|.W t.7.P.2.2.v.b.b...2.(.^.",
"Z Z t.-.d.-.b.y.y.!.y.>+y.%+%+u.*+L.7.|.Y W q./.l t ..-.-.E *.|.$+8.|.|.7.y.U.t.'.y.y.v.[.Q '.M ",
"b.b.[.v.b.d.7+v.u.'.y.u.u.u.*+u.W.u.u.u. .|.|.|.2.W 8.!.I -.|.b.w.d.[.(...y.(.n.y.7.J.w.-.&.&.-.",
"w.!.|.A.K.d.,+,+z.'.z.u.u.%+u.u.z.u.*+u.u.2.|.2.Z [.8.Q E -.b.b.d.b.8.W b.Q 2.u.>+w.y.u.].!.+.K.",
"x.E.w.=+|+L.y.t.z.=+>+v.7.2.|.y.,+&+u.q.u.7.2.L &.-.[.C.~.~.].d.9.A.!.2.|.w w.t.%+|+v.b.v.d.3.=+",
"u.z.J.L.|+].u.7.,+L.K.A.8.t.A.w.y.z.8.7.>+8.2.b.b.b.E -.L.~.G $+9.'.'.A.&+u.7.w.,+u.W.t.!.K.(.=+"};
