/* XPM */
static char * item_rot_2b_48_xpm[] = {
"48 48 255 2",
"  	c #000000",
". 	c #060D20",
"+ 	c #3D0001",
"@ 	c #2E0500",
"# 	c #210B06",
"$ 	c #2D0B1A",
"% 	c #18132F",
"& 	c #4A1A13",
"* 	c #44252D",
"= 	c #422A0C",
"- 	c #2C2E3D",
"; 	c #462A21",
"> 	c #3B302E",
", 	c #3F3024",
"' 	c #513608",
") 	c #5B392C",
"! 	c #573C3B",
"~ 	c #534030",
"{ 	c #444349",
"] 	c #4E423C",
"^ 	c #654B48",
"/ 	c #624F40",
"( 	c #5C514E",
"_ 	c #5F5148",
": 	c #545359",
"< 	c #3B612D",
"[ 	c #3F6B25",
"} 	c #4F6729",
"| 	c #6A5C51",
"1 	c #665D59",
"2 	c #755A53",
"3 	c #705C5B",
"4 	c #626268",
"5 	c #716358",
"6 	c #6D6460",
"7 	c #41791F",
"8 	c #596F47",
"9 	c #487B31",
"0 	c #537834",
"a 	c #4B7A41",
"b 	c #557741",
"c 	c #50784D",
"d 	c #796A63",
"e 	c #7E6E5D",
"f 	c #7A6E6F",
"g 	c #777068",
"h 	c #737171",
"i 	c #856C73",
"j 	c #617E2B",
"k 	c #57832B",
"l 	c #80716A",
"m 	c #50872C",
"n 	c #51891F",
"o 	c #5F8437",
"p 	c #538740",
"q 	c #548837",
"r 	c #5E8541",
"s 	c #837A77",
"t 	c #877A6E",
"u 	c #5C8D50",
"v 	c #678A52",
"w 	c #5C8D58",
"x 	c #668B60",
"y 	c #848085",
"z 	c #5A9529",
"A 	c #7D8387",
"B 	c #AF7481",
"C 	c #81837F",
"D 	c #589638",
"E 	c #5A944B",
"F 	c #5F9439",
"G 	c #639242",
"H 	c #6A9042",
"I 	c #5B9542",
"J 	c #69904C",
"K 	c #61934C",
"L 	c #908276",
"M 	c #8C8380",
"N 	c #6B952F",
"O 	c #7F8C66",
"P 	c #6B973E",
"Q 	c #5E9F24",
"R 	c #5FA21C",
"S 	c #62A034",
"T 	c #6B9E35",
"U 	c #948C89",
"V 	c #6A9F44",
"W 	c #63A240",
"X 	c #6A9F4D",
"Y 	c #65A056",
"Z 	c #6F9C61",
"` 	c #63A247",
" .	c #6C9E56",
"..	c #699D6D",
"+.	c #62A24D",
"@.	c #679F61",
"#.	c #BF808F",
"$.	c #759C56",
"%.	c #789B63",
"&.	c #759B70",
"*.	c #9C8E81",
"=.	c #AD888E",
"-.	c #919287",
";.	c #949095",
">.	c #8F9394",
",.	c #66AE1D",
"'.	c #68AC31",
").	c #9C9491",
"!.	c #70A93E",
"~.	c #68AC3D",
"{.	c #69AE4D",
"].	c #71AC4A",
"^.	c #71AC51",
"/.	c #71AB60",
"(.	c #70AC58",
"_.	c #6BAD60",
":.	c #67AF58",
"<.	c #7CA958",
"[.	c #7CAA51",
"}.	c #83A851",
"|.	c #79AA61",
"1.	c #84A763",
"2.	c #7DAD36",
"3.	c #6CB32E",
"4.	c #8BA763",
"5.	c #A49C99",
"6.	c #75AF71",
"7.	c #C8929F",
"8.	c #78B528",
"9.	c #70B63B",
"0.	c #70B643",
"a.	c #7AB348",
"b.	c #70B64A",
"c.	c #83AD72",
"d.	c #82AD7E",
"e.	c #BA999D",
"f.	c #9FA29F",
"g.	c #A4A0A5",
"h.	c #70BB29",
"i.	c #9DA3A7",
"j.	c #ADA091",
"k.	c #9AAA68",
"l.	c #A3A499",
"m.	c #70BF17",
"n.	c #73B954",
"o.	c #70B962",
"p.	c #72B95B",
"q.	c #7BB75B",
"r.	c #74B86A",
"s.	c #7DB755",
"t.	c #7AB762",
"u.	c #71C204",
"v.	c #7CB66B",
"w.	c #87B55A",
"x.	c #87B562",
"y.	c #85B56C",
"z.	c #ACA5A1",
"A.	c #8FB45B",
"B.	c #95B16D",
"C.	c #7BBE50",
"D.	c #77C24D",
"E.	c #76C255",
"F.	c #78C346",
"G.	c #85BE52",
"H.	c #7AC43F",
"I.	c #B0AC97",
"J.	c #9FB47D",
"K.	c #9BB48D",
"L.	c #82C248",
"M.	c #78C733",
"N.	c #86C165",
"O.	c #7EC45F",
"P.	c #88C06B",
"Q.	c #7EC926",
"R.	c #7DC466",
"S.	c #80C36B",
"T.	c #87C25F",
"U.	c #85C081",
"V.	c #7FC374",
"W.	c #D4A4B0",
"X.	c #81CB1C",
"Y.	c #83C656",
"Z.	c #85C839",
"`.	c #87C744",
" +	c #94BE82",
".+	c #B4B0B5",
"++	c #88C376",
"@+	c #8DC54C",
"#+	c #B8B0AC",
"$+	c #91C174",
"%+	c #93C16E",
"&+	c #ACB3B8",
"*+	c #90C17A",
"=+	c #94BE8F",
"-+	c #BCB0A2",
";+	c #B1B3AC",
">+	c #95C266",
",+	c #9BBF79",
"'+	c #C0B199",
")+	c #8FC85B",
"!+	c #88CB5B",
"~+	c #89CC51",
"{+	c #C4B496",
"]+	c #8FC96D",
"^+	c #89CB73",
"/+	c #90CA66",
"(+	c #95CB4A",
"_+	c #90D213",
":+	c #92CA74",
"<+	c #99CD40",
"[+	c #91CD7E",
"}+	c #A2CB61",
"|+	c #98CF62",
"1+	c #99D057",
"2+	c #A0CC70",
"3+	c #9ECC78",
"4+	c #9DCC7E",
"5+	c #ADC77F",
"6+	c #9CCC85",
"7+	c #99D070",
"8+	c #A7CB84",
"9+	c #C3BEB9",
"0+	c #9CCE8F",
"a+	c #9FCE9D",
"b+	c #D9BABE",
"c+	c #A9CE93",
"d+	c #CBC1B4",
"e+	c #CEC1AC",
"f+	c #DEBAC7",
"g+	c #C1C3C8",
"h+	c #B7CC95",
"i+	c #AECF9E",
"j+	c #ACCFA7",
"k+	c #AAD578",
"l+	c #ACD682",
"m+	c #CCC7C3",
"n+	c #ABD68C",
"o+	c #BAD0BF",
"p+	c #BDD1AE",
"q+	c #C0CFD6",
"r+	c #B6DCA0",
"s+	c #E9CCD0",
"t+	c #DDD2BC",
"u+	c #BADEB3",
"v+	c #D9D3CF",
"w+	c #DCD3C6",
"x+	c #D3D5DA",
"y+	c #ECE5D3",
"z+	c #E3E6EA",
"A+	c #EAE5E1",
"B+	c #DCECF4",
"C+	c #F1F3F7",
"D+	c #F6F3EE",
"E+	c #FBF6E5",
"F+	c #FFFFFF",
"s.G.>+P.*+:+t.|.P.$+%+ +x.:+%+t.t.:+*+T.]+$+ .t. .y.t.6.|.P.6. +|.t.v.Z *+4+3+B.T.C.Y.C.|.v.t.C.",
"L.~+N.y.x.y.c.y.)+>+|.,+x.>+x.c.P.4+*+x.y.c./.X y.++6+P.t.++y.*+6.n.t.y.y.G.y.v.y.^.D.Y.q.c.r.n.",
"H.!+O.].$+ +U.x.T.G.|.,+w.G.y. .a.t._.` x.q.(.^.c.t.d.|.t.R.6+y./.].t.y.w.].t.y.*+|.a.G.9.1.y.P.",
"s.L.H.<.%+ +d.t.N.%+,+,+a.<.y.|.X /.Y @.[.].].+.%.|./.t.t.N.[+t.6./.P.B.[.].].s.%+++$.[.s.w.|.P.",
"s.C.F.|.++ +d.P.x.T.,+w.x.1.*+y.|.P.|.c.J.I.9+9+d+9+;+K.y.T.O.|.t.c.y.6.X ].w.<.{.t.%+B.q.(.(.|.",
"O.a.F.{.++y.|.^.y.q.1.%+P.y.y.P.P. +K.-+j.).5.;+#+z.#+9+9+J.,+|./.y.v._.v.|.|.w.].^.].w.s.N.v.<.",
"C.E.a.|.y.P.y.1.y.y.y.6+v.P.P.$+K.j.).;.9+A+A+A+D+D+x+#+U #+I.B.(.S. .|.|./.x.P.T.n.a.C.a.a.b.a.",
"N.Y.^.<.Z ^.y.6+ +++ +$+v.^.$.K.5.).;+9+m+e+#+e+t+A+A+v+v+z.I.;+J.y.y.(.|./.9.C.]+q.(.$.$.C.^.s.",
"y.q.].(.%.^.R.*+<.O.:+|.N.q.d.5.;+9+j.-+L m+9+9+v+x+A+A+m+9+9+z.I.4.b.|.t.^.S.t.|.P.<.%.1.<.s.*+",
"6+q.^.c.x b.*+t.s.b.v.V.^.c.)..+9+*.*.5.5.z.m+y+A+C+A+y+w+m+m+9+I.I.B.q.(.X y.v.|.p.v.|.y.x.X y.",
"[+t.v.p.F.O.X ^.|.q.|._.|.l.;+#+z.*.).#+-+z.#+w+D+F+D+y+w+9+#+z.9+I.I.|.|.c.*+ +*+R./.y.c.|.y.|.",
"[+|.t.{.C.^.q.q.S.N.(.(.K.z.#+M z.s #+I.e+-+#+m+D+F+D+y+w+d+z.z..+#+z.B.v. +++ .y.++++y. +X |.|.",
":+y.|.v.q.P.s.O.C.G.V  +;.9+*.d M ).z.I.e+t+#+I.A+F+A+m+.+g+9+#+9+5.z.j.y.|.|. .|.c.c.].$+v.|.y.",
"P.y.$+y.n.x.a.w.G.C.|.L 9+z.).s t U *.I.t+t+m+m+9+C+A+m+m+m+g+#+#+5.z.l.I.(.J  .|. .*+|.c.t.y.c.",
"q.X $+P.^.q.N.w.s.a.1.-.m+l d U M s *.*.e+w+v+y+z.v+A+m+v+w+9+m+#+5.f.).l.%.|. .Z Z t./.%.x.*+++",
"R. .1.$+q.T.N.N.(.0.1.9+#+5 d l L L j.-+w+E+w+w+m+9+v+U U *..+m+z.z.).).U d./.Z c.&.v.K |.c.*+++",
"/.y. +x.O.<.P.~+q.|.O x+L g d ).l L ).e+y+y+w+m+x+#+9+m+-+I.j.m+#+z.).l.).l.c.U.*+|.x.X |.++U.r.",
"Y P.*+|.G.s.w.Y.v.r.5.m+1 t s ).l L *.-+A+w+m+9+x+9+9+w+e+e+e+9+9+z.;+).z.l.y.$+P.|.|.X /.(.^.[.",
"` q.P.C.)+B.P.n./.c.#+#+| | U t t L *.).m+w+m+#+z+#+5.m+-+e+t+d+z.5.5.f.;.z.c.%+y.P.O.q.1.t.t.C.",
"S {.N.H.Y.$+y.].` O 9+U g d d l t L j.I.z.m+9+z.x+l.z.m+e+e+z.5.l.f.g.).z.).J.P.T.y.++/.(.t.^.a.",
"t.^.G./+O.(.(.0.b.-.9+M s ).U t t L *.j.j.#+9+5.m+l.U #+w+e+-+#+z.z.z.z.5.z.K.t.].].|.|.$.<.X [.",
"]+n.T.G.q.(.O.a.s.-..+).g 5.).t t L *.).I.#+9+j.#+9+).;+z.m+-+5.z.;+g.z.z.5.I.1.X ].^.W K Z |.^.",
"y.^.t.s.^.|.T.b.b.-.9+g 5 L L t t t L *.j.;+m+9+z.z.;.9+U j.9+z.z.5.;+U z.U z.|.<.X (.t.(.K y.O.",
"v.x.t.t.{.q.q.^.!.).9+l d 5 d l l s L t j.z.#+m+z.z.z.9+).z..+9+5.5.5.).g.5.z.6. . .n.t.c.6.c.(.",
"P.P.p. ./.N.n.^.V -.9+t 5 t g 5 g s t t U ).z.).#+5.9+m+#+5.5.g+5.5.;.U f.5.;+r./.[.(.v.c.&. +*+",
"0+6.6.y.y.n.X X n.-.9+g _ M M 5 l l s t U ).z.*.m+9+z.9+.+;+z.x+z.5.5.U z.5.l.|./.^.<.s.t.(.V y.",
" + +w y.$+y./.(.[.-.9+s 5 l d 5 d s M s ).5.#+M 5.m+z.m+m+m+#+g+.+).f.;.U ;.l. . .<.|.a.n. .Z |.",
"y.*+I a.w.w.0.].T.c..+s _ _ | 5 d l t s z.5.m+m+z..+;+9+9+v+g+g+v+).).z.g.f.J.^.t.q.s.M.F.X  .|.",
"0+x.n.V s.C.].].s.c..+M _ | 5 5 d d l s #+z.#+m+9+9+;+9+9+z+x+9+x+;+).).z.g.d.^.Z q.G.9.].b.Z (.",
"P.v.a.n.q.T.[.9.s.%.;+g.d 5.d l 5 U ).s f s z.m+m+z.g..+z.g+9+m+x+g+f.>.U 5.c.R.|.t.a.C.t.q.s.*+",
"]+x.P.q.P.$+0.a.s.[.-.9+M 6 d 5.3 U 6 l ).5.).U 5.9+#+z.#+x+g+9+m+&+g.f.f.5.|.s.a.C.C.n.[.s.q.*+",
"N.]+q.q.T.R.^.s.q.y.O v+s 1 1 d l M s d l U 5.z.;+#+9+#+9+g+g+;+&+&+.+;+z.l.P.s.a.x.T.n.[.|.(.(.",
"t.]+T.w.[.[.q.t.(.<.1.#+;+/ | g ).g f l d t j.j.*.U ).).).f.g.&+&+&+&+i.5.K.t.t.P.y.N.].(.%./.N.",
"t.P.q.[.a.C.t.n.n.H.y.M v+l | ).U s f l L d d L ).).).5.f.>.>.i.>.&+x+g+5.c.O.N.S.6+N.q.v./.y.P.",
"x.y.t.q.P.t.|.n.s.D.C.-.#+#+M f 1 U l l *.L M g 6 g 6 h y M -.U ;+&+z+&+;+t.Y.:+q.P.q.S.R.O.:+N.",
"q.<.v.|.x.P.Z ].s.D.C.P.-.9+f ] ( l z.f L U M M M M h h h h s y y 9+x+&+*+n.q.P.T.N.t.P.t.N.N.T.",
"<.y.y. +y.$+v.O.T.(.|.s.d.z.z./ | 5 5.U l f 6 6 d h C U ;.U y ;.&+q+&+;+D.n.w.$+]+$+N.P.$+T.N.P.",
"b.P.V.P.<.%+$+T.C.q.w.w.B.O m+;._ 1 s g g h g s s C y M U ).9+&+q+g+;+ +O.T.P.y.*+:+*+4+$+>+P.++",
"o.v.N.(.[.w.y.s.N.x.[.x.%+*+s v+-.5.1 1 C 6 U U s f.M z.).U i.z+q+z.a+P.G./+++++*+:+[+[+]+:+Y.q.",
"|.q.t. .X (.q.y.v.N.q.N.v.q.B.s 9+).( 1 U 6 6 6 f ).s y U ;+>.x+z.K.y.$+O.!+t.U.6.y.^+N.T.Y.D./+",
"P.v.++v./.t.O.P.N.%+q.s.^.C.G.c.s 9+.+g 1 6 g g M g 6 f.s >..+g.K.P.y.T.T.O.R.P.v.v.S.N.b.C.O.Y.",
"P.(.X (.p.|.n.*+y.T.(.^.s.Y.b.G.B.g z.m+5.f 6 6 s d f s ;+;+>.d.*+$+t.G.t.P.%+v.P.P.P.P.^.b.C.n.",
"(./.(.X t.<.].x.q.y.y.y.N.T.q.L.>+$+O s ;+.+#+#+#+;+#+z.).C &.Z $+q.q.].t.q.L.^.^.y.t.q.^.s.a.0.",
"^.(.O.|.y.|.1.N.N.%.P./+N.)+T.q.)+,+q.1.&.M s s s s M -.&...Z q.$+t.(.(.q.v.C.t.1.y.t.y./.$.<.X ",
"r.v.q.P.|.c. +P.q.|.N.w.s.G.T.O.Y.T.G.G.^.^.q.q.b.{.q.v.%./.(.t.y.y.p.b.(.N.0.p.y.s.T.y.|./.|.6.",
"++y.t.P. +y.:+]+x.|.x.q.T.N.s.N.N.s.T.Y.s.s.q.n.^.p.t.(.@.|.t.v.y.v.q.].v. .s.q.N.P.N.T.1.c.<. +",
"G.P.P.*+4+*+v.O.N.B.P.y.q.s.s.N.%+P.T.L.T.q.n.X /.t.p.V.d.c.x.y.v.*+y.n.(. .y.T.T.[+v.v.v.c.a.$+",
"T.w.N. +6+t.q.q.P.*+[+y.|.x.*+P.x.T.t.w./+q.q.v.v.v.@.6.U.c.%.++v.t.|.*+S.q.<.y.]+w.T.x.y. +b.$+"};
