/* XPM */
static char * item_rot_3b_64_xpm[] = {
"64 64 255 2",
"  	c #000000",
". 	c #1A0B13",
"+ 	c #251109",
"@ 	c #3D0C08",
"# 	c #422A0B",
"$ 	c #382E33",
"% 	c #2E3234",
"& 	c #412E27",
"* 	c #55402F",
"= 	c #4E413F",
"- 	c #5C4919",
"; 	c #494F4E",
"> 	c #624E3F",
", 	c #664D4A",
"' 	c #5D514C",
") 	c #565359",
"! 	c #3C602D",
"~ 	c #3F6B25",
"{ 	c #4F6729",
"] 	c #6D5F58",
"^ 	c #417039",
"/ 	c #686162",
"( 	c #5C6A42",
"_ 	c #41791F",
": 	c #786756",
"< 	c #487A34",
"[ 	c #487B2B",
"} 	c #537834",
"| 	c #686D70",
"1 	c #567741",
"2 	c #686F61",
"3 	c #54774D",
"4 	c #846867",
"5 	c #4E7E46",
"6 	c #7B6F67",
"7 	c #767070",
"8 	c #617E2B",
"9 	c #57832B",
"0 	c #50872C",
"a 	c #51891F",
"b 	c #5F8437",
"c 	c #538740",
"d 	c #548837",
"e 	c #5E8541",
"f 	c #827B78",
"g 	c #5C8D50",
"h 	c #668A55",
"i 	c #5C8D58",
"j 	c #8A7D71",
"k 	c #927A7B",
"l 	c #648B64",
"m 	c #5A9529",
"n 	c #818286",
"o 	c #589638",
"p 	c #5A944B",
"q 	c #5F9439",
"r 	c #639242",
"s 	c #6A9042",
"t 	c #66923A",
"u 	c #5B9542",
"v 	c #69904C",
"w 	c #61934C",
"x 	c #8A8481",
"y 	c #6B952F",
"z 	c #778E62",
"A 	c #5E9F24",
"B 	c #5FA21C",
"C 	c #62A034",
"D 	c #6B9E35",
"E 	c #809187",
"F 	c #6A9F44",
"G 	c #669E60",
"H 	c #928D89",
"I 	c #A08892",
"J 	c #63A240",
"K 	c #6E9C61",
"L 	c #6A9F4D",
"M 	c #689D6C",
"N 	c #64A05A",
"O 	c #63A247",
"P 	c #6C9E56",
"Q 	c #62A24D",
"R 	c #769A64",
"S 	c #B5838D",
"T 	c #729E45",
"U 	c #759C56",
"V 	c #66A154",
"W 	c #729B73",
"X 	c #A18B8C",
"Y 	c #9C8F81",
"Z 	c #919297",
"` 	c #66AE1D",
" .	c #67AD28",
"..	c #68AC31",
"+.	c #67AB41",
"@.	c #70A93E",
"#.	c #68AC39",
"$.	c #9A9592",
"%.	c #69AE4D",
"&.	c #71AC4A",
"*.	c #71AC51",
"=.	c #73AB57",
"-.	c #70AB64",
";.	c #6DAD58",
">.	c #6BAD60",
",.	c #72AB5E",
"'.	c #67AF58",
").	c #7CA958",
"!.	c #78AE2D",
"~.	c #7CAA51",
"{.	c #83A851",
"].	c #79AA61",
"^.	c #84A763",
"/.	c #7DAD36",
"(.	c #8BA763",
"_.	c #74AE75",
":.	c #A29D9A",
"<.	c #75AF6E",
"[.	c #78B528",
"}.	c #6FB732",
"|.	c #6DB73B",
"1.	c #82AC71",
"2.	c #75B53B",
"3.	c #70B643",
"4.	c #81AC7D",
"5.	c #7AB348",
"6.	c #70B64A",
"7.	c #C795A1",
"8.	c #9FA1A6",
"9.	c #B59B9E",
"0.	c #B59BA6",
"a.	c #70BB29",
"b.	c #ACA092",
"c.	c #9AAA68",
"d.	c #70BF17",
"e.	c #73B954",
"f.	c #70B962",
"g.	c #72B95B",
"h.	c #7BB75B",
"i.	c #74B86A",
"j.	c #7DB755",
"k.	c #7EB662",
"l.	c #71C204",
"m.	c #78B862",
"n.	c #7CB66B",
"o.	c #87B55A",
"p.	c #87B562",
"q.	c #85B56C",
"r.	c #AAA5A2",
"s.	c #8FB26D",
"t.	c #8FB45B",
"u.	c #95B16D",
"v.	c #7CBE4B",
"w.	c #7BBE53",
"x.	c #77C23D",
"y.	c #77C24D",
"z.	c #76C255",
"A.	c #78C346",
"B.	c #85BE52",
"C.	c #9EB37C",
"D.	c #9AB38D",
"E.	c #79C724",
"F.	c #A2AFB1",
"G.	c #82C248",
"H.	c #78C733",
"I.	c #7FC07F",
"J.	c #86C165",
"K.	c #7EC45F",
"L.	c #88C06B",
"M.	c #7DC466",
"N.	c #80C36B",
"O.	c #87C25F",
"P.	c #88BF80",
"Q.	c #7FC374",
"R.	c #9ABA81",
"S.	c #CFA6B1",
"T.	c #92BD81",
"U.	c #81CB1C",
"V.	c #83C656",
"W.	c #85C839",
"X.	c #93BD8E",
"Y.	c #87C744",
"Z.	c #88C376",
"`.	c #8DC54C",
" +	c #AFB2B6",
".+	c #91C174",
"++	c #93C16E",
"@+	c #81CA46",
"#+	c #90C17A",
"$+	c #B6B1AD",
"%+	c #C4ADAF",
"&+	c #95C266",
"*+	c #BCB1A1",
"=+	c #9BBF79",
"-+	c #8BCC2D",
";+	c #8FC85B",
">+	c #88CB5B",
",+	c #89CC51",
"'+	c #8FC96D",
")+	c #89CB73",
"!+	c #90CA66",
"~+	c #95CB4A",
"{+	c #90D213",
"]+	c #92CA74",
"^+	c #99CD40",
"/+	c #91CD7E",
"(+	c #93CC8B",
"_+	c #A2CB61",
":+	c #98CF62",
"<+	c #99D057",
"[+	c #B0C770",
"}+	c #A0CC70",
"|+	c #9ECC78",
"1+	c #9DCC7E",
"2+	c #96CC99",
"3+	c #ADC781",
"4+	c #9CCC85",
"5+	c #9DCC8E",
"6+	c #99D070",
"7+	c #A4CA8F",
"8+	c #A7CB84",
"9+	c #C3BEBA",
"0+	c #E0B7BF",
"a+	c #CBC1B4",
"b+	c #A8CE9C",
"c+	c #A6CEA4",
"d+	c #CEC1AC",
"e+	c #C0C3C8",
"f+	c #DCBBC8",
"g+	c #D5BEBF",
"h+	c #B6CC95",
"i+	c #AAD578",
"j+	c #B3CEAA",
"k+	c #ADD297",
"l+	c #B7CFA0",
"m+	c #ACD682",
"n+	c #CCC7C3",
"o+	c #ABD68C",
"p+	c #B8D0BD",
"q+	c #BFCED5",
"r+	c #ACDC9C",
"s+	c #B6DCA0",
"t+	c #DDD1BB",
"u+	c #B7DEAF",
"v+	c #DBD3C6",
"w+	c #C1DDB9",
"x+	c #D8D4D0",
"y+	c #D3D5DB",
"z+	c #E2E5EA",
"A+	c #E8E5E1",
"B+	c #ECE5D3",
"C+	c #DDEDF6",
"D+	c #FBF5E4",
"E+	c #F4F7FA",
"F+	c #FFFFFF",
"K.h.~+.+L.#+4+]+k.).]..+#+p.=+R.p.#+|+.+m.h.h.#+1.s.B.6+/+V P L.w p.L.-.<.K n.N.-.T.R.;.k.q.].K P.4+1+1+C.o.K.w.O.A.K.].q.k.m.v.",
"x.>+Y.k.#+q..+q.q.q.k.J.}+p.p.8+++O.O.).1.n.Z.k+7+1+p.q.T.K K *.n.q.n.Z.]+k.#+T.n.q.X.w k.k.L.].#+B.&+s.q.L.h.3.>+w.h.k.R P g.e.",
"@+,+,+L.e.B.q.q.1.q..+~+O.n.L =+).&+p.q.].p.;+!+h.=.e.L.;.q.L r p.#+5+7+L.6.-.L.#+k.P.<.+.g.;.++1.B.h.P.].1.1.*.2.@+'+B.T.P.n.j.",
"H.'+W.K.@.L.R.T.X.].;+J.v.J.U 7+o.5.O.n.P &.6.m.-.p +.q.e.].L h.1.=.P -.K ].L.h.5+k.n.,.*.F #+k.t.@.&.h.q.5+=.k.*.`.v.!.).1.Z.]+",
"j.J.-+x.~.p.=+T.4.].=.J.++p.h+=+j.b k.q.].w &.P V G -.6.&.@.&.u K ].K -.m.m.,.J.5+s.m.<.-.*.4+s.o.J =.+.v.L.1+P.v o.@.k.O.^.,.]+",
"w.p.E.5.].h.T.X.D.Z.L.].O.&+7+~.;+^..+].].P q..+,.h K ~.v.q.j+9+*+b.1.h.J.n.m.'+J.^.].n.4.p.T.R *.+.=.p.*.%.*.J.=+s.(.&.=.h.K k.",
"v.V.&.x.;.N.#+s.].L.1.p.w.p.R.B.++U s.5+#+n.o.p.i.<.P &.R.x+v+*+%+9+9.1.o.].n.A.K.,.].h.#+,.Z.<.V w 6.o.p.2.%.,.j.++^.s.k.*.P ].",
"N.&.j.A.O k.(+1.].w.L .+k.).^.++'+).4+].J..+q.Z.k.<.i.=+a+f 8.r.H Y 9+b.P q.q.B.1+k.-.-.L.P.k.;.k.n.,.].;+L &.*.J 5.O.~.J.Z.m.).",
"v.w.K.2.U L.Z.L.n.t.U q.q.q.).o+k..+J.++.+7+.+m.h.].T.*+:.E+x+A+n+a+Y $+b.].O.J.=.=+].=.Q.;.u n.-.P ,.&+]+q.G.e.5.3.;+v.5.@.A.5.",
"k.A.w.,.s.<.,.j.s.++1+7+4+X.5+1+k.*.*.R u.s.j+.+e.n.b.$.D+E+y+a+a+n+9+b.$+C.v.y.*.=+v.P ^.T.L *.n.n.L 3.&.6+w.h.h.).T T ;+m.F `.",
"k.]+v.J @.^.h *.h.7+T.q.w.L..+K.q.h.Q b L h.]+J.e.P.$.A+a+n+A+v+9+r.$+*+*+b.J.*.|.]+'+].q.O.N.,.w <.e.H.w.J.|+h.T ^.v z @.y.%.k.",
"q.L.r @.=.R ].%.w.5+P =.w.'+q.U L.V.m.,.%.J.k.h.O.C.$+*+9+D+x+v+r.r.9+$+$.r.s.=..+=.O.w.5.&.3.].n.6.&.Z.N.P q.Z.).R ^.^.U w.k.4+",
"7+L.=.L 1.h K 3.(+L.].e.3.q.q.Z.*.V.=.<.m.n.m.Z.j.:.*+a+x+E+A+v+a+r.9+:.9+:.D.K.m.@.*.h.h.o.L.h.;.r P q.m.].=.e.Q.v 1.p.p.*.v .+",
"4+e.L.<.Q.%.A.L.L &.L ).6.h.=.m.O h.V <.>.M.=.L.q.r.b.a+B+F+A+v+9+$+n+$.9+X $+e.3.%.q.5+#+P.1.,.R G <.5+(+(+L.N.i.m.#+<.p.].n.=.",
"5+].q.k.%.|.V.h.L &.e.n.h.n.n.V w e.N.q.m.h.z.w.D.r.b.r.x+F+A+9+n+9+$+$.:.b.$+u...=.L.q.3.,._.P k.P.2+n.L.X.h.k.-.n.q.1.,.q.q.{.",
"5+].h.m.%.v.k.&.k.*.J.N.J.*.O ,.k.m.L O 6.;.M.h.$+Y $+r.x+F+x+n+9+n+$+r.H $.H D.*.L L.].=.w G *.].T.4.Z.r ].#+#+#+.+,.X.q P n.].",
"|+O.1.;.n.h.h.#+j.w.J.w.O.+.r J.;.L.h.e.M.,.g.].$+Y *+d+b.E+x+x+n+x+$+:.$.:.H *+V.M.6.F =.;.>.].,.].].k.w q.h T.P.2.&.#+1.P q.q.",
"++Z.T.P.Z.m.e.p.&.5.h.2.v.&.L 3.w.J.,.x.e.J.Z.T.$+X *+a+$+z+x+B+n+x+*+r.:.:.$.$+o.y.&.).1.1.K q.2+-.;.e P k.1.h T.k.v T.].1.].4.",
"o.k.*.++q.5.h.p.5.s.h.;+G.&.=.5.j.k.O.v.j.M.N.R.Y X *+v+v+n+n+$.f x+$+r.:.Z $.:.s.J.).v.T C.=+L.K *.P R v ,.].P q.Z.K ].M.U ]+n.",
"k.F L T.#+&.h.j.L.k.~.j.5.3.B.5.L j.@.j.w.k.N.$+j Y *+v+x+$+9+Y *+$+x+r.r.:.9+H b.^.4.u.B.o..+K K w r 1.P K z R k.].G R p.=.7+N.",
"Q.,.w 1.#+m.*.O.J.O.L.*.2.x.x.h.&.h.].,.h.).w.r.k j *+v+A+:.n+d+d+*+n+:.:. +H x *+m.).t.p.].q.K M K N -.K 1.1.W n.P e n.K L.T.Z.",
"m.Z.n.T.p.K.w.o..+:+O.h.+.6.w.n.V.=.T ^.h.*.&.r.j k a+B+x+$+x+d+d+*+9+:.r.x :.j 9+L.K.].T.X.T.,.4.-.R 1.R 4.(+]..+*.+.=.T.X.P.Q.",
"p P.].(+].J.w.P J.W.B.J.m.6.5.v.w.&.U =.*.&.,.r.6 6 t+B+n+9+9+d+t+n+$+:.r.:.8.f $+k.=.].P =.=+h P._.z 1.7+=+p.=.h.L L 1.k.n.k.P ",
"Q L.J.#+,.B.w.j.k.G.L.n.f.e.;.6.*.-.1.*.L ~.q.:.H j a+v+n+9+$+d+*+H $.:.8.:.9+$+r.k.F ^.w t ).n.(+4.k.j.p.Z.L.].,.L =.=.V ~.L ~.",
"u j.L.L.v.B.&+s.L.K.g.<.;.%.%.3.;.K -.V L r D.x x j 9.v+e+r.$+a+b.n+r.:.r.r.f r.:.7+J j.r ).k.(+e.*.1.*.++1.L.L.K.5.q.1.m.#+g.v.",
"#.=.w.L.x.W.'+=+.+*.|.u P #+h.;.k.q.m.n.N K D.6 j Y b.n+9+r.:.v+d+9+H  +$.r. +:.$.r.V U L k.T.Z.i.%.=.].L.#+5.q.Z.n.g.P m.w @.5.",
"C u 6.!+G.A.L.n.n.&.J L 1 ^.J.q.K.K.e.,.K P $+6 6 k b.%+r.$+:.r.v+:.$+r.$+$.n+$.H D.h.F L P.e.N.G i.#+].h.B.B.s.#+R V ,.q.].j.5.",
"Z.r J.B.'+p.e.=.=.&.2.e.N =.&.*.e.e.O.=.;.V D.k Y j b.9+r.$+$+$.r.$+$+H 9+$.n $.H D.K.L ~.u m.Q h.%.;.h.n.*.+.F ].].,.U ).L J &.",
"6+e.w.J.B.q.j.=.M.%.G.h.,.=.=.e.e.k.6.J =.n.r.j x j b.$+a+r.$+H $+9+H $.$+$.$.8.H 8.j.++5.q n.q &.;.L L.q.P J +.].u +.g K ].K L ",
"]+6.].h.5.,.r ].w.A.6.v.w.K.j.k.~.v.G.O.m.Q $+' j j X r.n+:.$+$.:.y+$.:.$.r.:.$+H 9+].1.P.L j.h P P ;.].U t.+.L O 6.L F g L.Z.V.",
"1.*.h.J.o.=.5.h.!+w.+.3.V.p.L.h.G.5.j.=.q.;.r., 6 f x $+r.$.9+$+H 9+:.:.$.H r.e+$.9+q.,.T.i e.P ,.n.P P <.,.K L >.q.#+,.c Z.=.k.",
"k.q.J.,.k.=.J k.k.].T @.B.L.L.*.5.j.h.J.p.^.r.: 6 f j :.b.*+n+9+:.$+9+:.$.H H 7 H F.V ;.Z.;.h.p v P.K K n.w *.P e.%.k.4.<.1.4.L ",
"O.++L.e.P ,.=.L.e.;.L +.v.G.=+q.P p.O.h.*.q.r., f 6 f :.x v+$+9+:. +x+:.:.x  +$.H F.V *.h.q.u #+q.].s.K i.<.P ~.*.n.q.q.K X.5+#+",
"(+P.G ;.,.].L.y.F n.J e.w.O.j.k.L h.j.o.w.].$+] ] j x $+Y n+r.n+9+r.y+$.:.Z x 9+:.:.&.=.h.n.-.T.O.*..+T.K n.m.&.*.O.=.k.<.F =.4+",
"j+X.P 4.T.T.).=.L L F h.O.T w.e.v #+=.~.=.P $+= ] 6 H 9+$+$+$+9+x+ +y+Z 8.:.Z n H F.&.&..+].^.,.h.O.'+h ^.P ;.L k.~.j.e.L o L ].",
"q.j+w g p.T.L.q.].V k.j.F =.F =.L ].L r v v $+] ] 6 f $+n+n+r.$+y+ +z+:.:.$.Z 8.H r.,.*.]+p.k.P ].h.B.v.V P P ).].~.2.j.K P 1.].",
"*.k+w c 5.k.w.p.3.+.j.O.h.n.-.].k.*.d V c e *+H ] x x *+n+9+:.n+A+ +A+8.8.$.n+:.H $.].].J.6.3.,.F h.6.y.%.-.L.j.h.H.2.v.L ,.w ^.",
"7+q.O.j.C v.5.v.|.r j.h.L @.J.n.k.h.q g.=.X.D.H x f x f x+$+$.n+z+y+e+9+8.H :.y+$.H k.N.m.h...C ].].%.6.*.P ].K.p.a.x.6.3.w G P ",
"7+1.5.6.P &.O.v.*.#.v.j.&.*.n.*.w.*.*.J.].h z H ' x 6 r.H  +$.:.9+x+e+y+8.Z H 8.:.E m.m.=.~.6.e.G K 1.L.6.=.R y.V.&.A.L w.,.<.).",
"O.q.].6.e.k.O.J.~.3.2.k.P L ,.g.!+=.m.m.L.].1.$.j 6 ] $.:.9+r.r.q+F.9+y+F.Z n r.$.D.g.q.<.,.+.K.%.=.=.~.N.m.=.N.+.j.w.L.k.w.j.4+",
"'+j.s.Z.e..+L.=+2.}.h.j.3.5.j.5.Y.&.P L.n.,.q.r.j x 6 x r.:.$+x+y+y+$+e+ +Z Z H :.1.n.g.h.v k.q.V.j.k.L w.v.v.A.w.K.@.*.B.+.k.4+",
"O.1+e.=.k.5.'+M.;.&.o.h.O.!+J.T H.%.3.*.k.&.w.$+j f j 6 b.:.$+$+9+y+9+e+ +9+Z $.8.7+,.g.q.1.P 1.#+7+&+++=.F G.p.5.w.=.p.n.,.h.].",
"k.'+J.h.h.w.L.h.=.O.&.k.N &.w.}.|.g.K.J.w.v.h.$+' f j 6 H $.H H 8.Z 8. +F.H F.H 8.5+P h.m.J.].#+k.;+p.^.K.;.h.k.]+w.J @.^.P e.*.",
"=.4+B.J.p.L 5.~.j.n.,.*.).5.V.A.6.A.w.L.k.w.J.*+] H f Y / $.r.r.F.F. +8. +e+e+H 8.#+n.*.*.f.J.q.o.O.q.k.k.J.#+q.L.F &.,.R ,.m.L.",
"h.L.p.h.~.L G.w.n.5.w.6.x.2.w.w.v.O.L.k.k.L.e.R.x f f $.6 / 7 f Z 8.F.Z q+n :.$.8.k.m.h.@.q.j.q.k.j.e.k.J.M.Z.7+L.=.*.q.,.].L.k.",
"s.R.p.h.&.O.h.,.q.&.v.h.6.j.j.e.j.O.J.K.J.J.&.^.:.f $.6 x H 7 f 7 f 8.n y+e+8.$.D.n.Q.-.;.#+p.J.q.'+w.V.6+w.n.Z.j.N.n.N.m..+|+k.",
"p.k.L.k.k.p.T.e.*.&.h.&.A.v.6.&.++L.L.J.J.5.6.B.$+6 / 6 / / / 7 x :.8.8.q+y+8.8.R.8+q.q.h..+n.v.*.m.m.V.4+G.J.L.].L.N.m.w.J.L.J.",
"h.P ).n.].h.O.Z.K V &.h.y.B.w.j.s.!+~+J.j.F 5.k.r.x / 7 f f x H f / | e+e+C+F.8.].5.B.k.L.k.O.V.,+w.e.h.L.'+V.++h.L.L.m.J.!+k.O.",
").~.R.].5+q.L..+q.e.O.O.*.,.=.j.=.O.W.O.j.j.o.h.1.:.7 f H f x H H H n 8.y+C+:.F.=.*.e.e.J.L.h.O.@+|.j.k..+]+J.++O.Z.K..+O.K.L.J.",
"6.o.#+q.Z.].~.++L.J.;+w.h.).++B.~.O.`.j.j.G.j.].q.r.' / x H f x Z n H Z q+y+r.D.h.*.v.J h.]+].J.V.w.v.L.]..+4+]+.+]+7+L.B.o.q.(+",
"%.k.Z.Q.L.h.j.++=+'+G.h.h.O.&.p.=+!+;+G.o.v.!+e.w.$.H ] / r.x $.r.8. +e+ +r. +T.P.L *.,.-.#+++J.K.'+'+Z.L.R.J.1+#+1+8+q.|+]+!+L.",
",.q.n.!+=.L B.o.q.*.j.'+L.o.L L.++.+j.5.w.!+,+K.h.R 9+' / $.f :.| q+Z y+y+8.F.,.P.w k.h.n.5+=+O.w.;+]+Z.Z.4+.+'+/+/+]+!+]+V.w.j.",
"].,.w.m.w v *.*.=.q.Z.].J.O.h.J.n.n.B.;+&+6+6+Z.L.L.:.x 6 7 f Z Z F.y+y+$+e+D.,.m.n.p.j.k.].'+#+h.;+V.k.P.P.P .+/+N.w.!+V.w.A.J.",
"N.Q.P.Z.P.P ,.L.O.=.L.J.]+O.j.h.=.v.3.`.J.`.G.h.m.m.z n+/ 6 f H r.Z C+q+:. +R *.n.%.h.h.k.1.L.L.O.O.h.g.n.n.i.n.M.)+o.w.@+g.K.!+",
"Z.>.=.Z.V m.k.).6.#+J.h.'+j.q.w.&.m.V.w.V.,+O.k.'+N.1.x n+/ 6 f f Z z+:. +4.,.P k.m.K q.J.<.p.B.h.J.k.Z.#+L.n.Q.n.O.e.#.3.O.w.A.",
"L.,.;.u h.+.k.].3.q.T.1.O.h.P L j.O.G.6.G.`.&+h.].P C R x x+$.f Z q+$+F.F.;.%.K P n.h.1+.+q.h.O.h..+L.++m.q.#+J.J.#+m.L &.x.v.e.",
"=.>.-.P J ,.<.=.@.5.L.w.q.s.].q.J.p.O.h.x.O.++L.K.&.F *.E f 9+x+e+$+8.Z q.O ;.n.i h ].#+h.J.6.@.k.k.O.V.&.e.*.L.m.h.-.*.5.O...6.",
";.V k.J.-.m.q.P ).O.L.K.^.k.=+!+k.;+J.V.5.,+++=+5.3.k.*.p.E / 7 f f Z ].P 1.<.P -.].e.#+J.;.h.*.J.=.h.@+n.*.^.].K.-.k.*.T q...&.",
"e.O -.w.].1.Z.n.1.q.J.L.R q.B.O.L.O.&+J.N.B.`.8+J.j.V.*.O 6..+E $.D.n.N 1.R W G l h.K.#+,.].e.].*.q./+v.K.P .+s.q.Z.P.,.w s.U V ",
"<.m.1.m.Z.q.K q.5+P.K.j.].p.L.o.w.j.B.V.w.J.V.B.j.;+j.*.e.g.g.k.w.r v.k.n.K 1.,.=.k.n.q.n.Q.+.6.*.L.w...e.n.J.v.;+L.n.<.,.q.w 4.",
"P.s.n.g.N.T..+]..+/+J.J.].].J.h.O.'+!+j.O.k.J.j.O.B.K.B.j.h.m.w.*.V K.k.V V G k.k.k.n.q.n.k.,.+.q.P P 3.*.]+O.L.J.B.B.^.4.p.).X.",
"B.o.++h.L.X.7+q.h.k.K.L.q.L.O.].O.w.h.V.L..+L.o.O.B.A.k.h.=.e.u N n.m.e.L.R 4.z o.q.1.i.q.(.h.6.n.c 1.T.K.O.L./+k.q.n.n.1.&.~.4+",
"V.w.1+Z.T.1+++R.s.z.V.p.C.++#+Z.=.5.=.P O.L.!+++k.B.Y.O.p.w.e.;.-.,.,.-.Q./+4.4.^.).#+-.T.T.K h.e.Q ,.o.k.!+V.1+n.<.h.n.4.j.x.P.",
"O.^.`.O.T.5+#+=.v.g.h..+#+Z.5+1.].o.L.P.L.L.k.O.k.*.&+]+h.v.].L.n.q.<.G G 4.#+4.h #+P.n.*.k.].T.Z.V.q.).s.6+'+v.V.k.L.1.7+k...4+"};
