/* XPM */
static char * item_rot_2c_64_xpm[] = {
"64 64 255 2",
"  	c #000000",
". 	c #160506",
"+ 	c #0A0827",
"@ 	c #310203",
"# 	c #3C0002",
"$ 	c #280703",
"% 	c #250821",
"& 	c #261507",
"* 	c #461D05",
"= 	c #4B1C1D",
"- 	c #3F2A09",
"; 	c #45281A",
"> 	c #402831",
", 	c #452B26",
"' 	c #353033",
") 	c #402F1D",
"! 	c #3D3029",
"~ 	c #4E3909",
"{ 	c #524130",
"] 	c #4E423D",
"^ 	c #5D4032",
"/ 	c #5D4242",
"( 	c #4D4C53",
"_ 	c #60503F",
": 	c #5C514F",
"< 	c #5F5148",
"[ 	c #3C602E",
"} 	c #496727",
"| 	c #3D6C25",
"1 	c #6A5B54",
"2 	c #6E5E4D",
"3 	c #6A5F60",
"4 	c #686159",
"5 	c #646263",
"6 	c #A95066",
"7 	c #7B5F5F",
"8 	c #71635B",
"9 	c #487B31",
"0 	c #537834",
"a 	c #4D7940",
"b 	c #4D794D",
"c 	c #5A7647",
"d 	c #7B6D6B",
"e 	c #7C6E64",
"f 	c #7E6E5D",
"g 	c #75706C",
"h 	c #717176",
"i 	c #617E2B",
"j 	c #57832B",
"k 	c #4E862A",
"l 	c #51891F",
"m 	c #5F8437",
"n 	c #538740",
"o 	c #548837",
"p 	c #5E8541",
"q 	c #887972",
"r 	c #827B72",
"s 	c #7F7C7A",
"t 	c #5C8D53",
"u 	c #678A52",
"v 	c #8A7C7F",
"w 	c #8F7D6D",
"x 	c #668B60",
"y 	c #5A9529",
"z 	c #808286",
"A 	c #589638",
"B 	c #5A944B",
"C 	c #5F9439",
"D 	c #639242",
"E 	c #5B9542",
"F 	c #69904B",
"G 	c #61934C",
"H 	c #91827A",
"I 	c #8B847A",
"J 	c #878583",
"K 	c #6B952F",
"L 	c #BC7787",
"M 	c #6B973E",
"N 	c #5E9F24",
"O 	c #898C6A",
"P 	c #5FA21C",
"Q 	c #62A034",
"R 	c #6B9E35",
"S 	c #908D8B",
"T 	c #6A9F44",
"U 	c #8C8E92",
"V 	c #63A243",
"W 	c #6A9F4D",
"X 	c #65A056",
"Y 	c #6F9C61",
"Z 	c #6C9E56",
"` 	c #699D6D",
" .	c #62A24D",
"..	c #679F61",
"+.	c #759C56",
"@.	c #779B67",
"#.	c #9D8D86",
"$.	c #759B79",
"%.	c #9C8D90",
"&.	c #9F8E7E",
"*.	c #979188",
"=.	c #9A917F",
"-.	c #66AE1D",
";.	c #68AC31",
">.	c #989593",
",.	c #94969A",
"'.	c #70A93E",
").	c #68AC3D",
"!.	c #69AE4D",
"~.	c #71AC4A",
"{.	c #71AC51",
"].	c #71AB60",
"^.	c #70AC58",
"/.	c #6BAD60",
"(.	c #67AF58",
"_.	c #7CA958",
":.	c #7AA961",
"<.	c #7CAA51",
"[.	c #83A851",
"}.	c #7DAD36",
"|.	c #6CB32E",
"1.	c #8BA763",
"2.	c #9B9EA2",
"3.	c #A19D99",
"4.	c #75AF71",
"5.	c #78B528",
"6.	c #70B63B",
"7.	c #70B643",
"8.	c #7AB348",
"9.	c #70B64A",
"0.	c #7FAE73",
"a.	c #C1969F",
"b.	c #AB9DA0",
"c.	c #CD93A1",
"d.	c #AD9E97",
"e.	c #88AD76",
"f.	c #B09F8E",
"g.	c #A9A194",
"h.	c #70BC28",
"i.	c #9AAA68",
"j.	c #ACA28D",
"k.	c #73B954",
"l.	c #70B962",
"m.	c #72B95B",
"n.	c #7BB75B",
"o.	c #74B86A",
"p.	c #7DB755",
"q.	c #7AB762",
"r.	c #71C204",
"s.	c #7CB66B",
"t.	c #87B55A",
"u.	c #87B562",
"v.	c #85B56C",
"w.	c #A3A7AB",
"x.	c #8FB45B",
"y.	c #A9A6A2",
"z.	c #95B16D",
"A.	c #7BBE50",
"B.	c #77C250",
"C.	c #78C346",
"D.	c #85BE52",
"E.	c #7AC43F",
"F.	c #A1B289",
"G.	c #91B78F",
"H.	c #82C248",
"I.	c #78C733",
"J.	c #86C165",
"K.	c #7EC45F",
"L.	c #88C06B",
"M.	c #7EC926",
"N.	c #7DC466",
"O.	c #B2AEA9",
"P.	c #87C25F",
"Q.	c #7FC374",
"R.	c #80C281",
"S.	c #81CB1C",
"T.	c #82C46D",
"U.	c #8DBF82",
"V.	c #83C656",
"W.	c #D2A6B0",
"X.	c #85C839",
"Y.	c #87C744",
"Z.	c #C0AE9C",
"`.	c #88C376",
" +	c #8DC54C",
".+	c #BEAEAA",
"++	c #98BD86",
"@+	c #ACB3B7",
"#+	c #93C16E",
"$+	c #B3B1B6",
"%+	c #91C177",
"&+	c #B9B1A4",
"*+	c #BCB19D",
"=+	c #95C266",
"-+	c #9BBF79",
";+	c #8CC294",
">+	c #8FC85B",
",+	c #88CB5B",
"'+	c #89CC51",
")+	c #B9B6B1",
"!+	c #8FC96D",
"~+	c #90CA66",
"{+	c #95CB4A",
"]+	c #90D213",
"^+	c #92CA74",
"/+	c #99CD40",
"(+	c #91CD7E",
"_+	c #A2CB61",
":+	c #98CF5F",
"<+	c #94CD8C",
"[+	c #A0CC70",
"}+	c #9ECC78",
"|+	c #9CCC81",
"1+	c #ADC77F",
"2+	c #99D070",
"3+	c #A7CB84",
"4+	c #C3BEB9",
"5+	c #A3CE91",
"6+	c #A1CCB3",
"7+	c #DBB9C6",
"8+	c #DEB9C0",
"9+	c #C0C2C6",
"0+	c #A2D09F",
"a+	c #BCC4CE",
"b+	c #CFC1AD",
"c+	c #CBC2B5",
"d+	c #B9C8BC",
"e+	c #C5C6AA",
"f+	c #B1CF96",
"g+	c #AFCF9E",
"h+	c #AECFA8",
"i+	c #AAD578",
"j+	c #ACD682",
"k+	c #CCC7C2",
"l+	c #ABD68C",
"m+	c #BBD7C1",
"n+	c #B3DDA0",
"o+	c #E6CDD8",
"p+	c #E1D0CE",
"q+	c #DDD3BD",
"r+	c #DBD3C5",
"s+	c #BDDEB4",
"t+	c #D2D5D8",
"u+	c #D8D4CF",
"v+	c #CCD7E2",
"w+	c #F2E1DF",
"x+	c #EBE4D6",
"y+	c #DAE7F2",
"z+	c #E9E5E0",
"A+	c #F7E0EA",
"B+	c #E4E6EA",
"C+	c #F1E9D3",
"D+	c #F3F3F4",
"E+	c #FBF7ED",
"F+	c #FFFFFF",
"K.n.{+#+L.%+|+^+n._.:.%+%+u.-+++u.%+}+%+n.n.n.%+0.v.D.2+U.W Z L.G u.L.].4.x s.L.4.U.++^.q.v.:.Y %+++|+|+e.n.K.A.P.C.n.:.v.q.q.A.",
"E.P.Y.q.%+v.%+v.v.v.q.J.[+u.u.3+L.J.=+_.e.v.`.5+5+|+u.v.++Y Y {.s.v.s.`.!+q.%+U.s.v.U.G q.q.L.s.%+A.=+z.v.L.n.7.,+A.m.n.:.X m.k.",
"H.'+'+L.{.p.v.v.$.v.%+{+P.v.W -+_.=+u.v.:.u.>+~+n.^.k.T.Z v.W D u.U.<+5+L.9.].L.%+u.U.4.).m.^.L.e.D.P.U.:.v.0.{.6.E.!+D.++U.s.p.",
"I.!+X.K.7.L.++++G.:.>+J.H.J.+.5+t.8.P.v.Z ~.9.q./.B T v.p.:.W n.0.^.^.@.Y :.L.n.5+v.s.].~.T %+u.x.'.~.n.v.5+_.q.{. +8.|._.e.`.^+",
"p.J.M.E.<.P.-+++e.:.^.J.#+u.f+-+p.m t.v.:.G ~.Z X ..].9.~.'.~.E Y :.Y ].q.q.].J.5+v.q.0.].{.|+z.t.V ^.).A.L.(+`.F t.'.u.P.:.].^+",
"n.u.M.8.:.n.++++G.`.L.q.P.=+f+<.D.:.%+:.:.Z v.%+].@.F.f+g+e+e+4+c+k+)+*+F.F.v.!+J.1.:.s.e.u.U.@.{.).<.u.{.!.{.J.-+z.1.~.{.n.Y u.",
"A.V.~.E.^.T.%+e.:.L.0.u.A.u.-+D.#+:.e.<+U.s.z.F.&+c+k+r+k+4+4+4+k+r+u+u+k+k+.+j.F.:.:.n.%+].`.4.X G 8.t.u.6.!.^.p.#+:.L.q.{.Z :.",
"T.~.p.C.V q.<+0.:.A.W %+q._.:.#+!+:.++:.3+e+.+.+g.I 8 g S 2.O.O.w.3.s 1 8 =.&+c+4+b.Z.e.v.e.q.(.q.s.^.:.P.W ~.{.V 8.P.<.J.`.q._.",
"C.A.K.'.+.L.`.L.s.x.+.v.v.v.:.l+q.%+++&+*+g.r s $+t+D+F+F+F+F+F+t+u+u+D+z+k+y.8 =.4+4+O.d.e.E 0.].Z q.J.^+v.H.k.8.'.>+8.8.'.E.8.",
"u.C.A.].z.0.].p.z.#+(+5+|+++5+|+U.F.d.*.z @+t+z+z+z+q+q+q+u+z+D+t+D+k+u+r+4+4+u+k+=.q &+4+d.=._.s.s.G 7.8.2+A.n.n._.T W V.q.T  +",
"J.^+A.V '.:.u {.n.5+U.v.k.L.^+5+g.d.z @+k+O.c+f.*.3.u+&+O.4+3.B+u+D+u+x+4+4+O.c+z+k+c+*.=.c+O.d.e.4.k.I.A.J.}+n.W 1.F O '.B.!.n.",
"v.L.D '.^.Y :.!.p.5+Z _.A.^+F.>.3.U 4+g.b+H H u+k+)+k+)+z+z+E+F+$+z+u+r+u+u+4+.+u+O.&+)+k+H &+)+&+z.~.`.T.Z v.`._.@.1.1.@.A.J.|+",
"5+L.{. .e.Z x 7.++L.n.p.7.F.%.O.$+k+f.y.3.y.#.)+c+k+x+z+z+E+E+F+F+z+x+r+x+.+&+y.b.y.3.y.O.x+#.=.)+b.e+v.m.:.^.k.Q.Z e.u.J.{.F %+",
"|+k.L.0.Q. .C.L.W ~.W _.e.#.$+9+.+&.H H y.>.y.%.k+O.k+x+E+E+F+F+F+u+x+x+r+r+q+)+O.y.O.4+)+k+y.f.j.)+b.&+<+++L.T.o.l.%+4.u.:.s.^.",
"++:.v.q.!.6.V.n.{.~.n.O.S w.4+>..+H #.I u+.+c+g.y.y.4+u+E+F+F+F+F+z+z+u+r+k+4+4+&+O.)+.+k+,.3.O.4+H )+d.F.++n.q.].s.v.e.].v.v._.",
"++:.n.q.!.C.q.~.q.{.5+H $+k+y.r+H q g.H 4+*+b+b+O.)+y.4+B+F+F+F+D+)+4+)+)+)+9+t+u+)+.+d.u+,.3.*.4+.+q $+.+F.%+%+U.%+].++C +.v.:.",
"}+P.$.^.o.n.n.%+p.%+S y.k+&.e 4+H d k+#.d.*+b+q+#.p+H d.4+z+F+F+E+O.9+u+)+k+4+$+t+)+)+&+)+O.3.*.y.k+O.*.$+a.@.++e.6.~.%+v.W 0.v.",
"#+`.U.U.`.q.k.u._.=.>.k+d.f e e H >.d.f.f.Z.q+q+d.x+r+y.)+k+D+F+F+3.z+z+r+k+u+O.t+k+4+.+O.y.3.O.S =.)+e >.$+d.u U.q.F U.:.e.:.e.",
"t.q.{.#+v.9.m.u.++r 9+O.&+q r H #.H &.f.f.b+q+x+r+u+x+z+>.)+k+D+F+3.u+u+u+z+4+k+9+z+.+)+O.O.3.3.>.>.>.3.1 y.y.e.v.`.Y :.q.+.^+s.",
"n.T W ++%+~.n.J.I w.u+8 1 *.%.e d #.g.8 S &+j.k+E+&+u+z+$+O.)+u+D+*.%.e I *.8 >.O.z+u+&+&+y.3.3.3.*.J 4+)+r w.Z.q.]...:.u.^.5+T.",
"Q.^.B 1.%+q.{.%+d t+#.f 8 1 *.O.8 r y.H c+q+x+E+E+y.z+u+z+O.d.)+u+)+)+*+*+g.d.*+H )+B+k+d.y.y.3.3.3.y.J b.1 y.O.F.Z p s.Y `.U.`.",
"q.`.4.U.u.K.A.O O.u+2 8 e d 8 q q w #.Z.*+r+x+C+C+.+u+k+B+4+3.O.)+4+r+b+.+b+b+c+b+*.t+k+k+y.y.3.3.4+J S >.4+r w.Z.Z V _.++<+`.Q.",
"B U.:.<+:.J.L.8 t+3.#.8 8 y.#.d q w w &.b+x+C+r+x+&+u+4+B+)+u+>.4+k+u+b+b+b+b+b+q+j.)+k+3.3.3.y.3.3.9+2.>.O.8 w.)+:.W e.q.s.n.Z ",
" .L.J.`.].D.e.J B+: e q q 3.q e q w &.H d.k+E+c+u+&+k+4+B+4+u+O.*.4+u+Z.b+b+q+q+r+r+#.t+3.3.3.y.y.S s J >.y.H S O.g._.^.Z <.W <.",
"E p.L.L.A.D.J )+k+1 1 1 8 y.e q H H &.f.&.d.u+r+u+d.k+y.B+O.)+y.4+>.z+*+b+b+b+g.y.v S 3.3.3.y.3.y.y.3.,.2.3.*.8 @+)+v.v.q.%+m.8.",
"Q ^.K.L.E.>+g z+>.1 8 e 8 q e q I H &.Z.&.d..+u+k+d.4+d.t+)+y.>.y.S t+c+b+b+*+q z+&+&+g.3.3.3.3.O.w.2.3.$+k+k+8 O.O.q.Z q.G '.8.",
";.D 9.~+H.#+4 B+1 #.e H H q e q I H &.f.#.d.3.b.u+&+)+g.t+O.O.S J y.y.u+r+r+b+Z.)+k+>.>.y.4+y.S 2.O.y.O.h 3 4+J 3.4+F.:.v.].p.7.",
"`.D J.D.!+F.g z+r 1 >.4 k+e q q H H H f.f.y.d.3.u+&+y.*.k+4+4+3.S )+s O.&+)+x+c+3.3.*.y.u+d k+O.>.w.3.k+4+O.y.>.S $+*++._.W Q <.",
"2+k.A.J.D.*.S u+e 8 *.q 4+f q q r q H &.f.d.#.>.z+.+r+H y.4+3.y.S )+y.#.O.*.*.k+)+O.)+k+>.>.J t+3.y.>.r 2.O.S *.r $+j.t Y :.Y W ",
"^+9.:.n.9.e.O.k+] < 1 1 >.e q r q r H =.=.d.#.3.k+y.p+4+g.O.>.y.J 4+)+>.d )+&+$+t+O.s >.3.3.*.O.$+>.>.S U 2.y.>.g $+=.T p L.`.V.",
"e.{.n.J.u.S )+4+< 8 e 1 8 e r e r q H H q #.g.S k+O.3.z+g.3.*.)+b.$+4+y.g.q y.2.a+B+>.3.3.3.3.>.>.O.y.>.3.2.2.y.g $+4+].n %+{.q.",
"q.v.J.:.:.O )+4+e 8 e H 8 8 e e d r q H q H *.v 4+%.H y..+H g.O.4+9+u+)+O.g.>.S J k+9+>.3.3.3.>.S S S >.w.w.9+9+e @+4+e.4.0.e.W ",
"J.L.L.k.Z S O.4+] < ] v y.1 8 d r r q q r H 3.s k+>.e g.u+x+g.b.O.)+u+w.k+)+s )+y.9+z+y.3.,.3.>.3.2.J >.,.s s 3.d @+)+0.Y G.<+%+",
"U.U...^.].=.y.k+_ < < e 3.4 8 e e r q r d S 3.r 4+*.#.*.g.D+)+*.O.)+u+2.t+4+y.q O.$+D+u+>.2.2.>.2.>.S r k+$+)+)+v @+F.s.4.T _.|+",
"h+++Z e.++F.>.t+1 e 1 1 1 1 8 e d q v I r %.)+d u+k+S 8 q y.z+3.y.y.z+2.u+z+$+)+)+2.$+D+>.3.2.,.2.2.2.,.h h J 3.J @+F.k.W Q W :.",
"v.h+u p u.F.8 z+! / < 1 4 8 e 8 e r r d g 4+k+d k+k+9+x+S >.u+y.y.b.t+3.k+B+9+t+z k+$+B+4+2.,.2.2.2.U ,.U 2.2.3.S @+e.k.Y Z 0.:.",
"{.g+E n 8.-+: B+8 < 1 1 8 8 e 8 8 d e d < b.b.*.)+&+9+O.u+k+k+k+)+*.t+O.)+B+u+v+$+>.4+D+t+,.2.2.2.U >.t+)+,.,.S 2.2.z.C.W ^.G 1.",
"5+v.P.p.Q J.r u+3.< *.O.1 d 4 8 H 3.H r 1 v y..+4+)+u+k+)+3.O.O.w.v z+k+)+u+D+B+k+)+w.t+B+,.$+2.,.U S g O.k+k+v @+>.P.9.7.G ..Z ",
"5+e.8.8.Z {.>.3.k+>./ r 8 4+8 8 H g r 3.#.*.J 1 g S O.k+u+y.4+3.w.r t+d.b.4+t+t+u+D+w.9+D+O.t+w.2.U 2.J >.s $+v @+3.E.W A.:.4._.",
"P.v.:.9.k.P.F.1 B+r q 1 / : 8 8 d O.r d < I >.3.y.O.O.y.>.>.u+)+y.8 9+>.d 9+z+2.U $+4+4+t+9+a+@+,.,.,.U U S 3.S w.F.A.L.J.A.p.|+",
"!+p.e.`.k.#+%+e u+>.{ : 4 4 #.r e r s g 8 < I y.d.>.*.>.3.y.)+k+u+b.t+z+y.t+t+v+t+k+O.3.t+a+w.a+2.$+w.,.2.,.S O.>.%+'.<.A.~.s.|+",
"P.|+k.^.q.k.!+F.>.z+{ < 1 1 1 4+4 g g r r 8 e I j.#.&+.+b.O.O.y.y.3.3.y.O.$+4+t+a+k+9+w.@+a+,.a+>.S w.@+2.y.r @+*.A.^.u.s.].n.:.",
"n.!+J.n.n.p.#+++e z+*.J < .+e b.3.e r r r q 8 8 q #.=.d.>.H q s S *.>.3.y.2.2.,.U 2.2.@+w.9+2.a+w.9+$+$+9+*.,.w.++D.V '.:.u n.{.",
"^.|+D.J.u.W 8.<.*.*.z+v d.8 4 ] 8 e d r r H #.8 8 8 r =.*.>.d.y.g.)+O.3.w.@+w.w.w.@+@+@+@+s @+a+w.z U 2.w.v w.O.%+T ~.].Y ].n.L.",
"n.L.u.n.<.W H.A.U.e k+)+8 ] < 1 4 4+d r r q *.=.*.d 1 4 q H r J r s s s U ,.U U U ,.2.w.U U @+a+y+a+@+w.S 2.w.5+L.p.{.v.].:.`.q.",
"v.++u.p.{.P.n.].v.e.3 z+g ] 1 1 1 H 3.g g 8 &+I I *.S 8 : 3 3 4 5 g s h z z z U ,.w.2.2.,.@+9+t+y+y+v+$+>.@+3.`.k.J.s.N.n.%+}+q.",
"J.:.L.n.q.u.%+k.^.{.S S z+< _ 1 8 e 3.O.3.8 I 8 g g r s s s s g g g h h h 5 5 5 g g h s a+9+,.v+y+y+a+%.@+w.%+L.:.L.T.q.n.J.L.J.",
"p.Z _.s.:.t.u.`.Y W v.4 O.t+_ _ d : S : g g 3 g g g g g r r s s J S S S S J J J S S z z h 2.t+a+D+y+S @+$+++V.#+n.L.L.q.J.~+q.P.",
"_._.++:.++v.L.-+s.k.P.++: )+u+] O.g 4 : g 8 g g g g r s s s J J J S S S ,.U J J J J U ,.w.@+,.@+a+3.@+9+F.!+J.#+P.L.P.%+P.K.L.J.",
"7.t.%+s.`.].<.#+L.J.>+A.F.: O.t+3 H ] 3 3 J >.3 3 y.3.g s s J J J s J J S y.4+y.U S w.a+a+v+y+t+3.O.a+F.:.%+|+!+%+^+5+L.D.P.v.<+",
"!.u.Q.Q.L.n.p.-+-+!+H.n.n.F.: 3.z+I < 4 3 4 >.3 4 d s g r O.k+s s y.4+J s s 5 t+a+a+2.a+v+v+t+>.w.a+O.`.L.++J.}+%+|+3+v.}+!+~+L.",
"l.v.s.J.^.W t.t.v.{.p.!+v.t.e.4 r z+)+4 4 4 3 3 4 g 4 4 J : O.S 8 J J S 3 @+z h 9+y+y+y+v+$+3.$+@+F.^+`.`.|+%+!+(+|+^+~+^+V.A.p.",
"].^.n.q. .F {.{.^.s.`.].J.K.n.L.r : )+z+3.1 4 4 : J 3 g g s h g 4 >.z )+h U t+5 ,.v+D+t+3.y.@+w.G.!+V.q.U.R.Z %+^+N.p.~+V.A.C.P.",
"J.Q.`.`.U.Z ].L.P.^.L.J.^+J.p.n.:.@.: g k+z+y.4 < : 3 s O.d : g 4 4+s g J s 5 s a+t+O.3.w.2.y.%+P.P.n.m.s.v.o.s.N.!+n.A.H.m.K.~+",
"L.].].T.X q.q._.k.U.J.n.#+p.v.D.~.N.L.$./ g 4+z+u+O.J 3 ( : 3 g 4 4 : g U w.9+t+)+y.2.U 2.G.u.D.n.J.q.`.%+L.s.Q.s.P.k.).7.P.A.E.",
"L.^.(.V n.V q.:.8.v.U.0.P.n.Z W D.P.H.9.-+O g : J $+u+t+t+u+k+9+4+9+k+k+t+$+2.>.J z 2.5+`.v.n.D.n.%+L.#+q.v.%+J.J.%+m.W ~.E.H.k.",
"^./.].Z V ].s._.'.8.L.n.v.z.:.v.J.u.P.n.E.P.-+e.S g : 1 g s >.S >.S J g g g h U *.$.:.%+n.J.9.'.v.n.P.H.~.k.{.L.q.q.Y ^.8.P.;.9.",
"^.(.v.J.].q.v.Z <.P.L.K.@.u.-+~+q.>+J.V.7.'+#+-+~.t.e.F.e.$.J s J J r $.e.G.e.Z :.:.k.%+J.^.p.{.J.{.K.H.s.{.:.:.n.].t.{.<.v.;.~.",
"{.V ].A.].0.L.s.e.v.K.L.@.v.A.P.L.,+=+J.T.D. +-+J.p.D.{.V 9.A.W {.!.{.X 0.@.$...x q.K.%+:.].k.:.{.v.(+A.n.Z -+L.L.`.U./.G #+W W ",
"4.q.0.n.`.v.Y e.<+U.K.p.:.u.L.P.p.p.D.V.A.P.V.D.p.>+p.{.^.m.m.q.A.D A.q.s.Y 0.].^.n.s.v.v.Q.).9.{.L.A.;.k.s.J.8.>+!+0.:.].v.G 0.",
"U.e.s.m.T.U.%+:.^+(+J.u.:.:.J.n.P.!+~+p.P.q.J.8.P.D.K.A.p.n.q.A.{.X K.q.X X ..:.q.s.s.v.s.q.^.'.v.Z Z 7.k.!+P.L.J.D.D.u.e.u._.G.",
"D.t.#+_.L.++++v.n.q.K.L.v.=+P.].P.p.n.V.L.%+#+t.P.D.C.u.n.{.k.E X 0.q.k.L.@.$.@.t.v.0.o.v.1.n.9.s.a @.U.K.P.L.(+q.v.s.0.0.~.p.|+",
"V.p.}+%+U.|+#+++e.K.V.u.-+#+%+`.^.8.^.Z J.L.>+#+q.D.Y.P.u.A.k.^.].].^.].Q.U.G.e.:._.`.].++++Y n.k. .].t.u.~+V.|+s.4.n.s.e.p.E.U.",
"P.:. +P.U.5+%+_.A.^.n.%+-+`.++v.:.t.L.U.L.v.u.P.q.{.=+!+n.A.:.v.s.v.:.....e.%+0.u %+`.s.{.t.:.U.`.V.u.:.v.2+!+H.V.u.J.0.5+q.;.++"};
