/* XPM */
static char * item_rot_3c_48_xpm[] = {
"48 48 255 2",
"  	c #000000",
". 	c #1A0910",
"+ 	c #33150C",
"@ 	c #412C04",
"# 	c #3A2F2F",
"$ 	c #442F23",
"% 	c #50413A",
"& 	c #5A4632",
"* 	c #464D4B",
"= 	c #544E4F",
"- 	c #5F5048",
"; 	c #3A6032",
"> 	c #3E6429",
", 	c #3A6D20",
"' 	c #476C24",
") 	c #705D4D",
"! 	c #6C5F58",
"~ 	c #676161",
"{ 	c #5A6843",
"] 	c #457334",
"^ 	c #5C742E",
"/ 	c #497C30",
"( 	c #4A7A47",
"_ 	c #686E6C",
": 	c #55774A",
"< 	c #497E26",
"[ 	c #547A30",
"} 	c #58783C",
"| 	c #4A7F1E",
"1 	c #507F3F",
"2 	c #7D6F63",
"3 	c #78706D",
"4 	c #50883A",
"5 	c #57873B",
"6 	c #5D8B35",
"7 	c #538F2B",
"8 	c #648934",
"9 	c #5B8D2C",
"0 	c #63893F",
"a 	c #568E35",
"b 	c #827B78",
"c 	c #8F7878",
"d 	c #798441",
"e 	c #56921E",
"f 	c #618B49",
"g 	c #588E52",
"h 	c #5F8C52",
"i 	c #688A49",
"j 	c #668A52",
"k 	c #5A8F4B",
"l 	c #8B7D71",
"m 	c #589141",
"n 	c #5F8F43",
"o 	c #628C5F",
"p 	c #818185",
"q 	c #8A8481",
"r 	c #798E57",
"s 	c #768E69",
"t 	c #5D9B35",
"u 	c #5F9949",
"v 	c #69974B",
"w 	c #6B9C2C",
"x 	c #699C3A",
"y 	c #679C43",
"z 	c #6E9A43",
"A 	c #659F2C",
"B 	c #5FA12B",
"C 	c #609F44",
"D 	c #5FA31C",
"E 	c #6A9D58",
"F 	c #669E60",
"G 	c #729B58",
"H 	c #819751",
"I 	c #928D89",
"J 	c #719B61",
"K 	c #64A240",
"L 	c #64A059",
"M 	c #64A339",
"N 	c #62A250",
"O 	c #6F9C6D",
"P 	c #69A151",
"Q 	c #719F52",
"R 	c #9C8E81",
"S 	c #869691",
"T 	c #BA8690",
"U 	c #929297",
"V 	c #A78F91",
"W 	c #67AB35",
"X 	c #66AE1D",
"Y 	c #9A9592",
"Z 	c #68AC41",
"` 	c #67AC48",
" .	c #70AA46",
"..	c #6BAB4F",
"+.	c #6AAB58",
"@.	c #73A956",
"#.	c #75A94F",
"$.	c #72A95C",
"%.	c #7DA65A",
"&.	c #6AB12C",
"*.	c #75AD3B",
"=.	c #6EAC66",
"-.	c #76AA67",
";.	c #6AB43C",
">.	c #72B33E",
",.	c #74AE75",
"'.	c #A29D99",
").	c #8BA960",
"!.	c #82AC68",
"~.	c #81AC6E",
"{.	c #6FB549",
"].	c #78B528",
"^.	c #80AC76",
"/.	c #7DAC82",
"(.	c #6FB551",
"_.	c #67B758",
":.	c #75B357",
"<.	c #6FB558",
"[.	c #79B34E",
"}.	c #B7999E",
"|.	c #72B45E",
"1.	c #7EB157",
"2.	c #71B464",
"3.	c #8DAA75",
"4.	c #9FA1A6",
"5.	c #7CB25E",
"6.	c #AC9F90",
"7.	c #7BB264",
"8.	c #6DBC29",
"9.	c #74BA2A",
"0.	c #76B46D",
"a.	c #86B063",
"b.	c #BA9BA7",
"c.	c #70BF17",
"d.	c #7FB36E",
"e.	c #72BC40",
"f.	c #71C204",
"g.	c #7ABB46",
"h.	c #AAA5A1",
"i.	c #74BF4B",
"j.	c #73BF52",
"k.	c #76C03C",
"l.	c #70BF5F",
"m.	c #77BE59",
"n.	c #7FBE3C",
"o.	c #7ABE52",
"p.	c #75BE66",
"q.	c #77BE5F",
"r.	c #99B271",
"s.	c #7CBC66",
"t.	c #7EBC60",
"u.	c #81BC59",
"v.	c #79BD6D",
"w.	c #83BD53",
"x.	c #85BB67",
"y.	c #87BB60",
"z.	c #84BB6D",
"A.	c #8DBA58",
"B.	c #86BE4A",
"C.	c #A1AEB1",
"D.	c #95B590",
"E.	c #79C447",
"F.	c #79C724",
"G.	c #7AC077",
"H.	c #78C733",
"I.	c #81C34D",
"J.	c #83BF78",
"K.	c #7DC185",
"L.	c #8DBE78",
"M.	c #A7B76C",
"N.	c #8CBE7E",
"O.	c #D0A5AF",
"P.	c #7ECB1B",
"Q.	c #8BBE86",
"R.	c #99BD5F",
"S.	c #96BC7E",
"T.	c #94BE70",
"U.	c #81C65A",
"V.	c #7EC667",
"W.	c #80C660",
"X.	c #9CBC71",
"Y.	c #9DBA85",
"Z.	c #85C839",
"`.	c #94BD87",
" +	c #99BD79",
".+	c #AFB1B7",
"++	c #8FBE93",
"@+	c #82C570",
"#+	c #80C950",
"$+	c #87C568",
"%+	c #8BC55B",
"&+	c #BCB0A0",
"*+	c #81CA46",
"=+	c #8AC561",
"-+	c #B6B1AD",
";+	c #8EC46F",
">+	c #90C469",
",+	c #8DC475",
"'+	c #96C361",
")+	c #8BCC2D",
"!+	c #8BCA57",
"~+	c #8FCB49",
"{+	c #8DCB51",
"]+	c #8DCC64",
"^+	c #90D213",
"/+	c #8BCC6E",
"(+	c #97CF28",
"_+	c #8FCB7B",
":+	c #99CD40",
"<+	c #90CC75",
"[+	c #99CC71",
"}+	c #95CC85",
"|+	c #9ECD5A",
"1+	c #9BCD68",
"2+	c #A2CA7C",
"3+	c #9ACD7E",
"4+	c #9CCD78",
"5+	c #98CC94",
"6+	c #A5CA89",
"7+	c #D3B8BC",
"8+	c #9FCD89",
"9+	c #B0CB6C",
"0+	c #DCB6C5",
"a+	c #AFCA7E",
"b+	c #B6C880",
"c+	c #A9CE75",
"d+	c #A9CF6D",
"e+	c #C9C0B3",
"f+	c #A9CE96",
"g+	c #A6CEA3",
"h+	c #A8CE9C",
"i+	c #C6C2BE",
"j+	c #B7CB8E",
"k+	c #C1C3C8",
"l+	c #B6CC97",
"m+	c #AAD283",
"n+	c #B4CEA5",
"o+	c #AED291",
"p+	c #D3C6AF",
"q+	c #B6D3B8",
"r+	c #BFCFD7",
"s+	c #ADDB97",
"t+	c #B4DB8C",
"u+	c #B7DC9B",
"v+	c #B6DDA4",
"w+	c #B7DEAF",
"x+	c #D7D3CF",
"y+	c #DBD3C5",
"z+	c #D3D4D9",
"A+	c #C1DDB6",
"B+	c #E2E5EA",
"C+	c #E8E5E1",
"D+	c #F1EAD8",
"E+	c #DDEEF8",
"F+	c #FFFFFF",
"u.w.$+z.N.<+t.5.L. +T.S.x. +;+7.5.,+3.y.>+,+P 5.Q x.7.0.-.z.d.N.$.t.x.-.L.3+4+3.W.o.%+o.7.d.t.o.",
"*+{+V.x.x.d.~.z.=+>+%. +x.y.a.~.x.3+S.x.z.d.$.P x.N.}+x.5.J.z.L.-.:.|.z.z.w.z.z.d.[.I.u.u.^.7.m.",
"g.!+U.[.L.`.N.x.y.w.%. +1.u.d.$.[.5.$.C 7.:.@.@.!.7.d.$.7.t.3+x.-.#.7.x.A.[.t.z.L.7.[.w.>.!.d.;+",
"u.{+n.@.T.S.3.7.x.>+3+2+[.@.!.$.Q $.+.F (. .[.N J -.=.7.7.y.3+7.~.-.z.3.#. ...m.;+L.%.1.1.t.$.;+",
"m.o.e.|.,+`.N.z.s.y. +y.y.z.L.d.7.z.2.J @.g.y.h+h.3.%.s.d.U.t.!.7.3.z.-.Q  .y.1. .5.>+a.5.@.@.%.",
"t.[.E.P ,+z.7.1.z.t.a.;+;+z.z.x.z.z.7.2.u.k.6+-+h.h.Q $.x.u.T.7.-.z.z.|.7.-.5.y. .(. .u.1.x.x.%.",
"o.m.[.5.z.$+z.a.z.z.!.2+d.x.=+T.8+z.:.d.>+w.-+x+e+&+3.d.t.y.5.z.:.v.+.-.-.$.y.>+u.o.[.o.[.[.{.[.",
"y.U...1.-.#.x.3+3+,+}+,+s...v !.S.,+<.s.w.x.x+C+e+&+D.5.:.(.1.>+@.a.z.@.-.$.e.o.>+t.5.@.Q w.:.o.",
"z.5. .@.J (.x.N.:.u.,+%.$+t.$.@.x.t.m.s.@.D.i+C+-+-+'.a.5.:.x.t.m.1.[.7.7.#.x.s.7.;+$.!.!.1.o._+",
"8+t.+.~.E (.,+t.[.[.d.z.@.1.-.2.p.@+{.@.$.D.i+C+e+h.h.3.s.q.m...x.t.x.q.$.P z.v.7.5.d.!.!.7.P d.",
"}+7.z.:.i.t.....5.:.7.$.N 5.0.|.m.u.5.5.z.6.x+B+e+-+h.Y.{.i.>.x.N.t.d.$.-.J.Q.}+L.s.2.z.~.7.d.%.",
"}+5.q...o.:.:.1.x.t.@.<.5.:.P (.q.:.5.^.L.h.e+C+i+h.Y Y.e.{.#.5.7.@.F +.d.N.J.@.3.,+L.z.N.v 5.%.",
"[+d.-.0.|.z.1.u.o.o.y 5.q.t.(.s.2.|.:.7.^.&+&+C+y+h.Y D.u.k.U.m.Q $.|.-.7.-.$.E -.3.J. .L.!.$.z.",
">+z.L.z.<.a.[.5.w.g.@.{.u.t.i.t.@+s.s.:.3.h.e+x+e+-+Y '.u.e.{.1.1.%.3.z.^.@.v E 7.E J.-.!.7.!.~.",
"5.P L.z.:.5.x.1.[.[.[.g.@.[.o.u.v.t.(.:.3.6.y+-+h.-+h.h.=+i.@.!.r.A.T.!.E u -.E G -.s.=.%.7.L.,+",
"v.E ~.z.:.y.x.y.1.>.e.5.:.5.$.:.:.i.i.|.D.6.x+-+e+-+'.'.L.$+d.5.a.x.z.=.O F =.J ^.O 7.u -.~.N._+",
"$.z.N.y.U.%.T.!+t.(.i.:.o.#.%.<.{.Z y $.D.Y x+i+p+h.h.'.~.z.L.t.$.d.L.-.^.O ~.N.N.7.a.y $.L.L.7.",
"+.x.L.5.u.[.y.U.s.q.(.(.(.-.:.Q :.<.u +.3.6.i+-+-+'.h.'.`.L.d. .%.f #.d.N.~.1.;+$+5.@.P $.@.@.#.",
"y s.$+o.%+T.;+m.=.+.:.(.$.-.$.P %.2.=.=.S R e+-+p+h.h.'.Y.$+z...#.v 5._+:.%.$.;+z.x.W.5.!.7.7.g.",
"M ..=+n.U.L.z. .C E $+s.t.t.|.F !.-.L +.I R -+h.e+h.-+'.D.;+:.$.Q Q z.z.=.7.!.x.u.z.J.$.@.7...{.",
"7.@.u.=+u.:.+.{.(.E :.:.:.m.:.+.+.0.@.{.I l -+h.-+h.'.I h.$+j.m...#.|.:.:.+.t.t.{.#.7.$.Q 5.P #.",
">+:.y.u.5.@.t.i.1.:.:.[.:.o. .$.-.2.I.W.I c -+'.-+h.'.h.n+z.0.$.x.1.@.y ..P 7.%. .` ..K v J -.@.",
"z.:.t.1.#.5.U.i.i.w.y.t.B.I.1.7.7.:.:.I.I 3 '.&+h.-+Y I '.7.7.-.-.J.Q Q $.$.$.-.@.P ..7.Q v z.t.",
"z.x.5.7...5.5.:.Z w.x.1.g.[.y.a.7.$.#.o.Y l I -+-+.+Y Y '.$.P -.+.z.@.v G ~.J -.P Q (.5.~.-.J.$.",
"$+z.:.P $.t.:.+.` g.y.d.$.y.1.:.7...g.o.I 3 Y -+-+k+Y Y Y (.-.$.(.t.$.L.x.7.-.0.-.#.@.d.d.-.S.N.",
"f+~.d.^.z.:.P ..:.u.[.m.@.5.1.:.$...g.9.I ~ -+-+i+k+'.U '.{.U.1...x.7.^.U.x.!.%.-...:.:.5.Q y z.",
"`.S.E z.L.d.$.@.:. ...@.P $.v v E 5.I.>.3.! h.i+k+x+U 4.Y Z  .:.#.;+5.@.5.U.o.P E %.5.{.[.G J !.",
"x.L.n [.u.u.>.[.%+5.7.7.5.y P n -.5.5.:.3.b '.i+k+z+4.4.'.P Q Q %.t.{...Q :.i.(.7.1.u.k.g.P E -.",
"6+a.[.P 1.o. .#.1. .5.7.1...5.-.-.Q d.7.3.2 I h.h.x+.+Y Y E E $.s.5.{.` -.$.5.#.$.u.u.>. .[.$.G ",
">+!.[.:.y.y.[.>.u.Q $.:.u.:.7.d.$.7.7.x.3.2 I -+i+k+k+U Y G !.5.d.-...m.@.$.@.t.|.s.[.w.t.t.u.S.",
">+x.z.5.z.<+>.[.1.i.o.[.g. .7.7.:.7.z.>+3.I l h.i+i+.+'.'.F x.d.|.5.$.z.W.x.@.u.[.o.o.[.#.u.:.S.",
"y.>+:.5.y.s.:.:.5.5.u.>.e.j.u.1.o.t.y.5.~.q 3 Y Y 4..+h.D.d.d.L.|.7.7.d.L.;+x.:.#.t.W.[.[.7.$.@.",
"7.;+t.1.#.:.u.5.#.:.i.E.{.o.x.t.u.;+;+t.~.q l q 4.C.C.4.D.L.z.J.$.<.s.d.u.$+7.t.z.z.x. .@.J :.t.",
"a.>+5.1.[.o.7.[.[.e.i.w.o.y.x.x.t.t.t.t.:.I q b b U C..+3.<+L.s.5.@.x.x.s.o.t.=+v.}+s.:.d.|.z.z.",
"x.z.t.1.>+5.5.(.o.g.[.[.=+=+y.y.:.w.[.o.u.q ~ ~ 3 I k+k+`.;+;+L.d.7.z.u.7.t.#+<+u.x.5.z.s.q.;+x.",
"1.%.x.7.y.z.E ..1.I.o.[.x.%+y.:. .u.t.[.t.3.b b q 3 k+r+L._+t.u.7.z.x.#+o.m.5.;+=+$+5.$+s.x.=+=+",
"1.T.d.}+x.T.a.u.%+@.5.[.@.I.u.u.u.t.u.:.1.3.b q I p .+k+~.x.:.[.:.x.x.y.*+o.t.T.;+;+=+z.L.%+x.;+",
"{.z.z.z.1.>+[+=+o.u.u.y.x.%+g.1.w.1.u.:.:.3.2 q Y 4.k+C.^.d.d.{...s.,+x.U.=+$+d._+_+,+3+L.>+>+,+",
"|.z.$+$.:.y.x.1.$+x.[.x.T.y.g.u.!+U.5.5.u.3.q b I .+z+C.^.-.J.E 5.d.3+>+u.]+L.J._+<+_+}+;+[+#+u.",
"5.q.s.E Q :.5.z.7.x.u.x.x.u.!+>+1+>+z.t.m.x.'.b q k+r+D.$.|.s.7.m.s.z.L.u.%+7.L.0.z.,+W.=+U.o.=+",
"$+0.@+0.|.t.5.z.y.;+5.5.:.o.I.%+{+u.s.s.u.5.Y I b .+.+/.P P 7.$.7.x.z.W.u.u.s.z.d.v.s.W.i.I.u.U.",
"z.+...:.:.7.[.z.d.u.1.@.u.u.i.I.%+t.7...Z [.J -+q .+'.J ..J $.5.,+z.7.%+t.z.;+s.z.x.z.x...{.I.o.",
"$.2.$...7.$. .t.t.z.a.x.$+W.u.g.>+T.u. .#.[.5.I -+4.I |.+.-.o E ,+5.:.>.x.5.I.(.[.x.7.7.@.[.[.{.",
"+.$.t.-.d.-.7.x.$+!.x.>+W.=+$+u.%+ +1.:...` o.%.b I !.-.-.F =.|.,+7.:.:.5.z.o.q.!.x.s.z.$.@.5. .",
"0.7.q.z.7.~.`.z.t.-.x.y.t.u.%+u.%+%+u.u.#.:.m.5.[...5.~.-.$.:.7.z.d.:.{.:.x.{.:.x.u.=+z.-.$.5.-.",
"L.!.5.z.N.d.;+;+y.7.x.u.y.>+u.y.$+u.%+u.u.[.q.(...|.5.$.F -.7.7.d.7.7.` 7.Q o.u.$+z.x.y.a.d.1.N.",
"w.>+z.L.3+S.!.t.y.L.>+z.1.1.:.x.$+>+u.I.u.u.m.N $.7.|.J./.^.5.d.0.N.!.:.<.E z.u.=+3+z.7.z.d.[.,+",
"y.y.y.N.}+!.u.m.$+S.S.L.7.x.J.z.x.y.5.u.>+5.o.s.d.7.F =.N.^.G ,+0.5.7.N.z.u.5.a.;+u.U.t.~.Q.[.N."};
