/* XPM */
static char * item_rot_3a_32_xpm[] = {
"32 32 255 2",
"  	c #000000",
". 	c #190907",
"+ 	c #340301",
"@ 	c #270531",
"# 	c #250A07",
"$ 	c #0B102B",
"% 	c #4D1615",
"& 	c #44270A",
"* 	c #47251D",
"= 	c #45252B",
"- 	c #2C2D38",
"; 	c #3E2C21",
"> 	c #392F2E",
", 	c #4E3204",
"' 	c #563E32",
") 	c #4B433E",
"! 	c #5B4647",
"~ 	c #584C3B",
"{ 	c #4E4E54",
"] 	c #644D43",
"^ 	c #5B524C",
"/ 	c #3C602E",
"( 	c #496727",
"_ 	c #3D6C25",
": 	c #715C59",
"< 	c #6B6058",
"[ 	c #666162",
"} 	c #457038",
"| 	c #786153",
"1 	c #41791F",
"2 	c #74664E",
"3 	c #487B31",
"4 	c #537834",
"5 	c #4D794D",
"6 	c #5A7641",
"7 	c #58764F",
"8 	c #806A69",
"9 	c #517D44",
"0 	c #7D6E5F",
"a 	c #796F67",
"b 	c #747071",
"c 	c #617E2B",
"d 	c #57832B",
"e 	c #50872C",
"f 	c #51891F",
"g 	c #5F8437",
"h 	c #538740",
"i 	c #548837",
"j 	c #5E8541",
"k 	c #857A72",
"l 	c #817B7C",
"m 	c #AA717B",
"n 	c #5C8D50",
"o 	c #678A52",
"p 	c #5C8D58",
"q 	c #668A5F",
"r 	c #8E7E6D",
"s 	c #A27781",
"t 	c #5A9529",
"u 	c #818377",
"v 	c #7F8385",
"w 	c #589638",
"x 	c #5A944B",
"y 	c #5F9439",
"z 	c #639242",
"A 	c #6A9042",
"B 	c #5B9542",
"C 	c #69904C",
"D 	c #61934C",
"E 	c #8E827A",
"F 	c #898485",
"G 	c #6B952F",
"H 	c #7D8C63",
"I 	c #6B973E",
"J 	c #5E9F24",
"K 	c #5FA21C",
"L 	c #62A034",
"M 	c #6B9E35",
"N 	c #928C8E",
"O 	c #6A9F44",
"P 	c #BE7F8E",
"Q 	c #63A240",
"R 	c #6A9F4D",
"S 	c #65A056",
"T 	c #6F9C61",
"U 	c #63A247",
"V 	c #6C9E56",
"W 	c #699D6D",
"X 	c #62A24D",
"Y 	c #679F61",
"Z 	c #759C56",
"` 	c #789B63",
" .	c #759B6F",
"..	c #9D8E7D",
"+.	c #998F87",
"@.	c #90928F",
"#.	c #8F9387",
"$.	c #B08892",
"%.	c #8E9397",
"&.	c #B18B8D",
"*.	c #66AE1D",
"=.	c #68AC31",
"-.	c #70A93E",
";.	c #999596",
">.	c #68AC3D",
",.	c #69AE4D",
"'.	c #71AC4A",
").	c #71AC51",
"!.	c #71AB60",
"~.	c #70AC58",
"{.	c #6BAD60",
"].	c #67AF58",
"^.	c #7CA958",
"/.	c #7CAA51",
"(.	c #83A851",
"_.	c #79AA61",
":.	c #84A763",
"<.	c #7DAD36",
"[.	c #6CB32E",
"}.	c #8BA763",
"|.	c #A39D99",
"1.	c #75AF71",
"2.	c #78B528",
"3.	c #70B63B",
"4.	c #70B643",
"5.	c #C893A0",
"6.	c #7AB348",
"7.	c #BA989D",
"8.	c #70B64A",
"9.	c #83AD72",
"0.	c #9FA19E",
"a.	c #82AD7E",
"b.	c #A4A0A5",
"c.	c #70BB29",
"d.	c #9DA3A7",
"e.	c #ADA091",
"f.	c #A2A398",
"g.	c #9AAA68",
"h.	c #70BF17",
"i.	c #73B954",
"j.	c #70B962",
"k.	c #72B95B",
"l.	c #7BB75B",
"m.	c #74B86A",
"n.	c #7DB755",
"o.	c #7AB762",
"p.	c #71C204",
"q.	c #7CB66B",
"r.	c #87B55A",
"s.	c #87B562",
"t.	c #85B56C",
"u.	c #ACA5A1",
"v.	c #8FB45B",
"w.	c #95B16D",
"x.	c #7BBE50",
"y.	c #77C24D",
"z.	c #76C255",
"A.	c #78C346",
"B.	c #85BE52",
"C.	c #7AC43F",
"D.	c #9EB485",
"E.	c #82C248",
"F.	c #78C733",
"G.	c #86C165",
"H.	c #7EC45F",
"I.	c #88C06B",
"J.	c #7EC926",
"K.	c #7DC466",
"L.	c #80C36B",
"M.	c #87C25F",
"N.	c #85C081",
"O.	c #7FC374",
"P.	c #D3A4B0",
"Q.	c #81CB1C",
"R.	c #83C656",
"S.	c #85C839",
"T.	c #87C744",
"U.	c #94BE82",
"V.	c #C9AAAF",
"W.	c #88C376",
"X.	c #8DC54C",
"Y.	c #B2B2A6",
"Z.	c #B5B0B6",
"`.	c #B8B0AC",
" +	c #91C174",
".+	c #ACB3B7",
"++	c #93C16E",
"@+	c #99BB9F",
"#+	c #90C17A",
"$+	c #94BE8F",
"%+	c #BDB0A1",
"&+	c #B0B3AF",
"*+	c #95C266",
"=+	c #9BBF79",
"-+	c #8FC85B",
";+	c #88CB5B",
">+	c #89CC51",
",+	c #8FC96D",
"'+	c #89CB73",
")+	c #90CA66",
"!+	c #95CB4A",
"~+	c #90D213",
"{+	c #92CA74",
"]+	c #99CD40",
"^+	c #91CD7E",
"/+	c #A2CB61",
"(+	c #98CF62",
"_+	c #94CD8C",
":+	c #99D057",
"<+	c #A0CC70",
"[+	c #9ECC78",
"}+	c #9DCC7E",
"|+	c #ADC77F",
"1+	c #9CCC85",
"2+	c #99D070",
"3+	c #C2BEBA",
"4+	c #A7CB84",
"5+	c #DCB8BF",
"6+	c #9FCE9C",
"7+	c #DBB8C6",
"8+	c #A3CE91",
"9+	c #A1CCB3",
"0+	c #C0C2C5",
"a+	c #CEC1AC",
"b+	c #B6C8B8",
"c+	c #CBC2B5",
"d+	c #BCC5CF",
"e+	c #B1CF96",
"f+	c #AFCF9E",
"g+	c #AECFA8",
"h+	c #AAD578",
"i+	c #ACD682",
"j+	c #CCC7C3",
"k+	c #ABD68C",
"l+	c #CACDB1",
"m+	c #BBD7C1",
"n+	c #B3DDA0",
"o+	c #B2DEAC",
"p+	c #DFCFCE",
"q+	c #DED1BC",
"r+	c #E6CDD7",
"s+	c #DBD3C6",
"t+	c #BDDEB4",
"u+	c #D2D5D8",
"v+	c #D8D4CF",
"w+	c #CBD7E2",
"x+	c #D9E7F1",
"y+	c #EBE4D6",
"z+	c #F4E1E0",
"A+	c #E9E5E1",
"B+	c #E4E6E9",
"C+	c #F1EAD3",
"D+	c #F2F3F5",
"E+	c #FBF7ED",
"F+	c #FFFFFF",
"R.M.I. +o.G.++#+s.++o. + +I.t.!._.I.q.I.9.t.o._. + +W.n.R.l.q.n.",
"E.H.l.#+W.M.M.#+r.s.^.G._.s.o.).9.9.o.o.#+_.i.t.r.o.t.o.x.6.:.G.",
"n.A.s.U.9.s. +=+n.t._.!.S ~.8.~.` !.o.G. +9.q.t.).'.l.I.^.n.l.q.",
"n.A.k.t.o.s.o.++I.t.I.I.t.U.@+b+%+e.D.++I.!.L.m._._.l.).n.n.o._.",
"x.6._.t.t.t.t.#+q.s. +=+D.Z.j+j+3+`.e.Y.U.o.q._._.i.G.l.6.6.6.6.",
"t.'.!.~.I.t.L.t.o.~.t.Y.3+A+B+s+a+3+`.%+%+D.l.!.!.l.o.G.^.:./.I.",
"#+!._.i.q.i.i.q.)._.f.3+3+y+D+y+c+Y.3+u.|.u.=+o.~.q.t.o.q.t._._.",
"W.o.,.i.l.o.o.~.~.a.Y.u.s+E+D+s+3+3+3+|.`.;.Y._.q.W._.W.t.W.~._.",
" +t.q.G.n.x.x.).o.u.|.a+`.A+A+j+3+j+Y.u.;.;.|.D.q._.V _.q.t.q.t.",
"l.t.s.l.r.n.6.6.D.|.|.a+s+j+v+c+`.3+`.u.f.|.;.Y.` V V T o._.t.W.",
"o.:.G.M.G.l.8.l.Y.k E c+v+0+0+3+a+`.3+u.u.0.+.|.a.!.1. ._.!.t.W.",
"!.#+l./.M.K.k.t.+.E e.p+j+v+`.q+a+3+u.|.0.;.b.+.f.o.t.o._.!.o.^.",
"U G.x.++G.~.~.a.E +...s+3+j+u.j+%+`.u.b.&+|.0.|.u.!.I.I.K._.o.n.",
"~.n.M.o.~.8.V a.k k e.Y.Y.3+|.`.c+u.Y.u.u.u.0.;.Y.l.l.~._.Z ^.'.",
"G.l.M.~.H.n.l.#.;.k +.Y.3+u.`.|.Y.3+|.0.u.;.0.;.Y._._.'.~.R T l.",
"q.o.l.l.l.'.M.@.a a E |.`.u.3+Y.|.3+b.|.;.;.0.u.Z.!._.V k.q._.o.",
"W.o.!.o.).'.n.;.E 0 k ;.+.3+Z.3+u.3+Z.0.;.;.|.0.u.q.m.).~.q.1. +",
"U._.t.t.~./.'.@.a : a Y.Z.u.`.j+j+Z.0+0.0.;.;.;.f.l.V ~.^.i.V _.",
"#+~.6.r.4.n.l.f.E a k |.c+3+u.j+u+3+j+b.;.b.&+|.f.x.).l.x.A.R !.",
" +n.i.M.'.n.V a.a k a +.|.`.b.&+3+0+u+3+;.@.0.;.a.~.o.o.6.l.l.t.",
"G.G.l.I.8.n.i.9.F E a k |.u.Y.3+u+0+0+Z.&+;.;.;.U.o.n.x.x./.l.t.",
"G.M.r.n.l.~.l.G.+.< k E E ;.|.;.0..+.+d.b..+;.f.t.t.o.t.l.).T o.",
"o.o./.n.l.i.A.n.f.< F l k k l F N 0.0..+d+0.|.f.s.H.G.{+G.q.o.t.",
"l.o.q.G.!.n.y.x.a.0.[ a b b b b b F d.0+x+.+d. +H.l.I.G.o.o.G.M.",
"l.t. + +I.M.~.l.l.;.k l k N F N ;.F 0.0+u+&+@+G.x.l. +++I. +M.I.",
"o.I.^.r.t.M.s.l.I.s.|.k < F ;.;.u..+w+w+.+&+ +I.M.W.W.{+^+{+,+H.",
"o.o.V ~.o.q.G.M.l.M.w.|.N a F F F u+d+Z.&+#+o.I.l.H.O.q.L.H.R.;+",
"L.!.!._.G.I.M.).n.x.B.9.Y.Y.N %.d.Z.u.d.9.I.G.M.o.I.q.I.I.).i.x.",
"~.~.~._.n.M.t.t.G.l.B.++_. .f.;.;.#.9._.S I.l.).o.B.~.s.o.~.n.'.",
"m.o.t.9.#+o.o.M.l.M.B.G.B.).i.l.8.).9.!.!.t.q.i.l.x.o.l.G._._.!.",
"I.o. + +W.G.s.o.M.B.G.l.M.B.n.i.~.o.!._.o.t.t.).!._.l.I.G.s.9. +",
"M.G.U. +l.G.#+a._.I.I.G.l.M.l.o.q.!.q.a.:.t.t.t.o._.I.,+G.t.t.I."};
