/* XPM */
static char * item_rot_2a_32_xpm[] = {
"32 32 255 2",
"  	c #000000",
". 	c #210804",
"+ 	c #412612",
"@ 	c #3E2F2B",
"# 	c #54402D",
"$ 	c #514039",
"% 	c #554D4E",
"& 	c #5F5047",
"* 	c #3D602D",
"= 	c #3E6725",
"- 	c #426E1E",
"; 	c #666060",
"> 	c #6D5F57",
", 	c #417039",
"' 	c #467530",
") 	c #536F52",
"! 	c #65696B",
"~ 	c #5F7033",
"{ 	c #457D29",
"] 	c #5E7346",
"^ 	c #55773E",
"/ 	c #537749",
"( 	c #5A792B",
"_ 	c #587937",
": 	c #488020",
"< 	c #517D2B",
"[ 	c #498218",
"} 	c #4E7E45",
"| 	c #4D8039",
"1 	c #786F6B",
"2 	c #557E3B",
"3 	c #7D6F64",
"4 	c #528935",
"5 	c #5B8736",
"6 	c #558942",
"7 	c #5F8743",
"8 	c #618B2E",
"9 	c #578F2F",
"0 	c #71863B",
"a 	c #5D8E26",
"b 	c #549125",
"c 	c #618B50",
"d 	c #588E52",
"e 	c #618C58",
"f 	c #8B7D71",
"g 	c #658A64",
"h 	c #6E8955",
"i 	c #5A923D",
"j 	c #877F7B",
"k 	c #63903E",
"l 	c #818185",
"m 	c #59934A",
"n 	c #60924A",
"o 	c #67904B",
"p 	c #748D4C",
"q 	c #6B951E",
"r 	c #5C9B44",
"s 	c #5E9C3A",
"t 	c #7C8E73",
"u 	c #639A45",
"v 	c #619B51",
"w 	c #6A9952",
"x 	c #6B9D34",
"y 	c #659F34",
"z 	c #699D3D",
"A 	c #60A223",
"B 	c #709B3D",
"C 	c #5FA234",
"D 	c #6F9C49",
"E 	c #669E61",
"F 	c #6F9B66",
"G 	c #719C5F",
"H 	c #789B57",
"I 	c #719B73",
"J 	c #65A341",
"K 	c #7C9965",
"L 	c #64A34B",
"M 	c #6BA14C",
"N 	c #9C8E80",
"O 	c #96908D",
"P 	c #68A358",
"Q 	c #71A159",
"R 	c #929397",
"S 	c #B18C91",
"T 	c #69AD3A",
"U 	c #69AD42",
"V 	c #68AD49",
"W 	c #6FAB49",
"X 	c #72AB40",
"Y 	c #6CAC50",
"Z 	c #6BAC57",
"` 	c #68B12C",
" .	c #75AA50",
"..	c #74AA57",
"+.	c #7FA755",
"@.	c #6FAF33",
"#.	c #6AB223",
"$.	c #76AD33",
"%.	c #6BAD5E",
"&.	c #72AB5E",
"*.	c #6EAC66",
"=.	c #68B236",
"-.	c #76AA67",
";.	c #7BAE4D",
">.	c #74AE75",
",.	c #A39D9A",
"'.	c #7CAE62",
").	c #8CAA5A",
"!.	c #82AC6B",
"~.	c #80AC77",
"{.	c #7DAC87",
"].	c #84AD62",
"^.	c #6DB743",
"/.	c #8FA96D",
"(.	c #70B64A",
"_.	c #74B643",
":.	c #6AB852",
"<.	c #71B651",
"[.	c #74B45F",
"}.	c #8BAA81",
"|.	c #76B458",
"1.	c #6FB65B",
"2.	c #78B452",
"3.	c #7BB448",
"4.	c #AC9F91",
"5.	c #A1A1A6",
"6.	c #72B566",
"7.	c #7EB358",
"8.	c #7DB35F",
"9.	c #76B46D",
"0.	c #C398A0",
"a.	c #70BD20",
"b.	c #7AB466",
"c.	c #89B15E",
"d.	c #7FB36E",
"e.	c #B69EA0",
"f.	c #71C032",
"g.	c #ABA5A1",
"h.	c #74BF3B",
"i.	c #7ABE32",
"j.	c #74BF43",
"k.	c #7FBD41",
"l.	c #75C04C",
"m.	c #74C053",
"n.	c #78BF5A",
"o.	c #77BF60",
"p.	c #7BBF53",
"q.	c #7DBF4C",
"r.	c #76BF67",
"s.	c #7DBD67",
"t.	c #7FBD61",
"u.	c #81BD5A",
"v.	c #82BC6D",
"w.	c #8ABA6E",
"x.	c #85BE52",
"y.	c #86BC68",
"z.	c #88BC61",
"A.	c #89BA76",
"B.	c #7AC077",
"C.	c #7CC070",
"D.	c #79C82A",
"E.	c #92BB68",
"F.	c #83BF78",
"G.	c #A1B2B5",
"H.	c #83C085",
"I.	c #7ECB1A",
"J.	c #8EC15F",
"K.	c #91BD85",
"L.	c #97BC7C",
"M.	c #80C844",
"N.	c #90BD8C",
"O.	c #80C93C",
"P.	c #7FC84C",
"Q.	c #9FBA7E",
"R.	c #C6AAAE",
"S.	c #85C931",
"T.	c #9ABD72",
"U.	c #82C754",
"V.	c #9ABA99",
"W.	c #82C75B",
"X.	c #8EBE9A",
"Y.	c #9BBB8E",
"Z.	c #7FC768",
"`.	c #81C761",
" +	c #B7B0AC",
".+	c #9FBD6C",
"++	c #BBB0A1",
"@+	c #84C66F",
"#+	c #B1B2B7",
"$+	c #8AC475",
"%+	c #89C662",
"&+	c #88C669",
"*+	c #8DC65A",
"=+	c #93C275",
"-+	c #91C27E",
";+	c #CDABB8",
">+	c #90C56A",
",+	c #8FC570",
"'+	c #89CF12",
")+	c #9AC36F",
"!+	c #8CCA50",
"~+	c #8FCB41",
"{+	c #8ECB49",
"]+	c #93CD32",
"^+	c #8CCC71",
"/+	c #8FCD5E",
"(+	c #8FCB7B",
"_+	c #8DCB83",
":+	c #8ECD68",
"<+	c #9ECC51",
"[+	c #94CC76",
"}+	c #96CC70",
"|+	c #9BCB7D",
"1+	c #9BCE6B",
"2+	c #9ECE63",
"3+	c #9CCC85",
"4+	c #98CC94",
"5+	c #9DCD76",
"6+	c #A6C989",
"7+	c #9CCD8C",
"8+	c #D6B8C0",
"9+	c #A7CD79",
"0+	c #A9CE6E",
"a+	c #9EDA0F",
"b+	c #ACCD82",
"c+	c #C9C1B8",
"d+	c #A9CE96",
"e+	c #A6CEA3",
"f+	c #A8CE9C",
"g+	c #CFC1AA",
"h+	c #BEC98F",
"i+	c #A4D284",
"j+	c #C4C3C3",
"k+	c #B6CC97",
"l+	c #B4CEA5",
"m+	c #AFD291",
"n+	c #B6D3B8",
"o+	c #AFDB8D",
"p+	c #ADDB96",
"q+	c #C0D0D8",
"r+	c #B4DB86",
"s+	c #AEDF86",
"t+	c #B7DB9B",
"u+	c #B6DDA4",
"v+	c #B7DEAF",
"w+	c #DED2BD",
"x+	c #DAD3CA",
"y+	c #D5D4D4",
"z+	c #C1DDB6",
"A+	c #E8E5E0",
"B+	c #ECE5D3",
"C+	c #E3E6EB",
"D+	c #DCEDF6",
"E+	c #FAF6E9",
"F+	c #FFFFFF",
"p.%+$+=+'.y.,+=+y.,+8.=+A.&+d...'.v.b.v.v.b.t.b.A.[+w.p.U.8.b.n.",
"q.W.8.A.A.J.u.w.7.b...s.[.[.[...d.~.'.s.$+b. .y.z.t.A.'.2.q.!.&+",
"u.k.'.L.~.t.E.|+7.!.&...P ..;.Y -.-.b.t.A.d.d./.W  .u.w.8.7.].c.",
"u.q.&.F.b.b.t.E.w.A.v.w.b.7.u.Y.V.G &.t.w.-.v.b.&.'.7.<.7.7.s.&.",
"p.2.8.s.v.A.A.=+b.8.=+$+8.&+}.j+c+}.b.t.8.8.b.&.-.p.&+7.;.;.3.3.",
"s. .&...v.w.y.y.t.Q '.y.n.8.,.c+x+Q.'.|.s.8.7.[.'.8.t.s...-.2.y.",
"L.[.'.2.y.|.2.s.Y -.6.s.<.!.4.c+x+++8.n.<.t.y.b.&.A.d.8.d.!.'.'.",
"-+s.<.2.|.b.8.&.|.|.|.|.'.L.,.c+B+ +w._. .d...&.d.A.!.$+v.A.Q '.",
",+d.b.y.2.p.<.|.o.<.t.b.8.}.O g+x+c+w.j.p.Y -.-.9.&.Q -.y.d.-.v.",
"8.y.s.7.u.2.3.3.2.p.o.Z.|.}.N c+x+j+L.l. .!.z.d.G Q P G s.-.b.A.",
"b.d.v.u.y.u.(.2.2.&.|.(.(.}.N x+ + +}.y.d.8.w.b.F *.-.>.&.Q A.$+",
"|.$+8.7.J.t.n.<.|.&.Y <.v ,.f x+c+++Y.y.8.'.Q b.A.'.A.b.....[...",
"M y.P.y.t.%.Z |.[.&.Q [.%.,.N c+g+ +}.&+b. .Q v.[.&.y.y.s.'.b.p.",
"..7.W.t...W Q |.8.|.%.6.Y ,.f g. +g.g.,+|.Y ..[.|.8.8.2.'.Q |.W ",
"y.u.7...n.2.|.7.2.2.&.&.P.,.f g.g. +,.y.b.b...L M -.'.V M M G '.",
"v.8.&.|.7.W W.8.3.u.8.&.2.O 3 ,. + +,...Q &.d.v Q G -.Q <.b.-.8.",
"$+b.&.8. .V p.b.[.7.|.Z 3.,.f O j+g.,.<.'...8.d.y.-.9...&.d.-.A.",
"Y.-.w.y...|. ...Y Q Q ..q.,.1 ,.c+#+O U ;. .y.&.t.t.P ..7.2.Q '.",
"=+ .;.u._.7.8.'...M P 8.'.O 3 g.#+j+,.M Q '.n.V ..p.|.7.p.3.Y &.",
"=+|.2.u.3.2.M |.7.b.-.-.b.,.j O  +j+,.Q -.b.&.(.Z ..8.t.2.7.|.y.",
">+y.8.,+W 7.2.;._.[.8.b.t.}.f N  +j+,.*.w.b.8.d.&+8.2.2.p. .7.v.",
"y.z.7.7.7...2.j.(.t.7.y.y.}.f f O 5.}.d.v.[.[.v.y.v.t.y.t. .Q 8.",
"y.8.2.p.b.<.j.p.p.t.t.u.t.}.j f j ,.V.=+A.b.|.y.t.t.&+A.t.b.b.v.",
"8.s.8.y.Q 2.q.q.y.z.|.p.n.!.j j 1 O Y.$+t.8.y.u.u.n.,+y.8.s.y.z.",
"7.w.A.,+v.u.|.7.7.x.7.u.u.!.j 1 j G.~.s.|.2.y.y.P.t.,+,+,+,+z.@+",
"[.&+..z.y.t.t.t.>+p.z.u.|.].O 1 O G.}.-.9...w.,+u.,+A.=+(+,+,+u.",
"o.s.Q ..8.s.y.z.t.*+>+%+v.n.,.1 j ,.P &.o.o.s.,+u.t.v.v.@+W.U.W.",
"y.[.|.'.8.v.t.2.x.q.U.u.[.W H ,.O }.L Q &.w.y.u.t.&+b.v.y.|.l.p.",
"..[...&.|.t.w.w.y.z.x.E.2. .3.}.O ..&.*.E y.8. .t.U.|.s.b.&.2.(.",
"[.[.d.d.-+t.'.z.u.*+u.z.u.2.|.2. .|.!.-.[.v.b.<.8.p.t.8.z.b.&.&.",
"y.8.A.A.,+z.y.z.u.u.z.z.*+u.2.2.&.8.&.-.b.d.b. .&.7.z.,+y.8.].A.",
"u.J.L.w.u.y.L.A.8.v.w.y.7.z.7.[.b.*.d.~.'.d.'.d.t.8.y.&+`.d.A.w."};
