/* XPM */
static char *orange_xpm[] = {
/* columns rows colors chars-per-pixel */
"32 32 4 1",
"  c #6B6B6B",  /* Background */
". c #FFA500",  /* Orange (Orange fruit) */
"X c #228B22",  /* Green (Leaf) */
"o c #000000",  /* Black (Outline) */
/* pixels */
"                                ",
"                                ",
"                                ",
"                                ",
"                                ",
"                                ",
"             ...                ",
"           ......               ",
"         ........               ",
"        .........               ",
"       ..........               ",
"       ....X.....               ",
"      ...X......                ",
"      ...X......                ",
"      ...X......                ",
"      ...X......                ",
"       ..X......                ",
"       ..........               ",
"        ..........              ",
"         .........              ",
"          .........             ",
"           .......              ",
"            ......              ",
"             ...                ",
"                                ",
"                                ",
"                                ",
"                                ",
"                                ",
"                                ",
"                                ",
"                                "
};

