/* XPM */
static char * item_rot_1d_48_xpm[] = {
"48 48 255 2",
"  	c #000000",
". 	c #260706",
"+ 	c #2D1C00",
"@ 	c #433618",
"# 	c #4C4138",
"$ 	c #396023",
"% 	c #62594D",
"& 	c #4D623D",
"* 	c #426A3B",
"= 	c #62642D",
"- 	c #516B30",
"; 	c #3F722D",
"> 	c #437221",
", 	c #487030",
"' 	c #477F2A",
") 	c #4B7E35",
"! 	c #4E7F1F",
"~ 	c #4E7D3E",
"{ 	c #776F61",
"] 	c #607C4D",
"^ 	c #54804E",
"/ 	c #5F7C5A",
"( 	c #59813A",
"_ 	c #607F3A",
": 	c #5D8132",
"< 	c #558432",
"[ 	c #5F8043",
"} 	c #508833",
"| 	c #618528",
"1 	c #4F8B25",
"2 	c #538746",
"3 	c #54883E",
"4 	c #5B8646",
"5 	c #598B2A",
"6 	c #519011",
"7 	c #877E70",
"8 	c #599240",
"9 	c #5A933A",
"0 	c #5D9147",
"a 	c #63903E",
"b 	c #5C914F",
"c 	c #668E4F",
"d 	c #848859",
"e 	c #6B924A",
"f 	c #66925E",
"g 	c #639735",
"h 	c #5D9A28",
"i 	c #5C9B20",
"j 	c #788E53",
"k 	c #6A9536",
"l 	c #5D9A31",
"m 	c #5E965E",
"n 	c #5C9A38",
"o 	c #66936B",
"p 	c #73905F",
"q 	c #72906C",
"r 	c #818F58",
"s 	c #5D9C45",
"t 	c #5B9D4F",
"u 	c #649B46",
"v 	c #659A4F",
"w 	c #609B57",
"x 	c #91897B",
"y 	c #6C9946",
"z 	c #679A57",
"A 	c #6F9858",
"B 	c #63A821",
"C 	c #6AA53C",
"D 	c #65A82D",
"E 	c #70A341",
"F 	c #68A735",
"G 	c #64A83D",
"H 	c #67A64B",
"I 	c #69A644",
"J 	c #60AA36",
"K 	c #6EA44A",
"L 	c #63A845",
"M 	c #66A652",
"N 	c #63A65E",
"O 	c #6DA451",
"P 	c #6AA558",
"Q 	c #999477",
"R 	c #6BA465",
"S 	c #6DA45E",
"T 	c #72A358",
"U 	c #76A167",
"V 	c #76A350",
"W 	c #9D9484",
"X 	c #7DA663",
"Y 	c #77A777",
"Z 	c #7FA75D",
"` 	c #88A469",
" .	c #85A57C",
"..	c #6BB154",
"+.	c #6DB247",
"@.	c #6DB061",
"#.	c #6CB24E",
"$.	c #6FB05B",
"%.	c #74B04B",
"&.	c #78AE54",
"*.	c #72B054",
"=.	c #75AE61",
"-.	c #77AE5A",
";.	c #71AF69",
">.	c #75B32E",
",.	c #77AD6F",
"'.	c #6CB62D",
").	c #7AAD67",
"!.	c #7CAD61",
"~.	c #6CB81D",
"{.	c #80AD59",
"].	c #74B43A",
"^.	c #7BB23A",
"/.	c #79B242",
"(.	c #80AC70",
"_.	c #6DB73B",
":.	c #A69E92",
"<.	c #A89E8C",
"[.	c #6CB743",
"}.	c #73B542",
"|.	c #A9A07B",
"1.	c #80B24E",
"2.	c #73B94D",
"3.	c #73B954",
"4.	c #7CB853",
"5.	c #80BB25",
"6.	c #72BB64",
"7.	c #74BB5D",
"8.	c #76BA6A",
"9.	c #7ABA64",
"0.	c #7AB970",
"a.	c #7CBA5D",
"b.	c #78B978",
"c.	c #82B95E",
"d.	c #7FB96A",
"e.	c #81B964",
"f.	c #88B762",
"g.	c #75C22A",
"h.	c #72C238",
"i.	c #84B779",
"j.	c #88B76B",
"k.	c #ACAB77",
"l.	c #87B771",
"m.	c #7AC13A",
"n.	c #82BF3C",
"o.	c #B2A996",
"p.	c #B1A99D",
"q.	c #79C05B",
"r.	c #78C34E",
"s.	c #78C71F",
"t.	c #77C355",
"u.	c #B2AC91",
"v.	c #79C447",
"w.	c #7FC256",
"x.	c #92B97F",
"y.	c #81C350",
"z.	c #99B87C",
"A.	c #A0B67C",
"B.	c #96BB69",
"C.	c #85C349",
"D.	c #88C251",
"E.	c #85C25E",
"F.	c #87C257",
"G.	c #7CC468",
"H.	c #9FB971",
"I.	c #82C08B",
"J.	c #80C373",
"K.	c #91C151",
"L.	c #8EC15D",
"M.	c #83C46D",
"N.	c #85C466",
"O.	c #80C661",
"P.	c #8AC26D",
"Q.	c #83C37C",
"R.	c #8CC267",
"S.	c #81C941",
"T.	c #91BE8D",
"U.	c #83CA34",
"V.	c #8EC082",
"W.	c #9BBB90",
"X.	c #89C374",
"Y.	c #92C16C",
"Z.	c #9BBA9F",
"`.	c #83CE0C",
" +	c #90C17A",
".+	c #92C174",
"++	c #9ABF7B",
"@+	c #89CC25",
"#+	c #BAB59A",
"$+	c #8CCB46",
"%+	c #86CB61",
"&+	c #BDB4A8",
"*+	c #BDB5A2",
"=+	c #89CC51",
"-+	c #BAB984",
";+	c #89CB73",
">+	c #8DCC59",
",+	c #8BCB6D",
"'+	c #8FCB64",
")+	c #96CF2B",
"!+	c #8ECB7B",
"~+	c #94CB6F",
"{+	c #98CD49",
"]+	c #93CB75",
"^+	c #97CD55",
"/+	c #94CB83",
"(+	c #98CC69",
"_+	c #92CB8B",
":+	c #9ACC63",
"<+	c #9EC98A",
"[+	c #9BCC77",
"}+	c #9DCC72",
"|+	c #9ACC7E",
"1+	c #9FCA84",
"2+	c #9DCA90",
"3+	c #9ECE5E",
"4+	c #97CD99",
"5+	c #A3CC80",
"6+	c #A6CC77",
"7+	c #B0CB6C",
"8+	c #A4CB9C",
"9+	c #AFCA80",
"0+	c #C5C290",
"a+	c #A9CE6D",
"b+	c #B6C979",
"c+	c #AFCA87",
"d+	c #C4C2A5",
"e+	c #C9C0AD",
"f+	c #9CDC08",
"g+	c #C8C0B3",
"h+	c #AECB93",
"i+	c #A5CFAA",
"j+	c #A9D28B",
"k+	c #A8D295",
"l+	c #A6D671",
"m+	c #B4CEA2",
"n+	c #B4D0B1",
"o+	c #AED4A4",
"p+	c #A8DA84",
"q+	c #CDCDAF",
"r+	c #B3DA85",
"s+	c #B1DA8D",
"t+	c #D3CCB8",
"u+	c #ADDD81",
"v+	c #D3CCBF",
"w+	c #B9D79D",
"x+	c #B2DC9D",
"y+	c #BFDBAF",
"z+	c #B8DFB0",
"A+	c #C2DEBE",
"B+	c #DCD7C2",
"C+	c #DED7CA",
"D+	c #E8E2CD",
"E+	c #E9E2D5",
"F+	c #FFFFFF",
"a.F.R.l. +]+c.!.P..+Y.++j..+Y.!.a.[+i.f.~+ +z !.P e.9.,.U M.(.V.=.a.d.=.i.|+|+x.c.w.E.4.).d.a.t.",
"y.=+N.d.j.l.j.j.L.R.{.++f.E.f.).N.|+ +j.d.d.T v j. +_+M.). +l.i.X *.9.d.l.F.l.d.d.%.y.w.c.(.,.3.",
"S.>+F.2.X.V.x.f.L.w.-.++{.4.(.T %.a.S H 9.-.T T (.).(.=.!.e./+e.=.%.!.d.f.%.a.l.l.!.%.y./.f.l.P.",
"a.D.n.&.Y.x.x.!.f.R.++++1.&.e.=.O T P S &.%.%.H R U R 9.9.N./+d.(.U l.` %.K O 4.P.l.Z 4.4.c.!.j.",
"w.4.].-.X.V.i.P.e.E.++f.f.d. +l.X j.=.A &.v.E.m+e+W.!.e.d.E.e.X ).X.l.,.v K {.4.+.c.B.f.!.-.T X ",
"O.&.v.M X.i.!.-.j.a.!.R.P.l.j.j.j.P.9.,.4.h.h+p.:.*+` T j.E..+=.;.l.d.@.=.=.!.c.K *.%.c.{.R.d.!.",
"r.q.2.=.d.P.d.c.l.l.j.1+d.j.R. +/+e.4.l.P.4.#+p.v+*+#+j.a.E.{.j.-.d...X =.=.c.R.E.2.2.4.2.1.+.4.",
"c.E.*.-.U *.j./+ +X.V..+e.O v (./+.+3.9.w.|+:.B+C+v+#+j.&.2.3.R.-.j.d.P S =._.4.,+c.&.T V 1...4.",
"j.a.E S U #.d.x.-.c..+{.N.a.P $.N.a.E.9.*.z.&+C+g+v+d+z.c.-.R.c.a.&.%.=.9.*.e.9.).P.T X ` {.q. +",
"2+c.P (.z *.X.a.4.2.d.l.*.4.;.6.9.M.2.T X u.t+v+&+t+v+z.e.q.7.%.e.e.j.9.P v l.d.e.-.0.U ).e.O ).",
"/+).d.$.2.c.O *.=.*.!.$.M 7.,.=.7.a.7.-..+#+t+&+#+g+t+m+4.2._.e.V.e.,.T ).i.V.V.X.d.;.l.i.).j.!.",
"/+!.9.#.4.&.a.4.M.e.*.$.7.-.O *.7.7.!.(.l.e+B+C+*+p.g+d+C.2.#.!.).*.z $.d.V.i.T l. +X.j.V.v ).X ",
"]+d.).0.7.P.&.4.4.4.I a.7.e.3.q.9.=.$.).(.e+v+v+&+t+#+d+R.h.w.4.K =.@.=.).).U A ).(.l.E l.).X l.",
"R.d. +l.*.c.1.a.4.1.%.%.4.e.2.4.M.d.d.$.z.v+D+t+*+g+&+d+R._.%.4.&.X  .j.l.$.A z ).A i.).(.).X l.",
"{.K l.l.3.4.f.!.4.%.2.%.*.%.4.w.d.O.3.$.A.t+C+o.t+e+&+e+++2.O (.x.F.Y.).P v ,.z A U 9.R U !. +X.",
"0.S ` X.-.c.R.f.&.}.}.a.&.-.=.-.3.2.2.$.W.v+C+o.v+v+t+g+h+N.(.!.c.e.l.;.R S R U (.U ).c =.X V.Q.",
"$.i.V.e.E.&.Y.=+a.*.2.4.w.O Z 3.+.C u =.#+v+t+:.g+g+*+&+W.j.P.a.=.(.x.U i.U (.x. +).f.H !.l.l.).",
"P j. +=.c.&.c.F.e.7.3.2...,.-.K 4.7.0 O #+t+C+g+t+g+&+e+#+j.d.H Z 0 V ).V.(.{.l.P.-.&.O T $.*.*.",
"u a.P.r.E.j.P.7.=...*.#.-.U S O T 9.@.@.W.o.p.B+t+&+e+g+d+P.P.*.%.y !. +3.=.T Y.0.R.E.a.` ).).2.",
"F *.E.n.E..+d.+.u z M.9.e.e.=.z ).=.P P u.&+g+e+t+v+B+g+#+P.q.-.O T l.J.@.9.).e.a.j.Q.=.T 9.O %.",
"!.&.F.R.a.*.*.}.#.P -.-.3.w.*.S P ).O +.:.t+g+B+&+g+&+p.#+N.3.a.O O $.*.-.$.a.9.%.O !.!.T {.H %.",
"P.3.N.E.!.&.q.2.a.=.-.3.3.4.K $.;.@.w.O.#+B+C+v+g+g+e+e+d+d.).-.j.&.*.u O M ).e.K I O G v S ).O ",
"X.*.c.a.O -.F.%.2.w.c.c.4.v.a.).=.$.3.C.o.B+B+g+&+e+g+g+d+=.,.,.).i.O T T =.T =.-.O O !.T c d.a.",
"d.e.-.!.*.a.!.&.C w.R.-.2.4.E.e.!.=.&.4.o.B+B+o.e+t+&+g+e+X O =.$.l.*.v S (.S ;.z T *.-.l.).i.$.",
"P.P.7.T =.e.3.*.I 2.L.d.$.c.{.-.).H 2.w.u.B+C+o.e+v+e+e+e+#.U !.*.e.S l.j.e.(.;.R V -.d.(.U V. +",
"8+(.).i.l.&.O O *.w.1.a.T !.{.&.$...2.'.u.v+C+o.t+t+g+e+q++.c.{.%.f.).l.E.N.(.X =.O -.4.-.S I l.",
"T.x.c l. +j.-.$.4.K K $.O T u A P a.y.}.u.B+B+#+t+p.g+e+d+G K &.V Y.!.T !.w.3.M P *.!./.4.A S ).",
"j.l.0 1.a.c.}.%.F.a.=.=.a.u H c U c.!.&.:.t+t+d+B+t+C+*+p.v V V !.e.+.O O 3.2...e.c.a.m.v.K P X ",
"2+e.4.u 4.r.+.%.4.K -.9.a.O a.).U O d.e.:.g+&+g+v+e+g+<.u.T f =.9.-.%.I S =.a.*.T q.F.m.%.%.S T ",
"P.d.3.*.c.c.%.}.4.A *.*.c.-.9.d.T ).).e.u.*+#+g+*+o.&+&+o.T ).=.9.=.M 3...T -.e.-.e.2.4.e.c.4. +",
"'+e.d.a.j.]+}.%.4.4.4.1.C.%.9.9.-.9.e.R.W.*+&+B+*+<.p.B+#+S d.d.-.-.$.l.E.e.&.4.2.r.r.3.&.4.7. +",
"N.P.a.a.E.E.*.4.c.e.E.2._.3.a.q.4.a.c.!.A.e+v+B+:.:.&+C+u.(.l.i.-.d.).(.X.Y.j.4.%.a.E.4.%.X *.$.",
"e.~+c.{.%.&.4.!.V &.4.v.+.r.e.a.w.P.P.e.z.g+B+C+e+o.g+B+A.X.d.X.$.*.9.l.c.R.).e.j.j.N.K *.U -.e.",
"!.j.a.&.4.4.!.3.3.h.2.w.4.N.e.e.c.c.c.E.l.e+B+B+v+e+v+g+x.]+P.9.-.*.e.j.e.4.a.R.d./+N.-.d.=.j.d.",
"j.j.c.a.R.-.-.%.4.r.4.4.f.R.N.N.3.y.&.2.E.*+B+t+v+B+g+*+z.P.Y. +d.a.P.c.d.9.w.]+q.P.a.M.G.O.Y.f.",
"4.-.d.).f.M.S %.4.y.y.4.j.L.E.4.+.a.a.%.c.#+t+e+d+g+g+*+l.!+a.c.!.j.e.F.w.3.a.P.O.P.c.P.e.f.E.E.",
"&.j.(./+j..+).F.E.*.-.4.-.D.c.4.a.a.w.a.c.#+t+e+e+e+&+#+!.d.*.2.4.e.d.E.S.2.c.Y.P..+R.P.P.E.e.P.",
"%.l.J.l.-.P..+E.w.a.c.c.j.L.C.4.w.a.a.&.4.u.g+e+&+&+*+:.(.i.d.%.#.e.P.e.E.O.P.j. +]+ +1+l.Y.R. +",
"=.d.M.-.&.f.j.4.N.j.&.e..+R./.E.L.w.-.a.w.A.e+t+*+&+*+A.l.X i.T a.(.++R.F.'+X.i.++~+!+/+,+~+F.a.",
"=.9.d.O O -.!.l.9.N.c.e.e.a.D.R.'+R.M.G.a.z.*+&+*+*+*+z.S =.9.).4.9.d..+c.E.!.Q.8.l.X.a.E.F.r.%+",
"M.).X.).=.e.a.N.e.Y.c.a.*.4.y.E.D.4.d.9.q.e.&+&+p.p.#+X H P =.$.).e.d.E.E.E.9.l.d.0.9.O.2.4.q.=+",
"M.P M *.-.!.4.X.l.E.-.%.4.F.2.C.L.c.=.H C &.A.e+d+e+o.P #.S =.9. +l.d.F.e.j.Y.d.l.P.d.M.#.%.y.4.",
"$.=.-.K ).T K e.a.j.j.j.R.E.a.v.R.Y.4.K O %.!.*+g+&+` *.$.;.f T X.a.a.+.e.c.y.*.*.e.9.!.T 1.%.+.",
"..P E.=.d.=.d.N.N.X R.R.N.R.E.q.F.++c.4.*.I y.z.o.W P X ,.S S a.P.a.*.-.a.d.w.a.!.j.e.l.=.T !.K ",
"8.).a.M.).j._+j.a.X e.c.4.F.E.E.E.E.w.F.K *.3.-.&.K a.).U =.*.9.l.d.-.%.-.N.+.3.e.4.R.J.).=.=.,.",
"X.d.a.X.x.(.X.P.f.).e.c.c.R.c.E.R.c.F.w.4.4.a.&.O 7.9.P S X e.d.(.).a.%.9.T &.a.R.P.e.E.).l.{.V.",
"w.Y.j. +/+ +e.w.e..+P.d.a.4.&.R.Y.R.c.y.E.{.3.H S =.$.0.i. .!.l.0.i.d.&.$.z l.c.E.[+d.d.0.(./. +",
"c.c.R.x./+e.w.3.P. +V.l.!.e.i.P.j.c.9.c.,+a.4.e.).).z ;.V.(.T X.0.!.!.i.M.c.!.j.~+F.w.e.d.V.%. +"};
