/* XPM */
static char * item_rot_1c_48_xpm[] = {
"48 48 255 2",
"  	c #000000",
". 	c #2A0602",
"+ 	c #230900",
"@ 	c #2B1B01",
"# 	c #392B0D",
"$ 	c #3C2F24",
"% 	c #4C4237",
"& 	c #534932",
"* 	c #5B5245",
"= 	c #4E5E3B",
"- 	c #48692B",
"; 	c #446A3C",
"> 	c #56662E",
", 	c #406E2C",
"' 	c #3F7021",
") 	c #6A6152",
"! 	c #497C2C",
"~ 	c #497C33",
"{ 	c #53793C",
"] 	c #78705E",
"^ 	c #787066",
"/ 	c #4C8328",
"( 	c #607D29",
"_ 	c #558128",
": 	c #597F38",
"< 	c #667B42",
"[ 	c #6E793D",
"} 	c #5B8033",
"| 	c #54804E",
"1 	c #607C52",
"2 	c #4F8342",
"3 	c #4D871E",
"4 	c #508916",
"5 	c #538636",
"6 	c #53863C",
"7 	c #7D7943",
"8 	c #5C8445",
"9 	c #847B6B",
"0 	c #5C8F34",
"a 	c #53923F",
"b 	c #5C903F",
"c 	c #5C9046",
"d 	c #5B904E",
"e 	c #867F7A",
"f 	c #658D4E",
"g 	c #60922B",
"h 	c #6A8F37",
"i 	c #5A9622",
"j 	c #589537",
"k 	c #59962D",
"l 	c #758B50",
"m 	c #6B9143",
"n 	c #6B9149",
"o 	c #8D8474",
"p 	c #62945E",
"q 	c #6C915F",
"r 	c #63973C",
"s 	c #6A926A",
"t 	c #788E67",
"u 	c #818F58",
"v 	c #5C9C48",
"w 	c #5B9C4F",
"x 	c #659A48",
"y 	c #659A4E",
"z 	c #649A57",
"A 	c #6F9758",
"B 	c #63A13F",
"C 	c #62A146",
"D 	c #958D7D",
"E 	c #6EA13A",
"F 	c #68A33A",
"G 	c #6BA331",
"H 	c #63A720",
"I 	c #6CA146",
"J 	c #63A630",
"K 	c #63A63C",
"L 	c #74A046",
"M 	c #96908A",
"N 	c #66A754",
"O 	c #6DA552",
"P 	c #6CA558",
"Q 	c #68A846",
"R 	c #74A356",
"S 	c #72A35E",
"T 	c #71A366",
"U 	c #68A84C",
"V 	c #69A661",
"W 	c #9E9585",
"X 	c #72A876",
"Y 	c #7FA67A",
"Z 	c #6CB13E",
"` 	c #83A66D",
" .	c #86A664",
"..	c #8AA37D",
"+.	c #6CB146",
"@.	c #6CB14D",
"#.	c #88A75D",
"$.	c #73AF4D",
"%.	c #6BB154",
"&.	c #73B236",
"*.	c #72B054",
"=.	c #6CB530",
"-.	c #7AAE52",
";.	c #6DB627",
">.	c #6CB539",
",.	c #72B06A",
"'.	c #70B25C",
").	c #A79D8B",
"!.	c #6FB262",
"~.	c #A69D91",
"{.	c #76B062",
"].	c #78B05C",
"^.	c #7AB242",
"/.	c #7FAE60",
"(.	c #7EAE69",
"_.	c #7CAE71",
":.	c #78B34A",
"<.	c #80B24A",
"[.	c #AAA386",
"}.	c #70BE21",
"|.	c #70BB46",
"1.	c #78B947",
"2.	c #74BA4E",
"3.	c #73BA55",
"4.	c #72BA5C",
"5.	c #7AB85C",
"6.	c #7CB855",
"7.	c #83B65A",
"8.	c #ADA599",
"9.	c #AFA592",
"0.	c #75BD66",
"a.	c #73C234",
"b.	c #78BC6C",
"c.	c #7BBB74",
"d.	c #7CBC66",
"e.	c #77C145",
"f.	c #77C23D",
"g.	c #81BB6C",
"h.	c #7DC135",
"i.	c #83BB66",
"j.	c #8AB96A",
"k.	c #89B973",
"l.	c #87B97B",
"m.	c #82C044",
"n.	c #77C255",
"o.	c #95B76B",
"p.	c #7EC155",
"q.	c #7BC25C",
"r.	c #79C44F",
"s.	c #82C063",
"t.	c #84C05D",
"u.	c #7AC82B",
"v.	c #8BBF62",
"w.	c #B6AD9A",
"x.	c #7CC465",
"y.	c #B6ADA1",
"z.	c #7ECB1A",
"A.	c #83C552",
"B.	c #88BF8C",
"C.	c #95BC81",
"D.	c #9FBA80",
"E.	c #85C931",
"F.	c #89C55A",
"G.	c #A0B994",
"H.	c #95BD8F",
"I.	c #82CA3E",
"J.	c #8DC554",
"K.	c #A3BC72",
"L.	c #82C675",
"M.	c #81CA4A",
"N.	c #84C66F",
"O.	c #BAB297",
"P.	c #86C57E",
"Q.	c #84C95C",
"R.	c #83C963",
"S.	c #92C55C",
"T.	c #8BC576",
"U.	c #8DC570",
"V.	c #A3BF67",
"W.	c #89CF12",
"X.	c #93C37D",
"Y.	c #92C385",
"Z.	c #8BC864",
"`.	c #95C470",
" +	c #8AC86B",
".+	c #9CC17D",
"++	c #94C477",
"@+	c #9FC174",
"#+	c #94C765",
"$+	c #BEB5A2",
"%+	c #8ECB4E",
"&+	c #93C76B",
"*+	c #9DC46A",
"=+	c #BDB5A9",
"-+	c #90CC42",
";+	c #93CD32",
">+	c #92CD79",
",+	c #92CF63",
"'+	c #96CE6E",
")+	c #9FCE53",
"!+	c #99CF5E",
"~+	c #97CD85",
"{+	c #95CE8D",
"]+	c #9ECF66",
"^+	c #97CD99",
"/+	c #9CCE7C",
"(+	c #CDBBAB",
"_+	c #C6BEB1",
":+	c #C8BEAB",
"<+	c #A1CF72",
"[+	c #A6CB90",
"}+	c #A4CB9C",
"|+	c #C4C0AB",
"1+	c #9FCE8F",
"2+	c #A6CE7F",
"3+	c #9EDA0F",
"4+	c #B0CB80",
"5+	c #C0C682",
"6+	c #A2CF88",
"7+	c #B5CA80",
"8+	c #AACF74",
"9+	c #C8C397",
"0+	c #ACCF8A",
"a+	c #A5CFAA",
"b+	c #B6CD94",
"c+	c #D6C4B3",
"d+	c #AED398",
"e+	c #D1C6B3",
"f+	c #CFC7BA",
"g+	c #B5D0B1",
"h+	c #CDC9B4",
"i+	c #AED4A4",
"j+	c #B7D2A6",
"k+	c #AEDD9E",
"l+	c #DFCCBB",
"m+	c #B5DD8D",
"n+	c #DACFBC",
"o+	c #D5D1BC",
"p+	c #D7D0C3",
"q+	c #DECEC3",
"r+	c #B7DDA1",
"s+	c #B8DFB0",
"t+	c #C2DEBE",
"u+	c #E6D5CA",
"v+	c #DED8C4",
"w+	c #E1D8CB",
"x+	c #DBDACB",
"y+	c #E3E1D3",
"z+	c #E9E0D3",
"A+	c #EFDFD4",
"B+	c #E8E2CD",
"C+	c #F0E9DD",
"D+	c #F9F4DE",
"E+	c #FAF4E6",
"F+	c #FFFFFF",
"t.A. +k.X.++7./.j.++j.C.i.++T./.5.++k.v.'+l.A /.A j.d.,.T g.(.C.S 5.j.{.l.++.+k.t.p.t.p.].d.5.n.",
"M.%+s.i.j.j.(.j.F.#+].++j.v.i.(.s./+++i.s.g.S y j.X.~+g.d.k.g.l.T *.5.g.k.A.k.g.(.*.m.p.t._._.3.",
"m.J.t.$.k.C.C.i.v.p./..+7.7.(.P :.d.V C d.*.R O (.{._.{.{.s.Y.i.{.$./.i.7.:.5.k.k./.:.A.|.j.k.U.",
"7.r.f.6.U.C.l.(.i. +.+.+<.R (.{.O S P S -.$.+.y T T V 5.d.s.~+(._.T g.o.-.O $.n.U.k.R -.6.7.S j.",
"p.p.1.'.k.Y.l.k.i.t.@+7.v.g.k.g. .g.{.A /.[+|+|+|+G.k.i.d.t.s./.b.l.g.,.y $.7.6.+.].o.j./.*.P S ",
"d.6.e.N T.l.{.].g.d./.j.j.k.g.i.g.k.{.l.|+|+~.~.8.y.|+G.g.t.`.{.,.k.g.'.(.{./.t.U *.Q 7.7.i.g.].",
"r.n.:.].g.j.g.7.k.k.(./+i.i.i.k.~+i.k.h+w.D |+h+h+|+~.h+b+t.5.g.].b.N T {.'.7.v.t.2.2.6.1.<.:.:.",
"t.t.O /.T *.j..+X.T.X.U.d.O y /.X..+|+8.9.p+v+v+w+v+o+w.=+++6. +R (.i.R T {.1.2.&+5.-.R L :.*.6.",
"g.5.Q P S *.s.l.].5.U.]. +5.P %.i.[+=+~.p+z+p+p+p+o+p+o+=+|+k.5.p.-.6.].{.$.s.d.(.U.R ` ` /.5.++",
"6+5.O _.A $.T.].6.6.g.k.*.6.,.{.Y.h+~.o+_+w+o+y.$+=+f+p+o+$+D.$.i./.j.5.P y k.d.{.5.b.` (./.O (.",
"Y.(.g.'.|.s.U $.{.].{.'.U 5.(.{.b+y.|+w+w._+y.9.=+w+f+_+v+_+$+k.X.i._.S ,.l.l.Y.T.d.,.g._./.g./.",
"C./.5.O 6.*.5.6.g.5.O '.5.].O i.|+~.w+w+_+y+_+w.w.=+8.w.f+w+y.G.(.*.z *.(.C.l.R k.T.T.g.l.y (./.",
">+j.(.b.5.U.6.6.p.6.B 5.5.i.3.[+y.h+y+w+f+y+p+w.y.y+_+w.=+_+=+O.R S {.{.,.T T A S k.k.L k.{.{.j.",
"&+g.++g.6.i.:.7.7.1.$.+.6./.6.b+~.w+z+y+p+f+_+9.=+x+_+w.|+_+_+|+C. .k.j.l.P y P (.P l.{.(.{.(._.",
"/.I k.g.*.5.i./.6.:.2.:.*.:.i.G.=+y+z+z+y.y.$+_+e+p+_+w.:+f+|+f+D.7.j.(.A x T z A T d.!.T d.k.T.",
"d.P ` T.].t.i.v.-.^.e.5.*.].k.[.f+z+w+z+y.8.8.f+w+o+_+o+f+h+$+v+O.k.j.T T V T s Y X (.f {.(.X.P.",
"'.c.X.i.p.-.U.F.5.*.2.5.p.R C.w._+w+w+v+w.8.8.f+h+p+h+f+=+).y.v+|+k.C.T l.T ` l.l.{./.I {.k.l.b.",
"O i.T.5.p.-.s.t.d.0.*.2.'.,.D.$+o+f+w+p+y.y.w.n+h+o+|+f+=+).=+n+_+` R (.Y._.-.U. +].].A S *.-.-.",
"x s. +2.F.j.j.3.!.%.*.@.S S G.$+|+~.y.p+n+z+v+h+o+f+=+_+_+9.y.x+|+../.X.4.].R j.g.N.t.].(.{.d.:.",
"F $.Z.f.Q.U.g.Q x z g.5.i.i.G.y.o+|+o _+y._+y.o+v+f+_+v+p+p+=+f+_+G.k.N.!.d.(.i.5.j.T.{.P d.O :.",
"/.$.F.Z.p.].*.|.$.P ].*.*.p.O.y.o+=+$+p+y.p+y.=+f+_+_+p+|+y.8.y.y.O.'.*.].'.5.i.$.O (.S R /.U $.",
"&+3.t.t.].*.5.1.6.].].2.3.p.=+~.o+f+p+v+f+z+f+h+_+_+_+f+=+h+=+|+_+O.*.x O O (./.O Q O B x S {.O ",
"U.*.7.-.O ].t.1.1.p.t.7.1.r.|+8.o+v+w+w+f+f+=+|+_+=+=+h+_+_+$+p+o+O.O R S '.P {.].U P {.O y j.5.",
"g.i.{./.I 5./.-.Q A.j.].1.6.y.~.o+p+w+y+_+=+y.h+=+_+f+:+|+e+9.v+o+O.*.y S _.T ,.O O *.].g.(.l.*.",
"N.g.4.P S s.-.O Q 1.v.g.*.s.$+9.o+p+w+z+_+~.).y.h+o+o+o+|+W 8.w+p+w.S l.i.(.(.,.!.R *.g._.T Y.X.",
"}+_.,.k.g.6.O O *.p.-.5.O /.O.8.o+o+p+z+f+9.w._+f+o+h+p+f+8.=+p+o+w.(.k.5.s.` S {.O ].-.].S C g.",
"H.C.A k.k.j.].'.].O O *.O S G.8.h+p+p+v+p+9.$+p+f+_+w.h+f+8.$+v+_+w.7.S /.q.3.O P -./.1.6.A S /.",
"j.k.c -.q.s.Z $.t.].{.{.5.x G.9.h+h+p+f+p+8._+f+p+o+h+v+y+w.|+_+_+G.|.O O 3.2.*.(.7.6.h.m.I P T ",
"[+/.6.y 6.2.+.L 6.I ].{.6.O D.8._+p+f+_+v+_+_+p+w+_+y.w+f+W |+D y.w.:.Q S S ].$.S n.t.f.$.:.V S ",
"Z.(.3.3.t.t.$.Z 6.A P *.t.].l.8._+$+W W _+o+).p+=+w.)._+=+$+z+y.=+G.O 3.*.S ].d.].d.2.6.7.s.6.X.",
"&+i.g.5.j.U.+.:.6.2.6.:.m.@.k.8.$+o+w.W x+v+$+_+_+).~.9.~.h+w+p+_+C.'.g.v.7.R 6.1.2.n.2.-.6.].T.",
"j.U.].5.t.s.*.6.7.5.q.+.f.3.U.9.y.f+=+|+w+y+p+~.w.W ~.9.$+w+v+p+=+k.{._.T.`.j.5.$.t.t.3.$.{.].*.",
"5.`.s.5.$.-.7./.R -.6.e.+.n.j.G.8.o+o+p+p+v+v+h+y.y.y.9.o+w+o+o+w./.d.k.7.j./.i.g.j.i.Q *.S ].t.",
"i.j.5.-.1.6./.:.2.f.|.p.6.s.j.b+9._+o+p+p+p+p+v+o+:+$+o+o+_+f+_+[.].i.j.i.5.t.Z.g..+i.].(.{.j.i.",
"j.j.7.7.j.].].$.6.1.2.2.v.v.s..+w.=+o+o+o+o+f+p+f+v+o+v+_+_+=+=+D.5.k.5./.5.p.>+p.j.5.g.d.s.U.i.",
"-.].i.(.i.g.S $.6.r.6.:.j.F.s.7.O.w._+o+o+_+$+y.|+f+h+=+|+_+y.y...j.i.p.p.3.5.U.s.j.5.j.d.s.s.t.",
"].j.k.~+i.`.(.p.t.*.].6.].A.t.6.D.=+_+h+o+:+h+:+_+|+|+=+=+_+$+9.6.i.g.t.m.1.7.`.U.`.v.U.k.t.i.g.",
"@.k.g.g.].`.++t.p.5.7.t.j.F.m.7.s.O.=+h+h+|+_+=+h+$+$+=+$+w.$+D.@.d.T.i.t.t.g.g.++'+++/+k.&+v.T.",
"{.g.s.*.-.7.j.6.s.i.-.d.`.v.1.t.Z.D.=+_+$+o+$+|+$+=+y._+y.=+8. .5.g.~+v.t.#+T.l.X.U.>+X.&+>+p.6.",
"{.0.d.O O ].].g./.s.7.i.i.5.J.#+#+U.G._+=+|+$+_+w.8.8.y.$+y...(.5.d.g.++t.F.{.l.b.g.T.q.t.F.r.Z.",
"g.,.N.,.{.5.q.g.i.U.5.5.*.6.A.F.A.6.k.$+_+e+:+=+W =+=+y.=+).(.*.(.i.g.F.t.s.d.g.g.c.x.s.2.r.t.A.",
"i.'.N *.'./.6.k.(.t.].%.6.t.1.M.F.7.{...|+:+_+_+$+|+|+:+~.` S {.++k.d.t.5.j.U.d.k.g.g.g.@.|.r.2.",
"*.{.*.U (.R +.7.q.j.i.j.v.s.7.m.v.j.6.Q ` w.=+:+_+=+w.[.T ,.p P T.5.6.+.i.7.A.*.*.i.d.{.P <.:.Z ",
"%.P t.,.g.(.(.i.i.(.i.Z.Z.S.F.t.F..+7.6.*.].o.9.[.W ..` _.V V 5.T.5.3.*.5.i.A.d./.i.i.j.{.R /.Q ",
"(.{.5.g.(.k.{+g.5.S i.t.6.p.F.t.t.J.7.t.*.*.3.].6.U 5.(.T S *.5.k.g.'.@.]. +|.3.i.6.v.k.(.{.]._.",
"k.(.5.k.C.g.U.N.i./.i.7.t.Z.t.t.s.6.J.p.5.6.5.$.O '.5.P S /.(.(.g.(.5.$.d.P 3.5.Z.j.i.s./.k.-.P.",
"p.&+j.T.C.C.i.q.i.k.&+g.6.6.]. +U.v.7.M.t.5.3.y V {.'.c.l.Y /.g.,.k.(.6.'.A j.t.Q./+g.g.g._.:.T.",
"t.t.v.C.Y.i.q.4.U.X.C.l./.i.k.j.j.t.5.6.&+5.6.d.(.(.P ,.P._.R l.b./.(.l.i.5.].(.&+t.t.i.g.Y.$.l."};
