/* XPM */
static char * item_rot_2b_64_xpm[] = {
"64 64 256 2",
"  	c None",
". 	c #3B322F",
"+ 	c #473930",
"@ 	c #443B39",
"# 	c #4F443E",
"$ 	c #4D4748",
"% 	c #5E4441",
"& 	c #584641",
"* 	c #554A44",
"= 	c #5A504B",
"- 	c #5C5046",
"; 	c #684F4C",
"> 	c #63514B",
", 	c #665145",
"' 	c #555559",
") 	c #635155",
"! 	c #5E5354",
"~ 	c #595553",
"{ 	c #615445",
"] 	c #605651",
"^ 	c #63564C",
"/ 	c #715751",
"( 	c #6C5957",
"_ 	c #6E5951",
": 	c #695B51",
"< 	c #615D5C",
"[ 	c #635D57",
"} 	c #655D52",
"| 	c #665C5C",
"1 	c #685C57",
"2 	c #626165",
"3 	c #775C56",
"4 	c #746058",
"5 	c #6B6357",
"6 	c #6E625D",
"7 	c #74605F",
"8 	c #6D6262",
"9 	c #706258",
"0 	c #686463",
"a 	c #6A645E",
"b 	c #71695D",
"c 	c #7B665E",
"d 	c #736869",
"e 	c #76685E",
"f 	c #756863",
"g 	c #6E6A69",
"h 	c #706A63",
"i 	c #7B6866",
"j 	c #6D6E72",
"k 	c #816C64",
"l 	c #796E6F",
"m 	c #7B6E69",
"n 	c #7D6E64",
"o 	c #74706F",
"p 	c #76706A",
"q 	c #797164",
"r 	c #7C756F",
"s 	c #827469",
"t 	c #827570",
"u 	c #817576",
"v 	c #7B7776",
"w 	c #77787C",
"x 	c #7F776B",
"y 	c #89746B",
"z 	c #8F727E",
"A 	c #897573",
"B 	c #807973",
"C 	c #86786D",
"D 	c #847980",
"E 	c #8F7A70",
"F 	c #877C7D",
"G 	c #897C77",
"H 	c #8B7C71",
"I 	c #827E7D",
"J 	c #847E77",
"K 	c #867E71",
"L 	c #7E7F83",
"M 	c #968078",
"N 	c #918278",
"O 	c #938272",
"P 	c #90827E",
"Q 	c #898483",
"R 	c #8B847E",
"S 	c #8D8477",
"T 	c #848683",
"U 	c #998283",
"V 	c #B17B85",
"W 	c #918586",
"X 	c #8A878C",
"Y 	c #84898C",
"Z 	c #8F868C",
"` 	c #96848C",
" .	c #9D867B",
"..	c #98887D",
"+.	c #8F8A89",
"@.	c #918A84",
"#.	c #938A7D",
"$.	c #8A8C89",
"%.	c #968984",
"&.	c #9C9078",
"*.	c #A48D83",
"=.	c #9E8F84",
"-.	c #9B8F90",
";.	c #9D8F8A",
">.	c #BC8591",
",.	c #949196",
"'.	c #999184",
").	c #969190",
"!.	c #98918A",
"~.	c #9F8E96",
"{.	c #9F907F",
"].	c #919390",
"^.	c #8F9497",
"/.	c #BE8789",
"(.	c #9C9298",
"_.	c #B48B93",
":.	c #A6968A",
"<.	c #939AA2",
"[.	c #A49693",
"}.	c #9B989D",
"|.	c #9D9897",
"1.	c #9F9891",
"2.	c #A1988A",
"3.	c #969A9D",
"4.	c #989A97",
"5.	c #AA9781",
"6.	c #AD978E",
"7.	c #AB9D99",
"8.	c #A29FA3",
"9.	c #9AA1A9",
"0.	c #9CA1A3",
"a.	c #A49F9E",
"b.	c #9EA19D",
"c.	c #A69F98",
"d.	c #A89F91",
"e.	c #B29C93",
"f.	c #C1979E",
"g.	c #B999A5",
"h.	c #A99FA6",
"i.	c #B1A08F",
"j.	c #B0A096",
"k.	c #B1A18B",
"l.	c #A5A7A4",
"m.	c #B2A4A0",
"n.	c #ACA69F",
"o.	c #A1A8B0",
"p.	c #AEA698",
"q.	c #A9A6AB",
"r.	c #ABA6A4",
"s.	c #A3A8AA",
"t.	c #BFA89F",
"u.	c #B2ACA4",
"v.	c #B9AAA7",
"w.	c #BBAB9E",
"x.	c #B0ADB1",
"y.	c #B5ADA0",
"z.	c #AAAFB1",
"A.	c #B2ADAC",
"B.	c #B7AD9A",
"C.	c #ADAFAC",
"D.	c #A8B0B8",
"E.	c #BCAE90",
"F.	c #CDA8AF",
"G.	c #B9AEB5",
"H.	c #B6B0A9",
"I.	c #CCA9B7",
"J.	c #BEB098",
"K.	c #C3B2A8",
"L.	c #B4B6B3",
"M.	c #C2B2AF",
"N.	c #C0B4A2",
"O.	c #B7B5B9",
"P.	c #AFB7C0",
"Q.	c #B9B5B3",
"R.	c #BBB5AD",
"S.	c #BDB5A8",
"T.	c #B2B7B9",
"U.	c #C0BBBA",
"V.	c #C2BBB4",
"W.	c #BBBDBA",
"X.	c #C5BBAE",
"Y.	c #C7BBA9",
"Z.	c #DBB4BC",
"`.	c #C6BCC2",
" +	c #B8C0CA",
".+	c #C1BEC3",
"++	c #BBC0C3",
"@+	c #CBBCB9",
"#+	c #D2B9C3",
"$+	c #CBBEA6",
"%+	c #CFC0A2",
"&+	c #CBC1B5",
"*+	c #CDC1AF",
"=+	c #C8C2BB",
"-+	c #C6C3C1",
";+	c #E2C0C9",
">+	c #D4C8B5",
",+	c #CFC9C2",
"'+	c #CCC9CE",
")+	c #C6CBCD",
"!+	c #D6C7C2",
"~+	c #CEC9C8",
"{+	c #C8CBC7",
"]+	c #D2C9BC",
"^+	c #DAC8CB",
"/+	c #D8CBB2",
"(+	c #C5D0DB",
"_+	c #DBD0BD",
":+	c #DDCFC9",
"<+	c #CDD3D5",
"[+	c #D7D1C9",
"}+	c #D5D1D1",
"|+	c #D9D1C3",
"1+	c #D0D3CF",
"2+	c #DED8D0",
"3+	c #E0D8CA",
"4+	c #DDD8D7",
"5+	c #D5DADD",
"6+	c #D7DAD6",
"7+	c #E7D8D3",
"8+	c #E6DAC0",
"9+	c #CEDEEB",
"0+	c #E4DBC7",
"a+	c #E9D8DB",
"b+	c #D4DEE6",
"c+	c #DFDCE0",
"d+	c #E6DFD1",
"e+	c #E5DFD7",
"f+	c #E4DFDD",
"g+	c #DCE1E3",
"h+	c #DEE1DE",
"i+	c #F2E3E4",
"j+	c #EDE6DF",
"k+	c #ECE6E5",
"l+	c #E6E8E5",
"m+	c #E8E8DF",
"n+	c #F4E5E0",
"o+	c #F0E9D4",
"p+	c #EFE9DB",
"q+	c #DEECF6",
"r+	c #F1EACF",
"s+	c #E6EBEE",
"t+	c #EDEAEE",
"u+	c #F8EBEB",
"v+	c #F4EEE6",
"w+	c #F3EEEC",
"x+	c #EDF0EC",
"y+	c #F8F4E4",
"z+	c #FAF4F3",
"A+	c #FCF5ED",
"B+	c #F5F7F4",
"C+	c #F8F8EF",
"D+	c #F4F9FC",
"E+	c #FBF8FD",
"F+	c #FFFAF9",
"G+	c #FFFFFF",
"                                                          M.@+]+]+=+!+@+                                                        ",
"                                                  @+X.S.S.X.&+&+|+,+[+e+4+2+,+M.                                                ",
"                                              K.v.w.B.c.!.p h d 8 d a J c.=+2+~+M.t.                                            ",
"                                            p.j.c.).w ].C.{+c+l+w+w+l+}+O.+.m 2.=+=+K.                                          ",
"                                        S.d.7.).I l.}+m+p+w+v+p+p+w+z+G+t+}+2+u.t 2.V.v.t.                                      ",
"                                      H.2.c.$.l.,+&+S.>+N.p.V.>+_+]+e+w+l+k+[+w+e+H.K S.M.t.                                    ",
"                                    7.1.q.4.Q.S.7.Y...[.R.n.a.2+y.=+V.,+l+w+=+[+[+~+,+'.m.R.v.                                  ",
"                                  m.1.C.q.-+$+:.H.d.7.%.[+|+=+Q.V.m+f+l+4+B+e+d+R.H.H.2+2.d.R.e.                                ",
"                                c.%.A.x.=+N.{...7.p.7.j.u.&+]+d+v+j+v+z+4+e+2+2+,+,+]+}+&+p.d.S.f.                              ",
"                              Q.@.a.x.V.y.d.N ..%.n.d.m.7.=+X.[+p+v+C+F+F+y+d+|+|+[+S.~+H.R.m.B.v.t.                            ",
"                              %.a.C.=+u.y.j.#.2.!.,+K.X.d.H.u.,+j+C+F+G+F+4+p+3+|+H.n.r.u.c.~+p.y.v.                            ",
"                            a.!.O.,+=.=+m.N G c.P V.N.Y.w.v.m.=+2+C+F+G+F+v+m+d+|+|+X.H.r.H.Q.}+2.y.v.                          ",
"                          m.W C.~+d.y %.y.N G =+:.w.N.$+*+H.H.H.[+z+F+G+F+4+f+[+,+&+V.R.n.H.Q.L.p.d.H.F.                        ",
"                          !.b.-+M.N s e 2.%.;.v.:.p.N.>+]+p.]+2.v.4+E+G+z+-+{+U.V.-+{+U.R.R.1+b.a.y.p.m.                        ",
"                        c.F L.{+j.'.s s C N [.:.6.p.N.>+]+y.d+X.m.-+l+G+F+U.~+2+V.Q.{+}+R.H.,+b.c.R.2.r.v.                      ",
"                        %.a.6+[.s 7.G C #.#.N =.i.B.Y.>+|+&+e+3+u.,+}+E+F+V.4+e+=+}+L.}+Q.H.R.A.|.a.V.1.A.                      ",
"                        B O.~+H 4 f 2.#.n G P =.N P &+>+3+d+2+e+2+r.U.w+F+V.6+4+,+[+U.'+=+X.H.a.|.8.H.;.C.v.                    ",
"                      !.).5+7.n i 7 7 H.;.9 G d.m p.N.j.]+p+V.[+k+a.H.~+C+V.,+R.d+|+U..+1+X.u.r.a.).1.1.!.G.                    ",
"                      B O.4+H f n n n %.G y P p.d.$+/+d+v+p+S.2+f+U.R.V.6+V.R J @.#.1.L.h+R.u.n.c.|.|.|.G q.                    ",
"                    n.t '+U.t e f f %.m s H N :.w.N.8+r+p+p+V.2+4+'+A.y.-+U.,+B.d.'.;.!.6+[+H.r.a.a.).|.Q.|.v.                  ",
"                    +.).h+@.2.t e e =+t s H N H d.*+8+o+o+o+X.,+1+}+~+%.Q.-+[+*+Y.Y.*+B.V.4+Q.r.a.c.a.}.a.R A.                  ",
"                    J L.c+f i H P m n.t C H O {.O N.p+p+_+3+X.,+{+}+[+H.V.U.2+*+*+$+*+*+d.[+~+n.l.|.A.].|.%.A.                  ",
"                    l '+,+f : _ c 1.;.n C H O {.{.:.V.C+_+[+S.-+~+1+}+H.c.V.[+$+*+*+*+_+p.,+l.a.a.a.Q.l.8.n.b.M.                ",
"                  a.u l+m.e 9 e 4 @.H s H N ..{.i.{.m.2+d+[+y.-+-+5+U.r.H.c.[+Y.$+*+_+_+&+u.U.a.l.l.+.+.].|.+.M.                ",
"                  ).W t+%.e 7 f n n C s C H S {.i.5.p.V.2+U.y.U.V.1+Q.|.V.1.f+K.$+$+j.u.@.1.a.|.l.8.a.|.4.|.R G.                ",
"                  @.a.l+m t s 9 G s C s C S N {.i.5.p.7.Q.~+p.V.R.1+A.).u.).~+]+*+$+6.[+y.c.c.|.a.a.l.|.C.L.R x.                ",
"                  R L.4+f B ;.f @+P H s s G N ..i.i.d.d.n.[+v.H.u.{+A.|.).).Q.[+3+>+N.V.V.c.H.H.|.q.C.n.4.C.|.q.                ",
"                  r U.{+1.f c.n n.[.H H K H N ..:.i.:.y.a.[+H.n.c.V.{+A.a.|.|.H.S.2+&+m.c.@.c.r.L.4.q.u.b.Q r.r.                ",
"                  p '+U.m m G N u.'.s H K C H N =.6.:.p.n.4+R.X.!.u.-+a.a.|.Q.[.u.c.[+u.Q.u.-+%.{+a.l.a.{+r.a.}.v.              ",
"                  d 6+Q.^ ^ : 1 n.H C s s H C #.{.=.=.2.c.,+v.e+p.c.H.1.8.|.=+!.c.y.r.{+c.A.|.|.r.L.a.].+.}.).4.U.              ",
"                  m 4+H.9 9 m 6 e n s C C t H N #...2.2.n.-+R.V.[+[.n.).|.|.{+).N y.Q.)+Q.).a.b.).Q.|.,.4.b.|.4.q.              ",
"                  p f+u.b b f 9 9 e n s m r K G S S ..c.|.V.n.7.2+d.1.c.R.l.'+r.d.7.-.++6+a.b.|.|.).q.4.b.l.r.).U.              ",
"                  m h+H.m 1 e n n e e m m r B K S G N !.+.V.[.%.u.u.;.p.V.L.}+Q.n.1.c.).1+C.}.}.|.).].).8.q.O.).U.              ",
"                  m 4+A.b } 5 9 V.e 9 f m r B K G G P !.+.V.1.G n.[+X.c.r.A.4+O.W.A.c.u.++1+8.}.|.|.4.@.}.Q ).).G.              ",
"                  r 6+Q.: : ^ : m.G b e m t x H t K G 1.+.R.1.G %.=+j+c.n.r.1+q.{+W.R A.)+s+8.b.b.}.,.I .+l.q.}.q.              ",
"                  l ~+-+9 : : : 1.m 6 e f q t G G t @.).%.=+1.!.c.p.f+Q.|.a.}+q.4+'+1.O.s.s+x.3.}.}.}.,.I ].l.}.x.              ",
"                  J -+}+n n f f 1 1 9 7 f t K G G t !.n.-.,+]+c.G t Q.1+C.r.h+q.6+<+U.x.W.)+'+8.}.0.}.4.,.3.,.3.A.              ",
"                  R A.f+1 = * * : 9 9 e f m t x t t n.R.%.=+|+U.2+a.a.{+8.|.}+l.{+g+-+z.U.<+l+0.0.0.,.x.8.}.,.}.                ",
"                  1.).k+6 ^ : : 1 9 9 e 7 n x t m 1 -.u.c.=+R.Q.-+U.=+4+A.r.1+H.V.s+6+)+r.)+l+0.0.0.].,.-+++}.l.                ",
"                  1.u t+R : : 1 9 e 6 e e f x m r t u.R.1.1.1.}+R.=+R.=+b.|.1+&+V.k+l+1+W.T.x+z.T.3.$.4.$.8.|.q.                ",
"                    p f+n.: m H.f 6 6 b 6 #.[.P K n 6 @.c.V.,+~+e+=++.U.b.|.'+H.U.6+'+6+l+W.6+.+++0.].^.X b.-.8.                ",
"                    r -+~+( 6 1.@.6 u.6 6 m J G [.7.P %.p r B ).r.Q.H.O.}.+.W.|.|..+s.^.++Q.6+<+ +s.3.^.3.).(.8.                ",
"                    !.|.l+m m.^ 6 m r.f f m c.p f ] e !.7.u.H.u.r.a.l.1+L.!.L.W.|.'+g+<+1+A..+)+D.D.O.0.0.|.b.}.                ",
"                    [.r k+R 7.f 1 = 1 f n m c.!.B m 9 d.n.%.F @.|.r.u.V.~+=+-+}+Q..+<+)+.+.+z. +o.s.,.z.z.!.s.                  ",
"                      i ~+U.1 - ] 6 6 P C q m r f m 9 6 x [.p.u.H.n.u.u.a.c.c.u.L.-+)+T.0.0.9.P.D.z..+8.T.).8.                  ",
"                      R a.l+6 ^ : 9 ( A V.m p p r t f i x :.d.p.2.%.!.1.|.c.|.|.4.3.0.0.D.D.P.^.P.P.].0.8.}.q.                  ",
"                      7.J k+|.: : 9 G 4 H.@.m r B t H n 5 s S #.[.2.!.1.1.n.n.|.l.o.0.0.o.D.o.^. +(+)+s.}.8.                    ",
"                        G =+4+6 @._ S.G J r.q r B t s ;.s f q B P !.!.1.1.!.).+.3.^.].X ^.9.<.<. +9+9+)+b.s.                    ",
"                        -.W t+-.R.C i m = a r m B B m ;.P K q 1 a B R r B p o 0 j o L ].0.0.s.P.P.b+q+P.q.q.                    ",
"                          A `.4+t :.6 * 1 6 u.@.B B r [.R 2.!.'.a ] 8 h g v $.].].I v v o o 3.)+ +q+b+8.T.                      ",
"                          -.F m+a.6 * ^ : 6 i V.l r r ;.;.R J @.@.%.W I o 0 0 g v v I T X Y Y ^. +g+++x.x.                      ",
"                            r r.l+d ] : : 5 9 r.F 1.t r B h | [ [ < 0 o J Q $.$.$.$.T Y X ].9.P.P.T.l.T.                        ",
"                            -.p ~+~+5 ^ : 9 n a.r A.u 8 d g g r B J I T I Q +.$.^.].$.$.X .+)+(+b+q..+++                        ",
"                              @.F f+u.: ^ m 1 Q 8 a p p o r l r B J I T Q Q Q $.$.l.{+o.9.^.(+b+O.q.x.                          ",
"                                r 1.t+c.] P l 8 ~ h p d d p J F B I I $.I Q ).Q I I ,.(+(+9+9+++q.z.                            ",
"                                c.p r.k+).A R.8 [ h l a.g 8 G H.r B H.W.I @.l.C.v 8.w 9.9+q+)+r.z.C.                            ",
"                                  ).h a.k+1.6 | 1 8 8 a.o h 8 g h d ] L.v Q +.,.o ++s.Y 5+5+r.o.s.                              ",
"                                    +.f |.f+H.f a h a ] 8 a d 0 a +.+.L p o o C.L w L z.<+l.0.}.                                ",
"                                      R h R 4+}+R h h h a | I g l d h 0 p +.a.g T Y T..+l.3.}.                                  ",
"                                        c.8 B U.f+-+R h a [ = h p n.h a p < v v 8.W.O.a.X q.                                    ",
"                                            p a W -+f+-+|.B p d h | h l v +.C..+.+8.T X                                         ",
"                                              +.8 0 Q Q.}+4+}+{+U.-+-+-+{+{+L.,.I v ,.                                          ",
"                                                  -.d 8 d F ).a.r.r.a.a.+.v g o |.                                              ",
"                                                      c.+.I l d h g 8 d F ).r.                                                  "};
