/* XPM */
static char * item_rot_1b_32_xpm[] = {
"32 32 255 2",
"  	c #000000",
". 	c #1E0701",
"+ 	c #280901",
"@ 	c #291900",
"# 	c #342502",
"$ 	c #3E3025",
"% 	c #403414",
"& 	c #4D4333",
"* 	c #4F452A",
"= 	c #405932",
"- 	c #5A523F",
"; 	c #5A5248",
"> 	c #3B6526",
", 	c #3E6A3A",
"' 	c #666334",
") 	c #69614E",
"! 	c #696157",
"~ 	c #417430",
"{ 	c #4B7232",
"] 	c #597337",
"^ 	c #497C2C",
"/ 	c #53792C",
"( 	c #5A764C",
"_ 	c #4F7C4A",
": 	c #786F5D",
"< 	c #4C803A",
"[ 	c #577D36",
"} 	c #557D3F",
"| 	c #787065",
"1 	c #4C8328",
"2 	c #607D29",
"3 	c #558128",
"4 	c #4D871E",
"5 	c #508916",
"6 	c #4F8F3C",
"7 	c #598C3C",
"8 	c #628A3B",
"9 	c #618A42",
"0 	c #5F8A4B",
"a 	c #678849",
"b 	c #598D42",
"c 	c #588D4B",
"d 	c #5B8C56",
"e 	c #658957",
"f 	c #78844E",
"g 	c #5C8F34",
"h 	c #60922B",
"i 	c #89806E",
"j 	c #888075",
"k 	c #838367",
"l 	c #6A8F37",
"m 	c #5A9622",
"n 	c #589537",
"o 	c #59962D",
"p 	c #6F8E41",
"q 	c #6A8F68",
"r 	c #63973C",
"s 	c #5C9C48",
"t 	c #69984E",
"u 	c #609B4E",
"v 	c #659A48",
"w 	c #6F9748",
"x 	c #659862",
"y 	c #689857",
"z 	c #5F9B56",
"A 	c #749556",
"B 	c #719663",
"C 	c #63A13F",
"D 	c #968D7A",
"E 	c #839475",
"F 	c #6EA13A",
"G 	c #68A33A",
"H 	c #6BA331",
"I 	c #63A720",
"J 	c #6CA146",
"K 	c #889663",
"L 	c #63A630",
"M 	c #63A63C",
"N 	c #74A046",
"O 	c #65A549",
"P 	c #999185",
"Q 	c #68A846",
"R 	c #68A954",
"S 	c #6FA754",
"T 	c #76A554",
"U 	c #6EA75A",
"V 	c #9E9582",
"W 	c #71A56F",
"X 	c #6BA862",
"Y 	c #74A65A",
"Z 	c #72A662",
"` 	c #68AA5B",
" .	c #7DA45B",
"..	c #7EA26F",
"+.	c #7BA464",
"@.	c #6CB13E",
"#.	c #6CB146",
"$.	c #6CB14D",
"%.	c #73AF4D",
"&.	c #6BB154",
"*.	c #73B236",
"=.	c #72B054",
"-.	c #84AA5A",
";.	c #6CB530",
">.	c #7AAE52",
",.	c #6DB627",
"'.	c #6CB539",
").	c #A69D8B",
"!.	c #A69D91",
"~.	c #7AB242",
"{.	c #84AA82",
"].	c #78B34A",
"^.	c #9CA56D",
"/.	c #80B24A",
"(.	c #73B666",
"_.	c #71B66E",
":.	c #6FB860",
"<.	c #7CB460",
"[.	c #76B660",
"}.	c #7DB466",
"|.	c #70BE21",
"1.	c #73BA47",
"2.	c #83B360",
"3.	c #7CB46E",
"4.	c #A6A589",
"5.	c #7DB37B",
"6.	c #8AB167",
"7.	c #74BA4E",
"8.	c #73BA55",
"9.	c #89B170",
"0.	c #72BA5C",
"a.	c #8BB07C",
"b.	c #7BB859",
"c.	c #83B65A",
"d.	c #AFA593",
"e.	c #AEA599",
"f.	c #73C234",
"g.	c #77C145",
"h.	c #77C23D",
"i.	c #7DC135",
"j.	c #82C044",
"k.	c #7BC255",
"l.	c #7BC25C",
"m.	c #79C44F",
"n.	c #79C26A",
"o.	c #82C063",
"p.	c #84C05D",
"q.	c #7AC82B",
"r.	c #88BE70",
"s.	c #7DC271",
"t.	c #8BBF62",
"u.	c #89BF6A",
"v.	c #B6AD9A",
"w.	c #B5ADA1",
"x.	c #7CC465",
"y.	c #86BF7F",
"z.	c #88BF78",
"A.	c #82C26B",
"B.	c #7DC37B",
"C.	c #7ECB1A",
"D.	c #83C552",
"E.	c #85C931",
"F.	c #89C55A",
"G.	c #ACB781",
"H.	c #82CA3E",
"I.	c #98BF71",
"J.	c #8DC554",
"K.	c #97BF7A",
"L.	c #B3B496",
"M.	c #81CA4A",
"N.	c #95BF83",
"O.	c #A3BB83",
"P.	c #98BE8F",
"Q.	c #84C95C",
"R.	c #83C963",
"S.	c #92C55C",
"T.	c #A3BF67",
"U.	c #89CF12",
"V.	c #98BF9C",
"W.	c #8BC864",
"X.	c #8AC86B",
"Y.	c #91C671",
"Z.	c #90C677",
"`.	c #93C769",
" +	c #BEB5A2",
".+	c #8ECB4E",
"++	c #9DC46A",
"@+	c #BDB5A9",
"#+	c #90CC42",
"$+	c #93CD32",
"%+	c #89CB75",
"&+	c #91C794",
"*+	c #8FC988",
"=+	c #92C981",
"-+	c #96CE6E",
";+	c #9FCE53",
">+	c #99CF5E",
",+	c #99CF65",
"'+	c #99CD7F",
")+	c #99CE78",
"!+	c #A3CB7D",
"~+	c #CDBBAA",
"{+	c #A2CC86",
"]+	c #A0CC8F",
"^+	c #AEC986",
"/+	c #C6BEB1",
"(+	c #B4C87E",
"_+	c #A1CF72",
":+	c #C9BEAB",
"<+	c #C4C0AB",
"[+	c #AACB91",
"}+	c #9EDA0F",
"|+	c #9BD18C",
"1+	c #A7CC9D",
"2+	c #B1CA92",
"3+	c #AACF74",
"4+	c #A6CCA9",
"5+	c #BBCB9C",
"6+	c #B6CCAF",
"7+	c #D1C6B3",
"8+	c #D7C5B4",
"9+	c #CFC7BA",
"0+	c #AFD687",
"a+	c #CDC9B4",
"b+	c #AED690",
"c+	c #BAD29A",
"d+	c #B0D79B",
"e+	c #DDCBBA",
"f+	c #B5D9AA",
"g+	c #D7CFAE",
"h+	c #D7D0B5",
"i+	c #B7DAB7",
"j+	c #DECDC2",
"k+	c #DACFBC",
"l+	c #D3D1C2",
"m+	c #D5D1BC",
"n+	c #D9D0C2",
"o+	c #C2D8BA",
"p+	c #DAD4CD",
"q+	c #E6D5CA",
"r+	c #E8D5C4",
"s+	c #E3D7C4",
"t+	c #DBD9CA",
"u+	c #DDD9C4",
"v+	c #E0D9BE",
"w+	c #E1D8CB",
"x+	c #E7E1CC",
"y+	c #D2E7D4",
"z+	c #EFDED4",
"A+	c #E9E0D3",
"B+	c #E3E2D3",
"C+	c #F0EAD5",
"D+	c #F1EADD",
"E+	c #FBF5E5",
"F+	c #FFFFFF",
"k.t.r.Z.2.u.I.I.6.r.2.Y.r.`.r.Z [.r.}.A.3.3.}.+.z.Y.9.k.k.b.3.b.",
"j.p.<.K.9.t.p.I.c.2. .o.[.<.Y S }.5.}.o.z.(.=.6.p.<.r.}.].m.6.o.",
"c.g.<.N.9.o.r.K.>.}.Y Y X Y ].$.B Z <.o.z.3.3.9.T =.b.r.<.b.>.}.",
"p.1.[.y.}.}.2.u.u.9.r.K.[+ + +@+<+L.O.Y.r.Z r.(.Y +.>.=.>.c.2. .",
"k.].2.o.3.9.r.Z.}.<.[+<+). +/+/+a+/+w. +N.}.}.[.Z >.o.b.].].].].",
"2.%.Y S u.3.u.u.o.O.<+!.m+u+u+n+n+n+k+ +<+O.b.[.<.b.x.u. .+.b.A.",
"K.Y }.8.3.>.b.3.N.w.w.9+a+w+:+w.7+9+m+n+9+ +[+}.Z 9.3.<.3.6.<.<.",
"z.<.=.b.b.o.b.}. +w.w+n+/+9+w.d. +9+@+@+n+m+w.9.3.z.}.Y.r.K.Y +.",
"Y.}.3.o.b.k.>.L.@+n+B+n+9+l+ +d.9+w+@+e.@+w.<+5+}.Z y 9.6.6.<.9.",
"<.r.A.b.c./.2. + +x+x+w+@+/+@+@+9+a+@+d.n+/+/+<+a.Z y Z }.+.}.r.",
"(...u.p.u.b.K.V l+x+u+u+d.e. +n+9+n+9+m+/+w.<+n+L.+.....Y Y 9.z.",
"[.z.<.b.p.<.O. +9+m+9+n+w.@+@+9+9+a+@+m+d.)./+u+<+9.r.<.T T <.Y ",
"J o.m.u.o.:.O./+9+d.!.9+/+n+/+a+9+9+@+9+9+@+@+n+<+a.A.u.o.2.(.8.",
"=.p.p.p.=.#.w./+m+<+/+n+@+n+v.9+a+9+9+n+@+@+w.v.<+O.<.=.}.Y Y %.",
"u.b.c.>.b.8.@+ +m+u+w+w+a+m+@+/+a+7+/+a+<+/+<+/+m+ +<.Q =.O Y <.",
"o.<.<.=.b.#.v. +m+t+w+w+ +@+v.<+@+9+7+/+ +/+v.t+m+w.<.S 8.}.3.}.",
"z.[.Y <.=.$.L.@+9+u+n+A+@+e.v.9+a+m+m+m+ +V @+u+m+L.}.U =.}.W z.",
"P.+.r.9.=.=.L.e.9+n+p+l+7+d./+9+9+/+@+/+n+).a+l+/+L.Y T c.7.y +.",
"z.S ].b.~.b.O.e.9+/+/+/+m+ +9+t+n+/+/+w+a+)./+e./+L.=.c.b.1.t Z ",
"r.b.8.p.#.>.a.!.a+/+).w.w+/+d.9+w.d.e.a+e./+l+d./+4.<.o.7.b.b.9.",
"u.A.<.X.$.b.r.d.@+a+<+9+w+w+<+e.v.).).e.v.u+s+m+<+a.8.7.k.>.b.u.",
"o.o.<.b.b.>.2.5+d.a+n+n+n+t+u+/+ + +w. +n+w+9+9+@+r.<.6.o.S Z b.",
"}.<.>.b.<.7.g.K.@+<+m+m+m+m+/+9+m+9+9+9+a+/+a+@+4.o.W.Z.o.}.o.u.",
"<.<.}.u.Y 8.m.7.L.@+/+m+9+/+ +@+/+m+/+/+@+:+@+v.9.b.X.u.}.o.o.o.",
">.r.Z.I.o.l.=.b.9. +/+7+/+<+a+/+<+<+w./+e. + +4.M.c.Y.Y.r.Y.W.r.",
"[.X.b.2.6.l.o.p.I.^.<+/+ +a+ + + +w.@+ + +<+L.K.p.r.z.Y.=+Z.`.o.",
"}.}.Y =.<.}.o.o.b.D.O.<+/+<+<+w.d.@+v. +<+L.9.u.p.o.z.r.X.p.D.Q.",
"A.U =.<.b.r.o.=.b.7.D.6.L.<+/+<+<+ +@+@+4.K.u.p.}.X.}.A.A.=.7.m.",
"=.Y =.Y >.<.6.6.t.p.k.u.<.9.O.d.L.d.4.a.y 3.b.%.2.D.=.<.}.=.>.#.",
"<.[.3.6.z.o.+.t.p.F.l.t.c.=.=.b.7.=.3.Z =.r.}.=.<.7.[.2.t.}.Z }.",
"r.2.r.r.r.t.}.2.t.p.t.o.F.c.>.=.U <.Z Z }.3.}.=.<.<.p.X.o.}.}.r.",
"p.t.N.r.b.o.K.z.+.r.u.o.b.o.b.[.}.X 3.5.+.3.}.3.o.2.t.W.o.3.r.r."};
