/* XPM */
static char * item_rot_3c_64_xpm[] = {
"64 64 255 2",
"  	c #000000",
". 	c #1A0910",
"+ 	c #33150C",
"@ 	c #412C04",
"# 	c #3A2F2F",
"$ 	c #442F23",
"% 	c #50413A",
"& 	c #5A4632",
"* 	c #464D4B",
"= 	c #544E4F",
"- 	c #5F5048",
"; 	c #3A6032",
"> 	c #3E6429",
", 	c #3A6D20",
"' 	c #476C24",
") 	c #705D4D",
"! 	c #6C5F58",
"~ 	c #676161",
"{ 	c #5A6843",
"] 	c #457334",
"^ 	c #5C742E",
"/ 	c #497C30",
"( 	c #4A7A47",
"_ 	c #686E6C",
": 	c #55774A",
"< 	c #497E26",
"[ 	c #547A30",
"} 	c #58783C",
"| 	c #4A7F1E",
"1 	c #507F3F",
"2 	c #7D6F63",
"3 	c #78706D",
"4 	c #50883A",
"5 	c #57873B",
"6 	c #5D8B35",
"7 	c #538F2B",
"8 	c #648934",
"9 	c #5B8D2C",
"0 	c #63893F",
"a 	c #568E35",
"b 	c #827B78",
"c 	c #8F7878",
"d 	c #798441",
"e 	c #56921E",
"f 	c #618B49",
"g 	c #588E52",
"h 	c #5F8C52",
"i 	c #688A49",
"j 	c #668A52",
"k 	c #5A8F4B",
"l 	c #8B7D71",
"m 	c #589141",
"n 	c #5F8F43",
"o 	c #628C5F",
"p 	c #818185",
"q 	c #8A8481",
"r 	c #798E57",
"s 	c #768E69",
"t 	c #5D9B35",
"u 	c #5F9949",
"v 	c #69974B",
"w 	c #6B9C2C",
"x 	c #699C3A",
"y 	c #679C43",
"z 	c #6E9A43",
"A 	c #659F2C",
"B 	c #5FA12B",
"C 	c #609F44",
"D 	c #5FA31C",
"E 	c #6A9D58",
"F 	c #669E60",
"G 	c #729B58",
"H 	c #819751",
"I 	c #928D89",
"J 	c #719B61",
"K 	c #64A240",
"L 	c #64A059",
"M 	c #64A339",
"N 	c #62A250",
"O 	c #6F9C6D",
"P 	c #69A151",
"Q 	c #719F52",
"R 	c #9C8E81",
"S 	c #869691",
"T 	c #BA8690",
"U 	c #929297",
"V 	c #A78F91",
"W 	c #67AB35",
"X 	c #66AE1D",
"Y 	c #9A9592",
"Z 	c #68AC41",
"` 	c #67AC48",
" .	c #70AA46",
"..	c #6BAB4F",
"+.	c #6AAB58",
"@.	c #73A956",
"#.	c #75A94F",
"$.	c #72A95C",
"%.	c #7DA65A",
"&.	c #6AB12C",
"*.	c #75AD3B",
"=.	c #6EAC66",
"-.	c #76AA67",
";.	c #6AB43C",
">.	c #72B33E",
",.	c #74AE75",
"'.	c #A29D99",
").	c #8BA960",
"!.	c #82AC68",
"~.	c #81AC6E",
"{.	c #6FB549",
"].	c #78B528",
"^.	c #80AC76",
"/.	c #7DAC82",
"(.	c #6FB551",
"_.	c #67B758",
":.	c #75B357",
"<.	c #6FB558",
"[.	c #79B34E",
"}.	c #B7999E",
"|.	c #72B45E",
"1.	c #7EB157",
"2.	c #71B464",
"3.	c #8DAA75",
"4.	c #9FA1A6",
"5.	c #7CB25E",
"6.	c #AC9F90",
"7.	c #7BB264",
"8.	c #6DBC29",
"9.	c #74BA2A",
"0.	c #76B46D",
"a.	c #86B063",
"b.	c #BA9BA7",
"c.	c #70BF17",
"d.	c #7FB36E",
"e.	c #72BC40",
"f.	c #71C204",
"g.	c #7ABB46",
"h.	c #AAA5A1",
"i.	c #74BF4B",
"j.	c #73BF52",
"k.	c #76C03C",
"l.	c #70BF5F",
"m.	c #77BE59",
"n.	c #7FBE3C",
"o.	c #7ABE52",
"p.	c #75BE66",
"q.	c #77BE5F",
"r.	c #99B271",
"s.	c #7CBC66",
"t.	c #7EBC60",
"u.	c #81BC59",
"v.	c #79BD6D",
"w.	c #83BD53",
"x.	c #85BB67",
"y.	c #87BB60",
"z.	c #84BB6D",
"A.	c #8DBA58",
"B.	c #86BE4A",
"C.	c #A1AEB1",
"D.	c #95B590",
"E.	c #79C447",
"F.	c #79C724",
"G.	c #7AC077",
"H.	c #78C733",
"I.	c #81C34D",
"J.	c #83BF78",
"K.	c #7DC185",
"L.	c #8DBE78",
"M.	c #A7B76C",
"N.	c #8CBE7E",
"O.	c #D0A5AF",
"P.	c #7ECB1B",
"Q.	c #8BBE86",
"R.	c #99BD5F",
"S.	c #96BC7E",
"T.	c #94BE70",
"U.	c #81C65A",
"V.	c #7EC667",
"W.	c #80C660",
"X.	c #9CBC71",
"Y.	c #9DBA85",
"Z.	c #85C839",
"`.	c #94BD87",
" +	c #99BD79",
".+	c #AFB1B7",
"++	c #8FBE93",
"@+	c #82C570",
"#+	c #80C950",
"$+	c #87C568",
"%+	c #8BC55B",
"&+	c #BCB0A0",
"*+	c #81CA46",
"=+	c #8AC561",
"-+	c #B6B1AD",
";+	c #8EC46F",
">+	c #90C469",
",+	c #8DC475",
"'+	c #96C361",
")+	c #8BCC2D",
"!+	c #8BCA57",
"~+	c #8FCB49",
"{+	c #8DCB51",
"]+	c #8DCC64",
"^+	c #90D213",
"/+	c #8BCC6E",
"(+	c #97CF28",
"_+	c #8FCB7B",
":+	c #99CD40",
"<+	c #90CC75",
"[+	c #99CC71",
"}+	c #95CC85",
"|+	c #9ECD5A",
"1+	c #9BCD68",
"2+	c #A2CA7C",
"3+	c #9ACD7E",
"4+	c #9CCD78",
"5+	c #98CC94",
"6+	c #A5CA89",
"7+	c #D3B8BC",
"8+	c #9FCD89",
"9+	c #B0CB6C",
"0+	c #DCB6C5",
"a+	c #AFCA7E",
"b+	c #B6C880",
"c+	c #A9CE75",
"d+	c #A9CF6D",
"e+	c #C9C0B3",
"f+	c #A9CE96",
"g+	c #A6CEA3",
"h+	c #A8CE9C",
"i+	c #C6C2BE",
"j+	c #B7CB8E",
"k+	c #C1C3C8",
"l+	c #B6CC97",
"m+	c #AAD283",
"n+	c #B4CEA5",
"o+	c #AED291",
"p+	c #D3C6AF",
"q+	c #B6D3B8",
"r+	c #BFCFD7",
"s+	c #ADDB97",
"t+	c #B4DB8C",
"u+	c #B7DC9B",
"v+	c #B6DDA4",
"w+	c #B7DEAF",
"x+	c #D7D3CF",
"y+	c #DBD3C5",
"z+	c #D3D4D9",
"A+	c #C1DDB6",
"B+	c #E2E5EA",
"C+	c #E8E5E1",
"D+	c #F1EAD8",
"E+	c #DDEEF8",
"F+	c #FFFFFF",
"t.5.{+;+z.L.}+<+t.%.5.L.S.y.S.S.a. +4+,+5.5.:.,+~.a.B.[+_+P Q x.v x.x.=.0.o d.z.-.N.S.+.t.z.7.J L.}+3+2+3.u.W.o.%+E.t.-.z.t.t.o.",
"k.%+Z.s.,+x.L.z.a.z.7.>+[+a.a.6+;+y.'+5.3.d.,+f+f+2+y.z.S.J E :.7.d.7.,+;+5.,+N.d.z.`.v t.5.z.!.N.w.'+a.z.;+:.e.%+o.:.5.J E :.j.",
"*+{+{+@+:.w.z.~.^.z.T.{+y.!.P X.%.>+a.a.!.y.%+>+5.@.m.@++.x.v n x.N.5+5+z.{.$.z.L.x.N.-.Z |.+.;+3.w.u.N.7.~.d.#.>.*+;+w.`.Q.7.u.",
"9.<+Z.U.>.x.`.`.`.-.%+y.I.y.Q 6+1.[.y.d.$. .[.7.$.k Z d.:.%.P 5.~.@.$.-.$.-.z.u.8+x.s.-.[.v ,+a.R.*.#.m.z.8+5.7.#.!+g.&.%.3.z.,+",
"1.$+)+n.#.y. +S.3.7.:.x.T.x.f+2+[.6 5.!.5.v #.E +.F =.{. . .[.m J -.$.=.7.7.|.y.8+z.7.^.-...3+3.1.x @.Z o.z.3+L.v A.*.a.W.%.$.[+",
"m.y.F.g.-.5.}+5+D.L.x.7.=+>+j+#.A.a.T.7.-.G !.L.|.j J 1.g.>.Y.h.3.^.J :.x.v.s.>+x.).-.d.^.a.N.J #.Z :.a.#...#.x. +r.). .Q 1.J 7.",
"o.u. .k.<.z._+3.!.;+d.x.u.y.Y.w.T.$.L.8+N.d.5.x.0.-.G ..g.S.x+-+-+6.s %.5.!.d.E.t.$.!.5.S.$.L.0.E v g.A.x.>.` $.w.>+!.x.5.#.Q %.",
"z. .u.E.u s.}+d.-.w.v L.s.%.a.;+;+5.Y.5.y.L.d.L.5.-.p.u.*+e+Y h.6.b.J v E a.z.u.2+y.-.=.z.J.s.+.7.d.$.7.=+Q  .(.K g.u.#.x.,+s.%.",
"g.o.q.*.%.z.,+$+d.y.Q z.x.!.%.6+7.L.=+>+T.6+,+t.:.-.N.>+y.h.C+y+e+&+3.!.z.-.=+x.@. +-.:.G.(.u d.-.$.2.>+[+a.g.o.[.>.%+[.[.Z g.[.",
"y.g.m.$.x.d.$.[.T.T.3+f+}+`.5+3+s...#.%.r.3.n+,+(.s.u.%+r.C+C+e+i+&+h.7.a.$.g.i.@. +g.P a.`.P Q !.d.v >.{.1+o.m.t.1. . .%+7.y I.",
"t.<+I.M *.!.E ..:.f+S.x.m.;+,+t.z.t.N 5 P t._+$+(.J.:.o.-+y+C+y+h.e+h.y.5. .x...>.[+$+$.a.y.x.$.E -.(.H.o.$+4+5.Q !.v r *.I...t.",
"z.z.y  .$.J -.{.u.5+Q :.o.,+L.Q ;+U.7.$...x.s.5.U.2.z.-.-+e+C+e+h.h.h.X.5.a.t.:.T.:.W.o.[.#.e.-.d.{.#.,+@+E z.,+@.!.!.~.%.o.t.8+",
"f+z.:.N ^.E o e.}+$+5.[.>.z.d.L.@.w.@.-.2.v.p.J.e.@.E ~.h.x+C+y+-+h.h.Y.@.x.s.q.s.Z ..u.:.y.z.m.$.u E z.|.5.:.:.J.E 3.a.x...v L.",
"8+:.z.d.z.` E.z.P {.P 1.[.5.@.2.C t.E 0.$.V.:.$+[.s. .D.6.C+F+i+e+-+h.h.u.:.j.j.e...L.5+,+N.~.$.-.F -.5+5+}+z.@+0.|.S.-.a.-.d.$.",
"8+-.z.s.` >.U.5.....:.z.:.d.v.P u o.z.d.q.m.m.o.:.N.M h.6.y+C+-+i+h.Y Y x.g.;.e.W 1.;+z.>.$.,.E 7.Q.5+0.z.`.5.s.$.d.z.^.$.z.z.%.",
"8+%.:.q...g.7...t.#.=+x.x.#.N <.s.t.P C {.$.V.:.[.D.G h.&+e+C+y+i+h.Y '.S.g.k.{.:.v ;+-.$.h F (.7.`.^.L.y !.S._+N.L.7.`.n Q x.%.",
"4+y.O $.0.|.m.L.1.o.y.o.u. .y x.|.$+:.(.V.|.|.|.(.$.z.h.&+&+C+x+i+h.Y '.Y.t.E.k.U.V.{.v @.|.|.-.$.-.-.7.h d.j S.J.>. .S.!.v d.z.",
"[+,+`.N.N.2.:.a. .[.5.>.g.#.P >.o.$+$.e.:.$+J.z.@+..$.h.&+e+z+e+i+h.Y I D.g.>.g.>.o. .%.!.3.$.x.5+-.+.0 E s.^.j Q.s.i N.-.~.-.3.",
"y.t.#.T.z.{.|.x.[.x.u.%+B.#.@.[.1.5.u.o.u.s.v.m.s.q.~.R &+x+i+2 -+-+h.h.h.o.n.e.Z y.%.w.z r. +;+G ..Q J j $.-.E J.J.J %.s.G ,+~.",
"5.z P S.,+ .t.1.x.a.[.[.[.{.w.g.Q [.Z u.w.s.@+t.{.<.S.R 6.x+-+p+e+-+h.U h.w.g.i.P a.3.r.A.A.T.J F u n ^.E G r -.s.-.F %.7.$.f+@+",
"@+$.k ~.L.5.[.y.x.t.x.[.>.e.k.5.#.t.5.$.:.:.o.i.j.o.D.l e+C+-+p+&+-+Y Y '.;+<+$+d.7.%.y.y.5.z.F O F E =.J ^.^.O 7.E 1 d.J L.Q._+",
"2.J.0.Q.y.U.o.a. +1+%+:.Z {.o.7.U.@.z !.q.(.>.Z M y D.! e+x+i+p+p+h.h.h.Y a.t.z.S.$+t.$.`.Q.S.$.^.=.O ~.J /.`.-.T.@.K @.S.5+J.@+",
"u N.7.}+%.$+o.Q x.Z.u.x.s.{.g.[.o. .%.$...` {.W n $.D.2 e+y+-+e+'.Y h.h.h.S.5.;+z.:.@.-.P @. +E Q.,.r ^.5+ +x.@.1.y v ~.5.!.t.E ",
"N z.t.L.$.u.o.[.x.*+x.s.q.:.<.(.(.=.d.:.Q #.V.|.u y D.l &+i+-+e+e+h.h.I h.Y.t.L.d.{.y ).f 0 1.d.}+^.7.[.y.@+$+$.$.v @.$.P [.P [.",
"n :.@+$+o.w.=+T.;+U.|.0.+.....{.$.J -.E P y !.2.=.F Y l 6.i+h.y+e+'.h.-+Y Y.,+$+L.m.K 1.n %.5.}+:.#.~...>+d.z.$+U.[.a.!.7.L.:.g.",
"M @.m.;+n.Z.,+ +L.:.;.m E _+q.<.7.z.|.7.L J L.@.N =.Y 2 6.-+h.-+e+h.-+-+q f+,+;+5.$.P H v 7.`.J.0.` :.-.;+L.[.~.J.d.:.Q 7.u  .>.",
"B n i.=+B.E.$+z.d. .K P } !.=+z.t.t.m.$.F E d.-.L ` Y l R -+-+h.-+h.h.I I D.x.>+o.|.5.y v N.j.z.E 0.N.!.5.I.w.L.,+-.P $.d.$.:.{.",
"L.n x.w.>+y.:.@.+.{.e.(.L :.....:.[.W.:.+.L +.0.@.{.I l R e+'.h.e+Y h.Y I n+L.=+j.:.U.P #.u s...5.` +.t.x.@.Z z 7.%.$.Q 1.P M #.",
"[+:.o.=+u.z.:.@.s...I.5.|.:.:.[.(.t.i.K @.d.J 2.I.W.Y l R -+'.h.i+'.Y h.-+-+[+z.0.J o.;+[.x s.t  .+.P z.a.Q x ` :.m Z h J -.J P ",
"[+i.-.u.[.5.n 5.u.E.{.o.w.u.1.t.[.I.I.u.|.N L.+.{.#+Y ! q h.&+-+Y -+Y I I h.%+0.0.,.-.~.L.P [.j Q E $.5.G y.Z P y {.v y k ;+L.U.",
"^.(.:.x.a.@.[.t.=+o. .e.I.y.$+t.B.g.w.@.z.+.7.(.$.B.'.2 l Y -+k+h..+Y Y q '.$.@.5.-.d.$.Q.o [.$.$.d.P +.0.$.J ..+.z.L.$.5 L.:.5.",
"s.L.W.$.7.@.K t.5.5.#.Z I.x.x.[.g.[.1.$+a.!.7.$.#.w.I b b I e+i+'.k+Y '.-+D.@.$.u d.L +.L.@.:.n v N.J J d.u ..Q (.` a.3.-.d.N.P ",
"W.>+z.:.P $.@.$+:.+.P ` g.B. +d.E x.y.1.#.z.|.N g.U.Y ! b '.-+i+-+k+Y I q D.o...J ~.P (.u.d.m S.x.-.a.$.0.0.E #.#.d.d.d.F `.8+L.",
"`.N.F <.$.-.$+o.y x.K [.u.%+[.s...m.1.u.o.5.+.Z g.9.D.- b i+h.i+k+k+'.U U Y  .i.$+x.#.@.1.d.=.`.=+[.L.3.G d.7...@.u.@.7.-.y :.}+",
"n+`.E N.`.`.%.@.P P y 5.%+ .o.(.v L.@.[.@.Q $.<.o.k.D.- 3 -+i+-+r+x+U 4.U Y y {.i.1. ...,+7.!.-.m.=+;+G a.E $.P 5.#.:.:.v t v -.",
"z.n+h f y.S.z.d.7.P 7.[.y @.y $.P -.P n v E E t.!+>.D.2 b -+i+-+z+k+U h..+3.K Z y [.$.#.<+y.5.Q 5.t.I.o.N E E %.5.#.e.[.J E ^.!.",
"[.s+u 5 [.y.w.y.>.Z u.%+5.7.7.7.5.#.a P 5 0 z.u.5.@.Y.b q '.i+-+B+z+C.p .+Y K y @.z %.%.$+{.;.$.y t.(.E.(.-.x.1.t.H.e.g.v $.v !.",
"6+d.%+1.x o.[.I.>.v 1.u. .x $+d.5.5.m :.@.`.!.P L.q.D.! 3 Y h.Y .+x+k+I Y D.v -.j i x.z.s.:.W t -.7. .[.#.Q 7.u.y.9.g.{.>.h F G ",
"f+3.[.g.E #.y.[.[.W B.1. .#.d.(.o.[...x.-.h f $.$.d.D.2 2 Y i+-+k+k+k+U Y Y n E J J 7.s.#.1.{.:.J J ~.z.(.$.J o.U. .n.v o.5.0.%.",
"%+a.-.[.:.t.=+y.[.>.>.t.G P |.:.=+@.s.2.z.-.$.d.7.z.S.b b R '.i+k+-+k+4.U D.E G !.7.:.d.-.$.` t...$.@.#.x.s.$.z. .1.w.$+t.o.u.8+",
"[+1.L.J.:.T.z.3+>.>.5.1.e.[.o.[.B. .Q z.d.$.5.7.d.[+T.h.b l '.-+k+k+.+4.Y D.|.o x.7.d.:.5.v 7.L.U.1.t.v u.g.[.g.o.t.*.#.w. .7.8+",
"y.3+:.@.s.[.;+V.(.#.5.u.=+=+$+z H.(.e.#.5. .o.7.o.=+~.Y 3 3 Y I U 4..+.+h.D.t.0.~.6+$.|.7.~.+.~.N.8+>+T.:.y I.y.g.o.$.y.7.|.5.5.",
"5.>+=+:.1.o.;+5.@.U.{.5.E {.o.9.>.m.W.$+u.o.u.q.>+Q s.q b l q h.C..+C.C.4.D.Q.d.7.5+E 5.7.$+-.L.t.'+y.a.U.+.5.t.<+I.K *.!.j :.Q ",
"@.8+w.x.y.v [.@.w.7.$.#.1.{.I.E.{.E.o.z.s.o.=+,+;+$+5.I b R ~ 3 U 4..+C.'./.d.L.d._+0.@.(.|.x.d.u.=+z.7.t.x.L.z.z.y  .$.J $.t.$+",
"5.T.y.5.1.z I.o.d.[.o.[.k.e.o.w.i.u.x.x.t.;+[.x.t.x.u.Y q b q 3 3 U 4.r+'.3.t.3+L.s.2.5. .z.u.z.s.o.:.t.=+s.J.5+z.:.:.d.$.7.L.s.",
"a.S.x.u.#.%+t.|.z.{.i.m.g.1.o.o.o.%+y.U.=+t...w.[.u.o.D.! ~ ! _ b Y k+B+'.`.t.<+x.z.z.$.+.,+y.x.z.$+o.#+1+o.s.z.:.x.z.V.m.,+3+7.",
"y.5.>+5.t.y.S.:.@...:.[.g.g.{. .X.>+>+x.x.[.[.w.@.{.g.Y.q 3 b q p ~ .+E+4.,+,+z.;+6+d.J.5.L.s.g...2.q.#+}+I.x.x.7.z.z.s.m.=+>+x.",
"1.Q 5.z.7.1.y.L.F P  .5.I.w.o.[.a.>+~+x.:.K [.t.t.o. .a.q b b q I p .+B+'.s.z.}+:.g.u.7.z.x.W.#+#+o.:.5.;+/+u.;+5.$+$+7.x.=+t.%+",
"1.1.Y.!.8+z.z. +!.[.%+=+@.$.:.[.@.u.Z.y.u.[.y.t.u.m.:.%.Y 3 I q U p U z+C.P z.x.:.[.[.m.x.z.5.%+Z.e.u.t.T.;+$+;+%+z.t.L.%+t.z.$+",
"{.5.S.z.L.7.[.T.;+x.%+o.u.1.;+u.%.%+{+[.w.I.u.5.$+:.|.:.h.- q Y '.4.r+4.4.$.x.d.|.[.g.K u.4+-.x.#+U.o.x.%.,+3+<+,+,+8+z.w.y.x.}+",
"` t.J.z.z.5.u.[+2+;+I.m.u.U.#.x. +=+=+n.%.g.=+[.o.o.:.u.D.3 3 Y q .+z+.+D.-.L.!.N.P (.|.2._+;+$+U.>+$+,+z.`.>+3+L.3+8+z.3+[+=+x.",
"|.z.v.$+@.P w.y.x.#.1.;+z.u. .z.T.T.[.g.w.1+{+U.5.x.@.u.J Y 3 q q k+z+.+^.d.~.$.Q.h 7.5.0.8+3+=+u.!+;+L.J.}+,+/+_+}+<+>+[+#+I.o.",
"5.:.m.s.u v Q :.:.d.;+$.x.u.u.x.x.s.w.!+>+[+1+;+z.W.s.o.z.h.b ~ 4.k+r+C.E +.-.|.q.d.x.o.s.-.;+N.1.'+u.7.N.J.E ,+_+V.o.]+U.o.E.=+",
"$+J.J.,+N.Q |.z.u.@.z.x.<+y.1.5.:.g.>.B.=+{+*+:.s.s.t.t.x.Y I q 3 k+.+D...` u ..d...5.:.x.^.>+$+y.u.m.:.d.z.2.0.s./+u.o.*+:.U.]+",
";+$.|.@+L s.t.1.(.N.x.u.;+1.d.u.[.s.U.o.%+{+=+t.$+v.:.[.t.s i+3 3 k+h.^.M N $.E 7.|.J L.=+7.x.I.u.y.t.J.,+z.d.J.v.W.j.;.g.=+o.E.",
"z.$.+.C 5.` 7.7.g.a.N.~.u.u.Q ..w.y.I.{.I.{+>+t.7.@.M W g.G q x+k+.+U O E ` ..J E 7.5.3+z.z.5.%+5.L.z.>+5.z.L.y.x.L.q.P  .g.I.o.",
"@.=.2.P K |.d.@. .[.x.u.z.T.%.z.>+x.U.u.n.y.T.>+u.{.y #.g.@.~.b '.I 3.C <.N +.d.o h -.,+:.t.{.*.x.5.u.I.{.(.[.;+7.t.-.@.[.u.W {.",
"+.+.x.$+=.s.!.E #.y.>+t.~.7. +>+t.%+$+U.g.{+T. +[.>.7...Z 5.g.s _ S -.Z $.d.0.E -.-.:.L.x.:.1...$+:.t.E.v.#.!.5.t.2.u...#.z.W  .",
":.C =.o.-.d.z.d.^.d.W.;+%.!.w.=+$+%+>+$+z.u.B.2+y.[.u...` {.I.Q [.....L ~.-.O F F |.q.,+5.7.i.5.#.z._+o.q.P  +T.z.z.N.$.u T.Q P ",
"0.7.d.q.J.z.J 3.5+N.q.u.-.a.z.y.m.1.w.%+o.=+!+B.1.%+1.#.:.m.:.5.o.u [.t.d.J ^.$.:.5.s.z.d.z.Z {.:.z.o.W :.d.y.g.%+;+d.-.$.z.v ^.",
"N.~.7.:.z.N.L.!.;+_+x.y.5.7.y.u.y.;+>+u.u.t.=+[.%+w.t.w.[.5.q.o...P W.5.E P F 5.7.7.7.d.7.s.|.Z z.Q @.e.[.;+y.z.x.A.u.a.^.y.1.Q.",
"w.y.T.1.z.`.6+d.:.s.u.x.z.>+y.5.y.u.1.U.;+,+>+u.y.w.g.y.1.:.m.m L d.s.:.z.J /.s y.d.^.0.d.).1.{.s.1 ~.S.u.%+;+3+s.z.s.J.d. .1.}+",
"U.u.2+L.S.3+>+Y.3.m.U.y.S.T.,+L.@.[.:.P y.x.=+T.5.w.*+y.y.o.j.+.-.$.$.=.G.Q./.^.%.@.N.=.`.`.J q.j.N $.y.5.>+#+3+z.-.1.d.^.1.n.N.",
"y.!.{+y.N.5+S.@.I.:.t.;+S.L.6+~.-.y.;+Q.z.z.y.y.7.@.>+;+5.o.5.z.d.z.-.F F /.L.^.j _+J.0.#.5.-.`.L.w.x.%.!.[+;+g.#+t.x.~.5+7.W `."};
