/* XPM */
static char * item_rot_1e_48_xpm[] = {
"48 48 255 2",
"  	c #210101",
". 	c #3C5A35",
"+ 	c #46612B",
"@ 	c #3B6527",
"# 	c #426E1E",
"$ 	c #606431",
"% 	c #477035",
"& 	c #6E6557",
"* 	c #447C28",
"= 	c #477A3B",
"- 	c #517831",
"; 	c #487B32",
"> 	c #5A734F",
", 	c #4F774B",
"' 	c #5A753B",
") 	c #59782A",
"! 	c #507C2B",
"~ 	c #4E7F1F",
"{ 	c #547B3B",
"] 	c #527C43",
"^ 	c #4E8B26",
"/ 	c #618528",
"( 	c #548840",
"_ 	c #5E8542",
": 	c #528E1C",
"< 	c #598B2A",
"[ 	c #519011",
"} 	c #5B8A3B",
"| 	c #62883A",
"1 	c #5E8A34",
"2 	c #558D34",
"3 	c #548D3B",
"4 	c #64874D",
"5 	c #5A8B4E",
"6 	c #638856",
"7 	c #5A8B56",
"8 	c #618962",
"9 	c #579047",
"0 	c #5E8F48",
"a 	c #668D49",
"b 	c #788B4D",
"c 	c #788B5D",
"d 	c #728C6A",
"e 	c #639735",
"f 	c #5D9A28",
"g 	c #5C9B20",
"h 	c #6A9536",
"i 	c #5B993F",
"j 	c #5D9A31",
"k 	c #5C9A38",
"l 	c #64973F",
"m 	c #5F9846",
"n 	c #5E984E",
"o 	c #65974F",
"p 	c #789642",
"q 	c #6A9A49",
"r 	c #709853",
"s 	c #649B5E",
"t 	c #6C995E",
"u 	c #729949",
"v 	c #6E9770",
"w 	c #669A6A",
"x 	c #74975C",
"y 	c #729764",
"z 	c #958C7E",
"A 	c #62A146",
"B 	c #61A14D",
"C 	c #6B9F46",
"D 	c #65A056",
"E 	c #68A04D",
"F 	c #6C9E57",
"G 	c #63A821",
"H 	c #6AA53C",
"I 	c #65A82D",
"J 	c #70A341",
"K 	c #68A735",
"L 	c #64A83D",
"M 	c #69A644",
"N 	c #60AA36",
"O 	c #63A845",
"P 	c #6AAA4E",
"Q 	c #69AA55",
"R 	c #70A855",
"S 	c #68AA5B",
"T 	c #72A84E",
"U 	c #6FA85B",
"V 	c #6CA961",
"W 	c #76A661",
"X 	c #77A75B",
"Y 	c #6EAC6B",
"Z 	c #75AA6B",
"` 	c #71AB72",
" .	c #7CAA58",
"..	c #7EAA52",
"+.	c #6AB337",
"@.	c #70B13F",
"#.	c #7DA96E",
"$.	c #87A66E",
"%.	c #7EA87A",
"&.	c #85A863",
"*.	c #6DB247",
"=.	c #6CB24E",
"-.	c #74B04B",
";.	c #8BA764",
">.	c #6CB627",
",.	c #75B32E",
"'.	c #6CB631",
").	c #6CB356",
"!.	c #6CB81D",
"~.	c #70B25C",
"{.	c #6FB264",
"].	c #74B43A",
"^.	c #7BB23A",
"/.	c #79B242",
"(.	c #7AB056",
"_.	c #74B256",
":.	c #79B05D",
"<.	c #A79E8F",
"[.	c #76B165",
"}.	c #6CB743",
"|.	c #7FAF66",
"1.	c #80B24E",
"2.	c #70BA3E",
"3.	c #73B94D",
"4.	c #73B954",
"5.	c #77B946",
"6.	c #7CB853",
"7.	c #80BB25",
"8.	c #96AD7F",
"9.	c #72BB64",
"0.	c #74BB5D",
"a.	c #76BA6C",
"b.	c #A0AE65",
"c.	c #7ABA64",
"d.	c #7CBA5D",
"e.	c #9BAF73",
"f.	c #7EB96C",
"g.	c #81B964",
"h.	c #75C22A",
"i.	c #87B76B",
"j.	c #72C238",
"k.	c #86B771",
"l.	c #70C060",
"m.	c #96B093",
"n.	c #7AC13A",
"o.	c #82BF3C",
"p.	c #7BBC7B",
"q.	c #79C05B",
"r.	c #7CC054",
"s.	c #85BA7A",
"t.	c #86BC61",
"u.	c #83BB82",
"v.	c #78C34E",
"w.	c #78C71F",
"x.	c #77C355",
"y.	c #8EBB61",
"z.	c #9AB672",
"A.	c #8DBB68",
"B.	c #79C447",
"C.	c #8EB97D",
"D.	c #95B973",
"E.	c #8FB98A",
"F.	c #81C350",
"G.	c #98B87F",
"H.	c #7CC364",
"I.	c #83C164",
"J.	c #85C349",
"K.	c #7FC26B",
"L.	c #7DC273",
"M.	c #B5AD9E",
"N.	c #85C073",
"O.	c #88C251",
"P.	c #85C25E",
"Q.	c #87C257",
"R.	c #88C06B",
"S.	c #8EBE75",
"T.	c #91C151",
"U.	c #8EC15D",
"V.	c #80C661",
"W.	c #83C65A",
"X.	c #81CA33",
"Y.	c #81C941",
"Z.	c #83CE0C",
"`.	c #89CC25",
" +	c #81C96A",
".+	c #8CCB46",
"++	c #85C978",
"@+	c #87C971",
"#+	c #86CB61",
"$+	c #8AC96B",
"%+	c #89CC51",
"&+	c #89CC58",
"*+	c #91CD3A",
"=+	c #8BC981",
"-+	c #90C973",
";+	c #95C779",
">+	c #92C96D",
",+	c #8FC979",
"'+	c #8ECB67",
")+	c #97C874",
"!+	c #99C86D",
"~+	c #90CC61",
"{+	c #92CC5A",
"]+	c #96CF2B",
"^+	c #A0C673",
"/+	c #94C983",
"(+	c #C1B8A8",
"_+	c #8ECA8F",
":+	c #98CD49",
"<+	c #9DC781",
"[+	c #9FC77B",
"}+	c #9CC788",
"|+	c #97CD55",
"1+	c #92C99C",
"2+	c #A0C691",
"3+	c #98CC69",
"4+	c #A7C586",
"5+	c #9ACC63",
"6+	c #9FC69D",
"7+	c #99CA91",
"8+	c #9ECE5E",
"9+	c #B0C789",
"0+	c #BCC481",
"a+	c #B4C880",
"b+	c #B0CB6C",
"c+	c #9ED078",
"d+	c #9DD081",
"e+	c #A9CE6D",
"f+	c #B6C979",
"g+	c #9CDC08",
"h+	c #AACF7A",
"i+	c #C9C1B1",
"j+	c #A8D084",
"k+	c #A7D08A",
"l+	c #A6D090",
"m+	c #B3CD9B",
"n+	c #B0CF8F",
"o+	c #AAD09A",
"p+	c #BBCB9E",
"q+	c #A0D58E",
"r+	c #A6D671",
"s+	c #ACD1A9",
"t+	c #BAD0B4",
"u+	c #D0C9B8",
"v+	c #A9DAA0",
"w+	c #ABDC83",
"x+	c #B3DA85",
"y+	c #B2DA8D",
"z+	c #B3DA98",
"A+	c #B5DAA5",
"B+	c #D9D2C1",
"C+	c #BADDB5",
"D+	c #C9E0C2",
"E+	c #E2DDCD",
"F+	c #F0EADE",
"d.Q.R.R.S.)+d.:.k.S.A.G.i.)+S.:.d.;+k.t.)+,+F g.U i.|.[.W R.#.G.W d.i.W C.;+[+C.d.r.W.r.:.f.d.x.",
"B.%+I.I.i.i.i.k.U.A.:.D.t.t.|.|.R.d+S.t.f.k.W E k.C./+R.[.k.k.s.Z _.[.f.R.Q.i.i.f.-.v.r.P.k.Z 4.",
"Y.{+W.-.S.G.C.i.U.Q. .G.1.t.|.X _.d.U C g._.U R #.[.#.:.|.g./+g.[.T |.i.t.-.d.k.S.|._.F./.|.k.R.",
"d.J.o.(.S.G.C.|.g.A.<+[+6.R |.X R X S V _.-.-.E W Z V c.c.t./+|.#.Z i.e...E T r.R.s. .6.d.d.X A.",
"r.r.].~.N./+C.N.g.W.D.&.A.|.S.k.[.R.[.t R 5.r.g.#.$.X g.f.V.g.W |.k.k.Z E T g.(.*.:.y.i.d._.R W ",
"H.4.B.P N.k.[._.i.d.&.i.i.k.k.R.k.R.c.[.6.j.P.2+2+C.F W k.P.;+[.Y k.f.~.|.:.|.t.M _.-.d. .i.c.X ",
"3.r.5.:.k.R.i.|.k.k.|.<+g.i.t.S.}+R.6.k.$+5.g.R.M.G.|.i.d.P.d.i. .f.Q |.W V g.R.P.3.3.6.5.1.*.6.",
"I.P.T (.W _.i./+G.N./+-+g.T o |./+-+4.c.r.4.d.S.i+G.c.|.(.3.(.$+X |.f.U W W ].6.$+d. .r r 1.-.6.",
"i.:.@.U W =.I.C.:.d.S.:.R.d.F R I.d.q.c.R ).d.<+u+D.Q.:.g.(.A.d.d._.(.:.[._.g.c.|.R.X $.$.(.d.;+",
"}+g.R f.F 3.S.d._.6.f.f._.(.[.c.c.N.3.R U =.r.G.i+D.6.:.g.H.0.-.g.g.R.c.U o k.f.d.:.f.&.|.|.Q i.",
"/+[.f.:.5.I.E T :._.|.~.E :.f.[.0.d.d.:.g.q.2.z.u+G.5.d.3.3.+.g.C.g.#.W [.s.u./+S.g.[.i.k.|.f. .",
"/+:.c.P 6.(.d.6.K.g.R ~.:.:.P =.0.0.:.#.R.d.5.9+u+4+~+R.n.5.=.|.#.R s Q f.E.k.R k.S.k.f.C.o :.W ",
")+i.[.a._.i.(.d.r.r.C d.0.g.4.H.c.~.).[.[.4.6.m+u+4+Q._.r.j.r.4.E X ~.[.[.W W r W $.N.J k.W W k.",
">+k.,+k._.g.5.d.6.5.T -.6.g.3.d.K.g.a.~.d.0.6.p+i+9+t.d.5.2.-.(.(.&.$.i.k.U o F Z t s.:.#.[.|.k.",
":.E D.i.4.6.t.:.6.-.3./.-.6.6.q.K.V.4.~.g.6.6.p+i+p+;+R.v.3.R k.e.1.i.W t n |.F x W f.V W c.S.N.",
"a.F $.k._.t.t.y.(./.2.:.(.:.:._.6.3.3._.f.d.3.M.i+p+>+i.R.R.k.[.t.i.i.W w U V y #.Z |.0 [.#.C.=+",
"U k.E.g.q.:.>+{+d._.3.d.r.R X _.*.@.H :.i.X X M.u+p+P.:.:.i.k.d.W k.C.W %.Z #.C.S.|.|.E :.k.s.[.",
"Q i.S.:.Q.(.P.Q.f.0._.3.~.|.:.E (.0.m R r.(.(.M.i+M.c.R.d.R.i.-. .m R |.E.#. .S.R.:.X F W ~.R R ",
"q d.R.6.Q.A.R.0.~.)._.=.U W U E X [.V V _.-.-.M.u+i+d.g.@+$+R._...l |.,+_.X X A.f.R.P.:.&.[.|.5.",
"K =.P.o.W.S.i.*.m F R.c.I.g.:.F Z [.D S P _.r.(+u+M.d.c.I.>+d.:.r F k.K.V c.|.i.Q.i.S.V U [.T -.",
"|.T Q.'+d._._.@.-.Q _.R _.r._.U Q Z R *.R t.t.(+u+(+r.S.C.I.4.d.P T ~._._._.d.d.-.T |.X R  .E -.",
">+4.I.P.:.(.d.5.(.~.:.4.4.6.P _.[.{.r.P.d.(.J.(+i+(+Q.d.t.f.[.:.R...R A T Q |.|.T M R A n x W R ",
"R._.d.:.T (.W.3.3.r.g.g.6.v.d.[.:._.(.J.6.5..+(+i+i+t.d.d.:.[.#.Z s.T F X U U W _.P Q |.R o f.d.",
"g.g.:.|.T d.d._.J Q.A.:.5.6.d.g.|.~.(.v.*.B.d.(+i+(+6.Q.6.X E W ~.s._.o W #.t [.E R 4.d.f.Z k.U ",
"R.R.4.U X g._.R M 5.U.i.U t.6.(.[.P 5.r.B.F.F.(+u+i+6.U.3.=.W |._.d.W k.g.|.|.a.[.T (.f.i.W C.S.",
"7+#.[.k.k.(.P T _.r.6.6.R :.d._.U P 5.'.5.5.n.(+i+i+d.t.P 3.d.(.R i.|.k.d.I.$.W [.Q (.6.:.F C k.",
"E.C.r R.S.i.W U (.T T _.R X o o F :.F.5.r.6.M M.B+(+U.-.-.L @...R -+g.X :.W.6.U U X :.*.6.F W |.",
"i.s.m 1.d.P.@.-.t.:.[.[.d.C B 0 W (.:.(.-.W U M.i+M.t.).M q E R [.I.*.T T 4.v.=.g.d.r.n.5.E D &.",
"}+|.6.C 6.v.@.T 6.J :.:.d.T _.W y R |.c.:.c.(.<.(+i+].5.E F t X c.:.-.M W W d.-.U q.Q.n.-.-.F F ",
"R.|.4._.t.t.-.@.d.r R _.t.:.[.f.W [.|.g.t.|.g.(+(+i+r.4.R F |.:.c.W P 4.R W :.d.:.g.-.6.g.d.6.S.",
"'+g.f.d.R.-+@.-.6.5.6.1.B.P [.[.:.g.t.3+_.6.6.(+i+i+c.X :.t g.f.:.:.U f.P.g.X 6.5.6.v.4.T r._.C.",
"g.R.:.d.P.I._.6.:.d.d.*.2.4.d.6.3.d.P.g.:.d.5.(+u+(+N.:.R.k.k.s.~.|.|.k.S.!+A.d.-.d.P.4._.[._._.",
":.>+t.d.T (.(.:.R (.6.B.*.r.R.d.q.R.$+c.f.c.5.p+B+(+C.4.c.S.i.N.U ).c.k.d.t.|.g.i.i.g.M R W :.g.",
"|.A.d.(.-.6.|.4.3.2.5.r.6.I.g.g.d.t.g.P.3.4.5.p+u+M.#.#.f.;+S.c.:.T g.i.g.6.d.R.f./+I.(.f.:.k.g.",
"i.i.d.d.A.0.:.-.6.5.6.(.y.t.P.I.4.r.-.3.5.r.4.M.i+M.k.k.-+R.-+S.|.:.S.d.|.c.F.>+P.R.d.f.K.H.-+g.",
"(.X f.|.t.R.F R 6.v.6.6.A.{+P.6.*.d.d.-.6.6.-.9+i+4+~.c.K.,+d.P.|.i.t.Q.F.4.:.R.P.I.g.R.c.P.R.P.",
"(.i.i.}+g.D.|.r.P.R :.4.(.%+Q.6.d.d.P.4.6.d.d.G.i+G.R R :.K._.3.4.t.|.t.Y.3.d.-+$+>+A.R.S.Q.g.R.",
"=.k.N.N.:.S.-+P.r.d.t.t.i.U.J.(.r.d.d._.4.:.:.G.i+G.R U |.k.|.*.=.g.S.g.W.V.$+i.;+)+;+d+S.$+A.-+",
"~.f.R.U (.t.i.6.I.i.6.g.)+t.5.r.~+W.:.:.r._.[.G.(+8.U U k.W s.R d.k.<+I.W.'+S.S.;+-+,+/+>+>+Q.r.",
":.c.g.F T (.:.f.g.I.d.I.g.r.&+'+3+$+N.H.q.g.V C.(+8.Q B U :.c.g.6.g.g.S.d.W.[.s.Z k.@+H.#+W.v.#+",
"K.f.N.|.:.g.d.i.g.>+d.d._.6.F.Q.O.6.I.c.d.:.E k.(+&.=.O B Q [._.|.g.|.P.P.t.c.N.f.f.f.I.3.F.q.&+",
"I.S D R _.|.6.S.|.P.:._.6.W.5.J.Q.d.[.P @.-.M R.(+#.S B P F U [.S.S.g.Q.g.i.R.|.k.R.I.R.=.-.r.v.",
"~.[.U T |.X -.g.q.i.g.i.R.t.d.B.R.A.d.P T -.(.(.<.|.A _.Q [.6 U S.d.d.-.g.d.F.=._.f.c.:.R 1.3.*.",
").U d.[.f.[.f.R.I.|.t.#+I.'+I.d.Q.;+6.6.R *.r.(.$._.E W Z t V d.S.d._._.d.g.r.c.&.i.g.f.~.R :.T ",
"9.Z d.f.Z f./+N.d.W g.t.r.Q.P.P.W.Q.r.Q.T _.4._.4.P d.[.Z W _.c.k.f.:.*.:.I.@.4.g.6.y.R.|.:.W #.",
"k.i.:.N.C.i.-+R.t.|.t.d.P.'+P.I.t.6.Q.W.d.6.d._.Q ~.g.F t W |.g.f.|.:.-.[.R 6.6.$+R.t.P.|.#.(.C.",
"F.A.i.S.<+C.g.q.I.S.>+f.:.6.(.R.A.I.d.F.P.d.4.B V [.~.L.s.#.g.i.[.k.#._.~.F k.t.P.;+f.f.f.k./.S.",
"P.t.U.C.}+g.r.d.R.G./+S.|.R.C.R.i.t.c.d.>+d.(.|.|.|.t Y s.%.x S.a.:.W S.K.t.:.i.>+Q.r.g.|.}+-.S."};
