/* XPM */
static char * item_rot_1e_32_xpm[] = {
"32 32 255 2",
"  	c #210101",
". 	c #3C5A35",
"+ 	c #46612B",
"@ 	c #3B6527",
"# 	c #426E1E",
"$ 	c #606431",
"% 	c #477035",
"& 	c #6E6557",
"* 	c #447C28",
"= 	c #477A3B",
"- 	c #517831",
"; 	c #487B32",
"> 	c #5A734F",
", 	c #4F774B",
"' 	c #5A753B",
") 	c #59782A",
"! 	c #507C2B",
"~ 	c #4E7F1F",
"{ 	c #547B3B",
"] 	c #527C43",
"^ 	c #4E8B26",
"/ 	c #618528",
"( 	c #548840",
"_ 	c #5E8542",
": 	c #528E1C",
"< 	c #598B2A",
"[ 	c #519011",
"} 	c #5B8A3B",
"| 	c #62883A",
"1 	c #5E8A34",
"2 	c #558D34",
"3 	c #548D3B",
"4 	c #64874D",
"5 	c #5A8B4E",
"6 	c #638856",
"7 	c #5A8B56",
"8 	c #618962",
"9 	c #579047",
"0 	c #5E8F48",
"a 	c #668D49",
"b 	c #788B4D",
"c 	c #788B5D",
"d 	c #728C6A",
"e 	c #639735",
"f 	c #5D9A28",
"g 	c #5C9B20",
"h 	c #6A9536",
"i 	c #5B993F",
"j 	c #5D9A31",
"k 	c #5C9A38",
"l 	c #64973F",
"m 	c #5F9846",
"n 	c #5E984E",
"o 	c #65974F",
"p 	c #789642",
"q 	c #6A9A49",
"r 	c #709853",
"s 	c #649B5E",
"t 	c #6C995E",
"u 	c #729949",
"v 	c #6E9770",
"w 	c #669A6A",
"x 	c #74975C",
"y 	c #729764",
"z 	c #958C7E",
"A 	c #62A146",
"B 	c #61A14D",
"C 	c #6B9F46",
"D 	c #65A056",
"E 	c #68A04D",
"F 	c #6C9E57",
"G 	c #63A821",
"H 	c #6AA53C",
"I 	c #65A82D",
"J 	c #70A341",
"K 	c #68A735",
"L 	c #64A83D",
"M 	c #69A644",
"N 	c #60AA36",
"O 	c #63A845",
"P 	c #6AAA4E",
"Q 	c #69AA55",
"R 	c #70A855",
"S 	c #68AA5B",
"T 	c #72A84E",
"U 	c #6FA85B",
"V 	c #6CA961",
"W 	c #76A661",
"X 	c #77A75B",
"Y 	c #6EAC6B",
"Z 	c #75AA6B",
"` 	c #71AB72",
" .	c #7CAA58",
"..	c #7EAA52",
"+.	c #6AB337",
"@.	c #70B13F",
"#.	c #7DA96E",
"$.	c #87A66E",
"%.	c #7EA87A",
"&.	c #85A863",
"*.	c #6DB247",
"=.	c #6CB24E",
"-.	c #74B04B",
";.	c #8BA764",
">.	c #6CB627",
",.	c #75B32E",
"'.	c #6CB631",
").	c #6CB356",
"!.	c #6CB81D",
"~.	c #70B25C",
"{.	c #6FB264",
"].	c #74B43A",
"^.	c #7BB23A",
"/.	c #79B242",
"(.	c #7AB056",
"_.	c #74B256",
":.	c #79B05D",
"<.	c #A79E8F",
"[.	c #76B165",
"}.	c #6CB743",
"|.	c #7FAF66",
"1.	c #80B24E",
"2.	c #70BA3E",
"3.	c #73B94D",
"4.	c #73B954",
"5.	c #77B946",
"6.	c #7CB853",
"7.	c #80BB25",
"8.	c #96AD7F",
"9.	c #72BB64",
"0.	c #74BB5D",
"a.	c #76BA6C",
"b.	c #A0AE65",
"c.	c #7ABA64",
"d.	c #7CBA5D",
"e.	c #9BAF73",
"f.	c #7EB96C",
"g.	c #81B964",
"h.	c #75C22A",
"i.	c #87B76B",
"j.	c #72C238",
"k.	c #86B771",
"l.	c #70C060",
"m.	c #96B093",
"n.	c #7AC13A",
"o.	c #82BF3C",
"p.	c #7BBC7B",
"q.	c #79C05B",
"r.	c #7CC054",
"s.	c #85BA7A",
"t.	c #86BC61",
"u.	c #83BB82",
"v.	c #78C34E",
"w.	c #78C71F",
"x.	c #77C355",
"y.	c #8EBB61",
"z.	c #9AB672",
"A.	c #8DBB68",
"B.	c #79C447",
"C.	c #8EB97D",
"D.	c #95B973",
"E.	c #8FB98A",
"F.	c #81C350",
"G.	c #98B87F",
"H.	c #7CC364",
"I.	c #83C164",
"J.	c #85C349",
"K.	c #7FC26B",
"L.	c #7DC273",
"M.	c #B5AD9E",
"N.	c #85C073",
"O.	c #88C251",
"P.	c #85C25E",
"Q.	c #87C257",
"R.	c #88C06B",
"S.	c #8EBE75",
"T.	c #91C151",
"U.	c #8EC15D",
"V.	c #80C661",
"W.	c #83C65A",
"X.	c #81CA33",
"Y.	c #81C941",
"Z.	c #83CE0C",
"`.	c #89CC25",
" +	c #81C96A",
".+	c #8CCB46",
"++	c #85C978",
"@+	c #87C971",
"#+	c #86CB61",
"$+	c #8AC96B",
"%+	c #89CC51",
"&+	c #89CC58",
"*+	c #91CD3A",
"=+	c #8BC981",
"-+	c #90C973",
";+	c #95C779",
">+	c #92C96D",
",+	c #8FC979",
"'+	c #8ECB67",
")+	c #97C874",
"!+	c #99C86D",
"~+	c #90CC61",
"{+	c #92CC5A",
"]+	c #96CF2B",
"^+	c #A0C673",
"/+	c #94C983",
"(+	c #C1B8A8",
"_+	c #8ECA8F",
":+	c #98CD49",
"<+	c #9DC781",
"[+	c #9FC77B",
"}+	c #9CC788",
"|+	c #97CD55",
"1+	c #92C99C",
"2+	c #A0C691",
"3+	c #98CC69",
"4+	c #A7C586",
"5+	c #9ACC63",
"6+	c #9FC69D",
"7+	c #99CA91",
"8+	c #9ECE5E",
"9+	c #B0C789",
"0+	c #BCC481",
"a+	c #B4C880",
"b+	c #B0CB6C",
"c+	c #9ED078",
"d+	c #9DD081",
"e+	c #A9CE6D",
"f+	c #B6C979",
"g+	c #9CDC08",
"h+	c #AACF7A",
"i+	c #C9C1B1",
"j+	c #A8D084",
"k+	c #A7D08A",
"l+	c #A6D090",
"m+	c #B3CD9B",
"n+	c #B0CF8F",
"o+	c #AAD09A",
"p+	c #BBCB9E",
"q+	c #A0D58E",
"r+	c #A6D671",
"s+	c #ACD1A9",
"t+	c #BAD0B4",
"u+	c #D0C9B8",
"v+	c #A9DAA0",
"w+	c #ABDC83",
"x+	c #B3DA85",
"y+	c #B2DA8D",
"z+	c #B3DA98",
"A+	c #B5DAA5",
"B+	c #D9D2C1",
"C+	c #BADDB5",
"D+	c #C9E0C2",
"E+	c #E2DDCD",
"F+	c #F0EADE",
"r.I.R.S.g.i.S.D.A.S.:.-+i.R.k.:.|.k.[.i.k.#.d.|.S.)+k.6.r.d.f.q.",
"J.W.d.D.S.y.t.D.6.|.:.I.:.:.:.R #.k.|.g.S.[._.i.t.d.k.|.6.6.|.g.",
"r.o.:.G.C.g.A.;+d.|.:.:.V U -.R W W c.t.S.#.#.D.T R d.k.:.d.:.|.",
"q.B.~.S.f.g.g.i.i.k.R.R.[.(.B.<+G.W |.I.R.Z k.[.:.|.6._.6.:.g.X ",
"r.3.:.g.i.k.k.;+g.:.S.-+d.R.6.4+2+i.g.d.d.:.[.:.W :.I.r._.-.1.6.",
"g.-.U _.R.k.R.i.g.F :.I.q._._.9+4+P.:.(.t.d.:.:.[.d.c.g.X &.(.R.",
"/+:.[.4.g._.d.f._.[.c.f.4.X 4.4+4+6.:.q.4.g.g.c.U k.N.d.|.|.|.|.",
",+c._.6._.c.:.~.:.~.).0.:.i.6.p+m+Q.P.5.=.#.U U k.s.|.S.f.s.U W ",
"-+f.c.g.(.r.3._.d.4.H.0.~.[.4.(+p+Q.4.2.6.T X [.[.U F #.f.|.W i.",
":.i.g.6.d.6.-.-.6.6.q.I.0.c.6.(+p+S.I.3.:.i. .|.t X F W f.W f.N.",
"[.$.g.d.y.d.5._.(.:._.3.-.g.:.(+(+$+g.R.k.g.i.|.w V #.#.W U k.s.",
"~.S.d.(.P.g.0.4.~.:.T 4.E d.(.M.(+d.g.g.g. .U |.u.W S.g.X X [.U ",
"P I.6.A.I.).~._.:.X F [.V _.-.(+(+d.g.$+g. .F N.~.X A.R.t.W [.-.",
"X r.P.d._.*.R _.d._.U Z R P t.(+i+r.S.R.4.R R 0._.d.d.(.|.R X -.",
"R.d.d.(.r.6.~.d.4._.:.{.r.d.6.i+i+Q.d.g.[.f.:.E R :.:.P R E x :.",
"g.:.:.(.d.-.P.g.3.d.g.~.6.3.v.i+i+6.Q.:.U [.k.E W W U R _.c.Z [.",
"S.d.:.g._.P 6.t.:.d.:.Q 5.B.F.(+i+6.Q.=.:._.g.k.g.|.[.R :.g.W S.",
"E.W R.i.U (.-._.R R F U B.3.3.(+i+P.-.*.-.R R.|.d.d.U U (.6.F |.",
"S.R 1.P.@.d.:.[.(.E F X :._.W M.(+r.=.q F [.d.T R r._.d.F.5.E X ",
"R._.(.t.-.6.r _.d.:.[.W |.g.|.(+i+v._.F W c.X =.X :.:.d.6.d.6.i.",
"R.f.d.$+-.6.6.1.5.:.:.d.t.d.6.(+i+c.:.W f.[.:.f.I.|.6.6.r._.d.i.",
"g.t.d.(.(._.(.v.3.I.d.I.I.c.d.i+(+S.0.k.k.[.~.k.t.g.g.g.d.R W d.",
"i.g.(.6.:.3.5.6.d.t.g.d.d.3.4.p+M.#.#.S.S.|.(.i.g.d.R.,+g.f.g.g.",
":.c.g.I.R 6.v.6.y.P.6.4.6.6.6.M.M.:.f.@+I.|.i.P.r.d.R.I.g.c.I.I.",
":.i.;+A.g.P._.d.d.O.6.d.d.6.d.4+M.R U f._.3.g.g.F.d.-+>+S.S.P.R.",
"~.R.:.t.R.P.g.g.>+6.r.W.:.6.:.m.8.U W |.f._.S.R.W.S.S.-+,+-+'+P.",
"c.g.U (.:.g.I.I.d.W.~+$+K.q.:.8.8.Q B U c.d.g.R.d.c.k.f.K.V.W.W.",
"c.V X |.d.i.P._.6.v.O.d.[.-.-.D.$.Q B D U k.i.P.g.R.f.R.I.4.3.r.",
"~.~.X :.:.H.i.t.R.t.r.A.6.T -.|.|.E ~.V t k.d._.g.r._.f.c.~.(.-.",
"{.d.f.f.,+g.|.t.W.P.P.P.r.(.4._.=._.[.W ~.k.c.=.d.3.d.d.t.|.:.W ",
"i.|.S.S.R.t.i.g.P.P.I.d.Q.d.6._.S c.W W |.f.|._.~.:.d.R.t.g.|.k.",
"P.y.C.S.q.I.G.S.|.k.R.t.d.'+d.:.|.W a.%.|.f.|.i.c.|.A.'+d.|.S.i."};
