/* XPM */
static char * item_rot_3a_48_xpm[] = {
"48 48 255 2",
"  	c #000000",
". 	c #190907",
"+ 	c #340301",
"@ 	c #270531",
"# 	c #250A07",
"$ 	c #0B102B",
"% 	c #4D1615",
"& 	c #44270A",
"* 	c #47251D",
"= 	c #45252B",
"- 	c #2C2D38",
"; 	c #3E2C21",
"> 	c #392F2E",
", 	c #4E3204",
"' 	c #563E32",
") 	c #4B433E",
"! 	c #5B4647",
"~ 	c #584C3B",
"{ 	c #4E4E54",
"] 	c #644D43",
"^ 	c #5B524C",
"/ 	c #3C602E",
"( 	c #496727",
"_ 	c #3D6C25",
": 	c #715C59",
"< 	c #6B6058",
"[ 	c #666162",
"} 	c #457038",
"| 	c #786153",
"1 	c #41791F",
"2 	c #74664E",
"3 	c #487B31",
"4 	c #537834",
"5 	c #4D794D",
"6 	c #5A7641",
"7 	c #58764F",
"8 	c #806A69",
"9 	c #517D44",
"0 	c #7D6E5F",
"a 	c #796F67",
"b 	c #747071",
"c 	c #617E2B",
"d 	c #57832B",
"e 	c #50872C",
"f 	c #51891F",
"g 	c #5F8437",
"h 	c #538740",
"i 	c #548837",
"j 	c #5E8541",
"k 	c #857A72",
"l 	c #817B7C",
"m 	c #AA717B",
"n 	c #5C8D50",
"o 	c #678A52",
"p 	c #5C8D58",
"q 	c #668A5F",
"r 	c #8E7E6D",
"s 	c #A27781",
"t 	c #5A9529",
"u 	c #818377",
"v 	c #7F8385",
"w 	c #589638",
"x 	c #5A944B",
"y 	c #5F9439",
"z 	c #639242",
"A 	c #6A9042",
"B 	c #5B9542",
"C 	c #69904C",
"D 	c #61934C",
"E 	c #8E827A",
"F 	c #898485",
"G 	c #6B952F",
"H 	c #7D8C63",
"I 	c #6B973E",
"J 	c #5E9F24",
"K 	c #5FA21C",
"L 	c #62A034",
"M 	c #6B9E35",
"N 	c #928C8E",
"O 	c #6A9F44",
"P 	c #BE7F8E",
"Q 	c #63A240",
"R 	c #6A9F4D",
"S 	c #65A056",
"T 	c #6F9C61",
"U 	c #63A247",
"V 	c #6C9E56",
"W 	c #699D6D",
"X 	c #62A24D",
"Y 	c #679F61",
"Z 	c #759C56",
"` 	c #789B63",
" .	c #759B6F",
"..	c #9D8E7D",
"+.	c #998F87",
"@.	c #90928F",
"#.	c #8F9387",
"$.	c #B08892",
"%.	c #8E9397",
"&.	c #B18B8D",
"*.	c #66AE1D",
"=.	c #68AC31",
"-.	c #70A93E",
";.	c #999596",
">.	c #68AC3D",
",.	c #69AE4D",
"'.	c #71AC4A",
").	c #71AC51",
"!.	c #71AB60",
"~.	c #70AC58",
"{.	c #6BAD60",
"].	c #67AF58",
"^.	c #7CA958",
"/.	c #7CAA51",
"(.	c #83A851",
"_.	c #79AA61",
":.	c #84A763",
"<.	c #7DAD36",
"[.	c #6CB32E",
"}.	c #8BA763",
"|.	c #A39D99",
"1.	c #75AF71",
"2.	c #78B528",
"3.	c #70B63B",
"4.	c #70B643",
"5.	c #C893A0",
"6.	c #7AB348",
"7.	c #BA989D",
"8.	c #70B64A",
"9.	c #83AD72",
"0.	c #9FA19E",
"a.	c #82AD7E",
"b.	c #A4A0A5",
"c.	c #70BB29",
"d.	c #9DA3A7",
"e.	c #ADA091",
"f.	c #A2A398",
"g.	c #9AAA68",
"h.	c #70BF17",
"i.	c #73B954",
"j.	c #70B962",
"k.	c #72B95B",
"l.	c #7BB75B",
"m.	c #74B86A",
"n.	c #7DB755",
"o.	c #7AB762",
"p.	c #71C204",
"q.	c #7CB66B",
"r.	c #87B55A",
"s.	c #87B562",
"t.	c #85B56C",
"u.	c #ACA5A1",
"v.	c #8FB45B",
"w.	c #95B16D",
"x.	c #7BBE50",
"y.	c #77C24D",
"z.	c #76C255",
"A.	c #78C346",
"B.	c #85BE52",
"C.	c #7AC43F",
"D.	c #9EB485",
"E.	c #82C248",
"F.	c #78C733",
"G.	c #86C165",
"H.	c #7EC45F",
"I.	c #88C06B",
"J.	c #7EC926",
"K.	c #7DC466",
"L.	c #80C36B",
"M.	c #87C25F",
"N.	c #85C081",
"O.	c #7FC374",
"P.	c #D3A4B0",
"Q.	c #81CB1C",
"R.	c #83C656",
"S.	c #85C839",
"T.	c #87C744",
"U.	c #94BE82",
"V.	c #C9AAAF",
"W.	c #88C376",
"X.	c #8DC54C",
"Y.	c #B2B2A6",
"Z.	c #B5B0B6",
"`.	c #B8B0AC",
" +	c #91C174",
".+	c #ACB3B7",
"++	c #93C16E",
"@+	c #99BB9F",
"#+	c #90C17A",
"$+	c #94BE8F",
"%+	c #BDB0A1",
"&+	c #B0B3AF",
"*+	c #95C266",
"=+	c #9BBF79",
"-+	c #8FC85B",
";+	c #88CB5B",
">+	c #89CC51",
",+	c #8FC96D",
"'+	c #89CB73",
")+	c #90CA66",
"!+	c #95CB4A",
"~+	c #90D213",
"{+	c #92CA74",
"]+	c #99CD40",
"^+	c #91CD7E",
"/+	c #A2CB61",
"(+	c #98CF62",
"_+	c #94CD8C",
":+	c #99D057",
"<+	c #A0CC70",
"[+	c #9ECC78",
"}+	c #9DCC7E",
"|+	c #ADC77F",
"1+	c #9CCC85",
"2+	c #99D070",
"3+	c #C2BEBA",
"4+	c #A7CB84",
"5+	c #DCB8BF",
"6+	c #9FCE9C",
"7+	c #DBB8C6",
"8+	c #A3CE91",
"9+	c #A1CCB3",
"0+	c #C0C2C5",
"a+	c #CEC1AC",
"b+	c #B6C8B8",
"c+	c #CBC2B5",
"d+	c #BCC5CF",
"e+	c #B1CF96",
"f+	c #AFCF9E",
"g+	c #AECFA8",
"h+	c #AAD578",
"i+	c #ACD682",
"j+	c #CCC7C3",
"k+	c #ABD68C",
"l+	c #CACDB1",
"m+	c #BBD7C1",
"n+	c #B3DDA0",
"o+	c #B2DEAC",
"p+	c #DFCFCE",
"q+	c #DED1BC",
"r+	c #E6CDD7",
"s+	c #DBD3C6",
"t+	c #BDDEB4",
"u+	c #D2D5D8",
"v+	c #D8D4CF",
"w+	c #CBD7E2",
"x+	c #D9E7F1",
"y+	c #EBE4D6",
"z+	c #F4E1E0",
"A+	c #E9E5E1",
"B+	c #E4E6E9",
"C+	c #F1EAD3",
"D+	c #F2F3F5",
"E+	c #FBF7ED",
"F+	c #FFFFFF",
"H.B.G.I.#+{+l._.I. +++U.s.{+++o.o.#+#+s.,+W.V o.V t.o.1._.I.1.U._.o.q.T #+=+[+#+M.x.R.z.o.q.o.x.",
"E.>+G.t.s.t.9.t.-+*+_.=+s.*+s.9.I.}+#+s.t.9.!.R t.#+_+I.o.W.t.#+_.i.o.q.t.B.t.q.q.).y.R.l.9.m.i.",
"E.;+H.8. +U.N.s.M.R._.U.r.B.q.V 6.o.!.U s.l.~.).9._.9._.o.o.1+q.!.).o.t.r.'.o.t.#+o.6.B.3.:.t.I.",
"n.E.C.^.++U.a.o.s.I.1+=+6./.t._.R !.S Y ).'.'.X ` _.!.o.o.G.1+o.9._.I.w.n.'.'.n.++W.Z /.n.r._.I.",
"n.x.A.!.W.U.#+I.s.H.=+s.G.t. +t._.I.!.T ~.++8+b+%+u.D.D.9.G.H._._.9.t.1.R '.r.^.,.l.++w.l.~.~._.",
"H.6.A.,.W.9._.~.t.o.:.++I.t.t.G.t.I.q.U.l+3+`.`.u.|.e.`.Y.D.=+_.!.L.L.{.q.!._.M.'.).'.r.n.G.q.^.",
"x.z.6._.t.I.t.r.t.t.t.1+q.I.t. +1+t.D.%+b.j+j+v+v+c+3++.e.`.%+D.l.q.V _._.!.l.I.M.i.6.x.6.6.4.6.",
"G.R.).^.` ~.I.1+U.W.U. +o.).C :.U.Y.u.Z.D+D+B+s+3+a+j+`.`.e.%+V.D.t.t.~.!.!.3.x.,+l.~.Z Z x.).n.",
"t.l.-.~.` ).K.#+^.H.W._.G.l.~.).D.Y.j+v+c+v+A+y+s+a+&+u.3+c+e.u.u.w.8._._.).L.o._.I.^.` :.^.n.#+",
"1+l.~.9.T 8.W.l.i.8.q.I.).l.!.9.|.3+`.3+y+D+D+y+s+3+Y.u.3+0.`.+.u.Y.w.l.~.R t.q._.k.q._.t.s.R t.",
"^+o.q.~.8.H.'.)._.l.o.!.R k.t.f.Y.e.3+y+E+F+B+y+j+3+3+`.j+0.|.j++.u.u.!._.a.N.^+#+K.!.t.9._.t.^.",
"^+_.o.,.x.~.l.l.L.G.~.~.o.~.D.`.u.|.u.3+E+F+A+j+3+j+v+Y.3+|.|.|.|.N Y.9.q.#+W.V t.W.W.t.N.R _._.",
"{+t._.q.l.I.n.H.x.B.O l.l.I.u.u.;.a+3+u.y+F+v+j+j+3+u+`.Y.u.|.;.;.;.|.u.q._._.V _.9.9.'. +q._.t.",
"I.t. +t.i.s.6.n.B.E.).6.n.D.Y.|.|.a+q+`.3+D+j+y+s+j+j+j+Y.u.|.;.b.b.;.Y.D.~.C V q.V W.!.9.o.t.t.",
"l.R #+I.).l.G.r.n.6.6.6.^.Y.E +.e.a+q+y+`.y+j+|.|.+.Y.v+Y.u.|.Y.N u.E Y.f.D _.V ` T o.!.` s.W.W.",
"K.V :.I.n.M.G.G.n.4.A.l.9.`.k E E a+j+v+0+3+0+3+%+a+%+j+3+u.|.`.b.;.+.|.d. .!.T 9. .q.D _.9.#+W.",
"!.t.U.s.H.^.I.>+H.).8.l.Y.E E E e.s+y+s+v+Y.3+j+a+a+c+`.u.|.b.N F ;.;.l 3+9.9.a.#+_.s.R _.W.W.q.",
"S I.#+_.B./.r.R.q.j.i.).u.k E k e.p+s+3+u+3+`.q+a+c+3+Y.u.|.b.b.0.u.Z.k `.D.l.t.I._._.).!.~.)./.",
"U l.I.x.R.w.I.i.!.~.).o.b.k +.E ..s+s+3+u+`.u.j+a+e.3+e.u.|.b.&+|.@.b.|.u.Y.~.I.t.I.H.l.:.o.o.x.",
"L '.M.C.R. +t.'.U V t.a.;.: E E e.`.j+u.j+|.;.j+q+%+3+|.u.3+;.Y.u.3+;.|.;.@+_.G.B.t.W.!.~.o.).6.",
"o.).B.)+l.~.~.4.8.S ).a.|.k 8 k e.|.3+u.3+u.|.;.3+c+0.`.`.;.Z.|.;.Z.;.;.;.u.l.o.'.)._.!.Z ^.R '.",
",+i.M.M.l.).H.6.n.!.~.9.u.;.k k e.u.3+`.Y.u.`.|.|.`.3+0.|.;.&+|.;.@.0.;.%.u.s.:.R '.~.Q D T _.).",
"t.).o.n.)._.M.8.8.B.G.#.F E 8 k ..e.`.j+e.|.Z.|.e.u.u+u.0.;.;.u.;.b.&+`.%.0+!._.^.R ~.o.~.D I.H.",
"q.s.o.o.'.l.l.).-.B.I.f.F : a k E +.u.u.u.u.j+`.Y.;.&+3+;.0.;.@.N ;.0.u.;.3+T 1.V V i.o.9._.9.~.",
"I.I.k.V !.G.i.).O x.G.f.k F 0 k k +.|.+.j+Y.3+3+3+|.Z.u+b.0.|.;.N Y.;.;.;.&+_.m.!./.~.q.9. .U.#+",
"6+1.1.t.t.i.R R i.n.n.f.E k : k k |.u.N `.Z.Z.3+v+|.Z.u+b.;.0.;.@.N 0.&+;.0.9._.!.,.~.n.l.~.O t.",
"U.U.V t. +t.!.~./.'.'.#.E < : a a Y.3+3+|.3+`.3+v+j+u.u+3+0.0.0.;.;.;.@.;.Y.n.V V ^._.6.i.V _._.",
"t.#+D 6.B.r.4.'.M.l.l.#.|.a : k 0 `.u.j+3+3+u.3+u+u+u.u+j+;.0.;.b.Z.0.|.;.D.y.,.o.l.n.F.A.R V _.",
"8+s.n.O n.x.-.'.n.'.l.a.u.k F k E E +.s+3+u.b.3+v+B+j+3+u+Z.0.N @.0.j+u.0.D.l.).T l.B.3.'.8.T ~.",
"I.q.6.i.l.M./.4.n.V ~.9.N ^ a E < +.|.;.u.3+;.&+&+.+0+j+u+0+&+N ;.v 0.N b.9.~.K._.G.6.x.o.M.n.#+",
")+s.I.l.I.W.4.6.n.8.n.t.;.a +.k a a +.u.Y.`.u.3+3+u+3+`.u+0+.+0.%.@.|.N 0.w.~.n.6.x.x.i./.n.l.#+",
"G.,+l.l.M.K.).n.l.o.l.).f.;.E l a k E e.+.u.`.`.3+u+u+Z.Z..+&+&+u.0.;.|.f.++I.n.).l.H.i./._.~.~.",
"o.,+M.r././.r.o.~.^.x.A.D.k ^ k k +.a E ;.;.|.@.0.%.d..+.+d..+b..+.+N u.a.G.q.o.I.t.G.O ).T _.G.",
"o.I.l./.6.x.o.i.i.C.6.x.9.u.] l F N F a a k l F ;.;.b.d.d.d.d+b.0.b.;.d.w.x.H.G.L.1+G.l.q.!.I.q.",
"s.t.l.l.I.o._.i.i.y.x.8.t.Y.< k N b a l l l l F F F %.0.@.d.w+w+d.;.0.f.q.o.R.{+l.I.l.L.K.H.++G.",
"l._.q.q.M.I.T ).n.y.x.x.t.#.&+a [ a b b b b b b b b F F .+.+w+x+d+0.d. +R.i.l.I.M.G.o.I.o.G.G.M.",
"^.t.t.#+t. +q.H.M.~._.n.~.*+|.F [ N E F l F F N N F F F ;.3+w+x+&+&+Y.G.A.6.l. +++++G.I. +M.G.I.",
"8.I.O.I.^.++ +M.x.l.r.r.s.-+9.u.a [ b a ;.@.u F |.|.F ;..+.+u+0+b.&+#+G.H.M.I.t.#+{+#+}+ +*+I.W.",
"o.q.I.~./.r.t.n.G.G./.o.++G./.@.u.a [ < E ;.|.0.b 3+.+.+w+w+d+b.0+D.}+I.B.)+W.W.#+{+^+^+,+{+R.l.",
"_.l.o.V R ~.l.t.q.G.l.G.G.l.-+}.;.Y.b a F a l ;.;.@.w+w+w+u+b.0+Y.q.t. +l.;+o.N.1.t.'+H.M.R.y.)+",
"O.q.W.q.!.o.H.I.G.,+s.n.).x.B.M.w.N 3+F < < 0.l N l 0+x+Z.u.&+@+t.G.t.M.M.l.K.I.q.q.L.M.8.x.H.R.",
"I.{.S ~.~._.n.#+t.M.~.).n.R.8.E.-+9.u 3+3+;.l v %.d.d+`.u..+%.t. +I.o.B.o.I.++q.I.I.I.I.R 8.x.x.",
"~.!.~.R q.^.'.M.l.t.t.t.G.M.l.E.*+I.s.H F u.`.&+.+b.;.;.f.a.q V  +l.l.'.o.l.B.).).s.o._.).n.6.4.",
").~.H._.t._.:.I.G.:.I.)+G.M.M.r.-+=+n.s._.9.#.F N #.#.a.a.T T l. +o.~.~.l.q.R.o._.t.q.I.!.^.l.R ",
"m.q.l.I._.9.U.I.l._.G.M.l.B.M.B.;+M.B.B.).i.k.l.i.'.l.9. .!.~.o.t.t.k.8.~.G.4.k.q.n.G.I._.!._.1.",
"W.t.k.I.U.t. +'+s._.s.l.M.)+B.G.G.n.M.R.n.n.l.i.).k.o.~.Y _.o.q.t.q.l.).q.V l.l.G.I.G.M.s.9.^.U.",
"B.I.I.#+}+#+q.H.G. +I.t.l.n.n.G.I.G.M.E.M.l.i.R !.o.k.I.a.a.s.t.q.#+t.i.~.V t.M.M.^+q.q.q.9.6.#+",
"M.r.M.U.1+s.l.l.I.#+U.a._.s.#+I.s.M.o.r.)+l.l.q.q._.Y 1.N.9.` #+q.s.:.#+L.l.^.I.,+M.M.s.t.U.8.#+"};
