/* XPM */
static char * item_rot_1d_64_xpm[] = {
"64 64 255 2",
"  	c #000000",
". 	c #260706",
"+ 	c #2D1C00",
"@ 	c #433618",
"# 	c #4C4138",
"$ 	c #396023",
"% 	c #62594D",
"& 	c #4D623D",
"* 	c #426A3B",
"= 	c #62642D",
"- 	c #516B30",
"; 	c #3F722D",
"> 	c #437221",
", 	c #487030",
"' 	c #477F2A",
") 	c #4B7E35",
"! 	c #4E7F1F",
"~ 	c #4E7D3E",
"{ 	c #776F61",
"] 	c #607C4D",
"^ 	c #54804E",
"/ 	c #5F7C5A",
"( 	c #59813A",
"_ 	c #607F3A",
": 	c #5D8132",
"< 	c #558432",
"[ 	c #5F8043",
"} 	c #508833",
"| 	c #618528",
"1 	c #4F8B25",
"2 	c #538746",
"3 	c #54883E",
"4 	c #5B8646",
"5 	c #598B2A",
"6 	c #519011",
"7 	c #877E70",
"8 	c #599240",
"9 	c #5A933A",
"0 	c #5D9147",
"a 	c #63903E",
"b 	c #5C914F",
"c 	c #668E4F",
"d 	c #848859",
"e 	c #6B924A",
"f 	c #66925E",
"g 	c #639735",
"h 	c #5D9A28",
"i 	c #5C9B20",
"j 	c #788E53",
"k 	c #6A9536",
"l 	c #5D9A31",
"m 	c #5E965E",
"n 	c #5C9A38",
"o 	c #66936B",
"p 	c #73905F",
"q 	c #72906C",
"r 	c #818F58",
"s 	c #5D9C45",
"t 	c #5B9D4F",
"u 	c #649B46",
"v 	c #659A4F",
"w 	c #609B57",
"x 	c #91897B",
"y 	c #6C9946",
"z 	c #679A57",
"A 	c #6F9858",
"B 	c #63A821",
"C 	c #6AA53C",
"D 	c #65A82D",
"E 	c #70A341",
"F 	c #68A735",
"G 	c #64A83D",
"H 	c #67A64B",
"I 	c #69A644",
"J 	c #60AA36",
"K 	c #6EA44A",
"L 	c #63A845",
"M 	c #66A652",
"N 	c #63A65E",
"O 	c #6DA451",
"P 	c #6AA558",
"Q 	c #999477",
"R 	c #6BA465",
"S 	c #6DA45E",
"T 	c #72A358",
"U 	c #76A167",
"V 	c #76A350",
"W 	c #9D9484",
"X 	c #7DA663",
"Y 	c #77A777",
"Z 	c #7FA75D",
"` 	c #88A469",
" .	c #85A57C",
"..	c #6BB154",
"+.	c #6DB247",
"@.	c #6DB061",
"#.	c #6CB24E",
"$.	c #6FB05B",
"%.	c #74B04B",
"&.	c #78AE54",
"*.	c #72B054",
"=.	c #75AE61",
"-.	c #77AE5A",
";.	c #71AF69",
">.	c #75B32E",
",.	c #77AD6F",
"'.	c #6CB62D",
").	c #7AAD67",
"!.	c #7CAD61",
"~.	c #6CB81D",
"{.	c #80AD59",
"].	c #74B43A",
"^.	c #7BB23A",
"/.	c #79B242",
"(.	c #80AC70",
"_.	c #6DB73B",
":.	c #A69E92",
"<.	c #A89E8C",
"[.	c #6CB743",
"}.	c #73B542",
"|.	c #A9A07B",
"1.	c #80B24E",
"2.	c #73B94D",
"3.	c #73B954",
"4.	c #7CB853",
"5.	c #80BB25",
"6.	c #72BB64",
"7.	c #74BB5D",
"8.	c #76BA6A",
"9.	c #7ABA64",
"0.	c #7AB970",
"a.	c #7CBA5D",
"b.	c #78B978",
"c.	c #82B95E",
"d.	c #7FB96A",
"e.	c #81B964",
"f.	c #88B762",
"g.	c #75C22A",
"h.	c #72C238",
"i.	c #84B779",
"j.	c #88B76B",
"k.	c #ACAB77",
"l.	c #87B771",
"m.	c #7AC13A",
"n.	c #82BF3C",
"o.	c #B2A996",
"p.	c #B1A99D",
"q.	c #79C05B",
"r.	c #78C34E",
"s.	c #78C71F",
"t.	c #77C355",
"u.	c #B2AC91",
"v.	c #79C447",
"w.	c #7FC256",
"x.	c #92B97F",
"y.	c #81C350",
"z.	c #99B87C",
"A.	c #A0B67C",
"B.	c #96BB69",
"C.	c #85C349",
"D.	c #88C251",
"E.	c #85C25E",
"F.	c #87C257",
"G.	c #7CC468",
"H.	c #9FB971",
"I.	c #82C08B",
"J.	c #80C373",
"K.	c #91C151",
"L.	c #8EC15D",
"M.	c #83C46D",
"N.	c #85C466",
"O.	c #80C661",
"P.	c #8AC26D",
"Q.	c #83C37C",
"R.	c #8CC267",
"S.	c #81C941",
"T.	c #91BE8D",
"U.	c #83CA34",
"V.	c #8EC082",
"W.	c #9BBB90",
"X.	c #89C374",
"Y.	c #92C16C",
"Z.	c #9BBA9F",
"`.	c #83CE0C",
" +	c #90C17A",
".+	c #92C174",
"++	c #9ABF7B",
"@+	c #89CC25",
"#+	c #BAB59A",
"$+	c #8CCB46",
"%+	c #86CB61",
"&+	c #BDB4A8",
"*+	c #BDB5A2",
"=+	c #89CC51",
"-+	c #BAB984",
";+	c #89CB73",
">+	c #8DCC59",
",+	c #8BCB6D",
"'+	c #8FCB64",
")+	c #96CF2B",
"!+	c #8ECB7B",
"~+	c #94CB6F",
"{+	c #98CD49",
"]+	c #93CB75",
"^+	c #97CD55",
"/+	c #94CB83",
"(+	c #98CC69",
"_+	c #92CB8B",
":+	c #9ACC63",
"<+	c #9EC98A",
"[+	c #9BCC77",
"}+	c #9DCC72",
"|+	c #9ACC7E",
"1+	c #9FCA84",
"2+	c #9DCA90",
"3+	c #9ECE5E",
"4+	c #97CD99",
"5+	c #A3CC80",
"6+	c #A6CC77",
"7+	c #B0CB6C",
"8+	c #A4CB9C",
"9+	c #AFCA80",
"0+	c #C5C290",
"a+	c #A9CE6D",
"b+	c #B6C979",
"c+	c #AFCA87",
"d+	c #C4C2A5",
"e+	c #C9C0AD",
"f+	c #9CDC08",
"g+	c #C8C0B3",
"h+	c #AECB93",
"i+	c #A5CFAA",
"j+	c #A9D28B",
"k+	c #A8D295",
"l+	c #A6D671",
"m+	c #B4CEA2",
"n+	c #B4D0B1",
"o+	c #AED4A4",
"p+	c #A8DA84",
"q+	c #CDCDAF",
"r+	c #B3DA85",
"s+	c #B1DA8D",
"t+	c #D3CCB8",
"u+	c #ADDD81",
"v+	c #D3CCBF",
"w+	c #B9D79D",
"x+	c #B2DC9D",
"y+	c #BFDBAF",
"z+	c #B8DFB0",
"A+	c #C2DEBE",
"B+	c #DCD7C2",
"C+	c #DED7CA",
"D+	c #E8E2CD",
"E+	c #E9E2D5",
"F+	c #FFFFFF",
"c.7.^+P.j. +/+]+c.-.!..+ +f.++z.e..+[+.+-.a.3.[+(.j.D.}+/+O A j.b e.R.=.,.f ).M.U V.++P a.l.).S i.<+|+1+x.c.O.w.E.v.a.U l.a.9.r.",
"v.E.$+e. +j. +j.j.j.!.R.}+f.f.c+Y.c.L.{.(.e.X.k+k+1+f.d./+S A *.d.d.d.X.;+!. +x.d.l.T.e a.a.l.!. +4.L.j.l.P.-.}.%+r.-.a.U P $.2.",
"C.>+=+X.*.4.l.(.(.l..+^+E.).K ++{.R.e.j.).f.>+'+=.-.4.M.P j.u 0 j.V.2+8+d.2.R P.i.e.Q.).I 7.$.P.(.F.c.i.).l.(.%.].S.P.F.x.T.).4.",
"g.~+$+w.}.P.x.T.T.X L.f.y.e.A <+{./.c.(.T K 2.9.S b I d.&.X K -.(.T S U S =.j.c.2+e.9.=.%.u  +!.B./.%.q.l.<+-.!.*.D./.>.{.l.l.X.",
"4.N.@+n.V f.++x.x.).-.f.Y.j.h+++1.a c.e.!.v K z M S =.%.K +.%.8 R U S R 9.9.-.N.2+l.9.(.U O 1+` 1.n -.I r.d.|+i.e f.].c.E.X -..+",
"q.f.g./.=.a./+W.W.X.N.!.E.Y.c+1.L.!..+!.).T (..+=.c A &.v.}.c+g+e+i.U a.e.d.9.R.N.Z X 0.i.e.x.U O I &.!.%.#.%.R.++j.{.%.T 4.p !.",
"r.E.%.m.*.M.!+i.!.P.(.e.w.f.A.1.B.T l.<+ +).{.e.8.,.A %.}.]+t+o.&+d+q X c.X d.v.e.T ).-./+T i.,.v v }.c.f.].H -.1.Y.!.j.!.&.T X ",
"M.I c.v.s 9./+(.).w.v .+9.Z !.Y.P.!.<+-.f.P.j.X.9.,.8.4.g.d+x <.W p.W.v z j.l.F.++c.;.;.d.i.9.P ).0.-.!.L.O I *.I 1.c.&.R.X.9.Z ",
"v.w.q.].T d.X.P.d.f.V l.j.d.Z j+9..+R.Y.l.2+X.a.4.,. +P.Y.&+:.B+B+p.d+).l.).E.N.&..+U -.0...s (.=.T =.R.~+j.C.2.2.}.L.2.1.I m.4.",
"c.v.q.=.j.,.S 4.j.Y./+2+/+T.2+|+e.O O X z.x.m+.+2.9.c.%+h+W B+B+C+v+*+l.f.-.2.r.*..+v.O f./+H O ).d.v }.%.~+w.a.a.{.K K F.=.u C.",
"e.]+y.C C X f *.-.2+x.e.q.R..+c.d.a.H ( v a.!+N.2.J.3.4.d+:.C+C+C+B+&+h+!.E R.#._.~+P.U j.c.d.S z ,.*.g.t.N.[+a.y ` e r E r.M c.",
"j.P.u E S U =.+.q.2+T -.4..+l.V P.F.9.S ..N.e.-.E.9.d.-.p.t+E+&+p.v+g+u.!.c.e.-..+&.E.w.%.%.}.=.d.2.V X.M.A l.X.T U ` ` Z r.e.<+",
"8+P.&.H i.A f }./+N.-.4.}.d.j.X.*.F.*.;.6.8.9.J.}.$.A z.p.v+B+p.g+t+B+#+&.j.G.q.9.C %.a.-.c.P.7.P 0 A l.7.!.-.*.i.z  .!.j.O c l.",
"<+*.M.,.0.H v.j.v %.O -.2.-.T =.s a.P ,.S G.$.M.2.9.+.h+p.v+o.<.g+v+B+e+++*.3.3.}.K i.2+ +Q.(.-.U f ).2+2+/+M.M.8.=. +,.!.).d.-.",
"<+U l.9.I }.F.a.O %.7.d.-.d.d.M w 3.d.(.a.7.q.4.-.i.C d+g+v+E+o.*+&+g+t+++C._._.D &.P.l./.T ,.A 9.V.2+).l.T.a.e.R (.j.i.=.l.j.Z ",
"<+X 4.9.M v.).%.e.*.E.M.e.&.u $.9.a.O u #.$.G.7.%.W.A u.v+C+E+&+&+o.e+t+W.}.m.2.*.v P.U -.b R *.=.V.i.i.y !. + + + +=.T.a T d.X ",
"[+E.Y $.0.7.a. +&.4.E.4.E.I u N.$.N.-.3.O.=.7.=.#.@.l.o.C+v+v+p.v+t+o.&+#+e.v.h.w.N.+.y T $.@.=.$.).U ).c d.f x.i.].E  +).v l.j.",
"~+X.V.V.Q.=.3.f.%.}.-.].1.%.H }.4.N.S m.3.N.Q.d.J.M l.p.E+D+C+o.e+v+&+&+*+v._.}.}.r.I Z (. .S d.2+).P [ S 9.i.c V.e.c x.).` X i.",
"f.e.%.Y.j.%.7.f.1.j.c.L.C.%.&.%.4.c.c.2.4.9.G.a.9.9.x.*+E+B+&+*+g+p.g+g+e+c.m._.I f.{.4.y k.z.P.T #.O U c T U P l.Q.R X 9.A .+(.",
"{.E v x. ++.a.4.R.!.&.4.%.}.w./.O %.I a.w.9.J.O.2.$.x.&+C+C+W t+B+g+*+p.t+~+4.2.H f. .z.D.c..+S S v 0 i.z A p U 9.=.m U e.T k+M.",
"J.S b `  +=.*.c.R.c.j.%.}.}.m.!.K a.-.=.-.&.r.2.3.3.W.&+E+C+<.e+C+v+B+g+v+++]+N.(.=.Z L.c.!.j.R R R P R A Y (.U ).A 4 d.A X.V.Q.",
"=.X.0.x.f.O.w.{.++:+E.-.I 2.4.e.F.T y ` a.*.+.I F u W.&+E+t+<.&+t+g+&+W B+l.a.j. +,+O.T V.T.x.S (.S U (.U i./+U .+O I &.x.2+i.J.",
"s V.).<+!.N.4.O f.U.F.d.9.2.2.2.r.%.T -.*.+.[.F u S W.g+v+&+W g+t+g+&+:.B+z.e.P.d.*.*.U O T ++f V.,.p  .W.++f.-.{.H v (.a.).c.z ",
"v P.e. +=.c.4.&.e.C.P.9.7.3.$.2...;.i.*.K V N.7.0 u <.g+v+E+v+g+v+g+e+:.B+W.c.l.l.+.u Z 0 a {.,._+i.d.1.f.X.R.-.-.y T T P &.H &.",
"0 4.M.P.2.D.R.j.P.q.7.)...H ..+.$.A U P O u !.8.;.N  .e+7 p.C+t+e+*+g+:.C+#+X.P. +a.I 1.a {.!./+3.O (.O Y.i.d.R.E.%.j.` ). +-.2.",
"F T q.P.n.S.X.++X.*._.8 P  +q.$.e.j.=.).z S i.*.v ;.W B+x v+t+t+C+e+B+v+v+#+X.,+a.-.P V y !.V.J.;.+.&.=.P.i.%.l.Q.d.$.T 9.b E /.",
"D a 2.L.C.v.N.d.d.K I O ~ ).N.l.E.e.4.$.f z d.).P L <.B+:.t+*+*+v+C+B+&+g+#+e.Y.t.7.a.u v V.3.M.S 8. +).!.y.y.l. +U P T d.=.4.%.",
"l.a R.F.Y.c.3.*.*.+.].#.P -.#.O *.2.E.*.S z ..,.O }.W v+t+g+E+*+&+e+*+:.p.#+X.%+3.*.E.H V s 9.H {.#...a.d.*.I y !.X -.T {.O n %.",
"]+*.w.R.F.j.&.&.G.#.C.a.=.-.*.2.2.a.2.u *.0.R @.y.O.u.t+C+C+C+g+g+g+e+g+&+*+}+d.).S 4.Y.1.g d.n K P v l.j.T C I -.9 G b S U S v ",
"]+2.=.c.2.-.a -.w.v.%.y.w.w.{.c.&.r.C.E.=.u .+P 2.y.<.v+C+v+p.p.e+t+t+t+v+d+F.8.0.Y ).(.i.v 1.c A P $.-.T f.G v u }.u K 4 P.l.w.",
"i.*.4.e.f.-.%.a.'+4.I }.y.c.R.a.C./.4.*.l.P 9.3.=.C.<.t+C+C+E+v+o.*+e+:.C+d+T T =.;.l.=.V.m 2.S T 0.T P ,.S S O S l.i.=.3 i.*.!.",
"e.l.N.T ).-.I e.!.!.K C y.R.j.&.2.4.a.N.c.!.).S &.y.<.t+C+B+x p.t+B+&+*+C+d+O X u ).M $.l.*.-.0 z x.T S 0.v O T 2.I c.i.).i.i.H ",
"N.R.M.3.O =.T P.3.$.K I 2.C..+d.P e.E.{.&.l.$.H }.F.<.t+C+C+o.p.t+v+e+W D+#+2...f (.O *.c.0.8  +j.X j.U 8.;.A V &.(.d.(.f T.<+ +",
"V.V.S $.T U P.r.I d.n 2.w.F.1.e.O a.&.c.4.=.P G r.'.|.t+B+D+:.&+t+v+v+:.C+d+I }.R.j.%.&.4.i.;./+E.*.X.x.A 0.=.%.&.E.&.).,.I -./+",
"n+T.A i.T.V.Z T O H y -.F.E 4.3.e l.T &.T O $.$.3.h.<.t+v+C+<.t+B+g+t+:.B+d+u 2.2.{.%.K .+!.).=.a.%+P.f !.P $.v !.%.&.*.v n v X ",
"i.n+c 4 f.V.Y.l.!.P 9.1.y V u $.v !.v a A z S c.=+].<.t+C+B+o.t+g+<.v+:.B+#+G G u 1.T V ]+c.!.O !.a.y.r.t S P &.!.1.].4.A z (.).",
"%.k+s 3 1.c.w.f.}.C 4.L.a.9.=.=.a.*.} M 4 [ l.c.!.T |.e+v+g+#+v+C+t+E+p.t+p.C u V E Z X N.%._.T y a.#.r.#.=.P.c.a.U.].v.u $.v ` ",
"2+(.E.&.g 4.2.y._.u {.c.K E R.d.9.a.9 -.T T.).H i.a.z.g+v+C+e+B+C+g+C+o.:.#+y U / c e.d.9.-.F l =.=.+.%.*.O !.q.f.g.n.%./.b S A ",
"k+l.1.2.z %.E.2.%.F y.4.K O ,.*.w.*.O N.).c c T -.d.u.g+p.W g+v+g+*+g+o.W #+0 T U S 9.9.V &.2.3.S A (.P.*.P T r.F.%.v.v 4.-.,.Z ",
"E.j.).2.3.c.E.f.%.}.].c.A K $.*.L.T 9.=.P.!.T 0.).j.u.d+p.*+g+&+o.o.&+v+p.#+f T ).).3.d.).S L q.#.T -.&.N.9.-.M.+.4.w.P.e.w.4.<+",
"(+&.l.X.3.j.j.|+].].-.4.}.4.4.1.C.%.O d.d.=.-.d.d.}+W.*+p.&+B+&+*+<.:.B+B+u.-.f e.=.d.-.-.v 9.l.F.&.a.y 4.v.2.v.r.q.}.V y.+.d.1+",
"E.|+&.*.e.2.Y.O...%.c.c.R.'+N.K g.#.}.%.a.%.4.9.4.R.W.*+&+t+D+o.:.<.:.D+v+<.e.,.(.<+S -.d.(.S (. +<+R..+-.u C.c.}.w.-.c.).-.a.=.",
"c.~+R.a.4.4.P.a.*.F.%.!.S %.4.h._.7.O.N.w.r.4.a.R.O z.*+t+B+D+*+W :.&+D+v+A.V.(.=.2+z a.=.N.=.l.9.L.f.{.w...a.a.]+y.C C X c 3.O ",
"*.<+y.e.f.y %.&.4.).-.V &.%.D.v.+.v.4.j.9.4.N..+.+M..+p.B+B+C+v+*+o.g+B+t+` d.X.d.!+0.O #.7.N.l.c.E.l.).e.e. +j.P.u %.-.U =.a.R.",
"-.j.c.a.&.K C.4.).%.q.2.h.].4.w.2.E.M.e.e.P.4.e.e.N..+p.v+B+B+B+e+*+v+C+g+x.a.|+X.9.=.-.I j.4.l.e.4.4.a.R.e.X.2+P.&.*.l.S !.X.d.",
"j.++e.c.%.F.a.$.j.#.2.a.2.4.4.4.4.F.E.E.N.E.#.y.1.a.L.o.t+B+v+C+B+t+v+&+&+x.a.]+f.d.l.=.*. +f.f.l.,+4.y.~+4.d.X.4.N.0.G.q..+[+!.",
"f.!.P.a.e.f.++*.O K 4.%.v.v.2.%.H.R.Y.N.N.2.2.y.&.+.}.u.g+B+t+&+B+B+g+d+#+x.X.P..+1+l.i.a..+d.4.*.;.7.w./+v.N.j.!.l.M.9.q.R.R.f.",
"4.O !.d.).c.c.X.R O %.a.y.y.4.4.j.R.{+e.4.I %.e.c.w.I u.e+v+g+o.t+g+g+d+#+9.d./+*.2.c.!.l.e.E.D.D.t.*.a.P.,+w.P.a.R.P.9.f.'+a.F.",
"-.&.z.).2+l.P..+).4.F.E.*.-.-.4.T E.U.f.4.4.c.a.w.q.-.W.&+t+t+e+g+g+&+&+W H j.d.*.*.2.4.e.l.a.E.S._.4.c..+Y.N..+L.X.c..+E.a.l.N.",
"+.c.x.d.X.=.&..+P.N.L.y.a.-.~+w.&.E.K.1.4.y.a.!.N.4.-.l.&+t+*+g+o.e+*+g+<.S d.i.-.&.v.I a.]+=.e.y.w.r.j.Z .+/+~+.+]+<+j.F.c.j./+",
"+.e.J.J.l.-.4..+++P.y.q.a.E.%.e.z.R.L.n.{.4.R.3.4.4.-.R.&+g+e+e+&+&+*+o. .U  +(.V.v *.$.=. +Y.R.E.,+P.X.P.x.R.|+ +|+1+j.|+~+R.j.",
"=.l.0.N.*.v F.f.j.*.4.P.l.c.K M..+.+4./.w.(+D.w.-.e.*.w.#+e+v+#+e+&+*+*+(.l.(.T V.b e.a.,.<+++E.w.>+]+X.i.1+.+,+!+/+!+'+]+y.y.4.",
"=.-.q.9.u e O *.-.(.X.=.N.E.a.e.e.d.w.K.R.~+(+P.M.O.G.4.#+&+g+&+o.e+*+*+u P ;.=.a.,.f.4.9.).P. +-.'+w.).Q.Q.P .+!+G.4.'+F.r.v.'+",
"N.J.i. + +O =.l.E.*.P.e.]+E.&.a.*.2.}.D.R.D.C.4.9.9.q.E.A.g+:.e+*+<.*+u.#.L s ..).M a.&.e.(.P.R.E.F.a.$.d.d.6.0.9.;+c.y.C.-.E.'+",
"P.S -.J.z 9.e.{.2. +N.c.Y.4.j.w.%.9.F.4.F.D.E.a.P.M.$.2.e.g+g+&+:.*+&+ .J H $.z ).7.S i.R.).e.y.a.R.e.l. +l.d.i.8.O.2._.}.%+t.S.",
"P.$.P s -.H !.!.}.j.V.(.F.a.O K 4.E.y.2.C.=+R.c.=.O n F 4.u.e+e+*+e+*+U z #.H S S d.a.|+l.l.a.F.a.l.j.Y.=.l. +N.e. +9.H %.m.y.3.",
"*.@.=.O C =.).T E &.j.a.j.j.!.l.R.f.E.a.m.E.Y.Y.c.%.u O /.` g+e+g+&+W s 3.H $.0.f c !. +-.e.2.C e.c.E.y.+.3.*.P.9.a.U O 1.F.F 2.",
"$.M e.N.@.9.).z &.E.R.q.U e.++R.e.>+R.w.}.D.Y.++%.}.!...C f.u.g+e+p.X L T (.,.P U =.4. +N.*.4.*.N.*.a.v.d.*.X !.a.=.c...V j.D K ",
"*.s S w.=.(.X.d.i.(.O.P.U j.y.E.N.E.Y.R.M.w.D.1+R.4.F.O I +.R.:.<.Q #.z (.U U f f -.q..+-.=.2.!.%.d.!+4.q.O .+j.j.i.V.S v l.V O ",
"0.).(.a.X.d.A l.2+ +a.4.X e.j.c.4.4.F.E.w.N.F.y.4.>+4.K *.7.-.!.4.u 4.c.d.R (.=.*.a.d.l.d.l.L %.*.P.w.F 3.d.f.2.L.P.0.).=.d.v i.",
"V.(.d.3.M.x.l.).X.|+N.f.!.).R.c.c.~+R.a.E.e.R.4.F.y.e.4.4.a.a.4.O M O.9.v v S !.e.d.).(.).e.-.+.d.T O }.&.~+E.P.e.F.F.!.i.c.{.T.",
"F.c.Y.{.P.T.<+l.a.e.w.j.l.R.E.=.E.a.4.F.R..+R.c.L.F.v.c.-.*.3.8 z 0.9.*.d.U  .q c.l.i.8.d.f.a.%.d.~ (.V.w.E.P.|+9.l.d.b.(.%.1./+",
"w.a.5+ +x.|+Y.++l.q.w.c.z..+ +i.-.2.-.O E.R.R.Y.!.F.$+E.f.4.3.P =.=.P R 0.V.I. .Z &. +;.V.x.S a.3.v T f.!.R.y.|+d.,.4.d.i.4.n.x.",
"E.X D.L.x.2+x.&.y.*.a..+ +i.<+j.!.c.P.V.P.l.c.c.9.O R.~+a.4.-.j.).l.U w R i. +(.c ]+i.8.&.{.X V.X.D.j.Z j.~+~+v.y.c.R.(.2+).F /+"};
