/* XPM */
static char * item_rot_1c_64_xpm[] = {
"64 64 255 2",
"  	c #000000",
". 	c #2A0602",
"+ 	c #230900",
"@ 	c #2B1B01",
"# 	c #392B0D",
"$ 	c #3C2F24",
"% 	c #4C4237",
"& 	c #534932",
"* 	c #5B5245",
"= 	c #4E5E3B",
"- 	c #48692B",
"; 	c #446A3C",
"> 	c #56662E",
", 	c #406E2C",
"' 	c #3F7021",
") 	c #6A6152",
"! 	c #497C2C",
"~ 	c #497C33",
"{ 	c #53793C",
"] 	c #78705E",
"^ 	c #787066",
"/ 	c #4C8328",
"( 	c #607D29",
"_ 	c #558128",
": 	c #597F38",
"< 	c #667B42",
"[ 	c #6E793D",
"} 	c #5B8033",
"| 	c #54804E",
"1 	c #607C52",
"2 	c #4F8342",
"3 	c #4D871E",
"4 	c #508916",
"5 	c #538636",
"6 	c #53863C",
"7 	c #7D7943",
"8 	c #5C8445",
"9 	c #847B6B",
"0 	c #5C8F34",
"a 	c #53923F",
"b 	c #5C903F",
"c 	c #5C9046",
"d 	c #5B904E",
"e 	c #867F7A",
"f 	c #658D4E",
"g 	c #60922B",
"h 	c #6A8F37",
"i 	c #5A9622",
"j 	c #589537",
"k 	c #59962D",
"l 	c #758B50",
"m 	c #6B9143",
"n 	c #6B9149",
"o 	c #8D8474",
"p 	c #62945E",
"q 	c #6C915F",
"r 	c #63973C",
"s 	c #6A926A",
"t 	c #788E67",
"u 	c #818F58",
"v 	c #5C9C48",
"w 	c #5B9C4F",
"x 	c #659A48",
"y 	c #659A4E",
"z 	c #649A57",
"A 	c #6F9758",
"B 	c #63A13F",
"C 	c #62A146",
"D 	c #958D7D",
"E 	c #6EA13A",
"F 	c #68A33A",
"G 	c #6BA331",
"H 	c #63A720",
"I 	c #6CA146",
"J 	c #63A630",
"K 	c #63A63C",
"L 	c #74A046",
"M 	c #96908A",
"N 	c #66A754",
"O 	c #6DA552",
"P 	c #6CA558",
"Q 	c #68A846",
"R 	c #74A356",
"S 	c #72A35E",
"T 	c #71A366",
"U 	c #68A84C",
"V 	c #69A661",
"W 	c #9E9585",
"X 	c #72A876",
"Y 	c #7FA67A",
"Z 	c #6CB13E",
"` 	c #83A66D",
" .	c #86A664",
"..	c #8AA37D",
"+.	c #6CB146",
"@.	c #6CB14D",
"#.	c #88A75D",
"$.	c #73AF4D",
"%.	c #6BB154",
"&.	c #73B236",
"*.	c #72B054",
"=.	c #6CB530",
"-.	c #7AAE52",
";.	c #6DB627",
">.	c #6CB539",
",.	c #72B06A",
"'.	c #70B25C",
").	c #A79D8B",
"!.	c #6FB262",
"~.	c #A69D91",
"{.	c #76B062",
"].	c #78B05C",
"^.	c #7AB242",
"/.	c #7FAE60",
"(.	c #7EAE69",
"_.	c #7CAE71",
":.	c #78B34A",
"<.	c #80B24A",
"[.	c #AAA386",
"}.	c #70BE21",
"|.	c #70BB46",
"1.	c #78B947",
"2.	c #74BA4E",
"3.	c #73BA55",
"4.	c #72BA5C",
"5.	c #7AB85C",
"6.	c #7CB855",
"7.	c #83B65A",
"8.	c #ADA599",
"9.	c #AFA592",
"0.	c #75BD66",
"a.	c #73C234",
"b.	c #78BC6C",
"c.	c #7BBB74",
"d.	c #7CBC66",
"e.	c #77C145",
"f.	c #77C23D",
"g.	c #81BB6C",
"h.	c #7DC135",
"i.	c #83BB66",
"j.	c #8AB96A",
"k.	c #89B973",
"l.	c #87B97B",
"m.	c #82C044",
"n.	c #77C255",
"o.	c #95B76B",
"p.	c #7EC155",
"q.	c #7BC25C",
"r.	c #79C44F",
"s.	c #82C063",
"t.	c #84C05D",
"u.	c #7AC82B",
"v.	c #8BBF62",
"w.	c #B6AD9A",
"x.	c #7CC465",
"y.	c #B6ADA1",
"z.	c #7ECB1A",
"A.	c #83C552",
"B.	c #88BF8C",
"C.	c #95BC81",
"D.	c #9FBA80",
"E.	c #85C931",
"F.	c #89C55A",
"G.	c #A0B994",
"H.	c #95BD8F",
"I.	c #82CA3E",
"J.	c #8DC554",
"K.	c #A3BC72",
"L.	c #82C675",
"M.	c #81CA4A",
"N.	c #84C66F",
"O.	c #BAB297",
"P.	c #86C57E",
"Q.	c #84C95C",
"R.	c #83C963",
"S.	c #92C55C",
"T.	c #8BC576",
"U.	c #8DC570",
"V.	c #A3BF67",
"W.	c #89CF12",
"X.	c #93C37D",
"Y.	c #92C385",
"Z.	c #8BC864",
"`.	c #95C470",
" +	c #8AC86B",
".+	c #9CC17D",
"++	c #94C477",
"@+	c #9FC174",
"#+	c #94C765",
"$+	c #BEB5A2",
"%+	c #8ECB4E",
"&+	c #93C76B",
"*+	c #9DC46A",
"=+	c #BDB5A9",
"-+	c #90CC42",
";+	c #93CD32",
">+	c #92CD79",
",+	c #92CF63",
"'+	c #96CE6E",
")+	c #9FCE53",
"!+	c #99CF5E",
"~+	c #97CD85",
"{+	c #95CE8D",
"]+	c #9ECF66",
"^+	c #97CD99",
"/+	c #9CCE7C",
"(+	c #CDBBAB",
"_+	c #C6BEB1",
":+	c #C8BEAB",
"<+	c #A1CF72",
"[+	c #A6CB90",
"}+	c #A4CB9C",
"|+	c #C4C0AB",
"1+	c #9FCE8F",
"2+	c #A6CE7F",
"3+	c #9EDA0F",
"4+	c #B0CB80",
"5+	c #C0C682",
"6+	c #A2CF88",
"7+	c #B5CA80",
"8+	c #AACF74",
"9+	c #C8C397",
"0+	c #ACCF8A",
"a+	c #A5CFAA",
"b+	c #B6CD94",
"c+	c #D6C4B3",
"d+	c #AED398",
"e+	c #D1C6B3",
"f+	c #CFC7BA",
"g+	c #B5D0B1",
"h+	c #CDC9B4",
"i+	c #AED4A4",
"j+	c #B7D2A6",
"k+	c #AEDD9E",
"l+	c #DFCCBB",
"m+	c #B5DD8D",
"n+	c #DACFBC",
"o+	c #D5D1BC",
"p+	c #D7D0C3",
"q+	c #DECEC3",
"r+	c #B7DDA1",
"s+	c #B8DFB0",
"t+	c #C2DEBE",
"u+	c #E6D5CA",
"v+	c #DED8C4",
"w+	c #E1D8CB",
"x+	c #DBDACB",
"y+	c #E3E1D3",
"z+	c #E9E0D3",
"A+	c #EFDFD4",
"B+	c #E8E2CD",
"C+	c #F0E9DD",
"D+	c #F9F4DE",
"E+	c #FAF4E6",
"F+	c #FFFFFF",
"t.5.%+U.g.X.X.++7.]./.k.X.7.C.C./.++/+T.].5.6.++(.j.A.<+Y.O A j.f i.j.{.,.q (.g.T C.C.P 5.j.(.S l.Y./+.+C.7.Q.p.t.e.t.S g.d.5.r.",
"f.F.I.i.X.j.++j.(.j./.v.<+7./.6+j.s.v./.` g.T.d+[+.+v.i.X.T A *.(.g.(.T.U./.T.l.(.g.H.n 5.].k.(.l.p.S.j.k.U.].|.F.r.].5.S P '.2.",
"M.%+%+g.*.p.k.(.` k.`.%+t.(.x @+/.#+i.j.(.i.F.Z.].*.3.N.P j.x c j.X.1+}+g.2.T j.l.i.P.,.Q 5.'.U.` A.t.l.(.(._.$.&.I.U.A.C.B.(.6.",
"h.&+I.t.Z j.C.C.H.` F.v.r.v.A [+7.<.t.(.P $.:.0.V d Q g.*./.I ].(.R P T S {.g.t.1+i.d.{.$.x ++/.v.^.$.6.k.1+]./.*.J.1.=./.k.k.U.",
"7.s.u.f.-.v.++C.l.(.].i.U.j.b+.+<.0 /.(.{.y $.A N V {.:.$.Z $.c T T S V 5.d.].s.1+k.{._.T O ~+o.7.r ].Q r.g./+l.n 7.Z 7.t. .S `.",
"p.v.u.^.{.5.Y.H.H.l.i./.R.v.0+-.J./.++/.{.A ` k.{.f A -.++b+|+|+|+G.` 5.i.b.d. +s.#.{.c.Y i.l.T O Q -./.$.@.$.v..+o.#.$.O 5.q /.",
"r.t.$.f.%.g.X.l./.U._.i.p.v.D.<.o.S k.Y.X.(./.i.,.,.A G.|+f+f+_+f+o+_+O.i./.g.m.s.R (.].X.S k.,.z y 1.7.i.&.U S <.&+/.j.].$.P S ",
"g.+.7.e.v d.~+_.{.p.y k.d././.U.U./..+].t.k.g.k.{.,.}+p+|+9 ] o o 9 8.h+h+k.g.t..+7.,.,.g.l.d.P (.c.]./.F.O Q *.B <.t.-.j.T.d.].",
"e.n.q.&.R g.T.j.g.v.R k.j.(.S 6+d.k.v.j.k.[+T.5.6.O.o+).] =+o+o+o+o+$+D f+o+ +s.*.++T ].c.%.v _.{.P {.v.`.i.m.2.2.^.F.1.<.Z 1.:.",
"7.1.q.S j._.S 6.j.`.X.[+Y.Y.1+/+i.O O S o.k.j+++[+p+W D o+v+v+v+w+v+v+o+W _+b+e.*.++1.O (.Y.I O (.g.y :.+.'+p.6.5.-.I L F.{.I A.",
"s.++p.B E (.q *.5.[+C.i.n.j.U.q.g.5.U : y 5.++/+o+~.D p+w+w+w+w+w+w+v+p+o+9.f+C.>.`. +S  .t.g.S z X *.u.n.s./+5.L  .n u E r.U 7.",
"(.U.r +.P S {.@.p.1+P ].6.U.k.R U.t.{.V %.s.i.j+_+^ f+x+C+v+f+f+f+_+f+p+o+o+).h+l.*.t.p.:.$.1.{.g.1.$.T.g.A k.T.R ` ` `  .p.i.6+",
"[+j.*.C l.q q >.~+i.].6.1.g.k.k.*.A.*.,.{.b.~+p+9 f+v+=+w+y+_+8.w.=+=+p+p+p+e+w.[+Z $.5.].7.k.5.P c A k.'.].*.*.c.z ../.i.O f k.",
"~+*.g._.c.U e.j.y $.O ].:.].R {.C t.P _.V x.j+|+M w+w+~._+f+~.9.$+z+w+p+f+v+v+8.|+U k.1+++l._.].T p (.{+{+Y.g.N.b.{.X.T /.{.g.].",
"1+T k.d.Q >.A.5.O +.5.g.].g.d.N w 3.g.(.5.i.o+e o+y+w+w.p+y.9.9.9.h+f+y.w._+v+p+8.D.U.k.^.S _.A {.B.H.(.k.Y.5.d.T _.g.k.S k.j.#.",
"H./.6.5.O 1.{.$.s.*.v.g.i.$.x '.d.5.O C @.G._+M w+w+w+_+C+C+$+w.9.=+w.).w.:+w+w+8.$+k.T ].d V *.{.C.l.l.m /.X.++X.++{.Y.b R g./.",
"/+t.` '.b.5.5.++6.2.s.p.t.Q r s.'. +].3.s.|+~.h+y+w+w+_+y+z+f+9.8.y+z+$+w.y._+_+=+y.i.x R '.!.{.P {.T (.f (.f C.l.&.L X.(.y k.j.",
"`.T.Y.X.P.{.6.i.$.:.].^.1.$.U Z 6.s.S f.N.p+e w+y+z+w+p+_+=+~.9.y.y+y+f+8.9.o+~._+=+G.S ` ..S i.^+T P 8 P d._.f Y.d.f C.{.` T l.",
"v.i.$.`.j.:.5.i.:.j.7.S.m.-.-.:.6./.t.2.++_+8.y+z+z+y+_+z+z+p+9.w.h+y.~.w.=+z+f+|+f+$+7.m o.D.k.S @.O S f S (.P k.L.T S d.A `.(.",
"/.I y C.T.$.5.6.j./.-.6.:.+.A.^.O :.Z 6.b+~.f+y+w+z+z+).o W 9.p+e+w+z+f+w.w.e+_+=+v+y.@+J.7.++S A y c _.z A q T d.{.V T i.R 1+N.",
"g.S d ` X.].*.t.i.t.j.-.^.|.f./.O 5.].{.O.o w+z+p+z+z+w.8.9.y.p+B+p+_+|+n+h+w+_+y.B+$+[+t./.j.T T V P T q Y ` X (.A 8 g.S k.Y.P.",
"{.P.c.C.i.Q.p.7.++#+t.*.Q 2.p.i.t.R L o.h+D f+C+p+z+v+9.8.8.8.f+:+v+w+h+p+f+W ).8.B+_+G.Y.C.C.S Y V ` _.T Y Y.T k.O Q *.C.H.l.L.",
"v l.{.~+/.s.2.O i.I.t.i.d.2.1.2.r.$.S (.=+~.v+_+y+w+f+8.~.~.8.w+f+_+o+8.f+_+~.).=+v+o+$+O R .+z C._.q ` G..+i.R ].I y _.5.(.s.P ",
"y j.i.T.].t.6.-.i.m.j.d.0.*.'.2.%.,.c.C.$+=+v+e+z+_+z+w.=+=+w.v+_+v+:+_+f+f+).~.=+n+o+y.S h /.(.{+l.(.<.v.N. +].].A R P O -.I -.",
"c 6.N. +2.A.v.j.j.q.4.,.%.O U +.P A T G.~.f+y.W y.=+y+q+C+C+o+_+o+h+f+y._+f+~.).w.y+o+y.` #./.~+3.O (.O j.k.g. +t.:.(.(.{.T.].1.",
"F R q.U.f.I.U.@+k.*.Z c P T.5.*.i.k.].G.W o+o+|+9 W _+8.p+p+$+o+o+h+_+8.h+p+v+p+=+p+_+=+../.Y.L.,.@.*.{.U.k.$.k.L.g.'.P d.y +.^.",
"J r 2.Z.m.e.N.g.g.U B O { (.Z.g.s.s.6.G.M p+o+_+o ~.z+8.y.8.D y+z+o+v+v+C+v+h+f+y.f+f+|+G.l.3.g.P b.X.(./.A.p.k.X.T N S g.S 6.:.",
"k.r v.F.&+t.6.*.*.+.f.*.P ].@.O *.:.Q.b+M p+o+y.o+~.z+8.w+x+W =+_+y._+=+f+=+w.~.8.y.D =+G.v d.U ].@.%.5.i.O +.I /.S ].R /.O B $.",
"'+3.p.v.t.g.-.*.d.@.m.].].].*.2.2.s.1.h+e _+o+f+v+f+w+f+z+C+y.o+_+_+_+_+o+8.p+=+=+|+y.f+O.r d.j U P y k.j.R B Q ].b K d S T S x ",
">+2.S 7.:.].b ].p.e.:.1.p.p.7.7.-.r.M.h+o h+o+o+w+w+w+_+_+_+~.h+o+_+o+h+p+h+o+v+_+o+f+f+9.y 6.f A P P ].R v.K y x :.x I c U.k.p.",
"k.$.5.i./.R :.5.Z.6.+.|.A.i.j.5.m.1.6.|+e h+o+v+v+w+w+p+w+f+f+$+=+W =+).|+y.=+9.).w+v+o+9.p 2.S S c.O P ,.S S U V g.l.'.6 k.*.].",
"d.k.s.S (.R B i././.I F A.j.j.-.1.6.5.$+e _+o+p+w+y+y+$+8.|+W v+y.f+f+p+:+|+e+n+).v+v+f+w.*.].c z l.S T _.y O O 2.+./.k.(.c.l.U ",
"s.U.g.3.O S O  +6.P I Q 1.m.++g.P i.t.|+o h+o+p+v+z+z+=+~.~.W =+h+h+w+o+o+h+).D 8.w+w+f+9.g.b C.i.T j.T b.,.P R $._.g._.q H.1+X.",
"Y.l.V %.S T i.r.I g.B 2.p.F.-.i.U 5.-.|+D f+o+o+p+v+z+f+8.y.9.$+h+h+h+|+w+p+y.).=+v+v+f+9._.,.Y.t.$.k.C.A c.{.@.*.t.*.(._.I ].~+",
"g+H.P l.Y.Y./.R O U x 5.F.I 6.2.x k.R $+M _+o+f+v+f+C+f+).w.$+p+o+o+v+_+f+_+f+W _+p+o+o+9./.(.{.5.R.U.q /.P '.y /.$.-.6.y j y {.",
"k.g+f f i.X.j.k./.P d.-.x R x '.y (.y G.~.$+o+p+w+=+z+p+w.9.h+p+f+f+y.).h+e+n+D $+y+=+f+G.s./.A /.5.p.r.y P P -./.-.f.6.A A ` /.",
"$.d+x 6 <.s.p.i.Z Q 6.F.5.{.{.{.5.$.5 G.W :+o+_+y+_+p+p+8.~.p+_+f+w+h+h+p+C+p+).:+f+f+h+D.2.Z S I 5.2.r.@.{.j.7.5.h.^.m.x '.f ` ",
"[+(.t.].r 6.:.p.Z x -.7.U E v.(.5.5.r D.).y.h+o+~.w+y.w+_+y.p+f+E+f+h+=+y+w+y.W |+W M _+G.5.=.k {.{.+.$.$.P /.q.i.u.m.:.^.d V A ",
"[+` <.1.z $.t.2.$.F <.6.L O _.*.p.*.O ++8.8.f+v+w+_+_+x+f+|+:+y+f+o+~.8.w+w+D ).e+D ~.|+[.-.|.3.S A _.j.$.P S r.t.$.f.x 6.]._.].",
"F.i.(.2.3.t.t.v.-.+.&.7.A I '.*.Z.R d.(.$+M f+$+o M D _+v+y.9 z+$+$+9.).|+f+W h+C+$+y.|+G.S Q q.@.R ].-.s.d.R g.+.6.p.j.s.p.6.6+",
"&+6.k.k.3.k.j.++Z &.].6.|.1.6.:.m.+.O k._+D _+o+_+9 W y+w+|+w.f+f+~.~.~.w.8.W v+w+v+o+|+` y d.k.F.-.5.n 6.m.2.1.n.q.Z R p.+.(.~+",
"v.~+*.*.i.:.&+s.%.$.7.7.Z.Z.s.I h.@.1.$.w.W |+o+w.=+).y+y+v+$+~.h+D ).).W ~.|+w+v+p+f+w.k.(.P _.X.1+#+`.].x A.7.1.p.'.7.{.].5.].",
"/.&+v.5.5.6.U.5.*.F.$./.P $.2.a.>.3.R. +b+~.$+o+$+p+h+w+y+y+o+D w.D ~.~.$+).B+w+v+v+f+8.{.i.{.k.d.S.j./.q.%.6.s.++p.B Z (.z ].O ",
"*.6+A.i.i.y :.-.7.(.].R -.:.A.e.+.e.6.j.C.y.8.o+o+v+p+p+v+w+v+h+8.=+y.$+W h+v+w+h+o+_+~.@.{.s.k.7.v.k./.i.i.l.j.j.x $.].S {.5.v.",
"5.k.t.5.-.I M.6.(.:.6.2.a.>.2.p.2.t.i.i.X._+W _+o+p+p+p+v+p+p+v+o+|+w.w.p+o+p+f+o+o+w...Q j.6.k.i.6.5.s.Z.d.k.[+j.-.*._.S /.k.i.",
"j.C.i.7.$.F.5.'.j.@.1.5.1.6.6.2.6.F.s.t.v.|+~.|+f+v+p+o+o+o+z+p+o+v+o+h+n+f+_+y._+_+9...%.++i.i.k. +6.A.'+p.d.k.6.s.c.x.5.++++{.",
"v./. +5.i.v.C.*.O U 6.:.e.1.2.$.`.v.j.s.s.D.$+y.h+o+o+o+h+p+8.x+_+v+v+o+B+=+_+h+$+:+8.k.5.k.g.1.$.{.5.p.~+M.s.j.{.k.g.5.q.v. +v.",
"-.O /.g.(.7.t.k.T O $.5.r.p.6.:.j.Z.%+i.6.(.:+9._+h+o+o+_+h+9.w.=+h+o+_+$+|+_+:+w.y.9./.k.i.t.A.A.n.*.5. +U.p.j.5.i.U.d.i.Z.d.t.",
"].-.D.(.1+g.U.++(.2.F.v.*.].'.6.R t.I.v.6.6.w.y._+_+h+o+e+o+=+:+f+|+f+|+=+|+$+_+$+y.` 6.i.k.5.F.I.>.6.7.`.`.v.`.F.k.s.k.t.t.g.s.",
"+.7.C.g.T.{.-.`.U.i.F.p.5.].&+p.R t.J.<.6.A.`.|+y.h+f+o+9.|+o+_+$+9.|+=+$+=+w.f+y.w.7.B 5.>+{.i.A.p.2.i./.U.~+&+++++6+g.t.t.j.Y.",
"+.i.k.g.g.].7.`..+U.M.q.5.t.$.i.C.Z.S.m.#.1.&+O.y.h+_+_+h+$+_+y.p+=+=+y.=+$+$+).=+).*.'.{.X.U.v.t.&+ +T.g.C.v./+X..+6+j./+&+Z.i.",
"{.g.b.Z.*.y 7.7.j.*.6.U.g.7.I g.`.++-.1.p.'+J.D._+=+f+w.p+h+w.|+w.f+8.=+_+w.=+_+9.S /.5.(.1+++v.p.S.U.T.l.~+T.U.>+Y.>+&+>+p.p.6.",
"{.'.q.d.x x O *.].(.k.].s.t.7.i.i.d.p.J.#+'+'+++9.:+h+w.h+e+9.f+).w.).=+_+w.|+y..._.i.6.d.{. +X.5.S.p.{.l.P.P T.>+x.6.Z.F.r.e.Z.",
"g.c.l.T.l.O {.g.t.*.g.i.++s.-.5.*.1.+.J.v.J.m.6._.$+_+_+w.).:+=+_+)._+W ~.$+=+8.` U 5.].i._.U.Z.t.t.5.'.(.g.0._.x.U.7.p.M.*.t.Z.",
"U.V '.N.z d.d.-.2.X.i.6.U.6.g.p.$.d.A.p.F.J.t.5. +D._+_+n+:+e+=+9 y._+=+$+_+8.` (.4.S k.v.{.i.A.5.v.i.k.T.g.g.c.b.R.2.Z 1.Z.n.m.",
"j.'.P v ].Q {.(.1.j.C.(.t.7.O U 6.t.A.1.M.%+v.7.{.S ).:+e+=+_+_+$+:+=+:+h+w...T P (.]..+k.g.5.F.5.k.j.&+{.k.k.s.i.X.5.U +.e.r.2.",
"*.!.{.O F {.(.R Z -.i.p.j.j.].k.v.i.t.7.m.t.j.j.t.$.I ).y.n+=+:+_+e+w.$+w...%._.p f {.++5.s.:.Z i.7.t.A.+.3.$.N.d.q.T O <.t.J |.",
"'.N i.s.V d.(.A -.v.j.q.` /.++Z.i.S.Z.A.1.J.`..+:.^.{.]...).=+e+_+$+=+)...l._.P T {.6.X.i.*.6.O s.*.t.M.g.*. .].s.{.7.*.L k.J Q ",
"*.C S p.,._.k.g.l.(.s.j.S (.p.v. +F.#+v.N.p.J..+v.6.t.O Q ].o.[.[.).` ..` ` T p p ].q.++].{.2.].$.g.>+1.q.O ++j.g.k.X.V x k.L O ",
"_.{._.5.k.g.S k.^+P.q.6.S (.j.t.6.6.A.F.p.s.F.m.6.S.6.O *.4.]./.p.x 2.i.(.T _.S *.5.d.k.g.c.Q @.*.U.p.=.3.(.i.1.F.U._.(.{.g.y l.",
"l.` (.4.g.C.k.(.U.X.s.i./.(.v.7.t.&+Z.7.t.5.v.:.J.A.s.6.6.5.5.2.O y q.5.z y V /.(.d.(.g.(.d.].+.g.P O |.*.`.t.j.i.t.t./.l.7.-.B.",
"p.7.o.].N.H.[+k.5.d.q.j.j.v.t.].v.6.6.t. +`.U.7.t.A.e.i.].*.3.b z c.d.*.g.T ..t 7.g._.,.g.#.7.:.d.{ ` X.t.F.N./+d.k.d.c._.$.-.~+",
"A.t./+k.l..+j.D.k.q.p.i.C.`.++l.*.:.].O v.j.Z.`./.p.I.t.i.2.3.P {.!.P V c.Y.B...#.-.T.!.C.C.S 5.3.y S 7./.Z.A./+g._.5.g.l.-.h.l.",
"t./.%+v.C.1+C.*.p.'.q.`.X.l.H.k./.7.U.l.j.k.7.t.d.O v.`.5.6.].g.(.g.` z V l.T._.f X.l.b.-./.T Y.k.A.i.].` '+&+1.A.i.v._.1+(.G Y."};
