/* XPM */
static char *collectible_xpm[] = {
"32 32 4 1",
"  c None",
". c #FFFFFF",
"o c #00FF00",
"+ c #8B4513",
"                                ",
"                                ",
"                                ",
"                                ",
"            ......              ",
"          ..oooooo..            ",
"        ..oooooooooo..          ",
"       ..oooooooooooo..         ",
"      ..oooooooooooooo..        ",
"     ..oooooooooooooooo..       ",
"     ..oooooooooooooooo..       ",
"      ..oooooooooooooo..        ",
"       ..oooooooooooo..         ",
"        ..oooooooooo..          ",
"         ..ooooooo...           ",
"          ..oooooo..            ",
"           ..oooo..             ",
"            ......              ",
"             ....               ",
"              ..                ",
"             ++++               ",
"             ++++               ",
"             ++++               ",
"             ++++               ",
"                                ",
"                                ",
"                                ",
"                                ",
"                                ",
"                                ",
"                                ",
"                                "
};
