/* XPM */
static char * item_rot_3b_48_xpm[] = {
"48 48 255 2",
"  	c #000000",
". 	c #1A0B13",
"+ 	c #251109",
"@ 	c #3D0C08",
"# 	c #422A0B",
"$ 	c #382E33",
"% 	c #2E3234",
"& 	c #412E27",
"* 	c #55402F",
"= 	c #4E413F",
"- 	c #5C4919",
"; 	c #494F4E",
"> 	c #624E3F",
", 	c #664D4A",
"' 	c #5D514C",
") 	c #565359",
"! 	c #3C602D",
"~ 	c #3F6B25",
"{ 	c #4F6729",
"] 	c #6D5F58",
"^ 	c #417039",
"/ 	c #686162",
"( 	c #5C6A42",
"_ 	c #41791F",
": 	c #786756",
"< 	c #487A34",
"[ 	c #487B2B",
"} 	c #537834",
"| 	c #686D70",
"1 	c #567741",
"2 	c #686F61",
"3 	c #54774D",
"4 	c #846867",
"5 	c #4E7E46",
"6 	c #7B6F67",
"7 	c #767070",
"8 	c #617E2B",
"9 	c #57832B",
"0 	c #50872C",
"a 	c #51891F",
"b 	c #5F8437",
"c 	c #538740",
"d 	c #548837",
"e 	c #5E8541",
"f 	c #827B78",
"g 	c #5C8D50",
"h 	c #668A55",
"i 	c #5C8D58",
"j 	c #8A7D71",
"k 	c #927A7B",
"l 	c #648B64",
"m 	c #5A9529",
"n 	c #818286",
"o 	c #589638",
"p 	c #5A944B",
"q 	c #5F9439",
"r 	c #639242",
"s 	c #6A9042",
"t 	c #66923A",
"u 	c #5B9542",
"v 	c #69904C",
"w 	c #61934C",
"x 	c #8A8481",
"y 	c #6B952F",
"z 	c #778E62",
"A 	c #5E9F24",
"B 	c #5FA21C",
"C 	c #62A034",
"D 	c #6B9E35",
"E 	c #809187",
"F 	c #6A9F44",
"G 	c #669E60",
"H 	c #928D89",
"I 	c #A08892",
"J 	c #63A240",
"K 	c #6E9C61",
"L 	c #6A9F4D",
"M 	c #689D6C",
"N 	c #64A05A",
"O 	c #63A247",
"P 	c #6C9E56",
"Q 	c #62A24D",
"R 	c #769A64",
"S 	c #B5838D",
"T 	c #729E45",
"U 	c #759C56",
"V 	c #66A154",
"W 	c #729B73",
"X 	c #A18B8C",
"Y 	c #9C8F81",
"Z 	c #919297",
"` 	c #66AE1D",
" .	c #67AD28",
"..	c #68AC31",
"+.	c #67AB41",
"@.	c #70A93E",
"#.	c #68AC39",
"$.	c #9A9592",
"%.	c #69AE4D",
"&.	c #71AC4A",
"*.	c #71AC51",
"=.	c #73AB57",
"-.	c #70AB64",
";.	c #6DAD58",
">.	c #6BAD60",
",.	c #72AB5E",
"'.	c #67AF58",
").	c #7CA958",
"!.	c #78AE2D",
"~.	c #7CAA51",
"{.	c #83A851",
"].	c #79AA61",
"^.	c #84A763",
"/.	c #7DAD36",
"(.	c #8BA763",
"_.	c #74AE75",
":.	c #A29D9A",
"<.	c #75AF6E",
"[.	c #78B528",
"}.	c #6FB732",
"|.	c #6DB73B",
"1.	c #82AC71",
"2.	c #75B53B",
"3.	c #70B643",
"4.	c #81AC7D",
"5.	c #7AB348",
"6.	c #70B64A",
"7.	c #C795A1",
"8.	c #9FA1A6",
"9.	c #B59B9E",
"0.	c #B59BA6",
"a.	c #70BB29",
"b.	c #ACA092",
"c.	c #9AAA68",
"d.	c #70BF17",
"e.	c #73B954",
"f.	c #70B962",
"g.	c #72B95B",
"h.	c #7BB75B",
"i.	c #74B86A",
"j.	c #7DB755",
"k.	c #7EB662",
"l.	c #71C204",
"m.	c #78B862",
"n.	c #7CB66B",
"o.	c #87B55A",
"p.	c #87B562",
"q.	c #85B56C",
"r.	c #AAA5A2",
"s.	c #8FB26D",
"t.	c #8FB45B",
"u.	c #95B16D",
"v.	c #7CBE4B",
"w.	c #7BBE53",
"x.	c #77C23D",
"y.	c #77C24D",
"z.	c #76C255",
"A.	c #78C346",
"B.	c #85BE52",
"C.	c #9EB37C",
"D.	c #9AB38D",
"E.	c #79C724",
"F.	c #A2AFB1",
"G.	c #82C248",
"H.	c #78C733",
"I.	c #7FC07F",
"J.	c #86C165",
"K.	c #7EC45F",
"L.	c #88C06B",
"M.	c #7DC466",
"N.	c #80C36B",
"O.	c #87C25F",
"P.	c #88BF80",
"Q.	c #7FC374",
"R.	c #9ABA81",
"S.	c #CFA6B1",
"T.	c #92BD81",
"U.	c #81CB1C",
"V.	c #83C656",
"W.	c #85C839",
"X.	c #93BD8E",
"Y.	c #87C744",
"Z.	c #88C376",
"`.	c #8DC54C",
" +	c #AFB2B6",
".+	c #91C174",
"++	c #93C16E",
"@+	c #81CA46",
"#+	c #90C17A",
"$+	c #B6B1AD",
"%+	c #C4ADAF",
"&+	c #95C266",
"*+	c #BCB1A1",
"=+	c #9BBF79",
"-+	c #8BCC2D",
";+	c #8FC85B",
">+	c #88CB5B",
",+	c #89CC51",
"'+	c #8FC96D",
")+	c #89CB73",
"!+	c #90CA66",
"~+	c #95CB4A",
"{+	c #90D213",
"]+	c #92CA74",
"^+	c #99CD40",
"/+	c #91CD7E",
"(+	c #93CC8B",
"_+	c #A2CB61",
":+	c #98CF62",
"<+	c #99D057",
"[+	c #B0C770",
"}+	c #A0CC70",
"|+	c #9ECC78",
"1+	c #9DCC7E",
"2+	c #96CC99",
"3+	c #ADC781",
"4+	c #9CCC85",
"5+	c #9DCC8E",
"6+	c #99D070",
"7+	c #A4CA8F",
"8+	c #A7CB84",
"9+	c #C3BEBA",
"0+	c #E0B7BF",
"a+	c #CBC1B4",
"b+	c #A8CE9C",
"c+	c #A6CEA4",
"d+	c #CEC1AC",
"e+	c #C0C3C8",
"f+	c #DCBBC8",
"g+	c #D5BEBF",
"h+	c #B6CC95",
"i+	c #AAD578",
"j+	c #B3CEAA",
"k+	c #ADD297",
"l+	c #B7CFA0",
"m+	c #ACD682",
"n+	c #CCC7C3",
"o+	c #ABD68C",
"p+	c #B8D0BD",
"q+	c #BFCED5",
"r+	c #ACDC9C",
"s+	c #B6DCA0",
"t+	c #DDD1BB",
"u+	c #B7DEAF",
"v+	c #DBD3C6",
"w+	c #C1DDB9",
"x+	c #D8D4D0",
"y+	c #D3D5DB",
"z+	c #E2E5EA",
"A+	c #E8E5E1",
"B+	c #ECE5D3",
"C+	c #DDEDF6",
"D+	c #FBF5E4",
"E+	c #F4F7FA",
"F+	c #FFFFFF",
"K.B.++L.#+]+k.].L..+s.R.q.]+++k.k.#+s.p.'+Z.P k.P q.n.<.<.N.<.T.].k.k.K P.1+1+u.O.w.V.w.k.q.m.w.",
"@+,+J.J.p.q.q.q.;+&+].=+p.O.k.1.L.1+.+p.q.q.,.L q.#+4+L.k.Z.q.P.-.=.m.q.q.B.q.n.q.*.v.V.k.1.n.e.",
"@+>+K.5..+T.T.p.O.w.].R.o.B.n.P 5.m.,.O k.g.=.=.1.].n.].k.k.4+n.-.*.k.q.o.&.k.q.Z.k.5.B.2.^.q.'+",
"j.`.x.).++T.4.].k.++=+=+j.=.q.,.L ,.V K *.&.&.Q R ].-.m.m.J.4+p.<.-.L.s.j.%.&.w.++Z.U ~.h.k.].L.",
"w.v.3.,.L.T.s.L.k.O.=+p.J.^.#+q.k.L.-.K *.w.R.9+%+r.s.p.n.K.K.].k.q.q.<.V %.o.).&.h.++s.^.h.=.].",
"K.j.A.%.Z.q.].=.q.k.^.++L.q.q.L.L.L.k.<.k.R.$+$+r.r.*+1.q.B.]+].-.L.q.,.].,.].O.&.*.&.o.o.J.n.).",
"w.w.5.].L.L.q.o.q.q.q.1+k.L.L..+4+L.h.q.=+r.y+x+x+a+b.*+p.O.k.s.=.n.V ,.-.,.p.L.O.e.5.w.v.5.6.5.",
"k.V.*.).R =.q.1+T..+T.]+k.*.v ^.T..+g.k.D.v+A+y+a+9+$+*+D.e.j.'+].q.q.=.,.,.|.j.'+h.~.U U j.*.j.",
"q.h.@.=.R *.J.P.,.w.L.].J.h.=.*.J.k.K..+$+a+x+x+a+r.$+r.r.^.L.k.j.j.6.].].*.N.M.k.L.).R ^.~.h.#+",
"4+k.=.1.P e.P.k.e.6.q.L.*.j.<.m.m.L.e.$.*+n+E+A+n+r.9+$+r.D.h.&.k.k.q.k.;.L q.n.].h.n.].q.p.P q.",
"4+k.n.g.A.K.L &.].h.k.,.L g.n.m.h.K.p.r.b.v+E+A+n+$+9+r.b.r.&.k.#+k.1.,.].I.P./+#+k.i.q.1.k.q.).",
"4+].m.%.j.*.h.h.N.k.*.;.h.=.*.e.m.h.R.:.r.9+E+x+9+n+$+$.$.:.s.h.k.*.N =.n.P.Z.P q..+Z.q.P.L ].].",
"]+q.m.n.h.L.j.K.w.w.J h.h.k.e.m.m.m.D.$.*+*+z+x+n+x+$+$.:.$.R.e.&.,.>.].n.].].P ].1.Z.&..+1.].q.",
"L.q..+q.e.p.5.k.B.v.*.6.j.k.v.j.N.N.D.X *+a+y+v+a+x+*+:.:.$.D.h.j.^.s.q.4.;.v P k.P Z.].1.k.q.1.",
"h.L .+L.*.h.J.h.j.5.5.5.*.j.j.w.M.L.$.Y *+v+9+9+$.9+n+r.:.$+$.4.s.o.++].K w ].P R R k.-.R k..+Z.",
"N.,.1.Z.g.O.J.J.h.2.x.h.*.).,.h.j.p.$.j %+B+$+n+d+*+9+:.F.H :.q.o.q.q.-.M K -.R 1.W n.w ].<.#+Z.",
",.q.T.k.K.).L.,+O.*.6.h.w.L ).=.6.].$.j t+x+9+n+d+a+$+:.$.$.:.#+].1.T.].4.R 1.T.#+].k.L ].Z.P.n.",
"V L.#+].B.j.k.V.n.f.e.6.*.].=.L h.1.$.j a+v+9+$+d+r.:.:.:.$+r.1.].w ~.].P.1.h.L.L.].=.L ,.=.=.~.",
"O k.L.v.;+s.L.g.-.;.;.6.,.-.;.L U 4.x j *+n+$+$+*+9+r.r.r.H :.D.*.L k./+g.].=.++q.L.K.h.1.m.k.v.",
"J &.J.A.V..+q.+.O v q.k.k.m.m.G <.D.6 k r.9+$+r.a+$+:.r.:. +$.b.L =.L.L.-.m.].J.O.q.Z.,.;.k.*.5.",
"k.*.O.J.h.,.=.3.6.N =.=.e.w.=.;.;.:.k j r.$+$+r.r.$+$+r.:.$.H D.*.*.;.;.g.;.h.k.&.&.].,.U ).L &.",
"'+e.O.B.k.=.K.6.j.,.=.e.e.j.&.,.].:.j j b.9+r.r.:.9+$.r.:.$.$.r.L.~.=.L *.V k.^.L +.=.J w K ].=.",
"q.=.k.j.*.=.V.6.6.V.J.k.5.v.h.k.m.D.] j $.$+:.$+:.e+:.$.$.r.r.$+].P.*.P ,.,.,.].).L ;.k.=.w L.K.",
"k.k.m.k.&.h.k.=.@.B.L.h.5.j.k.p.k.:.: f x :.*+n+$+$+$+$.H H H F.;.Q.=.V U <.K <.V P e.h.1.<.1.,.",
"L.L.g.P ,.J.e.*.+.v.J.q.=.p.h.=.].:./ 6 x $.a+$+$+ +n+:.H r.$.r.*.k.,.q.q.q.].<.-.~.=.n.q.<.T.#+",
"b+_.<.q.q.e.L L e.B.j.h.P k.j.h.,.D.' 6 $.$+$+$+n+$+q+$.:.Z :.:.*.q.].q.h.J.1.].,.*.h.j.h.P F q.",
"T.T.h q..+q.,.=.h.&.*.*.P ,.F v P r.] 6 H 9+n+r.n+9+y+:.$.Z $.:.*..+k.=.].O.j.P P ).].5.j.P ,.].",
"q.#+w 5.h.o.3.&.O.h.m.].k.F V w ].D.f f H 9+9+r.x+e+x+8.$.9+:.$.].K.6.*.*.e.y.*.k.h.j.x.v.L P ].",
"5+k.j.F j.v.&.&.j.&.h.m.h.*.h.].R 4.f f f r.$+:.9+x+e+9+Z :. +D.M.h.5.+.-.].h.*.K w.B.x.&.6.G U ",
"L.k.6.e.k.O.~.3.h.P =.g.O.=.m.q.,.4.x 6 6 $.$+r.9+ +e+e+Z H :.D.n.-.*.z.;.,.).M.,.M.6.w.k.h.j.#+",
"!+p.L.h.L..+3.5.j.5.j.5.G.*.k.n.h.4.$.x f $.:.$+x+y+9+9+8.Z $.4.g.h.=.q.O.p.=.w.v.v.w.e.*.j.*.#+",
"J.L.h.h.O.M.=.j.h.h.O.&.|.e.h.j.j.q.H f j x $.:.r. + + +r.8.$.R.g.n.].q..+++s.h.*.k.O.e.~.].=.=.",
"k.'+O.k.*.~.h.m.=.).v.A.6.w.J.h.K.#+H x f j H :.8.F.F.F.9+ +$.T.=.=.k.q.o.J.k.k.L.q.J.&.=.R ,.J.",
"k.L.h.~.5.w.k.v.6.x.v.w.w.J.k.k.k.J.H f x x 7 7 n Z 8. +8.:.:.n.h.*.p.q.k.j.h.J.N.4+J.=.n.].q.k.",
"s.L.k.h.L.m.h.5.e.v.j.e.J.J.J.J.j.B.D.x 7 6 7 | f H 8. +y+8.D.#+n.m.L.K.k.K.V.]+h.L.k.N.M.h.++J.",
"h.).n.].J.L.K *.j.y.w.j.s.;+O.j.&.h.R.H / f f x x 7 n e+z+F.D.o.k.J.J.V.V.e.h.L.O.L.k.L.k.J.J.O.",
").s.q.T.q..+q.K.O.=.].j.).`.V.j.j.h.k.:.2 x x x H H H  +z+r.4.e.e.J.k.O.@+6.k..+'+++J.Z..+O.J.L.",
"6.L.Q.L.).++.+O.w.h.o.o.p.;+B.j.B.h.K.D.f / $.x $.:.F. + + +P.&.*.k.L.J.K.O.L.q.#+]+#+4+.+&+L.#+",
",.q.L.=.~.o.q.j.J.J.~.p.++J.5.B.;+K.h.R r.] H x H  +F.y+ +r.I.=.h.q.4+J.V.!+Z.Z.#+]+/+/+'+]+V.h.",
"].m.m.P L =.h.q.k.J.h.J.n.h.;+&+6+L.J.J.$.H 6 f $.8.y+9+ +4.m.k.h.k.q..+h.>+k.P.<.q.)+K.O.V.w.O.",
"Q.n.Z.<.,.k.h.L.J.'+k.h.*.w.B.O.`.h.J.m.s.r.f 7 x Z y+F.$.K k.=.k.k.q.O.O.k.M.L.n.n.N.J.6.v.K.V.",
"L.;.V =.=.].e..+q.O.=.*.j.V.v.G.;+k.].L +.W 9+:.$.e+$+F.<.K ,.m..+.+k.O.k.L.++n.L.L.L.L.L 6.v.e.",
"=.-.,.L <.,.&.k.K.q.q.q.J.O.h.A.&+L.w.&.*.).f :.$+:.:.1.;.].i P .+k.h.&.k.k.V.*.*.k.m.m.=.5.5.3.",
";.;.K.].q.].^.J.J.^.L.!+J.O.O.h.;+=+j.w.*.&.h.1.H H _.].<.K K h.Z.k.g.=.h.q.V.m.].q.n.n.,.U ).L ",
"i.n.m.L.1.q.T.N.h.].J.o.w.B.V.K.O.O.B.B.*.e.g.h.e.&.h.<.R -.,.k.q.n.g.6.=.J.3.g.n.B.O.L.<.,.].<.",
"Z.q.m.L.T.q..+L.J.].k.h.O.!+B.J.J.j.O.V.B.j.h.e.*.g.h.;.G ].k.n.q.n.].%.n.P e.h.'+L.J.B.^.1.).T.",
"B.L.L.#+4+#+p.K.J.s.L.q.h.j.j.J.L.L.O.G.O.h.e.Q >.m.g.L.4.W p.q.i.#+1.e.,.P q.K.O./+n.n.n.1.5.#+",
"O.o.J.T.4+k.j.h.L.#+/+q.].p.Q.L.J.J.k.o.'+h.j.k.n.n.G -.P.4.R #+n.k.].Z.N.k.).s.'+O.K.k.q.T.6.#+"};
