/* XPM */
static char * item_rot_1b_64_xpm[] = {
"64 64 255 2",
"  	c #000000",
". 	c #1E0701",
"+ 	c #280901",
"@ 	c #291900",
"# 	c #342502",
"$ 	c #3E3025",
"% 	c #403414",
"& 	c #4D4333",
"* 	c #4F452A",
"= 	c #405932",
"- 	c #5A523F",
"; 	c #5A5248",
"> 	c #3B6526",
", 	c #3E6A3A",
"' 	c #666334",
") 	c #69614E",
"! 	c #696157",
"~ 	c #417430",
"{ 	c #4B7232",
"] 	c #597337",
"^ 	c #497C2C",
"/ 	c #53792C",
"( 	c #5A764C",
"_ 	c #4F7C4A",
": 	c #786F5D",
"< 	c #4C803A",
"[ 	c #577D36",
"} 	c #557D3F",
"| 	c #787065",
"1 	c #4C8328",
"2 	c #607D29",
"3 	c #558128",
"4 	c #4D871E",
"5 	c #508916",
"6 	c #4F8F3C",
"7 	c #598C3C",
"8 	c #628A3B",
"9 	c #618A42",
"0 	c #5F8A4B",
"a 	c #678849",
"b 	c #598D42",
"c 	c #588D4B",
"d 	c #5B8C56",
"e 	c #658957",
"f 	c #78844E",
"g 	c #5C8F34",
"h 	c #60922B",
"i 	c #89806E",
"j 	c #888075",
"k 	c #838367",
"l 	c #6A8F37",
"m 	c #5A9622",
"n 	c #589537",
"o 	c #59962D",
"p 	c #6F8E41",
"q 	c #6A8F68",
"r 	c #63973C",
"s 	c #5C9C48",
"t 	c #69984E",
"u 	c #609B4E",
"v 	c #659A48",
"w 	c #6F9748",
"x 	c #659862",
"y 	c #689857",
"z 	c #5F9B56",
"A 	c #749556",
"B 	c #719663",
"C 	c #63A13F",
"D 	c #968D7A",
"E 	c #839475",
"F 	c #6EA13A",
"G 	c #68A33A",
"H 	c #6BA331",
"I 	c #63A720",
"J 	c #6CA146",
"K 	c #889663",
"L 	c #63A630",
"M 	c #63A63C",
"N 	c #74A046",
"O 	c #65A549",
"P 	c #999185",
"Q 	c #68A846",
"R 	c #68A954",
"S 	c #6FA754",
"T 	c #76A554",
"U 	c #6EA75A",
"V 	c #9E9582",
"W 	c #71A56F",
"X 	c #6BA862",
"Y 	c #74A65A",
"Z 	c #72A662",
"` 	c #68AA5B",
" .	c #7DA45B",
"..	c #7EA26F",
"+.	c #7BA464",
"@.	c #6CB13E",
"#.	c #6CB146",
"$.	c #6CB14D",
"%.	c #73AF4D",
"&.	c #6BB154",
"*.	c #73B236",
"=.	c #72B054",
"-.	c #84AA5A",
";.	c #6CB530",
">.	c #7AAE52",
",.	c #6DB627",
"'.	c #6CB539",
").	c #A69D8B",
"!.	c #A69D91",
"~.	c #7AB242",
"{.	c #84AA82",
"].	c #78B34A",
"^.	c #9CA56D",
"/.	c #80B24A",
"(.	c #73B666",
"_.	c #71B66E",
":.	c #6FB860",
"<.	c #7CB460",
"[.	c #76B660",
"}.	c #7DB466",
"|.	c #70BE21",
"1.	c #73BA47",
"2.	c #83B360",
"3.	c #7CB46E",
"4.	c #A6A589",
"5.	c #7DB37B",
"6.	c #8AB167",
"7.	c #74BA4E",
"8.	c #73BA55",
"9.	c #89B170",
"0.	c #72BA5C",
"a.	c #8BB07C",
"b.	c #7BB859",
"c.	c #83B65A",
"d.	c #AFA593",
"e.	c #AEA599",
"f.	c #73C234",
"g.	c #77C145",
"h.	c #77C23D",
"i.	c #7DC135",
"j.	c #82C044",
"k.	c #7BC255",
"l.	c #7BC25C",
"m.	c #79C44F",
"n.	c #79C26A",
"o.	c #82C063",
"p.	c #84C05D",
"q.	c #7AC82B",
"r.	c #88BE70",
"s.	c #7DC271",
"t.	c #8BBF62",
"u.	c #89BF6A",
"v.	c #B6AD9A",
"w.	c #B5ADA1",
"x.	c #7CC465",
"y.	c #86BF7F",
"z.	c #88BF78",
"A.	c #82C26B",
"B.	c #7DC37B",
"C.	c #7ECB1A",
"D.	c #83C552",
"E.	c #85C931",
"F.	c #89C55A",
"G.	c #ACB781",
"H.	c #82CA3E",
"I.	c #98BF71",
"J.	c #8DC554",
"K.	c #97BF7A",
"L.	c #B3B496",
"M.	c #81CA4A",
"N.	c #95BF83",
"O.	c #A3BB83",
"P.	c #98BE8F",
"Q.	c #84C95C",
"R.	c #83C963",
"S.	c #92C55C",
"T.	c #A3BF67",
"U.	c #89CF12",
"V.	c #98BF9C",
"W.	c #8BC864",
"X.	c #8AC86B",
"Y.	c #91C671",
"Z.	c #90C677",
"`.	c #93C769",
" +	c #BEB5A2",
".+	c #8ECB4E",
"++	c #9DC46A",
"@+	c #BDB5A9",
"#+	c #90CC42",
"$+	c #93CD32",
"%+	c #89CB75",
"&+	c #91C794",
"*+	c #8FC988",
"=+	c #92C981",
"-+	c #96CE6E",
";+	c #9FCE53",
">+	c #99CF5E",
",+	c #99CF65",
"'+	c #99CD7F",
")+	c #99CE78",
"!+	c #A3CB7D",
"~+	c #CDBBAA",
"{+	c #A2CC86",
"]+	c #A0CC8F",
"^+	c #AEC986",
"/+	c #C6BEB1",
"(+	c #B4C87E",
"_+	c #A1CF72",
":+	c #C9BEAB",
"<+	c #C4C0AB",
"[+	c #AACB91",
"}+	c #9EDA0F",
"|+	c #9BD18C",
"1+	c #A7CC9D",
"2+	c #B1CA92",
"3+	c #AACF74",
"4+	c #A6CCA9",
"5+	c #BBCB9C",
"6+	c #B6CCAF",
"7+	c #D1C6B3",
"8+	c #D7C5B4",
"9+	c #CFC7BA",
"0+	c #AFD687",
"a+	c #CDC9B4",
"b+	c #AED690",
"c+	c #BAD29A",
"d+	c #B0D79B",
"e+	c #DDCBBA",
"f+	c #B5D9AA",
"g+	c #D7CFAE",
"h+	c #D7D0B5",
"i+	c #B7DAB7",
"j+	c #DECDC2",
"k+	c #DACFBC",
"l+	c #D3D1C2",
"m+	c #D5D1BC",
"n+	c #D9D0C2",
"o+	c #C2D8BA",
"p+	c #DAD4CD",
"q+	c #E6D5CA",
"r+	c #E8D5C4",
"s+	c #E3D7C4",
"t+	c #DBD9CA",
"u+	c #DDD9C4",
"v+	c #E0D9BE",
"w+	c #E1D8CB",
"x+	c #E7E1CC",
"y+	c #D2E7D4",
"z+	c #EFDED4",
"A+	c #E9E0D3",
"B+	c #E3E2D3",
"C+	c #F0EAD5",
"D+	c #F1EADD",
"E+	c #FBF5E5",
"F+	c #FFFFFF",
"o.b..+r.r.Z.=+Y.2. .<.z.K.c.K.K.2.K.)+r.<.b.8.Z.3.6.D.-+=+S t u.u 2.u.Z 3.x }.A.W N.N.U <.9.}.B z.N.'+!+a.c.Q.k.p.g.p.+.3.o.<.m.",
"g.F.H.}.Z.6.Z.9.6.9.}.t._+2.2.{+u.o.t.2.9.}.Z.1+[+!+t.3.N.Z B =.}.3.}.%+Y.2.Z.y.3.3.P.t <.<.r.}.z.k.S.6.9.r.b.1.F.m.=.<.Z U [.7.",
"j..+.+r.=.k.r.9...r.Z..+p.}.t I.-.`.2.6.+.2.F.`.<.=.b.A.U 6.v v 6.y.]+V.A.1.Z u.z.}.y.3.Q [.U r.9.D.p.a.}.9.3.%.*.H.X.D.N.y.}.b.",
"i.Y.#+p.@.u.N.N.P.+.F.t.m.t.A O.c./.p.3.U %.].(.X c Q 3.=.+.O >.3.Y U W U Z r.p.]+}.n.[.%.v Z.2.t.~.%.b.r.]+<.}.=.J.j.;. .9.r.Y.",
"c.u.E.h.T c.K.N.a.}.>.t.r.6.2+!+/.8 2.}.<.t %.y R x Z ].%.@.%.s B +.U X <.<.[.o.]+9.(.3.Z S '+9.c.C Y Q 7.A.'+z.t c.@.2.p.+.Y I.",
"b.t.q.~.Z <.N.P.P.z.u.<.R.u.2+>.J.2.K.<.Z Y 6.r.[...4.L. +<+a+a+a+<+4.K.o.3.}.X.o.-.+.3.5.}.z.+.S Q >.2.%.$.%.t.K.6.-.%.S b.B 2.",
"m.p.%.h.&.A.Z.a.}.u.3.}.k.t.O.c.I.Y 9.P.N.3.2.K.5+a+9+k+:+ +e.d.w./+m+m+<+L.z.g.o.Y }.<.=+Y z._.u t 1.c.2.*.Q U /.`.2.u.<.%.U +.",
"A.Q c.g.s }.*+3.Z k.t r.}.-.2.u.X.-.{+Y t.Z.L.9+n+@+i ! j ).e.v.e.V j j v.9+a+[+'+2.Z Z r.z.o.` }.3.Y +.t.t Q =.C /.p.>.t.z.[. .",
"g.k.l.*. .r.r.u.3.t.T 9.u.}. .{+}.r.t.u.K.l+n+<+| :  +k+n+n+m+n+u+n+m+9+w.D w.m+5+K.Z <.s.&.s 3.Z U [.t.Y.}.j.7.].~.F.]./.@.g.].",
"2.g.l.Y 6.3.Z 7.9.Y.=+]+N.P.]+'+o.S S 9.a+m+P ! @+n+u+u+u+n+t+t+w+w+w+u+u+a+ +V 9+a+`.S 6.N.O S }.3.u ~.].-+k.b.b.>.J N F.<.v D.",
"o.)+D.C G +.y =.b.]+N.6.k.u.Y.p.}.b.9.<+n+! P 9+n+w+n+u+w+x+w+w+w+n+m+m+m+m+m+m+).@+m+P.6.p.o.U y W %.q.k.o.)+b.w +.a A ~.m.R <.",
"6.u.r #.U B Z #.k.]+U Y b.Y.r.T r.)+/+9+| !.n+9+w+A+D+A+9+ + +w.v.e.v.9+s+n+m+m+m+e.e.a+I.%.1.[.}.7.%.z.s.y r.Z. .+..... .k.o.N.",
"[+u.>.O a.y y 1.=+A.<.>.1.A.9.r.=.a+n+j !.t+w+7+!.n+n+B+7+!.v.e.k+w+n+9+9+m+n+u+n+n+w.w.<+9.r.b.U v y 9.[.<.=.=.5.y a.2.o.S t r.",
"{+=.A.3.3.O g.r.t %.S Y 7.b.Y (.O.m+!.D n+w+B+9+!.w.V ).P d.d.d.v.m+m+n+p+d./+9+n+n+u+v. +m+..Y +.x +.]+]+N.A.A.(.[.K...2.}.3.Y ",
"P.Z 9.}.Q '.D.[.S %.b.A.b.}.n.9.a+/+| l+w+w+w+9+v.D+D+A+:+e.v.d.v.v.<+9+e.d.v.v.A+t+w+u+!./+P.y }.y.P.3.r.P.b.}.Z 3.u.9.Z r.6.-.",
"]++.b.[.R 1.}.%.o.%.o.A.o.>.v 2+n+| /+w+x+w+B+9+j+D+A+D+w+w.v.v.e.n+n+9+!.v.d.w.<+n+A+w./+e.:+9.Z N.a.z.v <.K.Z.z.K.[.P.8 S u.+.",
")+p...U 3.[.b.Z.b.7.o.k.p.Q +.9+@+P t+w+B+B+w+m+/+9+w.9+e.d.d.d./+D+B+A+9+ +e.d.!.@+w.D <+m+w.5+U +.Z }.0 }.y N.a.*.N K.6.t 3.6.",
"Y.z.N.z.z.(.8.2.%.].<.~./.%.L.m+! 9+B+A+A+A+B+m+w+D+p+B+9+:+d.d. +@+ +/+/+w.d.d.l+D+x+P @+u+w.<+1+Z ` 9 y }.5.y =+o.0 a.Z ..+.a.",
"t.}.%.Y.r.].[.2.].6.c.J.j.>.a+@+P w+B+A+w+A+A+n+P V e.w.e.@+:+ +/+D+t+n+/+e.v.!.n+k+n+9+w.w+n+d.L.%.S B a Y +.U r.z.Z +.o.A Y.}.",
"<.J t N.Z.%.b.b.t.2.>.].].O.:+| 9+w+w+w+9+A+C+u+d.d.e.!.d.9+p+A+x+n+@+ + + + +).w+9+@+!.e.u+u+w.a+..9 5.y y A Z }.Z x +.}.Y ]+A.",
"s.U c ..Z.[.=.p.u.o.u.=.~.5+:+| t+/+E+w+9+A+w+n+).d.v.v.d. +n+m+<+n+A+A+n+u+w+w+w. +9+!.).u+x+n+e.L.U Z B ......}.y } 3.B r.N.y.",
"(.z.3.N.2.p.k.2.K.,+p.=.Q 5+e.!.n+9+/+E+9+D+!.w+!.!.e.!.!.<+n+a+m+/+<+k+!.@+9+n+).d.!.P w.u+w+u+v.<+....Z 5.N.+.r.S C >.N.P.z.s.",
"s z.}.*+ .o.7.S t.H.p.o.K.a+D /+p+n+/+w+A+w.p+w+).w. +w.e./+w+/+a+m+n+<+/+@+9+m+e.d.d.). +u+m+m+<+@+{...V.K.2.Y b.J t 9.<.}.o.y ",
"O u.o.z.Y p.7.>.o.j.u.}.N.7+! n+@+!.P e.w.@+p+w+j+A+D+D+n+9+ +n+m+a+9+u+@+9+a+n+@+).!.).w.p+n+9+m+d.L./.t.r.A.Y Y w T U S >.O >.",
"b b.A.u.7.D.t.9.u.l.0.3.O.7+: t+l+n+/+D j P @+/+).9+n+t+@+m+/+/+9+a+w.9+).w.a+9+n+9+9+w.e.<+B+w+@+v.@+S u.5.r.X.p.].6.6.(.z.[.7.",
"G T l.r.h.H.Y.I.r.=.@.b L.<+P n+m+m+/+i V ).A+w+!.!.w.v.j  +A+x+C+9+n+m+n+A+A+w+a+9+n+9+w.A+t+/+w+ +@+9.r.z.].9.z.3.0.U [.u Q ~.",
"L r 7.W.j.g.u.A.3.Q C t w.w.!.m+m+n+d.a+n+P w+w+P u+w+w+).e./+/+@+w. +m+@+m+9+w+).@+a+!.P v.).D !.<+v.N.<.D.D.r.Z.Z R Y 3.Z >.].",
"z.r u.D.`.p.8.=.=.#.h.%.l+d.D a+m+m+9+u+w+m+n+w+7+A+A+D+/+ +n+/+/+<+a+9+<+<+m+v.d.u+m+j e.A+!.P m+n+e.O.}.S Q J }. .Y T -.t C %.",
"-+=.k.t.p.9.>.>.o.$.j.<.9+!.!.a+m+m+n+w+w+w+w+w+w./+@+/+).w.n+v.w+w.w+:+n+a+m+m+v.w+n+9+ +u+@+/+m+m+e.5+6.T C Q <.n Q c Y Z B v ",
")+7.Z c.].<.r Y b.g.].m.<+P !.a+m+m+u+w+n+w+w+w+n+A+t+l+n+l+d.n+P d.D m+V d.a+/+!.<+v.e.j u+u+n+u+m+w.L. .t.M t v ].v J c r.z.p.",
"9.%.b.o.2.Y ].<.W.k.Q 1.<+V !.a+m+9+n+t+w+A+A+w+).P e. +P d.x+v.<+/+t+<+9+n+ + + +u+u+n+V a+w+u+u+9+w.L.3.Z Z S ` 9.a.U b z.=.<.",
"o.z.o.Y }.Y C o.<.<.J G <+!.!.a+m+m+n+u+u+A+A+x+ +d.e.d.!.!.@+/+a+/+B+u+A+ +k+m+ +V V D D n+w+x+u+m+!.e.3.u S S 7.#.2.a.3.5.a.J ",
"o.u.A.8.S Y S X.8.U J Q  +e.).9+9+m+n+u+n+n+A+A+/+e.d.w.v.!.@+u+v.m+@+m+a+7+m+w+@+e.!.!.!.u+u+u+n+m+e.d.3._.S T %.3.}.3.x P.]+z.",
"*+y.X =.Y Z A.m.J }.C 7.5+/+D @+m+n+n+n+n+/+A+A+9+).).d.v.9+l+n+9+9+C+9+9+9+/+9+n+<+).V  +u+m+m+n+m+w.e.A 3.[.$.=.p.=.}.3.J >.=+",
"6+P.y a.N.N. .Y S J v b.2+/+j /+9+m+/+D+p+@+A+l+u+ +!.d. +w+9+ +m+9+9+d.v.!.m+d.w+9+).D  +p+B+9+/+m+e.d.2.U U t <.%.>.=.t n t +.",
"z.f+y 0 t.N.r.9.<.R }.>.a.<+|  +a+m+9+!.D+/+t+!.x+ +v.d.n+9+@+t+/+w+9+m+@+l+9+A+A+n+v.).a+d.w+w./+a+e.L.u U U >.2.>.h.7.y y ..+.",
"%.1+s [ /.o.k.2.~.M b.F.K.<+: /+9+9+n+m+/+x+9+B+w+9+w.w.w+/+9+D+D+/+a+9+<+9+A+B+l+:+!.).n+ +<+@+l+m+w.O.$.(.u.c.b.i.~.g.t U t ..",
"]+3.p.>.r 7.].m.@.v >.c.6.@+j @+a+9+<+e.!.!.j )./+u+ +a+ + +D+B+@+A+v.P !.w+p+n+u+k D ).@+).D | <+a+e.a.%.S <.l.6.q.g.%.~.0 x y ",
"[+9./.1.y %.p.7.%.L /.b.T @+v.V /+m+9+@+w.! D 9+t+w+m+!.| !.D+9+).@+).d.!.).9+/+/+V d.u+A+9+D j m+a+e.K.7.U Y m.p.%.h.t b.<.3. .",
"F.}.+.7.8.p.o.t.>.#.*.c.A V :+j w.9+h+a+D w.| 9+x+A+w+/+w.w.a+@+w+P ).).).d.v.n+| !.w.A+B+w+m+m+a+<+v.9.o.o.Y A.#.b.k.u.o.k.b.{+",
"`.b.9.z.8.r.u.Z.@.*.<.b.1.K.7+j w.9+9+@+e.n+@+/+w+w+B+w+<+w.).w.<+D ).).).).V !.).v.u+w+w+n+t+a+a+v.L.w b.g.].g.k.l.~.T k.#.}.{+",
"t.'+=.=.}.].`.o.&.%.c.c.W.-+<+v.).m+m+a+n+n+l+n+w+w+w+w+u+/+P v.!.P ).d.).)./+V d.x+x+x+s+m+n+9+9+e.4.I.=.v j.2.1.k.Y 2.}.[.<.<.",
"<.`.t.b.b.b.Y.[.S F.%.<.U %.[+/+j  +m+m+n+n+u+n+n+u+w+w+t+n+l+ +e. +9+d.w. +D w.n+u+n+u+9+n+n+9+9+v.9.2.l.&.b.o.Z.D.C @.+.y b.S ",
"S {+D.o.2.t ].>.c.}.Y T >.].{+<+w.!./+9+m+u+n+n+n+n+a+n+t+n+u+n+m+/+e.@+e. +n+7+n+9+w+C+m+m+m+/+v.v.9.}.<.o.z.9.u.v %.Y Z Z b.u.",
"<.r.p.b.>.J j.k.3.%.k.7.f.'.7.2+a+j /+a+9+m+m+u+m+m+<+n+w+A+n+m+m+u+w+9+/+n+n+9+9+n+).w.n+<+m+ +d.a.b.o.W.o.r.]+r.>.&.3.Z }.r.o.",
"6.N.o.c.%.F.b.[.9.#.1.b.7.b.7.K.@+v.@+/+a+9+m+m+m+a+a+u+D e.9+@+9+n+u+n+m+n+w+<+ +9+<+@+a+d./+d.e.r.8.D.-+k.}.r.8.A.3.A.l.Z.)+<.",
"t.2.u.<.<.6.K.=.S S b.].g.g.7.%. +/+!.9+<+a+a+m+m+@+n+w.v. + +@+<+/+u+9+m+e./+7+ +n+ +7+<+v./+v.4.(.[.D.'+M.t.u.<.r.A.[.l.t.u.t.",
">.t <.A.}.c.p.r.B R %.b.M.D.7.].9. +/+e.9+a+a+a+n+v.9+u+m+ +<+9+/+@+a+m+ +/+ +a+e.a+v.<+/+).d.v.t.k.=.<.X.X.k.r.<.u.u.<.o.W.<.p.",
">.>.O.}.]+r.r.K.}.7.F.t.=.Y =.7.T O.<+v.@+a+a+9+a+/+e.v.u+<+ +m+v.V  +a+w./+w.a+e.d.a+u+w.<+v.4.H.h.b.c.Y.Y.t.Y.t.r.o.Z.F.p.r.u.",
"#.c.K.r.z.[.>.I.r.A.F.k.b.>.Y.p.T t.L.:+w.9+a+:+<+a+a+v.n+e.v./+n+<+v.<+e.<+ +7+d.v.).).@+e.e.r.D.k.7.u. .Z.'+Y.Z.Z.]+u.p.p.u.=+",
"#.2.r.r.r.<.c.I.K.X.M.l.b.p.%.o.K.W.++d.7+w.m+/+V w+w+m+<+d.:+d. +n+d.w. +<+@+ +v.:+ +/+ +v.O.t.p.`.X.Y.u.N.t.'+Z.'+{+r.'+Y.W.u.",
"[.r.n.W.=.t c.c.6.S b.X.r.p.J A.I.I.>.6.d.7+@+9+ +P v.!.V :+l+w.P <+).).@+m+m+).<+ +<+@+d.O.K.o.k.S.Y.z.z.'+Z.X.=+=+Z.`.)+D.D.b.",
"[.=.l.}.v v S =.=.3.r.Y o.p.b.A.}.}.D.J.I.e.:+9+:+7+:+ +<+a+e./+<+V  +/+P P ). + +a+e. +a.Z X.z.b.S.p.}.y.y.y Z.Z.A.k.W.D.m.g.W.",
"A.z.z.Z.z.S [.r.p.=.r.o.Z.o.>.b.=.].@.D.t.!+v. +n+/+9+:+<+a+<+D j  +/+:+@+ + +<+a+d.v.a.u...u.W.p.p.b.0.3.3.(.3.o.%+c.k.M.=.p.W.",
"Y.X [.r.y [.<.>.7.N.u.c.Y.b.}.k.%.x.D.k.F.J.p.E e./+7+ +<+a+/+<+@+<+<+ +@+7+m+@+e.d.a.9.t.}.o.D.b.t.o.r.Z.r.3.z.n.R.7.@.1.W.k.j.",
"r.U ` s [.Q <.}.1.6.N.3.p.b.S J c.p.D.1.M..+t.2.N.V d.m+9+ +:+@+7+m+ +v. +<+ +v.D 9.<.=+r.r.b.F.<.r.r.`.<.9.z.o.o.Z.[.O %.g.m.7.",
"=.X Z S G [.3.Y @.>.u.b.r.6.Y 9.t.u.p.c.h.p.u.u.p.>.9.4.!. +:+7+:+ +@+:+d.V V a.e e +.Z.b.o.].@.}.c.p.D.%.8.=.r.}.l.Z S /.p.L 1.",
"=.R }.o.X }.}.t >.t.u.l...2.K.`.o.S.W.D.1.J.I.K.].].<.&.>.a.^.4.D 4.E 4.a.O.3.y Z Z b.z.u.=.b.S t.=.b.M.3.=.+.<.o.(.c.=.N 9.L Q ",
"=.C Z k.(.3.r.}.a.3.o.u.+.6.D.t.u.F.`.u.A.k.J.O.t.].p.S Q #.j.S >.R &.y ......x x [.l.Z.<.<.7.<.%.r.'+7.l.R K.u.u.r.z.X v r.N R ",
"3.}.3.[.r.}.B 9.&+y.l.b.+.2.u.p.b.b.D.F.k.o.F.j.c.S.b.S =.0.=.<.k.v 7.<.3.Z 3.Z =.b.}.r.3.s.M %.=.r.k.L 8.3.o./.S.X.3.}.Z r.t 5.",
"y.9.}.8.A.y.z.+.Y.=+o.t.<.+.t.c.p.Y.W.c.p.2.t.].F.D.o./.>.b.<.7.S z l.<.y t x <.}.}.}.3.}.}.[.@.3.S S 1.>.Y.p.r.o.F.p.2.a.c.>.N.",
"D.c.u.<.u.N.O.3.b.o.l.u.r.t.p.<.t.b.b.F.u.Y.u.c.t.D.g.c.b.=.8.b z 3.}.=.A.Z {.B c.3.5.(.}.6.b.].}.< ..N.p.F.X.'+}.r.}.5.3.%.>.=+",
"D.p.!+z.a.'+u.N.9.l.D.o.K.I.Z.z.Y ].=.S t.u.W.Y.<.D.H.t.2.7.8.R (.Z U X 3.*+{.{. .>.z.(.N.N.B [.8.u Y c.2.W.D.'+}.W b.3.a.b.i.y.",
"p.+..+t.N.]+K.=.m.=.l.Y.K.z.P.9.+.c.r.N.u.r.p.p.<.S t.Y.b.7.Y r.}.r...x x a.Z.5.e Z.z.3.>.2.+.N.z.D.u. .6.-+Y.j.D.2.u.3.]+}.;.N."};
