/* XPM */
static char * item_rot_1c_32_xpm[] = {
"32 32 255 2",
"  	c #000000",
". 	c #2A0602",
"+ 	c #230900",
"@ 	c #2B1B01",
"# 	c #392B0D",
"$ 	c #3C2F24",
"% 	c #4C4237",
"& 	c #534932",
"* 	c #5B5245",
"= 	c #4E5E3B",
"- 	c #48692B",
"; 	c #446A3C",
"> 	c #56662E",
", 	c #406E2C",
"' 	c #3F7021",
") 	c #6A6152",
"! 	c #497C2C",
"~ 	c #497C33",
"{ 	c #53793C",
"] 	c #78705E",
"^ 	c #787066",
"/ 	c #4C8328",
"( 	c #607D29",
"_ 	c #558128",
": 	c #597F38",
"< 	c #667B42",
"[ 	c #6E793D",
"} 	c #5B8033",
"| 	c #54804E",
"1 	c #607C52",
"2 	c #4F8342",
"3 	c #4D871E",
"4 	c #508916",
"5 	c #538636",
"6 	c #53863C",
"7 	c #7D7943",
"8 	c #5C8445",
"9 	c #847B6B",
"0 	c #5C8F34",
"a 	c #53923F",
"b 	c #5C903F",
"c 	c #5C9046",
"d 	c #5B904E",
"e 	c #867F7A",
"f 	c #658D4E",
"g 	c #60922B",
"h 	c #6A8F37",
"i 	c #5A9622",
"j 	c #589537",
"k 	c #59962D",
"l 	c #758B50",
"m 	c #6B9143",
"n 	c #6B9149",
"o 	c #8D8474",
"p 	c #62945E",
"q 	c #6C915F",
"r 	c #63973C",
"s 	c #6A926A",
"t 	c #788E67",
"u 	c #818F58",
"v 	c #5C9C48",
"w 	c #5B9C4F",
"x 	c #659A48",
"y 	c #659A4E",
"z 	c #649A57",
"A 	c #6F9758",
"B 	c #63A13F",
"C 	c #62A146",
"D 	c #958D7D",
"E 	c #6EA13A",
"F 	c #68A33A",
"G 	c #6BA331",
"H 	c #63A720",
"I 	c #6CA146",
"J 	c #63A630",
"K 	c #63A63C",
"L 	c #74A046",
"M 	c #96908A",
"N 	c #66A754",
"O 	c #6DA552",
"P 	c #6CA558",
"Q 	c #68A846",
"R 	c #74A356",
"S 	c #72A35E",
"T 	c #71A366",
"U 	c #68A84C",
"V 	c #69A661",
"W 	c #9E9585",
"X 	c #72A876",
"Y 	c #7FA67A",
"Z 	c #6CB13E",
"` 	c #83A66D",
" .	c #86A664",
"..	c #8AA37D",
"+.	c #6CB146",
"@.	c #6CB14D",
"#.	c #88A75D",
"$.	c #73AF4D",
"%.	c #6BB154",
"&.	c #73B236",
"*.	c #72B054",
"=.	c #6CB530",
"-.	c #7AAE52",
";.	c #6DB627",
">.	c #6CB539",
",.	c #72B06A",
"'.	c #70B25C",
").	c #A79D8B",
"!.	c #6FB262",
"~.	c #A69D91",
"{.	c #76B062",
"].	c #78B05C",
"^.	c #7AB242",
"/.	c #7FAE60",
"(.	c #7EAE69",
"_.	c #7CAE71",
":.	c #78B34A",
"<.	c #80B24A",
"[.	c #AAA386",
"}.	c #70BE21",
"|.	c #70BB46",
"1.	c #78B947",
"2.	c #74BA4E",
"3.	c #73BA55",
"4.	c #72BA5C",
"5.	c #7AB85C",
"6.	c #7CB855",
"7.	c #83B65A",
"8.	c #ADA599",
"9.	c #AFA592",
"0.	c #75BD66",
"a.	c #73C234",
"b.	c #78BC6C",
"c.	c #7BBB74",
"d.	c #7CBC66",
"e.	c #77C145",
"f.	c #77C23D",
"g.	c #81BB6C",
"h.	c #7DC135",
"i.	c #83BB66",
"j.	c #8AB96A",
"k.	c #89B973",
"l.	c #87B97B",
"m.	c #82C044",
"n.	c #77C255",
"o.	c #95B76B",
"p.	c #7EC155",
"q.	c #7BC25C",
"r.	c #79C44F",
"s.	c #82C063",
"t.	c #84C05D",
"u.	c #7AC82B",
"v.	c #8BBF62",
"w.	c #B6AD9A",
"x.	c #7CC465",
"y.	c #B6ADA1",
"z.	c #7ECB1A",
"A.	c #83C552",
"B.	c #88BF8C",
"C.	c #95BC81",
"D.	c #9FBA80",
"E.	c #85C931",
"F.	c #89C55A",
"G.	c #A0B994",
"H.	c #95BD8F",
"I.	c #82CA3E",
"J.	c #8DC554",
"K.	c #A3BC72",
"L.	c #82C675",
"M.	c #81CA4A",
"N.	c #84C66F",
"O.	c #BAB297",
"P.	c #86C57E",
"Q.	c #84C95C",
"R.	c #83C963",
"S.	c #92C55C",
"T.	c #8BC576",
"U.	c #8DC570",
"V.	c #A3BF67",
"W.	c #89CF12",
"X.	c #93C37D",
"Y.	c #92C385",
"Z.	c #8BC864",
"`.	c #95C470",
" +	c #8AC86B",
".+	c #9CC17D",
"++	c #94C477",
"@+	c #9FC174",
"#+	c #94C765",
"$+	c #BEB5A2",
"%+	c #8ECB4E",
"&+	c #93C76B",
"*+	c #9DC46A",
"=+	c #BDB5A9",
"-+	c #90CC42",
";+	c #93CD32",
">+	c #92CD79",
",+	c #92CF63",
"'+	c #96CE6E",
")+	c #9FCE53",
"!+	c #99CF5E",
"~+	c #97CD85",
"{+	c #95CE8D",
"]+	c #9ECF66",
"^+	c #97CD99",
"/+	c #9CCE7C",
"(+	c #CDBBAB",
"_+	c #C6BEB1",
":+	c #C8BEAB",
"<+	c #A1CF72",
"[+	c #A6CB90",
"}+	c #A4CB9C",
"|+	c #C4C0AB",
"1+	c #9FCE8F",
"2+	c #A6CE7F",
"3+	c #9EDA0F",
"4+	c #B0CB80",
"5+	c #C0C682",
"6+	c #A2CF88",
"7+	c #B5CA80",
"8+	c #AACF74",
"9+	c #C8C397",
"0+	c #ACCF8A",
"a+	c #A5CFAA",
"b+	c #B6CD94",
"c+	c #D6C4B3",
"d+	c #AED398",
"e+	c #D1C6B3",
"f+	c #CFC7BA",
"g+	c #B5D0B1",
"h+	c #CDC9B4",
"i+	c #AED4A4",
"j+	c #B7D2A6",
"k+	c #AEDD9E",
"l+	c #DFCCBB",
"m+	c #B5DD8D",
"n+	c #DACFBC",
"o+	c #D5D1BC",
"p+	c #D7D0C3",
"q+	c #DECEC3",
"r+	c #B7DDA1",
"s+	c #B8DFB0",
"t+	c #C2DEBE",
"u+	c #E6D5CA",
"v+	c #DED8C4",
"w+	c #E1D8CB",
"x+	c #DBDACB",
"y+	c #E3E1D3",
"z+	c #E9E0D3",
"A+	c #EFDFD4",
"B+	c #E8E2CD",
"C+	c #F0E9DD",
"D+	c #F9F4DE",
"E+	c #FAF4E6",
"F+	c #FFFFFF",
"A.Z.k.++/.j.U.X.j.U./.U.k.&+_.S /.N.,.g.k.(.5.d.k.++j.6.p.5.d.3.",
"m.t.5.k.k.v.t.++7.(.].s.{.5.].O (.k.{.i.T.{.*.i.7.5.k./.1.r.j.j.",
"p.e.5.X.l.i.U.++6.(.{.S P -.$.O T T d.s.T._.(.j.O *.q.g./.6.]./.",
"q.1.'.l.(.i.i.j.j.g.i.k.{.C.b+|+=+D.k.s.j.,.k.{.{./.6.*.-.7.d.].",
"p.:./.i.g.k.k.++i.5.k.U.[+$+9.|+|+y.|+++5.{.0.S {.6.t.6.2.:.<.:.",
"i.$.S *.j.g.i.i.s.P ]..+$+=+v+v+v+p+|+O.k.6.].].{.5.d.j.R  .].j.",
"X.].{.*.i.].5.g.*.{.k.=+=+h+v+|+|+f+p+_+D.i.(.5.S g.g.5.b.(././.",
"l.5.*.6.*.d.].'.].].G.y.p+|+f+w.=+_+|+p+$+k.].P _.l.(.T.g.k.S /.",
"U.j.d.i.6.p.:.*.5.d.w.h+y+f+x+$+|+f+w._+=+D.{.(.,.S S (.g.(.{.g.",
"/.j.d.5.7.7.:.:.*.j.w.w+z+f+|+$+h+f+w._+_+$+j.(.S P z S b.T d.k.",
"{.(.g.7.i.7.:.6.*.l._+z+B+=+8._+v+h+f+h+$+h+C.(.T T X X S S k.P.",
"'.T.5.-.s.d.4.3.'.G._+p+w+$+8.e+h+h+f+8.$+o+C.(.l./.U.5.].S ].].",
"U Z.r.v.i.'.%.*.{.G.|+8._+o+w+h+o+_+_+=+y.o+G.T.4.].j.N.s.{.{.-.",
"-.t.Q.5.*.$.P ].5.w.h+=+=+=+_+|+f+_+p+_+y.=+O.5.].5.d.*.(.R ].$.",
"Z.5.5.*.6.2.5.6.2.$+|+o+v+f+v+h+_+_+f+_+=+_+$+O O {.].U O x S ].",
"g.].].*.7.+.t./.1.w.|+p+w+f+=+|+=+_+:+_+w.v+|+O S T {.O *.{.(.5.",
"T.0.{.5.*.U 6.i.*.O._+p+y+h+~.y.h+o+o+y.y.v+$+k.i.(.,.R ].(.,.T.",
"H.T k.j.].].*.*.P w.|+p+v+p+w.f+f+=+h+=+$+o+$+/.5.5.P *.].6.A /.",
"k.O -.q.+.6.].{.*.G.=+f+f+p+=+f+p+h+v+_+|+$+O.U P 3.*.7.6.m.O T ",
"U.5.3.t.+.:.A *.5.C.=+=+)._+|+f+=+9._+$+v+y.w.*.*.].5.5.6.6.5.k.",
"U.i.5.U.$.6.3.:.1.C.y.f+w.p+p+=+y.).9.|+v+f+D.d.v./.6.2.n.-.5.g.",
"i.i.5.6.7.].6.1.|.++w.o+o+p+v+h+y.y.w.p+o+h+k.g.i.i.i.i.5.$.S 5.",
"j.7.6.6.].2.e.n.7.k.w._+o+p+o+p+o+h+o+_+_+$+(.i.i.t. +++d.(.d.i.",
"/.i.(.i.R 6.r.:.v.s.D.y.f+o+:+$+_+h+=+_+y.G.j.t.6.5.U.i.5.d.s.s.",
"].k.T.U.i.t.].6.7.A.i.$+_+h+_+|+_+$+=+$+$+C.i.s.m.7.U.`.U.k.v.g.",
"{.i.].7.j.t.7.5.&+6.t.D.|+=+h+|+$+y.=+$+9.].N.U.t.U.l.U.>+`.U.t.",
"{.d.P ].5.(.s.i.5.A.#+ +w._+:+=+9.y.y.w.` {.d.U.t.5.k.g.N.q.A.Q.",
"d.'.'.].5.g.s.'.6.p.A.7.(.O.:+_+=+|+O...S k.g.t.i.U.g.g.g.3.2.r.",
"*.].'./.*.s.j.j.v.t.A.j.6.S o.8.9.[.(.!.z g.5.$.i.A.].i.d.'.-.+.",
"{.5.g.g.P.d.{.s.t.F.t.v.7.*.*.*.*.*.(.T '.g.d.%.5.p.5.5.j.(.{.{.",
"j.i.k.k.N.i.i.i.t.t.s.t.F.q.6.*.P 5.{.(.(.g.(.*.{.].t.U.i.i.(.N.",
"t.v.C.k.q.s.X.l./.g.j.v.5.v.5.5.(.S c._./.b.(.g.5./.i.Z.s.g.k.g."};
