/* XPM */
static char * item_rot_4b_32_xpm[] = {
"32 32 255 2",
"  	c #000000",
". 	c #200B02",
"+ 	c #280903",
"@ 	c #302101",
"# 	c #403426",
"$ 	c #433819",
"% 	c #504637",
"& 	c #396023",
"* 	c #605841",
"= 	c #4D623D",
"- 	c #625B4D",
"; 	c #616031",
"> 	c #426A3B",
", 	c #516B30",
"' 	c #3F722D",
") 	c #437221",
"! 	c #487030",
"~ 	c #71695A",
"{ 	c #746C54",
"] 	c #477F2A",
"^ 	c #4E7D3E",
"/ 	c #54804E",
"( 	c #607C52",
"_ 	c #59813A",
": 	c #607F3A",
"< 	c #7B7365",
"[ 	c #5D8132",
"} 	c #51843B",
"| 	c #558432",
"1 	c #5F8043",
"2 	c #508833",
"3 	c #568827",
"4 	c #618528",
"5 	c #4F8B24",
"6 	c #538746",
"7 	c #5B8646",
"8 	c #7F7F41",
"9 	c #847E66",
"0 	c #867E6F",
"a 	c #599240",
"b 	c #5A933A",
"c 	c #5D9147",
"d 	c #63903E",
"e 	c #5C914F",
"f 	c #668E4F",
"g 	c #6B924A",
"h 	c #66925E",
"i 	c #639735",
"j 	c #5D9A28",
"k 	c #5C9B20",
"l 	c #788E53",
"m 	c #6A9536",
"n 	c #5C9A35",
"o 	c #5E965E",
"p 	c #66936B",
"q 	c #739064",
"r 	c #8C8966",
"s 	c #818F58",
"t 	c #5D9C45",
"u 	c #5B9D4F",
"v 	c #649B46",
"w 	c #659A4F",
"x 	c #928977",
"y 	c #649A57",
"z 	c #6C9946",
"A 	c #91897E",
"B 	c #6F9858",
"C 	c #63A821",
"D 	c #6AA53C",
"E 	c #65A82D",
"F 	c #70A341",
"G 	c #68A735",
"H 	c #64A83D",
"I 	c #67A64B",
"J 	c #69A644",
"K 	c #60AA36",
"L 	c #6EA44A",
"M 	c #63A845",
"N 	c #66A652",
"O 	c #63A65E",
"P 	c #6DA451",
"Q 	c #6AA558",
"R 	c #6BA465",
"S 	c #6DA45E",
"T 	c #72A358",
"U 	c #76A167",
"V 	c #76A350",
"W 	c #9B947A",
"X 	c #9D9482",
"Y 	c #9C9488",
"Z 	c #7DA663",
"` 	c #77A777",
" .	c #7FA75D",
"..	c #88A469",
"+.	c #85A57C",
"@.	c #6BB154",
"#.	c #6DB247",
"$.	c #6DB061",
"%.	c #6CB24E",
"&.	c #6FB05B",
"*.	c #74B04B",
"=.	c #77AE58",
"-.	c #72B054",
";.	c #75AE61",
">.	c #71AF69",
",.	c #75B32E",
"'.	c #77AD6F",
").	c #6CB62D",
"!.	c #7AAD67",
"~.	c #7CAD61",
"{.	c #80AD59",
"].	c #74B43A",
"^.	c #7BB23A",
"/.	c #79B242",
"(.	c #80AC70",
"_.	c #A79E8C",
":.	c #6DB73B",
"<.	c #A69E92",
"[.	c #A79F83",
"}.	c #6CB743",
"|.	c #73B542",
"1.	c #80B24E",
"2.	c #73B94D",
"3.	c #73B954",
"4.	c #7CB853",
"5.	c #72BF26",
"6.	c #80BB25",
"7.	c #72BB64",
"8.	c #74BB5D",
"9.	c #76BA6A",
"0.	c #7EB95D",
"a.	c #7ABA64",
"b.	c #7AB970",
"c.	c #78B978",
"d.	c #7FB96A",
"e.	c #81B964",
"f.	c #88B762",
"g.	c #72C238",
"h.	c #84B779",
"i.	c #88B76B",
"j.	c #ACAB77",
"k.	c #87B771",
"l.	c #7AC13A",
"m.	c #82BF3C",
"n.	c #B2A996",
"o.	c #B1A99D",
"p.	c #B1AB90",
"q.	c #78C34E",
"r.	c #79C71E",
"s.	c #77C355",
"t.	c #79C447",
"u.	c #7BC25D",
"v.	c #7FC256",
"w.	c #92B97F",
"x.	c #81C350",
"y.	c #99B87C",
"z.	c #A0B67C",
"A.	c #96BB69",
"B.	c #85C349",
"C.	c #88C251",
"D.	c #85C25E",
"E.	c #87C257",
"F.	c #7CC468",
"G.	c #9FB971",
"H.	c #82C08B",
"I.	c #80C373",
"J.	c #91C151",
"K.	c #8EC15D",
"L.	c #88C366",
"M.	c #83C46D",
"N.	c #8AC26D",
"O.	c #83C37C",
"P.	c #81C941",
"Q.	c #91BE8D",
"R.	c #83CA34",
"S.	c #8EC082",
"T.	c #9BBB90",
"U.	c #91C07A",
"V.	c #89C374",
"W.	c #92C16C",
"X.	c #9BBA9F",
"Y.	c #92C174",
"Z.	c #89CC25",
"`.	c #8CCB46",
" +	c #86CB61",
".+	c #89CC51",
"++	c #BEB5A2",
"@+	c #BDB5A8",
"#+	c #BAB984",
"$+	c #BDB79C",
"%+	c #8ACB6F",
"&+	c #8DCC59",
"*+	c #8FCB64",
"=+	c #96CF2B",
"-+	c #8ECB7B",
";+	c #98CD49",
">+	c #93CB75",
",+	c #97CD55",
"'+	c #94CB83",
")+	c #92CB8B",
"!+	c #99CC67",
"~+	c #98CC70",
"{+	c #9BCC77",
"]+	c #9ACC7E",
"^+	c #9FCA84",
"/+	c #9ECA8C",
"(+	c #9ECE5E",
"_+	c #97CD99",
":+	c #A3CC80",
"<+	c #A6CC77",
"[+	c #CEBCAB",
"}+	c #B0CB6C",
"|+	c #A4CB9C",
"1+	c #AFCA80",
"2+	c #C5C290",
"3+	c #A9CE6D",
"4+	c #AFCA87",
"5+	c #C7C1A6",
"6+	c #9CDC08",
"7+	c #C8C0B4",
"8+	c #AECB93",
"9+	c #CBC0AD",
"0+	c #C6C2AD",
"a+	c #BCC6AE",
"b+	c #A5CFAA",
"c+	c #A9D28B",
"d+	c #A8D295",
"e+	c #A6D671",
"f+	c #B4D0B1",
"g+	c #AED4A4",
"h+	c #B7D2A6",
"i+	c #A8DA84",
"j+	c #DAC7B6",
"k+	c #D5CAB7",
"l+	c #C5D0B7",
"m+	c #B3DA85",
"n+	c #B1DA8D",
"o+	c #D3CDB2",
"p+	c #ADDD81",
"q+	c #D3CCBF",
"r+	c #B9D79D",
"s+	c #D2CEB9",
"t+	c #B2DC9D",
"u+	c #B8DFB0",
"v+	c #C2DEBE",
"w+	c #DBD7C2",
"x+	c #E1D6C2",
"y+	c #E5D5CB",
"z+	c #E0D7CA",
"A+	c #DBD9CA",
"B+	c #E8E2CD",
"C+	c #E9E2D5",
"D+	c #F4EEE2",
"E+	c #F4F0DA",
"F+	c #FFFFFF",
"x.L.k.Y.e.L.N.U.i.N.;.Y.k.N.(.T ;.M.'.d.h.!.e.!.k.>+k.4.v.0.d.8.",
"B.D.0.U.k.K.D.k.0.i.=.e.;.0.;.P (.h.!.e.U.!.-.d.f.0.k.~.4.4.i.d.",
"4.m.0.U.w.f.W.{+{.e.;.T S -.*.-.U S a.D.V.'.b.k.L P 0.d.{.4.=.i.",
"u.t.&.h.!.e.0.i.N.k.i.i.!.k.4+0+9+T.!.D.i.>.k.!.S ~.{.-.4.{.e.~.",
"v.3.!.d.d.k.k.U.e.~.U.V.Y.$+++0+@+++8+D.e.~.d.;.;.0.L.0.4.*.1.4.",
"e.*.T @.N.i.M.e.e.Q 0.N.8+7+w+q+w+0+++z.D.4.=.&.;.0.e.L.T Z {.i.",
"'+;.!.-.d.4.3.d.-.!.7.^+@+w+0+7+w+7+0+a+8.e.~.a.S k.k.~.'.!.~.~.",
"U.a.-.4.4.e.=.&.&.=.;.T.q+++s+o.@+++7+@+z.d.=.S (.h.!.V.i.U.T Z ",
"W.d.d.e.4.v.=.=.8.3.k.0+7+n.q+++7+7+k+9+n.{.;.!.'.U T !.d.!.Z (.",
"{.d.d.0.0.4.*.*.-.4.U.s+q+o.q+@+0+o.7+w+$+w.0.i.S R y U 9.U d.k.",
">.(.d.0.L.=.|.4.-.;.T.w+s+@+q+q+@+Y 7+w+0+y.k.'.>.R (.!.~.S k.O.",
";.U.0.4.D.e.3.3.=.;.p.z+o.k+s+7+5+_.7+s+0+T.B !.h.~.k.!.;.T ;.{.",
"L L.x.i.e.$.@.-.;.;.$+q+o.7+s+7+q+s+7+7+7+8+V V.&.;.N.L.D.!.!.3.",
"=.v.D.0.&.#.Q =.=.3.n.0+0+s+k+w+7+n.0+<.7+$+T ;.=.0.0.=.!.T =.*.",
"L.0.0.=.8.4.=.4.3.-.@+s+7+7+5+s+0+7+7+k+q+0+;.I Q ;.~.L P w U =.",
"d.=.=.=.0.#.D.~.2.D.@+w+q+0+++@+@+0+@+z+s+++d.P U S ;.T -.9.!.a.",
"Y.a.;.0.-.L v.f.=.0.++B+<.0+q+s+@+Y 7+z+s+$+e.d.e.(.;.T =.!.!.U.",
"Q.Z k.i.=.-.*.-.T P 5+A+5+o+q+7+0+<.q+w+s+$+i.~.0.0.S =.=.4.B ~.",
"k.V 1.0.|.4.=.;.=.N o.0+k+q+s+7+w+n.k+7+7+$+4.L Q 3.&.0.v.t.N Z ",
"V.4.-.0.*.4.T -.0.;.n.n.q+7+@+7+7+<.o._.7+p.&.-.&.~.a.8.4.0.4.i.",
"L.d.0.N.*.4.4.1.t.0.T.s+w+@+_.o.o.7+k+<.7+T.;.d.L.e.4.q.s.=.0.k.",
"e.e.{.=.4.=.=.q.}.e.y.q+w+7+++$+o.z+w+q+0+y.;.k.e.f.e.i.0.-.U a.",
"e.e.=.4.=.3.t.4.0.e.U.o+7+7+s+0+q+z+q+s+$+k.0.i.e.0.L.V.e.a.a.i.",
"0.d.e.L.T 4.q.4.L.D.0.++7+7+7+w+7+7+k+7+$+i.i.D.v.0.N.L.e.e.f.D.",
"~.k.U.Y.e.D.=.0.0.C.0.T.5+++5+5+0+@+5+++[.2.e.e.t.0.N.Y.N.N.L.N.",
";.M.~.f.i.D.e.0.W.4.E.D.5+++++@+@+0+++++k.=.k.N.E.N.h.>+-+V.W.e.",
"a.a.T =.~.d.L.e.0.C.W.D.T.5+o.++$++++++.a.=.a.N.0.0.I.d.M.v.x. +",
"d.&.=.~.e.k.D.-.4.4.C.0.!.p.5+++++@+_.Z ;.i.i.D.e.N.d.N.d.3.2.v.",
"&.=.T ;.=.D.i.i.L.D.v.W.4.T z.n.n.[.;.>.B M.0.-.e.v.-.e.a.;.1.*.",
";.0.d.d.-+e.~.D.v.E.D.L.0.*.-.-.-.=.(.;.;.k.a.-.0.4.a.0.L.!.;.!.",
"N.e.U.h.N.f.e.e.D.0.L.e.E.v.4.-.Q 0.;.Z ~.d.!.-.;.{.e.N.e.e.i.U.",
"D.K.U.V.v.L.U.k.~.d.N.L.0.L.0.;.!.S b.h.~.b.~.d.a.~.i.D.0.d.k.k."};
