/* XPM */
static char * item_rot_1e_64_xpm[] = {
"64 64 255 2",
"  	c #210101",
". 	c #3C5A35",
"+ 	c #46612B",
"@ 	c #3B6527",
"# 	c #426E1E",
"$ 	c #606431",
"% 	c #477035",
"& 	c #6E6557",
"* 	c #447C28",
"= 	c #477A3B",
"- 	c #517831",
"; 	c #487B32",
"> 	c #5A734F",
", 	c #4F774B",
"' 	c #5A753B",
") 	c #59782A",
"! 	c #507C2B",
"~ 	c #4E7F1F",
"{ 	c #547B3B",
"] 	c #527C43",
"^ 	c #4E8B26",
"/ 	c #618528",
"( 	c #548840",
"_ 	c #5E8542",
": 	c #528E1C",
"< 	c #598B2A",
"[ 	c #519011",
"} 	c #5B8A3B",
"| 	c #62883A",
"1 	c #5E8A34",
"2 	c #558D34",
"3 	c #548D3B",
"4 	c #64874D",
"5 	c #5A8B4E",
"6 	c #638856",
"7 	c #5A8B56",
"8 	c #618962",
"9 	c #579047",
"0 	c #5E8F48",
"a 	c #668D49",
"b 	c #788B4D",
"c 	c #788B5D",
"d 	c #728C6A",
"e 	c #639735",
"f 	c #5D9A28",
"g 	c #5C9B20",
"h 	c #6A9536",
"i 	c #5B993F",
"j 	c #5D9A31",
"k 	c #5C9A38",
"l 	c #64973F",
"m 	c #5F9846",
"n 	c #5E984E",
"o 	c #65974F",
"p 	c #789642",
"q 	c #6A9A49",
"r 	c #709853",
"s 	c #649B5E",
"t 	c #6C995E",
"u 	c #729949",
"v 	c #6E9770",
"w 	c #669A6A",
"x 	c #74975C",
"y 	c #729764",
"z 	c #958C7E",
"A 	c #62A146",
"B 	c #61A14D",
"C 	c #6B9F46",
"D 	c #65A056",
"E 	c #68A04D",
"F 	c #6C9E57",
"G 	c #63A821",
"H 	c #6AA53C",
"I 	c #65A82D",
"J 	c #70A341",
"K 	c #68A735",
"L 	c #64A83D",
"M 	c #69A644",
"N 	c #60AA36",
"O 	c #63A845",
"P 	c #6AAA4E",
"Q 	c #69AA55",
"R 	c #70A855",
"S 	c #68AA5B",
"T 	c #72A84E",
"U 	c #6FA85B",
"V 	c #6CA961",
"W 	c #76A661",
"X 	c #77A75B",
"Y 	c #6EAC6B",
"Z 	c #75AA6B",
"` 	c #71AB72",
" .	c #7CAA58",
"..	c #7EAA52",
"+.	c #6AB337",
"@.	c #70B13F",
"#.	c #7DA96E",
"$.	c #87A66E",
"%.	c #7EA87A",
"&.	c #85A863",
"*.	c #6DB247",
"=.	c #6CB24E",
"-.	c #74B04B",
";.	c #8BA764",
">.	c #6CB627",
",.	c #75B32E",
"'.	c #6CB631",
").	c #6CB356",
"!.	c #6CB81D",
"~.	c #70B25C",
"{.	c #6FB264",
"].	c #74B43A",
"^.	c #7BB23A",
"/.	c #79B242",
"(.	c #7AB056",
"_.	c #74B256",
":.	c #79B05D",
"<.	c #A79E8F",
"[.	c #76B165",
"}.	c #6CB743",
"|.	c #7FAF66",
"1.	c #80B24E",
"2.	c #70BA3E",
"3.	c #73B94D",
"4.	c #73B954",
"5.	c #77B946",
"6.	c #7CB853",
"7.	c #80BB25",
"8.	c #96AD7F",
"9.	c #72BB64",
"0.	c #74BB5D",
"a.	c #76BA6C",
"b.	c #A0AE65",
"c.	c #7ABA64",
"d.	c #7CBA5D",
"e.	c #9BAF73",
"f.	c #7EB96C",
"g.	c #81B964",
"h.	c #75C22A",
"i.	c #87B76B",
"j.	c #72C238",
"k.	c #86B771",
"l.	c #70C060",
"m.	c #96B093",
"n.	c #7AC13A",
"o.	c #82BF3C",
"p.	c #7BBC7B",
"q.	c #79C05B",
"r.	c #7CC054",
"s.	c #85BA7A",
"t.	c #86BC61",
"u.	c #83BB82",
"v.	c #78C34E",
"w.	c #78C71F",
"x.	c #77C355",
"y.	c #8EBB61",
"z.	c #9AB672",
"A.	c #8DBB68",
"B.	c #79C447",
"C.	c #8EB97D",
"D.	c #95B973",
"E.	c #8FB98A",
"F.	c #81C350",
"G.	c #98B87F",
"H.	c #7CC364",
"I.	c #83C164",
"J.	c #85C349",
"K.	c #7FC26B",
"L.	c #7DC273",
"M.	c #B5AD9E",
"N.	c #85C073",
"O.	c #88C251",
"P.	c #85C25E",
"Q.	c #87C257",
"R.	c #88C06B",
"S.	c #8EBE75",
"T.	c #91C151",
"U.	c #8EC15D",
"V.	c #80C661",
"W.	c #83C65A",
"X.	c #81CA33",
"Y.	c #81C941",
"Z.	c #83CE0C",
"`.	c #89CC25",
" +	c #81C96A",
".+	c #8CCB46",
"++	c #85C978",
"@+	c #87C971",
"#+	c #86CB61",
"$+	c #8AC96B",
"%+	c #89CC51",
"&+	c #89CC58",
"*+	c #91CD3A",
"=+	c #8BC981",
"-+	c #90C973",
";+	c #95C779",
">+	c #92C96D",
",+	c #8FC979",
"'+	c #8ECB67",
")+	c #97C874",
"!+	c #99C86D",
"~+	c #90CC61",
"{+	c #92CC5A",
"]+	c #96CF2B",
"^+	c #A0C673",
"/+	c #94C983",
"(+	c #C1B8A8",
"_+	c #8ECA8F",
":+	c #98CD49",
"<+	c #9DC781",
"[+	c #9FC77B",
"}+	c #9CC788",
"|+	c #97CD55",
"1+	c #92C99C",
"2+	c #A0C691",
"3+	c #98CC69",
"4+	c #A7C586",
"5+	c #9ACC63",
"6+	c #9FC69D",
"7+	c #99CA91",
"8+	c #9ECE5E",
"9+	c #B0C789",
"0+	c #BCC481",
"a+	c #B4C880",
"b+	c #B0CB6C",
"c+	c #9ED078",
"d+	c #9DD081",
"e+	c #A9CE6D",
"f+	c #B6C979",
"g+	c #9CDC08",
"h+	c #AACF7A",
"i+	c #C9C1B1",
"j+	c #A8D084",
"k+	c #A7D08A",
"l+	c #A6D090",
"m+	c #B3CD9B",
"n+	c #B0CF8F",
"o+	c #AAD09A",
"p+	c #BBCB9E",
"q+	c #A0D58E",
"r+	c #A6D671",
"s+	c #ACD1A9",
"t+	c #BAD0B4",
"u+	c #D0C9B8",
"v+	c #A9DAA0",
"w+	c #ABDC83",
"x+	c #B3DA85",
"y+	c #B2DA8D",
"z+	c #B3DA98",
"A+	c #B5DAA5",
"B+	c #D9D2C1",
"C+	c #BADDB5",
"D+	c #C9E0C2",
"E+	c #E2DDCD",
"F+	c #F0EADE",
"d.d.|+R.R.S./+)+d.X :.S.S.t.G.G.|.S.[+S.:.d._.;+|.i.O.c+/+Q r A.o g.R.W [.t |.R.Z C.G.Q d.i.|.t C.}+d+<+8.d.V.r.P.B.d.W k.d.c.v.",
"2.#+.+g.,+i.S.i.i.i.|.A.^+t.|.4+A.t.y.:.$.f.S.o+l+<+y.f./+W t _.f.k.|.@+-+|.S.C.|.k.E.o d.:.N.|.S.F.U.A.i.R.(.5.W.v._.d.W D ~.3.",
"J.%+%+N._.r.k.|.#.k.S.|+P.|.E D. .'+|.i.|.t.&+'+:.(.4.K.U i.E m i.C.7+6+R.3.V R.C.g.=+Z M 0.U R.k.Q.d.s.|.k.f.T @.Y.$+Q.G.E.|.d.",
"h.>+*+W.@.R.G.}+E.#.U.t.F.t.r 2+1.1.t.|.R T 3.c.V 0 M i._.W E :.#.U U Z U W i.d.7+g.c.[.-.q ;+|.y./.T q.k.k+:.|._.O.5.,. .k.N.-+",
"6.I.`.o.T t.G.G.C.|.(.t.A.i.m+[+6.| :.|.:.o T F Q s {.-.T @.-.m t Z V V c.c.:.t.2+k.[.#.Z R <+e.1.l X M v.R.;+s.r y.@.g.P.&.X )+",
"q.t.h./.[.d./+2+m.s.R.|.#+A.9+..U.&.S.|.[.F i.S.[.4 x (.v.@.r.:.#.k.y 6.t.f.c.$+I.&.W f.%.g.C.y T M (.|.-.P -.A.^+A.;.-.R (.t |.",
"v.W.-.n.).K.,+C.|.R.k.g.r.y.G.1.D.X k.}+C.f.:.t.[.` t T 5.F.R.2+8.8.d W |.|.f.B.I.U |.:.;+X s.Z o o 5.t.A.@.P U 1.>+|.A.:.-.F W ",
"K.*.d.B.m c./+#.Z r.o S.c. .&.R.R.:.}+:.t.S.i.S.c.Z c.6.h.2.)+(+M.6+W o F i.k.Q.<+g.Z Y f.s.c.Q |.f.U |.U.E M _.M 5.t...A.N.c.X ",
"5.r.q.].X i.N.R.f.y.r k.i.|.X k+c.S.t.A.S.2+-+d.6.#.C.$+2.g.R.M.M.6+F |.k.|.P.I._.)+W (.L.).m k.W U [.A.-+i.J.3.3.@.U.5.1.M 5.6.",
"g.5.q.X A.#.V 6.D.>+/+2+/+E.2+d+g.T T W D.C.s+-+3.c.6.P.5.g.g.i+i+m.W c.|.U 5.v.R ;+5.F |./+E R |.f.o /.-.3+r.d.d. .C C Q.:.C J.",
"I.)+F.L H |.t )._.2+C.i.q.A.-+d.f.d.E { E d.,+I.3.N._.6.0.q.R.u+B+S.g.d.|.J A.T @.)+$+W |.t.f.U o Z _.h.r.I.;+d.u &.a c J v.P d.",
"i.R.l @.U y W *.r.2+F :.6.-+k.R R.W.[.U P I.g.:.W.[.K.E Q d.;+u+i+6.-.Q.:.g.g.(.D._.P.r.-.T 5.[.f.3.T N.K.F k.-+X $.$.$.X r.g.}+",
"2+R.(.E k.t t 2./+I.:._.5.f.i.N.R Q.R [.c.f.c.N.5.R F R =.*.)+i+u+t.-.6.(.i.K.H.c.@.T d.:.t.R.0.U m r k.~.:._._.s.r $.|.i.P o S.",
"}+_.f.f.k.P B.R.o -.E :.3.:.X [.A d.F a.V H._.R.3.c.*.k.H.v.t.u+i+!+r.5.d._.4.4.2.P k.7+S.s.#.:.W s Z 7+7+/+R.R.a.~.;+#.|.[.f.X ",
"}+W k.c.M 2.Q.d.T -._.f.:.f.f.Q n 4.f.i.d.0.q.6.(.C.H P.q.3.D.E+M.<+2.-.P.J.2.2.I (.R.k.@.X ` t c.E.7+[.N.}+d.g.W f.i.s.W k.i. .",
"}+W _.c.P 5.c.-.g.-.I.K.t._.A ~.c.g.E A =.R H.0.-.E.r -+d.r.G.B+i+4+Q.3+S.5.n.3._.E S.Z X 0 s =.[.E.%.S.l |.S.;+S.S.[.}+} F g.W ",
"c+Q.#.U a.0._.S.(.6.I.r.P.M l I.~.R.:.4.V.[.0.~.=.U k.[.3.5.9+B+(+4+.+Q.-.g.B.j.r.I.*.q R ~.~.[.U [.W |.a |.o G.s.].J C.|.o k.i.",
")+S.E.=+s.[.4.g.*./.:./.5.-.E @.6.R.V 2.4.R.N.f.L.P P 0.c.-.m+i+(+9+-.6._.5.2.5./.v.M X $.$.U g.7+Z Q _ F c.%.6 =+g.a C.Z $.W C.",
"y.g.T >+i.-.0.t.5.A.d.U.J.-. .-.6.g.P.3.d.c.K.d.c.c.[.g._.3.m+i+i+4+Q.;+t.6.n.2.M A. .6.p e.G.R.F T F x a W W F s.N.W W c.x -+|.",
":.C o G.S.*.d.6.A.|.(.6.-.*.F./.T 6.@.d.r.c.K.V.3.~._.R.6.6.M.(+B+p+>+;+S.r.5.3.E |.8.e.O.6.S.t t n 0 k.D t x W c.[.s W g.U l+K.",
"L.U 5 $.S.:._.t.t.t.A.-./.2.n.:.T d.:.:._.(.r.3.4.6.V N.g.6.m+(+i+9+U.-+k.R.,+R.k.[.X y.t.:.i.V w V F V t #.#.Z |.F ] f.t S.C.=+",
"[.N.a.E.g.V.r.g.;+5+P._.M 3.r.f.Q.R u &.d.-.@.M K q :.k.E T 8.B+i+M.R.P._.:.d.i.C.$+H.W E.E.C.W %.V #.#.y %./+#.S.R H (.C.7+s.N.",
"m C.|.}+X I.6.R t.*+Q.g.c.3.5.3.r.-.W X T *.*.+.l U N.R.|.|.<.i+i+M.P.d.g.:.g.R.i._.R W R R G.s E.%.c $.2+;+t.X :.E r k.d.|.d.F ",
"B R.g.S.W Q.6.(.t.J.R.f.0._.~.3.).Y k._.E T I.0.m m _.v.(.-.M.(+u+(+i.c.-+d.d.S.k.3.C &.0 l  .f._+%.|.1.y.N.R.X X r X U Q (.E (.",
"0 6.R.R.6.O.U.A.R.q.0.[.).P P *.U t W D E q |.[.Y s {.4.-.-.M.(+E+(+d.t.g.N.@+$+S.d.M 1.|  .|./+4.T #.T A.k.f.R.W.-.i.&.[.S.:.5.",
"K R r.R.o.Y.-+D.S._.@.9 F ,+q.~.g.k.:.[.D t k._.o Y V R :.J.p+B+(+M.=._.(.R.-+>+d.:.Q x q |.C.N.{.*._.W S.S.-.k.N.f.~.U c.o J /.",
"I m 3.U.J.B.R.f.f.T M E ] |.I.i.I.I.6.U t F f.Z D O P M *.F.(+u+i+(+d.P.f.:.I.>+r.d.d.q E C.4.K.F a.,+|.:.F.F.k.;+W D X f.W 6.-.",
"s.l t.Q.>+t.4.R _.*.].3.S _.P P _.3.P._.U D Q Z R *.*.F t.)+(+B+(+i++.r.S.2+S.P.4._.q.E T m c.P :.*.Q d.g.R M C |.W X R  .E k -.",
")+_.r.I.Q.i._.(.c.=.J.:.~.:._.3.3.d.5.A _.f.W {.v.V.I.0.:.O.(+i+(+(+F.O.d._.)+f.[.U 6.>+1.e f.k T U E k.i.R H M :.i L 5 x W t E ",
")+3.W d.3.:.l :.q.B.3.6.r.d.(.t.(.v.J.P.~.B S.R 3.Q.F.g.T ]+(+(+u+(+t.P.6.d.Q.f.a.` Z #.k.E 1.4 r F U :.X y.L E A -.E C 5 R.k.W.",
"k.-.d.g.|.R -.d.#+r.M 5.F.t.R.d.J.5.6._.k.R c.4.W J.o.3.5..+(+i+i+(+|.t.d.:.U R :.Z k.V E.s 3.U W f.F U Z U V P V k.C.U ( s._.:.",
"g.k.I.X |.X M g.:.:.T H O.A.i.(.5.6.d.I.g.&.[.U (.F.=.*.n.d.(+i+B+(+_.5.U.F.T W m |.D ).s._.:.0 r C.x t f.n P R 3.*.g.k.Z k.s.E ",
"I.R.R.4.F W R R.4.U E M 5.J.)+k.F i.Q.(.T k.~.E 5.Q.d.B.F.n.(+i+i+i+/.Q.U.5.3.P t k.F _.d.k.i C.i.W i.W a.a.F T T k.f.k.t E.}+S.",
"/+u.t ).X W R.v.M g.l 3.r.Q.(.g.P d.(.t.6.:.Q L 5.'.h.2.6.O.M.i+u+(+m -.>+T M 5.R.i.-.R (.f.Z /+P.-.S.8.x f.[.=.T P._.|.Z M :./+",
"s+E.F s.E.E. .X E E C :.Q.J r.3.q k.R (.R F U ~.6.j.+.4.5.].M.u+E+(+I.'+6._.A 3.5.1.-.P ;+|.|.[.d.#+$+t |.F U E :.-.(._.o j o W ",
"k.s+o 4 t./+A.k.|.F c.(.C R C ~.E |.E 0 o o F d.&+].6.r.6.F <.i+u+<.A.U.M r.M L H 1.X T ;+t.|.r :.d.F.r.D U F  .|.-.2.6.t F #.|.",
"-.o+m ( 1.t.r.t.@.H 6.U.:.[.[.[.d.T 2 D ( _ k.6.:.R 1.-.W U <.(+(+(+O.R.).=.H l T C W W $+-.@.X C d.3.v.=.[.R.(.d.X.].B.q U o $.",
"2+|.P.(.e 6.5.F.@.q (.d.C J A.|.c.:.i _.R E.#.P s.0.0.:.[.~.<.i+M.i+n.,.5.-.q W 6 a g.K.c._.+.j :.[.*.-.T F :.q.t.h.o.-./.0 s r ",
"l+$.1.5.o -.P.3.-.K 1.6.J T f._.r._.T I.[.6 4 R X f.k.W d.t.M.u+<.i+/.@.F._.0 F y W :.c.R (.5.4.t t #.R.3.U W v.W.T o.q 6.:.Z  .",
"P.g.Z 3.4.t.P.t.-.@.].g.r E ~._.U.X c.[.N.|.U f.|.i.(.y.|.g.M.B+<.i+F.P._.3.t F |.|._.f.Z U O q.P U X (.I.c.X R.M 6.r.R.g.r.6.}+",
"3+(.k.N._.S.R.;+@.].:.6.2.6.6.1.J.*.F f.f.W :.g.g.e+P.R 6.g.4+B+M.i+U c.X R :.6 g.[.f.:.:.o c.k.Q.(.d.q 6.B.6.5.v.H.@.T F.*.|.}+",
"t./+_.R g.3.>+H.=.-.d.d.#+#+I.C h.=.5.T :.P r.c.r.U.|.-.(.:.9+B+(+p+f.[.t W I.Z #.}+U ~.|.|.U #.;+k+'+D.:.C J.g.5.r.~.g.[.:.d.:.",
":.'+R.:.(.6.R.d.R Q.-.:.U -.6.j.].4.V.R.r.v.6.d.$+R g.[.g.n.4+B+u+M.I.,+6.R./+k.[.7+t :.[.R.W S.c.U.y.&.W.R d.d.;+F.A @.|.o _.T ",
"R }+F.t.t.q -. .6.[.U T (.-.O.B.*.B.6.R.c.r.I.S.-+K.d.f.f.-.4+B+B+M.2+s.4.P f.S.i.,+a.R =.0.I.k.d.P.k.|.g.g.S.i.R.l -.U y :.d.R.",
":.A.t.d.(.C F.6.|._.r.3.j.].6.r.3.P.R.g.g.R.6.t.g.I.r.*._.}.4+i+u+M.#.#.#.s.d.d+S.c.[.:.J i.6.k.g.6.6.d.R.g.N.2+R.(.R k.W |.S.g.",
"i.G.g.d.-.Q.d.~.i.*.5.d.5.6.6.6.6.P.t.W.I.I.P r.1.6.F.5.v.r.4+i+i+m.#.s.f./+d.)+R.f.k.W Q ;+g.t.k.$+6.F.3+r.f.N.6.I.f.K.q.;+;+:.",
"t.:.R.:.g.A.G.4.R P 6.-.5.5.3.T ^+A.R.I.I.5.3.F.R *.5.5.6.-.8.u+(+G.f.|.|.;+@+R.-+4+k.k.:.S.f.6.T [.0.F./+J.t.R.[.k.K.c.q.'+R.t.",
"(.F :.f.|.d.t.S.t Q T d.v.F.6.6.i.'+:+t.6.M -.g.d.r.M 6.6.-.G.i+(+G.T ~.c.c.K./+_.5.P.|.k.g.P.Q.O.r._.:.R.$+r.R.d.R.R.c.t.'+g.Q.",
"(.(.G.|.2+i.R.D.|.4.Q.P.R X ~.3.R P.*+t.6.6.t.d.W.q._.6.d.d.D.i+(+8.L R R E R.K._.-.3.4.t.k.:.P.Y.2.6.d.)+-+I.>+U.N.t.S.Q.d.N.R.",
"*.d.C.f.S.[.(.D.R.I.U.r.d.:.>+Q. .P.T.1.6.F.d.:.R.6.~._.g.i.i.i+(+G._.R X U i.k.:.-.5.M d.;+W g.F.r.v.R. .S.d+>+;+;+k+R.Q.t.A./+",
"*.g.N.N.N.:.6.)+[+$+F.d.d.P.-.g.G.'+U.o. .5.'+6.6.6._.r.R #.k.(+M.G.Q ~.Q Z C.|.C.E =.~.[.;+>+I.P.>+$+-+R.G.A.c+;+<+j+i.;+>+U.R.",
"~.k.a.$+R o Q.t.i.T 6.$+k.Q.T R.!+S.(.5.r.3+O.W.:.t.R W.-.:.k.(+M.8.P U R k.#.U u.o g.d.f.}+;+P.r.{+-+S.s.<+-+$+,+/+,+>+)+F.F.6.",
":.~.q.c.m q T _._.|.N.:.I.P.d.I.g.g.F.{+'+)+3+@+N.I.H.r.R.V #.i+M.|.=.S m Q [.:.d.f.t.6.g.W $+C.(.~+r.[.s.u.F S.,+K.r.~+W.v.B.'+",
"K.N.s.S.C.F :.R.P._.R.g.;+t.(.d._.5.@.O.t.O.J.6.c.c.H.P.i.E Q (+(+T *.*.=.O m =.|.P :.(.g.#.R.R.P.Q.d.~.f.f.[.f.c.-+d.r.J._.P.'+",
"R.V ~.N.D c.d. .3.C.R.d.>+6.i.Q.-.c.Q.r.Q.%+P.d.$+K._.6.d.l T M.(+E Q ).N O U F [.0.U k.R.[.g.F.d.t.g.k.S.N.f.s.a.V.3.+.5.#+r.Y.",
"R.~.Q m :.M [.|.5.i.C.|.Q.d.R P 6.P.F.5.J.%+y.d.[.R k +.5.A -.9+M.E {.s D P P t F f.:.<+S.k.d.Q.d.S.i.>+:.k.S.I.I.S.c.P -.5.F.4.",
"_.{.[.F H :.|.X @.-.R.r.i.A.W k.R.i.P.d.n.P.S.A.P.-.A T /.X -.e.8.:.Q i 4.A Q f.6 6 :.,+_.g.3.@.g.d.P.F.*.4._.N.c.d.W R 1.P.I 3.",
"~.Q g.I.V c.|.r  .P.A.q.#.g.;+'+g.{+R.W.5.O.D.G.-.5.:.P @.d.J.i.$.*.P M U k.Z F W [.6.S.I._.6.R I._.d.B.f.R &.:.d.[.d.=.T i.K T ",
"_.A V r.[.k.N.f.s.k.I.R.W |.F.P.R.#+>+R.R.r.O.[+t.6.Q.R M *.F.E _.P =.D #.y v s s :.q.;+:.:.3.:.T i.;+5.q.F D.A.i.N.C.V o D.T F ",
"a.[.#.d.N.f.t k.7+=+q.6.W |.i.t.r.6.Q.W.r.P.&+F.6.{+6.T _.0._.:.r.m 6.d.f.V #.W _.d.f.k.f.N.L *._.R.r.K 4.|.t.5.U.R.f.|.:.f.o s.",
"s.k.|._.K.C.S.|.-+;+I.t.:.|.y.d.P.>+'+d.P.g.y.6.Q.F.I.6.6.d.d.6.P D V.g.o D t |.|.g.[.k.|.c.:.*.f.R R 5.-.>+P.R.t.Q.Q.|.%.g. .E.",
"F.t.A.:.R.}+2+k.d.g.q.R.k.A.P.:.t.d.6.W.R.-+A.d.t.F.5.t.(._.4.i D f.c._.K.y %.y t.k.k.[.|.;.d.-.f.{ #.G.P.P.R.;+c.k.c.s.k.-.1./+",
"Q.r.[+S.C.<+A.G.k.q.r.t.G.)+;+s.R 6._.F t.A.U.>+:.r..+P.g.6.4.Q [.V U V p.=+u.%. . .S.{.G.E.t 0.4.E X t.|.'+F.d+f.Z d.f.s.(.o.C.",
"P.&.O.U.C.2+C._.F._.d.S.G.s.2+k.|.t.S.E.R.k.t.t.c.R A.-+d.6.:.i.|.i.#.s s s.S.%.6 ;+s.a.T :.W /+N.Q.i.X $.!+>+5.F.g.I.#.2+|.K }+"};
