/* XPM */
static char * item_rot_3a_64_xpm[] = {
"64 64 255 2",
"  	c #000000",
". 	c #190907",
"+ 	c #340301",
"@ 	c #270531",
"# 	c #250A07",
"$ 	c #0B102B",
"% 	c #4D1615",
"& 	c #44270A",
"* 	c #47251D",
"= 	c #45252B",
"- 	c #2C2D38",
"; 	c #3E2C21",
"> 	c #392F2E",
", 	c #4E3204",
"' 	c #563E32",
") 	c #4B433E",
"! 	c #5B4647",
"~ 	c #584C3B",
"{ 	c #4E4E54",
"] 	c #644D43",
"^ 	c #5B524C",
"/ 	c #3C602E",
"( 	c #496727",
"_ 	c #3D6C25",
": 	c #715C59",
"< 	c #6B6058",
"[ 	c #666162",
"} 	c #457038",
"| 	c #786153",
"1 	c #41791F",
"2 	c #74664E",
"3 	c #487B31",
"4 	c #537834",
"5 	c #4D794D",
"6 	c #5A7641",
"7 	c #58764F",
"8 	c #806A69",
"9 	c #517D44",
"0 	c #7D6E5F",
"a 	c #796F67",
"b 	c #747071",
"c 	c #617E2B",
"d 	c #57832B",
"e 	c #50872C",
"f 	c #51891F",
"g 	c #5F8437",
"h 	c #538740",
"i 	c #548837",
"j 	c #5E8541",
"k 	c #857A72",
"l 	c #817B7C",
"m 	c #AA717B",
"n 	c #5C8D50",
"o 	c #678A52",
"p 	c #5C8D58",
"q 	c #668A5F",
"r 	c #8E7E6D",
"s 	c #A27781",
"t 	c #5A9529",
"u 	c #818377",
"v 	c #7F8385",
"w 	c #589638",
"x 	c #5A944B",
"y 	c #5F9439",
"z 	c #639242",
"A 	c #6A9042",
"B 	c #5B9542",
"C 	c #69904C",
"D 	c #61934C",
"E 	c #8E827A",
"F 	c #898485",
"G 	c #6B952F",
"H 	c #7D8C63",
"I 	c #6B973E",
"J 	c #5E9F24",
"K 	c #5FA21C",
"L 	c #62A034",
"M 	c #6B9E35",
"N 	c #928C8E",
"O 	c #6A9F44",
"P 	c #BE7F8E",
"Q 	c #63A240",
"R 	c #6A9F4D",
"S 	c #65A056",
"T 	c #6F9C61",
"U 	c #63A247",
"V 	c #6C9E56",
"W 	c #699D6D",
"X 	c #62A24D",
"Y 	c #679F61",
"Z 	c #759C56",
"` 	c #789B63",
" .	c #759B6F",
"..	c #9D8E7D",
"+.	c #998F87",
"@.	c #90928F",
"#.	c #8F9387",
"$.	c #B08892",
"%.	c #8E9397",
"&.	c #B18B8D",
"*.	c #66AE1D",
"=.	c #68AC31",
"-.	c #70A93E",
";.	c #999596",
">.	c #68AC3D",
",.	c #69AE4D",
"'.	c #71AC4A",
").	c #71AC51",
"!.	c #71AB60",
"~.	c #70AC58",
"{.	c #6BAD60",
"].	c #67AF58",
"^.	c #7CA958",
"/.	c #7CAA51",
"(.	c #83A851",
"_.	c #79AA61",
":.	c #84A763",
"<.	c #7DAD36",
"[.	c #6CB32E",
"}.	c #8BA763",
"|.	c #A39D99",
"1.	c #75AF71",
"2.	c #78B528",
"3.	c #70B63B",
"4.	c #70B643",
"5.	c #C893A0",
"6.	c #7AB348",
"7.	c #BA989D",
"8.	c #70B64A",
"9.	c #83AD72",
"0.	c #9FA19E",
"a.	c #82AD7E",
"b.	c #A4A0A5",
"c.	c #70BB29",
"d.	c #9DA3A7",
"e.	c #ADA091",
"f.	c #A2A398",
"g.	c #9AAA68",
"h.	c #70BF17",
"i.	c #73B954",
"j.	c #70B962",
"k.	c #72B95B",
"l.	c #7BB75B",
"m.	c #74B86A",
"n.	c #7DB755",
"o.	c #7AB762",
"p.	c #71C204",
"q.	c #7CB66B",
"r.	c #87B55A",
"s.	c #87B562",
"t.	c #85B56C",
"u.	c #ACA5A1",
"v.	c #8FB45B",
"w.	c #95B16D",
"x.	c #7BBE50",
"y.	c #77C24D",
"z.	c #76C255",
"A.	c #78C346",
"B.	c #85BE52",
"C.	c #7AC43F",
"D.	c #9EB485",
"E.	c #82C248",
"F.	c #78C733",
"G.	c #86C165",
"H.	c #7EC45F",
"I.	c #88C06B",
"J.	c #7EC926",
"K.	c #7DC466",
"L.	c #80C36B",
"M.	c #87C25F",
"N.	c #85C081",
"O.	c #7FC374",
"P.	c #D3A4B0",
"Q.	c #81CB1C",
"R.	c #83C656",
"S.	c #85C839",
"T.	c #87C744",
"U.	c #94BE82",
"V.	c #C9AAAF",
"W.	c #88C376",
"X.	c #8DC54C",
"Y.	c #B2B2A6",
"Z.	c #B5B0B6",
"`.	c #B8B0AC",
" +	c #91C174",
".+	c #ACB3B7",
"++	c #93C16E",
"@+	c #99BB9F",
"#+	c #90C17A",
"$+	c #94BE8F",
"%+	c #BDB0A1",
"&+	c #B0B3AF",
"*+	c #95C266",
"=+	c #9BBF79",
"-+	c #8FC85B",
";+	c #88CB5B",
">+	c #89CC51",
",+	c #8FC96D",
"'+	c #89CB73",
")+	c #90CA66",
"!+	c #95CB4A",
"~+	c #90D213",
"{+	c #92CA74",
"]+	c #99CD40",
"^+	c #91CD7E",
"/+	c #A2CB61",
"(+	c #98CF62",
"_+	c #94CD8C",
":+	c #99D057",
"<+	c #A0CC70",
"[+	c #9ECC78",
"}+	c #9DCC7E",
"|+	c #ADC77F",
"1+	c #9CCC85",
"2+	c #99D070",
"3+	c #C2BEBA",
"4+	c #A7CB84",
"5+	c #DCB8BF",
"6+	c #9FCE9C",
"7+	c #DBB8C6",
"8+	c #A3CE91",
"9+	c #A1CCB3",
"0+	c #C0C2C5",
"a+	c #CEC1AC",
"b+	c #B6C8B8",
"c+	c #CBC2B5",
"d+	c #BCC5CF",
"e+	c #B1CF96",
"f+	c #AFCF9E",
"g+	c #AECFA8",
"h+	c #AAD578",
"i+	c #ACD682",
"j+	c #CCC7C3",
"k+	c #ABD68C",
"l+	c #CACDB1",
"m+	c #BBD7C1",
"n+	c #B3DDA0",
"o+	c #B2DEAC",
"p+	c #DFCFCE",
"q+	c #DED1BC",
"r+	c #E6CDD7",
"s+	c #DBD3C6",
"t+	c #BDDEB4",
"u+	c #D2D5D8",
"v+	c #D8D4CF",
"w+	c #CBD7E2",
"x+	c #D9E7F1",
"y+	c #EBE4D6",
"z+	c #F4E1E0",
"A+	c #E9E5E1",
"B+	c #E4E6E9",
"C+	c #F1EAD3",
"D+	c #F2F3F5",
"E+	c #FBF7ED",
"F+	c #FFFFFF",
"H.l.!+I.I.#+1+{+l.^._. +#+s.=+U.s. +[+ +o.l.l.#+9.t.B.2+^+R V I.D s.I.!.1.q q.I.1.U.U.~.o.t._.T #+U.}+}+U.r.H.x.M.A.H._.t.o.o.x.",
"C.M.T.o.#+t. +t.t.t.o.G.<+s.s.4+I.G.*+^.9.q.W.8+8+}+s.t.U.T T ).q.t.q.W.,+l. +#+q.t.$+C o.o.I._.#+B.*+s.t.I.l.4.;+x.l.l.T S k.i.",
"E.>+>+W.).B.t.9. .t. +!+M.q.R =+^.*+s.t._.s.-+)+_.~.i.I.V t.R z s.#+$+6+I.8.!.I.#+s.N.1.>.k.~.I.9.B.l.N._.9.1.).3.C.,+B.U.N.q.n.",
"F.,+S.H.4.I.U.U.$+_.-+G.x.G.Z 8+r.6.M.q.V '.8.o.!.x -.t.l._.R l.9.~.!. .T _.I.l.8+q.q.!.).R #+s.v.-.'.l.t.8+_.o.).-+6.[.^.9.W. +",
"n.G.J.C./.r.=+U.a.q.l.s.++t.e+=+6.g r.t._.D '.V S Y !.8.'.-.'.B T _.T !.o.o.!.G.8+t.o.9.!.).1+w.r.Q ^.-.x.I.}+W.C r.-.s.M.:.!.{+",
"n.s.J.6.!.l.U.$+$+W.I._.M.*+e+/.-+:. +_._.V t. +!.o T /.B.D.f+%+Y.e.+.D.++q.q.,+G.:._.q.a.s.#+` ).>.).s.).,.'.I.=+w.}.'.).l.T s.",
"x.R.'.C.~.L.#+w.:.I.9.s.z.s.=+B.++Z  +1+#+q.r.s.m.1.9.Y.v+A+y+j+j+c+c+`.%+e.D.A.H.~._.^.#+_.W.1.S D 6.r.s.3.,.~.n.*+:.I.o.).V ` ",
"L.-.r.A.U o._+9._.x.D  +o.^.:.++,+_.1+_.M.I.t.W.q.Y.s+3++.a b a k < r e.3+3+e.e.4+s.!.!.L.W.o.].q.q.~._.-+R '.).O 6.M./.G.W.o.^.",
"A.x.H.<.Z t.W.I.q.v.Z t.t.t._.8+o. +G.I. +8+ +U.a+%+F Z.B+u+A+E+y+s+v+e.k e.c+`.e.D._.l.O.~.B 9._.~.!.G.{+t.E.i.6.4.-+6.6.>.C.6.",
"s.A.z.!.t.1.!.n. +++}+8+U.$+8+}+o.).).` w.w.b+`.E Z.D+F+F+B+j+j+u.a+v+`.c+`...%+`.V.=+V :.U.R ).q.q.R 4.6.2+x.l.l.^.O R -+o.O X.",
"G.{+x.Q -.:.q ).l.8+U.t.z.I. +l.t.l.X g R U.%+F B+A+s+s+A+B+y+s+v+a+0+u.|.j+s+..%+Y.7.D.t.M.L.!.D 1.i.F.x.G.[+l.R :.C H -.y.,.l.",
"t.I.I -.~.T _.'.z.8+V ^.x.{+W.Z I.R.o.!.:.u.0.y+c+c+%+j+B+v+s+y+c+u.u.u.3+3+3+u...e.Y.e.r.'.4._.q.8.'.W.L.V t.W.^.` :.:.` x.G.1+",
"8+I./.R 9.T T 3._+G.l.i.4.q.t.W.).R.~._.D.|.3+%+u.3+y+E+F+D+y+s+q+3+`.u.u.3+;.|.s+r u.&+%+s.I.l.~.z V t.k._.~.i.O.V 9.s.G.,.C  +",
"1+i.I.1.O.X A.I.R '.R ^.8.l.^.o.U l.S D.;.`.e.`.s+y+E+E+F+A+y+s+c+3+`.3+Y.v+0.;.u.v+8 Z.b.Y.9.~.` Y _._+_+U.I.L.m.!.#+1.s._.q.^.",
"1+_.t.q.U 3.R.l.).'.k.q.l.q.q.S D i.W.b.3+u.;.|.3+j+E+F+F+B+v+3+3+j+v+`.u.j+0.;.0.u.Y.a Z.%+a.V o.N.$+q.I.$+l.o.!.q.t.9.!.t.t.^.",
"1+_.l.o.,.A.o.).o.).G.L.G.).X ~.o.o.#.3+e.;.u.u.u.3+D+F+F+j+3+3+3+3+u+`.`.Y.|.u.N +.|.a ;.b.e.)._.U.9.W.z _.#+#+#+#+!.$+y Z t._.",
"[+M. .~.q.l.l.#+n.x.G.x.M.-.z G.~. +u.3+E |.a+a+3++.s+F+F+3+v+j+v+&+u+3+`.Y.u.;.|.;.N 3+< u.V._.!._._._.D q.o U.a.3.'.#+t.R 9.t.",
"++W.U.#+W.o.i.s.'.6.l.3.E.'.R 4.n.f.`.`.+.|.%+q+c+u.`.A+F+3+A+v+s+j+j+v+`.Y.u.f.|.N 0.0+k |.&+Y.6+_.~.j V o.a.o U.K.C U._.9._.9.",
"r.o.).++t.8.l.s.6.s.r.-+E.).^.6.s.u.+.e.|.e.a+q+c+y+u.j+F+3+3+`.Y.#.u.D+`.u.u.0.|.b.N N |.a &+%+T ).V ` C _._.V t.O.T _.K.Z {+q.",
"l.O S U.#+'.l.n.I.s./.n.6.4.B.6. .3+0 k +.e.a+s+s+A+Z.`.y+3+a k k e...v+y+Y.u.0.|.3+N ;.j+8 u.Z. .D z 9.V T ` T o._.Y ` s.~.8+L.",
"L.!.x :.#+l.).M.G.M.I.6.4.4.C.l.f.`.E k ..k %+j+j+v+u+u.3+0+s+a+a+q+%+`.j+3+u.u.|.`.Z.N F +.N &+f.Y S !.T  .9. .q.V 9 q.T I.U.W.",
"o.W.q.U.s.M.x.r. +(+M.l.>.8.x.9.3+| E E +.e.q+E+s+s+A+`.u.j+j+a+a+a+q+..v+;.|.u.b.F l @.0.;.a .+`.!. .9.T a.U. . +).Q ^.U.$+W.O.",
"x #+_.1+_.G.x.V G.S.R.G.o.8.6.` 3+: 0 k E %+s+C+q+3+u+v+|.3+q+a+a+q+s+`.j+|.|.b.b.b.0.;.u.;.: &+V.a.H 9.@+=+s.~.l.R R 9.o.q.o.V ",
"X I.G.#+_.B.x./.s.E.I.q.j.i.~.#.`.< |.8 E ..y+s+c+3+u+j+u.u.j+a+a+%+|.F +.|.|.0.0.b.;.0.0+u+k b.`.D.q.n.s.I.G._._.R ^.~.V /.R /.",
"B n.I.I.x.B.M.w.I.H.k.1.~.,.,.&+F k +.k ....3+y+c+`.u+Y.`.0.v+%+a++.v+%+u.u.u.;.&+&+u.|.[ ;.`.N 3+D.9.).I.9.I.I.H.6.t.:.o.#+~.x.",
"L ).z.I.C.S.,+=+ +).3.B V #+q.3+] : +.k ..e.u.v+`.u.u+u.;.;.s+s+q+%+j+u.+.u.j+N ;.&+|.0+Z.+.u.k .+f.~._.I.W.6.t.W.q.k.V o.D -.6.",
"L z 8.M.E.A.I.q.q.'.Q R 9 _.t.3+] 0 8 k E e.+.3+`.|.j+&+N |.N 3+p+c+;.;.u.3+l v+;.u.N 3+u+E b.a Z.f.#+_.l.B.x.t.#+T S _.t._.n.6.",
"W.z G.B.,+M.i.~.~.8.3.8.S ~.` 3+k |.k k E e.e.3+`.e.`.j+|.`.;.u.+.j+Y.3+j+;.+.0+0.|.;.b N 0.;.[ .+%+~.l.q.).'.O _._.!.Z ^.R Q '.",
"{+i.x.G.M.t.n.).K.).E.l.!.~.H 3+E |.8 k E e.e.Z.3+c+u.u.0.3+|.+.`.Y.j+F @.|.;.;.3+;.;.;.0.0.|.a .+Y.R I.t.V Q '._.B >.n T _.T R ",
"{+8._.l.6._.z _.n.A.8.x.B.H.#.u.^ +.8 k E ..e.`.%+v+e.|.|.Z.|.+.e.u.B+&+0.0.;.;.;.Z.;.;.&+&+3+a .+3+!._.Z v.>.R U 8.U O n I.W.R.",
"9.).l.G.s.~.6.o.)+x.'.4.R.s.D.u.< : a a E E +.`.u.Y.e.+.3+0+u.3++.F 0.u+;.;.0.|.N @.N b.0.&+0+8 .+3+V ~.1.!.T R {.t.#+!.h W.).o.",
"o.t.M.!.o.^.Q o.l._.'.-.B.I.f.u.< k 0 a k k E Y.+.;.3+e.Y.v+3+0+u.u.`.u+&+0.0.;.;.;.l b.b l @.8 .+&+T T q.D ).V i.,.s.9._.9.a.R ",
"G.I.I.i.V !.V I.i.~.R O x.E.f.;.' |.< k k k +.u.+.E v+c+|.3+&+j+Z.+.b.B+v+;.0.|.0.%.l 3+&+0.b.k .+f.t.T m.1.V /.).q.t.9.T $+1+#+",
"$+N.Y ~.!.!.I.y.O q.Q i.n.M.f.u.< k : a k k ;.u.;.F u.u+N 3+3+v+j++.Z.Z.B+@.;.0.0.;.;.l N b.0+l .+f. +U.V q.o.'.).M.).q.1.O ^.1+",
"g+$+V a.U.U.^.~.R R O l.M.O #.|.~ < : a k a Y.`.s+`.a j+u.3+0+j+u+j+&+b.B+b.0.0.0.0.;.;.N @.@.b .+Y.,+q :.S ~.X _.'.n.i.R y R _.",
"t.g+D o s.U.I.t._.V o./.O ).u Y.] < : 0 a ^ `.u.Y.v+3+j+u.`.&+3+B+j+N 0+D+0+;.0.0.;.0.;.;.d.b.l .+D.x.x.S V V ^._./.3.i.T V 9._.",
").f+D h 6.M.B.s.4.>.n.M.l.o.H 3++.a < E k 0 `.`.|.j+3+j+&+u.3+3+D+u+&+&+B+j+%.0.d.N 0.u+Z.;.|.N d.D.8.y.,.!.I.n.l.F.3.E.D ~.C :.",
"8+t.M.n.L x.6.x.>.z n.l.'.-.:.3+k k N k l +.k a |.y+3+u.b.b.j+`.B+B+v+b.j+u+3+0.;.N @.b 3+u+u.|.0.D.'.'.).V _.H.s.c.C.8.4.D Y V ",
"8+9.6.8.V '.M.x.6.>.x.n.'.).9.Z.< ! < E E < +.|.u.F ;.j+0.N &+;.0+0.j+u+3+u+j+.+0.F b.F v b.N u.b. .9.I.8.~.` x.R.'.C.R x._.1.^.",
"M.t._.6.i.l.M.G./.4.3.r.V R 1.Z.< ^ +.0 k < a |.+.u.&+j+0+;.j+N u+d+.+3+3+u+d+0+0.;.%.v @.Y.E b.0._.~.).L.o.^.I.-.n.x.I.G.x.n.1+",
")+l.t.W.i. +I.#+3.3.l.n.4.6.l.f.;.a +.N a k : ..e.Y.u.|.u.u.j+3+j+u+0+Z.|.u+0+0+d.b.%.;.;.;.F d.D.n.l.R n.A.6.A.x.H.-./.B.'.q.1+",
"M.}+n.~.o.6.,+K.).'.r.l.G.M.G.u 3++.E F a a k 0 +.e.E |.`.`.`.Z.0+u+u+0+&+Z..+.+b.&+&+%.d.+.|.0.D.8+*+++l.O E.s.4.z.~.s.o.!.l._.",
"l.,+G.l.l.n.++l.~.R.'._.Y '.x./.3+: ) k k k +.< a +.;.;.+.|.F @.%.%.%.d..+.+d..+b.;.Z.d+b.E &+;.t.-+s.s.R.~.l.o.{+R.Q -.:.o l.).",
"~.1+B.G.s.R 6./.r.q.~.).^.8.R.x.u.l ] : |.a +.+.a < +.+.;.|.|.&+.+d..+.+.+.+%.d+d.0+%..+b.F d.@.r.M.t.q.o.G.#+t.I.I '.~.T _.l.I.",
"l.I.s.l./.R E.x.q.).x.i.F.3.x.x.H 3+~ ] ;.F ;.F +.a ^ < [ [ [ l F N ;.d.d.%.d.d+d+F 0.d.;.0.d.D.s.x.i.H.G.K.W.8+I.l.).9.!._. +o.",
"s.U.s.n.).M.l.!.t.'.y.l.8.n.x.x.:.3+< : F ;.[ < a l F N l F F @.F F %.%.d.v %.d+w+w+d.d.F d.b. +t.,+i.R.,+x.q.I.n.G.q.L.l. +[+o.",
"G._.I.o.o.s.U.i.~.'.l.'.A.A.8.'.=+u Z.+.^ [ a b b b b a [ [ [ [ [ [ v N v d+.+d+x+x+w+b.0.d.D.x.).o.k.R.1+E.G.I._.W.L.o.z.G.I.G.",
"n.V _.q.q.n.M. +T V '.l.y.B.x.x.t.D.3+F ^ [ b a a l l F F N N @.F v F l l Z.Z.0+x+x+d+N .+b.I.R.>+x.i.l.I.,+R.I.l.I.I.o.G.)+o.M.",
"^.^.U._.1+t.I.=+q.i.M.M.)._.~.n.~.G.b 0+! [ u.[ Y.l l v F F F %.N F F F @.l 3+d+D+x+;.&+.+D.l.M.C.3.n.l. +++G.++M.I.M. +M.H.I.G.",
"4.r.#+t.W._./. +I.G.-+x.l.^.++B./.M.w.|.Y.< ^ [ a a ;.u.l u F N Y.;.F ;.d..+d..+B+Z.;.0+f.{+_.G.R.R.x.I._. +1+,+ + +1+I.B.M.t.^+",
",.o.O.O.I.l.n.++=+,+E.l.l.M.'.s.=+)+-+q 3+;.< < b ^ a 3+b u.&+l b u+d.F d+w+w+w+.+;.0+0.1.#+++G.H.,+I.'+I.U.G.}+#+}+4+t.[+{+)+I.",
"o.t.q.)+~.R r.r.t.).n.I.I.r.R L.++ +n.r.< j+F ! b [ F F < ;.@.b %.%.w+d+d+w+x+d+;.0+0+D.q.1+=+G.n.-+{+W.W.1+ +,+^+^+{+)+{+R.x.n.",
"_.~.z.o.X C ).).~.t.W._.G.M.l.G.G.q.B.-+w.[ v+0.^ E +.[ a b Z.[ j+b d+x+x+w+0+;.&+0+f.n.o._.,+#+l.-+R.o.N.N.V  +^+L.n.)+R.x.C.)+",
"L.O.W.#+#+V !.I.M.~.I.G.{+G.n.l.~.x.4.X.G.=+[ 0+j+b ) [ < Z.b F F b .+x+w+u.b.Z..+a.o.l.G.9.I.G.M.M.l.k.q.q.m.q.K.'+r.x.T.k.H.)+",
"W.!.!.W.S o.o.^.i.#+I.l.,+l.t.B.'.o.R.x.R.>+U.[ N v+j+;.a { [ l v d.w+j+|.&+.+d.$+o.T t.G.q.s.B.l.M.o.W.#+I.q.O.q.M.x.>.4.M.x.E.",
"I.!.].B l.U o._.6.t.U.9.M.l.V R n.M.E.8.E.>+*+w.u < @.j+v+v+0+d+d+0+u.u.0.%.0.9.V q.l.}+I.t.l.B.l. +I.++o.t. +G.G.#+o.R '.A.x.i.",
"~.!.!.V Q _.q.^.-.6.I.n.t.t._.t.G.s.M.l.C.M.++I.H.D.u ^ b F N ;.N F F v ;.a.!.q.p o _.#+l.G.8.-.q.l.M.E.'.i.).I.o.l.T ).6.M.=.8.",
"~.].s.G.!.o.:.V ^.M.I.H.:.s.=+)+o.-+G.R.6.>+++=+'.6.o.a.#.#.u N v #.f.a.T 9.1.V _._.i.#+G.~.n.).G.).l.E.q.).:._.l.o.l.)./.t.=.'.",
"i.U !.x._.9.W.q.9.9.G.I.` t.B.M.I.M.*+G.I.B.X.4+G.n.R.).U 8.x.R i.).,.S 9. . .Y q l.H. +_._.8._.).t.^+x.H.V  +I.t.W.#+!.D  +Z R ",
"1.o.9.l.W.t.T 9._+#+l.n._.s.I.M.n.n.B.M.x.M.;+B.n.-+n.).i.k.k.o.x.z x.o.t.T 1.!.~.l.q.t.t.O.>.8.~.I.x.=.i.q.G.6.M.++q._.!.t.D a.",
"N.9.o.k.L.U. +_. +^+G.s._._.G.l.M.,+)+n.M.o.G.6.M.B.G.n.n.l.o.x.).S H.o.S S Y s.o.q.q.t.q.o.~.'.t.V V 8.).,+M.I.G.B.M.:.9.s.^.$+",
"B.r.++l.I.$+4+t.l.o.H.I.t.I.M._.M.l.l.R.I. +++r.M.B.A.s.l.).i.B S q.m.i.I.T a. .r.t.9.m.t.}.l.8.q.9 9.U.H.M.I.^+o.t.q.O.9.'./.1+",
"R.n.}+ +U.}+I.U.9.z.R.G.=+++#+#+~.6.~.V M.I.M.++o.B.T.M.s.x.i.V !.!.~.!.O.^+a.a.:.^.#+!.U.U.T l.i.X !.r.s.)+R.}+q.1.l.q.a.n.C.N.",
"M.:.X.M.U.8+#+^.x.k.l. +#+W.$+9._.r.I.U.I.t.s.M.o.).*+,+l.x._.I.q.t._.Y Y a.#+9.o #+N.q./.s._.U.W.R.s.^.t.2+,+E.R.s.G.9.8+o.=.1+"};
