/* XPM */
static char * item_rot_1c_64_xpm[] = {
"64 64 256 2",
"  	c None",
". 	c #312A21",
"+ 	c #3A312C",
"@ 	c #3A3223",
"# 	c #393228",
"$ 	c #413A2F",
"% 	c #423A35",
"& 	c #473F2F",
"* 	c #463F34",
"= 	c #4E4535",
"- 	c #4D453B",
"; 	c #4C453F",
"> 	c #554D42",
", 	c #595040",
"' 	c #57504B",
") 	c #5A5347",
"! 	c #605847",
"~ 	c #60584D",
"{ 	c #615A54",
"] 	c #665D4C",
"^ 	c #655D52",
"/ 	c #695F49",
"( 	c #6A6257",
"_ 	c #6F6157",
": 	c #666457",
"< 	c #69635D",
"[ 	c #6C6352",
"} 	c #6F685C",
"| 	c #6E6861",
"1 	c #716857",
"2 	c #766D5C",
"3 	c #756D61",
"4 	c #746E67",
"5 	c #7F7067",
"6 	c #78726B",
"7 	c #7B7261",
"8 	c #7A7266",
"9 	c #777461",
"0 	c #7F7564",
"a 	c #857465",
"b 	c #7E766A",
"c 	c #84756B",
"d 	c #7B796C",
"e 	c #7D7966",
"f 	c #7F7872",
"g 	c #81796D",
"h 	c #837968",
"i 	c #837D76",
"j 	c #857D71",
"k 	c #877D6B",
"l 	c #827F6C",
"m 	c #817F71",
"n 	c #8B7C72",
"o 	c #8F8076",
"p 	c #8A8276",
"q 	c #868476",
"r 	c #888471",
"s 	c #8C8371",
"t 	c #8A847D",
"u 	c #8D8578",
"v 	c #8B897B",
"w 	c #978676",
"x 	c #8E8882",
"y 	c #928876",
"z 	c #91887C",
"A 	c #8D8A76",
"B 	c #98887E",
"C 	c #9B8B81",
"D 	c #958D80",
"E 	c #978D7B",
"F 	c #948E87",
"G 	c #93907C",
"H 	c #989083",
"I 	c #9A907E",
"J 	c #A08F7F",
"K 	c #9B9286",
"L 	c #9E927B",
"M 	c #9D9280",
"N 	c #999581",
"O 	c #A19288",
"P 	c #9A948D",
"Q 	c #9D9588",
"R 	c #9F9583",
"S 	c #A29886",
"T 	c #A1988C",
"U 	c #A6978D",
"V 	c #A89787",
"W 	c #9C9B8C",
"X 	c #9E9B86",
"Y 	c #A09A93",
"Z 	c #A59B89",
"` 	c #A49B8F",
" .	c #AC9C92",
"..	c #A69E91",
"+.	c #A89E8B",
"@.	c #A3A08C",
"#.	c #A2A092",
"$.	c #A49F98",
"%.	c #AAA08D",
"&.	c #A9A093",
"*.	c #ACA28F",
"=.	c #ABA295",
"-.	c #AAA39C",
";.	c #A7A597",
">.	c #B2A298",
",.	c #B4A292",
"'.	c #AEA492",
").	c #ADA497",
"!.	c #AAA691",
"~.	c #A7A79F",
"{.	c #ADA69F",
"].	c #AFA699",
"^.	c #B1A694",
"/.	c #B2A99D",
"(.	c #B4A997",
"_.	c #B8A89E",
":.	c #AEAC9E",
"<.	c #B0AC98",
"[.	c #B1ABA4",
"}.	c #B6AC99",
"|.	c #B5AC9F",
"1.	c #B9AE9C",
"2.	c #B7AFA2",
"3.	c #B7B197",
"4.	c #BEAEA3",
"5.	c #C0AE9E",
"6.	c #B4B2A4",
"7.	c #B6B29E",
"8.	c #B7B1AA",
"9.	c #BBB19E",
"0.	c #BAB1A4",
"a.	c #BBB2A5",
"b.	c #BDB2A0",
"c.	c #BFB5A2",
"d.	c #BEB5A8",
"e.	c #C4B4A9",
"f.	c #BDB6AF",
"g.	c #B9B8A9",
"h.	c #BBB8A3",
"i.	c #B7B9B3",
"j.	c #C2B7A5",
"k.	c #C1B8AB",
"l.	c #C3BAAD",
"m.	c #C5BAA7",
"n.	c #C2BBB4",
"o.	c #C0BDA8",
"p.	c #CABAB0",
"q.	c #C5BCAF",
"r.	c #BDBEB5",
"s.	c #C7BCA9",
"t.	c #C0BEAF",
"u.	c #C5BEB7",
"v.	c #C7BEB1",
"w.	c #C9BEAB",
"x.	c #C3C0AB",
"y.	c #C6C0A6",
"z.	c #CFBDAC",
"A.	c #CBC0AD",
"B.	c #C2C2B9",
"C.	c #C6C2AE",
"D.	c #CFBFB4",
"E.	c #CAC1B4",
"F.	c #D2C0AF",
"G.	c #C9C2BB",
"H.	c #CDC2AF",
"I.	c #C5C4B5",
"J.	c #CCC3B6",
"K.	c #CEC3B0",
"L.	c #C9C5B0",
"M.	c #CFC6B9",
"N.	c #D1C6B3",
"O.	c #CAC8B9",
"P.	c #CCC8B3",
"Q.	c #D7C5B4",
"R.	c #C9C9C0",
"S.	c #CFC8C1",
"T.	c #D1C8BB",
"U.	c #D3C8B5",
"V.	c #CECAB5",
"W.	c #D7C7BC",
"X.	c #D3CABD",
"Y.	c #D5CAB7",
"Z.	c #CFCCB7",
"`.	c #CECCBD",
" +	c #D8CCB9",
".+	c #D2CEB9",
"++	c #D4CDC6",
"@+	c #D6CDC0",
"#+	c #CFCFC6",
"$+	c #D1CFC0",
"%+	c #D3CFBA",
"&+	c #D4D0BB",
"*+	c #D8CFC2",
"=+	c #DACFBC",
"-+	c #DAD0C3",
";+	c #D6D2BD",
">+	c #DCD1BE",
",+	c #D5D3C4",
"'+	c #D9D2CB",
")+	c #DBD2C5",
"!+	c #D4D4CB",
"~+	c #D8D4BF",
"{+	c #DCD3C6",
"]+	c #D7D5C6",
"^+	c #D9D5C0",
"/+	c #E4D3C8",
"(+	c #DED5C8",
"_+	c #E0D5C2",
":+	c #D7D7CE",
"<+	c #D9D7C8",
"[+	c #DBD7C2",
"}+	c #DDD6CE",
"|+	c #E0D6C9",
"1+	c #E1D8CB",
"2+	c #DCDACB",
"3+	c #DEDAC5",
"4+	c #E4D9C6",
"5+	c #DBDBD2",
"6+	c #E1DAD3",
"7+	c #E3DACC",
"8+	c #E5DBCE",
"9+	c #DFDDCE",
"0+	c #E1DDC8",
"a+	c #E7DED1",
"b+	c #E2E0D1",
"c+	c #E4E0CB",
"d+	c #EEDDD2",
"e+	c #E6DFD8",
"f+	c #E1E2D9",
"g+	c #EAE0D3",
"h+	c #ECE0CD",
"i+	c #EDDFD9",
"j+	c #E9E2DB",
"k+	c #ECE2D5",
"l+	c #E6E4D4",
"m+	c #E8E4CE",
"n+	c #EEE5D7",
"o+	c #E9E7D8",
"p+	c #EBE7D2",
"q+	c #EDE6DF",
"r+	c #E7E8DE",
"s+	c #F1E7DA",
"t+	c #F3EADC",
"u+	c #ECECE3",
"v+	c #EEECDD",
"w+	c #F2EBE4",
"x+	c #F2EDD8",
"y+	c #F7EDE0",
"z+	c #F3F1E2",
"A+	c #F8F1E9",
"B+	c #F2F3EA",
"C+	c #FBF1E4",
"D+	c #F7F2F1",
"E+	c #F8F6E7",
"F+	c #FEF7F1",
"G+	c #FAFBF2",
"                                                          S.$+O.                                                                ",
"                                                    M.v.E.U.U.Y.T.E.X.                                                          ",
"                                                  S.X.l.&.E j p T l.V.J.                                                        ",
"                                                T.T.R 7 R 2.k.k.|.K z A.M.                                                      ",
"                                              X.v.k z v.X.*+@+*+*+.+q.K d.X.                                                    ",
"                                            M.E.8 &.X.-+[+^+<+(+(+3+*+M.).a.X.                                                  ",
"                                          $+M.8 ].*+{+1+(+|+(+2+(+)+~+*+.+2.k.@+                                                ",
"                                          .+H T J.)+a+(+*+-+@+@+T.M.@+;+@+X.].v.                                                ",
"                                        `.a.j T.X.T.}+e+|+a.0.|.|.|.@+*+@+@+M.` V.                                              ",
"                                        X.g l.(+T.2.)+-+T.^._.a.|+@+M.X.*+-+*+v.2.J.                                            ",
"                                      X.0.F *+9+*+).]./.).*.(.(.J.{+1+J.v.*+)+*+].E.                                            ",
"                                      M.q E.2+9+*+a.b+,+2./.^.^.l.T.T./.1.d.(+-+@+/.                                            ",
"                                    $+l.H )+9+}+-+E.o+q+++_.}.(.a.a.=.=.}.b.{+(+X.].J.                                          ",
"                                    X.Q l.(+b+9+{+X.8+7+b+k.(._.M.8+X.a.}.1.E.*+2.v.1.                                          ",
"                                    T.p *+1+a+6+(+E.G.d.k./.)./.8+8+7+d.}.(.k.0.H J.a.J.                                        ",
"                                  S.a.$.}+b+k+a+(+1+l+S.G.l.=./.l.v.@+k.}.(.b+)+).J.E.d.                                        ",
"                                  E.K G.9+e+e+k+1+].d.J.X.d./.9.8+M.q...(./.7+X.J.E.^+9.                                        ",
"                                  v.p '+6+7+{+k+8+).` Q E M.7+)+*+T.(+d.1.].E.s.).q.^+d.X.                                      ",
"                                  b.F )+6+}+,+e+9+/.].=.].l.M.(+{+@+v.M.*+E.7+)+l.l.3+L.q.                                      ",
"                                J.).:.J.u+6+-+a+*+).).).].a.X.q..+1+b+l.@+*+` ).H k.3+;+a.                                      ",
"                                l.H n.*+G.q+{+G.*+].=.).&.d.-+T.T.v.q./.M.@+..].Q v.3+^+h.                                      ",
"                                J.u $+{+a.6+'+Y 9+].).].].v.*+E..+-+T.d.M.M.).).Z E.-+&+k.O.                                    ",
"                                v.p ++T.)+++'+w+b+E.*+{+@+v.J.M.T.[+*+l.M.*+^.%.+.q.)+T.k.v.                                    ",
"                                l.t T.).p H H F O.J.)+a+|+-+v.T.M.d.l.].M.@+a.|.&.d.6+)+d.a.                                    ",
"                                k.F @+&+J.z H a.,+].@+*+E.E.)+(+)+k.k.q.M.X.{+(+@+l.$+u.T.|.                                    ",
"                                a.$.X.&+J.D K E.9+|./.|.D |.1+|+X.(+-+(+k+a+l.X.d.d.J.u.(+].                                    ",
"                              E.2./.&+&+k.a.l.k.9+].*+<+0./.l.O.0.k.@+l.@+@+&.q.` 2.2.K /.0.                                    ",
"                              v.].` T.&+v.@+,+q.1+l.k+j+@+|.T.X.q.E.J.C.J.d.0.;+` v.l.T &+d.                                    ",
"                              J.&...T.@+@+{+1+(+1+@+{+,+M.l.@+d.E.%+l.P.Z.q.l.{+E.C.C.l.&+d.E.                                  ",
"                              q.&./.M.;+*+2+1+|+2+d.k.).).2./.J.).q.T.<.Z.X.0.P.v.a.[+;+~+a.v.                                  ",
"                              d.T ].T.&+)+(+(+7+1+@+a+)+a+X.k.v.).).x.b.x.d.v.d./.|.{+[+[+d.q.                                  ",
"                              0...).M..+*+(+7+a+7+2.&.2.).=.-+0.C.(+M.)+q.v.7.T.k.).[+3+^+a.d.                                  ",
"                              d.&.).T.%+;+(+1+a+a+k.&.&.T =.l.L.E.(+|+T..+T.].R H d.3+0+~+d.a.                                  ",
"                              l.].].M.%+&+)+]+8+a+M.|._._.=.a.M.q.k.T.k.^+@+a.=...q.[+^+~+k.2.                                  ",
"                              k.|...M.X.@+(+@+(+l+M.=.(.|.|.*+@+V.(+)+T.X.X.@+'.Z J.-+.+~+l.0.                                  ",
"                              I.k.T C.@+@+-+T.*+a+@+'.^.(.-+E.@+M.7+c.L.J.j.*+].S J.b+M.M.a.a.                                  ",
"                                l.D C.X.M.l+O.T.6+X.d.'.a.@+X.E.T.k.<...M.E.7+2.+.k.}+a.P.d.d.                                  ",
"                                o.D v..+.+q.j+M.f.{+a.'.l.*+J.*+)+@+M.X.)+w+@+k.'.v.M.X.{+9.|.                                  ",
"                                d.n k.P.X.0.O.X.2.<+E.|.X.J.X.w+T.J.M.v.b+2+J.'.).k.` x k.0.                                    ",
"                                k.t k.T.&+7+T.J.6+l+@+a.E.v.b+}+X.d.` v.1+)+k.u ^.j.` z .+2.                                    ",
"                                d.D d.T.l.T ` D p 2.-+l.|.).o+E.M.&.].!.P.v./.).*+9+&.` @+2.                                    ",
"                                d.&.|.V.V.l.&.j a.(+2+J.K ).(+a.a.T '.=.a.J.Q |.7+8+%+V.M.|.                                    ",
"                                q.|.T q.V.E.H ` /.7+8+<+2.d.d.J.]...%.%.` 2.K E.1+[+2+U.E.}.                                    ",
"                                  l.Q l.V.C.).J.|.1+7+9+.+0.` v.H ` +.&.Z ` |.3+7+)+*+T.d.|.                                    ",
"                                  q.H d..+x.J.@+T.1+7+9+(+v.Q |.Q ` &.&.d.T *+0+3+^+[+P.l.].                                    ",
"                                  l.` k.Z.Z.,+,+]+,+(+2+1+;+v...d.q...d.Q k.^+^+)+X.;+M.j.                                      ",
"                                  k.a...L.&+^+~+^+~+[+^+{+,+)+.+a.).v.].J.V.@+{+8+T.&+C.}.                                      ",
"                                    q.` k.Z.;+[+^+~+~+E.7+)+^+&+*+@+].P.)+%+X.d.k.E.V.b.=.                                      ",
"                                    o.).a.V..+;+~+;+&+J.*+a+)+T.~+3+^+Z.%+H.M.d.k.d.s.}.).                                      ",
"                                    k.d./.P.V.%+;+;+V.X.a.=.E.l.&+[+&+^+7+E.P.s.m.d.s.9.                                        ",
"                                      q.&.E.v.V.;+&+v.*+<.9.d.d.q.~+%+0.0.C.C.d.s.|.9.].                                        ",
"                                      d.d.l.q.L.Z.;+A.-+C.j.q.T.v.E.%+d.j.o.d.j.E.2.1.].                                        ",
"                                      d.q.|.J.L.Z.&+|.0.1+w.C.7.&.b.P.c.d.s.].v.Z.7.1.                                          ",
"                                        a.0.q.L.P.J.P.c.E.q.d.%+|.7.E.|.j.c.c.` !.a.<.                                          ",
"                                        6.s.0.M.v.l.E.v.q.a.7.C.&+7.q.|.j.1.m.a.x.2.T                                           ",
"                                          2.q.q.J.<.)+*+L.|.w.&.E.<.0.l.J.^.j.c.d.!.                                            ",
"                                            j.k.P.c.].M.&.d.T.^.].<.=.j.d.1.c.l.|.                                              ",
"                                            ).E.q.H.a.&.1.C.d.L.).0.d.S ^.0.q.).].                                              ",
"                                              |.V.q.X.v.l.L.a.I ..l.k.d.b.E.|.].                                                ",
"                                                2.T.A.H.l.v.s.<.j.j.j.s.P.0.^.                                                  ",
"                                                  ].A.M.m.q.H.A.N.s.j.l.b.^.                                                    ",
"                                                    &.9.@+l.q.l.j.b.m.9...                                                      ",
"                                                      $.=.b.m.s.j.1.@.T                                                         ",
"                                                          {.` ` T K                                                             "};
