/* XPM */
static char * item_rot_1a_64_xpm[] = {
"64 64 255 2",
"  	c #000000",
". 	c #1B0200",
"+ 	c #260601",
"@ 	c #271200",
"# 	c #322200",
"$ 	c #3F3200",
"% 	c #3D3023",
"& 	c #3E3210",
"* 	c #4D411E",
"= 	c #4D432D",
"- 	c #4D443B",
"; 	c #405932",
"> 	c #5B523B",
", 	c #5B5245",
"' 	c #3B6526",
") 	c #3E6A3A",
"! 	c #675E3F",
"~ 	c #6A604A",
"{ 	c #6A6152",
"] 	c #69615C",
"^ 	c #417430",
"/ 	c #4B7232",
"( 	c #597337",
"_ 	c #497C2C",
": 	c #53792C",
"< 	c #5A764C",
"[ 	c #4F7C4A",
"} 	c #4C803A",
"| 	c #567D3D",
"1 	c #79705E",
"2 	c #787065",
"3 	c #4C8328",
"4 	c #607D29",
"5 	c #558128",
"6 	c #7A7452",
"7 	c #4D871E",
"8 	c #508916",
"9 	c #4F8F3C",
"0 	c #598C3C",
"a 	c #857B6A",
"b 	c #628A3B",
"c 	c #618A42",
"d 	c #5F8A4B",
"e 	c #678849",
"f 	c #598D42",
"g 	c #588D4B",
"h 	c #5B8C56",
"i 	c #78844E",
"j 	c #5C8F34",
"k 	c #858166",
"l 	c #898075",
"m 	c #6A8F37",
"n 	c #5A9622",
"o 	c #589537",
"p 	c #5B952C",
"q 	c #6F8E41",
"r 	c #6B8F5D",
"s 	c #6A8F68",
"t 	c #8D8472",
"u 	c #63973C",
"v 	c #5C9C48",
"w 	c #69984E",
"x 	c #609B4E",
"y 	c #659A48",
"z 	c #6F9748",
"A 	c #659862",
"B 	c #689857",
"C 	c #5F9B56",
"D 	c #749556",
"E 	c #968D7A",
"F 	c #6EA13A",
"G 	c #68A33A",
"H 	c #6BA331",
"I 	c #63A720",
"J 	c #6CA146",
"K 	c #889663",
"L 	c #63A630",
"M 	c #63A63C",
"N 	c #74A046",
"O 	c #66A542",
"P 	c #65A549",
"Q 	c #969278",
"R 	c #999085",
"S 	c #68A954",
"T 	c #6FA754",
"U 	c #76A554",
"V 	c #6EA75A",
"W 	c #9E9582",
"X 	c #71A56F",
"Y 	c #6BA862",
"Z 	c #74A65A",
"` 	c #72A662",
" .	c #68AA5B",
"..	c #7DA45B",
"+.	c #7EA26F",
"@.	c #7BA464",
"#.	c #6CB13E",
"$.	c #6CB146",
"%.	c #6BB150",
"&.	c #73AF4D",
"*.	c #73B236",
"=.	c #72B054",
"-.	c #84AA5A",
";.	c #7AAE52",
">.	c #6CB536",
",.	c #6DB627",
"'.	c #A69D8A",
").	c #A69D91",
"!.	c #7AB242",
"~.	c #84AA82",
"{.	c #78B34A",
"].	c #9AA670",
"^.	c #80B24A",
"/.	c #73B666",
"(.	c #71B66E",
"_.	c #6FB860",
":.	c #7CB460",
"<.	c #76B660",
"[.	c #7DB466",
"}.	c #70BE21",
"|.	c #73BA47",
"1.	c #83B360",
"2.	c #7CB46E",
"3.	c #7DB37B",
"4.	c #8AB167",
"5.	c #74BA4E",
"6.	c #73BA55",
"7.	c #89B170",
"8.	c #72BA5C",
"9.	c #8BB07C",
"0.	c #7BB859",
"a.	c #83B65A",
"b.	c #AEA592",
"c.	c #ADA599",
"d.	c #9BAC8C",
"e.	c #73C234",
"f.	c #77C145",
"g.	c #77C23D",
"h.	c #7DC135",
"i.	c #82C044",
"j.	c #7BC255",
"k.	c #7BC25C",
"l.	c #79C44F",
"m.	c #82C063",
"n.	c #84C05D",
"o.	c #88BE70",
"p.	c #7DC271",
"q.	c #8BBF62",
"r.	c #7FC26B",
"s.	c #89BF6A",
"t.	c #B6AD9A",
"u.	c #7CC465",
"v.	c #B6ADA1",
"w.	c #88BF78",
"x.	c #7EC92D",
"y.	c #7DC37B",
"z.	c #7ECB1A",
"A.	c #83C552",
"B.	c #89C55A",
"C.	c #ACB781",
"D.	c #A5B891",
"E.	c #82CA3E",
"F.	c #98BF71",
"G.	c #8DC554",
"H.	c #97BF7A",
"I.	c #B9B298",
"J.	c #81CA4A",
"K.	c #95BF83",
"L.	c #A3BB83",
"M.	c #98BE91",
"N.	c #84C95C",
"O.	c #8AC483",
"P.	c #83C963",
"Q.	c #92C55C",
"R.	c #A3BF67",
"S.	c #89CF12",
"T.	c #8AC867",
"U.	c #91C671",
"V.	c #90C677",
"W.	c #A6BCA1",
"X.	c #93C769",
"Y.	c #BEB5A2",
"Z.	c #8ECB4E",
"`.	c #BEB5A9",
" +	c #90CC42",
".+	c #93CD32",
"++	c #89CB75",
"@+	c #91C794",
"#+	c #92C981",
"$+	c #96CE6E",
"%+	c #9FCE53",
"&+	c #99CF5E",
"*+	c #99CF65",
"=+	c #99CD7F",
"-+	c #99CE78",
";+	c #A3CB7D",
">+	c #A2CC86",
",+	c #A0CC8F",
"'+	c #AEC986",
")+	c #CEBCAB",
"!+	c #C6BEB1",
"~+	c #B4C87E",
"{+	c #C8BEAB",
"]+	c #A1CF72",
"^+	c #C3C0AA",
"/+	c #AACB91",
"(+	c #9EDA0F",
"_+	c #9BD18C",
":+	c #A7CC9D",
"<+	c #B1CA92",
"[+	c #AACF74",
"}+	c #A6CCA9",
"|+	c #BBCB9C",
"1+	c #B6CCAF",
"2+	c #D6C4B3",
"3+	c #D1C6B3",
"4+	c #CFC7BA",
"5+	c #AFD687",
"6+	c #CDC9B4",
"7+	c #AED690",
"8+	c #BAD29A",
"9+	c #B0D79B",
"0+	c #B5D9AA",
"a+	c #DFCCBB",
"b+	c #B7DAB7",
"c+	c #DACFBC",
"d+	c #D3D1C2",
"e+	c #D5D1BC",
"f+	c #C0D8BE",
"g+	c #D9D0C2",
"h+	c #C4D9B4",
"i+	c #DAD3B9",
"j+	c #DAD5CD",
"k+	c #E6D5CA",
"l+	c #E8D5C4",
"m+	c #E2D7C4",
"n+	c #DBD9CA",
"o+	c #DDD9C4",
"p+	c #E1D8CB",
"q+	c #CEE4BB",
"r+	c #F0DDCC",
"s+	c #EBDFCC",
"t+	c #E5E1CC",
"u+	c #E9E0D3",
"v+	c #EFDED5",
"w+	c #E3E2D3",
"x+	c #D6E8D5",
"y+	c #F1E9DC",
"z+	c #F0EAD5",
"A+	c #EFEAE3",
"B+	c #F7F2EB",
"C+	c #FAF2E4",
"D+	c #FAF4DF",
"E+	c #FFFBEC",
"F+	c #FFFFFF",
"m.<.Z.o.o.V.#+V.1.Z :.w.H.a.H.K.1.H.-+o.:.0.0.V.2.4.A.$+#+T w s.x 1.s.` 2.A 2.s.X K.K.V :.7.[.A w.K.=+;+9.a.N.j.n.f.n.@.7.m.:.l.",
"f.B.E.1.V.4.V.4.4.7.[.q.]+1.1.>+s.m.q.:.7.[.V.:+/+;+q.[.K.` B =.[.2.[.++U.1.V.w.2.2.K.w :.:.o.[.w.A.Q.4.7.s.0.|.B.l.=.:.` V =.5.",
"J.Z.Z.o.=.j.o.7.+.o.F.Z.n.[.J F.-.X.1.4.@.1.B.T.:.=.0.r.V 4.y y 4.O.,+:+o.|.` s.w.[.O.2.#.<.V o.7.A.n.w.[.7.2.&.*.i.U.A.K.O.[.0.",
"h.U.E.n.#.s.K.K.M.@.B.q.l.q.D D.a.^.n.2.V &.{./.Y g O 2.=.@.P :.2.Z V X V ` o.n.,+[.r.<.&.y V.1.q.!.&.0.o.,+:.[.=.G.i.*...7.o.U.",
"a.s.x.g.U q.H.K.9.[.;.m.s.4.<+;+^.b 1.[.:.w &.B S A ` {.&.#.&.v ` @.` Y :.:.<.m.,+7.<.2.` T =+7.a.u Z O 5.o.=+w.w a.#.1.n.@.Z U.",
"0.q.x.!.` :.#+M.M.w.s.:.P.s.<+;.G.1.F.:.` Z 7.o.[.9.d.|+|+^+Y.`.^+^+^+6+0+:+2.T.m.-.@.2.~.1.H.@.T O ;.1.&.%.&.q.H.4.-.&.T 0.r 1.",
"l.n.&.g.=.r.V.9.@.s.2.1.j.4.L.a.F.Z 7.,+K.2.L.|+^+4+4+e+e+6+!+^+!+{+3+c+e+e+4+|+8+7.[.:.H.Z w.2.B w |.a.q.*.P Z ^.X.1.s.:.&.V @.",
"s.$.a.f.v [.#+2.` j.w o.[.-.1.s.U.-.>+[.|+^+3+4+{+R a a l R '.).'.R E l E ).!+g+e+4+6+M.o.w.m. .[.2.Z @.q.w J =.O ^.n.;.q.o.<...",
"f.j.k.*...s.w.s.2.q.w o.s.[...>+[.o./+^+4+{+E 1 W `.6+e+g+g+g+o+g+g+e+6+4+6+c.t W !+g+4+h+o.v 2.` V <.q.U.[.i.5.5.!.Q.{.^.#.f.{.",
"1.f.k.Z 4.2.` 5.7.U.#+,+K.K.,+=+H.4+g+^+2 l Y.e+g+g+o+o+p+p+o+p+g+g+g+e+g+g+e+e+!+W a `.g+6+D.Z [.2.x !.{.$+j.0.0.;.J N B.:.J A.",
"m.V.A.G G [.B =.0.,+K.[.j.s.V./+g+4+t 2 {+g+o+o+o+o+n+n+p+p+e+g+g+g+g+e+e+4+e+g+c+g+4+'.l 4+6+^+d.X &.x.j.m.-+0.z @.e D N l.S a.",
"4.s.u $.V ` ` $.j.,+T Z 0.=+1+g+Y.] v.o+p+p+p+p+t+p+o+e+!+v.v.c.4+g+j+e+g+o+p+o+g+g+g+g+!+E c.6+4+>+&.w.r.B o.V.Z +.+.+...j.m.>+",
"/+s.;.P 9.r r |.#+m.:.;.m.^+e+R l !+n+w+j+g+g+!+`.v.t.b.!+4+g+g+g+p+!+{+3+!+4+d+g+g+g+p+g+!+c.R 4+!+^+7.<.:.=.=.3.B 9.1.s.T w o.",
">+=.s.2.2.P f.s.w &.T 7.6+g+a R g+4+w+p+u+u+g+!+t.c.t.c.d+g+d+4+4+`.).t.v.b.t.u+y+d+p+u+`.R o+6+t 3+!+h+,+K.s.r./.<.H.X 1.[.2.Z ",
"K.` 7.[.P #.B.<.T &.0.|+4+l ).g+o+b.t.g+!+4+`.'.).b.b.b.v.^+6+{+4+c.b.t.t.b.Y.Y.!+4+d+d+c.2 g+o+4+E 4+!+/+M.0.[.` 2.s.7.` o.4.-.",
",+@.0.<.S |.[.&.m.=.|+g+R ).o+p+p+t.b.!+`.!+b.v.t.t.t.b.v.4+d+e+6+`.t.t.t.c.c.b.!+`.Y.c.R E g+o+g+4+E 3+!+d.H.V.O.w.:.K.0 T [.@.",
"-+n.+.V 2.<.0.w.0.=+e+v.R n+p+w+p+c.4+A+A+B+j+`.t.t.t.b.4+y+u+y+u+d+^+t.b.b.b.`.C+n+t+p+v.t 4+p+o+o+6+R 4+^+s K.9.*.N H.[.w 2.4.",
"U.w.K.O.w./.6.1.&.6+!+2 g+p+p+p+u+!+p+u+w+t+4+4+t.c.c.b.e+e+4+6+g+v.c.Y.b.b.c.u+p+3+g+g+`.W 6+o+o+g+g+v.t.!+d+s O.m.w 9.@.+.@.9.",
"q.[.&.U.o.{.<.s./+g+2 4+p+u+p+p+u+{+4+d+).!+c.!+v.).t.b.g+d+4+Y.g+!+`.v.b.b.b.4+4+`.b.6+).E !+g+p+p+o+o+R !+^+M.o.w.` @.m.D U.[.",
":.J w K.V.&.0.s.e+v.c.p+p+u+u+w+t+`.p+w+j+p+4+`.!+!+3+!+g+4+`.^+!+v.v.e+3+6+!+4+p+o+n+w+E , !+g+o+p+p+g+4+W 3+^+7.` A @.[.Z /+r.",
"p.V g +.w.<.=.<+4+2 n+w+u+u+u+u+u+t.E E R E E b.u+g+t+p+o+w+u+p+u+g+4+o+g+e+t+E E E '.l W R !+g+o+p+g+g+g+b.^+`.:+B | 2.B o.K.O.",
"/.w.2.K.1.n.k.6+c.v.p+w+p+4+w+y+u+Y.).c.c.t.b.c.d+e+!+{+e+3+!+m+4+).t.6+!+g+4+'.).c.t.).).W 6+g+o+c+{+g+g+e+E !+6+Z O =.K.M.w.o.",
"v w.@.#+..m.H.{+2 g+p+u+j+4+u+p+j+v.'.).c.t.).c.e+n+4+4+6+4+e+u+!+!+v.!+e+d+e+b.).).t.'.b.R !+g+p+4+4+o+n+^+).!+Y.K.w 7.:.[.m.B ",
"P s.m.w.Z n.|+t.R g+v.A+A+4+A+R u+v.'.).).c.b.b.u+g+!+!+g+g+t+v.w+`.4+!+4+6+u+b.).b.b.).).W 6+v.w+w+e+y+R g+4+R Y.Y.U V S ;.J ;.",
"f 0.s.s.5.B.^+E 4+p+g+v.w+u+`.w+u+!+`.n+w+p+g+^+4+`.g+4+4+Y.v.t+v.t t.!+e+4+g+d+p+g+p+p+4+!+!+g+`.w+j+v.4+n+g+E !+`.H.4.[.w.<.5.",
"G U k.o.g.$+4+2 j+`.v.c.v.c.R v.4+`.!+d+d+j+v.!+n+!+4+n+p+e+Y.!+v.4+n+t+p+d+w+Y.6+6+g+g+b.E `.!+c.v.).c.`.4+e+).`.t.,+T <.x $.!.",
"L u 5.q.i.L.!+l n+e+e+Y.a l '.p+u+c.v.4+4+!+R ).o+u+n+u+^+g+p+g+u+4+g+z+o+z+g+E v.6+^+`.l R ^+g+!+v.1 c.v.`.6+4+).Y.:+Z 2.` ;.{.",
"w.u q.A.X.D.v.c.g+e+g+v.W v.E u+u+t.).n+4+4+R '.6+t.d+Y.).`.).w+t.b.^+t.g+c.Y.E 6+o+4+v.2 v.`.u+e+l `.E e+g+e+g+R ^+^+U -.T u &.",
"$+=.j.q.n.Y.).v.e+e+g+c.g+n+v.g+w+`.g+y+A+y+!+v.e+4+`.!+^+6+4+c.!+e+!+o+`.^+^+W t+g+t+e+4+6+v.p+v.e+o+`.6+o+4+g+E 6+^+d Z ` ` y ",
"U.5.` a.{.e+E c.e+e+e+g+o+p+p+p+p+!+!+!+!+4+R c.4+^+^+w+'.4+g+4+o+c.v.g+g+p+!+).^+`.{+6+'.E t.p+o+o+e+o+g+o+e+6+R 4+^+J g o.w.n.",
"7.&.0.m.1.6+l `.e+e+g+o+p+o+p+p+p+4+p+u+!+d+d+4+!+c.p+R '.c.E 4+t.c.^+'.t+`.b.^+p+g+^+6+Y.t.).4+p+o+g+o+o+o+4+4+).4+`.` f w.=.:.",
"m.w.m.Z [.!+2 v.4+4+e+o+p+p+t+u+p+t.).b.v.v.E E p+o+b.4+!+e+u+4+g+t+e+4+v.3+g+W c.Y.`.`.E l c.e+p+o+p+p+o+g+e+Y.R {+`.9.[.3.9.J ",
"m.s.s.6.T !+a `.4+e+e+g+g+p+u+u+u+`.c.b.t.c.'.b.`.c.6+!+^+6+p+g+p+4+Y.g+6+e+!+v.b.b.W b.W R !+g+t+p+t+o+o+g+g+6+W {+v.2.A M._+V.",
"K.O.V =.Z !+E Y.e+4+e+g+g+g+g+u+u+!+`.c.t.v.b.b.v.4+t+t.e+4+`.p+4+g+!+4+t+t+!+3+v.t.W ).'.c.g+o+t+!+g+o+g+g+4+6+).6+v.[.2.J ;.#+",
"1+M.B 9.K.6+).c.3+e+e+g+g+4+4+u+u+o+).'.t.).t.4+u+`.4+4+e+g+y+4+t.p+6+`.4+^+t.y+`.t.W W '.v.t+o+p+!+4+e+g+o+e+4+R !+t.=.w o w @.",
"7.0+h d q.^+).c.6+4+e+!+A+4+`.y+4+n+!+b.b.b.!+p+4+4+`.g+4+4+`.'.t.W b.!+4+b.g+j+d+Y.R E ).Y.`.A+B+!+!+n+).g+6+!+l !+b.5.B B +.[.",
"&.9+v | {.|+c.E !+6+e+6+R w+4+`.c.t+4+Y.'.Y.n+4+!+4+w+!+j+u+!+g+6+!+n+4+j+A+u+p+p+!+'.b.).g+`.W j+g+!+2 e+6+6+6+E {+D.f.y V w +.",
",+[.n.;.u L.`.a !+e+e+t+p+!+4+4+y+z+o+v.v.4+g+4+!+u+B+A+!+d+^+4+!+v.d+w+u+w+n+^+4+Y.R t.t.g+{+!+^+e+`.w+y+p+6+!+R t.>+&.!.d A w ",
",+7.^.|.B 7.!+l Y.4+!+).a v.a a E v.g+e+Y.!+).b.u+A+4+b.u+!+b.).W `.w+z+!+p+p+4+a 1 ).E t.Y.R l c.a E a R !+4+v.t.).;+w 0.Z 2...",
"n.4.@.5.6.s.`.W c.{+4+e+`.l E a o+t+u+n+6+t R b.u+j+v.b.3+E '.t.).c.W e+v.6+p+W E `.R 4+n+n+4+v.l t { c.o+e+!+R 6+'.k.s.m.j.0.>+",
"$+0.7.w.6.o.D.!+E `.4+e+).v.e+E 4+t+t+w+p+!+Y.`.c.`.6+p+E ).W b.'.t.).'.u+4+R a `.W {+u+u+u+u+!+W d+c.E o+4+6+R {+D.#.U A.$.[.>+",
"q.=+=.=.[.{.>+{+E !+e+e+!+o+g+4+g+p+p+w+p+p+6+c.W '.4+c.t ).).'.W b.'.'.W v.W R W 4+e+p+t+o+o+g+n+o+o+6+e+e+`.v.).>+Z 1.[.<.:.:.",
":.X.q.0.0.0.s.^+Y.'.`.e+g+g+g+o+e+g+o+n+p+p+o+4+t.'.).v.E '.'.b.'.t.W b.!+R l c.n+o+o+p+u+o+g+g+n+e+6+4+6+!+'.{+d.A.O #.@.B 0.T ",
"T >+A.m.1.w {.L.!+R Y.6+e+g+o+g+g+g+o+g+e+n+g+g+n+d+`.c.v.4+`.).'.!+`.c.l W 4+p+t+p+p+t+m+o+e+g+o+e+4+6+6+c.b.b.H.y $.Z ` ` 0.s.",
":.o.n.0.;.J i.m.Y.`.).6+6+e+e+e+o+e+g+!+!+u+p+n+g+o+e+e+4+Y.c.!+!+).'.^+4+6+e+o+o+e+n+p+!+e+g+o+g+e+4+4+e+b.{+Q w.;.=.2.Z @.o.m.",
"4.K.1.a.&.B.0.V D.!+).6+!+3+4+g+e+e+4+`.o+6+v.w+u+e+4+e+o+p+g+`.c.e+o+p+e+e+o+4+g+p+n+y+p+6+e+g+g+6+6+{+Y.`.'.K.0.m.2.r.k.V.-+:.",
"q.1.s.:.:.q.H.&.Z t.!+c.6+!+6+6+e+e+{+4+o+W c.'.c.v.{+4+g+o+o+g+o+!+e+4+6+6+4+6+o+'.t.c.o+6+!+4+e+4+`.t.'.Y.].s.:.o.r.<.k.T.T.q.",
"0.w -.r.[.a.n.w.A 7.v.!+v.4+!+4+4+g+c.e+e+4+Y.{+^+!+4+!+^+o+g+6+e+g+g+u+g+Y.Y.4+^+{+4+v.!+e+'.{+!+`.v.'.Y.R s.o.:.s.s.:.m.T.:.n.",
";.;.L.[.,+o.o.H.[.5.L.Y.`.!+6+!+3+6+!+t.b.p+e+{+Y.e+c.`.`.!+6+o+4+).t.c.e+Y.`.e+6+Y.6+6+t.4+'.!+{+^+'.{+'.L.m.U.B.o.m.V.n.n.o.s.",
"$.a.H.o.w.<.;.F.o.s.B.d.{+Y.4+6+Y.Y.6+6+v.!+g+t.c.o+!+c.b.`.t.g+b.6+{+t.6+^+v.`.!+).{+{+Y.e+W Y.!+t.Y.t.d.V.=+U.V.V.,+s.n.n.4.#+",
"$.:.o.o.o.:.a.F.H.U.A.k.d.{+!+!+{+W d+u+e+!+Y.t.`.'.e+4+6+v.t.e+).{+{+t.3+6+c.'.{+^+e+6+4+c.c.Y.W v.c.7.U.K.q.=+V.=+>+o.-+U.T.s.",
"<.o.r.T.=.w a.a.4.T 0.U.o.].Y.6+3+!+).b.b.W b.!+4+Y.W {+g+c.).4+c.Y.{+`.!+v.v.`.R `.6+6+b.b.4+).{+v.9.w.w.=+V.++#+#+V.X.-+A.A.0.",
"<.=.k.<.y y T =.=.2.o.Z m.n.D.`.6+!+c+3+`.{+{+{+`.4+).W 6+'.b.c.!+`.{+^+3+E ^+{+`.).W b.!+!+W `.b.H.V.[.w.w.V V.#+r.0.T.A.l.f.T.",
"r.p.w.V.w.T <.o.n.=.o.m.V.m.0.7.'.3+!+!+!+{+6+6+v.b.Y.).E v.6+b.W `.g+{+R t.^+Y.Y.v.^+e+t.v.{+Q F.n.0.8.2.2./.2.u.++a.j.J.=.n.T.",
"U.Y <.o.C [.:.;.5.H.s.0.U.0.[.0.4.d.t.3+4+`.!+!+{+b.'.c.`.^+3+`.v.'.W b.Y.Y.Y.Y.!+4+v.).Y.W Q n.0.q.m.o.V.o.[.w.2.P.5.#.|.P.j.i.",
"o.V  .v :.P :.:.|.4.K.2.n.0.T J a.s.s.W v.d+^+Y.3+3+{+!+{+^+`.`.Y.`.v.Y.`.!+4+!+).).{+v.'.7.0.B.:.o.o.X.:.7.w.m.m.V.<.P &.f.i.5.",
"=.Y ` T G ` 2.Z #.;.s.0.s.4.Z 7.q.s.n.s.1.Q c.!+3+{+3+{+{+^+t.{+`.e+e+e+`.Y.c.c.v.).Q L.0.m.&.#.m.a.n.A.$.6.=.o.:.k.` T ^.n.L |.",
"=.S [.m.Y [.[.w ;.q.s.k.+.[.H.T.m.Q.T.A.!.G.L.D.'.'.t.Y.`.Y.6+Y.Y.t.t.Y.Y.c.W Q W 9.a.V.s.=.0.T q.=.0.J.r.=.@.:.m.<.a.%.U o.L J ",
"=.O ` j.` 2.o.[.3.7.m.s.@.4.A.q.s.B.X.s.s.n.A.;+U.o.4.+.W Q ).'.W ).Q W Q ~.~.A A <.k.V.:.:.5.:.&.o.=+5.k.S F.s.s.o.w.Y y 7.N w ",
"2./.2.:.o.[.` 7.,+w.k.0.@.1.s.n.0.0.A.B.j.q.B.i.a.Q.0.T =.8.=.:.j.y 5.:.2.` 2.` =.:.[.o.2.o.O &.=.o.j.L 6.2.m.i.Q.s.2.[.` s.w 3.",
"w.7.[.6.r.K.w.@.U.#+m.q.:.@.q.a.n.X.T.0.n.[.q.{.B.A.m.0.0.0.0.5.T x m.:.B w A 1.[.[.[.2.[.[.<.$.2.T T |.=.U.n.o.m.B.n.1.9.1.;.K.",
"A.a.F.;.s.M.L.2.0.m.k.s.o.q.n.:.n.0.0.n.s.U.s.a.n.A.f.m.0.=.6.f C 2./.=.r.` ~.s a.2.3./.[.4.a.{.[.} +.K.n.B.s.=+[.o.[.2.2.&.;.#+",
"A.k.;+w.H.=+s.K.7.k.A.q.H.F.V.w.T {.=.T q.s.T.U.:.A.E.n.1.5.5.T ` ` V Y p.O.~.~...;.w./.K.K.B <.6.y Z a.1.T.A.=+[.X 0.2.9.;.h.w.",
"n.@.Z.q.9.,+H.=.A.=.k.U.H.w.,+7.@.a.o.K.s.o.n.n.[.T q.U.:.5.Z o.2.o.+.A Y 9.w.3.B V.w./.;.1.@.K.o.A.4...7.$+U.i.A.1.s.2.,+[.H K."};
