/* XPM */
static char *pacman_xpm[] = {
/* columns rows colors chars-per-pixel */
"32 32 3 1",
"  c #6B6B6B",  /* Background */
". c #FFFF00",  /* Yellow (Pac-Man) */
"X c #000000",  /* Black (Mouth) */
/* pixels */
"                                ",
"                                ",
"                                ",
"                                ",
"                                ",
"            .......             ",
"         ............           ",
"       ...............          ",
"     ..................         ",
"    ....................        ",
"   .....................        ",
"  ......................        ",
"  ......................        ",
" .......................        ",
" .......................        ",
"  ......................        ",
"  ......................        ",
"   .....................        ",
"    ....................        ",
"     ..................         ",
"      .................         ",
"        .............           ",
"         ............           ",
"           .........            ",
"             ......             ",
"                                ",
"                                ",
"                                ",
"                                ",
"                                ",
"                                ",
"                                "
}/* XPM */
static char *pacman_xpm[] = {
	/* columns rows colors chars-per-pixel */
	"32 32 3 1",
	"  c #6B6B6B",  /* Background */
	". c #FFFF00",  /* Yellow (Pac-Man) */
	"X c #000000",  /* Black (Mouth) */
	/* pixels */
	"                                ",
	"                                ",
	"                                ",
	"                                ",
	"                                ",
	"            .......             ",
	"         ............           ",
	"       ...............          ",
	"     ..................         ",
	"    ....................        ",
	"   .....................        ",
	"  ......................        ",
	"  ......................        ",
	" .......................        ",
	" .......................        ",
	"  ......................        ",
	"  ......................        ",
	"   .....................        ",
	"    ....................        ",
	"     ..................         ",
	"      .................         ",
	"        .............           ",
	"         ............           ",
	"           .........            ",
	"             ......             ",
	"                                ",
	"                                ",
	"                                ",
	"                                ",
	"                                ",
	"                                ",
	"                                "
};
