/* XPM */
static char * pacman_xpm[] = {
"16 16 4 1",
"  c #000000",
". c #FFFFFF",
"X c #FFFF00",
"# c #FF0000",
"                ",
"  #####         ",
" #     #        ",
"#  ###  #       ",
"#  #  # #       ",
"#  ###  #       ",
"#     #         ",
"  #####         ",
"                ",
"                ",
"                ",
"                ",
"                ",
"                ",
"                ",
"                "
};
