/* XPM */
static char *player_xpm[] = {
"32 32 4 1",
"  c None",
". c #FFFFFF",
"X c #000000",
"o c #FFD700",
"                                ",
"                                ",
"                                ",
"              XXXX              ",
"           XXX....XXX           ",
"         XX..........XX         ",
"       XX....oooooo....XX       ",
"      X....oo......oo....X      ",
"     X...oo..........oo...X     ",
"    X...o..............o...X    ",
"   X...o..............o....X    ",
"  X....o..............o....X    ",
"  X....o..............o....X    ",
" X.....oo..........oo.....X     ",
" X......oo......oo......XX      ",
" X.......oooooooo......XX       ",
"  XX..................XX        ",
"   XXXXXX......XXXXXXX          ",
"         XXXXXXXXX              ",
"                                ",
"                                ",
"                                ",
"                                ",
"                                ",
"                                ",
"                                ",
"                                ",
"                                ",
"                                ",
"                                ",
"                                ",
"                                "
};
