/* XPM */
static char * road_xpm[] = {
"64 64 3 1",
"  c #7B3F00",  // Dark brown for road
". c #C3A28C",  // Light brown for road
"X c #FFE4C4",  // Beige for surrounding
"                                                                ",
"                                                                ",
"                                                                ",
"                                                                ",
"                                                                ",
"                                                                ",
"                                                                ",
"                                                                ",
"                          ......                                ",
"                         ........                               ",
"                        ..........                              ",
"                       ............                             ",
"                      ..............                            ",
"                     ................                           ",
"                    ..................                          ",
"                   ....................                         ",
"                  ......................                        ",
"                 ........................                       ",
"                ..........................                      ",
"               ............................                     ",
"              ..............................                    ",
"             ................................                   ",
"            ..................................                  ",
"           ....................................                 ",
"          ......................................                ",
"         ........................................               ",
"        ..........................................              ",
"       ............................................             ",
"      ..............................................            ",
"     ................................................           ",
"    ..................................................          ",
"   ....................................................         ",
"  ......................................................        ",
" ........................................................       ",
" ........................................................       ",
"  ......................................................        ",
"   ....................................................         ",
"    ..................................................          ",
"     ................................................           ",
"      ..............................................            ",
"       ............................................             ",
"        ..........................................              ",
"         ........................................               ",
"          ......................................                ",
"           ....................................                 ",
"            ..................................                  ",
"             ................................                   ",
"              ..............................                    ",
"               ............................                     ",
"                ..........................                      ",
"                 ........................                       ",
"                  ......................                        ",
"                   ....................                         ",
"                    ..................                          ",
"                     ................                           ",
"                      ..............                            ",
"                       ............                             ",
"                        ..........                              ",
"                         ........                               ",
"                          ......                                ",
"                                                                ",
"                                                                ",
"                                                                ",
"                                                                ",
"                                                                ",
"                                                                ",
"                                                                "
};

