/* XPM */
static char *road_xpm[] = {
/* columns rows colors chars-per-pixel */
"32 32 6 1",
"  c #6B6B6B",
". c #4C4C4C",
"X c #888888",
"o c #2B2B2B",
"O c #A5A5A5",
"+ c #FFFFFF",
/* pixels */
"                                ",
"                                ",
"                                ",
"                                ",
"                                ",
"            ......              ",
"         ..XXXXXXXX..           ",
"        .XXXXXXXXXXXX.          ",
"       .XXXXOOOOXXXXXX.         ",
"      .XXXXOOOOOOXXXXXX.        ",
"      .XXXXOOOOOOXXXXXX.        ",
"      .XXXXXXXXXXXXXXOXX.       ",
"       .XXXXXXXXXXXXXX.         ",
"        ..XXXXXXXXXX..          ",
"          ..........            ",
"                                ",
"                                ",
"                                ",
"                                ",
"                                ",
"                                ",
"            ......              ",
"         ..XXXXXXXX..           ",
"        .XXXXXXXXXXXX.          ",
"       .XXXXOOOOXXXXXX.         ",
"      .XXXXOOOOOOXXXXXX.        ",
"      .XXXXOOOOOOXXXXXX.        ",
"      .XXXXXXXXXXXXXXOXX.       ",
"       .XXXXXXXXXXXXXX.         ",
"        ..XXXXXXXXXX..          ",
"          ..........            ",
"                                "
};

