/* XPM */
static char * floor_xpm[] = {
"16 16 2 1",
"  c #CCCCCC",
"# c #AAAAAA",
"################",
"#              #",
"#              #",
"#              #",
"#              #",
"#              #",
"#              #",
"#              #",
"#              #",
"#              #",
"#              #",
"#              #",
"#              #",
"#              #",
"#              #",
"################"
};
