/* XPM */
static char *road_xpm[] = {
"32 32 3 1",
"  c #A0522D",
". c #8B4513",
"o c #DEB887",
"................................",
"................................",
"................................",
"................................",
"................................",
"................................",
"........oooooo....oooooo........",
".......o......o..o......o.......",
"......o........oo........o......",
".....o....................o.....",
"....o......................o....",
"...o........................o...",
"..o..........................o..",
".o............................o.",
"................................",
"................................",
"................................",
"................................",
"................................",
"................................",
".o............................o.",
"..o..........................o..",
"...o........................o...",
"....o......................o....",
".....o....................o.....",
"......o........oo........o......",
".......o......o..o......o.......",
"........oooooo....oooooo........",
"................................",
"................................",
"................................",
"................................"
};

