/* XPM */
static char * 64_wall_xpm[] = {
"64 64 255 2",
"  	c #000000",
". 	c #050803",
"+ 	c #090C08",
"@ 	c #101310",
"# 	c #14160D",
"$ 	c #151714",
"% 	c #181A18",
"& 	c #1C1C15",
"* 	c #191E17",
"= 	c #1D1F1C",
"- 	c #1C2014",
"; 	c #212320",
"> 	c #1F251D",
", 	c #232615",
"' 	c #222619",
") 	c #24251E",
"! 	c #242624",
"~ 	c #282A28",
"{ 	c #2B2B24",
"] 	c #292D20",
"^ 	c #282E26",
"/ 	c #2D2F2C",
"( 	c #2F2F28",
"_ 	c #303523",
": 	c #323431",
"< 	c #30362E",
"[ 	c #34352D",
"} 	c #33372A",
"| 	c #373936",
"1 	c #3A3C39",
"2 	c #393F2C",
"3 	c #3B4032",
"4 	c #3A4037",
"5 	c #3F3F38",
"6 	c #3F413E",
"7 	c #3F482D",
"8 	c #434739",
"9 	c #444644",
"0 	c #45483F",
"a 	c #434A36",
"b 	c #4A4F41",
"c 	c #485137",
"d 	c #4C4E4C",
"e 	c #4E513E",
"f 	c #49533E",
"g 	c #4E5148",
"h 	c #4A5736",
"i 	c #515350",
"j 	c #575A52",
"k 	c #565B4C",
"l 	c #585A57",
"m 	c #555D43",
"n 	c #545D48",
"o 	c #535F3E",
"p 	c #5E615E",
"q 	c #606159",
"r 	c #5C6449",
"s 	c #5C644F",
"t 	c #5E6354",
"u 	c #5D6847",
"v 	c #5F665C",
"w 	c #646663",
"x 	c #61694E",
"y 	c #606954",
"z 	c #5F6B43",
"A 	c #656854",
"B 	c #66675F",
"C 	c #656A5B",
"D 	c #656E53",
"E 	c #646E58",
"F 	c #676E64",
"G 	c #657149",
"H 	c #627344",
"I 	c #6B6D6B",
"J 	c #6B6F5A",
"K 	c #65724F",
"L 	c #6D6E66",
"M 	c #6B7061",
"N 	c #62754B",
"O 	c #68725C",
"P 	c #697357",
"Q 	c #717460",
"R 	c #6E756B",
"S 	c #707566",
"T 	c #6B7855",
"U 	c #6D7850",
"V 	c #6E775B",
"W 	c #737572",
"X 	c #6E7861",
"Y 	c #75756D",
"Z 	c #74796A",
"` 	c #6F7C59",
" .	c #6B7E54",
"..	c #727B5F",
"+.	c #6D7E4E",
"@.	c #747B71",
"#.	c #727E55",
"$.	c #787B67",
"%.	c #787A77",
"&.	c #737D66",
"*.	c #7A7A72",
"=.	c #707F62",
"-.	c #787D6D",
";.	c #73805D",
">.	c #777F63",
",.	c #77835B",
"'.	c #748555",
").	c #7D7F7C",
"!.	c #78826C",
"~.	c #7F7F77",
"{.	c #7A8177",
"].	c #7C8171",
"^.	c #74865C",
"/.	c #788662",
"(.	c #7C8569",
"_.	c #788953",
":.	c #79886A",
"<.	c #7C885F",
"[.	c #808576",
"}.	c #828570",
"|.	c #798A59",
"1.	c #7D8770",
"2.	c #7F867C",
"3.	c #838582",
"4.	c #85857C",
"5.	c #7D8A67",
"6.	c #80896C",
"7.	c #868985",
"8.	c #858B7B",
"9.	c #848B81",
"0.	c #828D76",
"a.	c #898A81",
"b.	c #7F8F70",
"c.	c #818F6B",
"d.	c #838F65",
"e.	c #888C77",
"f.	c #7F9160",
"g.	c #81915A",
"h.	c #858E71",
"i.	c #7D935B",
"j.	c #898C89",
"k.	c #7F9267",
"l.	c #87917A",
"m.	c #8E8E86",
"n.	c #899086",
"o.	c #8B9080",
"p.	c #8D8F8C",
"q.	c #879571",
"r.	c #8C9578",
"s.	c #879778",
"t.	c #93938B",
"u.	c #8F9585",
"v.	c #8E958B",
"w.	c #889A68",
"x.	c #919490",
"y.	c #8A9A63",
"z.	c #859C63",
"A.	c #939681",
"B.	c #8E9881",
"C.	c #8E9A70",
"D.	c #899C70",
"E.	c #8B9B7C",
"F.	c #899F60",
"G.	c #8E9C78",
"H.	c #929B7E",
"I.	c #969895",
"J.	c #98988F",
"K.	c #929A8F",
"L.	c #949A8A",
"M.	c #91A270",
"N.	c #969F82",
"O.	c #9A9C99",
"P.	c #989E8E",
"Q.	c #9B9E88",
"R.	c #90A46C",
"S.	c #9C9D94",
"T.	c #96A089",
"U.	c #979F94",
"V.	c #94A27E",
"W.	c #97A379",
"X.	c #92A579",
"Y.	c #9D9F9C",
"Z.	c #92A868",
"`.	c #9BA386",
" +	c #9DA292",
".+	c #A2A29A",
"++	c #9DA49A",
"@+	c #97A977",
"#+	c #A1A3A0",
"$+	c #9DA68F",
"%+	c #9EA88A",
"&+	c #9CAA85",
"*+	c #A2A797",
"=+	c #A5A8A4",
"-+	c #A1AB93",
";+	c #A8A8A0",
">+	c #9BB170",
",+	c #9FAF81",
"'+	c #9CB177",
")+	c #A5ACA2",
"!+	c #A9ABA8",
"~+	c #A4B18C",
"{+	c #A9AE9E",
"]+	c #A6B092",
"^+	c #A7B099",
"/+	c #ABAEAA",
"(+	c #ADAEA5",
"_+	c #B1B3B0",
":+	c #AAB893",
"<+	c #AEB5AA",
"[+	c #ADB799",
"}+	c #A6BC81",
"|+	c #AEB7A0",
"1+	c #AABA8C",
"2+	c #B1B6A6",
"3+	c #A8BD7D",
"4+	c #B5B5AC",
"5+	c #B6B9B5",
"6+	c #ACC388",
"7+	c #B4BFA0",
"8+	c #B1C390",
"9+	c #BABDBA",
"0+	c #B4C29C",
"a+	c #BFBFB6",
"b+	c #B9C1B6",
"c+	c #BBC1B1",
"d+	c #B7C598",
"e+	c #BAC3AB",
"f+	c #B9C5A6",
"g+	c #C0C2BF",
"h+	c #BECCA6",
"i+	c #BCCE9A",
"j+	c #C4C9B9",
"k+	c #C6C8C5",
"l+	c #C2CBB3",
"m+	c #C2CCAD",
"n+	c #C0CEA1",
"o+	c #C3CBC0",
"p+	c #CBCBC2",
"q+	c #CBCDCA",
"r+	c #CDD2C1",
"s+	c #CBD4B9",
"t+	c #D0D3CF",
"u+	c #D5D5CC",
"v+	c #CFD7CC",
"w+	c #D3D9C8",
"x+	c #D5D8D5",
"y+	c #D9DFC7",
"z+	c #DCDEDB",
"A+	c #D8E0D4",
"B+	c #DBE1CF",
"C+	c #E0E0D7",
"D+	c #E0E3DF",
"E+	c #E6E9DF",
"F+	c #E8EAE7",
"_ _ _ 7 8 0 1 [ : | | 1 1 1 : / : : : 1 1 1 | : 1 1 1 6 9 6 5 ~ % : [ < : | [ / ^ < / / ( < / ] { ] / : | [ } _ _ _ | 1 } [ [ - ",
"b 6.N.|+e+x+k+4+o+j+p+t+t+q+9+g+g+k+q+t+x+t+k+k+q+q+q+u+x+u+u+.+d _+c+e+c+j+7+4+|+4+[+]+[+7+e+]+^+]+c+e+e+l+m+f+}+8+r+r+f+l+s+q.",
"> S  +-+*+5+#+I.#+5+5+/+=+Y.O.O.I.!+_+9+5+_+.+I.x.x.S.)+)+)+c+L.; w O.u.L.$+$+L.8.0.o.!.!.1.l.u.[.-.X $.r.(+]+^+]+e+c+[+{+2+v+++",
"! @. +o.I.O.m.j.Y./+/+#+Y.#+.+#+#+/+4+5+4+#+t.4.~.*.~.n.v.o.[+B.= w t.m.m.P. +[.&.1.1.>.X >.(.(.O r r x (.G.C.M.@+~+&+`..+-+j+++",
"/ -.0.(.~.u.t.o..+!+;+S.=+_+(+5+4+(+.+S.U.K.u.[.Z -.Z ].o.e.[+B.! R L.U.J.++L.o.9.u.0.!.!.1.!.X y s E ..;.C.X.H.G.V.V.N.N.%+f+P.",
"} E 6.&.X L.;+#+.+;+;+=+=+.+<+b+b+<+*+n.9.a.9.-.M M M -.-.1.[+r.{ M o.L.L.S.t.a.2.v.t.8.0.[.!.Q M M O V >.q.V.H.V.V.H.(.b.E.0+G.",
"2 O 8.0.0.O.)+++P. +;+=+O.J.;+)+)+{+P.8.-.Z ].-.S S X &.../.~+r.; v l.u.o.o.v.4.~.9.t.o.8.8.[.Z -.[.-.S 1.H.N.`.-+N.l.X S r.8+G.",
"_ C 1.o.K.O.U.S.P.U.(+!+S.t.J.o.L.o.8.].Z Z !.1.1.1.6.X V /.,+k.= q l.8.2.a.3.*.Y [.m.m.9.{.~.*.o.L.u.o.u.$+^+^+-+%+0.O J l.7+B.",
"> k -.v.Y.x.v.t.U.++.+;+J.v.o.].-.S S S M V (.r.H.G.H.h.&.6.'+|.- n ].%.Y %.%.Y Y @.4.3.*.*.~.4.m.J.*+ + +*+{+2+{+-+o.Z Z ].7+T.",
"& | R m.#+I.m.m.U.++P.K.L.v.].Q J C E O S ..;.G.`.G.G.q.h.r.,+<.* c P M C M M S Y L W ).W Y ).3.3.m..+.+S.S.;+2+2+P.u.[.@.*.2+P.",
"$ : *.m..+.+S.t.v.v.8.u.8.-.Z M E y y X Z -.h.G.%+D.k.^.` h.'+<.= g >.!.O y v L L q v W ).%.).3.).j.x.p.m.I.!+<+(+.+++++++S.c+P.",
"= l a.t.J.J.K.t.4.a.8.l.[.Z M M O O D E &.!.r.G.G.l.;...D ` ,+<.' s /.q.&.D C W v k j F %.3.3.7.7.2.).3.7.I./+=+=+#+;+4+a+a+r+#+",
"~ I J.J.J.K.9.a.).a.L.L.1.V O O P O y X e.e.h.q.c.>.P P x K ,+q.' s 1.q.c./.M R v k j w W 2.x.x.3.%.W 3.x.O.Y.#+=+Y./+q+q+t+C+)+",
"~ %.S.K.m.o.0.*.@.[.P..+l.V E D D P V >.o.o.b.q.5.` P P x D @+h.= g !.H.`.H.1.S M t v F ).J.#+S.j.3.7.x.O.x.I.#+x.Y.5+q+t+x+D+(+",
"! B [.{.@.R X s j v -.[.O k f c m m D D Z Z &.>.P r o e 7 0 h.0.* 3 n =.G.h.X s s j j j W a.a.7.7.7.7.p.x.3.).).%.x.=+_+5+g+x+!+",
"; 1 5 5 6 | | ( / < 8 8 [ ( ( ^ } 3 8 4 | 4 0 0 3 } ] ' $ * 8 t $ ! ~ 5 k k k 8 [ < | | 9 d d i l l l l p i 9 d 9 d l p w I O.p.",
"1 | : [ / ^ { } ] ] ( ( ( ( ( ! = < } [ } } } [ [ < < { / / : : / / ( < 3 5 6 1 | | | 1 1 5 6 : / 9 9 9 d 9 9 6 6 6 6 6 9 d i d ",
"r+c+2+|+$+l.h.$+c.#././.q.V.%+;.a %+[+[+:+[+:+[+7+e+e+^+4+(+|+<+<+(+^+7+7+[+e+j+c+o+k+k+q+q+w+++W q+z+z+z+z+z+t+t+x+t+q+q+r+w+w+",
"*+o.].Z ].Z P ..l.T 5.h.` 5.W.c.- n 1.r.H.N.V.V.-+T.u.!.*.~.~.{.W Y a.O..+P.L.I.O.I.I.S./+5+t+ +: x.5+_+5+g+g+5+_+_+/+/+!+#+*+*+",
"n.Z t s E O S V 6.#.5.r.` 5.,+r.* 7 K |.k.w.w.@+%+B...K M -.{.n.{.L %.).7.7.2.4.a.9.3.7.I.=+x+!+/ 3./+#+=+/+_+/+#+#+5+5+=+m.8.1.",
"o.-.s s C M &.>.B.5.G.N.(.5.,+q.$ c #.,.f.w.R.M.V.5.K ` (.0.n.++K.7.~.S %.).3.{.*.I W ).p.#+t+/+: 3./+#+#+=+!+#+O.=+<+_+_+=+9.1.",
"8.~.E s y O V 1.0.5.V.%+h./.1+h.$ e |.d.z.F.@+W.c.;.K #.r.u.L.(+#+x.[.*.W W %.*.L w w ).x.!+x+/+/ ~.;+Y.x.7.p.I.I.Y.Y.;+/+/+u.1.",
">.].Z y y E T (.l.;.D.@+f.f.}+f.- m f.C.z.F.@+V.(.;.#.'.(.n.P.)+=+J.).%.p p L *.Y Y %.7.O./+x+/+/ *.J.p.).).7.x.I.I.I.#+#+O.o.1.",
"&.-.8.1.$.X ;./.l.c.k.R.<.f.}+f.- z f.C.g.F.M.5.T ;.+./.8.4.x.S.;+J.o.R q B *.~.~.).).j.I.#+x+/+/ R a.).I %.7.x.O.Y.O.x.m.~.~.-.",
"a.m.u.r.}.(./.^.q.G.z.C.d.<.,+k.- m f.k.f.z.z.|.#.'.+./.[.Z 8.L.L.e.[.L j B R 3.I.I.x.j.7.I.t+/+/ W t.7.W ).j.I.Y.#+S.m.~.R %.*.",
"O..+P.N.c.(.^._.d.w.f.D.5.+.@+f.& a  .|.z.F.w.f.g.<.'.(.].E >.o.t.[.].].Z l B ;+/+=+I.j.3.Y.u+)+/ %.x.I.3.).j.Y.!+#+J.j.7.).%.7.",
"o.r.B.V.k./.+.'._.|.^.c./.'.Z.|.# } z ^.z.R.]+M.z.<.5.o.!.O Z [.u.8.-.e.m.).7.2+(+S.o.~.7.<+w+)+: ).I.Y.I.x.I.!+=+#+Y.O.I.7.2.j.",
"(.h.N.C.f.d.'.<./.` T ,.^.+.Z.'.@ ] o ` f.]+7+@+f.'.;.l.>.V Z :.5.l.e.B.I.n.I.^+^+*+t.n.L.|+r+)+/ W p.I.O.Y.#+!+/+!+.+#+#+x.3.S ",
"(.c.D.k.k.,.` ;./.V D U /.K w.'.@ _ o P ,.q.H.|.+.+.1.l.5.;.&.B.H.`.T.P.*+a.T.-+^+++t.L. +^+r+;+~ w j.Y.O.O.=+/+/+!+/+_+/+#+o.V ",
"L.H.d.f.#.K P >.;.&.D K ;.#.M.,.@ _ u G /./.^.#. .U ^.l.h.>.-.o.`.-+%+^+]+&.(.V.`.`.q.0.u.$+r+=+! p ).O.#+=+#+=+#+=+9+g+5+)+S.4.",
"a.1.,.P r f e n m n n r K K D.#.@ ] o G K ` G K H K #.1.S C L &.r.h.C.N.o.[.M P /.8.1.X !.o.4+.+; 9 w 3.7.x.7.7.3.p.=+5+5+)+J.~.",
"i b 8 5 3 ( ) ) ! ! < ( | 3 b g @ ) } 8 e n f 0 8 3 a 0 9 6 0 0 b a g k j k g 2 3 8 b 8 0 9 l w % : | 9 d j i d i d l w I F p j ",
") 1 | [ | 1 : < ( : : < [ | [ ^ { ^ [ | 5 5 3 2 } } 4 5 3 3 4 ] ) : | 6 9 9 6 1 | 4 5 6 6 6 | : : | | 6 6 6 1 1 6 6 6 9 d d 9 : ",
"d _+c+e+c+j+7+4+|+4+[+]+[+7+e+]+^+]+c+e+e+l+m+f+}+8+r+r+f+l+s+q.i {+e+r+o+z+x+q+q+o+v+x+t+q+9+g+g+k+q+t+x+t+k+k+q+q+q+u+x+u+u+.+",
"; w O.u.L.$+$+L.8.0.o.!.!.1.l.u.[.-.X $.r.(+]+^+]+e+c+[+{+2+v+++> Z {+{+*+5+=+Y.=+5+5+/+=+Y.O.O.I.!+_+9+5+_+.+I.x.x.S.)+)+)+c+L.",
"= w t.m.m.P. +[.&.1.1.>.X >.(.(.O r r x (.G.C.M.@+~+&+`..+-+j+++! @. +u.S.Y.I.x.Y./+/+#+Y.#+.+#+#+/+4+5+4+#+t.a.*.*.~.n.v.o.[+B.",
") R L.U.J.++L.o.9.u.0.!.!.1.!.X y s E ..;.C.X.H.G.V.V.N.N.%+f+P./ ~.B.0.[.t.I.J.#+!+;+S.=+_+(+5+4+(+.+S.U.J.u.[.Z S Z ].o.e.[+B.",
"! M o.L.L.S.t.a.2.v.t.8.0.[.!.Q M M O V >.q.V.H.V.V.H.(.b.E.0+G.~ M 0.1.!.L.)+;+.+;+;+=+=+.+<+b+b+<+*+n.n.m.8.-.S S S Z -.1.[+r.",
"; v l.u.o.o.v.4.~.9.t.o.8.8.[.Z -.[.-.S 1.H.N.`.-+N.l.X S r.8+G.^ S u.l.8.O.(+++P. +;+=+O.J.;+)+)+{+P.8.].-.}.-.S S &.$.../.~+r.",
"= q l.8.2.a.3.*.Y [.m.m.9.{.~.*.o.L.u.o.u.$+^+^+-+%+0.O J l.7+B.) L o.o.K.O.U.S.P.U.(+!+S.t.J.o.L.o.8.].Z Z 1.1.1.1.6.&.V /.,+k.",
"& n ].%.Y %.%.Y Y @.4.3.*.*.~.4.m.J.*+ + +*+{+2+{+-+o.Z Z ].7+L.= j 4.t.Y.x.v.t.U.++.+;+J.v.o.].-.S S S M V 1.r.H.G.H.l.(.6.'+|.",
"* c P M C M M S Y L W ).W Y ).3.3.m..+.+S.S.;+2+2+P.u.[.@.*.2+L.% 1 Y t.#+I.m.m.U.++P.K.L.v.].Q J C E O Q V /.G.`.G.G.q.0.r.,+<.",
"& g >.!.O y v L L q v W ).%.2.7.3.j.x.p.m.I.!+<+(+.+++++++S.c+P.$ | *.m..+.+S.t.v.v.8.u.8.-.Z M E y y O Z 1.h.G.%+D.k.^.` h.'+<.",
"' s /.q.&.D C W w k j I %.7.7.7.3.2.).3.7.I./+=+=+#+;+4+a+a+r+#+; l a.t.J.J.K.t.4.a.8.l.[.Z M M O O D ..!.(.r.G.G.l.;...D ` ,+<.",
"' s 1.q.c./.M R B k t R ).m.x.p.2.%.W 3.x.O.Y.#+=+Y./+q+q+t+C+)+~ I J.J.J.K.9.a.).a.L.L.1.V O O P O P >.e.e.h.q.c.>.P P x K ,+q.",
"= g !.H.`.H.1.S M t v I j.t.O.I.j.3.7.x.O.x.I.#+x.Y.5+q+t+x+D+(+/ %.S.K.m.o.0.*.@.[.P..+l.V E D D P >.>.o.o.b.q.5.` P P x D @+h.",
"% 3 n =.G.h.X s s j j j %.a.a.7.7.7.7.p.x.3.).).%.x.=+_+5+g+x+!+! B [.{.@.R X s j v -.[.O k f c m n x D Z Z &.>.P r o e 7 0 h.0.",
"$ ! ~ 5 k k k 8 [ < | | 9 d d i l l l l p i 9 d 9 d l p w I O.p.; 1 5 5 6 | | ( / < 8 8 [ ( ( ^ } 3 5 4 | 4 0 0 3 } ] ' $ * 8 t ",
"/ / ( < 3 5 6 1 | | | 1 1 5 6 : / 9 9 9 d 9 9 6 6 6 6 6 9 d i d 1 | : [ : : < < ( ( 2 2 [ ( } ] = < } [ } } } [ [ < < { / / : : ",
"<+(+^+7+7+[+e+j+c+o+k+k+q+q+w+++W q+z+z+z+z+z+t+t+x+t+q+q+r+w+w+r+c+2+|+2+2+{+[+:+,+0+f+f+7+0+h.a %+[+[+:+[+:+[+7+e+e+^+4+(+|+<+",
"W Y a.O..+P.L.I.O.I.I.S./+5+t+ +: x.5+_+5+g+g+5+_+_+/+/+!+#+*+*+*+o.].Z ].{.-.1.l.c.N.$+N.r.1+c.- n 1.r.H.N.V.V.-+T.u.!.*.~.~.{.",
"{.L %.).7.7.2.4.a.9.3.7.I.=+x+!+/ 3./+#+=+/+_+/+#+#+5+5+=+m.8.1.o.Z t s E S Z ..6.c.q.B.l.h.,+r.* 7 K |.k.w.w.@+%+B...K M -.{.n.",
"K.7.~.S %.).3.{.*.I W ).p.#+t+/+: 3./+#+#+=+!+#+O.=+<+_+_+=+9.}.o.-.s s C M &.!.B.E.N.N.N.G.~+q.$ c #.,.f.w.R.M.V.5.K ` (.0.n.++",
"#+x.4.*.W W %.*.L w w ).x.!+x+/+/ ~.;+Y.x.7.p.I.I.Y.Y.;+/+/+u.1.8.~.E s y O V 1.0.r.V.%+%+V.:+h.$ e |.d.z.F.@+W.c.;.K #.r.u.L.<+",
"=+J.x.).p p L *.Y Y %.7.O./+x+/+/ *.J.p.).).7.x.I.I.I.#+#+O.o.1.>.].Z y y E T (.l.q.D.@+M.M.}+f.- m f.C.z.F.@+V.(.;.#.'.(.n.P.)+",
";+J.L.*.q B W a.m.7.7.p.I.#+x+/+/ R a.).I %.7.x.O.Y.O.x.m.~.~.-.&.-.8.1.$.X ;./.l.H.M.R.z.w.}+f.- z f.C.g.F.M.5.T ;.+./.8.4.x.S.",
"L.e.[.R F F ~.S.Y.O.x.j.7.I.t+/+/ W t.7.%.).j.I.Y.#+S.m.~.R %.~.9.m.u.r.}.(./.^.q.V.w.C.q.d.,+k.- m f.k.f.z.z.|.#.'.+./.[.Z 8.L.",
"L.[.].].Z @.4.;+!+=+I.j.3.Y.u+)+/ %.x.I.j.).j.Y.!+#+J.j.7.).%.7.O..+P.N.c.(.^._.d.w.f.D.q.|.@+f.& a  .|.z.F.w.f.g.<.'.(.].E >.o.",
"u.8.-.e.m.m.K.2+(+S.o.~.7.<+w+)+: ).I.Y.I.x.I.!+=+#+Y.O.I.7.2.j.o.r.B.V.k./.+.'._.|.^.k.5.|.Z.|.# } z ^.z.R.]+M.z.<.5.o.!.O Z ].",
"5.l.e.B.I.S.#+^+^+*+t.n.L.|+r+)+/ W p.I.O.Y.#+!+/+!+.+#+#+x.3.S (.h.N.C.f.d.'.<./.` T ,.^.'.Z.'.@ ] o ` f.:+l+@+z.'.;.l.>.V Z :.",
"H.`.T.P.*+(+-+-+^+++t.L. +^+r+;+~ w j.Y.O.O.=+/+/+!+/+_+/+#+o.V (.c.D.k.k.,.` ;./.V D U <./.R.'.@ _ o T c.^+|+w.i.'.6.l.5.;.&.u.",
"`.-+%+^+^+-+`.V.%+`.q.0.u.$+r+=+! p ).O.#+=+#+=+#+=+9+g+5+)+S.4.u.H.d.f.#.K P >.;.&.D K ;./.M.,.@ _ r T r.`.M.C.k.5.k.B.h.>.-.o.",
"r.h.q.N.-+P.0.;.>.8.1.M -.o.2+Y.; 9 w 3.7.p.7.7.3.p.=+5+5+;+J.~.a.1.;.D m f e n n n n r x K w.#.@ ] o P /.5.#.U K U #.1.S C L X ",
"% # & * = = $ @ # $ $ @ @ $ ; =   . @ $ $ % $ $ $ % = ! ! ; = $ $ $ # @ + . . . . . + + + + & #     + @ # # # + @ # # $ @ @ @ @ "};
