/* XPM */
static char * wall1_48_xpm[] = {
"48 48 203 2",
"  	c #585157",
". 	c #5C545B",
"+ 	c #5C555B",
"@ 	c #5D565C",
"# 	c #5E565D",
"$ 	c #5E575D",
"% 	c #60585F",
"& 	c #615960",
"* 	c #625A61",
"= 	c #655D64",
"- 	c #665E65",
"; 	c #686067",
"> 	c #6A6169",
", 	c #6B626A",
"' 	c #6D646C",
") 	c #6E656D",
"! 	c #70676F",
"~ 	c #71676F",
"{ 	c #716870",
"] 	c #726971",
"^ 	c #736A72",
"/ 	c #746A73",
"( 	c #746B73",
"_ 	c #756B73",
": 	c #756C74",
"< 	c #766C74",
"[ 	c #766C75",
"} 	c #766D75",
"| 	c #776D75",
"1 	c #776D76",
"2 	c #776E76",
"3 	c #786E76",
"4 	c #786E77",
"5 	c #786F77",
"6 	c #796F77",
"7 	c #796F78",
"8 	c #7A7078",
"9 	c #7A7079",
"0 	c #7A7179",
"a 	c #7B7179",
"b 	c #7B717A",
"c 	c #7B727A",
"d 	c #7C727A",
"e 	c #7C727B",
"f 	c #7D727B",
"g 	c #7D737B",
"h 	c #7D737C",
"i 	c #7E737C",
"j 	c #7E747C",
"k 	c #7E747D",
"l 	c #7F747D",
"m 	c #7F757D",
"n 	c #7F757E",
"o 	c #80757E",
"p 	c #80767F",
"q 	c #81767F",
"r 	c #817680",
"s 	c #817780",
"t 	c #827780",
"u 	c #827781",
"v 	c #827881",
"w 	c #837881",
"x 	c #837882",
"y 	c #837982",
"z 	c #847982",
"A 	c #847983",
"B 	c #847A83",
"C 	c #857A83",
"D 	c #857A84",
"E 	c #857B84",
"F 	c #867B84",
"G 	c #867B85",
"H 	c #867C85",
"I 	c #877C85",
"J 	c #877C86",
"K 	c #877D86",
"L 	c #887D86",
"M 	c #887D87",
"N 	c #887E87",
"O 	c #897E87",
"P 	c #897F88",
"Q 	c #8A7F88",
"R 	c #8A8089",
"S 	c #8B8089",
"T 	c #8B8189",
"U 	c #8B818A",
"V 	c #8C818A",
"W 	c #8C828A",
"X 	c #8C828B",
"Y 	c #8D828B",
"Z 	c #8D838B",
"` 	c #8D838C",
" .	c #8E848C",
"..	c #8E848D",
"+.	c #8E858D",
"@.	c #8F858D",
"#.	c #8F858E",
"$.	c #8F868E",
"%.	c #90868E",
"&.	c #90868F",
"*.	c #90878F",
"=.	c #91878F",
"-.	c #918790",
";.	c #918890",
">.	c #928890",
",.	c #928891",
"'.	c #928991",
").	c #938991",
"!.	c #938992",
"~.	c #938A92",
"{.	c #948A92",
"].	c #948A93",
"^.	c #948B93",
"/.	c #958B93",
"(.	c #958B94",
"_.	c #958C94",
":.	c #968C94",
"<.	c #968C95",
"[.	c #968D95",
"}.	c #978D95",
"|.	c #978D96",
"1.	c #978E96",
"2.	c #988E96",
"3.	c #988F96",
"4.	c #988F97",
"5.	c #999097",
"6.	c #999098",
"7.	c #999198",
"8.	c #9A9198",
"9.	c #9A9199",
"0.	c #9A9299",
"a.	c #9B9299",
"b.	c #9B929A",
"c.	c #9B939A",
"d.	c #9C939A",
"e.	c #9C939B",
"f.	c #9C949B",
"g.	c #9D949B",
"h.	c #9D949C",
"i.	c #9D959C",
"j.	c #9E959C",
"k.	c #9E959D",
"l.	c #9E969D",
"m.	c #9F969D",
"n.	c #9F969E",
"o.	c #9F979E",
"p.	c #A0979E",
"q.	c #A0979F",
"r.	c #A0989F",
"s.	c #A198A0",
"t.	c #A199A0",
"u.	c #A29AA1",
"v.	c #A39AA2",
"w.	c #A39BA2",
"x.	c #A49BA3",
"y.	c #A49CA3",
"z.	c #A59DA4",
"A.	c #A59EA4",
"B.	c #A69EA5",
"C.	c #A69FA5",
"D.	c #A79FA6",
"E.	c #A7A0A6",
"F.	c #A8A0A7",
"G.	c #A8A1A7",
"H.	c #A9A1A8",
"I.	c #A9A2A8",
"J.	c #A9A2A9",
"K.	c #AAA2A9",
"L.	c #AAA3A9",
"M.	c #ABA3AA",
"N.	c #ACA4AB",
"O.	c #ACA5AB",
"P.	c #ACA5AC",
"Q.	c #ADA5AC",
"R.	c #ADA6AC",
"S.	c #AEA6AD",
"T.	c #AEA7AD",
"U.	c #AEA7AE",
"V.	c #AFA8AE",
"W.	c #B0A9AF",
"X.	c #B0A9B0",
"Y.	c #B0AAB0",
"Z.	c #B1AAB0",
"`.	c #B2ABB1",
" +	c #B3ACB2",
".+	c #B3ADB2",
"++	c #B3ADB3",
"@+	c #B4ADB3",
"#+	c #B4AEB4",
"$+	c #B6B0B5",
"%+	c #B7B0B6",
"&+	c #B7B1B7",
"*+	c #B8B2B7",
"=+	c #B9B2B8",
"-+	c #BAB3B9",
";+	c #BAB4B9",
">+	c #BAB4BA",
",+	c #BBB5BA",
"'+	c #BBB5BB",
")+	c #BCB6BB",
"!+	c #BCB6BC",
"~+	c #BDB7BC",
"{+	c #BFBABF",
"O.*+{+!+@+O.F.J.z.v.B.o.l.e.U q K $.#.&.U #.X X D [ E !._.^.].6.6.4.l.6.9.9.T k x P z q / 5 q 6.",
")+=+%+;+$+T.M.H.D.u.t.k.l.1.R p X 5.1.l.l.l.b.0.V 9 b ` !.!.}.5.b.}.6.1.9._.R k N !.Z >.#._.z.&+",
"'+%+L.`.#+V.S.H.z.v.o.h.l.+.q D ~.h.b.l.h.9.c.9.~.O [ A ;.&.5.1.4.1.1.[.9.X p x &.1.-.'.4.y.$+~+",
"%+`.D.C.V. +M.K.u.u.o.f.1.S n O 4.b.9.h.h.b.b.a.[.` b e U <.!.1.~.1.[.[.!.L n I ^.~.'.7.z.Z.-+,+",
"$+`.L.c.E.M.L.F.D.z.l.f.%.B y *.1.b.f.6.e.5.4.b.5._.P : J  .>.].4.6._.[.R q y #.{.<.b.v.V.++$+&+",
"`..+K.6.b.t.y.t.o.e.4.<.U n I _.5.4.d.k.k.9.f.9.6.e.$.3 f F U X ` @...&.H h I ~._.5.w.V.++`.`.Y.",
"O.W.I.n.-.1.(.:.;...R N z y X 4.<.c.d.l.h.b.f.f.5.h.].I _ g e l k l l s i s U 1.1.v.J.Z.W.U.W.V.",
"P.O.y.l.-.8.4.9.1.(.&.X C G +.6.}.[.6.h.e.7.9.h.k.g.!.U e H C O H I B D l z #.e.e.w.H.O.N.J.L.P.",
"B.A.9.;./.l.k.q.c.l.c.4.-.l P [.4.1.^.e.1.}.c.6.9.6.V x K >.-.~.#.^.>.>.X d X b.t.u.r.F.u.u.D.z.",
"o.q.:.R ~.p.l.D.D.B.y.u._.A p #.^._.1.7.b.1.7.<.1.1.` n U 4.<.q.o.q.h.k.>.y B [.h.i.k.o.w.l.u.k.",
"l.!.P N |.l.l.u.q.l.r.q.0.X b Q ~.,.6.9.6.6.4.}.9...z A ).b.9.l.e.9.f.e.4.Y n #.1.:.h.f.b.b.f.b.",
"_.` s N 2.6.b.h.q.h.o.l.9...s p  .^.].8._.[.].'.!.R k H _.1.4.d.j.9.h.h.6.` u t %._.[.0.1.4._._.",
"V A p #._.5.c.6.d.6.6.l.e.(.Q 9 N !.!.].[.[.~.1.X z p %._.4.b.5.b.6.6.h.c.^.Q 9 O !.!.~.].^.~.1.",
"z c y =._.:.6.j.l.b.f.6.e.d.@.k t R &.-.].^.!.&.A c y ;._.[.6.h.k.c.l.b.e.d...h v R *.>.]._.!.&.",
"h h P _.,.5.5.h.0.8.e.e.6.9.(.Q 9 n p r s w s x h k P :.).4.6.j.0.9.f.e.7.9.^.N 9 n p s s y s x ",
"9 k R :.!.!.[.9.b.5.9.h.m.b.'.R b x n u u p p o 9 k R [.^.[.[.d.0.4.9.g.n.b.;.Q b y n u s p p o ",
"D : A -.~.!.&.6.]._.d.6.9.5.U p H &.=.;.X ,.` %.G : C ;.].].!.6._._.d.6.9.5.S o H &.&.-.X ,.` %.",
"X b 9 S =.-.!.^.6.^.6._.1.[.R p X 4.4.l.e.h.9.2.Y a 9 U >.,.^.[.8.].6./.1.[.P p Y 5.4.l.e.h.9.1.",
"^.V : E #.` [.^.^._.1.[.9.V p y -.c.4.l.l.h.h.h._.R : H #.` 1.^.^._.1.[.9.U p B ,.d.4.o.l.g.h.h.",
"_.#.e 9 S *.&.[.'.].>.>.>.J h O 1.d.b.k.e.b.b.9.:...b 0 V &.-.[.'.].>.>.>.H h P 4.d.b.l.c.b.c.9.",
"c.:.X ( A ....$.'.~.-._.U q w ` :.4.b.6.f.5.c.h.c.:.R ( A ..@.&.'.~.-._.R p y ` [.1.9.6.f.4.e.f.",
"9.9.&.7 b F V ` &.>.&.@.D 9 E ^.4.5.c.h.g.5.4.6.9.6.%.5 e F W ` $.>.&.@.A a E _.1.6.b.d.b.4.4.6.",
"4.h.^.K ( e e i k p l q k n Q ^.^.9.d.l.h.b.e.b.4.f.^.I _ e e i k p l q h p Q ^.^.9.b.h.k.0.e.b.",
"c.e.:.` C &.-.'...^.&.~.X w ` [.].^.4.g.d.9.9.h.c.e.:.Y D &.-.'...^.&.].U w ` }.~.^.1.g.9.6.9.h.",
"b.6.V C P 3.1.l.h.l.b.a.).o N _.[.[.!.b.^._.1.1.9.4.U A Q 4.1.l.e.l.b.9.'.n O _.[.[.~.8./._.2.1.",
"_.[.S y #.6.[.l.l.g.l.l.9.U q &.,.>.~./.4.^.9._._.<.R y %.6.<.l.l.g.l.m.9.Q r &.'.>.!.^.4.^.9._.",
"1.` C F (.6.6.h.b.b.d.b.4.#.h R ,.-.^.[._.].[._.1.` A G _.6.6.j.b.b.d.b.4...g R >.-.^.[._.].[.^.",
"{.N p P !.^.4.4.d.6.e.h.f.].Q k X $.~._.~.].*.-.{.N p Q !.^.4.1.d.4.e.h.h.^.Q n ` $.]._.~.~.*.-.",
"X y s &.^.4.9.4.9.5.1.e.b.1.Z b H !.&.'.$.>.>.].` v s =.^.1.6.6.6.4.1.b.b.4.` b K !.&.'.$.>.>.].",
"v h A &.]._.6.f.k.9.f.7.e.e.*.B t P @.&.]._.>.#.x h z =.!.[.6.f.h.9.g.9.9.e.-.D v P @.*.]._.>.@.",
"h m P _.,.5.5.h.9.8.e.e.6.9.^.U 7 l t t v y v D h m P _.,.5.5.g.9.9.e.e.6.9.^.U 7 l v u v y t B ",
"h d R <.!.!.[.9.b.6.9.h.m.b.=.I h H B F y F z B h h R [.!.{.:.9.b.4.9.h.n.b.&.G k K H K z H z D ",
"I 1 z &.].].-.8.[.[.d.6.b.8.` s O '.-.'.#._.!.;.I | C =.^.~.,.8.[.[.d.6.9.6.X p P ].).1.[.}.].;.",
"@.y b S ~.,.1.4.9.6.d.6.f.!.P n Y 6.4.l.h.e.a.b.#.p b U {.,.1.4.9.4.b.4.c.!.N n ` 9.1.l.k.c.a.b.",
").R 5 w ;._.4.d.6.9.1.1.6.` p H _.e.5.l.l.b.b.6.].P 3 z ,.^.4.c.6.6.1.1.6.X p H (.e.9.l.b.5.9.4.",
"6.%.y b S 1.[.4.1.6.2.f.^.R p R 1.9.b.k.e.9.c.9.1.%.t e U 1.[.4.1.6.4.c.!.P p U 4.d.b.d.i.5.b.b.",
"5.2.S 1 J @._.}.7.d.7.9. .s z ).4.6.c.8.f.5.b.f.9.[.R 1 K #._.1.9.d.4.}.U p B ^.4.1.b.b.e.4.1.9.",
"1.h...g 7 y H K P ` +.).R l O :.1.4.d.h.l.9.7.9.6.k.&.l h F O P R V R ` H h Q 1.[.6.9.h.k.9.d.6.",
"[.9.;.J ! 2 : 7 l z N Q v A #.4.[.6.d.o.k.c.f.k.b.m.:.U 1 i e p p p q t h y %.6.[.<.1.c.5.1.4.6.",
"_.^.I o ] e k B R ;.&.#.A s ` 6.}.1.1.l.7.6.9.b.k.h.&.R l O M P H P H M n p ` 6.1._.-.}.*.$.-.,.",
"S  .k ] < H U 9.l.u.o.6.$.e J _.}.}.1.9.b.5.k.4.5.b...z M ].).4.[.4._.'.R 9 K ~.~.*...%.#.U *.R ",
"K w 1 = 5 #.[.F.L.H.z.y.}.D k ` 1.1.8.b.b.6.7.5.9.:.Z n ..6._.o.o.l.h.l.>.t n U !.*.&...U K M E ",
"q ( * ; M h.B.N.F.z.y.t.9.X 9 A >.[.6.b.6.6.[.[.5.&.x E [.b.b.l.b.b.c.b.:.P 9 v ..%.#.` L A k e ",
"_ , . ] ^.w.N.L.L.z.z.w.q.-.w h U 6.}.6._.1.1.4.!.U n O _.[.9.b.l.6.k.k.c...u b K ~.X U v o e e ",
"- # * #.z.R.R.L.G.z.t.v.q.4.N 7 R &.^.[.c.d.4.[.R t t ].3.9.c.b.c.6.6.e.c._.N } F Q S M Q C e 4 ",
"%   h s.K.T.R.T.O.D.B.u.o.o...m k N U V ` ` X ..C h I ^._.6.b.o.q.d.l.e.c.h.` b 8 q p a 5 ] ' ' ",
". k k.X.O.O.M.U.H.D.z.z.r.h.:.Q 6 n j s q s q t h p Z 4.].1.6.o.e.f.h.m.h.c._.I ^ 1 ~ ) ; & @ $ ",
"I Q.>+-+Z.O.H.N.D.w.w.u.x.h.=.N b y r y t s o n 7 k S 4.<.1.}.f.9.5.d.f.r.b.&.F [ b / { > & + , "};
