/* XPM */
static char * wall2_48_xpm[] = {
"64 64 255 2",
"  	c #010400",
". 	c #040803",
"+ 	c #060A05",
"@ 	c #080B07",
"# 	c #090C08",
"$ 	c #0B0E0A",
"% 	c #0D100C",
"& 	c #0E110D",
"* 	c #10120F",
"= 	c #131512",
"- 	c #11170E",
"; 	c #141614",
"> 	c #161816",
", 	c #181917",
"' 	c #1A1A13",
") 	c #191B18",
"! 	c #1A1C19",
"~ 	c #1B1D1A",
"{ 	c #1E1F18",
"] 	c #1D1F1C",
"^ 	c #1C2114",
"/ 	c #1E201D",
"( 	c #1F201E",
"_ 	c #1F211F",
": 	c #212320",
"< 	c #202518",
"[ 	c #222421",
"} 	c #232422",
"| 	c #232615",
"1 	c #232523",
"2 	c #252724",
"3 	c #262825",
"4 	c #272826",
"5 	c #272927",
"6 	c #242D1A",
"7 	c #292B28",
"8 	c #282D20",
"9 	c #2A2C29",
"0 	c #2C2D25",
"a 	c #2B2D2A",
"b 	c #2C2D2B",
"c 	c #28311E",
"d 	c #2D2F2C",
"e 	c #303029",
"f 	c #2F312F",
"g 	c #313330",
"h 	c #323331",
"i 	c #323432",
"j 	c #343633",
"k 	c #36362F",
"l 	c #34382B",
"m 	c #353735",
"n 	c #373936",
"o 	c #383A37",
"p 	c #383B33",
"q 	c #393B39",
"r 	c #3B3D3A",
"s 	c #3C3E3B",
"t 	c #3D3F3C",
"u 	c #3C4133",
"v 	c #3B4138",
"w 	c #394520",
"x 	c #3F413E",
"y 	c #3F413F",
"z 	c #414340",
"A 	c #434543",
"B 	c #454744",
"C 	c #464845",
"D 	c #424C2F",
"E 	c #474946",
"F 	c #494942",
"G 	c #494B48",
"H 	c #4A4C49",
"I 	c #495137",
"J 	c #4D4F4C",
"K 	c #4F4F47",
"L 	c #4E504D",
"M 	c #4F514E",
"N 	c #515350",
"O 	c #4D5641",
"P 	c #525451",
"Q 	c #535552",
"R 	c #50583E",
"S 	c #4F5944",
"T 	c #535849",
"U 	c #555754",
"V 	c #565855",
"W 	c #575956",
"X 	c #565D3D",
"Y 	c #595C59",
"Z 	c #5C5E5B",
"` 	c #5E605D",
" .	c #60625F",
"..	c #626461",
"+.	c #636562",
"@.	c #656764",
"#.	c #666866",
"$.	c #686A67",
"%.	c #696B68",
"&.	c #6A6C69",
"*.	c #6A6F5F",
"=.	c #6C6E6B",
"-.	c #6D6F6C",
";.	c #6E706D",
">.	c #6F716E",
",.	c #6D765A",
"'.	c #727471",
").	c #737572",
"!.	c #747673",
"~.	c #757774",
"{.	c #717A61",
"].	c #767875",
"^.	c #777976",
"/.	c #787A77",
"(.	c #797B78",
"_.	c #7A7C79",
":.	c #757F68",
"<.	c #777F63",
"[.	c #7B7D7A",
"}.	c #7D7D75",
"|.	c #787F75",
"1.	c #7C7E7B",
"2.	c #7D7F7C",
"3.	c #7E807D",
"4.	c #7F817E",
"5.	c #80827F",
"6.	c #81846F",
"7.	c #818380",
"8.	c #828481",
"9.	c #7D8960",
"0.	c #838582",
"a.	c #848683",
"b.	c #7C8B6D",
"c.	c #858873",
"d.	c #858784",
"e.	c #868885",
"f.	c #818B74",
"g.	c #878986",
"h.	c #888A87",
"i.	c #878C7D",
"j.	c #898B88",
"k.	c #8A8C89",
"l.	c #868E83",
"m.	c #8B8D8A",
"n.	c #8A8F7F",
"o.	c #8C8E8B",
"p.	c #8D8F8C",
"q.	c #8F8F86",
"r.	c #8E908D",
"s.	c #8B9287",
"t.	c #8F918E",
"u.	c #8D9383",
"v.	c #90928F",
"w.	c #90938A",
"x.	c #919390",
"y.	c #8F9585",
"z.	c #929491",
"A.	c #939592",
"B.	c #949693",
"C.	c #8F9A7A",
"D.	c #929888",
"E.	c #959794",
"F.	c #969895",
"G.	c #939A8F",
"H.	c #979996",
"I.	c #949C7F",
"J.	c #949B91",
"K.	c #989A97",
"L.	c #979C8C",
"M.	c #999C98",
"N.	c #979F82",
"O.	c #9A9D99",
"P.	c #9B9E9A",
"Q.	c #9C9F9C",
"R.	c #9BA28B",
"S.	c #9DA09D",
"T.	c #9EA19E",
"U.	c #A0A198",
"V.	c #9CA399",
"W.	c #A0A29F",
"X.	c #A1A3A0",
"Y.	c #A2A4A1",
"Z.	c #A1A696",
"`.	c #A3A5A2",
" +	c #A4A6A3",
".+	c #A5A7A4",
"++	c #A6A8A5",
"@+	c #A7A9A6",
"#+	c #A9A9A0",
"$+	c #A8AAA7",
"%+	c #A9ABA8",
"&+	c #AAACA9",
"*+	c #ACACA3",
"=+	c #ABADAA",
"-+	c #ADADA4",
";+	c #ACAEAB",
">+	c #AEAEA5",
",+	c #ADAFAC",
"'+	c #AEB1AD",
")+	c #AFB2AE",
"!+	c #B0B3AF",
"~+	c #B1B4B0",
"{+	c #B2B5B2",
"]+	c #B4B6B3",
"^+	c #B5B7B4",
"/+	c #B6B8B5",
"(+	c #B7B9B6",
"_+	c #B8BAB7",
":+	c #B9BBB8",
"<+	c #BABCB9",
"[+	c #B6BEB3",
"}+	c #BBBDBA",
"|+	c #BCBEBB",
"1+	c #BDBFBC",
"2+	c #BEC1BD",
"3+	c #BFC2BE",
"4+	c #C0C3BF",
"5+	c #C1C4C1",
"6+	c #C3C5C2",
"7+	c #C4C6C3",
"8+	c #C5C7C4",
"9+	c #C7C9C6",
"0+	c #C9C9C0",
"a+	c #C8CAC7",
"b+	c #C9CBC8",
"c+	c #CACCC9",
"d+	c #CBCECA",
"e+	c #CDCFCC",
"f+	c #CED1CE",
"g+	c #D0D2CF",
"h+	c #D1D3D0",
"i+	c #D2D4D1",
"j+	c #D0D6C5",
"k+	c #D3D5D2",
"l+	c #D5D7D4",
"m+	c #D7D9D6",
"n+	c #D8DBD7",
"o+	c #D9DCD9",
"p+	c #DBDEDA",
"q+	c #DDDFDC",
"r+	c #DEE0DD",
"s+	c #DEE2CA",
"t+	c #DFE1DE",
"u+	c #E0E3DF",
"v+	c #E1E4E0",
"w+	c #E2E5E1",
"x+	c #E4E6E3",
"y+	c #E6E8E5",
"z+	c #E7EAE6",
"A+	c #EAECE9",
"B+	c #EBEEEA",
"C+	c #ECEFEB",
"D+	c #EEF1ED",
"E+	c #F1F3F0",
"F+	c #FFFFFF",
"p.n+u+x+A+z+t+p+t+x+w+y+r+n+k+k+k+l+m+v+x+p+m+n+u+t+u+B+D+z+y+a 5.r+p+n+r+v+n+k+m+n+m+k+n+r+l+g+g+i+l+q+v+y+A+x+w+z+z+B+w+x+y+9 ",
"d F.6+}+}+<+&+`.]+:+|+)+,+W.W.W.O.%+:+6+}+_+@+@+++X.~+/+|+|+n+[ b d.;+`.]+_+~+=+P. +Y.F.O.O.Y. +x.t.m.H.,+8+8+8+8+h+g+e+6+a+v+a ",
"j m.=+P.`.`.E.p.$+~+&+P.K.W.`.W..+_+1+1+<+;+P.o.[.7.m.K.P.Y.l+3 a (.z.v.K.,+$+h.0.H.z.j.2.z.K.F.a./.-.2.%+1+!+1+e+h+4+(+$+1+t+3 ",
"t Y.Y.P.k.K.P.K.,+;+,+W.;+^+~+1+~+)+%+%+++X.E.p.[.7.a.z.H.P.m+d j E.X.W.W.;+W.B.z.K.v.r.p.K.z.7.'.).(.p.W.<+4+:+]+:+)+!+&+4+q+9 ",
"n A.P.p.p.&+.+=+%+~+$+=+;+,+}+g+4+]+%+H.K.A.r.d.3./.2.h.p.B.l+7 o z.W.`.W. +x.A.m.`.E.B.E.v.z._.[.~.h.a.z.!+_+%+_+,+%+K.$+)+v+h ",
"x A.X.F.o.%+(+@+$+=+++Y.K.`._+4+_+<+++x.o.h.o.3.[.8.j.h.m.P.n+[ h h.P.W.A.P.W.r.m.F.E.E.K.F.z.1.h.j.2.[.F.]+%+;+1+]+W.1.p.&+u+n ",
"j h.O.K.P.K.%+W.P.++)+++`.W.++K.$+W.O.e.8.h.A.p.r.r.z.h.p.`.p+[ a ).O.r.o.E.p.[.5.B.O.K.x.o.j.0.P.W.t.x.W.:+|+1+]+~+B.=.7.;+w+h ",
"a ).E.W. +v.W.x.%+++!+;+K.O.F.p.k.2.d.7.2.p.F.W.++&+ +K.m.W.q+2 d '.z.4.[.h.3./.2.7.o.h.7.e.k.m.K.%+]+@+%+_+6+9+_+^+B.8.7.H.m+a ",
"2 G [.W.@+v.A.B.=+&+%+Y.W.W.k./.[.~.[.[.7.h.W.=+_+<+:+%+W.!+q+3 d Z 7.[.!.^._.1._.[.a.3./.^.h.k.k.K.,+%+%+`.^+a+<+ +K.0./.j.m+4 ",
"( o h.F.,+`.K.H.Y.K.K.O.z.h.7.4.^.-./.5.h.H.++^+1+!+]+Y.t.%+m+3 7 -.r.d./.=.;.].).&.>.^.3.~.h.k.a.r.O.E.z.W.,+6+_+@+=+W.W.B.k+( ",
"9 U m.z.W.W. +B.p.z.F.K.p.4.^.h./._.1.j.k.z.!+<+=+X.A.t.a.Y.p+a j 2.W.W.[.'.;.~.#...+.&.0.h.4.z.o.a.7.h.j.X.~+=+%+.+%+~+9+3+p+4 ",
"j ).W.P. +H.p.x.8.z.O.`.p.3.[.8.3.7.7.B.W.X.&+^+`.r.d.a._.t.k+d n _.P.X.W.h.^.].$. .@.'.5.t.z.m.3.^.).8.B.`.++$+%+`.]+g+e+m+z+d ",
"r A.$+H.E.K.k.7.7.x.]+&+E.7.~.d.5.0.p.x.W.P.W.~+W.B.4.8.3.r.k+a g ~.z.^+~+X.p.[.'.$.@.!.p.E.Y.P.j.7.0.v.P.E.K. +E.W.1+k+k+u+C+r ",
"h o.K.t.o.t.m.).=.3.W.O.j.).$.'.!.1.p.r.E.p.P.Y.E.0.^.>.Z >.8+4 9 @.0.%+1+@+4.3.'.;.%.=.r.P.P.K.p.v.z.O.W.h.t.m.8.=+:+a+e+l+z+h ",
"h E J H E t B o t t U J B n n n E H M L G G U U J x n 9 , 4 =.( [ h h Y &.$. .L x t A B L Y Y Z @...Y @.+.P L M J W @.=.-.'.d+g ",
") , ! ) > = > , = , ( ! ! , ) ! , ] / ) , ! ( ! ! > = $ # # * . & % = ! 2 b 4 ! ! , , ! ] : / [ 3 4 } 2 4 } ( / ( / ( } b g h $ ",
"y+m+m+l+k+h+k+l+n+r+v+w+r+r+v+4 8.p+r+p+q+u+r+q+p+p+l+g+e+g+i+g+e+e+k+q+y+y+x+r+q+q+n+m+p+x+y+g :+z+z+A+C+z+z+r+t+x+q+u+y+B+E+D+",
"^+W.E.z.z.o.v.P.%+,+1+(+~+]+p+4 j h.++@+!+^+}+1+:+]+Y.A.h.o.h.h.].5.O.`.)+,+,+++`.`.@+%+(+|+u+d C ]+6+1+7+9+9+:+<+/+!+)+/+/+3+4+",
"E.!.;.;.4._.a.h.P.++,+ +O.W.m+9 a Z A.++)+]+^+9+}+Y.k.3.!.1.8.t.'.=.4.e.E.j.k.m.A.p.h.t.W.,+u+g r P.,+W.$+]+]+%+X.`._+,+W.v.A.E.",
"z.2.$.&.[.8.h.x.=+=+]+,+;+++m+3 4 $.K.@+]+8+4+6+]+K.k.v.p.p.K.=+z.j.7.^.[.3.p.h.7.'.1.e.K.=+v+n A  +&+++++,+%+Y.F.~+<+~+,+P.k.z.",
"E.4._.'.^.d.a.W.X.~+_+<+^+]+k+[ ( ].++%+6+8+a+:+W.p.o.K.@+K.++_+P.E.d.7.(.4.a.7.$.@.$.h.E.,+v+t A H.,+W.E.t.B.`.W.W.%+,+^+,+E.H.",
"v.8._.~._.0.p.z.W.%+:+7+1+}+r+4 d d.]+:+:+9+6+~+K.K.O.`.x.K.$+]+.+K.v.3.` $.(.3.).'.~.k.Y.(+x+j o A..+B.2.4.t.E.F.H.O.,+ +`.O.v.",
"h.o.t.k.5.2.z.F.`.^+_+4+^+3+v+d n O.:+^+/+h+4+X.e.B.W.H.r.v.O.=+%+ +P.~...@.3.o.d.7.h.m.X.;+x+n r a.x./.#.(.j.K.K.W.K.K.K.j.v.k.",
"z.p.W.W.x.z.P.`.,+_+1+<+)+!+u+d g x.!+<+_+6+~+W.z.O.v.P.t.d.z.!+`.E.o.'.&.~.h.++P.K.t.x.p. +v+r s h.F.a.>.3.x.O.`..+W.v.1.;.^.7.",
"@+@+ +%+W.F.Y.,+/+_+:+^+=+Y.n+b d ^.O.=+<+7+,+]+%+`.K.B.h._.P.++B.z.p.j.!.2.v.]+@+%+H.h.a.@+z+s s j.K.O.5.[.p. +%+++K.d.j.^.7.t.",
"P.%+&+]+`.W.P.@+;+Y.`.&+Y.)+k+! } L v.++3+3+}+|+%+@+.+E.e./.e.r.P.p.0.B.m.k.`.1+;+W.t.0.t.3+z+t B x.P.`.v.r.K.,+$+ +P.F.z.5.a.z.",
"O.++~+]+.+@+K.++P.B.v.W.X.$+l+] ~ z 5.H.,+k+m+8+,+`.P.X.p.7.h.H.P.F.E.P.E.W.&+3+6+.+p.o.W.9+A+n A a.v.K.O.Y.`.=+,+&+%+%+P.j.d.h.",
"O.%+)+,+++`.K.O.F.e.8.E. +P.e+> , J ~.j.]+e+9+7+^+W.v.W.z.k.o.%+++)+&+++%+<+_+1+^+`.t.`.^+a+y+g r (.x.W.O.W.&+)+]+=+=+/+,+W.t.).",
"%+^+,+&+W.k.p.E.r.p.1.r.K.F.e+= ] J /.E.;+}+}+~+&+.+&+++W.x.t.=+<+:+/+^+6+<+6+:+]+!+X.`.W.6+v+b g ).k.++X. +++%+++)+6+<+_+$+E.a.",
".+ +`.x.[.-.'.3.7.(.3.p.K.F.e+& = B 5.B.W.,+ +.+P.W.=+W.5.5.4.P.^+}+6+1+6+~+@+,+$+;+E.B.W.)+n+7 d N (.W.F.X.K.F.A.X.}+g+8+:+X.p.",
"` Z V L A s d g d j x t C G -.+ ) j J  .$.$...U V Q ` N G P J U ` Y Y =.(.-.Y P J U V P G J 1.! 3 n E N P ` Q P V Q @.~.].~.$. .",
"( ( / ! / ! = $ & = , = , ! = . # = ! : 7 4 3 : ! ] : / : : } / ~ ! / ( 4 4 ( ! ~ } } } : ] = . % > > ~ [ ( ! ( : ( ( 3 d 9 2 } ",
"5.r+p+n+r+v+n+k+m+n+m+k+n+r+l+g+g+i+l+q+v+y+A+x+w+z+z+B+w+x+y+9 p.n+u+x+A+z+t+p+t+x+w+y+r+n+k+k+k+l+m+v+x+p+m+n+u+t+u+B+D+z+y+a ",
"b d.;+`.]+_+~+=+P. +Y.F.O.O.Y. +x.t.m.H.,+8+8+8+8+h+g+e+6+a+v+a d F.6+}+}+<+&+`.]+:+|+)+,+W.W.W.O.%+:+6+}+_+@+@+++X.~+/+|+|+n+[ ",
"a (.z.v.K.,+$+h.0.H.z.j.2.z.K.F.a./.-.2.%+1+!+1+e+h+4+(+$+1+t+3 j m.=+P.`.`.E.p.$+~+&+P.K.W.`.W..+_+1+1+<+;+P.o.[.7.m.K.P.Y.l+3 ",
"j E.X.W.W.;+W.B.z.K.v.r.p.K.z.7.'.).(.p.W.<+4+:+]+:+)+!+&+4+q+9 t Y.Y.P.k.K.P.K.,+;+,+W.;+^+~+1+~+)+%+%+++X.E.p.[.7.a.z.H.P.m+d ",
"o z.W.`.W. +x.A.m.`.E.B.E.v.z._.[.~.h.a.z.!+_+%+_+,+%+K.$+)+v+h n A.P.p.p.&+.+=+%+~+$+=+;+,+}+g+4+]+%+H.K.A.r.d.3./.2.h.p.B.l+7 ",
"h h.P.W.A.P.W.r.m.F.E.E.K.F.z.1.h.j.2.[.F.]+%+;+1+]+W.1.p.&+u+n x A.X.F.o.%+(+@+$+=+++Y.K.`._+4+_+<+++x.o.h.o.3.[.8.j.h.m.P.n+[ ",
"a ).O.r.o.E.p.[.5.B.O.K.x.o.j.0.P.W.t.x.W.:+|+1+]+~+B.=.7.;+w+h j h.O.K.P.K.%+W.P.++)+++`.W.++K.$+W.O.e.8.h.A.p.r.r.z.h.p.`.p+[ ",
"d '.z.4.[.h.3./.2.7.o.h.7.e.k.m.K.%+]+@+%+_+6+9+_+^+B.8.7.H.m+a a ).E.W. +v.W.x.%+++!+;+K.O.F.p.k.2.d.7.2.p.F.W.++&+ +K.m.W.q+2 ",
"d Z 7.[.!.^._.1._.[.a.3./.^.h.k.k.K.,+%+%+`.^+a+<+ +K.0./.j.m+4 2 G [.W.@+v.A.B.=+&+%+Y.W.W.k./.[.~.[.[.7.h.W.=+_+<+:+%+W.!+q+3 ",
"7 -.r.d./.=.;.].).&.>.^.3.~.h.k.a.r.O.E.z.W.,+6+_+@+=+W.W.B.k+( ( o h.F.,+`.K.H.Y.K.K.O.z.h.7.4.^.-./.5.h.H.++^+1+!+]+Y.t.%+m+3 ",
"j 2.W.W.[.'.;.~.#...+.&.0.h.4.z.o.a.7.h.j.X.~+=+%+.+%+~+9+3+p+4 9 U m.z.W.W. +B.p.z.F.K.p.4.^.h./._.1.j.k.z.!+<+=+X.A.t.a.Y.p+a ",
"n _.P.X.W.h.^.].$. .@.'.5.t.z.m.3.^.).8.B.`.++$+%+`.]+g+e+m+z+d j ).W.P. +H.p.x.8.z.O.`.p.3.[.8.3.7.7.B.W.X.&+^+`.r.d.a._.t.k+d ",
"g ~.z.^+~+X.p.[.'.$.@.!.p.E.Y.P.j.7.0.v.P.E.K. +E.W.1+k+k+u+C+r r A.$+H.E.K.k.7.7.x.]+&+E.7.~.d.5.0.p.x.W.P.W.~+W.B.4.8.3.r.k+a ",
"9 @.0.%+1+@+4.3.'.;.%.=.r.P.P.K.p.v.z.O.W.h.t.m.8.=+:+a+e+l+z+h h o.K.t.o.t.m.).=.3.W.O.j.).$.'.!.1.p.r.E.p.P.Y.E.0.^.>.Z >.8+4 ",
"[ h h Y &.$. .L x t A B L Y Y Z @...Y @.+.P L M J W @.=.-.'.d+g h E J H E t B o t t U J B n n n E H M L G G U U J x n 9 , 4 =.( ",
"& % = ! 2 b 4 ! ! , , ! ] : / [ 3 4 } 2 4 } ( / ( / ( } b g h $ ) , ! ) > = > , = , ( ! ! , ) ! , ] / ) , ! ( ! ! > = $ # # * . ",
"e+e+k+q+y+y+x+r+q+q+n+m+p+x+y+g :+z+z+A+C+z+z+r+t+x+q+u+y+B+E+D+y+m+m+l+k+h+k+l+n+r+v+w+r+r+v+4 8.p+r+p+q+u+r+q+p+p+l+g+e+g+i+g+",
"].5.O.`.)+,+,+++`.`.@+%+(+|+u+d C ]+6+1+7+9+9+:+<+/+!+)+/+/+3+4+^+W.E.z.z.o.v.P.%+,+1+(+~+]+p+4 j h.++@+!+^+}+1+:+]+Y.A.h.o.h.h.",
"'.=.4.e.E.j.k.m.A.p.h.t.W.,+u+g r P.,+W.$+]+]+%+X.`._+,+W.v.A.E.E.!.;.;.4._.a.h.P.++,+ +O.W.m+9 a Z A.++)+]+^+9+}+Y.k.3.!.1.8.t.",
"z.j.7.^.[.3.p.h.7.'.1.e.K.=+v+n A  +&+++++,+%+Y.F.~+<+~+,+P.k.z.z.2.$.&.[.8.h.x.=+=+]+,+;+++m+3 4 $.K.@+]+8+4+6+]+K.k.v.p.p.K.=+",
"P.E.d.7.(.4.a.7.$.@.$.h.E.,+v+t A H.,+W.E.t.B.`.W.W.%+,+^+,+E.H.E.4._.'.^.d.a.W.X.~+_+<+^+]+k+[ ( ].++%+6+8+a+:+W.p.o.K.@+K.++_+",
".+K.v.3.` $.(.3.).'.~.k.Y.(+x+j o A..+B.2.4.t.E.F.H.O.,+ +`.O.v.v.8._.~._.0.p.z.W.%+:+7+1+}+r+4 d d.]+:+:+9+6+~+K.K.O.`.x.K.$+]+",
"%+ +P.~...@.3.o.d.7.h.m.X.;+x+n r a.x./.#.(.j.K.K.W.K.K.K.j.v.k.h.o.t.k.5.2.z.F.`.^+_+4+^+3+v+d n O.:+^+/+h+4+X.e.B.W.H.r.v.O.=+",
"`.E.o.'.&.~.h.++P.K.t.x.p. +v+r s h.F.a.>.3.x.O.`..+W.v.1.;.^.7.z.p.W.W.x.z.P.`.,+_+1+<+)+!+u+d g x.!+<+_+6+~+W.z.O.v.P.t.d.z.!+",
"B.z.p.j.!.2.v.]+@+%+H.h.a.@+z+s s j.K.O.5.[.p. +%+++K.d.j.^.7.t.@+@+ +%+W.F.Y.,+/+_+:+^+=+Y.n+b d ^.O.=+<+7+,+]+%+`.K.B.h._.P.++",
"P.p.0.B.m.k.`.1+;+W.t.0.t.3+z+t B x.P.`.v.r.K.,+$+ +P.F.z.5.a.z.P.%+&+]+`.W.P.@+;+Y.`.&+Y.)+k+! } L v.++3+3+}+|+%+@+.+E.e./.e.r.",
"P.F.E.P.E.W.&+3+6+.+p.o.W.9+A+n A a.v.K.O.Y.`.=+,+&+%+%+P.j.d.h.O.++~+]+.+@+K.++P.B.v.W.X.$+l+] ~ z 5.H.,+k+m+8+,+`.P.X.p.7.h.H.",
"++)+&+++%+<+_+1+^+`.t.`.^+a+y+g r (.x.W.O.W.&+)+]+=+=+/+,+W.t.).O.%+)+,+++`.K.O.F.e.8.E. +P.e+> , J ~.j.]+e+9+7+^+W.v.W.z.k.o.%+",
"<+:+/+^+6+<+6+:+]+!+X.`.W.6+v+b g ).k.++X. +++%+++)+6+<+_+$+E.a.%+^+,+&+W.k.p.E.r.p.1.r.K.F.e+= ] J /.E.;+}+}+~+&+.+&+++W.x.t.=+",
"^+}+6+1+6+~+@+,+$+;+E.B.W.)+n+7 d N (.W.F.X.K.F.A.X.}+g+8+:+X.p..+ +`.x.[.-.'.3.7.(.3.p.K.F.e+& = B 5.B.W.,+ +.+P.W.=+W.5.5.4.P.",
"` Y Y =.(.-.Y P J U V P G J 1.! 3 n E N P ` Q P V Q @.~.].~.$. .` Z V L A s d g d j x t C G -.+ ) j J  .$.$...U V Q ` N G P J U ",
"~ ! / ( 4 4 ( ! ~ } } } : ] = . % > > ~ [ ( ! ( : ( ( 3 d 9 2 } ( ( / ! / ! = $ & = , = , ! = . # = ! : 7 4 3 : ! ] : / : : } / "};
