/* XPM */
static char * wall_48_xpm[] = {
"48 48 921 2",
"  	c #FFFFFF",
". 	c #F9FAFA",
"+ 	c #EDF0F4",
"@ 	c #E7E8EE",
"# 	c #E7EAEF",
"$ 	c #E3E5EB",
"% 	c #EDEEF2",
"& 	c #F2F3F6",
"* 	c #FCFCFC",
"= 	c #FCFCFD",
"- 	c #F3F5F7",
"; 	c #F6F7FA",
"> 	c #EEEEF1",
", 	c #F4F4F6",
"' 	c #F5F6F7",
") 	c #F8F9F9",
"! 	c #F6F7F9",
"~ 	c #F2F4F6",
"{ 	c #FBFBFC",
"] 	c #F8F9FA",
"^ 	c #F7F8F9",
"/ 	c #EBEBEE",
"( 	c #F0F1F3",
"_ 	c #F5F5F7",
": 	c #F1F3F4",
"< 	c #D9E1DA",
"[ 	c #D3EEC6",
"} 	c #F7FCF4",
"| 	c #F9FAFB",
"1 	c #F5F7F9",
"2 	c #FEFEFE",
"3 	c #D9D9DF",
"4 	c #C7C0CB",
"5 	c #BBB1C0",
"6 	c #CFC8D4",
"7 	c #F7F7F9",
"8 	c #F6F7F6",
"9 	c #A1B59F",
"0 	c #8AA283",
"a 	c #C5CEB7",
"b 	c #D2E2BE",
"c 	c #FAFDFA",
"d 	c #FCFDFB",
"e 	c #F6FCF4",
"f 	c #CDCAD1",
"g 	c #5C3171",
"h 	c #693B7C",
"i 	c #734184",
"j 	c #7D498C",
"k 	c #987DA1",
"l 	c #ECEBEF",
"m 	c #E6E8E3",
"n 	c #7D9F7B",
"o 	c #537E4A",
"p 	c #5A7650",
"q 	c #B3B2B0",
"r 	c #F2EEE2",
"s 	c #EBF1E2",
"t 	c #BACEB6",
"u 	c #B1EB8C",
"v 	c #E9F9E0",
"w 	c #F6F8F9",
"x 	c #F8F7F7",
"y 	c #B79786",
"z 	c #CBA78F",
"A 	c #D6B59B",
"B 	c #DCBEA1",
"C 	c #98806F",
"D 	c #7A567C",
"E 	c #AFA3B6",
"F 	c #94A693",
"G 	c #6F846D",
"H 	c #5F6861",
"I 	c #7C7E7F",
"J 	c #7C7C83",
"K 	c #9B9A9D",
"L 	c #97999C",
"M 	c #749870",
"N 	c #ABE488",
"O 	c #BCEF9B",
"P 	c #FDFEFC",
"Q 	c #FEFEFF",
"R 	c #D3D1D0",
"S 	c #947C70",
"T 	c #AD8569",
"U 	c #AC8366",
"V 	c #A19790",
"W 	c #C0AEA1",
"X 	c #9F8576",
"Y 	c #896B8E",
"Z 	c #868186",
"` 	c #6A6972",
" .	c #666877",
"..	c #696B7D",
"+.	c #6C6F7F",
"@.	c #89898E",
"#.	c #5B5E68",
"$.	c #4E7D47",
"%.	c #9CD47E",
"&.	c #B7EF8E",
"*.	c #E3F4DB",
"=.	c #FAFBFC",
"-.	c #EDF8E9",
";.	c #D3F1C4",
">.	c #DAE0D6",
",.	c #B5ACAD",
"'.	c #9BA19F",
").	c #BE9F86",
"!.	c #A5A8A6",
"~.	c #E4E4DB",
"{.	c #EBC7A0",
"].	c #988792",
"^.	c #8B8384",
"/.	c #5F5963",
"(.	c #5F5F72",
"_.	c #66687D",
":.	c #6E7289",
"<.	c #717178",
"[.	c #777F7A",
"}.	c #507E45",
"|.	c #94C17D",
"1.	c #AEE389",
"2.	c #C2E4B0",
"3.	c #C8DCC8",
"4.	c #8BC36F",
"5.	c #9CBD8F",
"6.	c #CACFB5",
"7.	c #CCA087",
"8.	c #C19F86",
"9.	c #EACEAB",
"0.	c #D6B79B",
"a.	c #EBC7A9",
"b.	c #FEE3BE",
"c.	c #CEB19A",
"d.	c #898487",
"e.	c #48474E",
"f.	c #4D4D5F",
"g.	c #5E6076",
"h.	c #6D6F86",
"i.	c #8F8C8B",
"j.	c #849D78",
"k.	c #629453",
"l.	c #D3CBBF",
"m.	c #E6E5CF",
"n.	c #A6D68A",
"o.	c #ECECEF",
"p.	c #B9CABF",
"q.	c #72AC6A",
"r.	c #6E8668",
"s.	c #CECED7",
"t.	c #B9A8A8",
"u.	c #B17D62",
"v.	c #B98E72",
"w.	c #F4DAB5",
"x.	c #D2AA87",
"y.	c #CE9577",
"z.	c #EBB994",
"A.	c #E9C097",
"B.	c #878089",
"C.	c #656671",
"D.	c #585B6C",
"E.	c #4F5268",
"F.	c #85858A",
"G.	c #A3A39A",
"H.	c #76AF62",
"I.	c #B8C8A1",
"J.	c #BFB7A8",
"K.	c #F1EBD9",
"L.	c #C6DAAD",
"M.	c #F3F9F0",
"N.	c #F0F0F3",
"O.	c #B9B0B6",
"P.	c #7CA279",
"Q.	c #5B8C4D",
"R.	c #70747E",
"S.	c #C2C3D1",
"T.	c #9B978D",
"U.	c #936954",
"V.	c #936B59",
"W.	c #BC9575",
"X.	c #EAD2B6",
"Y.	c #C2A789",
"Z.	c #C8A07E",
"`.	c #EABF95",
" +	c #A89B9E",
".+	c #7F808D",
"++	c #7C7F8D",
"@+	c #787A84",
"#+	c #B5B2AC",
"$+	c #859D77",
"%+	c #8FCB73",
"&+	c #CCE0AD",
"*+	c #AAA595",
"=+	c #9F9B8B",
"-+	c #ECE9D3",
";+	c #DEEED7",
">+	c #C0C0CB",
",+	c #BAB6B9",
"'+	c #668A53",
")+	c #5A7837",
"!+	c #5E5F65",
"~+	c #8C9399",
"{+	c #65796D",
"]+	c #9E7B6E",
"^+	c #AA8A7A",
"/+	c #D3C0AF",
"(+	c #E5D0B9",
"_+	c #FDE7C4",
":+	c #FCDCB5",
"<+	c #E8BE94",
"[+	c #7A6175",
"}+	c #7B6A86",
"|+	c #8B878D",
"1+	c #BBB8B1",
"2+	c #919C84",
"3+	c #7CB76C",
"4+	c #A7E081",
"5+	c #AADB88",
"6+	c #B7B3A2",
"7+	c #577740",
"8+	c #E4DCCB",
"9+	c #E2ECD8",
"0+	c #FDFEFD",
"a+	c #D9D9DE",
"b+	c #A69998",
"c+	c #AFA29C",
"d+	c #888B68",
"e+	c #62803C",
"f+	c #7D8B72",
"g+	c #4E6351",
"h+	c #4A4C59",
"i+	c #896A64",
"j+	c #B08973",
"k+	c #C79C7D",
"l+	c #F1CDA7",
"m+	c #FEE2BD",
"n+	c #F7CFA5",
"o+	c #CAA07F",
"p+	c #867E8D",
"q+	c #BDBBB5",
"r+	c #BEB9B0",
"s+	c #919483",
"t+	c #76AF69",
"u+	c #9DD77F",
"v+	c #A5DF7F",
"w+	c #9BD776",
"x+	c #CCC5B4",
"y+	c #A96748",
"z+	c #B8B0A2",
"A+	c #E4E6D3",
"B+	c #D7DFDB",
"C+	c #EEE8DF",
"D+	c #A39483",
"E+	c #E4E2E1",
"F+	c #F0F0EF",
"G+	c #F2F4F2",
"H+	c #4F605E",
"I+	c #373A42",
"J+	c #6D5F55",
"K+	c #A67F69",
"L+	c #D0A483",
"M+	c #EBC49D",
"N+	c #F0C9A0",
"O+	c #D9AE87",
"P+	c #8A7373",
"Q+	c #A19D99",
"R+	c #938C88",
"S+	c #867980",
"T+	c #768B68",
"U+	c #83BB69",
"V+	c #9ED978",
"W+	c #A1D97E",
"X+	c #D2E3B9",
"Y+	c #E8DECE",
"Z+	c #BE4C3C",
"`+	c #9B8478",
" @	c #EBE5D6",
".@	c #F3F2F4",
"+@	c #B0AEB9",
"@@	c #E2DBCE",
"#@	c #ADA498",
"$@	c #DDDBDA",
"%@	c #F3F4F5",
"&@	c #DEE1DE",
"*@	c #484F5C",
"=@	c #313C3A",
"-@	c #3D5A46",
";@	c #765047",
">@	c #865941",
",@	c #A17758",
"'@	c #987152",
")@	c #63453A",
"!@	c #64616E",
"~@	c #87807A",
"{@	c #563166",
"]@	c #8B5D93",
"^@	c #5F4C61",
"/@	c #89AC72",
"(@	c #D0E0BA",
"_@	c #F5F3E1",
":@	c #FBF5E6",
"<@	c #EFE7D5",
"[@	c #BC978B",
"}@	c #9A8E83",
"|@	c #E9DECE",
"1@	c #FDFDFD",
"2@	c #F3F3F4",
"3@	c #998D89",
"4@	c #AFA59C",
"5@	c #C4BCB0",
"6@	c #EEEEEF",
"7@	c #9DA6A2",
"8@	c #383C47",
"9@	c #345439",
"0@	c #31374A",
"a@	c #150522",
"b@	c #29141B",
"c@	c #32191F",
"d@	c #2F1F31",
"e@	c #515556",
"f@	c #5F6462",
"g@	c #6E945E",
"h@	c #45264C",
"i@	c #5E2E65",
"j@	c #71636A",
"k@	c #E7E5DA",
"l@	c #D8D4C9",
"m@	c #E8E3D5",
"n@	c #F8F2E1",
"o@	c #F1EAD8",
"p@	c #C1B7AA",
"q@	c #B7B1A5",
"r@	c #D2C7B7",
"s@	c #F9F7F3",
"t@	c #F7F6F5",
"u@	c #DBD6D3",
"v@	c #ECE8E3",
"w@	c #EBEBEC",
"x@	c #566462",
"y@	c #30333C",
"z@	c #3A6540",
"A@	c #314A43",
"B@	c #2D1B47",
"C@	c #322148",
"D@	c #506B50",
"E@	c #657668",
"F@	c #777D75",
"G@	c #78AF67",
"H@	c #80BC69",
"I@	c #668F4F",
"J@	c #908C82",
"K@	c #4E4C45",
"L@	c #181610",
"M@	c #222019",
"N@	c #1F1C16",
"O@	c #918D82",
"P@	c #EEE8D7",
"Q@	c #CFC5B7",
"R@	c #C49286",
"S@	c #B4A99C",
"T@	c #F4EFE8",
"U@	c #F9F9F8",
"V@	c #C8CCC2",
"W@	c #757F7A",
"X@	c #42454C",
"Y@	c #437649",
"Z@	c #4C834F",
"`@	c #507948",
" #	c #669358",
".#	c #728674",
"+#	c #615E5E",
"@#	c #669758",
"##	c #75B062",
"$#	c #6EA154",
"%#	c #A7AB96",
"&#	c #434342",
"*#	c #707073",
"=#	c #94928F",
"-#	c #6E6B66",
";#	c #7A7771",
">#	c #38352E",
",#	c #888379",
"'#	c #E5DCCC",
")#	c #C14535",
"!#	c #988B80",
"~#	c #EFE8E0",
"{#	c #FAFAFA",
"]#	c #B9C2B7",
"^#	c #9FB69C",
"/#	c #7B7D86",
"(#	c #596C5D",
"_#	c #597F5C",
":#	c #607765",
"<#	c #626568",
"[#	c #4B4F48",
"}#	c #557D49",
"|#	c #689C56",
"1#	c #71A658",
"2#	c #9AA683",
"3#	c #53514E",
"4#	c #646771",
"5#	c #939397",
"6#	c #A4A19D",
"7#	c #87827A",
"8#	c #CECAC2",
"9#	c #AFACA3",
"0#	c #34312B",
"a#	c #CDC4B5",
"b#	c #BE8379",
"c#	c #9F877A",
"d#	c #E9E1D6",
"e#	c #D5D8D6",
"f#	c #5F8075",
"g#	c #848998",
"h#	c #757680",
"i#	c #585C64",
"j#	c #47544A",
"k#	c #4E6F46",
"l#	c #619051",
"m#	c #628F50",
"n#	c #6D9E56",
"o#	c #779F5F",
"p#	c #9C9687",
"q#	c #66676E",
"r#	c #9C9DA3",
"s#	c #89888A",
"t#	c #AAA7A2",
"u#	c #D6D3CB",
"v#	c #E7E4DC",
"w#	c #CAC6BB",
"x#	c #89857D",
"y#	c #8E7E83",
"z#	c #BBB1A3",
"A#	c #A9A298",
"B#	c #D0C8BE",
"C#	c #ECEBEB",
"D#	c #49605C",
"E#	c #617A8C",
"F#	c #496D45",
"G#	c #446C3B",
"H#	c #4B743D",
"I#	c #558041",
"J#	c #598545",
"K#	c #568243",
"L#	c #6B9D51",
"M#	c #99A27F",
"N#	c #9C9794",
"O#	c #CECFD6",
"P#	c #E9E9E6",
"Q#	c #C4C7C4",
"R#	c #B2AEAA",
"S#	c #AEA8A1",
"T#	c #BEB8AD",
"U#	c #BCB5AB",
"V#	c #959087",
"W#	c #604363",
"X#	c #C9BFB1",
"Y#	c #B3978B",
"Z#	c #A59C92",
"`#	c #EBE9EC",
" $	c #E4DEE2",
".$	c #FEFEFC",
"+$	c #8A8882",
"@$	c #737D7C",
"#$	c #6A6430",
"$$	c #615825",
"%$	c #6D612C",
"&$	c #557938",
"*$	c #577D3B",
"=$	c #5B823E",
"-$	c #729D4D",
";$	c #978F84",
">$	c #CFD0D5",
",$	c #9BABBA",
"'$	c #6FA2B4",
")$	c #A4BEC4",
"!$	c #F4F3F1",
"~$	c #C8C5BC",
"{$	c #A19A90",
"]$	c #9E978D",
"^$	c #757067",
"/$	c #8E7788",
"($	c #DCD1C1",
"_$	c #B8503F",
":$	c #999187",
"<$	c #BEB9B8",
"[$	c #DBD7D0",
"}$	c #BCA5BD",
"|$	c #F3F5E3",
"1$	c #FAF8F3",
"2$	c #E6E4E4",
"3$	c #627E7D",
"4$	c #4E6330",
"5$	c #445526",
"6$	c #4B6730",
"7$	c #567636",
"8$	c #597A39",
"9$	c #658B41",
"0$	c #698044",
"a$	c #B5AFB2",
"b$	c #D6D6DA",
"c$	c #518296",
"d$	c #9EBCC3",
"e$	c #66888A",
"f$	c #E9E9E1",
"g$	c #F0E9D9",
"h$	c #9B9287",
"i$	c #928B82",
"j$	c #B9B0A3",
"k$	c #846680",
"l$	c #DFD3C2",
"m$	c #847E57",
"n$	c #A9A29C",
"o$	c #D3D3D9",
"p$	c #D3CDCB",
"q$	c #D1C4D0",
"r$	c #BEF198",
"s$	c #CBF3AC",
"t$	c #F4F8EA",
"u$	c #B8C3B5",
"v$	c #4F6533",
"w$	c #671D13",
"x$	c #713718",
"y$	c #547335",
"z$	c #5A7A37",
"A$	c #607F42",
"B$	c #777A6C",
"C$	c #CEC9C6",
"D$	c #E9E5E2",
"E$	c #E0E7E6",
"F$	c #94B8BD",
"G$	c #B5CAC9",
"H$	c #EEE6D5",
"I$	c #F4ECDC",
"J$	c #C5BAAA",
"K$	c #D7CBBB",
"L$	c #A7919B",
"M$	c #C0B8C1",
"N$	c #DCD9D5",
"O$	c #DBD9D7",
"P$	c #F7F7F7",
"Q$	c #D7D5D6",
"R$	c #A999A3",
"S$	c #D0DDC0",
"T$	c #B7ED8F",
"U$	c #BCF294",
"V$	c #E2F5CB",
"W$	c #FDFBF9",
"X$	c #EDEBE9",
"Y$	c #E5E4E0",
"Z$	c #CFD1C8",
"`$	c #D7D0CB",
" %	c #A5B993",
".%	c #8BC672",
"+%	c #8FCA74",
"@%	c #8FC07C",
"#%	c #9F9E9B",
"$%	c #D3D0CB",
"%%	c #FDFAF3",
"&%	c #F7F5EC",
"*%	c #E3E3D9",
"=%	c #F6F0E3",
"-%	c #FBF5E5",
";%	c #DACDBC",
">%	c #BFB3A2",
",%	c #A7919A",
"'%	c #7A5C7C",
")%	c #F7F6F7",
"!%	c #FDFDFE",
"~%	c #D2CDCB",
"{%	c #988291",
"]%	c #C1DFA2",
"^%	c #A8E07E",
"/%	c #B2E989",
"(%	c #EDF5D7",
"_%	c #F2F0E8",
":%	c #DDD8D0",
"<%	c #E5E1D7",
"[%	c #F2EDE4",
"}%	c #F7F3EC",
"|%	c #EFECE5",
"1%	c #A4D78A",
"2%	c #9EDD80",
"3%	c #9DDC7F",
"4%	c #99A68A",
"5%	c #C7C4BC",
"6%	c #E5E2D9",
"7%	c #FEFDFC",
"8%	c #FFFFF9",
"9%	c #FDFAED",
"0%	c #DFD4C5",
"a%	c #A38F90",
"b%	c #6D4D68",
"c%	c #6E4766",
"d%	c #DAD8D8",
"e%	c #EBEAEC",
"f%	c #EEEEF0",
"g%	c #B8AFAB",
"h%	c #B9ACA5",
"i%	c #91C56C",
"j%	c #98D172",
"k%	c #AFDA8B",
"l%	c #EDE4D3",
"m%	c #DDD6CA",
"n%	c #D5CEC4",
"o%	c #DAD3C6",
"p%	c #E1DACE",
"q%	c #E9E2D9",
"r%	c #C8D6B7",
"s%	c #97D57A",
"t%	c #9DA88E",
"u%	c #C5C0B6",
"v%	c #B8B2A8",
"w%	c #ADA295",
"x%	c #ECE7D9",
"y%	c #EEE5D4",
"z%	c #887079",
"A%	c #552E55",
"B%	c #726262",
"C%	c #A4C984",
"D%	c #F8F9F6",
"E%	c #D7D9D8",
"F%	c #5C8455",
"G%	c #739D63",
"H%	c #A59EA6",
"I%	c #F6F5F6",
"J%	c #D6D3D6",
"K%	c #DFD9D2",
"L%	c #BFC3A9",
"M%	c #ADB68A",
"N%	c #D7D6C4",
"O%	c #F1EEEB",
"P%	c #CCC4BE",
"Q%	c #B7AA9D",
"R%	c #C6BBAE",
"S%	c #CCC2B5",
"T%	c #D0C8BB",
"U%	c #D4CBBF",
"V%	c #D4CCC1",
"W%	c #84BC6A",
"X%	c #86C36A",
"Y%	c #859272",
"Z%	c #999289",
"`%	c #9F988E",
" &	c #7E7268",
".&	c #A69482",
"+&	c #A59789",
"@&	c #634F52",
"#&	c #645D4F",
"$&	c #88B56A",
"%&	c #E0EBCE",
"&&	c #FAF7EE",
"*&	c #F8F9F8",
"=&	c #799176",
"-&	c #82A96F",
";&	c #A6D588",
">&	c #D9E0C2",
",&	c #A79BA5",
"'&	c #FCFBFC",
")&	c #E5E1DE",
"!&	c #C1B7AE",
"~&	c #AF9E8D",
"{&	c #B4A596",
"]&	c #BAAD9E",
"^&	c #C0B3A5",
"/&	c #91A678",
"(&	c #76AC59",
"_&	c #6A7A55",
":&	c #796F65",
"<&	c #776F66",
"[&	c #60544B",
"}&	c #61554B",
"|&	c #1F1E1B",
"1&	c #455B39",
"2&	c #81B265",
"3&	c #D3DDC0",
"4&	c #FEFCF2",
"5&	c #F0EADA",
"6&	c #FEFDFD",
"7&	c #C9CBCF",
"8&	c #C3BFB9",
"9&	c #E8E2D6",
"0&	c #E6E8D1",
"a&	c #ACD78D",
"b&	c #D1D3BC",
"c&	c #C3BCC4",
"d&	c #F4F3F2",
"e&	c #DBD4CF",
"f&	c #BBACA1",
"g&	c #AE9C8C",
"h&	c #8F916F",
"i&	c #699247",
"j&	c #557440",
"k&	c #324425",
"l&	c #172C12",
"m&	c #22381A",
"n&	c #4B6E38",
"o&	c #679248",
"p&	c #81A75E",
"q&	c #ACB091",
"r&	c #E5DECD",
"s&	c #E8DFCE",
"t&	c #E3E2DF",
"u&	c #AFADAD",
"v&	c #E0DACF",
"w&	c #F9F3E5",
"x&	c #E5E4CD",
"y&	c #A5C58A",
"z&	c #AEA5A0",
"A&	c #F2F1F3",
"B&	c #D4D2D4",
"C&	c #918C76",
"D&	c #688848",
"E&	c #AFB09C",
"F&	c #9CA088",
"G&	c #77865C",
"H&	c #7B8B54",
"I&	c #8D9162",
"J&	c #BAB6A2",
"K&	c #988779",
"L&	c #B09F8E",
"M&	c #C7B7A4",
"N&	c #D8CBBB",
"O&	c #E5D9C9",
"P&	c #CEC7BE",
"Q&	c #D9D3C9",
"R&	c #F4EEE1",
"S&	c #FDF7E9",
"T&	c #F8F2E2",
"U&	c #E0DCC8",
"V&	c #81B560",
"W&	c #D8D7C1",
"X&	c #B8B0B8",
"Y&	c #C9C8C9",
"Z&	c #CDC8BF",
"`&	c #EDE8DB",
" *	c #F6F2E4",
".*	c #BBB5A8",
"+*	c #E5DFD6",
"@*	c #FAF8F7",
"#*	c #CFC8C3",
"$*	c #A79380",
"%*	c #B2A090",
"&*	c #C9BAA9",
"**	c #DFD2C2",
"=*	c #DBD2C2",
"-*	c #E5DFD4",
";*	c #FDF7EA",
">*	c #F5EEDC",
",*	c #D5D0BD",
"'*	c #7CAE58",
")*	c #E4DFCA",
"!*	c #B1A7A3",
"~*	c #E7E7E8",
"{*	c #D3CDC6",
"]*	c #E6E0D4",
"^*	c #F8F2E6",
"/*	c #FBF5E7",
"(*	c #EBE3D3",
"_*	c #F7F5F3",
":*	c #F5F3F3",
"<*	c #A79485",
"[*	c #AD9987",
"}*	c #BFAC9B",
"|*	c #D7C9B9",
"1*	c #DED2C2",
"2*	c #C4BEB3",
"3*	c #F7F1DF",
"4*	c #D6D1BC",
"5*	c #A6B184",
"6*	c #DDD1C0",
"7*	c #99AF7F",
"8*	c #B9B7B8",
"9*	c #E3DED2",
"0*	c #E0DBCF",
"a*	c #F6F0DF",
"b*	c #ECE6DC",
"c*	c #CAC1BC",
"d*	c #AB9684",
"e*	c #BAA693",
"f*	c #D1C1AD",
"g*	c #E0D4C3",
"h*	c #B4ADA1",
"i*	c #E1D5C5",
"j*	c #A9B68A",
"k*	c #8E916C",
"l*	c #80995D",
"m*	c #ACBB9F",
"n*	c #E4E4E6",
"o*	c #BAB7B3",
"p*	c #EFE9DE",
"q*	c #FDF9EC",
"r*	c #B7B2A6",
"s*	c #E4DECE",
"t*	c #FBFBFA",
"u*	c #F2F0F0",
"v*	c #A99687",
"w*	c #B6A28D",
"x*	c #C9B8A3",
"y*	c #DFD1BF",
"z*	c #B8B0A3",
"A*	c #ECE3D2",
"B*	c #DACEBB",
"C*	c #B8B79E",
"D*	c #DBE1D6",
"E*	c #D3D9CE",
"F*	c #DBDED7",
"G*	c #D3D1D4",
"H*	c #C2BCB6",
"I*	c #F5F0E6",
"J*	c #FCF6EA",
"K*	c #F2ECDE",
"L*	c #8F8980",
"M*	c #E9E9E7",
"N*	c #E0DDDB",
"O*	c #8F7E72",
"P*	c #A39381",
"Q*	c #B9AD9B",
"R*	c #BCB3A6",
"S*	c #E0D5C7",
"T*	c #F6F4F2",
"U*	c #C7C6C8",
"V*	c #C7C2BA",
"W*	c #F1EBDF",
"X*	c #FDF7EB",
"Y*	c #F9F3E3",
"Z*	c #BAB4A7",
"`*	c #E5E4E2",
" =	c #DBDBDB",
".=	c #6D6664",
"+=	c #878179",
"@=	c #9F998F",
"#=	c #DCD5CA",
"$=	c #FAFAFB",
"%=	c #ABAAAE",
"&=	c #D9D3CA",
"*=	c #F7F1E5",
"==	c #FEF9EC",
"-=	c #DCD6CB",
";=	c #F0EFEE",
">=	c #9C968C",
",=	c #AFA89F",
"'=	c #D1CAC2",
")=	c #FBFAF9",
"!=	c #DDDDDF",
"~=	c #B9B5B3",
"{=	c #E6E0D5",
"]=	c #FCF6E9",
"^=	c #FEF8EB",
"/=	c #F7F1E1",
"(=	c #EFEAE0",
"_=	c #F3F2F1",
":=	c #F4F2F1",
"<=	c #AAA9AE",
"[=	c #C7C2BC",
"}=	c #EFE9DD",
"|=	c #FDF7E8",
"1=	c #F5EFDD",
"2=	c #D3D7D3",
"3=	c #8D9E89",
"4=	c #C8CCB9",
"5=	c #F6F0E4",
"6=	c #FCF6E7",
"7=	c #F3ECDB",
"8=	c #D9DDD7",
"9=	c #518041",
"0=	c #6CA458",
"a=	c #8FCB70",
"b=	c #D1E6BB",
"c=	c #FAF4E4",
"d=	c #F1EBD8",
"e=	c #E5E5E4",
"f=	c #B9C4B6",
"g=	c #BACDB4",
"h=	c #7F9A6F",
"i=	c #414E32",
"j=	c #495737",
"k=	c #83B168",
"l=	c #B3E58F",
"m=	c #DBE9C4",
"n=	c #F7F1E0",
"o=	c #F0EAD8",
"p=	c #C9C5C9",
"q=	c #48274B",
"r=	c #593662",
"s=	c #767975",
"t=	c #8CC072",
"u=	c #97A982",
"v=	c #635E59",
"w=	c #2F3335",
"x=	c #89AE6E",
"y=	c #A1D67F",
"z=	c #BDD4A3",
"A=	c #DCDFC2",
"B=	c #EEEBE1",
"C=	c #968B93",
"D=	c #4D2947",
"E=	c #4C2744",
"F=	c #623D5C",
"G=	c #836386",
"H=	c #BCC2A9",
"I=	c #E1DCCA",
"J=	c #BEB9A9",
"K=	c #716E64",
"L=	c #85B666",
"M=	c #A4DD7E",
"N=	c #98CA75",
"O=	c #EEEAE0",
"P=	c #DAD7DA",
"Q=	c #584054",
"R=	c #3E2136",
"S=	c #41203B",
"T=	c #4B2B47",
"U=	c #6B426F",
"V=	c #CCC1BD",
"W=	c #EFEAD7",
"X=	c #C9C4B3",
"Y=	c #85B365",
"Z=	c #A1D97A",
"`=	c #95CC70",
" -	c #BAD1A1",
"                                                                                                ",
"                                                                                                ",
"                                . + @ # $ % & *                                                 ",
"                            = - ; > = , ' )   ! ~ {                                             ",
"                          ] ^     /     ( _       : < [ }                                       ",
"                        | 1     2 3 4 5 6 > 7   8 9 0 a b c d e                                 ",
"                      2 -       f g h i j k l m n o p q r s t u v                               ",
"                      w       x y z A B C D E F G H I J K L M N O P                             ",
"                    Q {       R S T U V W X Y Z `  ...+.@.#.$.%.&.*.                            ",
"                    =.    -.;.>.,.'.).!.~.{.].^./.(._.:.<.[.}.|.1.2.                            ",
"                    | 2 3.4.5.6.7.8.9.0.a.b.c.d.e.f.g.h.i.j.k.l.m.n.                            ",
"                    o.p.q.r.s.t.u.v.w.x.y.z.A.B.C.D.E.F.G.H.I.J.K.L.M.                          ",
"                  N.O.P.Q.R.S.T.U.V.W.X.Y.Z.`. +.+++@+#+$+%+&+*+=+-+;+                          ",
"                { >+,+'+)+!+~+{+]+^+/+(+_+:+<+[+}+|+1+2+3+4+5+6+7+8+9+                          ",
"              0+a+b+c+d+e+f+g+h+i+j+k+l+m+n+o+p+q+r+s+t+u+v+w+x+y+z+A+                          ",
"              B+C+D+E+F+  G+H+I+J+K+L+M+N+O+P+Q+R+S+T+U+V+W+X+Y+Z+`+ @                          ",
"            .@+@@@#@$@%@  &@*@=@-@;@>@,@'@)@!@~@{@]@^@/@(@_@:@<@[@}@|@1@                        ",
"            2@3@4@5@6@%@1@7@8@9@0@a@b@c@d@e@f@g@h@i@j@k@l@m@n@o@p@q@r@s@                        ",
"              t@u@v@    w@x@y@z@A@B@C@D@E@F@G@H@I@J@K@L@M@N@O@P@Q@R@S@T@                        ",
"                      U@V@W@X@Y@Z@`@ #.#+#@###$#%#&#*#=#-#;#>#,#'#)#!#~#                        ",
"                      {#]#^#/#(#_#:#<#[#}#|#1#2#3#4#5#6#7#8#9#0#a#b#c#d#                        ",
"                        e#f#g#h#i#j#k#l#m#n#o#p#q#r#s#t#u#v#w#x#y#z#A#B#                        ",
"                        C#D#E#F#G#H#I#J#K#L#M#N#O#P#Q#R#S#T#U#V#W#X#Y#Z#                        ",
"            * `# $.$      +$@$#$$$%$&$*$=$-$;$>$,$'$)$!$~${$]$^$/$($_$:$                        ",
"          1@<$[$}$|$1$    2$3$4$5$6$7$8$9$0$a$b$c$d$e$f$g$h$i$j$k$l$m$n$                        ",
"            o$p$q$r$s$t$    u$v$w$x$y$z$A$B$C$D$E$F$G$H$I$J$K$L$M$N$O$P$                        ",
"            Q$R$S$T$U$V$W$X$Y$Z$`$ %.%+%@%#%$%%%&%*%=%-%;%>%,%'%)%                              ",
"          !%~%{%]%^%/%(%_%:%<%[%}%|%1%2%3%4%5%6%7%8%9%0%a%b%c%d%      2@e%                      ",
"          f%g%h%i%j%k%l%m%n%l.o%p%q%r%s%s%t%u%v%w%x%y%z%A%B%C%D%    E%F%G%H%I%                  ",
"            J%K%L%M%N%O%P%Q%R%S%T%U%V%W%X%Y%Z%`% &.&+&@&#&$&%&&&  *&=&-&;&>&,&'&                ",
"                          )&!&~&{&]&^&/&(&_&:&<&[&}&|&1&2&3&4&5&6&7&8&9&0&a&b&c&                ",
"                              d&e&f&g&h&i&j&k&l&m&n&o&p&q&r&y%s&t&u&v&w&:@x&y&z&A&              ",
"                                    B&C&D&E&F&G&H&I&J&K&L&M&N&O&P&Q&R&S&T&U&V&W&X&              ",
"                                    Y&Z&`& *.*+*1@@*  #*$*%*&***=*-*;*:@>*,*'*)*!*              ",
"                                  ~*{*]*^*/*(*_*      :*<*[*}*|*1*2*S&3*y%4*5*6*7**             ",
"                                2 8*-*9*0*a*b*          c*d*e*f*g*h*n@y%i*j*k*l*m*              ",
"                                n*o*p*q*r*s*t*          u*v*w*x*y*z*A*B*C*D*E*F*2               ",
"                                G*H*I*J*K*L*M*            N*O*P*Q*R*S*T*                        ",
"                                U*V*W*X*Y*Z*`*             =.=+=@=#=1@                          ",
"                              $=%=&=*===T&-=              ;=>=,='=)=                            ",
"                              !=~={=]=^=/=(=                _=:=                                ",
"                            = <=[=}===|=1=(=                                                    ",
"                            2=3=4=5===6=7=(=                                                    ",
"                          8=9=0=a=b=S&c=d=(=                                                    ",
"                    e=f=g=h=i=j=k=l=m=n=o=(=                                                    ",
"                  p=q=r=s=t=u=v=w=x=y=z=A=B=                                                    ",
"                  C=D=E=F=G=H=I=J=K=L=M=N=O=                                                    ",
"                  P=Q=R=S=T=U=V=W=X=Y=Z=`= -                                                    "};
