/* XPM */
static char * wall2_48_xpm[] = {
"64 64 255 2",
"  	c #010400",
". 	c #040803",
"+ 	c #060A05",
"@ 	c #080B07",
"# 	c #090C08",
"$ 	c #0B0E0A",
"% 	c #0D100C",
"& 	c #0E110D",
"* 	c #10120F",
"= 	c #131512",
"- 	c #11170E",
"; 	c #141614",
"> 	c #161816",
", 	c #181917",
"' 	c #1A1A13",
") 	c #191B18",
"! 	c #1A1C19",
"~ 	c #1B1D1A",
"{ 	c #1E1F18",
"] 	c #1D1F1C",
"^ 	c #1C2114",
"/ 	c #1E201D",
"( 	c #1F201E",
"_ 	c #1F211F",
": 	c #212320",
"< 	c #202518",
"[ 	c #222421",
"} 	c #232422",
"| 	c #232615",
"1 	c #232523",
"2 	c #252724",
"3 	c #262825",
"4 	c #272826",
"5 	c #272927",
"6 	c #242D1A",
"7 	c #292B28",
"8 	c #282D20",
"9 	c #2A2C29",
"0 	c #2C2D25",
"a 	c #2B2D2A",
"b 	c #2C2D2B",
"c 	c #28311E",
"d 	c #2D2F2C",
"e 	c #303029",
"f 	c #2F312F",
"g 	c #313330",
"h 	c #323331",
"i 	c #323432",
"j 	c #343633",
"k 	c #36362F",
"l 	c #34382B",
"m 	c #353735",
"n 	c #373936",
"o 	c #383A37",
"p 	c #383B33",
"q 	c #393B39",
"r 	c #3B3D3A",
"s 	c #3C3E3B",
"t 	c #3D3F3C",
"u 	c #3C4133",
"v 	c #3B4138",
"w 	c #394520",
"x 	c #3F413E",
"y 	c #3F413F",
"z 	c #414340",
"A 	c #434543",
"B 	c #454744",
"C 	c #464845",
"D 	c #424C2F",
"E 	c #474946",
"F 	c #494942",
"G 	c #494B48",
"H 	c #4A4C49",
"I 	c #495137",
"J 	c #4D4F4C",
"K 	c #4F4F47",
"L 	c #4E504D",
"M 	c #4F514E",
"N 	c #515350",
"O 	c #4D5641",
"P 	c #525451",
"Q 	c #535552",
"R 	c #50583E",
"S 	c #4F5944",
"T 	c #535849",
"U 	c #555754",
"V 	c #565855",
"W 	c #575956",
"X 	c #565D3D",
"Y 	c #595C59",
"Z 	c #5C5E5B",
"` 	c #5E605D",
" .	c #60625F",
"..	c #626461",
"+.	c #636562",
"@.	c #656764",
"#.	c #666866",
"$.	c #686A67",
"%.	c #696B68",
"&.	c #6A6C69",
"*.	c #6A6F5F",
"=.	c #6C6E6B",
"-.	c #6D6F6C",
";.	c #6E706D",
">.	c #6F716E",
",.	c #6D765A",
"'.	c #727471",
").	c #737572",
"!.	c #747673",
"~.	c #757774",
"{.	c #717A61",
"].	c #767875",
"^.	c #777976",
"/.	c #787A77",
"(.	c #797B78",
"_.	c #7A7C79",
":.	c #757F68",
"<.	c #777F63",
"[.	c #7B7D7A",
"}.	c #7D7D75",
"|.	c #787F75",
"1.	c #7C7E7B",
"2.	c #7D7F7C",
"3.	c #7E807D",
"4.	c #7F817E",
"5.	c #80827F",
"6.	c #81846F",
"7.	c #818380",
"8.	c #828481",
"9.	c #7D8960",
"0.	c #838582",
"a.	c #848683",
"b.	c #7C8B6D",
"c.	c #858873",
"d.	c #858784",
"e.	c #868885",
"f.	c #818B74",
"g.	c #878986",
"h.	c #888A87",
"i.	c #878C7D",
"j.	c #898B88",
"k.	c #8A8C89",
"l.	c #868E83",
"m.	c #8B8D8A",
"n.	c #8A8F7F",
"o.	c #8C8E8B",
"p.	c #8D8F8C",
"q.	c #8F8F86",
"r.	c #8E908D",
"s.	c #8B9287",
"t.	c #8F918E",
"u.	c #8D9383",
"v.	c #90928F",
"w.	c #90938A",
"x.	c #919390",
"y.	c #8F9585",
"z.	c #929491",
"A.	c #939592",
"B.	c #949693",
"C.	c #8F9A7A",
"D.	c #929888",
"E.	c #959794",
"F.	c #969895",
"G.	c #939A8F",
"H.	c #979996",
"I.	c #949C7F",
"J.	c #949B91",
"K.	c #989A97",
"L.	c #979C8C",
"M.	c #999C98",
"N.	c #979F82",
"O.	c #9A9D99",
"P.	c #9B9E9A",
"Q.	c #9C9F9C",
"R.	c #9BA28B",
"S.	c #9DA09D",
"T.	c #9EA19E",
"U.	c #A0A198",
"V.	c #9CA399",
"W.	c #A0A29F",
"X.	c #A1A3A0",
"Y.	c #A2A4A1",
"Z.	c #A1A696",
"`.	c #A3A5A2",
" +	c #A4A6A3",
".+	c #A5A7A4",
"++	c #A6A8A5",
"@+	c #A7A9A6",
"#+	c #A9A9A0",
"$+	c #A8AAA7",
"%+	c #A9ABA8",
"&+	c #AAACA9",
"*+	c #ACACA3",
"=+	c #ABADAA",
"-+	c #ADADA4",
";+	c #ACAEAB",
">+	c #AEAEA5",
",+	c #ADAFAC",
"'+	c #AEB1AD",
")+	c #AFB2AE",
"!+	c #B0B3AF",
"~+	c #B1B4B0",
"{+	c #B2B5B2",
"]+	c #B4B6B3",
"^+	c #B5B7B4",
"/+	c #B6B8B5",
"(+	c #B7B9B6",
"_+	c #B8BAB7",
":+	c #B9BBB8",
"<+	c #BABCB9",
"[+	c #B6BEB3",
"}+	c #BBBDBA",
"|+	c #BCBEBB",
"1+	c #BDBFBC",
"2+	c #BEC1BD",
"3+	c #BFC2BE",
"4+	c #C0C3BF",
"5+	c #C1C4C1",
"6+	c #C3C5C2",
"7+	c #C4C6C3",
"8+	c #C5C7C4",
"9+	c #C7C9C6",
"0+	c #C9C9C0",
"a+	c #C8CAC7",
"b+	c #C9CBC8",
"c+	c #CACCC9",
"d+	c #CBCECA",
"e+	c #CDCFCC",
"f+	c #CED1CE",
"g+	c #D0D2CF",
"h+	c #D1D3D0",
"i+	c #D2D4D1",
"j+	c #D0D6C5",
"k+	c #D3D5D2",
"l+	c #D5D7D4",
"m+	c #D7D9D6",
"n+	c #D8DBD7",
"o+	c #D9DCD9",
"p+	c #DBDEDA",
"q+	c #DDDFDC",
"r+	c #DEE0DD",
"s+	c #DEE2CA",
"t+	c #DFE1DE",
"u+	c #E0E3DF",
"v+	c #E1E4E0",
"w+	c #E2E5E1",
"x+	c #E4E6E3",
"y+	c #E6E8E5",
"z+	c #E7EAE6",
"A+	c #EAECE9",
"B+	c #EBEEEA",
"C+	c #ECEFEB",
"D+	c #EEF1ED",
"E+	c #F1F3F0",
"F+	c #FFFFFF",
"L K.++&+,+)+@+Y. +%+%+&+.+X.P.P.P.Q.T.@+$+`.S.T.++++@+)+{+'+,+Z @.X.`.X. +@+W.P.S.T.S.P.W.Y.Q.M.K.O.S..+$+,+'+&+$+;+'+'+$+%+%+p ",
"n K.a+b+c+e+3+^+4+9+a+5+}+{+'+~+'+(+5+b+9+5+^+^+_+/+3+a+d+c+p+[.G X.:+^+4+8+3+/+!+{+!+&+~+~+^+~+++.+.+~+3+g+f+d+i+n+n+l+d+l+u+t ",
"2 /.;+$+++&+H.B.W.{+!+X.T.P.T.Q.P.!+_+1+:+'+S.t.8.g.z.Q.X.%+k+[.d ].A.x.P.&+++r.j.B.x.k.d.t.M.B.0.^.).a.;+}+/+4+e+f+4+|+{+c+q+s ",
"d d.@+O.z.M.M.H..+,+=+Y.$+)+)+]+)+~+!+~+,+Y.H.p.4.7.e.B.F.X.k+1.o h.P.Q.S.,+X.t.z.H.t.m.p.H.B.0.].).[.m.$+}+1+_+|+4+]+!+,+8+p+t ",
"b 3.S.x.m.X. +++%+!+&+@+,+)+/+9+3+^+++M.O.K.A.h.4._.4.k.t.P.h+_.x k.X.`.Y. +E.z.A.T.B.A.A.z.p._.].].e.k.P.^+^+'+^+)+@+`.&+3+t+A ",
"f 3.X.B.t. +]+;+@+=+$+++X.X./+4+}+_+&+F.p.k.p.7.1.7.e.g.j.S.l+(.s d.Q.T.K.S.P.p.m.K.H.E.F.z.r.3.a.d.7.a.S.~+=+~+:+{+P.d.K.<+u+E ",
"b _.O.Q.Q.T.%+Y.W..+!+%+T.Q.++Y.=+$+S.m.d.k.x.m.j.o.v.k.o..+n+_.f (.P.B.v.B.p.7.d.A.F.E.x.p.j.d.H.H.r.r. +_+<+|+:+&+r.'.m.1+w+B ",
"} $.z.O.X.K.O.P. +@+'+,+S.O.M.v.t.d.k.8.5.j.F.Q.X.@+ +A.p.++p+1.f ].v.0.8.g.5.(.1.e.p.o.a.0.e.m.S.%+;+ +%+_+7+5+}+)+r.2.e.~+p+y ",
"] J 2.K.++E.A.F. +&+%+ +Q.Q.t.3.2.^.2.1.5.g.P.;+]+/+^+$+Q.'+p+1.g #.7.1.]._.1.1._.1.a.5.(._.h.k.x.W.;+$+@+%+1+7+(+`.v.a.3.`.m+s ",
"> n [.E.$+Y.O.B.T.T.K.Q.K.o.a.4.^.>.].2.a.z.Y.~+}+~+~+ +K.=+m+_.d ;.k.8.~.>.).^.).-.!.1.[.(.g.k.k.E.T.K.E. +~+2+{+ +.+K.B.++l+q ",
"~ E d.x.`.X..+K.t.E.B.M.p.5.1.8.1.(._.e.h.A.;+<+{+.+P.x.g.++n+1.j ^.P.M.1.>.;.!.%. .#.).7.0.a.r.k.g.e.h.p.++!+!+=+@+=+{+2+4+n+q ",
"3 #.H.P.Q.S.B.x.g.t.K.X.z.8.2.8.5.4.4.z.P.Q.;+{+ +A.g.a.2.H.k+1.s 3.P.`.H.a.(.!.#. .@.'.0.t.t.k.5.(./.g.z.`.++@+@+.+_+d+g+l+w+x ",
"d 1.X.P.H.P.x.e.8.v.@+$+F.a.1.8.8.5.j.x.S.S.`.'+W.z.a.8.2.z.g+[.j ).E.)+,+P.e._.;.$.$./.m.E.S.B.0.1.8.x.K.K.S.W.O.++8+i+k+t+z+A ",
"7 _.O.E.k.r.t._.).4.O.T.o._.;.;.~._.j.r.z.v.P.`.H.d._.).+._.8+(.b @.h.&+(+ +0.[.>.=.%.].t.K.P.E.p.p.x.P.K.m.A.o.r.=+|+9+f+n+y+z ",
"3 M Z Y Y M W E z H @.+.Q z t x J Q Z Z W Y #.#.Z L y j 1 h o.#.: o A >.4.].#.W H B C J ` %.%.;.).;.%.).>.Z Y W Z >.1.d.j.Q.g+t ",
"! 1 1 4 1 ~ ( : ] _ a 5 2 : / } 3 9 d 3 1 3 f a 2 _ ! & . $ 7 / % ; ~ d r x q 7 [ : 2 2 a f f j q q j q q f d d a d h q A H >.[ ",
"2+!+,+;+%+$+$+=+'+~+(+_+]+]+_+_.Z &+{+~+{+^+]+{+~+~+;+++Y..+@+.+`.Y.%+~+<+}+_+{+{+~+'+'+{+:+1+M K.|+1+4+4+1+}+]+^+/+~+/+|+5+8+}+",
"6+'+`.W.T.O.P. +!+/+4+4+}+|+m+E.s x.)+~+:+2+5+6+3+:+,+S.B.O.M.F.o.v. +'+_+:+^+~+!+)+!+{+1+b+v+ .).3+b+9+e+f+b+2+4+}+_+}+2+5+d+7+",
"P.0.).>.[._.5.h.M.++;+$+P.X.h+B.3 Z v.`.;+~+_+5+|+Y.p.7.^.4.a.j.~.>.a.j.B.o.j.r.z.p.o.A.X.(+t+ .H T.;+ +;+/+]+%+`.++{+=+P.F.M.G.",
"E.0.;.%./.1.g.t.++&+!+,+%+@+f+z.} ..F..+{+4+4+6+_+P.m.p.p.r.F..+x.a.7.[.5.0.m.g.8.(.3.j.O.]+u++.N Y.=+.+@+'+$+Y.P.!+<+~+$+K.k.s.",
"F.e.(.'.!.4.h.H.Y.,+/+:+^+{+f+v.( &.X.&+1+8+8+}+ +t.m.K.Y.P.++{+Q.E.h.4.(.4.e.4.=.+.;.h.K.(+x+#.M Q.&+S.H.E.M.Q.T.`.'+)+~+$+E.w.",
"v.d.2.].~.4.o.A.Q.++_+7+|+|+n+B.7 (.)+/+<+9+6+~+O.E.O.W.F.H.$+]+Y.M.v.[.#.=._.3.).'.].p.Y.2+x++.H K.X.v.5.5.v.B.H.O.`.=+ + +P.i.",
"k.m.p.k.7.2.v.K.Y.!+}+3+(+2+q+K.h h.]+(+(+d+5+@+t.B.Q.O.r.t.P.&+@+W.K.]...%.3.m.e.8.e.t.T.<+x+@.G h.t._.;.5.r.M.P.S.O.S.z.p.t.3.",
"x.v.K.T.B.r.M.W.=+_+2+<+{+{+o+K.f d.!+(+:+6+]+W.B.O.F.K.p.e.E.;+ +M.p.~.=.~.h.X.P.B.r.v.x.)+w+#.H k.x.5.).7.v.M.`.++O.p._.~.1.5.",
"S..+`.@+T.F.T.@+{+(+:+/+;+@+i+E.9 '.Q.;+}+5+~+~+$+++P.F.h.2.H..+O.v.j.0.].2.A.,+$+.+F.h.g.{+z+$.H m.H.B.4.8.x. +@+`.F.g.5./.8.v.",
"M.++%+~+@+S.O.++;+$+.+;+.+=+e+t._ U r.@+1+4+1+3+)+$+ +H.e.[.h.z.M.o.g.z.m.m. +:+'+X.x.d.z.8+A+$.M z.Q.S.v.t.Q.=+@+`.P.B.p.5.h.w.",
"E.`.)+{+%+.+Q.Y.T.K.A.S.W..+e+v.! B 1.M.~+d+i+8+)+Y.Q.S.o.5.g.E.Q.K.K.Q.P.T.,+3+|+`.r.t.`.d+A+@.M m.E.P.S.S.++;+=+%+$+.+K.k.g.c.",
"z.++!+'+@+`.M.O.K.k.d.z.W.W.9+o.> C ).m.'+b+c+5+~+T.B.P.B.o.p. +%+=+%+@+;+^+_+}+^+`.B. +{+d+y+..E 4.B.Q.P.W.;+'+'+=+!+~+&+O.j.:.",
"T.~+)+&+W.x.m.A.x.m.7.m.P.S.8+k.) H /.t.%+<+<+{+=+.+%+ +W.z.r.@+/+}+/+/+4+}+2+<+]+'+X.`.@+7+v+ .t ].r. +W.X.@+$+++!+2+}+(+++z.i.",
"P.Y.W.z.5.>.>._.5.^./.0.r.A.5+k.; B /.p.S.%+Y.S.P.P..+O.a.4.7.M.,+(+1+}+4+)+ +@+.+++A.x.O.'+n+` m Y 2.H.H.M.B.A.z. +}+8+1+'+E.j.",
"#.#...V H t m m m o A C L Q _.%.> h L @.>.>.&.Z ` ` #.Z M U U  .&.&.>.(.4.~.+.Z Z +.` Y Y ` K.G 7 q L W ` +.Z Z Z @.].a.a._.&.+.",
"d 7 2 : : ~ ; .   & > = , ( ~ @   * / 7 h h f 7 : 1 9 2 2 7 7 5 3 / 1 b h g 4 ( : 7 a 9 4 : [   @ = , 1 9 3 : 4 5 4 9 j q m d d ",
"M ~+3+|+4+7+4+_+<+:+:+/+:+2+:+^+{+]+/+1+6+b+e+a+9+c+e+f+9+9+e+>.!._+8+9+d+d+4+1+6+8+8+8+4+<+^+/+/+:+2+8+8+2+_+1+5+4+8+f+f+c+a+m ",
"3 [.&+@+!+<+_+;+Y..+.+Q.T.Y.$+$+P.B.A.Q.~+8+9+7+d+k+h+g+8+d+v+3.z Q.5+2+4+2+,+%+_+3+1+{+)+.+.+ +.+{+2+5+3+/+&+$+@+@+^+}+2+6+n+r ",
"[ $.z.z.F.$+&+v.e.A.x.o.a.v.F.F.0.].'.2.X.<+/+1+b+f+5+:+)+4+r+1.o p.=+W.`.X.F.z.++~+=+W.T.T. +T. +]+|+|+(+++M.h.4.e.v.P.P.)+m+r ",
"7 _.S.W.Q.&+`.A.z.M.A.r.o.F.z.e.!.)._.k.Q._+1+(+/+:+{+)+;+2+q+1.z F.Y.F.v.M.P.P.&+'+%+`.)+~+]+<+{+!+&+%+.+T.B.j.2.5.g.B.E.=+m+t ",
"b 1.P.`.W. +M.z.p.Q.K.B.B.z.r.3.(.^.0.g.E.!+]+;+^+{+%+P. +{+r+4.t o.P.o.v.@+&+%+&+!+$+%+=+,+|+b+|+{+`.K.E.E.r.0.1.1.7.k.o.$+l+r ",
"4 ).M.T.F.O.P.r.j.B.M.E.E.z.t.8.e.k.a.5.H.~+,+~+}+{+T.8.o.'+t+8.A t.T.F.A.$+~+++++&+&+ +O..+^+<+_+^+Y.v.h.o.m.4.2.d.j.j.m.'+m+q ",
": @.H.z.p.z.o.4.4.r.E.E.v.k.j.a.H.T.F.E.W./+2+3+<+~+E.~.7.'+u+7.s e.M.P.T.T.++W.W.$+!+$+Q.T.X.Q..+S.E.e.d.o.A.r.t.B.x.j.p.]+o+r ",
"} ..p.0.2.0.5._.[.7.j.k.7.8.d.k.H..+'+$+$+~+4+8+}+{+E.7.8.Q.m+2.d ).x.Q.X.A.P.K.++$+'+%+P.O.A.o.g.7.e.3.8.k.P.Y.%+'+ +F.z.^+p+r ",
"[ W 5.2.]./.(.2._./.4.5././.a.k.o.K.&+$+ +.+]+6+<+++H.h.4.z.k+_.} Q 8.T..+E.B.F.$+%+.+X.S.K.g.[.(.].[.1.0.o.`.!+(+/+]+.+T._+p+r ",
"_ ` p.m._.;.=.].).%.=.(.3.(.a.m.h.t.K.E.z.S.'+|+^+@+@+X.W.Y.i+/.] G 0.M.%+Y.P.E.S.K.K.O.t.e.8.4.].>.(.4.g.H.$+_+:+,+,+P.B./+n+r ",
"5 ;.K.Y.g.].>.~.&... .-.3.g.d.p.j.a.7.e.k.S.!+=+&+@+%+^+8+6+p+[.9 @.r.F.X.W.X.B.t.x.F.O.m.3.[.0.[._.3.o.p.P.{+_+=+Q.A.j.e.~+o+t ",
"9 -.B.`.X.v.2./.%.+...'.4.v.A.r.7.^.].a.z.S.`..+++`.^+f+f+l+z+5.q 1.Q.M.W.O.t.o.e.A.T.W.o.7.3.a.5.4.a.F.S.X.=+)+T.p.d.8.2..+l+t ",
"1  .t.;+^+@+p.3.!.=.%.!.o.B.S.O.k.8.e.z.M.E.P.W.F.`.2+g+i+q+B+a.y t. +M.E.P.r.8.0.B.=+++z.0.(.7.3.d.p.E.S.P.@+;+Q.t.8.7.(.W.k+s ",
"/ M ~.H.~+ +d.].;.@.+.#.a.v.E.x.p.m.o.B.H.d.e.a.5.S.)+|+6+e+x+7.q 5.v.g.7.e.8.=.$.[.K.x.1.&. .$.;.~.d.g.h.h.H.F.h./.&...Q 1.9+o ",
", d j P &.%. .N A s y z J W Y Z +.+.Z ..+.Q J L J W +.-.'.2.<+~.g E J J E z E r q A V L A o m r E J M J H J Y Q G y i 4 ~ i e.9 ",
"* ; ) 1 g o m 5 } _ : [ 2 b a 3 d m g h m f b 7 7 7 9 f q y M q 2 [ [ : / ) / / ] } 9 3 } _ [ ~ ( 5 7 } } 4 9 1 : / > & $ = : $ ",
"^+]+<+8+f+i+g+c+b+a+8+7+a+g+m+t.d.f+m+m+o+m+l+d+e+f+b+d+h+m+r+q+i+7+5+3+1+}+|+4+8+c+g+f+d+d+k+Y 8.6+b+9+d+e+d+c+b+9+4+:+^+<+<+^+",
"3.2.A.W.%+=+.+`.`.Y.`.++~+|+p+H.E .+1+<+3+8+7+_+/+{+)+~+~+!+}+|+!+O.x.r.r.m.t.O.@+)+<+^+;+_+p+` C j. +&+{+/+1+3+_+=+P.o.d.r.k.a.",
"0.'.2.d.o.o.g.m.t.o.h.r.P.;+n+K.o t.'+ +@+~+{+&+X..+/+~+Y.B.z.E.B._.-.>.1.[.0.p.T.$+,+ +P.=+n+` g -.K.++!+(+}+8+:+P.m.4.2.0.k.k.",
"P.m.e.1.1.8.j.j.2.'.].a.A.&+o+O.t A.;+.+.+%+@+X.P.=+(+{+'+W.r.A.A.5.-.=.^.7.j.K.%+,+{+!+=+!+m+Z d /.O.$+<+7+7+3+;+z.k.x.F.x.X.Y.",
" +F.r.8./.(.7.8.'.#.%.0.H.,+q+Q.r p.;+S.A.o.z.P.P.W.++)+'+;+P.H.x.5.^.'.].a.k.O.Y.'+<+1+^+<+m+Y f 0.%+~+4+8+6+{+O.p.v.W.W.S.,+~+",
"%+P.H.5.@.#.!.5.(.~.^.h.S.^+t+P.m e.T.v.2.4.o.E.E.F.S.%+Y.W.P.z.r.e.3.(.^.8.t.F.T.;+|+5+<+6+t+` t t.]+/+|+d+3+&+E.M.T.S.v.M.=+,+",
"=+T.P.5.+.&.[.t.r.g.g.r.M.&+q+Q.o 1.t.3.&._.m.H.P.Y.P.K.z.d.j.h.j.m.z.r.a.a.B.P.$+(+1+1+/+6+v+ .B P.<+^+|+d+(+P.o.E.P.B.m.x.O.%+",
"@+M.r.[.>.!.d.T.Y.P.z.r.p.X.o+Q.o 4.E.k.(.3.p.K.Y..+T.r.2.'._.g.E.E.T.T.A.A.Q..+~+<+1+_+,+(+u+ .y B.'+(+|+4+;+X.O.Q.K.K.g.g.P.#+",
"Q.x.h.h.1.2.t.,+=+@+O.k.d.++w+W.q 7.H.O.g.7.t.`.%+ +O.k.g._.4.t.Y.++++%+T.M.W.=+]+]+^+{+$+)+n+` m 2.P.)+2+3+!+^+&+++K.A.5.0.M.U.",
"K.z.h.F.x.t.Q.}+^+ +A.g.r.<+x+T.x g.P.T.F.A.P.=+$+.+W.O.A.d.e.v.O.@+,+{+.+Q.P.++$+Y.`.$+`.~+l+Y 5 ..z.;+3+5+8+1+=+@+Y.H.8.3.g.t.",
"T.S.P.T.Q..+&+1+3+=+z.x. +5+x+P.s 2.x.K.Q.W..+;+,+&+%+%+W.v.g.e.K.++~+~+@+.+Q.X.O.x.v.S.Q.;+l+Y : Q 5.O.(+g+i+4+=+S.M.O.j.8.r.u.",
"=+~+;+;+'+:+<+}+/+@+K.X.)+5+v+K.j '.t.W.P.Q.$+'+'+=+~+^+~+Y.x.4.P.;+'+;+ +Q.B.M.B.g.0.B.W. +e+V _ V (.A./+c+6+}+,+P.O.P.K.o.A.U.",
"{+2+1+(+4+2+_+}+(+~+++T.Y._+o+H.d @.e.W.`.`. +++`.=+4+4+}+)+O.o.%+~+;+++K.g.k.z.t.h.8.x.P..+f+U [ Z 3.F.=+:+{+)+@+@+,+`.P.m.z.Z.",
"Y.++{+~+_+,+O.H.H.M.t.8.p.O.8+A.3 H =.j.j.x.j.h.e.A.;+2+<+'+H.d.B.K.x.8.-. .+.-.;.$.>.[.7.x.7+Q ( L /.r.O.W.B.z.t.A.M.m.].]._.u.",
"W P U ` &...W J H M Q M H G %. ./ h t E M U M L M M Z %.;.&.` Y W V M E x n d 9 7 h q q z E -.i ~ j G Y `  .W M J P Q H C J J K ",
"l e l u v v g 3 2 e f f 9 3 ] , = ! ~ 3 a 3 [ 1 7 7 9 h r n f _ 1 7 2 } 2 } ~ ; > ~ ] ~ ( } ~ * = ~ [ b h i f a 1 7 d b a b 9 k."};
