/* XPM */
static char *wall_xpm[] = {
"32 32 3 1",
"  c #8B4513",
". c #A0522D",
"o c #DEB887",
"................................",
"................................",
"................................",
"................................",
"oooooooooooooooooooooooooooooooo",
"oooooooooooooooooooooooooooooooo",
"oooooo....................oooooo",
"oooooo....................oooooo",
"oooooo....................oooooo",
"oooooooooooooooooooooooooooooooo",
"oooooooooooooooooooooooooooooooo",
"................................",
"................................",
"................................",
"................................",
"oooooooooooooooooooooooooooooooo",
"oooooooooooooooooooooooooooooooo",
"oooooo....................oooooo",
"oooooo....................oooooo",
"oooooo....................oooooo",
"oooooooooooooooooooooooooooooooo",
"oooooooooooooooooooooooooooooooo",
"................................",
"................................",
"................................",
"................................",
"oooooooooooooooooooooooooooooooo",
"oooooooooooooooooooooooooooooooo",
"oooooo....................oooooo",
"oooooo....................oooooo",
"oooooo....................oooooo",
"oooooooooooooooooooooooooooooooo"
};

