/* XPM */
static char * wall_xpm[] = {
"16 16 2 1",
"  c #666666",
"# c #999999",
"################",
"#              #",
"#              #",
"#              #",
"#              #",
"#              #",
"#              #",
"#              #",
"#              #",
"#              #",
"#              #",
"#              #",
"#              #",
"#              #",
"#              #",
"################"
};
