/* XPM */
static char * item_rot_4c_64_xpm[] = {
"64 64 256 2",
"  	c None",
". 	c #302815",
"+ 	c #332A1C",
"@ 	c #322A21",
"# 	c #39331E",
"$ 	c #3C332B",
"% 	c #3D3526",
"& 	c #433B2C",
"* 	c #443C37",
"= 	c #453D33",
"- 	c #484030",
"; 	c #4A402B",
"> 	c #4E442F",
", 	c #4D4535",
"' 	c #4F473D",
") 	c #524939",
"! 	c #574D37",
"~ 	c #574E3E",
"{ 	c #564E44",
"] 	c #5C5443",
"^ 	c #5B5449",
"/ 	c #5D5A48",
"( 	c #625949",
"_ 	c #61594E",
": 	c #675E4D",
"< 	c #665E53",
"[ 	c #6D5E4F",
"} 	c #706051",
"| 	c #6C624C",
"1 	c #6C6352",
"2 	c #6B6358",
"3 	c #686552",
"4 	c #766657",
"5 	c #6E6962",
"6 	c #70695D",
"7 	c #726957",
"8 	c #766D5C",
"9 	c #726F5C",
"0 	c #776E57",
"a 	c #746E67",
"b 	c #766E62",
"c 	c #717063",
"d 	c #7B6D64",
"e 	c #79705F",
"f 	c #817162",
"g 	c #807167",
"h 	c #787461",
"i 	c #7A7367",
"j 	c #7C7361",
"k 	c #807765",
"l 	c #7F776B",
"m 	c #85766C",
"n 	c #877667",
"o 	c #7E7872",
"p 	c #7D7A66",
"q 	c #7C7A6C",
"r 	c #827A6E",
"s 	c #847A69",
"t 	c #887E6D",
"u 	c #877E72",
"v 	c #83806D",
"w 	c #8B7D75",
"x 	c #828073",
"y 	c #8C8271",
"z 	c #8B8376",
"A 	c #918278",
"B 	c #898572",
"C 	c #938272",
"D 	c #8A847D",
"E 	c #8E8679",
"F 	c #908674",
"G 	c #978676",
"H 	c #96877D",
"I 	c #938977",
"J 	c #92897D",
"K 	c #8E8B77",
"L 	c #8F8A83",
"M 	c #9B8A7A",
"N 	c #968E82",
"O 	c #988E7C",
"P 	c #958F88",
"Q 	c #94917D",
"R 	c #9E8E84",
"S 	c #999185",
"T 	c #9B917F",
"U 	c #9E9381",
"V 	c #9D9488",
"W 	c #99958E",
"X 	c #9A9682",
"Y 	c #A39489",
"Z 	c #A59484",
"` 	c #A09684",
" .	c #A79686",
"..	c #A39987",
"+.	c #A2998D",
"@.	c #9D9B8D",
"#.	c #A8988E",
"$.	c #9F9C87",
"%.	c #A19B94",
"&.	c #A69C8A",
"*.	c #A59C90",
"=.	c #A69F98",
"-.	c #A89F93",
";.	c #AA9F8D",
">.	c #A4A18C",
",.	c #AD9E93",
"'.	c #A4A293",
").	c #ADA390",
"!.	c #A7A597",
"~.	c #ACA497",
"{.	c #B4A292",
"].	c #ABA59E",
"^.	c #AFA593",
"/.	c #AAA792",
"(.	c #B4A499",
"_.	c #B0A79A",
":.	c #B2A795",
"<.	c #ABA99A",
"[.	c #B1AAA3",
"}.	c #B3AA9E",
"|.	c #B5AA98",
"1.	c #AFAD9F",
"2.	c #B1AD98",
"3.	c #BAAA9F",
"4.	c #B7AD9A",
"5.	c #B6ADA0",
"6.	c #B6AFA8",
"7.	c #BAAF9D",
"8.	c #B8B0A3",
"9.	c #BFAFA5",
"0.	c #B5B3A5",
"a.	c #B7B39F",
"b.	c #B9B399",
"c.	c #BCB29F",
"d.	c #BBB2A5",
"e.	c #BAB3AC",
"f.	c #BCB3A6",
"g.	c #BEB3A1",
"h.	c #C5B4AA",
"i.	c #BFB6A9",
"j.	c #C1B6A3",
"k.	c #BAB8AA",
"l.	c #BCB8A4",
"m.	c #BEB89E",
"n.	c #BEB7B0",
"o.	c #C1B8AB",
"p.	c #C3B8A5",
"q.	c #C3BAAD",
"r.	c #C5BAA8",
"s.	c #C0BCA8",
"t.	c #BCBDB4",
"u.	c #C3BDA3",
"v.	c #CABAAF",
"w.	c #C3BCB5",
"x.	c #C5BCAF",
"y.	c #C7BCA9",
"z.	c #BFBEAF",
"A.	c #C7BEB1",
"B.	c #C9BEAB",
"C.	c #C3C0AB",
"D.	c #CBC0AD",
"E.	c #C6C2AE",
"F.	c #D1BFAE",
"G.	c #CAC1B4",
"H.	c #C5C3B5",
"I.	c #D1C0B5",
"J.	c #C9C2BB",
"K.	c #CDC2AF",
"L.	c #C9C4A9",
"M.	c #CCC3B6",
"N.	c #CEC3B0",
"O.	c #C9C5B0",
"P.	c #CFC6B9",
"Q.	c #D1C6B3",
"R.	c #CCC8B4",
"S.	c #C9C9C1",
"T.	c #CFC8C1",
"U.	c #D1C8BB",
"V.	c #D3C8B5",
"W.	c #CCCABB",
"X.	c #D8C8BD",
"Y.	c #D3CABD",
"Z.	c #D5CAB7",
"`.	c #CFCCB7",
" +	c #D2CEB9",
".+	c #D6CDC0",
"++	c #D8CDBA",
"@+	c #CFCFC6",
"#+	c #D1CFC0",
"$+	c #D3CFBA",
"%+	c #DECCBB",
"&+	c #D5CEC6",
"*+	c #D4D0BB",
"=+	c #D8CFC2",
"-+	c #D6D2BD",
";+	c #DAD1C4",
">+	c #DDD1BE",
",+	c #D5D3C4",
"'+	c #D3D4CA",
")+	c #D8D4BF",
"!+	c #DCD3C6",
"~+	c #D9D5C0",
"{+	c #DBD4CC",
"]+	c #E3D2C7",
"^+	c #DAD6C1",
"/+	c #E0D5C2",
"(+	c #DFD5C8",
"_+	c #D7D7CE",
":+	c #D9D7C8",
"<+	c #DCD8C3",
"[+	c #DCDACB",
"}+	c #DEDAC5",
"|+	c #E2D9CB",
"1+	c #E4D9C6",
"2+	c #E1DAD3",
"3+	c #DCDCD3",
"4+	c #E9D9CF",
"5+	c #E5DBCE",
"6+	c #DFDDCE",
"7+	c #E1DDC8",
"8+	c #E8DED1",
"9+	c #E4E0CB",
"0+	c #E2E1D1",
"a+	c #E7E0D9",
"b+	c #EAE0D3",
"c+	c #E2E2D9",
"d+	c #ECE0CD",
"e+	c #EDDFDB",
"f+	c #F1E0D5",
"g+	c #EBE2D5",
"h+	c #E6E4D4",
"i+	c #E8E4CE",
"j+	c #EAE7D1",
"k+	c #EDE5DF",
"l+	c #EFE5D8",
"m+	c #E9E7D8",
"n+	c #E7E8DE",
"o+	c #F7E6DB",
"p+	c #F3EADC",
"q+	c #ECEDE4",
"r+	c #F1EBEA",
"s+	c #F3EBE4",
"t+	c #EFEDDD",
"u+	c #F2EDD8",
"v+	c #F7EDE0",
"w+	c #FBECE7",
"x+	c #F8F1EA",
"y+	c #FAF1E3",
"z+	c #F3F3EA",
"A+	c #F5F3E3",
"B+	c #F9F4DF",
"C+	c #FFF5E8",
"D+	c #FAF8E9",
"E+	c #FEF7EF",
"F+	c #FDF8F7",
"G+	c #FBFBF2",
"                                                  &+W.&+&+{+{+0+                                                                ",
"                                            T.A.R.O.V.++.+=+P.M.P.#+2+                                                          ",
"                                        M.`.*+M.5.+.S S U -.f.M.!+=+M.U.#+                                                      ",
"                                    P.P.V._.r z .._.d.g.l.d.-.J y *.G.~+O.M.,+                                                  ",
"                                  G.Q.~.r -.x.U.Y..+*+P.Y.*+U.Q.q.*.l +.P.$+C.:+                                                ",
"                                M.B.O ;.D..+;+<+^+^+=+*+.+-+=+Y.++.+M.*.r 5.P.x.T.                                              ",
"                              G.f.y i.U.;+(+(+(+=+.+=+.+.+*+)+=+=+=+*+Y.E.J V P.y.T.                                            ",
"                            Y.5.E G.=+!+:+(+(+Y.=+;+=+=+;+;+!+(+!+!+;+(+U.f.~.J Q.r.T.                                          ",
"                          &+i.J P.^+^+:+!+(+G.d.x.U.=+.+=+=+Y.;+=+!+!+{+U.8.=+8.E M.G.T.                                        ",
"                        T.A.z M.!+!+|+!+P.8.f.i.P.;+x.4.i._.A.b+5+|+(+d.N _.=+.+8.N M.s.&+                                      ",
"                        U.z M.(+|+;+P.f._.U.|+8+|+.+8.4.7.|.f.W.>+,+(+w.+.}.=+;+.+~.+.N.q.{+                                    ",
"                      ,++.i.|+|+(+M.}.|.(.P.U.R.Y.G.~.|.4.4.5.d.c.:.}.u -.5.;+;+;+.+S 7.Q.M.                                    ",
"                      i.V T.6+8+{+i.,.:.:.c.G.q.d.z _.4.4.:.:.d.6+G.|+-.~._.=+!+<+~+`.z A.x.0+                                  ",
"                    Y.J P.A.Y.Y.P._.^.^.:.5.G.P.;+q.s.|.|.^.:.=+t+;+5+&+q.^.*+(+)+^+-+8.&.B.q.                                  ",
"                    8._.;+q.~._.5.5.4.|.|.8.|+5+g+!+A.5.|.:.i.2+!+Z.R.G.*.*.-+<+}+<+^+~+J o.A.T.                                ",
"                  .+N =+[+o..+k+a+M.4.(.(.P.8+;+;+T.d.8.^.^.i.U.N.r.f._.+.+.Y.<+9+7+}+.+E.V V.x.                                ",
"                  x.~.[+6+v.|+0+g+&+5.^.~.i.q.a.5.}.}.5.|.).o.[+=+.+5+.+V S P.^+7+}+}+~+*+X E.s.T.                              ",
"                T.*.Y.6+2+M.&+M.M.-.8.~.(.U.b+(+5+(+8.d.g.8.G..+U.G.f.+.z -. +^+}+7+;+~+-+C.V M.q.                              ",
"                U.+.(+2+2+Y.[+&+2+(+5.5.f.P.Y.f.5.i.P.8+5+(+.+..O &.*.S *.~.*+~+!+=+.+)+-+ +E q.d.&+                            ",
"                i.i.|+g+2+P.U.x.8.+.;+5+g+|+|+8+2+8+o.Y.P.=+G.&.;.|.~.+.;.}.=+=+!+Y.r.~+^+*+5.*.A.H.                            ",
"                =.;+0+g+a+P.&.-.*._.A.U..+E..+;+;+A.~.x.M.P.o.;.).|.^.*.&._.#+5+;+=+G.!+;+8.M.z A.5.                            ",
"              P.%.6+6+[+a+#+,._._.|.x.P.C..+R.M.;+M._.G.$+.+Y.*.).^.,.;.&._.M.#+x+&+Y.l+-.U..+S i.8.@+                          ",
"              x.}.2+6+!+|+Y.Y ~._._.A.(+P.U.$+$+8.(+a.P.R.Y.(+)._._._.~.&.^.-+<.2+2+|+n.%.!+.+}.-.f.q.                          ",
"              ^.q.2+a+|+w.Y.*._._._.P.=+A.P.-+!+.+G.5.r.Y.P.;+A.=+Y.=+.+P.}..+,+R.2+T.J.a+(+.+A.J x.}.                          ",
"              *.T.q.a+T.w..+5.Y.;+U.P.x..+Y.q.l.=+-.a.A.R.A.!+;+(+(+|+P.f.~.(+=+i.8.-.=.e.x..+A.z M._.                          ",
"              *.&+=+T.T.a+,+!+|+6+x..+A.P.!+.+q.A.M.(+g+g+8+|+_.`.$+U.q.S *.8.*.~.~.+.-.V ~.l.=+S A.f.'+                        ",
"            A.*.G.-.N N =.o.5.Y.Y.}.M.5+|+5+G.(+;+(+x.8+=+5+q...4.8.4.v l }.(+!+P.r u *.P.*+*+P.}.5.i.#+                        ",
"            A.%..+.+N N ;+.+~.x.i.S f.M.M.i.l.}.U.~.q.f.M.}.5.).)+$+$+N *._.!+|+5.!.s.V P.)+)+U.i.-.r.H.                        ",
"            A.=.*+P.5.i.P.=+d.h+a+5.i.M.;+G.r.M.U.R.E.*+*+p.c.5.g+|+~+E.d._..+!+}.$+^+}.O.~+*+P.G.N A.A.                        ",
"            M.V Y.P.#+;+Y.!+(+|+|+G.x.=+_.!+s.<+d.|+l.7+O.!+x.x.-+M.R.(+G.~.U.<+^+;+-+-+*+}+)+G.P.J K.f.                        ",
"            R.V  +.+!+[+|+;+i.o.0.*.i.~.G.~.|.2.`.5.>.l.M.A.-.2.d._.4.~.v I P.}+^+^+)+<+^+^+^+x.U.E Y.8.                        ",
"            x.S U.=+(+(+5+;+(+|+[+!+P.q.G.-.l._.s._.`.a.*+o.l.M.!+.+P..+_./.p..+7+(+^+<+^+^+-+A.U.J R._.                        ",
"            q.V P.$+(+|+8+(+*.+.-.J }.~+a.$+G.5+=+(+=+.+i.P.R.&.d.y.E.i.z Q A.-+7+}+}+}+<+)+)+D.5.J A.}.                        ",
"            A.@.P.*+;+(+8+5+5.}._.~.-.f.R.E.O.|+;+8+d.*+P.U.A.5.-.` U U N *.-+-+9+<+9+}+^+)+-+K.x.J G.~.                        ",
"            E.+.P.*+;+.+5+8+d._.|.|._.x.^+8.-+i..+M.i.^+)+=+q.f._.~.&.,.-._.;+<+9+)+7+<+<+~+-+P.G.E x.-.                        ",
"              *.A..+!+P.;+0+x.^.|.4.Y.Y.=+R.*+8+!+E.P..+$+6+G..+d.-...;.}.i.^+<+}+A.)+}+~+)+ +K.G.E M.-.                        ",
"              *.A.Y.P.6+&+W.Y.4.:.8.(+P.G.U.U.[+s.E.f.q..+7.x.5+i.;.....-.G.[+}+=+q.=+*+)+;+-+P.M.J A.!.                        ",
"              +.q.U.E.P.U.8.!+d.).U.U.G.M.M..+l.a.g.V A.U.g.(+;+;+,.` U ;.M.:+q+[+i.P.8+x.;+.+P.q.J r.5.                        ",
"              ~.8.`.Y.x.x.0+|+x.5.;+G.P.s+2+Y.;+U.o.!+U.;+k+8+6+.+5.&.).^.`._.[+z+f.(+[.8. +R.M.8.N i.*.                        ",
"              i.-.R.d.~.E V G.Y.q.o.x.0+a+T.5+f.A.o.n.[+m+k+:+O. +q.&._.i.Z.4.~.[+U.~.N  +Q.R.G.x.+.i.6.                        ",
"              o.-.A.U.V N A.|+!+d.O _.m+;+8..+_.-.~.P.s+Y.Y.9+R._.$.2.+.O.Y.A.P.P.M..+t+5+;+Q.G.&.^.}.J.                        ",
"              w.-.G.R.}.x.o.5+6+#+}.5.!+f.o.~.-._.~.^.P.x..+.+f.s B J ;.j.4.I k 5.S E D z.(+P.s.~.g.*.                          ",
"                _.f.`..+.+Y.|+6+|+x.x.5.f..+J -.;.).|.~.*+M.!+J &.l.V  +=+x.j.}.N i r <.8.s.Y.x.V N.+.                          ",
"                q.~.`.)+~+~+!+[+6+!+8.S A.~.S *.&.&.^.).E.Y.J E i.V R.5+h+0+.+^.l *.6 d.=+`. +f.` A.].                          ",
"                C.~.O.*+^+)+~+<+(+(+$+5.*.~.S *.*.&.^.&.X _.V +.S q.++8+0+0+5+a.d.W.N ~.;+Y.E./.2.d.[.                          ",
"                  8.x.R.*+~+-+$+U.(+,+;+q.<.x.2.).+.-.-.d._.V V  +~+;+5+|+)+}+,+<+<+U.2.Y.P.M...r._.                            ",
"                  q.f.E.`.-+-+R.P.|+[+;+*+R._.i.8.~.x.8.-.z 5..+|+}+[+5+5+^+^+[+[+R.-+-+P.`.R.>.A.@.                            ",
"                  x.f.A.O.$+$+A.^+}.Y.(+$+-+^+A.8.i.V -.f.A.U.!+|+7+7+9+}+<+Y..+^+P.V.`.K.E.5.a.g.1.                            ",
"                    q.i.O.`.*+G.U._.~.i.o.Y.^+<+`.5. +;+.+R.-+^+)+.+^+-+)+=+-+<+^+U.U.Q.N.a.X y.V                               ",
"                    e.i.M.M.P.4.R.`.s.C.i.G.~+<+)+^+U..+-+ +)+U..+5+m+g+M.P.!+!+=+R.R.P.P.c.:.c.=.                              ",
"                      i.x.A.q.O.a.;+y.r.Y.M.s.)+-+`.)+}+.+N.P.M.(+-.5.|+(+R.=+.+-+U.Y.P.$+:.y.S                                 ",
"                        x.G.4..+s.U.s.i.q._.f.R.P.)+:.q.<+B.p.R.l.A.q.l.=+r..+Y..+P.A.s.g.c.i.L                                 ",
"                        8.A.j.q.=+A.}.a.P.f.4.j.R.l.B.a.A.E.s.`.C.O.R.5.`.s.A.P.Y.K.j.c.;.y.V                                   ",
"                          x.D.i.-.&.d.B.4.U.E.|.R.8.B.y.j.N.8.E.A.p.K.j.D.s.:.y.D.g.c.&.4.~.%.                                  ",
"                          ~.G.P.x.r.E.P.2.}.P.4.q.5.p.y.i.O._.i.r.4.B.D.c.C.:.x.E.c.;.:.4.N                                     ",
"                            5.D.x.q.K.8.s.-.A.&.4.f.f.y.l.N.~.^.r.p.D.B.C.a.4.p.r.7.,.v.V                                       ",
"                              _.M.x.A.r.*.2...|.^.x.j.r.o.y.~.g.^.D.;+U.U.X 7.4.r.&.x.!.S                                       ",
"                                ~.P.o.A.4.&.8.x.r...A.$+R.&.c.r._.+.2.l.+.2.G._...r.).W                                         ",
"                                  -.y.A.A.r.p.x.x.4.` -...^.j.r.i.7./.<.s.G.5.-.N._.L                                           ",
"                                    _.p.A.G.V.y.j.i.g.g.c.l.l.a.d.g.s.R.O.V }.s.'.<.                                            ",
"                                      ~._.j.g.4.j.i.x.l.j.l.i.q.G.P.x.-.;.B.5.N                                                 ",
"                                          +.^.i.y.j.B.G.P.G.A.8.+.V _.x.|.Q P                                                   ",
"                                              S +.^.7.7.7.4.2.a.d.d.~.*.V                                                       ",
"                                                    <.V +.+.V V V %.                                                            "};
