/* XPM */
static char * item_rot_1e_64_xpm[] = {
"64 64 256 2",
"  	c None",
". 	c #6A6256",
"+ 	c #6D6453",
"@ 	c #746A59",
"# 	c #786E5D",
"$ 	c #7B7367",
"% 	c #7D7362",
"& 	c #837B6F",
"* 	c #877D6C",
"= 	c #867E72",
"- 	c #898175",
"; 	c #8D8371",
"> 	c #8C8478",
", 	c #8F877B",
"' 	c #938977",
") 	c #928A7D",
"! 	c #958C80",
"~ 	c #8E8E85",
"{ 	c #988E7C",
"] 	c #958E88",
"^ 	c #978F83",
"/ 	c #9A9185",
"( 	c #9C9280",
"_ 	c #9C9387",
": 	c #979587",
"< 	c #999682",
"[ 	c #9F9583",
"} 	c #9E9589",
"| 	c #9C968F",
"1 	c #9F968A",
"2 	c #9D9985",
"3 	c #A1988C",
"4 	c #A39986",
"5 	c #A09A93",
"6 	c #A29A8D",
"7 	c #9C9C94",
"8 	c #9E9C8E",
"9 	c #A49B8F",
"0 	c #A69B89",
"a 	c #A09D89",
"b 	c #A39C95",
"c 	c #A69D91",
"d 	c #A89D8B",
"e 	c #A3A08C",
"f 	c #A2A091",
"g 	c #A59F98",
"h 	c #A79F92",
"i 	c #A99F8C",
"j 	c #AAA08D",
"k 	c #A9A093",
"l 	c #A6A28E",
"m 	c #ABA18F",
"n 	c #AAA194",
"o 	c #A9A29B",
"p 	c #ACA290",
"q 	c #ABA295",
"r 	c #ACA396",
"s 	c #AEA491",
"t 	c #ABA49D",
"u 	c #ADA497",
"v 	c #A7A697",
"w 	c #B3A398",
"x 	c #AFA593",
"y 	c #AEA598",
"z 	c #AAA793",
"A 	c #AFA699",
"B 	c #B1A694",
"C 	c #ADA7A0",
"D 	c #B0A79A",
"E 	c #AAA99A",
"F 	c #B2A795",
"G 	c #B1A89C",
"H 	c #B3A896",
"I 	c #ACAA9C",
"J 	c #B2A99D",
"K 	c #B4A997",
"L 	c #AFAB97",
"M 	c #B3AA9E",
"N 	c #B5AA98",
"O 	c #B2ABA4",
"P 	c #B4AB9F",
"Q 	c #B6AB99",
"R 	c #B5ACA0",
"S 	c #B7AC9A",
"T 	c #B4ADA6",
"U 	c #B6ADA1",
"V 	c #B8AD9B",
"W 	c #B1AFA1",
"X 	c #B9AE9C",
"Y 	c #B3B09B",
"Z 	c #B7AFA2",
"` 	c #B8B0A3",
" .	c #B7B0A9",
"..	c #BBB09D",
"+.	c #B4B2A4",
"@.	c #B6B29E",
"#.	c #BAB1A4",
"$.	c #B2B3AA",
"%.	c #BCB29F",
"&.	c #BBB2A5",
"*.	c #BDB3A0",
"=.	c #BCB3A6",
"-.	c #B7B5A6",
";.	c #B9B5A1",
">.	c #BEB4A1",
",.	c #BDB4A7",
"'.	c #BEB5A8",
").	c #C0B5A2",
"!.	c #C4B4A9",
"~.	c #BFB6A9",
"{.	c #C1B6A3",
"].	c #BBB8A3",
"^.	c #BAB8A9",
"/.	c #BEB7B0",
"(.	c #C0B7AA",
"_.	c #C2B7A4",
":.	c #C1B8AB",
"<.	c #C3B8A5",
"[.	c #BDBAA5",
"}.	c #BCBAAB",
"|.	c #C2B9AC",
"1.	c #C4B9A6",
"2.	c #BFBBA7",
"3.	c #C1BAB3",
"4.	c #C3BAAD",
"5.	c #C5BAA7",
"6.	c #BDBCAD",
"7.	c #C4BBAE",
"8.	c #C6BBA8",
"9.	c #C5BCAF",
"0.	c #C7BCA9",
"a.	c #C1BEA9",
"b.	c #C0BEAF",
"c.	c #C6BDB0",
"d.	c #C8BDAB",
"e.	c #C3BFAA",
"f.	c #C5BEB7",
"g.	c #C9BEAC",
"h.	c #C2C0B1",
"i.	c #C4C0AB",
"j.	c #C8BFB2",
"k.	c #CABFAD",
"l.	c #C5C1AD",
"m.	c #C9C0B3",
"n.	c #C3C2B3",
"o.	c #C6C2AE",
"p.	c #CBC1AE",
"q.	c #C8C1BA",
"r.	c #CAC1B4",
"s.	c #C7C3AF",
"t.	c #CBC2B5",
"u.	c #CDC2AF",
"v.	c #C5C4B5",
"w.	c #C8C4B0",
"x.	c #CCC3B6",
"y.	c #CEC3B0",
"z.	c #C6C5B6",
"A.	c #CDC4B7",
"B.	c #CFC4B1",
"C.	c #C8C6B7",
"D.	c #CAC6B1",
"E.	c #CCC5BE",
"F.	c #CEC5B8",
"G.	c #D0C5B2",
"H.	c #CFC6B9",
"I.	c #D1C6B3",
"J.	c #CAC8B9",
"K.	c #CCC8B3",
"L.	c #D0C7BA",
"M.	c #D2C7B4",
"N.	c #CBC9BA",
"O.	c #CDC9B4",
"P.	c #D1C8BB",
"Q.	c #D3C8B5",
"R.	c #D0C8C1",
"S.	c #CECAB5",
"T.	c #D4C9B6",
"U.	c #D3C9BC",
"V.	c #CDCBBC",
"W.	c #CFCBB6",
"X.	c #D4CABD",
"Y.	c #D0CCB7",
"Z.	c #D2CBC4",
"`.	c #D6CBB8",
" +	c #CFCDBE",
".+	c #D1CDB8",
"++	c #D5CCBE",
"@+	c #D0CEBF",
"#+	c #D2CEB9",
"$+	c #D6CDBF",
"%+	c #D8CDBA",
"&+	c #D1CFC0",
"*+	c #D3CFBA",
"=+	c #CFD0C6",
"-+	c #D7CEC1",
";+	c #D4D0BB",
">+	c #D6CFC8",
",+	c #D8CFC2",
"'+	c #D2D1C1",
")+	c #DACFBC",
"!+	c #D9D0C3",
"~+	c #DBD0BD",
"{+	c #D5D2BD",
"]+	c #D4D2C3",
"^+	c #DAD1C4",
"/+	c #D9D1CA",
"(+	c #DDD1BE",
"_+	c #D7D3BE",
":+	c #DBD2C5",
"<+	c #D5D4C4",
"[+	c #D8D4BF",
"}+	c #DCD3C6",
"|+	c #D9D5C0",
"1+	c #D7D6C6",
"2+	c #DFD4C1",
"3+	c #DED4C7",
"4+	c #DAD6C1",
"5+	c #DCD5CE",
"6+	c #DFD5C8",
"7+	c #D9D7C8",
"8+	c #DBD7C2",
"9+	c #E0D6C9",
"0+	c #E2D6C3",
"a+	c #DAD8C9",
"b+	c #DCD8C3",
"c+	c #DBD9CA",
"d+	c #E1D8CA",
"e+	c #E3D8C5",
"f+	c #DCDACB",
"g+	c #DEDAC5",
"h+	c #E0D9D1",
"i+	c #E2D9CB",
"j+	c #E3DACC",
"k+	c #DDDCCC",
"l+	c #E2DBD4",
"m+	c #E4DBCE",
"n+	c #DFDDCD",
"o+	c #E1DDC8",
"p+	c #E5DCCF",
"q+	c #E4DCD5",
"r+	c #E0DECF",
"s+	c #E6DDD0",
"t+	c #DFDFD6",
"u+	c #E6DFD8",
"v+	c #E8DFD1",
"w+	c #E3E1D2",
"x+	c #EAE0D3",
"y+	c #E3E3DA",
"z+	c #EAE2DB",
"A+	c #ECE2D5",
"B+	c #EFE6D9",
"C+	c #EEE6DF",
"D+	c #E8E8DF",
"E+	c #EAE8D8",
"F+	c #F1E9E2",
"G+	c #F0EFDF",
"                                                                                                                                ",
"                                                          H.                                                                    ",
"                                                          A J                                                                   ",
"                                                          ~.4.                                                                  ",
"                                                          r.H.                                                                  ",
"                                                          U.X.                                                                  ",
"                                                          $+H.                                                                  ",
"                                                          A.m.                                                                  ",
"                                                        7.~.X.                                                                  ",
"                                                        t.P.c.                                                                  ",
"                                                        F.!+&.L.                                                                ",
"                                                        P.L.c.m.                                                                ",
"                                                        R.P.j.~.                                                                ",
"                                                        R.x.'.m.                                                                ",
"                                                        L.|.F.H.                                                                ",
"                                                        E.4.j.c.                                                                ",
"                                                        E.,.!+A.                                                                ",
"                                                        q.,.r.,.                                                                ",
"                                                        j.P.x.4.                                                                ",
"                                                        D $+H.:.                                                                ",
"                                                        #.t.j.7.                                                                ",
"                                                        '.9.$+F.                                                                ",
"                                                        7.r.!+r.                                                                ",
"                                                        x.,+7.D                                                                 ",
"                                                        Y.U.w.(.                                                                ",
"                                                        L.9.A.r.                                                                ",
"                                                        L.!+#.c.                                                                ",
"                                                        P.` r.A.                                                                ",
"                                                        P.:.P.e.                                                                ",
"                                                        L.7.D.l.                                                                ",
"                                                        F.c.$+j.                                                                ",
"                                                        x.r.A.j.                                                                ",
"                                                        x.j.7.j.                                                                ",
"                                                        c.r.!+9.                                                                ",
"                                                        r.$+,+7.                                                                ",
"                                                        Z j.A.u                                                                 ",
"                                                        R 9.'.&.                                                                ",
"                                                        Z r.Z o.                                                                ",
"                                                        &.J.A F.                                                                ",
"                                                        :.L.c Y.                                                                ",
"                                                        j.$+r #+                                                                ",
"                                                        w.,+U *+                                                                ",
"                                                        w.|+(.P.                                                                ",
"                                                        w.[+F.m.                                                                ",
"                                                        s.[+$+:.                                                                ",
"                                                        c.D.$+'.                                                                ",
"                                                        9.7.O.2.                                                                ",
"                                                        7.t.o.*.                                                                ",
"                                                        9.D.2.,.                                                                ",
"                                                        7.k.[.].                                                                ",
"                                                        |.g.2.L                                                                 ",
"                                                        |.|.:.%.                                                                ",
"                                                        |.c.=.X                                                                 ",
"                                                          #.@.`                                                                 ",
"                                                          <.M                                                                   ",
"                                                          d.Z                                                                   ",
"                                                          9.'.                                                                  ",
"                                                          d.5.                                                                  ",
"                                                          |.<.                                                                  ",
"                                                          (.`                                                                   ",
"                                                          J D                                                                   ",
"                                                                                                                                ",
"                                                                                                                                ",
"                                                                                                                                "};
