/* XPM */
static char * item_rot_4a_64_xpm[] = {
"64 64 256 2",
"  	c None",
". 	c #51493E",
"+ 	c #5B5247",
"@ 	c #5F5646",
"# 	c #695B51",
"$ 	c #645D52",
"% 	c #665E4D",
"& 	c #6A6257",
"* 	c #6C6453",
"= 	c #70685D",
"- 	c #726858",
"; 	c #76685E",
"> 	c #756D62",
", 	c #776D5C",
"' 	c #797165",
") 	c #787461",
"! 	c #7D7362",
"~ 	c #7D7569",
"{ 	c #7E7871",
"] 	c #827867",
"^ 	c #81786D",
"/ 	c #7B7A6C",
"( 	c #7D7A67",
"_ 	c #867C6B",
": 	c #837D76",
"< 	c #857D70",
"[ 	c #817F72",
"} 	c #83806D",
"| 	c #897F6E",
"1 	c #888074",
"2 	c #8A8276",
"3 	c #928172",
"4 	c #8D8372",
"5 	c #888572",
"6 	c #878578",
"7 	c #8A847D",
"8 	c #8D8579",
"9 	c #8B897B",
"0 	c #90887B",
"a 	c #928876",
"b 	c #8F8882",
"c 	c #8E8B77",
"d 	c #98887E",
"e 	c #928B84",
"f 	c #958B79",
"g 	c #948B7F",
"h 	c #8E8D80",
"i 	c #9C8B7B",
"j 	c #988E7C",
"k 	c #978E82",
"l 	c #929182",
"m 	c #95917E",
"n 	c #979089",
"o 	c #999185",
"p 	c #9B917F",
"q 	c #9E9381",
"r 	c #979587",
"s 	c #9C9487",
"t 	c #999682",
"u 	c #9B958E",
"v 	c #9E9589",
"w 	c #A09583",
"x 	c #A19785",
"y 	c #A0978B",
"z 	c #9C9985",
"A 	c #9B998B",
"B 	c #A49987",
"C 	c #A09B81",
"D 	c #9D9B8D",
"E 	c #A29A8D",
"F 	c #A19A93",
"G 	c #9B9C93",
"H 	c #9F9C88",
"I 	c #AA9989",
"J 	c #A49C8F",
"K 	c #A69C89",
"L 	c #A69E91",
"M 	c #A89E8B",
"N 	c #A59E98",
"O 	c #A1A091",
"P 	c #A3A08C",
"Q 	c #A6A187",
"R 	c #AAA08D",
"S 	c #A9A093",
"T 	c #ACA18F",
"U 	c #AFA095",
"V 	c #A7A38F",
"W 	c #A9A29B",
"X 	c #ABA295",
"Y 	c #A6A495",
"Z 	c #ADA391",
"` 	c #AFA492",
" .	c #ADA598",
"..	c #B4A49A",
"+.	c #AFA699",
"@.	c #B1A694",
"#.	c #ABA893",
"$.	c #AAA89A",
"%.	c #AEA7A0",
"&.	c #B0A89B",
"*.	c #B2A895",
"=.	c #B4AA97",
"-.	c #B3AA9E",
";.	c #B0AC98",
">.	c #B6AB99",
",.	c #B3ACA5",
"'.	c #B5ACA0",
").	c #AFAE9F",
"!.	c #B7AC9A",
"~.	c #AEAEA5",
"{.	c #BAABA0",
"].	c #B4AF94",
"^.	c #B7AEA1",
"/.	c #B9AE9B",
"(.	c #B3B09B",
"_.	c #B9B0A3",
":.	c #BBB09D",
"<.	c #B6B29E",
"[.	c #B4B3A4",
"}.	c #B8B2AA",
"|.	c #BCB29F",
"1.	c #BBB2A5",
"2.	c #C1B1A7",
"3.	c #BCB3A7",
"4.	c #BEB3A1",
"5.	c #B9B5A1",
"6.	c #BCB5AE",
"7.	c #BEB5A8",
"8.	c #C0B5A3",
"9.	c #C4B4A9",
"0.	c #BCB8A4",
"a.	c #C0B7AA",
"b.	c #C2B7A4",
"c.	c #BAB9AA",
"d.	c #C1B8AB",
"e.	c #C3B8A5",
"f.	c #BDBBAD",
"g.	c #BFBBA7",
"h.	c #C4BAA7",
"i.	c #C3BAAD",
"j.	c #C2BDA2",
"k.	c #C5BCAF",
"l.	c #C7BCA9",
"m.	c #C2BEA9",
"n.	c #CBBBB0",
"o.	c #C6BDB0",
"p.	c #C0BFB0",
"q.	c #C8BDAB",
"r.	c #BFBFB6",
"s.	c #C5BEB6",
"t.	c #C8BFB2",
"u.	c #CABFAC",
"v.	c #C4C1AC",
"w.	c #C3C1B2",
"x.	c #CAC1B4",
"y.	c #CCC1AE",
"z.	c #C7C3AF",
"A.	c #C6C4B5",
"B.	c #CCC3B6",
"C.	c #CEC3B0",
"D.	c #CBC4BD",
"E.	c #CDC4B7",
"F.	c #CFC4B1",
"G.	c #C9C6B1",
"H.	c #CCC6AC",
"I.	c #D0C5B2",
"J.	c #C9C7B8",
"K.	c #CBC7B2",
"L.	c #D5C4B9",
"M.	c #CFC6B8",
"N.	c #CDC9B5",
"O.	c #D1C8BB",
"P.	c #D3C8B5",
"Q.	c #D0C9C2",
"R.	c #D4C9B6",
"S.	c #CCCBBC",
"T.	c #D3C9BC",
"U.	c #CBCBC2",
"V.	c #CFCBB6",
"W.	c #D5CAB7",
"X.	c #D4CABD",
"Y.	c #D0CCB7",
"Z.	c #D1CDB8",
"`.	c #D5CCBF",
" +	c #D0CEBF",
".+	c #D2CEB9",
"++	c #D4CDC6",
"@+	c #D8CDB9",
"#+	c #CFCFC6",
"$+	c #D3CFBA",
"%+	c #DCCCC1",
"&+	c #D7CEC1",
"*+	c #D4D0BB",
"=+	c #D8CFC2",
"-+	c #D2D1C1",
";+	c #DACFBC",
">+	c #D5D2BD",
",+	c #DAD0C3",
"'+	c #D2D2C9",
")+	c #D8D1CA",
"!+	c #DCD1BD",
"~+	c #D5D3C4",
"{+	c #D7D3BE",
"]+	c #DBD2C5",
"^+	c #D8D4BF",
"/+	c #D9D5C0",
"(+	c #DDD4C6",
"_+	c #D6D6CD",
":+	c #D8D6C7",
"<+	c #DCD5CE",
"[+	c #E0D5C2",
"}+	c #DFD5C8",
"|+	c #DBD7C2",
"1+	c #E0D7CA",
"2+	c #DBD9CA",
"3+	c #DDD9C3",
"4+	c #E3D9CC",
"5+	c #DDDBCC",
"6+	c #DFDBC6",
"7+	c #E2DAD3",
"8+	c #E4DBCE",
"9+	c #E6DBC7",
"0+	c #DDDDD4",
"a+	c #E5DCCF",
"b+	c #E0DECF",
"c+	c #E2DEC8",
"d+	c #E1DFD0",
"e+	c #E3DFCA",
"f+	c #E5DED7",
"g+	c #E7DED0",
"h+	c #EAE0D3",
"i+	c #ECE0CD",
"j+	c #E6E2CD",
"k+	c #E4E3D3",
"l+	c #E9E1DA",
"m+	c #E3E3DA",
"n+	c #E7E2E0",
"o+	c #ECE3D5",
"p+	c #EEE5D7",
"q+	c #E9E7D8",
"r+	c #EEE6DF",
"s+	c #ECE8D3",
"t+	c #E9E9DF",
"u+	c #F1E7DA",
"v+	c #F2E8DB",
"w+	c #EDEBDB",
"x+	c #F2ECEB",
"y+	c #F6ECDF",
"z+	c #F0EEDE",
"A+	c #F4EDE5",
"B+	c #EEEFE5",
"C+	c #FAF0E3",
"D+	c #F6F4E5",
"E+	c #FBF3EC",
"F+	c #F5F5EB",
"G+	c #FBFBF1",
"                                                        M.++                                                                    ",
"                                                      V.M.`.`.                                                                  ",
"                                                    O. .0 s M.&+                                                                ",
"                                                    1.+.B.z.J O.                                                                ",
"                                                     .`.&+X.^.g.                                                                ",
"                                                  d.d.(+&+`.X. .E.                                                              ",
"                                                  ^.&+]+=+,+]+_.x.                                                              ",
"                                                  0.(+O.=+=+]+B._.                                                              ",
"                                                  i.]+7.k.M.<+7.1.                                                              ",
"                                                1.&+t.,+x.a.,+7.a.B.                                                            ",
"                                                3.(+^.O.1.^._.'.B.i.                                                            ",
"                                                d.1+*.i.X =.M._.^+7.                                                            ",
"                                                d.B.@.o.a.^.8+i./+1.                                                            ",
"                                                i.'.!.,+E.7.&+7.|+g.                                                            ",
"                                                E.5+^.]+k._.u.&.6+i.T.                                                          ",
"                                                `.1+^.3._.1.,+^.3+G.t.                                                          ",
"                                                :+t.&.(+E.k.t.S 3+Z.d.                                                          ",
"                                              a.2+<+o.x.M.`.B &.,+*+1.                                                          ",
"                                              s.8+_.`.8+`.B.` -.`.*+^.                                                          ",
"                                              A.7+X t.O.i.o.` -.]+O.^.                                                          ",
"                                              B.5+&.k.O.t.O.T &.:+O.7.                                                          ",
"                                              B.(+ .x.T.B.O.-.-. +s.d.o.                                                        ",
"                                              s.)+&.x.O.a.`.]+M.(+<+d.a.                                                        ",
"                                              i.++=+M.z.i.O.`.1._.S 1.i.                                                        ",
"                                              k.J.`.M.=+]+8+B.-.^.X a.t.                                                        ",
"                                              _.&.t.x.`.`.M.<.J t.'.t.k.                                                        ",
"                                              k.3.k.1.7.d.7.X.&.x.m.B.d.                                                        ",
"                                              k.B.<+t.t.z.m.=+x.T.V.V.7.                                                        ",
"                                              d.]+]+t.O.N.T.N.7./+^+Z.7.                                                        ",
"                                              k.1+i.1.+.<.a.^.E /+|+Z.d.                                                        ",
"                                              i.1+]+x.7.o.0.`.7.*+|+V._.                                                        ",
"                                              i.4+X '.X.(+B.@.v ^+6+K.'.                                                        ",
"                                              i.1+7.^.E.O.O.+.L |+6+O.-.                                                        ",
"                                              i.(+a.d.O.X.&+'.X (+|+.+&.                                                        ",
"                                              i.=+d.x.&+M.E.a.&.&+{+O.-.                                                        ",
"                                              a.&+7.E.O.5.o.d.X :+`.T.-.                                                        ",
"                                              7.B.o.M.X.7.O.E.+.5+B.M.&.                                                        ",
"                                              1.a.O.X.<+O.f+M._.S.a.E.&.                                                        ",
"                                              7. .t.E.&+a.7+k.0.k.i.E.^.                                                        ",
"                                              1.&.&+d.i.1.1+-.1.7.++O.-.                                                        ",
"                                              1.o.(+i.^.+.x.E +.E 8 t.-.                                                        ",
"                                              '.`.5+d.^.Z x.X O. .J z.^.                                                        ",
"                                                $+(+k.S V <.J 8+7. .o.1.                                                        ",
"                                                Y./+O.J Z J &.5+*+a.i.^.                                                        ",
"                                                K.*+]+7.S &.k.1+|+O.g.1.                                                        ",
"                                                z..+(+z.7.E (+4+|+W.k._.                                                        ",
"                                                k.O.E.>+^.i.|+6+{+Y.0.                                                          ",
"                                                i.Z.'..+N.`.{+^+/+M.<.                                                          ",
"                                                i.o.z.N.{+*+=+1+&+V.1.                                                          ",
"                                                i.k.G.B.>+`.t.E.*+M.'.                                                          ",
"                                                7.z.k.5.G.x.i.t.V.v.&.                                                          ",
"                                                  t.i.0.i.m.z.z.z.8.+.                                                          ",
"                                                  a.!.m.g.h.d.q.a.!. .                                                          ",
"                                                  t.m.g.8.h.0.h.g.!.X                                                           ",
"                                                  i.k.<.'.g.1.q._.|.                                                            ",
"                                                  7.k./.^.e.|.O.;.-.                                                            ",
"                                                    o.L 1.v.!.(.!.+.                                                            ",
"                                                    7.h.|.Z b.;.1.+.                                                            ",
"                                                    ^.y.e.<.4.v.;.                                                              ",
"                                                      a.e.5.d.0.'.                                                              ",
"                                                      &.e.M.i.&.J                                                               ",
"                                                        >.:. .&.                                                                ",
"                                                        J S M L                                                                 ",
"                                                                                                                                "};
