/* XPM */
static char * item_rot_2c_64_xpm[] = {
"64 64 256 2",
"  	c None",
". 	c #362B26",
"+ 	c #3A3435",
"@ 	c #40352F",
"# 	c #5A3B38",
"$ 	c #49423F",
"% 	c #454348",
"& 	c #514138",
"* 	c #53403F",
"= 	c #674542",
"- 	c #614843",
"; 	c #5E4B42",
"> 	c #63494A",
", 	c #514F54",
"' 	c #5E4C4A",
") 	c #584E49",
"! 	c #5A4E43",
"~ 	c #554F4E",
"{ 	c #6C524D",
"] 	c #68544C",
"^ 	c #844B51",
"/ 	c #625752",
"( 	c #64574D",
"_ 	c #5F5857",
": 	c #6B5856",
"< 	c #695860",
"[ 	c #5D5D61",
"} 	c #735853",
"| 	c #835460",
"1 	c #6B5D54",
"2 	c #705C53",
"3 	c #645F5E",
"4 	c #675F54",
"5 	c #6A5E59",
"6 	c #695E5E",
"7 	c #666059",
"8 	c #76625A",
"9 	c #96585F",
"0 	c #6F6465",
"a 	c #72645A",
"b 	c #716460",
"c 	c #6A6665",
"d 	c #6D665A",
"e 	c #865D6A",
"f 	c #6C6660",
"g 	c #9B5768",
"h 	c #786563",
"i 	c #70676D",
"j 	c #77656D",
"k 	c #696A6E",
"l 	c #7D6860",
"m 	c #756A6B",
"n 	c #786A60",
"o 	c #776A66",
"p 	c #706C6B",
"q 	c #726C66",
"r 	c #846F67",
"s 	c #7C7172",
"t 	c #7E716D",
"u 	c #807167",
"v 	c #79736C",
"w 	c #737478",
"x 	c #787372",
"y 	c #7B7367",
"z 	c #A1676B",
"A 	c #847079",
"B 	c #857270",
"C 	c #7D747A",
"D 	c #AB6A7A",
"E 	c #8B766D",
"F 	c #837879",
"G 	c #857873",
"H 	c #87786D",
"I 	c #7E7A79",
"J 	c #807A73",
"K 	c #827A6D",
"L 	c #7A7B7F",
"M 	c #9E737D",
"N 	c #8D7E73",
"O 	c #8C7E7A",
"P 	c #85807F",
"Q 	c #87807A",
"R 	c #937E75",
"S 	c #808380",
"T 	c #917E7D",
"U 	c #927E87",
"V 	c #8B8275",
"W 	c #8C8181",
"X 	c #8B8288",
"Y 	c #868488",
"Z 	c #818689",
"` 	c #948479",
" .	c #8B8685",
"..	c #868885",
"+.	c #928580",
"@.	c #8D8780",
"#.	c #BB7E82",
"$.	c #9E887D",
"%.	c #958B91",
"&.	c #9A8B80",
"*.	c #978B8C",
"=.	c #998B86",
"-.	c #9C8B7B",
";.	c #938D86",
">.	c #958D7F",
",.	c #908D92",
"'.	c #928D8C",
").	c #8A8F92",
"!.	c #8C8F8B",
"~.	c #B7848E",
"{.	c #9F8D96",
"].	c #A0928F",
"^.	c #9F9388",
"/.	c #A3937D",
"(.	c #A29382",
"_.	c #A79188",
":.	c #989599",
"<.	c #9B958E",
"[.	c #90979F",
"}.	c #929799",
"|.	c #9A9594",
"1.	c #959794",
"2.	c #9E949B",
"3.	c #9B9D9A",
"4.	c #9F9CA0",
"5.	c #A29C95",
"6.	c #979EA6",
"7.	c #A89A97",
"8.	c #999EA0",
"9.	c #A19C9B",
"0.	c #A59C8E",
"a.	c #AC9C92",
"b.	c #C0959C",
"c.	c #B49A91",
"d.	c #AE9D8D",
"e.	c #AF9E87",
"f.	c #B799A5",
"g.	c #A89EA4",
"h.	c #AFA09D",
"i.	c #A2A4A1",
"j.	c #A5A3A7",
"k.	c #A7A3A1",
"l.	c #A9A39C",
"m.	c #9EA5AD",
"n.	c #ABA395",
"o.	c #A0A5A7",
"p.	c #B8A89A",
"q.	c #B0AAA3",
"r.	c #B6A8A5",
"s.	c #ADAAAF",
"t.	c #A5ACB5",
"u.	c #AFAAA8",
"v.	c #A7ACAE",
"w.	c #A9ACA8",
"x.	c #B3AA9C",
"y.	c #B9AB8D",
"z.	c #CCA3AA",
"A.	c #B4AAB1",
"B.	c #C4A6B3",
"C.	c #C3A9A1",
"D.	c #BBAD95",
"E.	c #ACB3BC",
"F.	c #C0AFA2",
"G.	c #B6B1B0",
"H.	c #AEB3B6",
"I.	c #B8B1AA",
"J.	c #BEAFAC",
"K.	c #BAB1A4",
"L.	c #BCB19F",
"M.	c #B1B3B0",
"N.	c #B4B2B6",
"O.	c #BEB8B1",
"P.	c #BDB8B7",
"Q.	c #B5BABD",
"R.	c #C1B8AB",
"S.	c #B8BAB7",
"T.	c #C4B8A5",
"U.	c #D9B2B9",
"V.	c #C9B8AD",
"W.	c #BEBBC0",
"X.	c #C8B9B6",
"Y.	c #C9BB9D",
"Z.	c #B5BEC7",
"`.	c #C4BAC0",
" +	c #CFB7C1",
".+	c #C9BCA3",
"++	c #D0B9B0",
"@+	c #C4BFBE",
"#+	c #BEC1BD",
"$+	c #C6BFB8",
"%+	c #C8BFB2",
"&+	c #CBBFAC",
"*+	c #BCC2C4",
"=+	c #D2C4A5",
"-+	c #D0C6B9",
";+	c #D2C6B4",
">+	c #C3C9CB",
",+	c #CDC7BF",
"'+	c #CAC7CB",
")+	c #CCC7C6",
"!+	c #C6C9C5",
"~+	c #BFCAD4",
"{+	c #D6C9B0",
"]+	c #E7C2C8",
"^+	c #D7C8C5",
"/+	c #DCC8D1",
"(+	c #D9CEBB",
"_+	c #D5CFC8",
":+	c #D8CFC2",
"<+	c #C7D2DD",
"[+	c #D2D0CE",
"}+	c #CED1D4",
"|+	c #E8D0C7",
"1+	c #DDD7CF",
"2+	c #DFD7C9",
"3+	c #DCD7D5",
"4+	c #E8D6CA",
"5+	c #D9D9E4",
"6+	c #E3D9C6",
"7+	c #E5D9BF",
"8+	c #CEDDEB",
"9+	c #E8D7D5",
"0+	c #DDDADF",
"a+	c #D7DCDF",
"b+	c #D9DCD8",
"c+	c #D3DDE5",
"d+	c #E8D7DF",
"e+	c #E5DED0",
"f+	c #E4DED6",
"g+	c #E3DEDD",
"h+	c #F3E2D7",
"i+	c #EDE6D6",
"j+	c #EBE6DE",
"k+	c #E5E7EA",
"l+	c #EBE6E4",
"m+	c #E5E8E4",
"n+	c #F2E7CD",
"o+	c #F5E5E4",
"p+	c #DEEBF5",
"q+	c #F8E4ED",
"r+	c #F1E7ED",
"s+	c #F3EDDD",
"t+	c #EDEEF2",
"u+	c #F1EEEC",
"v+	c #F4EEE6",
"w+	c #FFF1EB",
"x+	c #FDF1F7",
"y+	c #FAF4F3",
"z+	c #FAF6E5",
"A+	c #FDF5EE",
"B+	c #F5F7F4",
"C+	c #F9F9F0",
"D+	c #F5FAFD",
"E+	c #FCF9FD",
"F+	c #FFFBF9",
"G+	c #FFFFFF",
"                                                      ^+X.^+,+,+,+^+^+J.                                                        ",
"                                              X.%+%+-+2+_+1+1+1+f+j+g+f+)+@+J.J.z.                                              ",
"                                        $+R.R.V.K.K.l.;.v 7 6 _ 5 o K +.a.K.$+,+X.I.r.f.                                        ",
"                                    V.T.K.l.@.f S 4.W.}+m+t+t+u+0+[+)+@+l.+.u V 0.R.$+J.r.z.                                    ",
"                                K.x.l.<.I |.#+m+B+C+v+u+C+y+F+F+0+g+@+j+u+v+f+_+l.N >.K.X.O.h.b.                                ",
"                            K.a.n.'.!.N.3+j+i+g+f+(+(+:+:+f+f+u+b+B+3+_+_+:+O.O.O.3+%+>.` x.%+r.c.                              ",
"                          h.a.5.!.M.$+I.2+T.x.5.q._+%+n.,+O.u.u+[+B+3+1+2+R.$+q.:+P.3+-+R.^.>.%+J.h.b.                          ",
"                        0.7.1.3.O.R.;+&.=.O.$+I.I.3+5._+j+l+B+F+@+u+g+1+e+,+f+$+-+I.b+I.R.%+J.&.x.X.r.f.                        ",
"                    O.^.q.3.N.;+-.O.n.n.&.O._+2+-+)+j+j+j+v+C+F+l+j+i+e+:+f+$+_+q.P.u.u.q.l.@+_+0.0.K.I.C.                      ",
"                  O.^.u.j.@+&+_.` O.].7.K.+.O.R.-+2+f+s+u+y+F+F+F+f+j+f+2+:+-+x.q.l.q.q.5.P.O.@+1+p.-.K.u.r.                    ",
"                  =.u.N.,+L.&.&.` 5.l.x.].R.h.X.q.,+1+v+C+F+F+E+F+g+j+f+e+:+:+(+-+O.q.l.G.u.P.s.u.n.x.^.K.q.f.                  ",
"                ;.9.H.O.0.%+` &.^.9.,+T.&+V.&.r.r.$+)+v+C+F+F+F+F+g+u+e+_+:+,+$+$+O.I.q.O.I.g+j.3.l.r.$+` x.q.h.                ",
"              =.k.M.$+I.-+(.V =.0.=.%+L..+&+0.2+0.J.$+j+C+F+G+F+F+I.[+@+P.O.P.@+!+b+O.$+I.q.3+w.4.9.<.O.%+H q.j.B.              ",
"            7.*.Q.$+&.].X.` ` I.h.a.p.L.&+;+L.O.-+=.h.$+3+B+G+F+C+r.[+)+1+$+$+P.>+*+3+O.I.K.I.)+9.9.*.q.)+I.G N.s.z.            ",
"          q. .N.)+^.H 8 ].0.W I.0.a.p.T.;+;+;+x.i+O.r.q.[+0+E+G+B+r.b+3+3+$+_+1+u.S.0+O.O.I.R.l.k.'.w.:.;._+=.G M.u.            ",
"          +.s.'+x.N u u u V ^.0.(.d.L.T.;+:+:+K.j+_+_+5.,+[+B+G+F+r.)+j+g+,+,+_+)+N.m+P.%+J.q.q.l.q.3.'.<.5.5.B *.N.J.          ",
"        *.1.!+q.=.h.G G N &.N &.(.(.0.;+;+6+f+-+j+f+j+O.I.q.[+B+C+r._+$+@+2+s+I.P.G.}+3+O.R.I.q.q.5.9.|.|.|.|.l.b k.j.B.        ",
"        G S.[+N 2 u ].=.t o +.0.&.o <.p.L.x.s+e+$+1+f+3+5.O.O.3+u+I.9.Q @.;.@.G ;.9.G.k+[+I.r.q.k.l.9.9.|.;.|.[+9.F w.J.        ",
"      =.1.}+7.u n a a q.7.h o 0.^.&.;+(+6+s+v+i+I.j+_+u+s.k.R.$+[+G.@+a.0.0.^.^.n.&.l.)+l+,+q.q.k.k.9.9.<.j.9.'.q.b k.s.B.      ",
"      G *+[+H n o o u G N B H ` T.L.Y.(+n+i+s+i+O.f+,+u+N.@++.r.@+P.[+;+&+&+T.&+;+;+(.I.b+1+)+l.q.k.9.l.u.:.!.1.|.9.F M.A.      ",
"    *.P a+k.u a n b h.u u H ` R ` F.{+6+i+i+i+e+O._+O.k+@+3+q.I.G.)+g+%+;+&+&+&+&+;+T.` 1+@+!+k.k.k.k.l.u.@+1.4.j.[+h w.s.z.    ",
"    @.u.3+F ^.G o b X.H K N N ` -.` %+j+s+n+$+2+O.!+G.m+W.f+@+9.O.I.g+&+&+;+&+{+&+(+7+p.7.0+9.9.9.i.w.i. .i.j.!. .9.+. .s.X.    ",
"    J [+@+1 1 u T +.].u K N N -.(.` a.R.u+i+,+-+I.@+I.k+!+[+G.u.*.q.3+R..+.+&+;+(+:+(+-+].'+G.5.9.k.i.j.3.|.'.1.3.4.^.o s.G.    ",
"  9.P k+].a 5 8 2 7.N u H N ` -._.p.(.h.,+v+$+$+K.)+l.0+'+G.q.k.$+@.g+,+T..+&+&+0.$+;. .<.<.l.9.9.k.i.j.i.4.3.:.4.3.<.o k.s. +  ",
"  ;.9.l+G a a o n u H u H V ` -.d.D.-.p.q.g+,+K.I.O.l.}+#+P.9.7.I.'.)+1+T..+&+.+d.@+_+x.x.l.5.5.l.9.i.i.v.j.9.9.P.}+W.Q |.v.r.  ",
"  F @+[+n t a n K u H u H ` V ` _.D.-.p.].G.[+K.I.I.n.3+@+s.9.|.'.<.G.1+2+e+(+&+L.^.g+I.l.q.I.O.G.5.|.s.s.j.l.k.I x W.u.t M.X.  ",
"  v 3+G.o ^.G t ,+H H H H N V ` ^.p.d.n.a.h.[+K.J.l.^.!+O.*+G.|.|.|.u.;.@+R._+1+%+p.I.5.@.;.l.|.W.S.1.3.w.j.l.S.M.'.<.N.b N.P.  ",
"  m g+<.7.( q.a $+R H N H N N R &.d.d.0.x.I.[+-+l.K.=.O.l.}+u.i.|.5.@+<.l.q.l.P.3+O.<.,+l.I._+|.Q )+#+3.j.k.;.!+@+S.5.u.o w.A.  ",
"k.s u+F o b G G $+H H H H K H V &.(.(.^.0.h.)+,+J.2+0.K.7.P.5.j.|.5.[+=.=.I.n.7.k.[+q.l.I.@+3.|.|.|.[+4.4.9.<.I ,.j.1.<.m i.H.B.",
"*.P u+G 1 1 b 1 ^.n H H u G K N &.&.&.a.^.q.@+I.x.1+$+x.l.q.|.k.'.|.3+@.l.G V.h.G.N.}+q. .|.9.3.3.<.G.G.3.|.|.1.1.4.i.|.F i.s.f.",
"5. .u+t a n o a a n u K y t G N ` ` V 0.=.q.P.h.O.].l+K.l.5.<.O.5.|.b+<.M.0.` r.l.Q.k+'+9.k.9.9.3.9.%.4.w.N.1.1.3.3.3.9.Q 4.H.)+",
"9.;.u+t o 5 a a a n n y y t J G V ` G +.<.k.O.7.+.0.l.R.<.=.l.I.$+s.b+l.)+7.=.l.W ..H.m+w.9.9.1.9.9.9.'...1.<.|.S.W.>+'++.|.Q. +",
"@.;.u+v a 1 a +.h.a a o o t K G N V G +.;.|.G.9.^.O q.$+O.x.n.h.I.P.u+G.'+u.I.W I.q.u.N.0+4.4.4.3.4.'.1.3.'.;.k.L I S 4.*.9.H.`.",
"<.W u+y 1 ( ( ] $+a a n y J K G K G t +.5.|.k.5.<.t 5.l.v+1+7.7.u.9.[+M.P.!+G.k.+.u.M.}+m+@+i.3.3.3.9.4.:.!.Q P.4.,.:.:.O :.t.J.",
"9.J u+O 1 ( 1 b 5.5 a b o o K G Q G t =.*.|.G.l.=.^.=.q.$+u+u.<.q.q.g+s.s.0+#+W.V P.:.*+t+k+3.4.3.i.:.4.:.1.'. .W.N.S.!+W j.t.{.",
"  s u+;.u n 1 / 4 1 a a o t G G Q G F *.l.l.G.R.-+;.G +.O b+[+k.u.2.m+@+3.g+b+*+q.j.'+i.*+B+j.i.3.8.3.8.8.3.3.,.L I S 3.F v.H.f.",
"  m g+l.' ! ' / 1 a a n n o K K K t J I.G.5.I.,+:+@+1+;.u.9.[+k.w.9.m+M.9.3+5+}+P.>+j.W.*+0+}+i.4.3.8.4.8.}.:.:.:.:.4.4.C j.s.  ",
"  s )+@+1 1 1 1 a a a n b n y K t b : l.q.l.G.O.I.P.)+!+P.G.g+G.M.*.g+w.q.@+k+b+!+}+X [+S.t+t+o.8.4.o.8.1.'.W.s.:.8.8.j.s v.4.  ",
"  ;.u.g+d 1 O O a a b n n t y y G G h J.,+l.<.;.5.b+u.P.@+$+[+S.s.;.b+u.:+I.g+u+b+c+u.|.!+0+t+o.8.8.8.8.:. .|.W.}+*+v.k.P v.2.  ",
"  <.P u+K b o $+4 Q Q d 5 G 5.].<.+.a a Q <.q.O.)+1+1+f+i.<.O.i.j. .0+$+R.@+[+u+k+b+3+>+s.*+D+H.*+v.6.}.,.1.1.x :.4.'+9.|.v.2.  ",
"    o g+l.I.1 d b Q I.b b t <.4 o ;.T ^.7.O J t Q |.u.@+@+9.@+4.j.Q *+G.5.u.G.}+H.!+b+k+s.[+a+>+}+Q.m.8.}.Y o.P 1.;.v.*.k.v.u.  ",
"    G P.[+T G 5 ) / 5 o o o q.J t t : N ;.<.7.I.I.q.k.3. .@+)+S.j.s W.N.P %.#+g+H.o.8.W.@+P.}+}+}+Z.t.8.3.}.}.).:.'.k.F j.:.    ",
"    <.Q r+y ' / 4 d b +.n y K ;.v v a ( +.x.h.=.Q ;.9.u.u.$+@+)+)+q.G.b+@+|.b+}+a+a+b+[+G.k.}+Q.*+E.Z.o.4.v.}.:.4.,.|.|.v.2.    ",
"      t 3+P.( ( 4 d 1 0.q.o y v v t t a n y ` 0.h.q.I.r.9.<.|.|.k.5.k.u.u.u.N.H.}+>+*+@+*+#+v.>+E.m.Z.4.k.W.:.8.8.9.W w.o.{.    ",
"      =.k.l+y 1 5 K =.8 $+F v v J J K u o n &.0.n.n.].=.<.5.I.I.O.O.O.P.@+@+#+W.*+Q.v.o.8.6.8.>+m.t.Z.4.4.i.W.}+v.9.P v.3.      ",
"      h.G 3+G.@.7.: I.u F l.y v G t K ` G b n G V >.0.0.=.5.<.;.;.;.@. ...:.8.8.o.8.o.E.H.E.E.E.).E.>+8.'+v.,.v.v.;.4.o.2.      ",
"        =.9.u+J O.a o ) / b G y J J J N =.Q n o o t @.=.^.=.n.l.5.I.u.u.i.v.H.o.o.o.v.t.E.t.E.).6.>+~+Z.).}.o.v.j.'.j.j.        ",
"          G )+[+a 5 * / 5 5 q.<.s J J t 0.+.^.;.q 7 5 t +.@.J  .J I I I S !.}.).).).[.[.m.m.6.Z [.>+~+8+<+Z.8.v.'.i.o.9.        ",
"          ;.Q l+|./ ( / 1 d 8 @+v s t o h.+.@.Q ^.@.f / _ 6 3 3 3 3 p c c w w w L Z ).8.[.m.).m.t.~+~+8+8+<+~+v.9.v.4.          ",
"            J 5.l+J ( ( 4 5 2 u.m k.F o ].=.;.Q @.;.;.;.*.;.'. .W P  . .!.!.P P P Y ,.!.Y Z Q.>+t.m.<+p+p+8+*+:.v.v.            ",
"            I.v G.g+b ( 4 y K k.m 9.|.s / 6 / / / _ _ _ _ 3 c c c p x w I L I C w w I L S S S Q.}+~+<+p+p+}+:.M.Q.4.            ",
"              5.v [+1+b ( G ) v 0 _ m m q m v m x x I F F I P P  . .!.!.!.!.!.!.Y ..!.Y Y ).}.Z [.>+c+t+c+3.j.Q.M.              ",
"                Q s [+[+b q.|.q ~ 6 m q m p x v v s I I Q P P P .. .'. .'.}.1.!...Y Y !.1.6.m.E.Z.m.t.Q.k.v.Q.s.                ",
"                   .m )+3+h +.f / b 0 F 9.p q b I.|.J I I P ..P P P  . . .!.i.N.N.,.).!.M.>+~+<+c+c+}+j.j.>+N.                  ",
"                    W m @+3+Q 4 5 f 0 m M.q 0 5 ;.;.v s <.@+4.P P '.u.1.S P  .x !+}+Q.t.Z Z.<+8+c+'+9.j.*+*+                    ",
"                      Q f k.m+u.q f q 7 _ f f 6 p 3 0 0 6 C [+I s  .P !+..x :.Z w E.<+8+8+8+8+<+#+9.G.H.j.                      ",
"                        '.0 '.3+[+;.q b 0 f 6 0 x c f q G.s 3.x 6 k.|.3.S p N.Q.S ).Z.8+p+8+}+u.j.N.v.v.                        ",
"                          |.q q u.g+!+Q f d 7 ~ I 0 J J 7 q k m m x 3 u.|.P p W.Y Z E.p+k+W.9.s.v.v.s.                          ",
"                              F 3 I P.g+@+'.q 0 6 q f l.;.f 6 v 6 M.k.p x !.Y S Z t.}+'+j.k.v.8.m.                              ",
"                                  J f F G.[+3+W.|.I m f 3 0 m v p _ c c S !.8.Q.'+@+u.w.o.,.:.s.                                ",
"                                    ].s q q '.N.'+3+[+!+W.M.w.k.j.w.N.S.!+'+Q.s.j.i.,.Y }.j.                                    ",
"                                          '.s f 6 x '.k.u.N.#+S.N.S.M.k.4.:. .L w P |.                                          ",
"                                                9.'.I x 6 6 0 q m p p c p P '.,.                                                ",
"                                                            2.<.9.9.u.                                                          "};
