/* XPM */
static char * item_rot_1b_64_xpm[] = {
"64 64 256 2",
"  	c None",
". 	c #2E261E",
"+ 	c #332B1D",
"@ 	c #382D28",
"# 	c #352F25",
"$ 	c #3B331F",
"% 	c #3D362C",
"& 	c #403723",
"* 	c #423630",
"= 	c #41392A",
"- 	c #413B31",
"; 	c #48413C",
"> 	c #4A4232",
", 	c #4A4237",
"' 	c #4C432E",
") 	c #51493E",
"! 	c #514944",
"~ 	c #524A39",
"{ 	c #584F3F",
"] 	c #574F44",
"^ 	c #564F4A",
"/ 	c #5D5444",
"( 	c #5C5449",
"_ 	c #625949",
": 	c #61594E",
"< 	c #655F59",
"[ 	c #685F4F",
"} 	c #675F54",
"| 	c #6E5E4F",
"1 	c #696654",
"2 	c #6E6554",
"3 	c #6D6559",
"4 	c #6C655F",
"5 	c #6E6B59",
"6 	c #786859",
"7 	c #736A59",
"8 	c #726A5E",
"9 	c #7C6D5D",
"0 	c #7B6D63",
"a 	c #73705D",
"b 	c #786F5E",
"c 	c #776F64",
"d 	c #767259",
"e 	c #7C7361",
"f 	c #7B7367",
"g 	c #837263",
"h 	c #797663",
"i 	c #827369",
"j 	c #7B756E",
"k 	c #7E766A",
"l 	c #807665",
"m 	c #877767",
"n 	c #7D7B6D",
"o 	c #87786E",
"p 	c #807A74",
"q 	c #827A6E",
"r 	c #847A69",
"s 	c #807C69",
"t 	c #8E7D6E",
"u 	c #887F6D",
"v 	c #84816E",
"w 	c #838174",
"x 	c #8D7E74",
"y 	c #888074",
"z 	c #87817A",
"A 	c #8B8170",
"B 	c #8B857F",
"C 	c #8F8573",
"D 	c #8E8579",
"E 	c #888779",
"F 	c #8A8773",
"G 	c #948474",
"H 	c #928A7D",
"I 	c #948A78",
"J 	c #9A8979",
"K 	c #99897F",
"L 	c #908D79",
"M 	c #928C85",
"N 	c #978D7B",
"O 	c #968D81",
"P 	c #979077",
"Q 	c #9F8E7E",
"R 	c #9A907E",
"S 	c #9E8F86",
"T 	c #97918A",
"U 	c #9A9185",
"V 	c #96937F",
"W 	c #959385",
"X 	c #9D9381",
"Y 	c #A59484",
"Z 	c #A09684",
"` 	c #9F968A",
" .	c #A5958B",
"..	c #9D9791",
"+.	c #9C9985",
"@.	c #A39987",
"#.	c #A2998D",
"$.	c #AA9A90",
"%.	c #A69C8A",
"&.	c #A59C90",
"*.	c #9F9E8F",
"=.	c #A19E8A",
"-.	c #A39D96",
";.	c #AD9C8C",
">.	c #AAA08D",
",.	c #A9A094",
"'.	c #A4A294",
").	c #A6A199",
"!.	c #A7A38F",
"~.	c #B0A096",
"{.	c #ACA28F",
"].	c #B4A292",
"^.	c #ABA49D",
"/.	c #AEA492",
"(.	c #ADA497",
"_.	c #A7A697",
":.	c #B0A79A",
"<.	c #B2A795",
"[.	c #B6A69C",
"}.	c #AFA8A1",
"|.	c #ACAA9C",
"1.	c #AEAA95",
"2.	c #B9A797",
"3.	c #B4AA97",
"4.	c #B3AA9D",
"5.	c #B5ACA0",
"6.	c #B7AC9A",
"7.	c #B4ADA7",
"8.	c #BCACA2",
"9.	c #B9AE9C",
"0.	c #B3B09B",
"a.	c #B2B0A2",
"b.	c #B6B096",
"c.	c #B7AFA2",
"d.	c #B9B0A3",
"e.	c #BBB09D",
"f.	c #BAB49A",
"g.	c #BDB3A0",
"h.	c #BCB3A6",
"i.	c #C2B2A7",
"j.	c #BBB4AD",
"k.	c #B7B6A7",
"l.	c #B9B6A1",
"m.	c #BEB5A9",
"n.	c #C0B5A3",
"o.	c #C6B4A3",
"p.	c #C1B8AB",
"q.	c #C3B8A5",
"r.	c #BEBAA6",
"s.	c #C0B9B2",
"t.	c #C8B8AD",
"u.	c #C3BAAD",
"v.	c #C5BAA7",
"w.	c #BCBCB4",
"x.	c #BEBDAE",
"y.	c #C5BCAF",
"z.	c #C7BCA9",
"A.	c #C2BEA9",
"B.	c #C4BDB6",
"C.	c #C5C1AD",
"D.	c #D0BEAD",
"E.	c #CAC0AD",
"F.	c #C9C0B3",
"G.	c #C2C2BA",
"H.	c #CFBFB4",
"I.	c #C8C1BA",
"J.	c #C4C3B4",
"K.	c #C9C3A8",
"L.	c #CBC2B5",
"M.	c #CDC2AF",
"N.	c #C8C4AF",
"O.	c #CEC5B8",
"P.	c #D0C5B2",
"Q.	c #CCC7AC",
"R.	c #C9C7B8",
"S.	c #CBC7B2",
"T.	c #CEC7C0",
"U.	c #D0C7BA",
"V.	c #D2C7B4",
"W.	c #C9C9C0",
"X.	c #D8C6B5",
"Y.	c #D3C8B5",
"Z.	c #D7C7BC",
"`.	c #D2C9BC",
" +	c #CCCBBC",
".+	c #CECBB6",
"++	c #D0CDB8",
"@+	c #D3CCC5",
"#+	c #D5CCBE",
"$+	c #D7CCB9",
"%+	c #CECEC5",
"&+	c #D0CEBF",
"*+	c #D2CEB9",
"=+	c #D3CFBA",
"-+	c #D7CEC1",
";+	c #D5D1BC",
">+	c #D9D0C3",
",+	c #DBD0BD",
"'+	c #D2D2C9",
")+	c #D4D2C3",
"!+	c #D7D3BE",
"~+	c #D9D2CB",
"{+	c #DBD2C5",
"]+	c #D8D4BF",
"^+	c #E1D1C7",
"/+	c #D9D5C0",
"(+	c #DFD4C1",
"_+	c #DED4C7",
":+	c #D8D6C7",
"<+	c #D6D7CE",
"[+	c #DBD7C2",
"}+	c #DBD9CA",
"|+	c #DDD9C4",
"1+	c #E1D8CA",
"2+	c #E4D8C5",
"3+	c #E7D7CC",
"4+	c #E0D9D2",
"5+	c #DBDBD2",
"6+	c #E4DACD",
"7+	c #DEDCCD",
"8+	c #E0DCC7",
"9+	c #E6DDD0",
"0+	c #E1DFD0",
"a+	c #E3DFCA",
"b+	c #E9DECB",
"c+	c #E6DFD8",
"d+	c #E9DFD2",
"e+	c #E1E1D8",
"f+	c #EAE1D4",
"g+	c #E5E3D4",
"h+	c #E7E3CD",
"i+	c #F0E0D6",
"j+	c #EDE4D6",
"k+	c #E9E6D0",
"l+	c #ECE4DD",
"m+	c #E6E6DD",
"n+	c #F0E4D1",
"o+	c #E8E6D7",
"p+	c #EFE6D9",
"q+	c #F3E8D5",
"r+	c #F2E9DB",
"s+	c #EFEAE9",
"t+	c #F2EAE3",
"u+	c #ECECE3",
"v+	c #EEECDC",
"w+	c #F1EDD7",
"x+	c #F6ECDF",
"y+	c #F9EFE2",
"z+	c #F1F1E9",
"A+	c #F3F1E2",
"B+	c #F7F0E9",
"C+	c #FDF4E6",
"D+	c #F9F7E7",
"E+	c #FDF6EE",
"F+	c #FDF8F6",
"G+	c #FBFBF2",
"                                                    T.O.L.U.R.U.`.T.                                                            ",
"                                              U.y.O.Y.V.P.E.P.U.#+U.S.R.)+                                                      ",
"                                          @+`.#+p.{.C l A y y y q y ,.C.S.O.&+                                                  ",
"                                      )+O.#+h.u e R 9.u.S.O.S.U.O.F.5.H O h.#+&+                                                ",
"                                    &+#+F.D 8 &.E.#+!+{+]+-+{+{+{+-+>+U.L./.X y.U.&+                                            ",
"                                  U.`.:.3 ` L.>+_+[+_+/+[+:+}+}+1+|+8+/+>+U.F.(./.#+#+                                          ",
"                                U.#+O 8 h.L.>+}+{+1+1+1+1+_+_+_+_+>+#+#+!+;+#+#+A.` O.#+                                        ",
"                               +`.U f y.#+`.6+f+f+1+-+F.L.L.F.F.u.p.y.{+>+!+;+;+#+F.U y.#+                                      ",
"                            >+`.#.f F.>+>+d.u.>+~+4+_+O.4.[.:.c.F.t.m.F.>+#+-+-+>+#+Y.Z E.`.                                    ",
"                          ~+#+c.3 F.{+1+_+d.:.F.F.`.U.,.{.6.<.u.1+9+6+1+-+L.#+>+_+>+>+U.` M.U.                                  ",
"                          O.O.} m.>+}+0+}+d.d.O.m.:.y :./.<.{.<.y.;+O.L.L.<.8.u.L.{+{+{+`.#.N.                                  ",
"                        @+U.D &.-+7+4+4+1+h.F.p+l+l+#+d.6.3.<.<.4.d.p.O.5.<.9.3.L.f+{+{+_+m.,.F.                                ",
"                        U.d.n `.1+0+7+4+0+O.{+o+9+l+9+F.6.6.3.:.u.9+O.p.,.9.6.<.d.#+{+1+j.5.u.e.O.                              ",
"                      U.#+c p.{+1+9+0+4+6+y.p.)+-+_+O.U.4.:./.h.1+p+f+1+F.9.6.:.6./.g.F.7.#.-+(.F.                              ",
"                      O.^.B >+7+0+f+o+0+6+`.f+0+d.h.4.:.d.~./.d.`.>+{+1+&+p.3.<.:.-+}+`.` ,.>+`.(.y.                            ",
"                    F.`.4 B.7+0+c+g+o+g+0+y.F.:+1+1+1+1+6.(.4.h.#+u.:.p.,.(.3.<.h.g+{+9+s.&.>+{+d.q.                            ",
"                    F.c.y {+7+9+0+:+g+o+d+y.%.O U #.Z &.-+U.F.y.1+9+1+9+`.h.9.<.c.O.$+Y.O.(.#+[+-+<.U.                          ",
"                  N.z.q d.{+0+4+}+&+0+o+g+F.~.(.(.&.3./._+U.9+6+_+F.h.d.h.m.p.9.p.9+O.h.:.O #+|+/+d.y.                          ",
"                  R.n.< `.F.l+u+~+O.d+9+}+L.%.(.:.(.9.(.O.>+#+F.=+f+9+d+#+{+9+1+{+h.y.>+F.y O.8+8+;+:.L.                        ",
"                  u.(.B -+-+d.z+c+O.t+F.U.O. .(.(.(.:./.O.-+F.#+O.F.L.>+(.m.O.#+O.@.>.` D ` ++|+8+/+0.L.                        ",
"                  E.D a.>+_+F.j.l+1+I.T 0+U.%.(.(.(.4./.>+-+`.L.O.!+1+L.p.p.L.L.L.%.<./.&.(.`./+{+/+C.h.                        ",
"                F.L.4 I.-+#+{+_+~+9+~+u+0+#+8.L.#+U.O.(.>+#+y.L.#+a+y.L.F.N.O.{+-+>.{./.%.,.#+>+V.;+;+:.L.                      ",
"                p.y.< &+F.(.H k &.#.O k.)+O.1+6+f+d+9+-+O.y.{+#+U.y.L.`.,.N.F.F.1+(.(./.&.,.y.g+-+#+O.:.y.                      ",
"                u.c.p -+#+#+-+5.D D ` j.O.y.&.`.`.`.F.d.{+F.F.`.#+h.U.F.:.h.L.>+-+U.#+O.m.:.L.I.4+6+d.p.c.                      ",
"                p.,...#+=+=+-+5.q O ` _+4+U.$.:.y.y.(.#.U.6+9+9+#+_+U.U.-+9+d+_+_+F.U.1+>+F.O._+}+s.@+U.(.F.                    ",
"                C.U }.#+;+;+`.U y.O.U `.9+U.&.`.U.`.(.#.p.#+L.:+4.-+`.>+O.#+6+6+1+(.F.O.p.O h.&.(.}.F.`.(.u.                    ",
"                N.E #.S.=+#+U.y.>+>+F.F.1+O.p.f+c+l+T.&.y.F._+p.h.p.F.O.3.u.p.y.h.%.*+h.O U O.#+,.#.4.F.4.F.                    ",
"              ~+N.n ^.F.#+#+#+>+_+}+_+_+1+U.1+1+>+{+>+m.y.{+4.y.p.O.E.4.++N.++S.v.:.6+|+4.(.F.]+).,.U.#+5.p.                    ",
"              O.N.k }.L.*+-+]+{+1+}+1+1+1+U.c.u.d.c.(.,.y.p.p._+/.!+`.!+U.A.[+U.>+m.-+;+;+O.r.`.*+.+.+=+h.h.                    ",
"                C.8 4.F.#+;+!+}+_+{+1+6+6+U.9+9+}+#+7+-+O.:.>+:.=.>.c.S.&.1.r.-+4.:.r.c.d.H c.|+[+!+/+!+u.5.                    ",
"                C.8 5.F.`.*+#+{+1+1+9+9+1+&+,.(.m.L.p.#.C.>+5.c.A.`.u.c.F.]+h.y.n.y.{+`.*+:.4.!+|+[+[+!+F.4.                    ",
"                F.f c.F.#+#+;+{+:+1+9+9+9+{+,.#.&.` H #.m.L.r.*+.+`.9+1+j+N.#+E.;+!./.4.:.D c.]+8+8+[+;+m.:.                    ",
"                N.w 4.O.U.#+#+>+-+>+1+9+f+1+p.:.:.d.:.<.,.d.]+r.A.L.O.-+#+m.-+[+O.4.(.{./.&.p.[+8+a+[+!+F.(.                    ",
"                y.H ,.F.`.=+#+>+_+>+U.0+f+6+m.!./.4.:.3.h.O.|+F.++&+#+6+`.L.*+6+U.L.5.>.>.(.O.|+=+[+/+#+L.:.5.                  ",
"                `.&...g..+!+#+_+-+)+y._+g+0+F./.>./.<.p.9+F.`.`.*+>+6+e.U.L.C.U.9.9+m.>.@.>.>+}+O.=+>+-+L.4.5.                  ",
"                R.(.T C.U.`.#+O.v+)+y.#+o+F.-+p././.9.y.1+#+r.{+L.#+y.1.9.(.F.E.M.1+L.>.R /.L.u+#+`.p.#+y.:.                    ",
"                R.:.y d.O.`.#+y.s.A+y.}+k.R.{+9.<.>.h.9+L.y.-+u.:+>+d.;+d.L.#+@+6+4+-+9.%.9.E.m.7+h.r.V.F.:.                    ",
"                k.d.c p.L.O.#+#+4.c.1+L.}.>+{+F.h.4.`.`.L.O.l+t+F.&+>+F.#+y.}+B+l+L.U.d./.r.y.F.`.L.o+;+p./.                    ",
"                J.m.c h.O.U.#+_+9+U.F.p.}+o+9+>+h.h.#+L.y.0+l+c+O._+(.4.&.c+c+&+{+!+#.Z #.r.d.D &.B T O.c.c.                    ",
"                  h.H :.p.U.C.&.q ` ` U y '.u.{+L.F.:./.y.v+1+5.{+m.:.,.:.p._+y.#+L.I =.&.U.u.6.y k U.++<.c.                    ",
"                  u.:.U h.O.++U.y.5.f D 5._+1+1+-+5.U N u.9+L.=.L.O ,.{./.1.u.O.U.(./.,.-+g+g+h.:.W L.U.3.m.                    ",
"                  c.p.D 5.F.S.*+r.O :.O ,.1+6+0+7+#+:.C.(.`.d._+c.` &.&.{./.&._+(.D (.g._+9+a+!+{+*+N.O.9.a.                    ",
"                  c.P.D 5.F.U.*+l.'.`.F.,.1+6+6+0+7+.+4.y.,.4.-+H ` !.%.%./.%.` :.&.4.-+1+0+!+|+[+V..+C.e._.                    ",
"                    y.:.U F.#+*+r.`.-+#+O.1+6+6+0+7+|+#+` U L.U U ` !.>./.>.&.m.H (._+|+6+6+/+#+]+*+O.:.9.                      ",
"                    m.p.D m.S.*+=+>+:+)+:+-+_+_+}+6+1+[+S.h.H c.p.c.,.!.!.c.m.` ,.{+1+8+8+[+/+/+>+L.U.h.(.                      ",
"                    y.C.&.:.r.*+;+]+/+!+[+!+/+|+[+_+{+[+-+{+U.r.&.c.y.4.u.,.#.u.S./+/+-+0+`.`.>+#+U.S.n.#.                      ",
"                      r.C.O m.S.++;+[+/+/+/+;+/+.+`.9+>+{+{+]+=+U.U.4.d.,.y.-+*+=+!+`._+1+1+O.;+#+F.6.e.                        ",
"                      k.C.&.4.S..+++;+;+!+]+!+;+C.&+{+9+9+`.;+=+/+|+/+N.S.!+]+#+#+P.{+(.:.#+y.U.U.n./.(.                        ",
"                        h.u.S S.N..+++;+]+;+;+O.C.|+d.,.F.9+F.U.;+|+|+!+;+.+[+U.z.C.N.A.N.r.h.q.C.3.6.#.                        ",
"                        j.E.:.m.J.z.S..+;+;+*+E.U.;+!.4.5./.5.F.O.[+[+=+!+++;+{+v.E.U.A.M.n.r.n.z.<.4.                          ",
"                          h.F.,.L.y.S.S..+;+;+v.[+L.A.g.C.y.U.#+m.S.*+=+N.:.<.P.r.r.U.9.E.n.h.9.m.c.).                          ",
"                          s.r.C.(.O.L.S.++++#+(.4.*+a+N.z.v.y.,.d.h.y.#+9.F.n.C.l.c.y.g.C.F.1.n.{.:.                            ",
"                            4.N.4.p.L.S.O.O.L.S.A.!.#+U.u.h.]+c.1.n.3.#+0.z.C.n.l.c.<.E.]+C.1.d.q.'.                            ",
"                              c.E.5.L.O.F.d.F.L.L.n.F.O.6.4.N.>+u.g.<..+:.p.C.r.6.q.(.&.!.1.u.4.(.                              ",
"                              7.5.P.:.`.L.n.3._+>+.+M.0.n.v.(.u.=+v.1.F.5.v.A.A.>.q.p.d.l.S.:.:.                                ",
"                                }.h.L.d.U.C./.4.>+S.4.,.E.O.g.=.4.r.!.(.y.L.O.A.>.q.m.g.L./.0.*.                                ",
"                                  #.m.P.u.L.u.c.&.@.{.z.N.O.u.:.g.&.A.<.%.m.h.%.r.g.p.F.(.d.H                                   ",
"                                    :.h.O.L.z.$+F.u.u.E.C.:.5.c.X 1.E.p.<.@.:.g.g.p.y.&.d.#.                                    ",
"                                      s.5.y.#+y.P.F.v.F.N.A.Z R d.m.F.p.n.h.g.q.L.h.(.4.O                                       ",
"                                          ,.h.E.O.i.v.E.S.y.p.q.p.v.q.q.p.E.O.L.4.9.&.}.                                        ",
"                                            _.,.d.$+>+m.h.E.E.L.#+P.e.q.q.v.n.e.<.U                                             ",
"                                                ^._.c.y.H.M.E.F.m.g.y.z.e.e.!.&.).                                              ",
"                                                    ` ,.,./.<.<.3.(.>.` ` |.                                                    ",
"                                                              -.'.&.                                                            "};
