/* XPM */
static char * item_rot_3b_64_xpm[] = {
"64 64 256 2",
"  	c None",
". 	c #443C39",
"+ 	c #504641",
"@ 	c #4D4747",
"# 	c #55463D",
"$ 	c #634A44",
"% 	c #614F4C",
"& 	c #565353",
"* 	c #5D524D",
"= 	c #5C5253",
"- 	c #615249",
"; 	c #675950",
"> 	c #715751",
", 	c #675A56",
"' 	c #715857",
") 	c #6C5A57",
"! 	c #6B5A5C",
"~ 	c #6E5A52",
"{ 	c #5F5E62",
"] 	c #635E5D",
"^ 	c #655E58",
"/ 	c #685D5E",
"( 	c #6D5F55",
"_ 	c #6C5F5B",
": 	c #67676B",
"< 	c #706565",
"[ 	c #73655B",
"} 	c #726561",
"| 	c #6B6766",
"1 	c #6D6760",
"2 	c #7A6661",
"3 	c #766959",
"4 	c #79686B",
"5 	c #796B61",
"6 	c #716D6C",
"7 	c #736D67",
"8 	c #6E6E72",
"9 	c #786C67",
"0 	c #776C6D",
"a 	c #7A736D",
"b 	c #7F726D",
"c 	c #817268",
"d 	c #787473",
"e 	c #7C7468",
"f 	c #7E747B",
"g 	c #87736E",
"h 	c #857376",
"i 	c #73787D",
"j 	c #807575",
"k 	c #79777B",
"l 	c #847666",
"m 	c #81796D",
"n 	c #807973",
"o 	c #86786D",
"p 	c #857873",
"q 	c #7E7A78",
"r 	c #8F7A72",
"s 	c #8D7D68",
"t 	c #8A7D78",
"u 	c #8C7D73",
"v 	c #847F7E",
"w 	c #7C8186",
"x 	c #867F79",
"y 	c #887F72",
"z 	c #897E7E",
"A 	c #828084",
"B 	c #927C7B",
"C 	c #7F827F",
"D 	c #8A8187",
"E 	c #908087",
"F 	c #B37882",
"G 	c #9A7F8C",
"H 	c #8E8578",
"I 	c #8F8484",
"J 	c #91847F",
"K 	c #938478",
"L 	c #8C867F",
"M 	c #89868B",
"N 	c #8B8685",
"O 	c #83888C",
"P 	c #868885",
"Q 	c #988A85",
"R 	c #928C85",
"S 	c #8F8C91",
"T 	c #898E90",
"U 	c #918C8B",
"V 	c #8B8E8B",
"W 	c #A6878D",
"X 	c #A38893",
"Y 	c #988C8D",
"Z 	c #9D8C7C",
"` 	c #9C8C82",
" .	c #978D93",
"..	c #978F81",
"+.	c #9C8C94",
"@.	c #B7858D",
"#.	c #8B929A",
"$.	c #8F9396",
"%.	c #919390",
"&.	c #9D908B",
"*.	c #969290",
"=.	c #959296",
"-.	c #98928B",
";.	c #9D9790",
">.	c #9C9795",
",.	c #94999B",
"'.	c #A59686",
").	c #A49691",
"!.	c #9B989D",
"~.	c #939AA3",
"{.	c #A1988C",
"].	c #C28D98",
"^.	c #A6978C",
"/.	c #A39798",
"(.	c #989B97",
"_.	c #BF909A",
":.	c #A9979F",
"<.	c #A399A0",
"[.	c #A19B94",
"}.	c #989D9F",
"|.	c #A09B9A",
"1.	c #B09899",
"2.	c #BA959A",
"3.	c #A29FA4",
"4.	c #AE9D90",
"5.	c #A49F9E",
"6.	c #9FA19E",
"7.	c #A99E9E",
"8.	c #9AA2AA",
"9.	c #AC9E99",
"0.	c #B19E88",
"a.	c #A6A099",
"b.	c #9DA2A4",
"c.	c #A9A092",
"d.	c #A1A8B1",
"e.	c #A3A8AA",
"f.	c #ABA6A5",
"g.	c #CB9CA7",
"h.	c #ADA69F",
"i.	c #A5A8A5",
"j.	c #AFA69A",
"k.	c #A9A7AB",
"l.	c #B6A69B",
"m.	c #B5A6A1",
"n.	c #BEA3A6",
"o.	c #BBA59C",
"p.	c #C6A1AA",
"q.	c #B4A7A8",
"r.	c #B6A896",
"s.	c #BAA5AE",
"t.	c #B9A891",
"u.	c #B2A8AE",
"v.	c #B1ACAB",
"w.	c #B5ACA0",
"x.	c #AAAEB1",
"y.	c #ACAEAB",
"z.	c #A7AFB7",
"A.	c #B3ADA5",
"B.	c #B0ADB1",
"C.	c #B2B4B1",
"D.	c #B5B3B7",
"E.	c #C1B1A6",
"F.	c #B9B3AC",
"G.	c #AEB5BE",
"H.	c #B0B5B7",
"I.	c #B8B3B2",
"J.	c #BCB3A6",
"K.	c #BFB3A1",
"L.	c #D2ADB3",
"M.	c #CDAFBB",
"N.	c #C2B4B1",
"O.	c #C0B4BB",
"P.	c #CCB1B5",
"Q.	c #C4B79E",
"R.	c #C6B9A7",
"S.	c #BDBABE",
"T.	c #C0BAB3",
"U.	c #B5BCC5",
"V.	c #BFBAB8",
"W.	c #B7BCBE",
"X.	c #C3BAAD",
"Y.	c #BABCB9",
"Z.	c #CBBD9F",
"`.	c #CCBEB9",
" +	c #BCC2C5",
".+	c #C7C0B9",
"++	c #C9C0B3",
"@+	c #C6C1BF",
"#+	c #D2C0AF",
"$+	c #BDC4CD",
"%+	c #D8BDC0",
"&+	c #CDC2AF",
"*+	c #CFC2AA",
"=+	c #CDC1C1",
"-+	c #C7C3C8",
";+	c #C3C5C2",
">+	c #BBC6D4",
",+	c #D5C0C9",
"'+	c #CBC6C5",
")+	c #C3C8CB",
"!+	c #CDC6BF",
"~+	c #CFC6B9",
"{+	c #D3C5C0",
"]+	c #E6C2C3",
"^+	c #D9CAC5",
"/+	c #D1CCCB",
"(+	c #CCCECB",
"_+	c #C6CFD7",
":+	c #D3CDC5",
"<+	c #D0CDD1",
"[+	c #D5CDBF",
"}+	c #CACFD1",
"|+	c #DACDB4",
"1+	c #D9CEBB",
"2+	c #DECBD0",
"3+	c #C6D4E1",
"4+	c #DAD4CC",
"5+	c #DCD4C6",
"6+	c #D7D4D9",
"7+	c #D9D4D3",
"8+	c #D1D6D9",
"9+	c #D3D6D2",
"0+	c #CDD7DF",
"a+	c #E1DBD3",
"b+	c #E3DBCD",
"c+	c #E0DBDA",
"d+	c #D9DDE0",
"e+	c #E5DBE1",
"f+	c #F0D8DD",
"g+	c #E8DBDC",
"h+	c #D1E1EE",
"i+	c #D7E0E8",
"j+	c #E7DECA",
"k+	c #E9DEC4",
"l+	c #E1DEE3",
"m+	c #DDE0DC",
"n+	c #E9E2D4",
"o+	c #E8E2DA",
"p+	c #DFE4E6",
"q+	c #E7E2E1",
"r+	c #F6E1E4",
"s+	c #EEE8E7",
"t+	c #EFEAD9",
"u+	c #F1EAE2",
"v+	c #DFEEF7",
"w+	c #EEEBEF",
"x+	c #E8EDF0",
"y+	c #ECEDE3",
"z+	c #ECEEEB",
"A+	c #F4EFEE",
"B+	c #F6F2E2",
"C+	c #F5F7F2",
"D+	c #F3F9FB",
"E+	c #FCF7F4",
"F+	c #FCF9FD",
"G+	c #FFFFFF",
"                                                          =+N.n.                                                                ",
"                                                      {+a+4+!+.+F.p.                                                            ",
"                                                    {+T.L a m H J.N.2.                                                          ",
"                                                  ++h.5.<+o+a+.+..c.F.2.                                                        ",
"                                                  a.@+F+q+4+.+.+!+c.w.F.                                                        ",
"                                                w.D.B+y+s+!+T..+.+.+9.w.n.                                                      ",
"                                              J.5.y+~+!+s+o+:+T.v.f.:+^.F.p.                                                    ",
"                                              [.:+J..+m+c+b+:+A.h.V.V.j.j.1.                                                    ",
"                                              h.w.F.:+A+A+n+[+F.f.F.|.N.{.f.P.                                                  ",
"                                            a.F.j.:+o+C+s+n+[+++F.!+i.[.F.5.s.                                                  ",
"                                            f.w.[.T.n+E+A+o+!+'+T.N.v.>.@+Q v.                                                  ",
"                                            F.).j.m.a+F+s+(+F.)+@+A.v.6.[.&.f.N.                                                ",
"                                          h.w.a.X.m.4+F+q+/+!+Y.'+F.7.6.*.>.U s.                                                ",
"                                          f.9.).R.J.A.A+q+c+:+@+/+F.h.|.>.5.I v.                                                ",
"                                          f.c.9.R.++A.q+q+7+4+@+<+F.h.5.>.f.5.f.                                                ",
"                                          a.{.j.&+[+.+/+q+@+[+h.9+T.h.5.>.>.U >.s.                                              ",
"                                        f.&.H 4.&+b+a+F.a+R b b @+:+h.5.h.U v.Y s.                                              ",
"                                        y.Q H J R.5+a+A.@+F.K.&+A.7+A.5.I.(.B.R I.                                              ",
"                                        f.J p &.1+b+c+v.V.~+R.&+l.'+f.f.|.y.U R k.                                              ",
"                                        5.c J r.k+b+7+@+V.:+*+#+E.@+|.i.>.N !.R 3.                                              ",
"                                        f.c u 4.j+5+/+/+v.~+#+1+1+V.|.5.5.|.!.U >.I.                                            ",
"                                        [.Q o ` n+{+'+'+7.!+R.X.a.|.|.5.i.!.D.I.*.q.                                            ",
"                                      f.-.J o ` 4+~+'+V.A.!+R.w.F.a.|.5.y.5.|.S.R O.                                            ",
"                                      C.b J u '.T..+V.I.a.!+|+r.!+h.F.[.k.f.U 5.U O.                                            ",
"                                      I.9 c y ^.h.T.T.I.U V.5+&+T.R 5.B.3.f.@+5.I I.                                            ",
"                                      I.5 o u ^.).N.A.Y.>.5.T.:+9.A.h.S.5.>.'+>.I B.                                            ",
"                                      v.t &.u '.c.T.h.V.>.f.9.T.F..+>.I.5.>.M (.z B.                                            ",
"                                      f.J Q y ` c..+X.f.|.F.a.A.I.*.|.f.f.>.=.3.I k.                                            ",
"                                      f.} J o ..c.A..+a.>.F.{.F.(+|.6.>.y.3.(.!.R y.                                            ",
"                                      f.[ c m H ^.h.!+[.f.C.9.a.<+5.|.|.U >.f.S.f.k.                                            ",
"                                      h.[ 5 m t &.a.j.[.T.Y.F.;.y.I.|.|.%.*.!.!.3.i.                                            ",
"                                      f.9 o b y I a.[.X.F.-+I.7.C.;+6.>.!.U =.A U 3.                                            ",
"                                      f.( L b p I [.Q 4+h.Y.Y.5.D.d+|.|.!.M C.=.*.b.f.                                          ",
"                                      f.[ 9 9 t ;.7.;.:+5.S.'+v.B.p+6.6.}.%.!.Y.C.b.                                            ",
"                                      A.; ( e p 7..+[.C.v.'+'+S.D.}+i.}.}.!.M k U e.                                            ",
"                                      v.; [ 5 b f.F.!+v.v.Y.;+(+Y.)+S.!.b.,.=.!.S e.                                            ",
"                                      F.} [ 5 9 &.A.V.@+@+I.@+9+H.8+)+}.}.|.6.}.=.3.                                            ",
"                                      I.R a t t &.F.@+F.C.I.!+p+W.(+}+}.}.>.(+3.S b.                                            ",
"                                      F.J R b R t R /+I.i.V.V.s+6+B.8+x.,.S =.(+5.i.                                            ",
"                                      f.L , x a J a.U v.k.f.f.-+m+;+9+W.,.(.S !.|.3.                                            ",
"                                        -.} p n t &.I.I.Y.f.5.S.b.-+}+$+b.$.M >.>.k.                                            ",
"                                        5.[ Q a 5 ).;.|.'+@+I.8+8+V.}+ +b.,.$.!.*.3.                                            ",
"                                        v.J R n c ` 9.A.h.5.C.(+ +C. +U.x.b.,.%.>.3.                                            ",
"                                        v.J a m p b {.Q h.T.V.)+}+ +H.z.x.D.}.6.>.3.                                            ",
"                                        v.} a n t 9 J ;.-.R =.}.$.}.z.d.e.=.x.|.|.<.                                            ",
"                                        v.0 5 R z t 9 -.[.A.6.e.e.z.G.d.W.S.)+>.3.                                              ",
"                                          ;.~ *.J R n a q v =.b.b.z.d.d.G.=.,.>.b.                                              ",
"                                          h.[ |.J L x 7 ] | 6 k O 8.~.G._+e.e.>.e.                                              ",
"                                          v._ q a ^ < x L M %.V T ,.,.z.3+>+b.>.3.                                              ",
"                                          f.;./ 7 0 a 0 7 | | | P ,.e.U.0+0+G.6.f.                                              ",
"                                          U v.1 7 a n v v N P v d d H.e.h+h+x.k.                                                ",
"                                            v._ R 0 L v P V S M M M w 8+0+i+3.x.                                                ",
"                                            f.x d < ;.v P N S S M M ,.d.i+8+e.k.                                                ",
"                                            x v.1 1 7 |.%.N M y.T 6.z.z._+D.H.B.                                                ",
"                                              I.a < | 6 |.f.U S W.}.>+0+U.i.W.                                                  ",
"                                              N v._ 7 N v N M A $+z._+i+S.H.H.                                                  ",
"                                              x I.x a x 6 M U 3.8.h+0+_+5.)+                                                    ",
"                                                z @+6 a | v =.B.,.h+i+y.B.x.                                                    ",
"                                                R |.Y.6 0 *.k w T i+ +k.x.                                                      ",
"                                                  q f.;+N | k O W.}+f.x.k.                                                      ",
"                                                    a 5.(+@+S. +S.i.b.b.                                                        ",
"                                                      0 N f.B.k.3.,.,.                                                          ",
"                                                        x 6 0 d k =.                                                            ",
"                                                          5.>.(.k.                                                              "};
