/* XPM */
static char * item_rot_1a_64_xpm[] = {
"64 64 256 2",
"  	c None",
". 	c #261D16",
"+ 	c #2B2315",
"@ 	c #2C241C",
"# 	c #2D2512",
"$ 	c #342C18",
"% 	c #352C1E",
"& 	c #372B25",
"* 	c #332D23",
"= 	c #3E322C",
"- 	c #3D3420",
"; 	c #3B342B",
"> 	c #3D3425",
", 	c #433B26",
"' 	c #433B2C",
") 	c #443C37",
"! 	c #443D32",
"~ 	c #483F30",
"{ 	c #4E4430",
"] 	c #4D4435",
"^ 	c #4E473D",
"/ 	c #524939",
"( 	c #564E3D",
"_ 	c #554E43",
": 	c #5B5242",
"< 	c #5A5348",
"[ 	c #5F5646",
"} 	c #5F574C",
"| 	c #625B50",
"1 	c #645B4A",
"2 	c #6C5E54",
"3 	c #676054",
"4 	c #69604F",
"5 	c #6E5F50",
"6 	c #6E6454",
"7 	c #6C6559",
"8 	c #6C655F",
"9 	c #71695E",
"0 	c #736958",
"a 	c #786859",
"b 	c #6D6B5E",
"c 	c #786960",
"d 	c #716F62",
"e 	c #776E5D",
"f 	c #766E63",
"g 	c #7B7260",
"h 	c #817162",
"i 	c #78736C",
"j 	c #807167",
"k 	c #7B7367",
"l 	c #787562",
"m 	c #7E7563",
"n 	c #7C7966",
"o 	c #867667",
"p 	c #85766C",
"q 	c #7F786C",
"r 	c #817866",
"s 	c #7E7872",
"t 	c #847C70",
"u 	c #867C6B",
"v 	c #817E6A",
"w 	c #8B7B6B",
"x 	c #8C7D73",
"y 	c #8F7E6F",
"z 	c #85826E",
"A 	c #898175",
"B 	c #8B816F",
"C 	c #8F8573",
"D 	c #89877A",
"E 	c #93847A",
"F 	c #8B8774",
"G 	c #8E867A",
"H 	c #968576",
"I 	c #928876",
"J 	c #948A78",
"K 	c #98897F",
"L 	c #938B7F",
"M 	c #908D79",
"N 	c #928C85",
"O 	c #9C8B7B",
"P 	c #978D7B",
"Q 	c #998F7D",
"R 	c #9E8F84",
"S 	c #96927E",
"T 	c #97918A",
"U 	c #999184",
"V 	c #9C9280",
"W 	c #9A9682",
"X 	c #9D9589",
"Y 	c #9F9583",
"Z 	c #A39489",
"` 	c #A39987",
" .	c #A2998D",
"..	c #A7988D",
"+.	c #9F9C88",
"@.	c #A69C8A",
"#.	c #A59C90",
"$.	c #A39E84",
"%.	c #AD9D93",
"&.	c #A69F98",
"*.	c #A89F93",
"=.	c #AA9F8D",
"-.	c #A4A18D",
";.	c #A3A293",
">.	c #ADA390",
",.	c #ACA396",
"'.	c #ABA49E",
").	c #A9A691",
"!.	c #A8A698",
"~.	c #B0A593",
"{.	c #B4A49A",
"].	c #AEA699",
"^.	c #B3A896",
"/.	c #ACAA9C",
"(.	c #AEAA96",
"_.	c #AFA9A2",
":.	c #B9A797",
"<.	c #B2A99C",
"[.	c #B5AA98",
"}.	c #B7AC9A",
"|.	c #B4ADA6",
"1.	c #B6ADA0",
"2.	c #B5AF95",
"3.	c #BCACA1",
"4.	c #B9AE9C",
"5.	c #B3B09B",
"6.	c #B2B0A2",
"7.	c #BFAE9D",
"8.	c #B9B0A3",
"9.	c #BBB09D",
"0.	c #BDB3A0",
"a.	c #BCB3A6",
"b.	c #C1B2A7",
"c.	c #B9B5A1",
"d.	c #BBB4AD",
"e.	c #B7B6A7",
"f.	c #BBB69B",
"g.	c #C5B3A2",
"h.	c #BEB5A8",
"i.	c #C0B5A3",
"j.	c #C1B8AB",
"k.	c #C3B8A5",
"l.	c #C0BAA0",
"m.	c #BDBBAC",
"n.	c #BFBBA7",
"o.	c #C1BAB3",
"p.	c #C9B9AF",
"q.	c #CBB9A8",
"r.	c #C4BBAE",
"s.	c #C6BBA8",
"t.	c #C6BDB0",
"u.	c #C8BDAB",
"v.	c #C5BFA5",
"w.	c #C5BEB7",
"x.	c #C3C0AB",
"y.	c #C2C0B1",
"z.	c #CABFAD",
"A.	c #C9C0B3",
"B.	c #CBC2B5",
"C.	c #CDC2AF",
"D.	c #C8C4AF",
"E.	c #CAC4AA",
"F.	c #D3C1B0",
"G.	c #D2C1B7",
"H.	c #C7C5B7",
"I.	c #CBC4BC",
"J.	c #CDC4B7",
"K.	c #CFC4B1",
"L.	c #D0C5B2",
"M.	c #CBC7B2",
"N.	c #CFC6B9",
"O.	c #D3C8B5",
"P.	c #D2C8BB",
"Q.	c #CECAB5",
"R.	c #D0C9C2",
"S.	c #CDCBBC",
"T.	c #D8C8BD",
"U.	c #D4CABD",
"V.	c #D0CCB7",
"W.	c #D0CEBF",
"X.	c #D2CEB9",
"Y.	c #D6CDC0",
"Z.	c #D9CDBA",
"`.	c #D3CFBA",
" +	c #D5CEC7",
".+	c #D0D0C7",
"++	c #DDCDC4",
"@+	c #D8CFC2",
"#+	c #D3D1C2",
"$+	c #D5D1BC",
"%+	c #D7D3BE",
"&+	c #DBD2C5",
"*+	c #DED2BF",
"=+	c #DAD3CC",
"-+	c #D6D5C5",
";+	c #D5D5CB",
">+	c #D9D5C0",
",+	c #DED4C7",
"'+	c #DAD6C1",
")+	c #E0D6C9",
"!+	c #DCD8C3",
"~+	c #E3D7C4",
"{+	c #DBD9CA",
"]+	c #E8D6C4",
"^+	c #DADAD1",
"/+	c #DEDAC5",
"(+	c #E0D9D1",
"_+	c #E2D9CB",
":+	c #E4DACD",
"<+	c #DEDCCD",
"[+	c #E0DCC7",
"}+	c #EAD9CF",
"|+	c #E6DDD0",
"1+	c #E9DDCA",
"2+	c #E1DFD0",
"3+	c #E3DFCA",
"4+	c #E5DED7",
"5+	c #EFDCCB",
"6+	c #DFE0D7",
"7+	c #E9DFD2",
"8+	c #EBE1D4",
"9+	c #E6E4D5",
"0+	c #E8E4CF",
"a+	c #EAE3DC",
"b+	c #E4E5DB",
"c+	c #EEE4D7",
"d+	c #F0E4D1",
"e+	c #F4E3D7",
"f+	c #F2E4E1",
"g+	c #EBE9DA",
"h+	c #EDE9D4",
"i+	c #EDE8E6",
"j+	c #EFE8E0",
"k+	c #F1E8DA",
"l+	c #E9EAE1",
"m+	c #F6ECDF",
"n+	c #F5EDE6",
"o+	c #EFEFE6",
"p+	c #F1EFDF",
"q+	c #F3EFDA",
"r+	c #F3EEED",
"s+	c #FDECE0",
"t+	c #FAEFDB",
"u+	c #FDEEE8",
"v+	c #F9F0E2",
"w+	c #FFF0E4",
"x+	c #FAF3EB",
"y+	c #FCF3E5",
"z+	c #F4F5EB",
"A+	c #F7F5E5",
"B+	c #FDF8E3",
"C+	c #FFF7E9",
"D+	c #FFF8F1",
"E+	c #FFF9F8",
"F+	c #FEFCED",
"G+	c #FDFDF4",
"                                                      W.R.N.t.t.N.I.W.S.4+                                                      ",
"                                            -+A.N.B.A.U.%+$+$+$+`.V.L.O.B.A.R.Y. +                                              ",
"                                        A.A.B.O.r.4.@.G q k k t q q G L ].j.`.Y.P.N.S.=+                                        ",
"                                  @+t.J.U.0.` B A X <.j.A.J.N.K.K.B.B.k.1.-.S L *.A.,+U.U.=+                                    ",
"                                W.P.A.*.m C (.A.J.P.Y.@+&+-+@+/+%+@+>+`.N.P.U.Q.a.Y C <.P.U.S.S.                                ",
"                            =+P.U.@.f Y s.P.@+@+@+,+&+_+)+)+,+!+>+%+>+Y.`.Y.$+$+U.N.z.*.q *.Y.Q.J. +                            ",
"                          S.P.4.e L z.Y.&+'+'+'+-+{+{+)+,+&+U.Y.%+Y.@+>+`.$+P.Y.@+Y.Y.U.L.,.t a.`.x.-+                          ",
"                      =+U.N.A q h.%+'+,+,+,+)+_+)+)+&+Y.J.r.8.h.Y.,+&+U.@+&+&+&+&+@+@+@+%+U.t.S U B.t.R.                        ",
"                    -+S.h.f #.P.&+@+@+&+Y.Y.Y.N.A.a.].1.b.h.h.B.A.r.J.P.A.Y.,+&+@+Y.Y.@+Y.&+&+`.c.t j.z.r.                      ",
"                   +U.,.9 a.B.&+(+8+j+(+8+P.b.].^.}.].&+_+7+:+:+_+(+)+].^.j.,.].++7+8+Y.,+7+&+Y.<.P.L 1.C.B.                    ",
"                -+U.,.f r.Y.A.N.@+@+&+,+P.t.#.=.}.].>.8.B.Y.N.J.Y.A.<.=.^.i.^.[.J.Y.,+U.=+)+_.X *.Y.Y.X ].B.I.                  ",
"              -+H.<.f A.&+@+r.].j.N.j.r.8.*.}.@.~.~.>.8.1.j.n.a.h.L @.4.^.4.~.}.a.A.C.A.N.B._.X ,.@+&+Y.#.].B.r.                ",
"              U.a.8 B.,+<+,+r.<.h.N.A.N.<.a.8.~.[.}.=.1.a._+P.$+P.1.t.[.^.9.^.>.}.}.&+j.D.h.L *.<.@+&+@+Y. .[.z.A.              ",
"            P.B.3 r.&+{+2+<+r.1.2+g+j+j+R.A.8.~.4.4.~.a.P.j+|+c+7+N.h.h.~.[.^.,.1.&+n+Y.,+_+ .].,.U.,+,+&+Y.S i.K.W.            ",
"          P.P.q 1.&+(+(+(+:+A.T.|+<+7+(+|+&+a.%.<.^.~.Y._+:+Y.@+)+R.Y.1.^.[.^.].U.2+|+t.,+U.@+r.=.V.,+!+%+%+V.z K.D.2+          ",
"          P.#.X @+)+2+(+(+|+t.j.S.N.8.A.8.,.1.,.].<.*.j.j.h.5.(.j.]. .].^.[.^.,.r.J.C.L.0.D. .t S P.'+/+/+'+%+x.W u.t.          ",
"        P.A.f N.,+)+9+2+(+:+P.7+a+4+N.(+&+|+r.~.<.3.<.Y.c+7+_+)+7+&+@+#.3.}.~.,.,+9+,+&+N.|+t.|.N J.>+[+3+[+>+%++.k.z.R.        ",
"      @+U.A a.=+2+2+a+9+4+|+B.b.A.t.r.j.].<.r.&+Y.&+&+Y.&+j.a.1.8.a.j.&+,+&+&+&+j.r.a.h.h.j.U t X J.>+/+[+[+'+%+Q.M O.r.        ",
"      B.h.t &+(+4+|+4+9+a+7+A... .*. . .,.#.N.P.Y.,+)+$+>+c+a+2+9+|+a.P.,+J.W.&+1.>.@.=.<.Y U *.*.P.>+&+[+'+'+>+$+(.1.t.I.      ",
"      B.t o.)+(+|+ +@+4+a+9+B.%.,.1.*.,.8.~.r.@+U.J.r.Q.N.&+A.,+@+h.#.8.N.B.Y.N.1.,.=.^.[.*.Y *.(.$+@+!+,+u.`.%+>+V.G A.8.      ",
"    r.a.s Y.|+(+(+ +R.4+|+=+N.R ,.<.,.<.}.*.r.Y.Y.N.N.J.N.B.U.|+r.U.` N.B.Y.U.J.j.~.>.=.}.=.@.#.,.U._+&+Y.U.J.'+&+t.,.<.j.S.    ",
"    k.L _.@+j.z+i+ +,+g+1.&+N.Z *.].*.].].*.B.,+U.t.A.Y.V.[+N.<.P.,+>.U.D.P.A.)+t.,.=.,.,.*.` #.,.Y.8.z+4+@+Y.9+,.J.J.G t.e.    ",
"  t.u.3 R.@+P.<.o+ +4+'.|.|+N.Z 1.j.h.t.t.,.B.@+J.P.N.J.Q.)+J.,+Y.<.<.n.A.S.S.@+t.h.r.a.r.j.,.,.*.P.x.|.n+R.8+&.6.&+Y.S j.1. +  ",
"  t.8.D  +@+Y.@+R.4+-+a+z+9+R.T.,+(+j+2+_+@+@+h.J.U.J.P.Q.>.t.,+h. .8.r.B.N.W.S.{+)+|+@+7+|+Y.&+1.Y.:+3+Y.(+o.^+4+&+Y.1.*.a.w.  ",
"  r.T _.R.1.*.L L #.U q X y.r.8.B.Y.N.@+j.8.@+&+W.&+|+7+&+Y.r.Q.t.Y.&+c+c+8+_+7+r.r.N.V.U.U.8.U  .j.<.U @. .,.L ,.a.Q.t.G A.h.  ",
"  t.f t.Y.U.Y.r.#.7  .<.)+<+A.,.h.P.N.H.#.X a.)+:+&+)+&+8.&+@+Y._+&+a._+_+&+|+)+X (.c.D.j.j.A k ].@+@+A.A.e X ,.a.r.B.Y.G P.1.  ",
"d.B.7 W.U.X.$+r.G 8.L ].2+:+J...r.N.B.J. .` 1.J.1.U.j.].8.8.,.,+8.*.j.r.8.P.1.8.` [.>+P.D.h.9 #.<.Y.:+X.X ].S <.Y.%+`.P.#.j.c.{+",
"r.r.s Y.$+$+$+].r.Y.J. .)+:+r.1.7+a+a+4+w. .a.&+A._+r.P.c.J.V.Y.a.$+n.`.X.@+i.u.Y t.c+,+_+$+*.1.(.U._+h.8.`.V.W $+>+`.P.1.].n.Y.",
"N.c.s h.X.`.`.J.@+&+,+U.,+_+B.:+_+#+)+_+w.t.j.)+J.].@+Y.8./+@+1._+'+5.!+/+x.,+&+#.`.'+r.'+V.@+U.,.J.,+`./+%+%+Q.%+!+$+B.y.+.j.A.",
"J.(.N t.X.$+@+#+,+_+_+{+{+)+A.8.r.h.].e. . .t.1.,.N.j.S (.c.).X.t.,.+.a.5.!+t.<.X a.a.4.(.8.X z J A.)+'+!+>+>+!+'+'+>+r.U.S K.I.",
"t.-.T r.U.$+%+,+_+,+,+_+_+_+t.8+_+|+&+|+:+@+N.t.j.U.].).j.1.<.t.<.1.X.n.c.'+h.5.h.,+&+&+P.`.P.,.*.a.M.[+!+!+'+!+'+>+$+A.B.L z.o.",
"j. .T r.U.P.`.&+,+)+:+|+|+_+A.*.X ].<.].U J a.)+`.(.V.V.r.<+:+Y.,+:+X.%+P.0.O.%+).>.<.9.8.1.X A U A.`./+[+/+[+/+'+%+`.t.8.L r.j.",
"r.#.X t.U.U.`.@+&+{+:+7+|+|+N.<.*.<.].,.,.%.*.A.8.D.B.x.t.,+_+,+,+:+<.U.>+A.Y.P.,.a.,.>.@.~. .X  .Y.$+3+3+!+0+!+'+$+%+B.t.L j.e.",
"t.].T A.P.`.`.@+&+#+&+_+7+7+&+r.].[.}.<.<.~.,.a.r.!+a.n.S.B.<.@+P.A.a.:+x.|+@+A.r.a.<.].@.=...].].,+'+3+$+`./+%+'+>+X.B.A.L t.e.",
"y.8.N r.P.`.U.Y.&+-+N.,+4+9+)+1.=.=.}.>.}.8.A. +)+@+A.V.M.|+4+_+t.&+t.!+A.U.|+8.:+P.1.].Y ` =.8.j.@+!+/+N.A.>+%+%+>+`.J.B.L j.e.",
"N.r.t 8.J.$+$+@+:+Y.j.N.(+2+&+t.a.=.~.=.4.B.j+w.j.P.,+x.S.|+_+5.f.$+1.t.r.!+~.s.&+Y.t.>.Y Y ` V N.2+g+2+U.<.&+:+r.,+`.J.a.U h.8.",
"I.n.s j.J.U.`.r.W.n+N.h.j+|.Y.Y.<.=.>.^.A.Y.N.,+B.8.P.P.U.t.(.(.0.*.U r.,+8.h.@+a+@+_+,.Y V =.,.P.<.=+F+=+8.)+X A.V.J.J.a.+.8.j.",
"  n.9 a.B.J.`.U.].|.7+@+'.6._+&+j.r.>.j.U.&+J.1.<+9+ +#+2+_+A.@+t.t.:+J.Y.a+n+a+&+)+P.A.>.=.<.t.P.9.>.I.2+J.L 1.`.V.Q.A.].(.<.H.",
"  h.t 1.B.V.X.&+|+Y.A.B.#+g+g+{+Y.1.<.A._+A.t.Y.a+n+n+j.@+t.r.Y.B.a.w.(+|+9+4+<+Q.r.Q.1.U 1.+.P.P.s.J.A.Y.a.#+g+9+&+M.D.*.i.#.  ",
"  8.*. .j.P.M.(.G G ].L A G <.N.&+A.r.A.<.a.t.9+g+P.a.Y.)+1.<.+.U 1.=+n+{+U.@+_+_+-.I F <.P (.u.a.Q r #.X #.k q X B.X.r.W M.*.  ",
"  j.h.A 1.J.V.V.N.<.q t U U.,+_+_+Y.8.*.B J B.g+=+Q.` P.a.@.<.<.*.,.(.Q.@+,.@+B.A.X J ,.G }.Q.`.j.h.a. .7 k q Q.`.Q.P.8. .j.|.  ",
"  8.A.G 8.A.J.X.x.U *.8.G N.:+2+:+{+@+<.8.8.1.&+Y.8.J.N.A #.*.~.>.>.5. .P.,+A.Y. .F n.].,.,+|+9+|+)+4.B 1.;.7 A.&+P.r.-.8.1.o.  ",
"    t.*.X r.X.X.a.1.Y.P.1.J._+_+2+2+<+`.8.r.r.1.U U.&+S W  .*.=.=.@.(.=. .)+A.q F <. .^.P._+7+9+|+|+Q.j.>+V.<.8.U.N.B.X D.#.    ",
"    h.j.G r.Q.X.Q.Y.-+#+Y.-+)+_+:+<+<+_+%+r.M U h.t. .U Y  .,.@.` =.^.` @.L 1.].*.G t.%+Y._+:+<+$+/+!+{+!+`.>+`.Q.P.t.~.n.;.    ",
"    H.t.#.].n.`.`.>+>+>+'+>+%+/+!+{+_+_+!+'+r.].S *.h.#.X X *.,. .,.*.=.<.J.U A  .P.)+'+)+:+|+:+!+%+'+!+%+M.Q.P.D.u.,.n.*.      ",
"      h.A.L a.M.V.$+'+'+%+>+>+>+!+%+#+,+,+>+@+@+J.6.*.<.B.A.<.*. .<.r.a.<.F W j.&+_+3+[+[+3+[+/+&+U.$+&+Y.V.V.J.B.<.` n.*.      ",
"      r.r.,.<.M.Q.V.$+%+%+'+$+%+$+M.J.|+&+@+&+&+'+V.X.t.<.*.h.r.j.r.L X 8.t.B.Q.&+!+'+@+&+%+X.'+X.>+/+&+$+z.P.N.X.^.k. .        ",
"        a.z.U J.D.M.V.`.%+%+`.%+V.n.&+&+&+8+_+P.$+$+$+@+,+`.t.,.X c.P.Y.@+V.Q.>+>+V.N._+9+k+)+B.Q.>+Y.$+U.P.P.M.D.}.k.G         ",
"          h.j.<.A.s.D.Q.$+$+$+V.B.J.!+h.X ].J.7+U.B.$+%+!+/+!+$+`.`.%+%+>+P.`.%+N.U.:+<.<.Y._+,+t.Y.P.@+V.J.j.i.=.u. .          ",
"          m.s.1.r.A.Q.M.Q.X.$+V.0./+V.@.9.}.1.).].r.J.$+!+!+'+%+%+M.V.'+>+B.D.J.x.[+].r.D.*.P.Y.a.M.P.U.Q.n.0.=.9.].!.          ",
"            1.M.#.B.A.D.V.Q.%+B.<.P.`.>+n.i.z.x.B.P.t.h.`.%+$+M.%+%+D.Y._+%+i.n.u.'+5.M.Q.x.8.M.n.[.u.z.s.5.^.>.}.T             ",
"              a.z.<.P.B.A.J.B.J.x.,.<.!+>+s.u.n.J.1.a.n.x.J.M.!+$+ .0.,.r.X.i.t.x.%+4.t.C.K.(.O.x.*.u.u.s.[.=.u.W               ",
"              _.a.J.<.U.B.s.i.D.B.D.8.D.@+1.z.8.$+c.n.X <.i.k.%+<.s.D.s.4.M.x.1.9.J.n.4.u.z.0.t.c.^.j.j.u.` s.*.                ",
"                _.h.A.a.P.x.=.J.,+U.x.J.Q.-.u.,.r.$+D.9.i.4.a.`.<.k.u.u.1.M.M.*.<.n.s.8.D.u.s.X.X }.[.0. .s.,.;.                ",
"                  #.j.B.j.J.k.@.h.&+N.h.].<.u.u.>.n.U.%+n.0.1.K.1.}.n.u.[.M.D.#.i.Y B.u.>+%+X./.-.t.a.Z z.,.G                   ",
"                    <.a.J.A.z.A.1.=.@.` }.u.A.U.0.+.-.M.r.*.*.A.r.>.u.s.1.L.(.<.k.4.V ,.(.(.-.5.t.a.#.z.(.;.                    ",
"                      d.8.r.P.B.P.t.r.s.u.D.1.B.D.].(.0.1.).~.~.A.i.L.D.A.u.J k.i.u.i.}.(.5.D.J.*.(.i.-.6.                      ",
"                          ,.j.P.r.A.u.j.z.J.u.<.,.8.*.W X z.B.>.Y }.N.U.8.U 9.k.i.k.8.0.n.X.h.*.u.8.X                           ",
"                            /.].z.N.p.j.z.D.z.n.Y ` @.a.h.t.t.j.[. .V ` >.a.n.c.c.h.t.B.t.#.[.9.X X                             ",
"                                #.,.J.@+h.i.B.z.u.k.j.j.k.s.s.h.a.k.}.0.0.8.c.s.z.N.1.X ^.s.<.U                                 ",
"                                    /.<.A.z.z.u.k.J.N.Z.C.k.i.z.j.u.s.u.Q.J.N.r.*.#.].j.*.#.                                    ",
"                                        *.,.8.s.B.z.j.0.}.^.[.9.i.u.r.s.i.4.<.[.k.~. . .                                        ",
"                                              &.#.@.~.0.k.r.A.k.0.0.0.k.9.~.X X X                                               ",
"                                                      #.X L *.*.*.]. .X N                                                       "};
