/* XPM */
static char * item_rot_1d_64_xpm[] = {
"64 64 256 2",
"  	c None",
". 	c #4E473D",
"+ 	c #514939",
"@ 	c #544D42",
"# 	c #57514B",
"$ 	c #595146",
"% 	c #5D5343",
"& 	c #5E564B",
"* 	c #5E5751",
"= 	c #645C51",
"- 	c #635D57",
"; 	c #6A6050",
"> 	c #68625C",
", 	c #6A6257",
"' 	c #6E675B",
") 	c #716756",
"! 	c #6F6962",
"~ 	c #736C60",
"{ 	c #756C5B",
"] 	c #787064",
"^ 	c #77716A",
"/ 	c #7B7260",
"( 	c #7C7368",
"_ 	c #7D7670",
": 	c #7F776B",
"< 	c #817766",
"[ 	c #7D7A67",
"} 	c #847B6F",
"| 	c #827C75",
"1 	c #867C6B",
"2 	c #8A7B71",
"3 	c #827F6C",
"4 	c #828072",
"5 	c #877F73",
"6 	c #8F8076",
"7 	c #878370",
"8 	c #8A8276",
"9 	c #8C8270",
"0 	c #89827C",
"a 	c #858476",
"b 	c #8D8680",
"c 	c #8F877B",
"d 	c #918775",
"e 	c #96877D",
"f 	c #8E8B77",
"g 	c #8D8B7E",
"h 	c #928A7E",
"i 	c #948A78",
"j 	c #928B85",
"k 	c #968D81",
"l 	c #998E7D",
"m 	c #93907C",
"n 	c #958F88",
"o 	c #929183",
"p 	c #989084",
"q 	c #9B9286",
"r 	c #9D9381",
"s 	c #969586",
"t 	c #9B948D",
"u 	c #9D9488",
"v 	c #999682",
"w 	c #A4948A",
"x 	c #9E9689",
"y 	c #A09684",
"z 	c #9A988A",
"A 	c #9F9992",
"B 	c #A1998C",
"C 	c #A49987",
"D 	c #9E9B87",
"E 	c #9D9B8D",
"F 	c #A7988D",
"G 	c #A99888",
"H 	c #A39B8E",
"I 	c #A09E90",
"J 	c #A59D90",
"K 	c #AD9B8B",
"L 	c #A79D8A",
"M 	c #A49D96",
"N 	c #A29F8B",
"O 	c #AD9D93",
"P 	c #A79F92",
"Q 	c #A99F8C",
"R 	c #A6A28E",
"S 	c #A7A19A",
"T 	c #ABA18F",
"U 	c #AAA194",
"V 	c #A4A394",
"W 	c #AAA48B",
"X 	c #ACA397",
"Y 	c #AEA391",
"Z 	c #A5A59D",
"` 	c #A8A698",
" .	c #B3A399",
"..	c #AFA593",
"+.	c #ACA59F",
"@.	c #AEA598",
"#.	c #ABA793",
"$.	c #AAA89A",
"%.	c #AFA79A",
"&.	c #B1A794",
"*.	c #B3A996",
"=.	c #B2A99C",
"-.	c #AFAB97",
";.	c #B1AAA3",
">.	c #B3AA9E",
",.	c #B5AA98",
"'.	c #B9A99E",
").	c #B4AB9F",
"!.	c #AEAD9E",
"~.	c #B6AB99",
"{.	c #B2AE9A",
"].	c #B7AD9A",
"^.	c #B4ADA6",
"/.	c #B6ADA0",
"(.	c #B6AFA8",
"_.	c #B8AFA2",
":.	c #BAAF9D",
"<.	c #B6B196",
"[.	c #B5B19D",
"}.	c #BEAEA3",
"|.	c #B4B2A3",
"1.	c #BAB1A4",
"2.	c #B3B3AA",
"3.	c #B9B2AB",
"4.	c #BBB2A5",
"5.	c #BDB2A0",
"6.	c #B8B49F",
"7.	c #BDB4A8",
"8.	c #BFB4A2",
"9.	c #B9B7A9",
"0.	c #BBB7A3",
"a.	c #BDB6AF",
"b.	c #BFB6A9",
"c.	c #C1B6A3",
"d.	c #C5B5AA",
"e.	c #BEB7B0",
"f.	c #C0B7AA",
"g.	c #C2B7A4",
"h.	c #C3B9A6",
"i.	c #C0B9B2",
"j.	c #C2B9AC",
"k.	c #BDBBAD",
"l.	c #BFBBA6",
"m.	c #C3BAAD",
"n.	c #C5BAA7",
"o.	c #C3BDA3",
"p.	c #C3BCB5",
"q.	c #C5BCAF",
"r.	c #C7BCA9",
"s.	c #C0BEAF",
"t.	c #C2BEA9",
"u.	c #C6BDB0",
"v.	c #C8BDAB",
"w.	c #C0C0B7",
"x.	c #C6BFB8",
"y.	c #C8BFB2",
"z.	c #CABFAC",
"A.	c #C3C1B2",
"B.	c #C5C1AC",
"C.	c #CAC1B4",
"D.	c #CCC1AE",
"E.	c #C7C3AE",
"F.	c #C6C4B5",
"G.	c #CAC3BB",
"H.	c #CCC3B6",
"I.	c #CEC3B0",
"J.	c #CDC4B7",
"K.	c #CFC4B1",
"L.	c #C9C6B1",
"M.	c #CBC6AB",
"N.	c #D0C5B2",
"O.	c #C9C7B8",
"P.	c #CBC7B2",
"Q.	c #D4C4B9",
"R.	c #CDC6BF",
"S.	c #CFC6B9",
"T.	c #CDC9B5",
"U.	c #D1C8BB",
"V.	c #D3C8B5",
"W.	c #CACAC1",
"X.	c #CCCABB",
"Y.	c #D0C9C2",
"Z.	c #D3C9BC",
"`.	c #CFCBB6",
" +	c #D5CAB7",
".+	c #D4CABD",
"++	c #CECCBD",
"@+	c #D0CCB7",
"#+	c #D5CCBF",
"$+	c #D8CCB9",
"%+	c #D0CEBF",
"&+	c #D2CEB9",
"*+	c #D3CFBA",
"=+	c #D5CEC6",
"-+	c #D7CEC1",
";+	c #D0D0C7",
">+	c #D4D0BB",
",+	c #D8CFC2",
"'+	c #D2D1C1",
")+	c #DACFBC",
"!+	c #DAD0C3",
"~+	c #D6D2BD",
"{+	c #D8D1CA",
"]+	c #DCD1BE",
"^+	c #D3D3CA",
"/+	c #D5D3C4",
"(+	c #E1D0C5",
"_+	c #DBD2C5",
":+	c #D8D4BF",
"<+	c #D9D5C0",
"[+	c #DDD4C6",
"}+	c #D8D6C7",
"|+	c #DCD5CE",
"1+	c #E0D5C2",
"2+	c #DFD5C8",
"3+	c #DBD7C2",
"4+	c #D7D8CF",
"5+	c #E0D7CA",
"6+	c #DCD9C3",
"7+	c #DBD9CA",
"8+	c #E3D9CC",
"9+	c #DDDBCC",
"0+	c #E5DAC7",
"a+	c #DFDCC6",
"b+	c #E4DBCE",
"c+	c #E3DBD4",
"d+	c #DDDDD4",
"e+	c #E5DCCF",
"f+	c #E0DECF",
"g+	c #E3DFCA",
"h+	c #E7DED0",
"i+	c #E1E0D0",
"j+	c #EBE0CC",
"k+	c #EAE0D3",
"l+	c #E6E1DF",
"m+	c #E8E1DA",
"n+	c #E4E3D3",
"o+	c #E3E3DA",
"p+	c #E7E3CE",
"q+	c #ECE3D5",
"r+	c #EEE5D7",
"s+	c #ECE7D2",
"t+	c #EDE6DE",
"u+	c #EAE8D9",
"v+	c #E9E9E0",
"w+	c #EEE8E7",
"x+	c #F0E9E1",
"y+	c #F2E9DB",
"z+	c #F5ECDE",
"A+	c #F4ECE5",
"B+	c #EEEEE5",
"C+	c #F0EEDE",
"D+	c #F8F4E5",
"E+	c #FBF3EC",
"F+	c #F6F7ED",
"G+	c #FBF6F4",
"                                                          R.H.U.                                                                ",
"                                                        U.N.v.S.                                                                ",
"                                                        S.d d q S.                                                              ",
"                                                      Z.C _.J.b.=.                                                              ",
"                                                      C.B ~+_+,+_.U.                                                            ",
"                                                      P U.[+7+2+U.f.                                                            ",
"                                                    Z.A ,+5+2+!+#+f.                                                            ",
"                                                    j.4.b+,+C.y.-+C.y.                                                          ",
"                                                    >.U.H.-+=.d.-+#+f.                                                          ",
"                                                    =.[+7.m.>.5+#+!+j.                                                          ",
"                                                    ).7+b.J ..H.q.Z.y.                                                          ",
"                                                  C.f.5+!+#+*.f.1.S.U.                                                          ",
"                                                  4.Z.8+5+[+,.H...q.J.f.                                                        ",
"                                                  _.[+8+S.%+=.b+f._.f.u.                                                        ",
"                                                  ^.f+f+-+).=._+C.b.).C.                                                        ",
"                                                  1.c+h+-+_+=.f./.J.u.C.                                                        ",
"                                                  7.f+h+J @.q.5+m.q.H.S.                                                        ",
"                                                  a.|+h+%.=.8+C.4.m.%.@+                                                        ",
"                                                v.7.d+8+=.=..+5+[+-+C.:+                                                        ",
"                                                _.7.c+{+%.=.J.#+C.b.u 3+q.                                                      ",
"                                                ).G.=+G.%.=.#+.+f.7.U <+B.                                                      ",
"                                                >.S.[+{+f.b.Z.`.y.m.Y -+u.                                                      ",
"                                                @.b.P =+5+5+S.Z.P.q.U -+u.                                                      ",
"                                                %.Z.H X q.J.C.C.0.S./._+7.                                                      ",
"                                                =.>+J S.f.s.b+.+U.-+#+U.m.                                                      ",
"                                                ).>+_.J.f.%.-+.+5+#+f.j.C.                                                      ",
"                                                %.&+H.S..+C.u.b.m.7.U _./.                                                      ",
"                                                @.@+!+_+2+=+C.P.P.j.f.7.y.                                                      ",
"                                                %..+[+5+C.j.S.J.*+C.`.C.y.                                                      ",
"                                                @.&+[+5+Z.f.7.{.4.j.0.~+L.                                                      ",
"                                                X `.2+8+U.#+m.0.f.y.0.#+T.                                                      ",
"                                                @.U.2+b+H q H.,+-+h.1.~+J.                                                      ",
"                                                =.U._+e+4.@.j.#+.+j.B 3+J.                                                      ",
"                                                =.U.!+b+b.=.y.C.S.C.Y <+T.                                                      ",
"                                                >.U.,+9+1._.#+_+S.U.U -+S.                                                      ",
"                                                ).J./+=+j.f.U.U.m.H.Y {+y.                                                      ",
"                                                =.S._+U.j.j.H.q.b.,+=.X.m.                                                      ",
"                                                %.y.H.x.J.y.=+,+Z.i+4.C.C.                                                      ",
"                                                P C.S._+U.C.c+J.Z.#+{.U b.                                                      ",
"                                                %.C.C.%.S.m._+j.C.C.P x f.                                                      ",
"                                                @.q.U B #+U #+:._.7.H.%.m.                                                      ",
"                                                _.4.m.J 5+>.J.X %._.#+@+m.                                                      ",
"                                                7._.0./.f+y.f.H Q U ,+<+m.                                                      ",
"                                                m._.m.H.f+T.=.B L %.5+#+0.                                                      ",
"                                                q._.@+-+9+_+X H %.j.a+>+7.                                                      ",
"                                                  ).>+<+[+[+7.0.@.H.:+#+b.                                                      ",
"                                                  ).&+<+<+!+~+_.7..+5+`.>.                                                      ",
"                                                  /.`.<+*+[+~+S.P.#+y.P.@.                                                      ",
"                                                  _.T.~+@+_+-+3+*+J.m.8.                                                        ",
"                                                  /.E.>+`.4.q.<+3+L.v.1.                                                        ",
"                                                  m.f.`.S.0.f.@+t.E.n._.                                                        ",
"                                                  f.f.T.Z.E.H.H.t.h.j.@.                                                        ",
"                                                    j.T.b.@+0.1.h.0.y._.                                                        ",
"                                                    b.H.C.q.B.0.c.:.6.[.                                                        ",
"                                                    7.y.y.j.m.t.8.8.[.%.                                                        ",
"                                                    7.u.J.m.0.c.n.5.0.                                                          ",
"                                                      u.4._.7.-.y.:._.                                                          ",
"                                                      u.8.6.m._.B c.=.                                                          ",
"                                                      j.C.v.@.1.5.7.@.                                                          ",
"                                                      1.J.v.~.f.h.4.                                                            ",
"                                                        v.v.q.n.y.&.                                                            ",
"                                                        =.C.u.h.5.X                                                             ",
"                                                          1.y.h.U                                                               ",
"                                                          %.J H                                                                 "};
