/* XPM */
static char * item_rot_3c_64_xpm[] = {
"64 64 256 2",
"  	c None",
". 	c #4D4543",
"+ 	c #5A4C42",
"@ 	c #554F4E",
"# 	c #594F4A",
"$ 	c #614E4C",
"% 	c #615752",
"& 	c #64574D",
"* 	c #6A564E",
"= 	c #6A5755",
"- 	c #5F5B5A",
"; 	c #5C5C5F",
"> 	c #645A5B",
", 	c #695B52",
"' 	c #675C57",
") 	c #735F57",
"! 	c #6D615C",
"~ 	c #6F6157",
"{ 	c #676362",
"] 	c #69635C",
"^ 	c #666569",
"/ 	c #6E6464",
"( 	c #766360",
"_ 	c #756366",
": 	c #74665C",
"< 	c #736662",
"[ 	c #6C6866",
"} 	c #6E6862",
"| 	c #766B6C",
"1 	c #726D6C",
"2 	c #786C67",
"3 	c #7A6C62",
"4 	c #746E67",
"5 	c #7F6C69",
"6 	c #737175",
"7 	c #6F7477",
"8 	c #846F67",
"9 	c #7C7367",
"0 	c #7F726D",
"a 	c #7E7273",
"b 	c #817268",
"c 	c #787473",
"d 	c #7A746D",
"e 	c #81796D",
"f 	c #807973",
"g 	c #857873",
"h 	c #87786D",
"i 	c #7E7A79",
"j 	c #857A7B",
"k 	c #7F7C81",
"l 	c #8F796B",
"m 	c #7A7F83",
"n 	c #8B7D79",
"o 	c #847F7E",
"p 	c #867F79",
"q 	c #887F73",
"r 	c #8D7E73",
"s 	c #937F7C",
"t 	c #898483",
"u 	c #928378",
"v 	c #91847F",
"w 	c #88868A",
"x 	c #8C867F",
"y 	c #818890",
"z 	c #83888A",
"A 	c #858884",
"B 	c #8C8786",
"C 	c #8F877B",
"D 	c #928687",
"E 	c #968777",
"F 	c #98878F",
"G 	c #93898F",
"H 	c #98897F",
"I 	c #908B8A",
"J 	c #928B85",
"K 	c #898D90",
"L 	c #8B8D8A",
"M 	c #978A85",
"N 	c #8E8C90",
"O 	c #878E96",
"P 	c #949196",
"Q 	c #969190",
"R 	c #98918B",
"S 	c #8F9396",
"T 	c #919390",
"U 	c #9D908B",
"V 	c #A19181",
"W 	c #9B9198",
"X 	c #9D9192",
"Y 	c #B9898F",
"Z 	c #A19287",
"` 	c #A39099",
" .	c #9D9488",
"..	c #90979F",
"+.	c #AF8F96",
"@.	c #A2948F",
"#.	c #B09191",
"$.	c #9A979B",
"%.	c #9D9790",
"&.	c #9C9796",
"*.	c #95999B",
"=.	c #979996",
"-.	c #A09B9A",
";.	c #A29B94",
">.	c #999DA0",
",.	c #9C9E9B",
"'.	c #A99B96",
").	c #A09DA1",
"!.	c #989FA7",
"~.	c #A59D8F",
"{.	c #A89C9D",
"].	c #9CA1A3",
"^.	c #A49F9E",
"/.	c #A69F98",
"(.	c #A79EA4",
"_.	c #AD9E93",
":.	c #AF9E8D",
"<.	c #B39C9E",
"[.	c #AF9DA5",
"}.	c #C4979F",
"|.	c #BC9A9F",
"1.	c #C199A8",
"2.	c #B3A08A",
"3.	c #A7A3A1",
"4.	c #ACA396",
"5.	c #A1A5A8",
"6.	c #AEA2A2",
"7.	c #A6A4A8",
"8.	c #B0A29D",
"9.	c #AAA49D",
"0.	c #9FA6AE",
"a.	c #A3A6A2",
"b.	c #ABA6A5",
"c.	c #A9ABA8",
"d.	c #A5ACB4",
"e.	c #ADAAAF",
"f.	c #AFAAA8",
"g.	c #A7ACAE",
"h.	c #BAA898",
"i.	c #B1AAA3",
"j.	c #B3AA9C",
"k.	c #C0A6A8",
"l.	c #CAA3AB",
"m.	c #B9ABA6",
"n.	c #B6ABB2",
"o.	c #B8ABAB",
"p.	c #BBABA0",
"q.	c #C7A6B3",
"r.	c #B2B0B4",
"s.	c #AAB2BA",
"t.	c #B5B0AE",
"u.	c #ADB2B4",
"v.	c #AFB2AE",
"w.	c #B7B0A9",
"x.	c #B9B0A2",
"y.	c #BBB5AD",
"z.	c #D6ADB5",
"A.	c #B0B8C1",
"B.	c #C4B4A9",
"C.	c #B9B6BB",
"D.	c #BBB6B4",
"E.	c #B3B8BA",
"F.	c #B5B8B4",
"G.	c #BFB6A9",
"H.	c #C2B6A4",
"I.	c #C3B5B0",
"J.	c #D2B0B6",
"K.	c #CAB3B5",
"L.	c #C2B6B7",
"M.	c #BFB8B1",
"N.	c #C1B7BD",
"O.	c #CBB5BF",
"P.	c #C7BAA1",
"Q.	c #BFBCC1",
"R.	c #C1BCBB",
"S.	c #B9BEC1",
"T.	c #BCBEBB",
"U.	c #C6BCB0",
"V.	c #C8BCAA",
"W.	c #B7BFC8",
"X.	c #C9BBB6",
"Y.	c #C3BDB5",
"Z.	c #CEC0BB",
"`.	c #D2C0AF",
" +	c #C7C2C1",
".+	c #C9C2BB",
"++	c #CBC2B5",
"@+	c #C2C4C1",
"#+	c #BFC5C7",
"$+	c #D5BFC9",
"%+	c #CEC2C3",
"&+	c #D9BFC3",
"*+	c #D1C4AC",
"=+	c #C0C7CF",
"-+	c #CFC5B2",
";+	c #C9C5CA",
">+	c #BCC9D6",
",+	c #D5C6C1",
"'+	c #C8CAC7",
")+	c #C5CBCD",
"!+	c #CFC9C1",
"~+	c #D1C9BB",
"{+	c #CEC9C7",
"]+	c #E3C8CC",
"^+	c #D1CED3",
"/+	c #DBCDC7",
"(+	c #D5CFC7",
"_+	c #D7CFC1",
":+	c #D4CFCE",
"<+	c #CCD1D4",
"[+	c #CFD1CE",
"}+	c #DBCECF",
"|+	c #DCD1BD",
"1+	c #D2D2DC",
"2+	c #DECFD7",
"3+	c #DFD2B9",
"4+	c #CBD5E3",
"5+	c #C6D7E4",
"6+	c #C8D7DE",
"7+	c #CFD6DE",
"8+	c #D9D6DA",
"9+	c #DCD6CF",
"0+	c #DED6C8",
"a+	c #D3D8DB",
"b+	c #D5D8D4",
"c+	c #DCD6D5",
"d+	c #E8DBC2",
"e+	c #D9DEE1",
"f+	c #DCDEDB",
"g+	c #E3DDD5",
"h+	c #E2DDDB",
"i+	c #D1E2EF",
"j+	c #E2DFE3",
"k+	c #D7E2EA",
"l+	c #E8DFD0",
"m+	c #E4E2D1",
"n+	c #ECDFDF",
"o+	c #E8E3E1",
"p+	c #E0E5E7",
"q+	c #E2E5E1",
"r+	c #E8E4DC",
"s+	c #DBEDF9",
"t+	c #E8EBE7",
"u+	c #E2EEF6",
"v+	c #F0EBE9",
"w+	c #F1ECDD",
"x+	c #E9EDF0",
"y+	c #F1EDD7",
"z+	c #F3ECE4",
"A+	c #EEEEE4",
"B+	c #F0F3EF",
"C+	c #F8F6E7",
"D+	c #F7F7EE",
"E+	c #F6F9FC",
"F+	c #FDF8F6",
"G+	c #FFFFFF",
"                                                                                                                                ",
"                                                        :+Y.k.                                                                  ",
"                                                      !+%. .I.<.                                                                ",
"                                                    ++Q  +Y.M w.                                                                ",
"                                                    9.t+c+.+.+4.k.                                                              ",
"                                                  m.'+B+9+Y.R.y.i.                                                              ",
"                                                  9.g+9+r+.+w..+j.<.                                                            ",
"                                                  M..+c+9+.+b.D._.i.                                                            ",
"                                                  w.M.v+r+~+i.f.w.^.                                                            ",
"                                                /.w.0+D+r+~+M.D.f.9.o.                                                          ",
"                                                b.4._+F+o+!+R.D.-.9.t.                                                          ",
"                                                i.8.Y.F+c+D.@+i.-.R 3.                                                          ",
"                                                9.x.y.F+c+ + +i.-.&.Q                                                           ",
"                                                9.x.j.o+h+(+ +w.^.^.^.                                                          ",
"                                              ^.i.p.M.c+c+(+'+w.^.-.R n.                                                        ",
"                                              f.;.x._+{+(+9.R.y.^.&.X o.                                                        ",
"                                              6.v H.g+Y.D.n i. +^.b.f.b.                                                        ",
"                                              b.u 4.0+.+.+V.B. +3.t.Q -.                                                        ",
"                                              ;.v x.m+R.R.V.H.D.3.B &.&.                                                        ",
"                                              R v *+m+{+ +`.~+t.3.).&.Q                                                         ",
"                                              X h -+0+[+y.`.++i.^.).F.&.                                                        ",
"                                              %.u U.!+{+y.V.8.%.^.7.^.b.D.                                                      ",
"                                              U r j.!+@+D.V.M.i.^.c.Q &.D.                                                      ",
"                                              v u _..+D.^.0+I./.f.^.t.X n.                                                      ",
"                                              n q :.D.D.-..+M.6.t.^.T.I b.                                                      ",
"                                              g q ~.w.D.b.{.Y.Y.b.3.I Q (.                                                      ",
"                                              M r Z M.f.f./.t.^.-.3.P &.).                                                      ",
"                                              J r Z M.w.f.;.D.^.-.f.=.$.7.                                                      ",
"                                              e q Z i.y.3./.D.t.,.=.^.Q.^.                                                      ",
"                                              9 b H 9.w.w.t.&.C.-.Q =.).^.                                                      ",
"                                              9 9 n ;./.t.Q.-.C.,.&.Q B -.                                                      ",
"                                              p 9 q %.y.i.Q.3.)+,.$.^.$.$.                                                      ",
"                                              g e g X m.f.@+f.<+).,.Q Q.).                                                      ",
"                                              f 3 p 9.9.t. +D.)+a.>.P k >.                                                      ",
"                                              0 < p Y.9.t.@+'+#+u.].*.$.$.                                                      ",
"                                              p : e w.R.v.T.<+Q.T.>.,.>.$.                                                      ",
"                                              R : 0 /.R.R.R.8+C.#+>.r.7.$.                                                      ",
"                                              9.9 v i..+b..+j+T.)+].L #+).                                                      ",
"                                              ;.p x p R.b.D.f+[+<+5.T >.^.                                                      ",
"                                              R < f ;.&.t.-.r.@+)+d.T =.-.                                                      ",
"                                              I 9 0 M f.D.f.#+C.[+s.S =.$.                                                      ",
"                                              %.n d q /.w.{+)+'+S.s.*.P $.                                                      ",
"                                              i.R f r '.t.^.F.#+S.s.v.>.$.                                                      ",
"                                              y.n f 0  .R f.C.g.d.d.*.).-.                                                      ",
"                                              f.2 p g n %.;.].5.s.d.C.E.).                                                      ",
"                                                | x v d R ^.g.0.d.s.].).).                                                      ",
"                                                x p v f d c S !.5.W.>.).7.                                                      ",
"                                                Q D v p 1 [ 1 z ..W.W.).7.                                                      ",
"                                                %.i } { i t Q ).>.W.6+].7.                                                      ",
"                                                ^.d 1 d d 1 [ 1 ].W.i+g.                                                        ",
"                                                f.f 1 a o B A o P W.i+7.                                                        ",
"                                                &.x i p o L N w z =+k+g.                                                        ",
"                                                  %.a J o t T w *.d.7+u.                                                        ",
"                                                  ^.! 4 -.t =.$.u.A.u.E.                                                        ",
"                                                  b.d / I -.t E.s.4+u.r.                                                        ",
"                                                  I &.[ Q o L s.W.7+v.S.                                                        ",
"                                                    b./ c t =.0.i+=+F.                                                          ",
"                                                    3.t i c =.d.i+E.u.                                                          ",
"                                                    t F.{ I i O e+c.g.                                                          ",
"                                                      7.^.[ i 0.Q.g.                                                            ",
"                                                      i @+v.7.#+7.].                                                            ",
"                                                        o C.Q.e.>.).                                                            ",
"                                                        i c B A N                                                               ",
"                                                          I c w                                                                 "};
