/* XPM */
static char * item_rot_2a_64_xpm[] = {
"64 64 256 2",
"  	c None",
". 	c #4E4138",
"+ 	c #4B423F",
"@ 	c #5A4846",
"# 	c #544A45",
"$ 	c #514B4B",
"% 	c #5C4D44",
"& 	c #5B514C",
"* 	c #585252",
"= 	c #62504D",
"- 	c #64564D",
"; 	c #6A564F",
"> 	c #635858",
", 	c #5E5A5A",
"' 	c #605A54",
") 	c #655954",
"! 	c #685A50",
"~ 	c #6E5B58",
"{ 	c #6C5E55",
"] 	c #6B5E5A",
"^ 	c #696156",
"/ 	c #735E56",
"( 	c #666261",
"_ 	c #68625C",
": 	c #6C6161",
"< 	c #706258",
"[ 	c #6F625E",
"} 	c #78645C",
"| 	c #726661",
"1 	c #74665C",
"2 	c #6A696D",
"3 	c #796663",
"4 	c #706963",
"5 	c #736868",
"6 	c #6E6A68",
"7 	c #786A60",
"8 	c #776A65",
"9 	c #7A6D68",
"0 	c #7D6E64",
"a 	c #75706F",
"b 	c #816D6B",
"c 	c #7A6F70",
"d 	c #77716A",
"e 	c #797165",
"f 	c #727275",
"g 	c #836F66",
"h 	c #7E716C",
"i 	c #88726A",
"j 	c #857376",
"k 	c #827570",
"l 	c #84756B",
"m 	c #7B7776",
"n 	c #7D7770",
"o 	c #81786C",
"p 	c #837879",
"q 	c #7C7A7E",
"r 	c #777C7F",
"s 	c #877A75",
"t 	c #897A6F",
"u 	c #807C7B",
"v 	c #827C75",
"w 	c #8D7E74",
"x 	c #8C7E79",
"y 	c #878079",
"z 	c #85817F",
"A 	c #947E75",
"B 	c #848286",
"C 	c #8C8081",
"D 	c #818480",
"E 	c #8B8275",
"F 	c #808588",
"G 	c #928277",
"H 	c #898483",
"I 	c #8B847E",
"J 	c #90837E",
"K 	c #95867C",
"L 	c #948682",
"M 	c #8F8881",
"N 	c #8D8987",
"O 	c #978878",
"P 	c #948889",
"Q 	c #898C88",
"R 	c #938A7E",
"S 	c #888C8F",
"T 	c #8D8B8F",
"U 	c #9A8B81",
"V 	c #998B86",
"W 	c #938D86",
"X 	c #928D8C",
"Y 	c #969190",
"Z 	c #9C9280",
"` 	c #A09186",
" .	c #9D9192",
"..	c #9F918C",
"+.	c #A29181",
"@.	c #969397",
"#.	c #99938C",
"$.	c #9B9386",
"%.	c #909597",
"&.	c #939592",
"*.	c #BE8890",
"=.	c #8F969E",
"-.	c #999593",
";.	c #9E949A",
">.	c #9C999D",
",.	c #9F9992",
"'.	c #969B9D",
").	c #9E9998",
"!.	c #A8979F",
"~.	c #A2999F",
"{.	c #A59999",
"].	c #A8998E",
"^.	c #AA9988",
"/.	c #969DA5",
"(.	c #A39B8E",
"_.	c #A69B89",
":.	c #9B9D9A",
"<.	c #A79A95",
"[.	c #9B9FA2",
"}.	c #A09EA2",
"|.	c #A29E9C",
"1.	c #A49E97",
"2.	c #C2989E",
"3.	c #9FA4A6",
"4.	c #A7A2A1",
"5.	c #B89D9E",
"6.	c #A9A29B",
"7.	c #AFA19C",
"8.	c #B4A18B",
"9.	c #B1A197",
"0.	c #B3A191",
"a.	c #A3A5A2",
"b.	c #ADA2A2",
"c.	c #ACA2A9",
"d.	c #A6A4A8",
"e.	c #9FA6AE",
"f.	c #ACA497",
"g.	c #AEA492",
"h.	c #B4A2AA",
"i.	c #ABA6A5",
"j.	c #ADA69F",
"k.	c #A4A8AB",
"l.	c #B5A9AA",
"m.	c #BAA998",
"n.	c #AFABA9",
"o.	c #B1ABA4",
"p.	c #BEA7A9",
"q.	c #B8AAA5",
"r.	c #BAAA9F",
"s.	c #AFACB0",
"t.	c #A7AEB7",
"u.	c #A9AEB0",
"v.	c #B5AC9F",
"w.	c #B7AC9A",
"x.	c #ACAEAB",
"y.	c #B5ABB2",
"z.	c #BEAAB3",
"A.	c #CAA8AD",
"B.	c #B5AFA8",
"C.	c #BDAE97",
"D.	c #B4AFAD",
"E.	c #D0A7B0",
"F.	c #B9B2AB",
"G.	c #B3B5B2",
"H.	c #BCB2B8",
"I.	c #BEB2B2",
"J.	c #C0B3A1",
"K.	c #C0B2AD",
"L.	c #C2B2A7",
"M.	c #B7B4B8",
"N.	c #AFB6BF",
"O.	c #B9B4B3",
"P.	c #B1B6B9",
"Q.	c #BDB4A7",
"R.	c #C7B0B2",
"S.	c #BDB6AF",
"T.	c #C4BAAE",
"U.	c #C0BBB9",
"V.	c #C2BBB3",
"W.	c #C7BABB",
"X.	c #C9BAB5",
"Y.	c #B7BEC8",
"Z.	c #BCBEBB",
"`.	c #D0B8BA",
" +	c #C0BDC1",
".+	c #CDBBAA",
"++	c #BABFC2",
"@+	c #C7BDAA",
"#+	c #CABDA5",
"$+	c #C4BFBE",
"%+	c #C6BFB8",
"&+	c #C8BFB2",
"*+	c #C9C4C3",
"=+	c #CBC4BD",
"-+	c #D1C3BE",
";+	c #CEC5B8",
">+	c #D2C5AC",
",+	c #D1C5B2",
"'+	c #C9C6CA",
")+	c #C3C8CB",
"!+	c #C5C8C5",
"~+	c #C0C9D3",
"{+	c #CEC8C7",
"]+	c #CFC9C1",
"^+	c #D8CAC4",
"/+	c #D3CDC6",
"(+	c #D2CDCB",
"_+	c #DCCBCD",
":+	c #D9CEBB",
"<+	c #CED0CD",
"[+	c #D2D0C1",
"}+	c #D2CFD3",
"|+	c #CCD1D4",
"1+	c #D9CFC2",
"2+	c #C6D3DE",
"3+	c #DED1B8",
"4+	c #D7D2D0",
"5+	c #D9D2CB",
"6+	c #E5D1D3",
"7+	c #D5D9DC",
"8+	c #CDDBE7",
"9+	c #E0D8CA",
"0+	c #DDD8D6",
"a+	c #DFD8D0",
"b+	c #D7DAD6",
"c+	c #E3D8C5",
"d+	c #DADAD1",
"e+	c #E8D9D4",
"f+	c #E9DEC4",
"g+	c #E4DEDD",
"h+	c #D6E3ED",
"i+	c #E3E0E4",
"j+	c #DDE2E5",
"k+	c #E7E0D8",
"l+	c #E9E0D3",
"m+	c #E0E2DF",
"n+	c #E3E3DA",
"o+	c #E6E4D5",
"p+	c #EBE4CF",
"q+	c #E9E4E2",
"r+	c #F0E3E4",
"s+	c #DDEDF6",
"t+	c #EFE9E8",
"u+	c #E9EBE8",
"v+	c #EBEBE2",
"w+	c #E9EBEF",
"x+	c #F1EAE2",
"y+	c #F3EFDA",
"z+	c #F2EFDF",
"A+	c #ECF2F5",
"B+	c #F8F0E9",
"C+	c #F6F1F0",
"D+	c #F3F3EA",
"E+	c #F2F4F1",
"F+	c #FFFAF9",
"G+	c #FFFFFF",
"                                                            %+                                                                  ",
"                                                          T.]+5+                                                                ",
"                                                        r.,.I V.]+                                                              ",
"                                                        ,.d.b+4.F.                                                              ",
"                                                      7.4.v+D+E+6.K.                                                            ",
"                                                      ,.S.&+:+v+(+j.                                                            ",
"                                                      i.v.6.%+0+a+B.                                                            ",
"                                                    1.S.f.V.=+g+/+F.q.                                                          ",
"                                                    4.B.(.Q.k+v+a+=+7.                                                          ",
"                                                    4.f.(.v.a+C+a+%+v.                                                          ",
"                                                    D.f.o.q.a+E+9+B.F.                                                          ",
"                                                    B.<.7.Q.5+F+a+F.F.q.                                                        ",
"                                                  |.6...v.@+]+F+a+S.S.v.                                                        ",
"                                                  4...L 9.&+S.E+$+%+D.7.                                                        ",
"                                                  n.$.K g.,+%+t+*+*+D.o.                                                        ",
"                                                  n.x x g.:+]+u+(+*+D.j.                                                        ",
"                                                  i.l x $.1+5+g+/+*+o.4.                                                        ",
"                                                  n.8 L (.;+5+(+=+{+B.,.                                                        ",
"                                                  n.8 t r.p+5+=+W n.F.-.{.                                                      ",
"                                                  i.s t m.p+4+O.F.6.V.|.4.                                                      ",
"                                                -.b.L w 9.p+/+U.;+T.U.|.{.                                                      ",
"                                                |.,.J t ].l+*+$+-+@+U.|.{.                                                      ",
"                                                4.W x t +.9+*+U.;+,+n.i.4.                                                      ",
"                                                n.M h w ^.]+$+O.T.,+B.).).                                                      ",
"                                                D.s 0 t ^.V.V.O.&+v.).}.).                                                      ",
"                                                O.x x t _.F.S.n.&+T.6.}.i.                                                      ",
"                                                O.s $.t _.B.F.i.V.&+o.4.4.                                                      ",
"                                                D.L V t ` F.B.G.i.V.|.i.).                                                      ",
"                                                O.8 V t U o.Q.n.i.B.B.n.n.                                                      ",
"                                                O.< t l R 7.V.|.j.F.|.4.Y                                                       ",
"                                                O.7 7 o G 6.%+1.4.O.|.|.).                                                      ",
"                                                S.7 1 h x 1.B.6.O.i.i.:.a.                                                      ",
"                                                S.e l 9 s #.6.j.$+|.x.-.}.                                                      ",
"                                                O.) J 9 s  .1.V.U.n.M.-.Y                                                       ",
"                                                O.[ y 9 k #...%+U.n. +@.x.                                                      ",
"                                                O.8 9 8 s ,.,.U.U.U.Z.>.T                                                       ",
"                                                O.s ! 8 v |.S.n.Z.!+ +>.'.                                                      ",
"                                                D.d { 7 n o.=+O.G.'+'+}.d.                                                      ",
"                                                i.y { 7 9 ,.S.*+U.}+ +'.s.                                                      ",
"                                                |.#.[ 7 k o.S.D.O.7+'+3.@.                                                      ",
"                                                ,.1.L h V k =+G.n.*+<+k.&.                                                      ",
"                                                  4.M k x V M x.}.M. +u.@.                                                      ",
"                                                  F.8 k s J D.O.O.<+ +P.>.                                                      ",
"                                                  o.] 8 I L #.|.O.++P.k.k.                                                      ",
"                                                  4.) w d 0 f.D.O.G.k.u.}.                                                      ",
"                                                  n.{ L n h ].L W 3.t.t.}.                                                      ",
"                                                  D.7 #.n h E ,.j.3.3.~+d.                                                      ",
"                                                  S.x W h w d $.z F =.2+u.                                                      ",
"                                                  D.1.[ v I h d 6 Q d.2+u.                                                      ",
"                                                  {.b.) W J I a H a B 7+G.                                                      ",
"                                                    b.) M L I m a B S P.                                                        ",
"                                                    i.! X n > a N Q [.++                                                        ",
"                                                    n.{ H n a z N @.P.)+                                                        ",
"                                                    n.h 4 a n z H x.Y.P.                                                        ",
"                                                    ).|.d 5 I H Y T 8+u.                                                        ",
"                                                      D.y H z |.X %.~+u.                                                        ",
"                                                      D.[ c 4 u X '.++                                                          ",
"                                                      |.#.: 4 u m S u.                                                          ",
"                                                      I O.4 5 n H }.}.                                                          ",
"                                                        O.W _ c a s.@.                                                          ",
"                                                        p '+u c n.>.                                                            ",
"                                                        C ).4+{+s.N                                                             ",
"                                                          n H Y m                                                               ",
"                                                            p c                                                                 "};
