/* XPM */
static char * 1_penny_64px_xpm[] = {
"64 64 255 2",
"  	c #281603",
". 	c #301C03",
"+ 	c #382203",
"@ 	c #441F03",
"# 	c #402103",
"$ 	c #492801",
"% 	c #4E2800",
"& 	c #432B0C",
"* 	c #452C04",
"= 	c #3D2F1D",
"- 	c #4F3308",
"; 	c #4F3918",
"> 	c #56380B",
", 	c #603C05",
"' 	c #5E4113",
") 	c #5B4420",
"! 	c #6A4303",
"~ 	c #674617",
"{ 	c #34592D",
"] 	c #6E4A14",
"^ 	c #2E5E1D",
"/ 	c #684D19",
"( 	c #3E5C20",
"_ 	c #6F4E1D",
": 	c #2F6311",
"< 	c #785113",
"[ 	c #69542E",
"} 	c #77541D",
"| 	c #7A5928",
"1 	c #3A6E2A",
"2 	c #7D5B23",
"3 	c #815F2E",
"4 	c #895E22",
"5 	c #826028",
"6 	c #846022",
"7 	c #3E7622",
"8 	c #895F2A",
"9 	c #8A601B",
"0 	c #477342",
"a 	c #4E732D",
"b 	c #985C2E",
"c 	c #4B7525",
"d 	c #4D7336",
"e 	c #537045",
"f 	c #5C7034",
"g 	c #457935",
"h 	c #6A6E30",
"i 	c #88662E",
"j 	c #428018",
"k 	c #4C7E1C",
"l 	c #587C1F",
"m 	c #737356",
"n 	c #956E30",
"o 	c #926F37",
"p 	c #9B6E28",
"q 	c #4E8631",
"r 	c #50853C",
"s 	c #508544",
"t 	c #588433",
"u 	c #5B8344",
"v 	c #6A7F46",
"w 	c #4F8D28",
"x 	c #5A8B29",
"y 	c #618740",
"z 	c #5B8860",
"A 	c #678559",
"B 	c #548C55",
"C 	c #5E8955",
"D 	c #65856B",
"E 	c #A9763B",
"F 	c #549320",
"G 	c #559416",
"H 	c #53923B",
"I 	c #5A913C",
"J 	c #5B9046",
"K 	c #5A904E",
"L 	c #AD7931",
"M 	c #638F3D",
"N 	c #668D4E",
"O 	c #AB7C2A",
"P 	c #589631",
"Q 	c #A37E3E",
"R 	c #AB7D36",
"S 	c #629432",
"T 	c #A27F45",
"U 	c #868A4A",
"V 	c #609F3A",
"W 	c #689C43",
"X 	c #679C4A",
"Y 	c #629D51",
"Z 	c #729948",
"` 	c #5F9F47",
" .	c #6B9A57",
"..	c #699A5F",
"+.	c #619D59",
"@.	c #7A9748",
"#.	c #6B9B50",
"$.	c #60A51B",
"%.	c #68A231",
"&.	c #61A52A",
"*.	c #6BA229",
"=.	c #6DA03D",
"-.	c #8D9272",
";.	c #61A533",
">.	c #BF8840",
",.	c #B88B43",
"'.	c #BC8B39",
").	c #6E9F6F",
"!.	c #7B9B73",
"~.	c #7D9D55",
"{.	c #7B9D62",
"].	c #B18F54",
"^.	c #64A941",
"/.	c #B58F4E",
"(.	c #6BA742",
"_.	c #69AB4F",
":.	c #69AB56",
"<.	c #74A853",
"[.	c #6CAA5C",
"}.	c #6BAA65",
"|.	c #76A762",
"1.	c #78A75C",
"2.	c #75A76A",
"3.	c #87A555",
"4.	c #69B337",
"5.	c #6CB23F",
"6.	c #6CB247",
"7.	c #76AF4B",
"8.	c #6CB24E",
"9.	c #C8975A",
"0.	c #71B62F",
"a.	c #C3995A",
"b.	c #C69950",
"c.	c #6DB91F",
"d.	c #6AB92F",
"e.	c #BE9C5C",
"f.	c #7BB343",
"g.	c #77B53B",
"h.	c #70B85A",
"i.	c #73B767",
"j.	c #7AB65A",
"k.	c #ABA666",
"l.	c #70B961",
"m.	c #7AB661",
"n.	c #76B670",
"o.	c #7CB567",
"p.	c #82B36D",
"q.	c #84B367",
"r.	c #84B45F",
"s.	c #71BD40",
"t.	c #8DB260",
"u.	c #81B476",
"v.	c #74BC48",
"w.	c #74BB56",
"x.	c #75BC50",
"y.	c #7FBA55",
"z.	c #D8A04B",
"A.	c #CCA463",
"B.	c #76C51C",
"C.	c #D1A55E",
"D.	c #82BB89",
"E.	c #AFB069",
"F.	c #C0AB77",
"G.	c #96B87B",
"H.	c #77C73D",
"I.	c #7CC830",
"J.	c #93B98D",
"K.	c #7BC465",
"L.	c #7DC45F",
"M.	c #7AC46B",
"N.	c #79C472",
"O.	c #7DC558",
"P.	c #9ABA70",
"Q.	c #7CC74B",
"R.	c #7CC37B",
"S.	c #7BC752",
"T.	c #DBA862",
"U.	c #81C740",
"V.	c #83C36C",
"W.	c #88C35D",
"X.	c #87C366",
"Y.	c #85C27B",
"Z.	c #DBA96A",
"`.	c #85C373",
" +	c #8AC26D",
".+	c #8DC082",
"++	c #D3AD63",
"@+	c #D1AD6B",
"#+	c #90C07A",
"$+	c #92C16B",
"%+	c #D8AC64",
"&+	c #99BF6C",
"*+	c #86C754",
"=+	c #D7AC6B",
"-+	c #91C174",
";+	c #8BC842",
">+	c #AFB69F",
",+	c #81CF21",
"'+	c #B8B874",
")+	c #8CC94F",
"!+	c #8DCE26",
"~+	c #91C957",
"{+	c #87CC63",
"]+	c #9BC866",
"^+	c #92CB65",
"/+	c #8CCD72",
"(+	c #A3C766",
"_+	c #90CD7D",
":+	c #8ECD86",
"<+	c #95CD77",
"[+	c #9FD12F",
"}+	c #97CE71",
"|+	c #94D34A",
"1+	c #9ACC8D",
"2+	c #9DCC85",
"3+	c #A0CD73",
"4+	c #EAB674",
"5+	c #9FCD79",
"6+	c #9ECD7F",
"7+	c #A8CB90",
"8+	c #A5D250",
"9+	c #97D568",
"0+	c #E3BD75",
"a+	c #9DD55C",
"b+	c #9FCF9E",
"c+	c #ECBC6A",
"d+	c #A3D570",
"e+	c #A6D565",
"f+	c #AFCF8B",
"g+	c #B1D07C",
"h+	c #AFD085",
"i+	c #BBCC96",
"j+	c #B0D471",
"k+	c #B2D1A1",
"l+	c #E5C485",
"m+	c #A8D78F",
"n+	c #A6D798",
"o+	c #B2D2AA",
"p+	c #B2D2B7",
"q+	c #B2D599",
"r+	c #CACDA4",
"s+	c #AFDB84",
"t+	c #C4D2BA",
"u+	c #AFDD8E",
"v+	c #F1CC84",
"w+	c #ACE489",
"x+	c #B5E5A1",
"y+	c #BEE2A4",
"z+	c #BFE3B4",
"A+	c #C2E2C1",
"B+	c #FEDC8D",
"C+	c #F8DFA2",
"D+	c #FDF4C7",
"E+	c #F8FBE3",
"F+	c #FFFFFF",
"U.^.!+u+h.h.]+3+g.<.1.k+r.=.2.i+r.q+&+X._.h.{+y+u @.S.~+R.[.~.k+u 7 |+s M.C M ^+z k+i+` v.n+q s 1+y+^+h+( k }+O.M.x.x.2.k+L.l.I.",
"U.^+,+o.`.u+h+d $+}.#+#+g+3+@.i+5+W.y.=.@.`./+A+q+i+r.K _+u.J.6. +2+..K.O.1+N.2.Y [...c S.C n+r.Y.$.]+j+t -+=.H.s+H.W ^+g +.{+L.",
"s.U.,+:+v.|+|.u e _+y+|+^+Y (.g+j.%.o.5+.+I *+e+<+X O.{+#.W.q 7 f+ +`.p+V.Q.C 8.1.V }.u.B.L.Y &+D.g.` Y.M  .2.6.$.B.`.|+N ).m.g.",
",+z+I.X.|+o.G.i.u.A j+ +U.}+y i+]+%.}+A #+F L.:+r g G Z )+N J ^.s -+J Y. .#+<.{+o+`._+J g.t 2.s 3.x 7 v.~._+r.N 8.j+B.g.{.r.:+u+",
"5+<+,+^.<.6.}+i+J.H I 5+y+y t+(.6.: $+q.r.d $.1 V.g R.&.d *.U.H +.|.P N.5.^.w.~+1+: :.u.o+H m+~.~+(.q j s.`.u+D.N ]+;.(.I.{.:.h+",
"{+3+!+x q O.2+J.t+n+P  +/+]+g+;+)+i+<+l 1+y C f+1 c { e+;.` L.l.z {.o+Q.W.N.l.^+h.h s }.o+5+z+u P s.Z N  +V q d+f+3.~.0.y 4.A <.",
"~+9+g.,+V X.R.f+~.r.2.-+L.]+f+~+h+n+<+z+2+Y.P m+_+D.f+7.7.{+`.n.u.z+t+1 5+[.:.I.L.s b+m.:.q y+.. .d d.^+M 0.}.[.]+}+-+=.o.f.Y N ",
"n+6.)+B.H m.b+2.2.Q.c y+l.y X 5+L.y.7+7 3+_+N 7+}+C i.j.$.c.(+.+|.A+<.C ^ q.7+)+q.(.Y.R.w.n+w+}.J ^ k |.s+j.*+:.w ]+;.f (.m+L.y.",
"w O.h.7.D `.<+$+n.g+t V.h+$+k x+_.5+M &+2+7+x._.Q.C 1+'.z.'.>.>.,.b.,.z.%+}.d+_+P X.C j+M.{+j.B i.I O.s+}+o.!+^.^+4.S.g.*+&.H.j+",
"M c.j ).#.b++.;.Z ~+/+r.6+m+2+}+_._.^.#.P.<.t+9 ,.,.- + + | | 5 e.|     + > L ,.,.h+Q.C j+k+w 1.X M.s I.$+3+$._+2+t =.g+!+w x I.",
"w 6+|+w ;+G.u v.X o+ .m.O.y.s+d+ +{+` a _+z.,.. * 5 l+> & Q %+A.A.e.A.A.e.].4++ * ,.'.d %.*+Y.0 r 0 ` ,+i.{+5+<.y P.k -.=.B._.y+",
"` u+M 7.K A m.&.I.k+X 5+&.}+(.~. +Q.:.z.,.  0+3 5 @+/.++%+%+%+C.%+C.%+C.%+%+%+a.=+C.# R >.k 4.[.l.B.P.:+M.e `.6+y N #.|.N U._+r.",
"1.<+j.K f+{. .B.o+O./+ +g.V.M o.M.e.,.  6 - i Q /.A.a.a./.* a.%+=+%+++%+b.E+%+%+%+%+A.0+. ,.o 5.I S a I V 7.P 6.D.a { ~. +X.u 6+",
"B U.M.u.+.d.H.q+i.^.[.#.O.V K :.'.n | @+i i T /./.A.A.A.6 v+Q =+%+%+%+%+a.%+] %+%+%+%+%+> @+R ,.N 2.g o+2+` 4.<+1+q 7+v =.+.:+t ",
"k+I K w C I.<+L.P P :.Y.=.7+`.,.+ 2 F.5 5 o Q Q e.e.A.A./.0+++%+++%+%+++C.> %+%+%+%+%+%+%+].c+* ,.o+b+I 7 k+6.7.s `.%.^ `.2+ .S ",
"y+1.w X.q I.C U.K.` X.i.r.%.,.. 2 3 2 6 5 o T Q e.A.a./.T /.A.++A.++++5 $ v+%+%+%+%+%+R %+%+%+D+$ ,.o+2+v Z y+6.1+2+M.o+y 1.`.C ",
"}+e+0 _.R./+S.q+` 5.O.5.;.,.. 0+5 2 l+# o i o o Q e.e././.@+A.@+@+@+@+++A.%+%+%+++%+,.C.%+%+C.%+,.+ ,.f+( i+d 5+n.U.g.2+G.L.+.x ",
"X.:.z+k+n+Y Q.X j.Q.X |+,.  E+2 2 n ].e.Q @+o o T Q ]./.Q a.@+c+@+A.%+++A.++%+++%+,.++R 0+,.R %+%+< * ,...(.D.f +.S.Z A+: e K 6+",
"Z 6.I e+Y.9+i.5+v.f+j.,.' @+5 2 2 2 T ] 5 o o i ].o o Q T Q i a.o @+A.a.%+++++%+%+%+++8 b.C.%+%+%+%+C.p ,..+N m.[.N.}.k O.G.{+i+",
"X.^. .q+}+F (.P f.2+(.,.5 5 2 2 2 2 2 a.| 2 5 i o o o T ]./.o e.A.e.@+A.A.A.=+=+@+%+%+C.%+%+%+%+%+T.n 9.,.N A ..4.(.n.t $+a k+/+",
"_.k K i+`.^.m.y.r.v.,.o /.2 2 2 2 2 2 2 2 2 2 i i o o i 5 0+/.i $ c+@+@+A.A.@+C.=+%+=+%+++%+%+%+%+%+%+o - ,.d d /+ .f h.2.5+}.i.",
":.h.R.o+3+}+6.<.[.r+E 6 5 2 e.2 2 | 2 2 | 2 2 5 o i i l++ T o ~ Q ].T Q @+@+A.A.=+C.%+=+%+%+%+%+%+F+%+%+@+R $+l h+r &.7.{.b+Y K.",
"H z+h+n+p.h.;.t 5+,.5 5 2 2 . 0+5 2 | | | | 2 o o i o C+E+n @+A.0+@+o D+# @+++5 =+A.C.%+%+%+F+E+- , %+%+p ].,.u+y.(.G.k+;.N ^+u ",
"V ^+P r  .g.6.y.}+R 5 5 5 5 R /.+ 2 3 | | | 5 | /.@+e.E+l+@+T ].o o @+=+++8 /.@+A.A.%+++%+%+@+C.o $ C.%+%+c+,.N #.=.S H Y $.I j+",
"N Q.` /+L.5.u+^+R . + 5 6 /.% 2 2 2 2 2 | 3 | 2 o & o | F.@+o o @+- > e.] % 3 =+A.A.%+A.%+%+%+=+Q p b.0+%+%+< b.Q.j y r q z+`.I.",
"r }+S.M.I.I.2+3+R 5 o 2 2   b.0+5 5 5 5 2 @+3 2 5 Q C+T ].v+@+e.5 C+2 0+} ' @+@+A.l+l+++++%+%+C.Q @+%+%+T.%+4 ,.}.|.x.h+^.+.;+j ",
"c.W H.3+e+d./+Y./.< 5 2 2 2 2 3 5 5 5 2 T 3 e./.Q n Q /.R n T n 5 o o n 4 _ _ F+F./.~ l+%+%+C.C.b.%+%+%+%+%+Z.,.z+7 6.x 5+x U.;+",
".+t X.s.^+}+w.,.% 0+2 2 2 2 5 2 5 5 5 5 ] 0+o T o /.].T /.].T T o o T Q o o | > & /.@+@+++A.%+%+%+%+%+%+T.%+Q ,.' 3.1 S 5+1 7 V ",
"m+^.0.}+H.2+8.,._ 6 2 2 2 2 5 2 5 2 5 5 F.+ | 2 | e.l+2 e.@+3 a.l+2 ].> 2 a.@+2 2 - e.b.++%+%+%+%+%+%+%+%+C.].9 ,...;.C C 1+ .7 ",
"u+j.q+$+5.i.M ,.T 5 2 2 E+0+5 2 5 5 5 6 e.Q | | | o l+l+].Q F+, n E+@+n F+e.3 5 5 2 5 /.C.C.C.%+C.C.%+%+, %+C+, ,.v.V j r 5.z+S.",
"J w j.7+<.M Q.,.o 5 2 /.+ > p 2 2 2 5 o * - 2 | | e.o T T o T ].3 o e.- o /., 2 2 5 8 2 ++C.C.C.C.c+c+C.> %+%+].L z+^  +X [.{+^.",
"H k+U.G.m.-+;.R 6 5 2 F.5 2 ].2 2 5 5 5 F+- | 2 2 a.@+5 e.o 5 e.o 5 ].> 2 e.T 2 5 2 a.A.++A.C.C.%+/.Q $ %+T.C.].L (.S ^ _..+[.w ",
"M.^.X.x.}.q q R 6 2 2 ].E+%++ 2 2 2 5 + ].| | 2 2 ~ 4+l+]./.4+].n 0+e.] 4+@+- 2 5 5 5 - C.A.C.=+C.C.C.$ , C.8 @+R 2.<+6+0 A+O.c ",
").b+q 7 ^ d /+,.4 6 2 }   * 2 2 2 2 5 6 T > 2 2 2 Q . . T .   ].. . T + + e.$ 5 5 2 T   =+A.=+C.=+C.C.C.$ C.} 9 R S.7 w.`.g.X._+",
"A+A+}.J A+Y l R @+i 2 2 2 2 2 2 2 2 5 6 5 - 2 2 5 A.@+i e.i i /.> i /., i e.- 3 2 2 ].@+@+Q A.A.A.C.C.C.C.C.v+9 R x q ^+Z P w N ",
"`.o+Y a  +A+`.,.] | } 2 2 } 2 2 2 2 2 } /.+ 3 2 | 8 e.a.2 | a.n ] A.e.e.A.@+].2 5 2 i # A././.A.C.C.C.C.C.C.%+C.8 r.H.S.N  .c j ",
"4.z+H N 7 w.Q./.< + 2 2 2 } 2 2 2 2 5 5 ].n 2 2 2 /.l+2 ].e.2 /.$ 2 4 % 5 e.# 2 2 2 v+] C.Q ,.A.C.C.C.C.b.C.a.,.; B.6.U. .M.N =.",
"A+x ]+(.j v.F 5.,.~ i 2 2 2 } 2 2 2 2 6 + * 2 2 2 /./.l+@+n E+@+! C+/.8 C+e.$ 2 2 2 ].+ @+T /./.a.a./.b.b./.9 R 3+!+f.x G d .+y+",
"z+V.f.x.0 =.V 4.R 4 3 2 2 | } | 2 } 2 2 6 > 2 2 2 A.T ].D+o Q /.$ i ] $ > T > 2 2 2 T 0+A.n Q /././.,.A.A.> , O {+f.,+~.G x N l ",
"6.V.B |+;.x X.}+R ] Z.2 2 } } _ _ } } F.Q ' 5 2 2 /.5 5 =+3 2 a.~ 5 e.a.5 ++Q 2 2 p /.. i i n Q /./.R /./.< ,.8 ^.)+0.5+6.Q.*+x+",
"}+v.l R.5.5+y.q+W.,.4 5 2 2 _ | _ _ | | / ].e.2 2 o 2 2 o 2 2 - 2 2 ' o 5 + } 2 5 # o 2 2 2 n n n /./.R v+] R ^.v.i.P C e+^..+_+",
"W.z+H.h._+;.5+]+_.L l+E+2 ] _ ~ ~ ~ ~ _ - 2 5 A.2 } 5 2 2 2 2 2 2 2 2 5 2 2 2 2 A.Q # 2 2 2 2 6 6 n Q Q %+,.'.M $.5.b+W 1+:.h.2+",
"V U.h+q j _+f+L.7 -.,.| 5 } _ _ ~ ~ _ 2 n . /.. 5 2 5 2 2 2 2 2 2 2 2 2 5 2 2 2 / # 5 0+++2 2 8 6 6 6 E+, p m+P 1.|+w I.i+u Q.#.",
"I `.U._+<+#.*+[.S Y E , | 2 } _ ' ~ |   F.n Q C+_ } 2 2 2 2 2 2 E+} 2 2 2 } | | ] + > / . A.2 2 2 6 n } ,.,.n.H u+M =.K C m.O.w.",
"[.#.j.}+y.3+4.^+u f.m.R 9 n 2 _ > * < ' T > + ].- - ~ _ _ } 6 A.a.} | ] ~ _ - > Q Q %+2 8 e.2 2 2 4 6 , L  +2+n.M.$+X m+|.J i+W.",
"M A+5+{+w %.;.i.`.s s.R R $ R ] - ~   E 4+    &     & & * > > Q ].' ' > ~ - * #       ~   _ } 2 6 9 , L + ` [.2.U.M.J X.O.q+V.6+",
"^+<. +I 1.y h+s.[.w.<+P L ,.- p ~ ~ +         .         . + & n o - # # # & . . . . . * ~ ] } 6 4+] L 4 :+0.3+5+M p.` Y U.j+3+y.",
"5+r X.M._+8.m.V.0 ` W h.)+L A._ n _ - +                     . p n + + & . +   .   . + - ~ } 6 D+9 R v+J  +5+x.7+L.X.<+m.-+$+` W.",
"5+w i+#.A+V.-+6+_+4.;+W.#.J L ,.2 /.| / ) . . . .             Q n .   . . . . + + * - ~ } 6 ,.B+L z.d+_.h+{+^+[.j+}.y.Y f.(.m.*+",
"d.k o.R.`.m.s.t.` 6+;+Q.^+W }+p ,.4 - 6 ' * & + . . +   .     p /.. . . . & & & * ' ' } 4 > C+L v+K.x._+W _+m+O.<+{+1+8.j+f+J k+",
"F q R.h.#+X.j.5+ .<+H.<.{+L.M g+L R v+. E+| * - & . . . +   . /.,.+ . + + * - > ~ < 6 R , 9.p % }+^+_.K.L.{.*+_+q+_+2+[.<+u+}+V.",
"/+n.s ;+` J =.]+<+X.%.<+N.^+t /+$+$ L c+,.] p > ' - & + + . .     . + + - * > } p , 4 C+O 9   L.` w+#+5+R.6+6+{+6+1+N.9+i.c.W.6.",
"Y V.x.h.m.Z W 7.:.:+_+q+v.w.W.M.[.`.O.R O 4+C.] ' =+5 } * > # ' * > > } ] 2 0+8 2 C+,.p $ Y }+2+I w+5+1+p+1+o.p./+K.%.9+L.S.5.<+",
"K.N.D.5+k+M X.V.0.|.}+5+$+;+W.L.[.;+&.G O.C.L >.c+C.> , ' F.9.p _ T E > _ 4 b.C+R 9 L <+|...m.U.(.j+*+6.2+_+K.i.w.w+d+4.U._.4.<+",
"w. .h.M.N <+w.7.8.p.L.Q.s+7.o.L.W i.~+S.^+G {+- p p O z.F+F+C+D+D+E+F+v+>.L p z.& L.s d {+l._.e+3+W.{+-+f+:+_.1+:+L.O.H.^.<+4.B.",
"*+(.J x <.w./+J 0. +}.I ^+W <.y.%.|+;.0.Q.Q.$+]+X j q < D+c+z.c+c+z.c+F+~ ;.H 1+I l.P y+}+` [.g+r y+i.s+[.7+q.)+Y.}.K.#.S.H.W.x.",
"P N.q X *._+m+X *.S.j.F `.h+[.k+$+W.{++.G V.1.g+W.f.M [.Q.q F X r.m+6.7 K._.J 1+C s s m+w.}+S.<.+.y.v.*+*+^.j 5+N.{+{.7 g.v.d.s.",
"Y.l.V x.i.`.P.k 7.{+Z v.0 m.i+{+K 4.O.O.4.I.$+-+0.g._+H F M |+=.^.v.L.^.+.:.K N V._+v.q+^+/+w.+.{+x.H.I.1+X h+h.*+N.g+(.S <.j 3+",
"d+F [.H.K J.`.`.`.1+{+3+u G.I.j.` {+)+{+l.<+;+h+<.<+*+I w v.d.~.V ` K.l.N ).o+..A v.K.f+<.+.{+Z 6.K.K.F 8.` g+h+h.Y.7+J c f+k s ",
"}.R.1.w._+^.u ..k+K.w.O. .7.<+k v.w.^+{+6.x.U.&.1.]+j M 8.L.(.u S.x )+{+`.C 2.o.x._.q q+Y :.K.8.V 6+v.s.h.o+W.Q.U.[.n.s :+n+J u.",
"5+{.o.S K.#+f+` L.6+w.}+r. .t.3+s+Q.}+9+X.M g+V j+9+X.f.7.m.h.g.j.Y L.X. .X 0 *.<+p...2+X.j.L.S.Y I s I.=.6+g.7.3+5+;+6+D.S }+o+",
"U.{+]+7.;.|.N l.u+K )+m.o.}+U.*+g+w.j.5.X. +W.;+^+d.4.m.j.:.x.g }.b+P 8.}+u !.A ~+o.C h.M.t.I.$.8.1.p+a H.S.<+y+j.f+M.Y.2+$.%.2+",
";+;+f+1+3.5+m.o+-+L.|+W.N j.}+6+Y Q.:.c x.:.;+L. +5.!+7.g+Q.v._.X K n.[.:+6+D.).&+k  +Y A+i.X M.O.q o.e+p.3+B.y+M.7+U.s J.m.B.k+",
"Q.#+U.e+2+u.i+t c.V.L.f+t k+k+3+c 7 I C s.:+3+O._+ +3+/+l.d+d j.m.`.u.:+B A+5+D.d _+n.R.q 1.M 2+k+I.H <.f+h+3+f.U.y./+q.G.5+B.o+"};
