/* XPM */
static char * 231_xpm[] = {
"32 32 256 2",
"  	c #66964C",
". 	c #669854",
"+ 	c #6D974E",
"@ 	c #6C9754",
"# 	c #629B4F",
"$ 	c #77955B",
"% 	c #649F36",
"& 	c #6A9B50",
"* 	c #669D4B",
"= 	c #6B9D59",
"- 	c #739A64",
"; 	c #6F9C5F",
"> 	c #6AA047",
", 	c #67A054",
"' 	c #6E9F54",
") 	c #709F4E",
"! 	c #6B9F61",
"~ 	c #67A25B",
"{ 	c #749F5B",
"] 	c #6EA15C",
"^ 	c #6AA356",
"/ 	c #69A543",
"( 	c #6CA350",
"_ 	c #61A74B",
": 	c #74A24A",
"< 	c #65A83D",
"[ 	c #68A64B",
"} 	c #74A163",
"| 	c #6FA54C",
"1 	c #71A45F",
"2 	c #6DA83F",
"3 	c #6EA653",
"4 	c #6AA84D",
"5 	c #69A853",
"6 	c #6EA75A",
"7 	c #7BA26C",
"8 	c #74A65A",
"9 	c #6AAC3A",
"0 	c #70A855",
"a 	c #69AC41",
"b 	c #6CAA4F",
"c 	c #6EAA48",
"d 	c #69AA5C",
"e 	c #70A76D",
"f 	c #72A768",
"g 	c #73A94F",
"h 	c #6EA962",
"i 	c #6CAB56",
"j 	c #78A668",
"k 	c #7CA65C",
"l 	c #75AA49",
"m 	c #72AA56",
"n 	c #75A863",
"o 	c #71AA5D",
"p 	c #6AAE4A",
"q 	c #78A95E",
"r 	c #6DAD58",
"s 	c #6FAD51",
"t 	c #79A870",
"u 	c #7AAA58",
"v 	c #71AE4B",
"w 	c #6FAC6B",
"x 	c #76AC52",
"y 	c #6DB045",
"z 	c #7DAB52",
"A 	c #75AD59",
"B 	c #74AF46",
"C 	c #74AD60",
"D 	c #71AF54",
"E 	c #80AA5F",
"F 	c #79AC66",
"G 	c #78AE54",
"H 	c #6FB247",
"I 	c #71B05B",
"J 	c #7FAB66",
"K 	c #74B330",
"L 	c #7BAD61",
"M 	c #71B340",
"N 	c #74B14E",
"O 	c #6EB34F",
"P 	c #8BAA55",
"Q 	c #7EAE5C",
"R 	c #7BAE68",
"S 	c #78B05C",
"T 	c #77B249",
"U 	c #7AB056",
"V 	c #7CB04F",
"W 	c #75B069",
"X 	c #77B062",
"Y 	c #74B256",
"Z 	c #84AD5C",
"` 	c #7EAD75",
" .	c #82AF50",
"..	c #7DAF63",
"+.	c #76B350",
"@.	c #6CB74B",
"#.	c #6FB558",
"$.	c #84AE63",
"%.	c #71B834",
"&.	c #81AE70",
"*.	c #75B458",
"=.	c #77B451",
"-.	c #79B44B",
";.	c #71B652",
">.	c #73B64B",
",.	c #75B644",
"'.	c #83AF6A",
").	c #7CB171",
"!.	c #79B365",
"~.	c #7EB16B",
"{.	c #7BB35F",
"].	c #7DB358",
"^.	c #80B165",
"/.	c #73B566",
"(.	c #75B55F",
"_.	c #7FB453",
":.	c #82B260",
"<.	c #76B846",
"[.	c #79B653",
"}.	c #78B65A",
"|.	c #8BAF6C",
"1.	c #85B16C",
"2.	c #78B93F",
"3.	c #79B56D",
"4.	c #75B94D",
"5.	c #7BB567",
"6.	c #7DB560",
"7.	c #7AB754",
"8.	c #73BB3F",
"9.	c #7EB746",
"0.	c #7FB55A",
"a.	c #82B367",
"b.	c #78B762",
"c.	c #81B46E",
"d.	c #7DB84E",
"e.	c #70BC4F",
"f.	c #73BA5C",
"g.	c #82B655",
"h.	c #7AB85B",
"i.	c #75BA56",
"j.	c #79BA48",
"k.	c #83B37A",
"l.	c #89B368",
"m.	c #86B374",
"n.	c #80B75C",
"o.	c #83B569",
"p.	c #7DB768",
"q.	c #85B563",
"r.	c #87B55C",
"s.	c #7CB956",
"t.	c #7FB763",
"u.	c #7BB95D",
"v.	c #8CB275",
"w.	c #8EB26F",
"x.	c #75BE42",
"y.	c #78BC50",
"z.	c #74BE49",
"A.	c #89B570",
"B.	c #7DBD43",
"C.	c #86B76B",
"D.	c #78BD58",
"E.	c #7DBB5F",
"F.	c #7FBB58",
"G.	c #88B677",
"H.	c #84B871",
"I.	c #80BC52",
"J.	c #80BA6C",
"K.	c #82BA65",
"L.	c #84BA5F",
"M.	c #7CBC66",
"N.	c #78BE60",
"O.	c #83B978",
"P.	c #86BB59",
"Q.	c #89B966",
"R.	c #7DBF4C",
"S.	c #83BB66",
"T.	c #86B973",
"U.	c #7BBD6D",
"V.	c #84BD4C",
"W.	c #7DC22B",
"X.	c #81BD5A",
"Y.	c #8EB86D",
"Z.	c #8DB873",
"`.	c #8CBA61",
" +	c #84BC67",
".+	c #86BC61",
"++	c #89BA6E",
"@+	c #81BC74",
"#+	c #7AC247",
"$+	c #93B585",
"%+	c #89B980",
"&+	c #90B967",
"*+	c #8BB97A",
"=+	c #83BD6E",
"-+	c #82BF5C",
";+	c #84BF55",
">+	c #7CC15C",
",+	c #7EC155",
"'+	c #7FBF69",
")+	c #81BF62",
"!+	c #92B87B",
"~+	c #86C04F",
"{+	c #89BE5C",
"]+	c #8CBC69",
"^+	c #82C248",
"/+	c #86BE69",
"(+	c #89BC76",
"_+	c #7AC44F",
":+	c #88BE63",
"<+	c #81C350",
"[+	c #89BF64",
"}+	c #80C357",
"|+	c #83C265",
"1+	c #85C25E",
"2+	c #88C06B",
"3+	c #82C26B",
"4+	c #8DBF72",
"5+	c #8FBF6B",
"6+	c #82C559",
"7+	c #92BE78",
"8+	c #8CC078",
"9+	c #8DC25F",
"0+	c #86C279",
"a+	c #88C273",
"b+	c #86C64C",
"c+	c #89C459",
"d+	c #91BF7F",
"e+	c #8BC553",
"f+	c #8CC367",
"g+	c #91C16E",
"h+	c #93C167",
"i+	c #8BC36D",
"j+	c #88C561",
"k+	c #96BE86",
"l+	c #8EC27A",
"m+	c #8FC462",
"n+	c #8EC469",
"o+	c #99BF81",
"p+	c #97C175",
"q+	c #8FC37C",
"r+	c #91C375",
"s+	c #93C36F",
"t+	c #87C770",
"u+	c #A1BE7C",
"v+	c #96C27D",
"w+	c #88CA56",
"x+	c #8EC671",
"y+	c #8DC778",
"z+	c #89CA72",
"A+	c #97C585",
"B+	c #98C76C",
"C+	c #95C779",
"D+	c #91C974",
"E+	c #9AC680",
"F+	c #95CB6F",
"G+	c #A2C69B",
"D.e+=+p+u q.&+o+Q.`.C.4+Z.h+c.3 ..X c.l+O.).K.c.l+p+Y.,+_+A C O ",
"^+w+=.m.k.9+-+|._.Q.:.;+6 }...> '.k.A t.A.@+c J.`.S.*+L 2.;+v./+",
"L.W.u k+k.t.:+u+ .q.' .., g <.s &.6 b.u.7+R 8 G.% {.7.2+l.r.U $.",
">.,.i T.S L 0.&+^.T.4+5.h x 8.r+$+- ^.)+++o T.I n U P.s g.:. +L ",
"V.i.++t.q.d+A.E+{.:.!+A+{.f+y.E.%+n o -+5+s 3.3 ^.S .+>.N V d.<.",
"]+2 & X q+R )+K.i+^ s |+E.Y }.>+-+s.Q L.K.u.l t.F >.}.S.{ $ +.K.",
"7+A n Y J.g 7.o.7.C (.b.;.A ;.-.j.y.Y N.H l+t.C.. *+0+(.3.!+:.8 ",
"*+'+>.=.N 3+S i (.S u.>+T.0.i.K M j+;+8.b c.0 ^ T.k.R 2+~.G.' l.",
"s+~./.2+>.F.s.c )+O N.U.I r >.7.R.;+}.x.,+c a.C *+# ^ } J.k j 1.",
"U o.K.}.L.g.B -.].>.E.)+#.{.>.+.-.n+u.B.Q w.P ~., 1 { ; J.&.q l+",
"!.f  +s.h+u.9 7.D q }.>.a X Y -.].n+!.2+J.Q Z.J e t ; j q * *+0+",
"X C.].=.~+M.N.;.#.C g @.* |+S ].s.u. +{.u.u   '.%+& v+t.( 8 A g ",
"/ |+^+]+S.D I O X C # !.~ #.-.c 7.N K.t+t.: u l+s 3 l+S.2+L o T ",
"( ;+;+u.D a = K.i.u.1 W 4 / E.-.,.y.T.[+;.s 1 f.S 5.u.U F m q N ",
"-+L.u.g y.>.}.s.i.y.S 6 _+u.9.~+U ;+f.2+w ..| 0 ( A Z 4 x ( n 0 ",
"o.K.L Y u.9 1+/+<.Y ^.r =.>.^+{.U s.s.^ ^ C R 5 &.] h 0 b H.).o ",
"a+I * u.s / R.S.A [.A [ x.x.R.;+R.N -+H '.4 !.c.].J 3.3 G S t (+",
"G+; H.^.0 x l c n * 8 r ^+>.-.%.,.n+[.< B G 4+q N Y # 0 z H & J ",
"E+> B }+% =.s S Y 3 @ S 5.+.o b <+V.y ) + ^.)+a A ,.i :+<.2.> } ",
"4+F.D X.a d.| i ].(.n 1 a.Q 0.0.<+d.>.  &.(.q O 8 L u.{.T [.}.o.",
"i+J.Y  +< D ,+7.8.s {.}.{+Y S N g.5.8 C 8+A L ~.2+Q.=.V.,+U =.5.",
"K.u.K.].0.m x ^+@.)+y.L.K.J.u.E.H.q+L.q+O.C (.c.F.o.}.S.S.c ] D ",
"o..+_.-+].>.,.,+;+i+:+7.F.R.e.)+S.f m.2+{.!.t./+L.,+j+(+}.5.K.J.",
"g {.S K.^ N #+-.`.9+7.s.=.-.y.;.4 X ++=+g+5.K.y.i.f.x+|+t.'+-+f+",
"U Z.(+o.K.c+x .+0.~+d.0.)+].{.;.>.s 6 !.Y >.5+u.#+7.5+D+/+4+F.a+",
" +3+m .+q.1+)+x s+9.P.}+7.7.C i }.[ F F f Y (+ +c+y+(+x+C+g+F+1+",
"M.a+8 {.{.{.f+Y Y V.m+,+E.>+o o s p _ 5 I u.X 2+{+7.@+c.t+,+z.6+",
"{.m I S t.c.-+x F.R.b+{+(.a N ]./ d [ ^ S ..4+d.t.S.J.4+ +O R.z.",
"r S i 1 l |+A.++[+X.B.5+B b V 9.b [ m X !  +}.p u.}+}.q.(.A r.9 ",
"i t.5.~.d+i.E :+D.j+j+m+;+=.;.G s s j } S '+J.p t.s.(.Q.i+c.L = ",
"q.K.(+!+2+.+a._.m+s.n+g.;+7.D N 6 }.8 7 S W L c 6 Q X.n+:+5.^.T.",
".+B+A+Y.}..+7+d+U 3.5+P.L.1+=.{...] ).` k @+Z.F }.Q `.1+b.5.m.L."};
