/* XPM */
static char * 231_buzz_front_xpm[] = {
"32 32 255 2",
"  	c #000000",
". 	c #08042F",
"+ 	c #0C0913",
"@ 	c #0F0825",
"# 	c #15093E",
"$ 	c #1C0B38",
"% 	c #240D30",
"& 	c #330E05",
"* 	c #580301",
"= 	c #24111D",
"- 	c #0A1C01",
"; 	c #2F0C47",
"> 	c #211606",
", 	c #1C1A1D",
"' 	c #471657",
") 	c #132D0E",
"! 	c #3E2314",
"~ 	c #3D224E",
"{ 	c #003365",
"] 	c #3F2435",
"^ 	c #143702",
"/ 	c #54240B",
"( 	c #1A3331",
"_ 	c #2E2F2B",
": 	c #2F3122",
"< 	c #2F2F45",
"[ 	c #352F3A",
"} 	c #4E3713",
"| 	c #1A4B02",
"1 	c #1C4A4E",
"2 	c #264C13",
"3 	c #663470",
"4 	c #49404F",
"5 	c #43434A",
"6 	c #1E5502",
"7 	c #065285",
"8 	c #4F493B",
"9 	c #494A47",
"0 	c #454F3A",
"a 	c #2D5734",
"b 	c #5D466D",
"c 	c #1A5A79",
"d 	c #256106",
"e 	c #285A5E",
"f 	c #515158",
"g 	c #574F5D",
"h 	c #346114",
"i 	c #306E04",
"j 	c #28686C",
"k 	c #646004",
"l 	c #74582F",
"m 	c #3D6933",
"n 	c #4B6531",
"o 	c #3D6A2A",
"p 	c #4A6821",
"q 	c #366F1C",
"r 	c #586165",
"s 	c #635E63",
"t 	c #8C562D",
"u 	c #426E21",
"v 	c #645E6B",
"w 	c #64647F",
"x 	c #576E4E",
"y 	c #45744D",
"z 	c #6A6859",
"A 	c #686864",
"B 	c #3D7D0F",
"C 	c #357879",
"D 	c #447D2B",
"E 	c #4C7C1B",
"F 	c #507A25",
"G 	c #6E6F3D",
"H 	c #507A30",
"I 	c #4B7B39",
"J 	c #50747C",
"K 	c #4A7B42",
"L 	c #647531",
"M 	c #716D71",
"N 	c #726C7A",
"O 	c #797611",
"P 	c #5F7E3F",
"Q 	c #498914",
"R 	c #5E7F4B",
"S 	c #498D09",
"T 	c #8F7248",
"U 	c #4D8A24",
"V 	c #578826",
"W 	c #518931",
"X 	c #50893B",
"Y 	c #5C8731",
"Z 	c #578745",
"` 	c #4784A7",
" .	c #5B873B",
"..	c #56874E",
"+.	c #69833C",
"@.	c #70813C",
"#.	c #86798F",
"$.	c #7E7E74",
"%.	c #7E7C8F",
"&.	c #7E7E7B",
"*.	c #817D86",
"=.	c #5E9244",
"-.	c #559918",
";.	c #648F67",
">.	c #5B9826",
",.	c #5A982F",
"'.	c #64952E",
").	c #59983A",
"!.	c #63953A",
"~.	c #8C846E",
"{.	c #589847",
"].	c #778B70",
"^.	c #6C9248",
"/.	c #6A9250",
"(.	c #5E9559",
"_.	c #69925B",
":.	c #5F9651",
"<.	c #64994B",
"[.	c #669D22",
"}.	c #7F961F",
"|.	c #918995",
"1.	c #828D9F",
"2.	c #82935C",
"3.	c #BA825C",
"4.	c #8F8E84",
"5.	c #8E8D94",
"6.	c #9B8995",
"7.	c #60A623",
"8.	c #A88B5F",
"9.	c #938D9F",
"0.	c #67A634",
"a.	c #66A63C",
"b.	c #5FA935",
"c.	c #68A547",
"d.	c #62A746",
"e.	c #70A346",
"f.	c #6EA354",
"g.	c #65A653",
"h.	c #6AA366",
"i.	c #77A05D",
"j.	c #6BA45E",
"k.	c #76A068",
"l.	c #7AA155",
"m.	c #68B232",
"n.	c #9E99A2",
"o.	c #7CA3B4",
"p.	c #9F99AC",
"q.	c #73B05E",
"r.	c #9C9F94",
"s.	c #A29D9B",
"t.	c #9AA0A0",
"u.	c #74B442",
"v.	c #6FB54A",
"w.	c #79B249",
"x.	c #6CB743",
"y.	c #6FB551",
"z.	c #6EB558",
"A.	c #77B538",
"B.	c #78B355",
"C.	c #6EBA2B",
"D.	c #73B36D",
"E.	c #6DB661",
"F.	c #80B06A",
"G.	c #83B156",
"H.	c #83B062",
"I.	c #6FBC22",
"J.	c #8BAF56",
"K.	c #80B075",
"L.	c #A5A1A9",
"M.	c #70C017",
"N.	c #7AB765",
"O.	c #88B18A",
"P.	c #73BE3E",
"Q.	c #A6A88E",
"R.	c #C1A677",
"S.	c #71C44E",
"T.	c #A0B27B",
"U.	c #B0B05A",
"V.	c #7DC34F",
"W.	c #ADABBD",
"X.	c #79C26C",
"Y.	c #7CC356",
"Z.	c #A9AEAE",
"`.	c #A9AFA3",
" +	c #7AC364",
".+	c #7CC35D",
"++	c #B0ACB4",
"@+	c #86C15E",
"#+	c #7BC92D",
"$+	c #80C17A",
"%+	c #83C171",
"&+	c #85C16B",
"*+	c #89C251",
"=+	c #85C265",
"-+	c #89C258",
";+	c #B3AEAD",
">+	c #90C151",
",+	c #8EBE82",
"'+	c #91C064",
")+	c #7FC93C",
"!+	c #92BF70",
"~+	c #90BF78",
"{+	c #7EC948",
"]+	c #9ABE64",
"^+	c #9BBB84",
"/+	c #83CD1A",
"(+	c #89CC34",
"_+	c #8ECB4E",
":+	c #88CD59",
"<+	c #88CD60",
"[+	c #86CD68",
"}+	c #91CD43",
"|+	c #8ACC76",
"1+	c #92CC6F",
"2+	c #94CD69",
"3+	c #96CC7D",
"4+	c #BEBAC6",
"5+	c #9DD03C",
"6+	c #98CD77",
"7+	c #99CF5E",
"8+	c #93CD8D",
"9+	c #98CF64",
"0+	c #A3CA7C",
"a+	c #A1D226",
"b+	c #95CE85",
"c+	c #D0BB8E",
"d+	c #9FCD70",
"e+	c #A1CF55",
"f+	c #BFBDC0",
"g+	c #A1CB95",
"h+	c #A4CF88",
"i+	c #B0C7C5",
"j+	c #B7CB82",
"k+	c #A4CFA5",
"l+	c #C4C4B5",
"m+	c #A8D090",
"n+	c #ADD174",
"o+	c #B1CE8B",
"p+	c #B7CD8B",
"q+	c #B6CF9B",
"r+	c #BFCD99",
"s+	c #AED485",
"t+	c #A4DC7A",
"u+	c #B8D2AC",
"v+	c #AFD6A0",
"w+	c #B8D2B9",
"x+	c #A9DC89",
"y+	c #ADDC7D",
"z+	c #CDCCCF",
"A+	c #B9E191",
"B+	c #BAE19B",
"C+	c #BDE4AB",
"D+	c #BCE4B9",
"E+	c #C9E5C3",
"F+	c #DEDEDD",
"Y.-+!+~+H.&+!+^+&+'+q.3+~+'+F.8.~._.F.~+~+F.N.F.~+!+F.Y.:+B.q.y.",
"V.*+B.~+K.@+@+F.G.H.H.B.j.N._.$.4.4.j.N.~+F.y.&+G.=+~+q.u.V.K.&+",
"@+#+G.^+,+=+'+^+B.F.j.i.f.q.2.8.8.R.F.N.!+K.F.K.a.f.B.&+H.B.B.H.",
"B.w.q.~+H.F.G.H.H.~+&+&+<.i.4.8.R.R.G  .i.q.F.F.i.G.G.f.B.H.N.f.",
"u.B.H.N.&+~+~+3+q.F.g+t.].f+s.8.R.R.8 9 5.Z.K.q.j.B.=+w.B.w.w.w.",
"&+e.H.g.~+F.=+N.=+=.4.Z.s f+*.l l l = [ 9.;+=.q.q.@+N.&+i.i.w.N.",
"~+q.F.B.N.B.B.F.H.t.D r.`.].[ $ $ $ 0 ].f+/._.`.:.K.%+N.q.K.H.i.",
"~+N.v.B.y. +N.i.s n.A d _.O.`.t.t.L.Q.r.l.>.4.r.A ,+F.&+K.~+i.H.",
"'+K.N.H.w.B.w.9 f *.&.6 a P K.%.w M B p V =.4.$.$._.q.k.&+F.k.F.",
"G.H.N.G.H.@+w.A 0 f &.a 1 ^ h &.*.A h } B ].M [ A ].f.i.F.i.q.~+",
"N.F.=+G.'+@+K.4.g [ g A | | 2 d q i d } R 5.5 &.5.`.K.K.F.f.K.~+",
"q.~+H.B.*+=+t.*.4 R ].N g ( a a 9 a a 5 5.s._.*.f Z.~+H.f.f.N.f.",
"e.&+P.'+=+F.n.9.N q.k.g @ s N N *.*.*.f < 4.e.r.9.f+^+@+N.q.q.u.",
"<.-+-+q.B.:.].A /.B.f.4 r 5 5 [ [ 5 9 A A _.i.K.5.r.K.B.F.q.f.w.",
"=+@+B.f.B.n m i f.v.q.K.B.)           _.K.H.f.R I B  .c.f.<.i.&+",
"F.N.q.y.@+w.%.n.$.B.H.q.l.^ -       ^ n j.q.F.K k.r.K.f.B.F.k.N.",
"%+q.i..+B.c.].*.f+F.N.f.!+N 9 2 d m z O.F.f.N.t.f+`.D.f.B.F.F.~+",
"g+/.~+F.f.B.w.M n.K.i.q.t.p.v v v v 5.f+H.e.&+t.L.K.q.f.B.v.f.F.",
"~+e.w.V.a.@+B.F.9.f+t.O.t.9.v f g s n.Z.4.q.,+f+r.v.q.N.V.u.f.i.",
"~+w.B.@+u.V.e.q.%.++K.k.n.n.|.K.H.4.|.n.].O.p.z+r.H.N.B.B.B.B.F.",
"'+F.G.&+v.G.Y.w.M %.O.N.t.n.L.v.@+O.|.#.K.5.4.++Q.H.y.w.V.B.B.N.",
"&+@+B.G.B.B.y.P.].N 5.~+r.L.Z..+%+O.9.#.K.k.Q.n.K.H..+&+@+c.k.B.",
"F.@+w.B.B.B.u.V.@+%+=+B.4.n.r..+&+O.9.*.K.q.9.*.=+Y.@+~+N.N.F.N.",
"B.N.H.&+f.B.V.w.!+'+B.B.*.9.t.B.f.K.|.N k.N.k.N.B.B.1+=+N.N.@+@+",
"B.~+~+&+N.@+B.@+B.*+V.H.|.|.n.v.B.K.|.N ].w.&+N.{+.+!+1+&+~+@+&+",
"&+N.f.@+H.B.B.B.!+V.@+&+9.n.n.q.B.4.9.n.`.B.~+&+@+&+~+1+3+!+1+@+",
"N.&+i.q.H.N.=+B.B.V.@+~+9.p.L.j.c.O.n.L.`.B.F.1+Y.B.~+N.&+Y.V.-+",
"&+q.q.q.=+F.@+B.B.V.*+O.p.++++K.c.t.L.W.f+,+&+Y.N.&+F.&+&+y.u.V.",
"j.N.q.i.w.=+F.&+=+Y.V.t.9.n.L.K.y.L.9.n.Z.O.N.v.N.V.B.H.N.N.G.a.",
"q.N.K.F.~+=+i.@+Y.'+.+r.|.L.9.k.e.5.9.L.L.K.N.v.q.B.q.@+&+F.F.i.",
"&+H.~+~+=+=+H.H.@+@+=+F.K E K.N.j.O.;.E i.N.&+B.j.H.@+&+=+N.H.!+",
"G.!+,+!+B.@+~+~+B.N.&+R 0 0 x h.q.;.a 0 x h.!+F.N.H.!+'+N.F.%+@+"};
