/* XPM */
static char * 5_escudos_64px_xpm[] = {
"64 64 255 2",
"  	c #294B23",
". 	c #265B16",
"+ 	c #33581B",
"@ 	c #44551E",
"# 	c #3B6436",
"$ 	c #4B6039",
"% 	c #37701B",
"& 	c #3A6F26",
"* 	c #34730E",
"= 	c #3A6F2F",
"- 	c #406F1E",
"; 	c #486C27",
"> 	c #3F710F",
", 	c #476C30",
"' 	c #496D1F",
") 	c #5D672F",
"! 	c #467644",
"~ 	c #507445",
"{ 	c #4A7C29",
"] 	c #487C33",
"^ 	c #477C3B",
"/ 	c #43811B",
"( 	c #537A3C",
"_ 	c #4E7F1E",
": 	c #587C1F",
"< 	c #46840D",
"[ 	c #448700",
"} 	c #45842D",
"| 	c #547C5B",
"1 	c #617951",
"2 	c #587F2F",
"3 	c #6B783E",
"4 	c #607D30",
"5 	c #597F38",
"6 	c #667C42",
"7 	c #538532",
"8 	c #52834F",
"9 	c #508544",
"0 	c #50863C",
"a 	c #5C8151",
"b 	c #5C8345",
"c 	c #4F8D28",
"d 	c #5A8B29",
"e 	c #549320",
"f 	c #559416",
"g 	c #589247",
"h 	c #5C9239",
"i 	c #55943D",
"j 	c #5B9240",
"k 	c #62903E",
"l 	c #5B914D",
"m 	c #678E46",
"n 	c #5A9155",
"o 	c #6D8D3F",
"p 	c #668E4D",
"q 	c #758B3F",
"r 	c #609147",
"s 	c #638E61",
"t 	c #648F56",
"u 	c #6E8C56",
"v 	c #778A4D",
"w 	c #589631",
"x 	c #559A0E",
"y 	c #629432",
"z 	c #768B56",
"A 	c #778F6B",
"B 	c #5CA03A",
"C 	c #639F3A",
"D 	c #6AA01C",
"E 	c #699F46",
"F 	c #689F4C",
"G 	c #719D4B",
"H 	c #62A247",
"I 	c #68A231",
"J 	c #65A054",
"K 	c #6FA031",
"L 	c #61A24D",
"M 	c #61A52A",
"N 	c #6BA229",
"O 	c #6D9E53",
"P 	c #669F61",
"Q 	c #6DA03E",
"R 	c #6C9E5A",
"S 	c #739C59",
"T 	c #61A533",
"U 	c #61A71D",
"V 	c #769C53",
"W 	c #64A15A",
"X 	c #729C62",
"Y 	c #5AA555",
"Z 	c #6E9D6E",
"` 	c #849863",
" .	c #64A83E",
"..	c #63A945",
"+.	c #6BA742",
"@.	c #66AD53",
"#.	c #6CAC57",
"$.	c #6EAC50",
"%.	c #6EAB5D",
"&.	c #75AA55",
"*.	c #6DB12A",
"=.	c #64B428",
"-.	c #69B337",
";.	c #6CB23F",
">.	c #63B540",
",.	c #6CB247",
"'.	c #75AF4B",
").	c #6BB069",
"!.	c #6CB24E",
"~.	c #76AD66",
"{.	c #7BAC60",
"].	c #74AD6E",
"^.	c #68B262",
"/.	c #83AA61",
"(.	c #82AA67",
"_.	c #83AB58",
":.	c #81AA6F",
"<.	c #88AB4D",
"[.	c #8CAA59",
"}.	c #6DB91F",
"|.	c #99A56F",
"1.	c #6DB55A",
"2.	c #74B35B",
"3.	c #7BB343",
"4.	c #77B53B",
"5.	c #75B364",
"6.	c #7CB25C",
"7.	c #6DBC32",
"8.	c #76BB34",
"9.	c #77B581",
"0.	c #69BE4F",
"a.	c #6BBE48",
"b.	c #85B183",
"c.	c #71BD40",
"d.	c #71BC50",
"e.	c #74BB56",
"f.	c #75BC48",
"g.	c #78BB50",
"h.	c #96AE88",
"i.	c #7FBA55",
"j.	c #71C062",
"k.	c #78BE60",
"l.	c #76C51C",
"m.	c #76BF67",
"n.	c #7DBD67",
"o.	c #7FBD61",
"p.	c #79BE6D",
"q.	c #77BE76",
"r.	c #83BB74",
"s.	c #82BB7C",
"t.	c #85BC67",
"u.	c #87BC61",
"v.	c #85BC6E",
"w.	c #91BA67",
"x.	c #91B975",
"y.	c #93B96E",
"z.	c #8FB97D",
"A.	c #71C657",
"B.	c #79C72F",
"C.	c #70C65E",
"D.	c #9BB866",
"E.	c #7AC549",
"F.	c #77C73D",
"G.	c #A8B37C",
"H.	c #79C557",
"I.	c #7DC45F",
"J.	c #82C451",
"K.	c #81C458",
"L.	c #7BC752",
"M.	c #81C740",
"N.	c #89C359",
"O.	c #88C35F",
"P.	c #84C833",
"Q.	c #8BC843",
"R.	c #81CF21",
"S.	c #8FC936",
"T.	c #81C96D",
"U.	c #8BC94F",
"V.	c #87C871",
"W.	c #89C86A",
"X.	c #8CCD27",
"Y.	c #83CD50",
"Z.	c #85C978",
"`.	c #8EC771",
" +	c #8DC778",
".+	c #91C76B",
"++	c #91C957",
"@+	c #87CC60",
"#+	c #86CC66",
"$+	c #8BCC59",
"%+	c #A0C752",
"&+	c #8BCA80",
"*+	c #89CA88",
"=+	c #99CA52",
"-+	c #9BC866",
";+	c #92CB68",
">+	c #93CC61",
",+	c #A3C766",
"'+	c #9CC96F",
")+	c #99C97B",
"!+	c #9BC975",
"~+	c #96C98A",
"{+	c #99C982",
"]+	c #8BD346",
"^+	c #A6C773",
"/+	c #A2C782",
"(+	c #A0C78B",
"_+	c #A4C77D",
":+	c #A0C799",
"<+	c #93CE78",
"[+	c #95CE71",
"}+	c #A8C68C",
"|+	c #9FD12F",
"1+	c #94CC99",
"2+	c #95CF7F",
"3+	c #98D34B",
"4+	c #9DDA0E",
"5+	c #A5D250",
"6+	c #98D562",
"7+	c #C5C392",
"8+	c #96D56C",
"9+	c #9DD55C",
"0+	c #B5CC7B",
"a+	c #B3CC83",
"b+	c #BEC894",
"c+	c #A2D46F",
"d+	c #B2CD8A",
"e+	c #A6D37C",
"f+	c #A6D565",
"g+	c #A5D385",
"h+	c #A4D38C",
"i+	c #A2D394",
"j+	c #A9CFB2",
"k+	c #B0D27E",
"l+	c #9ED87D",
"m+	c #AFD286",
"n+	c #ABD296",
"o+	c #B0D471",
"p+	c #B4D097",
"q+	c #AED38D",
"r+	c #AED2A0",
"s+	c #BACEA7",
"t+	c #AED2A9",
"u+	c #BFD6BD",
"v+	c #B6E089",
"w+	c #BEDDA2",
"x+	c #B7E194",
"y+	c #B7E19A",
"z+	c #B8DFAF",
"A+	c #C1DEB2",
"B+	c #C7DCB6",
"C+	c #B8E3A5",
"D+	c #B6E780",
"E+	c #BEE1BF",
"F+	c #C2EABA",
"o.2.U.v.t. +{+!+u.6./.x.)+u.z.z./.x.)+v.6.2.e.)+(.w.J.c+&+$.G w.l u.t.%.:.s ~.t.].z.z.#.o.v.{.R z.~+{+/+z.i.I.L.O.E.o.S v.o.o.J.",
"c.N.Q.o. +/. +t.(.y.{.u.'+6./.}+t.o.w.6.:.t. +r+n+/+w.n.{+R X $.n.v.5.`.`.6. +z.:.v.~+p o.6.v.{.z.J.w.w.v.v.2.c.N.f.2.o.R W 2.d.",
"M.U.U.v.!.i.v.:.:.v.x.=+N.(.E y._.w./.t.{.u.$+>+6.&.e.v.#.v.E r t.z.:+:+v.,.~.t.z.t. +~. .2.#.`.:.N.i.z.{.:.:.$.-.M.`.g.(+b.~.i.",
"8..+M.K.;.t.z.(+~+~.N.u.E.u.G (+i.3.u.(.R +.'.5.%.l +.x.2.{.$.6.:.&.%.~.%.~.v.i.i+t.n.5.'.r )+/.w.+.'.g.r.h+&.{.$.U.E.*.{.x.v.`.",
"6.t.l.M.&.u.)+z.b.~.&.u.w.w.}+)+g.d 6.(.{.J $.t #.W %.,.+.+.'.j P ~.R %.k.5.2.o.(+x.5.:.~.$.{+:._.C &.+.f.v.)+r.p u.I t.O./.%..+",
"i.u.l.3.5.6.{+(+(+ +t.{.O.w.}+'.++/.x.{.~.O (.x.{.p S &.f.;.K.2.:.:.X '.o.n.n.W.t._.{.v.:.t.z.X $.+.&./.'.,.'.u.!+y.[.+.&.6.X t.",
"E.K.+.F.#.v. +z.(.t.:.t.i.w._+i.y.S v.~+z.n.6.o.5.].S $.f.J.W.r.(.b.:.X 6.{.5.c.o.%.(.&.)+R r.].J p f.i.u.-.$.O i..+{.w.6.'.O X ",
"v.+.i.E.H o.{+:.~.i.F v.5._./.W..+/.(+{.u.v.v.v.6.].~.x.z.|.G.G.G.G.G.|.|.:.v.i./+6.~.~.v.z.o.#.t.r.&.(.O.O +.!.C g.u.&.t. +n.{.",
"f.g.I.4.S t.`.W.r.u.O (.t.(.&.h+5.x.O.w.y.}+`.(.h.|.G.G.G.G.G.G.G.G.G.a+a+7+G.G.w.!+~.6.r.2.H r.%.&.5.O.[+(.J.g.f.;.N.g.3.;.c.g.",
"6.4.H.%.y.].R g.y..+{+n+{+~+(+2+n.$.$.{.x.|.G.G.G.G.|.` ` ` ` ` ` ` ` ` ` ` G.G.G.G.y.X /.~+F O {.v.J 3.'.;+g.e.6.&.E G N.n.E U.",
"o.!+J.C +.(.t $.2.:+z.t.e.u.`.o.v.i.F :.G.G.G.` ` |.}+7+b+b+s+b+b+b+b+7+b+b+|.` ` G.G.G.|.o.v.R O ].g.B.g.u.)+6.G (.m z 4.E.$.o.",
"t.v.k +.#.X ~.,.g.(+R &.g.`.x.V v.v.G.a+G.z ` G.b+b+7+b+s+7+b+b+b+s+7+7+b+b+7+7+7+|.z |.G.G.i.~.v.f.'. +v.R v.`.&.` (.:.S L.o.(+",
":+t.&.H r.R R 4.~+t.6.g.4.n.v.r.:.b+G.|.` G.7+7+7+7+7+7+7+7+G.G.}+b+s+b+7+7+7+7+7+7+b+` ` G.G.)+%.r O :.1.{.2.2.r.t :.(.t.F p v.",
"(+'.v.].r...E.v.F '.F 6.'.o.X h.b+G.` G.7+b+b+s+b+}+}+G.G.|.}+}+p+b+G.G.}+b+G.G.G.b+b+G.G.` |.G./+t ~.(+~+~+v.V.5.5. +~.u.~.n.&.",
"(+~.r.n.+.-.K.k.$.,.k.p.6.n./+7+G.` G.}+G.h.}+h.G.b+G.s+p+p+s+b+}+p+b+}+}+}+}+b+b+G.G.p+p+G.|.|.G.G.:+5.v.~+2.n.R :.o.z.%.v.v.V ",
"(+{.i.k.$.f.n.$.o.$.u.t.v./+7+G.` 7+s+}+}+b+}+b+}+s+p+A+r+:+}+G.G.h.G.b+b+s+}+}+b+b+s+s+p+}+7+G.|.G.d+z.k /.x.)+z.x.5.~+7 O n.{.",
")+N.:.%.p.2.e.x.6.g.O.K.)+b+G.` 7+b+s+G.h.|.|.h.}+s+:+A+s+r+h.|.|.` G.b+s+s+}+b+G.G.G.h.p+G.7+7+G.|.7+}+p v.t z.s.4.'.z.v.F r.t.",
".+v.~+&+r.5.g.u.+.3.6./.b+G.z 7+7+7+s+b+A+B+B+A+r+A+:+A+r+s+A+u+s+F+A+s+:+A+:+s+A+s+b+A+s+}+G.7+b+G.G.7+z.n.r.u &+o.p z.{.:.{.x.",
"u.o.'..+v.'.6.t.'.w.i.}+7+` 7+7+7+7+s+s+s+s+s+s+s+A+:+s+s+A+s+b+b+s+A+s+:+s+r+A+s+s+b+b+s+b+7+7+7+b+|.7+7+:.~.J r.Z.R O o.u `.:.",
"6.+.p z. +'.6.g.u.6.)+7+|.G.7+7+7+7+s+:+b+G.G.}+:+A+}+s+p+}+}+h.h.}+:+r+:+s+:+:+}+}+G.b+s+s+7+7+b+}+b+|.7+G.z X o.(.P X t.&.i+v.",
"v.%.g :.x.2.'.u.t.t.b+G.|.7+7+7+7+b+s+s+s+b+p+s+:+s+:+p+s+b+}+G.G.}+p+p+:+s+s+}+s+b+}+s+}+b+7+b+b+b+a+G.G.b+x.:.5.O ( r.R v.z.&+",
"5. +r.~+6.O.i._.)+^+7+` b+b+b+b+b+b+s+r+h.b.h.:.:+b+}+b+b+}+}+}+b+b+}+}+}+}+b+:.|.` |.|.s+s+b+7+b+b+b+G.|.7+r+X y.$.+.&.z.:+z.v.",
"g  +(.~+&.W.g.O u.b+G.|.7+G.p+s+b+s+s+s+}+h.s+h.:+b+G.}+G.G.b+b+b+b+G.G.}+}+b+h.r+}+:+:+r+s+b+b+s+b+a+G.G.G.b+(.6.F O :.o.(.o.O ",
"H v.u. +%.i.g.'.)+7+|.b+}+}+A+A+s+s+s+s+}+h.p+G.}+b+G.b+G.b+}+b+}+b+}+}+b+}+s+h.:+}+:+:+r+s+h.b+s+z+b+b+G.|.7+G.&.G &.#.F '.E i.",
"r i.V.W.g.J.O.w.G.7+|.G.G.b+A+A+s+b+b+:+b+h.p+G.G.b+G.G.G.}+s+s+b+s+b+}+}+}+s+h.:+}+h.r+s+s+s+h.b+B+s+}+a+|.7+b+K.'.(.(.5. +2.f.",
"T &.H.`.8.M.`.x.b+G.h.}+p+s+s+b+s+s+}+s+p+p+b+b+b+b+}+b+b+7+|.s+}+G.b+b+}+}+s+s+s+s+r+s+A+A+s+A+G.s+A+s+a+G.|.b+&+r.1.R n.l +.3.",
"M j g.O.M.E.W. +7+|.}+G.` A h.h.z ` h.}+}+G.}+b+G.s+b+s+b+b+b+b+b+b+b+s+s+b+s+G.}+p+p+s+:+r+|.A :+h.h.` G.}+h.7+i+X L {.v.R g.'.",
"r.k u.J..+u.i.x.7+h.G.G.}+r+A ` s+G.}+r+h.|.|.G.h.b+s+7+b+7+}+G.}+}+b+b+G.p+s+G.s+G.G.t+:+s+s+w+h.z r+}+7+G.|.b+}+(.{.&.6.O C +.",
"[+2.L.O.N.v.2.}+a+h.G.b+}+h.h.|.}+b+}+s+s+b+b+B+h.s+G.b+G.b+G.b+}+G.7+G.b+G.s+G.s+b+s+z+t+r+s+}+G.G.|.}+7+G.h.7+}+h  .b S X :.r ",
"`.,.~.i.f.6.k b+b+A G.b+b+G.}+}+G.G.G.s+s+b+7+b+G.s+b+|.b+7+b+}+b+b+}+s+G.b+s+}+b+b+b+A+t+t+p+}+b+}+}+b+7+7+G.G.}+f.E E 9 `.v.K.",
"z.,.2.u._.&.'.G.b+h.G.b+b+b+b+}+G.}+G.p+G.G.|.}+G.G.|.7+` G.` G.|.|.G.|.}+G.G.G.G.` |.:+r+r+}+p+}+b+b+7+7+7+}+G.b+v.x.%.j  +$.t.",
"o.x.W.&.{.&. .G.b+h.}+b+b+b+}+}+}+G.G.}+G.G.G.G.G.}+G.G.b+7+7+G.G.G.b+G.G.G.G.|.|.G.G.h.:+t+p+s+b+b+b+7+7+7+G.h.7+,.6.:.~.r.s.E ",
"o..+v.e.F %.&.G.b+h.}+7+b+b+}+G.G.G.}+}+:+G.h.}+h.G.G.G.b+b+b+b+7+s+b+b+G.G.G.}+h.h.h.h.s+s+s+s+s+b+b+7+7+a+G.|.b+r.{.r.s z.~+ +",
"&+z.R 2.{.~.W.G.b+|.b+7+b+}+}+b+}+}+G.}+}+b+h.b+G.G.b+b+b+b+b+b+s+b+b+7+7+b+}+}+G.h.}+h.r+u+s+s+s+s+b+7+7+7+G.G.b+K.$.(.:.'.&.{+",
"t+~+X z.~+z._.b+b+h.G.7+b+b+b+s+s+}+b+G.h.b+G.}+b+s+G.}+b+7+b+}+G.b+b+b+b+G.b+s+b+h.s+h.:+s+s+A+F+s+s+b+7+7+}+|.d+'.6.g.F w F S ",
":.t+l b u.{+y.G.}+|.b+7+7+b+b+s+B+s+G.G.G.b+}+b+b+b+b+G.b+b+G.G.7+|.}+b+G.b+s+b+s+h.r+h.}+}+:+A+F+A+s+b+7+7+|.G.}+'.c.'.S O :.&.",
"'.n+H b i.u.J._+G.h.}+7+7+b+}+s+A+}+}+G.h.s+b+b+G.b+s+b+G.G.b+}+}+G.}+b+b+s+}+}+b+}+b+h.b+s+:+:+A+s+s+b+7+b+|.}+y.B.4.E.r %.r (.",
"i+{.O.o.w g.'.w.G.G.G.7+b+r+h.}+}+h.}+}+G.h.p+G.}+b+7+s+b+s+G.G.|.|.b+s+b+b+7+G.h.G.:+G.b+h.b.|.h.:+h.h.b+b+h.G.x.B.4.,.3.r P O ",
"i+x.3.f.R '.O.g.7+}+h.7+7+G.p+h.h.}+|.G.}+|.h.` A b+b+G.}+s+G.}+G.h.}+s+G.b+b+G.` |.` b+s+}+G.:+~ }+b+b+7+G.|.b+W.'.M.E i.&.].&.",
"O.v.:.g.!.o.O.u.G.}+h.b+7+7+p+` |.r+}+G.}+G.|.}+G.s+G.G.G.` h.G.G.|.G.|.b+G.G.|.}+|.7+b+s+s+:+|.}+A s+s+b+}+G.b++.g.i.`.o.K.i.{+",
";+6.x.v.i.y.v.)+w.a+h.}+7+7+G.b+}+}+b+}+G.}+G.|.}+h.` }+|.|.G.G.}+|.}+|.|.G.` h.` 7+b+b+s+s+:+b+s+b+b+7+b+:.b+^+g.I.;.G i.,.{.~+",
"u.{+'.&.o.g..+k.#.G.}+|.b+7+7+b+b+b+}+}+b+}+G.G.G.` h.h.G.|.G.h.b+|.}+G.G.` |.|.}+b+b+b+b+b+p+p+s+s+7+b+}+h.a+t.4.H.%.u.5.2.6.%.",
"6..+O.2.i.i..+6.&./+a+h.b+7+7+7+}+b+b+}+}+}+b+G.}+G.G.` |.h.}+G.}+G.}+h.` |.}+b+b+b+s+p+s+b+b+s+s+s+b+b+h.b+}+o.)+J.C ;.(.X 2.F ",
"$.(+g.t.u.O '.&.i.].7+}+}+b+b+7+b+b+b+b+b+s+s+s+b+b+}+}+b+G.|.h.}+|.|.}+b+b+b+s+s+p+p+s+s+s+s+s+s+b+7+b+h.b+x.v.t.k +.%.X 5.2.W.",
"6.y.o.2.6.E J.g.n.'.)+a+G.b+7+7+7+b+b+b+s+s+}+h.r+s+b+s+p+p+}+G.z G.}+s+b+p+p+b+s+:+p+s+r+b+s+s+7+b+b+h.}+{+v.(+t.&.#.:.%.{.x.n.",
"y.z.o.u.+.N.o.%.v.,.g.b+b+G.7+7+7+7+7+7+s+b+h.b+G.h.h.s+p+p+b+p+}+b+p+s+b+s+b+s+G.G.|.}+s+}+s+s+7+b+}+G.G.i.n.v.!.t.r.T.k.)+!+&.",
"u.6.t.6.6.u.z.'.$.$.i.x.a+}+}+b+7+7+7+7+G.b+s+s+}+}+}+s+r+b+s+b+s+:+h.s+r+b+s+s+b+b+b+G.}+G.s+b+s+s+|.G.{+E.u.t.5.v.t.2.H.O.t.u.",
"&.O 6.n.v.i.u.x.P O '.2.y.G.}+b+b+7+b+7+7+|.}+s+b+:+s+h.h.}+s+s+s+h.G.|.p+s+b+b+}+s+s+}+h.G.b+7+s+` G.y.W..+K.`.6.t.W.5.u.O.o.N.",
"6.6.z.{.(+t.v.!+(.g.N.O.$.G.G.}+s+b+G.b+b+b+G.b+b+G.s+s+}+}+s+s+s+s+b+G.p+b+}+G.b+s+s+b+}+G.b+s+` G.|.o.`..+O.`.N.v.o.x.N.o.v.W.",
",.6.z.v.r.5.&.y.v.o.N.g.e.&.G.b+}+}+7+|.}+b+7+|.G.G.h.b+b+s+b+b+s+}+p+G.G.G.b+` }+b+s+b+|.7+b+|.}+G.f.t.&.`.{+[+x.`.h+v.i.u.w.&+",
"+.6.r.v.t.6.i.!+_+W.E.k.i.K.+.G.G.}+}+7+G.|.|.G.}+b+b+` G.b+}+G.b+s+}+}+G.|.b+7+|.|.G.|.7+}+|.G.G..+.+`.n.z..+)+ +)+/+t.)+.+O.t.",
"5.v.p.W.#.F i.u.t.$.6.`.v.u.&.t./+G.b+G.b+b+b+7+7+|.G.b+G.` G.|.|.b+b+b+|.G.7+a+b+b+7+7+h.G.G.y.i.>+`.v.r.{+ +W.2+{+ +;+!+L.J.i.",
"%.2.H.5.j E F $.&.v.`.{.t.K.o.t.t.x.G.G.}+}+b+b+b+7+|.` ` |.G.G.|.` |.` G.G.G.7+b+s+h.|.G.G.y.z.2.>+K.5.s.s.J x.<+T.i.@+J.g.F.O.",
"v.r.s.`.z.O 2.v.u.$.v.o.)+o.6.o.&.g.,.y.G.b+G.G.}+s+b+b+G.G.G.G.G.G.G.G.}+G.b+b+h.|.G.G.|.:..+O.O.K.i.2.n.n.5.].k.`.i.g.M.$.N.;+",
"`.W 2.V.J k.o._.d.z.t.i..+i.t.i.'.k.J.g.u.D.G.G.}+G.}+h.}+s+s+b+7+b+s+}+}+h.|.|.G.|.(.r.u.~.t.J.o..+t.r. +n.n.r.n.@+d.;.c.;+g.F.",
"v.%.#.H 6...6.{.f.(.z.:.N.i.O F i.O.J.f.J.U.y.y.|.G.G.G.G.|.` ` ` ` |.|.G.G.|.` (.n.o.{+v.v.o.J.o.v.v..+2.v.x.O.o. +k.F +.f.J.g.",
"$.5.~.O C 2.~.&.+.'.t.g.v.w.{.x.t.o.K.o.F.o.y.t.i.6.{.{.|.h.|.|.|.|.|.S /.R %.].t t {. +2.n.,.;.t.u.i.E.,.e.$.`.5.o.X $.g.i.M f.",
"2.J t.O.%.n.(.O &.O.w.I.:.6.)+.+o.>+O.K.3.++y.{+'.3.6.$.+.6.g.'.H ,.E +.%.r.].R ~.%.'.z.t.$.i.$.o.2.o.M.n.$./.2.o.5.6.$.&.v.M +.",
"$.C %.L.~.:.v.n.r.:.o.v.S y.g.O.W.O..+t.t.K.U./+u.g.i.$.+.,.J.G '.$.!.R :.X Z P s 2.k.)+2.{.g.6.'.n.)+g.k.J x.w.t.r.z.%.r y.G O ",
"].~.:.k.r.t.R x.~+ +k.i.S /.t.u.g.i.J.N.g.O.N.g.i.++g.F 2.e.6.6.g.r g.o.:.P :.%.2.6.n.v.v.r. .'.$.v.H.I e.~.t.3.O..+:.~.%.v.r s.",
"z.:.5.2.n.z.x.{.`.)+o.u.{.(.u.i.u..+W.i.i.o.O.'.N.J.o.i.g.k.2.g.$.J I.6.J J P {.n.5.5.r.v.5.2. .v.O &.c.'..+O.v.t.i.N.{.b.6.&.z.",
"K.6.w.6.t.~+(+r.6.o.i.t.v.w.N.6.O.i.i.K.W.`..+i.u.J.c.u.6.2.e.j J r.5.2.v.X b.A i.r.s.p.v./.i.f.n.] :.{+i.O.W.<+o.v.n.r.:.'.'.{+",
"K.i./+x.z.{+w./+x.e.K.o.z.y.)+r.#.f.2.O O.w.O.`.6.i.Q.i.u.g.d.#.~.%.#.%.r.{+b.b./.&. +%.z.(+R 2.e.F R i.6..+J.{+n.].i.n.z.&.M.z.",
"u.(.U.u.z.(+x.&.E.#.o.`.x.r.(+:.{.u.v.z.t.x.u.u.o.$.w..+6.g.{.v.~.v.:.W P b. +s.p )+z.5.&.6.{.~+r.J.t.{.(.[+[+E.J.o..+:.:+5.*.{+"};
